<svg width="251" height="50" viewBox="0 0 251 50" fill="none" xmlns="http://www.w3.org/2000/svg">
<path d="M32.2163 5.44284C32.219 5.77124 32.1961 6.09937 32.1479 6.42421C33.8824 6.33292 35.165 6.68286 35.9957 7.47404C36.2936 7.76217 36.5338 8.10454 36.7032 8.48277C36.8419 8.79796 36.8994 9.14284 36.8706 9.48598C36.8419 9.82912 36.7277 10.1596 36.5384 10.4473C36.3492 10.735 36.091 10.9708 35.7873 11.1331C35.4836 11.2954 35.1441 11.3791 34.7998 11.3767C34.3958 11.389 33.9965 11.2872 33.6478 11.0829C33.299 10.8787 33.0149 10.5802 32.828 10.2218C32.7438 10.0444 32.6205 9.88836 32.4674 9.76538C32.2323 9.59706 31.9651 9.47898 31.6824 9.41851C31.3997 9.35804 31.1075 9.35649 30.8242 9.41394H30.7785C30.0947 10.188 29.2172 10.7662 28.2361 11.0891C27.2402 11.4255 26.192 11.5801 25.1414 11.5455C24.6374 11.5479 24.146 11.3878 23.7401 11.0891C23.5574 10.9507 23.4124 10.7688 23.3183 10.5598C23.2242 10.3509 23.184 10.1217 23.2015 9.8932C23.1866 9.44001 23.3375 8.99695 23.626 8.64711C23.7653 8.49454 23.9364 8.37453 24.1274 8.29564C24.3183 8.21674 24.5242 8.18092 24.7306 8.19066C25.5943 8.23868 26.446 7.97099 27.1269 7.43751C27.4046 7.1777 27.6251 6.86293 27.7744 6.51322C27.9237 6.16352 27.9986 5.78654 27.9942 5.40632H24.9816C24.7475 5.41926 24.5136 5.37635 24.2994 5.28112C24.0851 5.18588 23.8965 5.04104 23.7492 4.85857C23.4668 4.53518 23.3055 4.12378 23.2928 3.69464C23.297 3.2692 23.4378 2.85639 23.6945 2.51702C23.8421 2.32614 24.0351 2.17519 24.2559 2.07793C24.4767 1.98067 24.7183 1.94018 24.9588 1.96014H27.8573C27.8323 1.68364 27.8707 1.40508 27.9695 1.14565C28.0684 0.886216 28.2251 0.652757 28.4278 0.463011C28.9065 0.125868 29.487 -0.0353915 30.071 0.00656356C30.6522 -0.0355344 31.2299 0.125836 31.7051 0.463011C31.9095 0.649909 32.0697 0.880051 32.1739 1.13668C32.2782 1.3933 32.3238 1.66995 32.3076 1.94646H35.2973C35.5384 1.92697 35.7806 1.96762 36.002 2.06481C36.2235 2.16201 36.4174 2.31269 36.5663 2.50332C36.8198 2.844 36.9588 3.2563 36.9634 3.68096C36.957 4.10727 36.8039 4.51835 36.5298 4.84489C36.3825 5.02736 36.1939 5.17217 35.9796 5.26741C35.7653 5.36265 35.5315 5.40558 35.2973 5.39264L32.2163 5.44284ZM25.8945 14.8C25.7201 14.8138 25.545 14.7834 25.3854 14.7116C25.2259 14.6398 25.087 14.5289 24.9816 14.3892C24.7926 14.1225 24.692 13.8032 24.6941 13.4763C24.6989 13.1589 24.8026 12.851 24.9908 12.5954C25.0954 12.4543 25.2339 12.3419 25.3934 12.2685C25.553 12.1951 25.7285 12.1631 25.9037 12.1754H40.6469C41.6374 12.1754 42.3312 12.3443 42.7374 12.6867C43.1437 13.029 43.3399 13.6452 43.3399 14.5124V18.0727H29.7515C29.6841 18.0672 29.6162 18.0753 29.5519 18.0965C29.4876 18.1176 29.4282 18.1515 29.3772 18.196C29.3355 18.236 29.3026 18.2842 29.2806 18.3377C29.2586 18.3911 29.248 18.4486 29.2494 18.5064V18.5748C29.2472 18.6307 29.2575 18.6863 29.2797 18.7377C29.3018 18.789 29.3351 18.8347 29.3772 18.8715C29.4826 18.9564 29.6167 18.9972 29.7515 18.9856H42.6461C42.8296 18.9702 43.014 19.0005 43.1828 19.0738C43.3517 19.1471 43.4998 19.2611 43.6138 19.4056C43.8194 19.679 43.9285 20.0129 43.9242 20.355C43.92 20.6682 43.816 20.972 43.6275 21.2222C43.5104 21.3662 43.3595 21.479 43.1883 21.5507C43.0171 21.6223 42.8309 21.6506 42.6461 21.633H27.5834C27.1147 21.6422 26.649 21.5568 26.214 21.382C25.8418 21.2295 25.5035 21.0045 25.219 20.7201C24.9536 20.4461 24.7484 20.1196 24.6165 19.7616C24.479 19.3969 24.4094 19.0102 24.4111 18.6205V18.3466C24.3952 17.9851 24.4594 17.6246 24.599 17.2908C24.7387 16.9571 24.9504 16.6583 25.219 16.4158C25.8847 15.8968 26.7184 15.6416 27.5606 15.6992H38.6751V15.1286C38.6831 15.0352 38.659 14.9418 38.6066 14.8639C38.5214 14.8007 38.4151 14.7729 38.3099 14.7863L25.8945 14.8ZM38.6751 2.47593C38.6525 2.16165 38.7016 1.84637 38.8186 1.55382C38.9356 1.26126 39.1175 0.999083 39.3506 0.787071C39.7913 0.410118 40.3546 0.207207 40.9345 0.216512C41.5127 0.210281 42.073 0.416572 42.5092 0.796209C42.7424 1.00658 42.9251 1.26689 43.0437 1.55774C43.1622 1.84859 43.2136 2.16247 43.1939 2.47593V3.93657H43.9014C44.1996 3.92507 44.4965 3.98288 44.7686 4.10545C44.9852 4.21142 45.1731 4.36798 45.3164 4.5619C45.4532 4.75178 45.5538 4.96534 45.6131 5.1918C45.6723 5.41526 45.7029 5.64531 45.7043 5.87647C45.7029 6.11064 45.6723 6.34369 45.6131 6.57025C45.5575 6.79803 45.4566 7.01227 45.3164 7.20015C45.1702 7.39495 44.9792 7.55155 44.7595 7.6566C44.4901 7.77799 44.1968 7.83727 43.9014 7.83005H43.1939V9.3135C43.1939 9.91879 42.9534 10.4993 42.5254 10.9273C42.0974 11.3553 41.5169 11.5957 40.9116 11.5957C40.3103 11.5897 39.7357 11.3466 39.3126 10.9193C38.8895 10.4919 38.6522 9.91486 38.6522 9.3135L38.6751 2.47593Z" fill="white"/>
<path d="M48.5344 4.09691C48.2921 4.1198 48.0478 4.08641 47.8205 3.99931C47.5933 3.91222 47.3893 3.77379 47.2243 3.59482C46.963 3.28098 46.8207 2.88495 46.8227 2.47652C46.8226 2.07768 46.9595 1.6909 47.2107 1.38104C47.377 1.20012 47.5833 1.06054 47.8131 0.973373C48.0429 0.886208 48.2899 0.853879 48.5344 0.878957H55.9288C57.0562 0.878957 57.8413 1.1163 58.2932 1.58645C58.7803 2.17304 59.0208 2.92575 58.9642 3.68612V4.85006C59.0053 6.18393 58.7069 7.50637 58.0969 8.69333C57.5385 9.73153 56.7307 10.6146 55.7462 11.2631C54.6927 11.9463 53.5133 12.4119 52.2772 12.6325C50.8773 12.8866 49.4497 12.9526 48.0323 12.8287C47.5825 12.807 47.158 12.6144 46.8455 12.2901C46.6831 12.1166 46.5619 11.9087 46.4908 11.682C46.4197 11.4552 46.4005 11.2153 46.4347 10.9801C46.4347 10.7693 46.4858 10.5616 46.5835 10.3748C46.6813 10.188 46.8229 10.0276 46.9961 9.90747C47.3725 9.66997 47.8177 9.56553 48.2605 9.6108C49.3677 9.6988 50.4819 9.62964 51.5697 9.40539C52.4285 9.23678 53.2207 8.82484 53.852 8.21864C53.6056 8.29181 53.3537 8.34522 53.0988 8.37838C52.8946 8.40689 52.6888 8.42212 52.4826 8.42402H48.3061C48.0646 8.44736 47.821 8.41508 47.5939 8.32963C47.3668 8.24418 47.1623 8.10784 46.9961 7.93108C46.7336 7.62326 46.5909 7.23101 46.5945 6.82645C46.5924 6.43418 46.7299 6.05397 46.9824 5.75381C47.1545 5.58305 47.3629 5.45332 47.5921 5.37428C47.8213 5.29525 48.0654 5.26896 48.3061 5.29736H54.9474V4.56706C54.9474 4.26124 54.7877 4.11061 54.491 4.11061L48.5344 4.09691ZM49.219 17.2882C48.953 17.3056 48.6862 17.2701 48.434 17.1839C48.1818 17.0978 47.9491 16.9626 47.7493 16.7861C47.5781 16.6167 47.4439 16.4136 47.3551 16.1897C47.2664 15.9658 47.2249 15.726 47.2335 15.4853C47.2244 15.2445 47.2655 15.0045 47.3544 14.7805C47.4432 14.5565 47.5777 14.3535 47.7493 14.1844C47.9484 14.0069 48.181 13.871 48.4334 13.7848C48.6858 13.6986 48.9529 13.6637 49.219 13.6823H62.8668C63.4492 13.6677 64.0313 13.7213 64.6013 13.8421C64.9949 13.9201 65.3541 14.1197 65.6283 14.4126C65.887 14.7223 66.0573 15.096 66.1213 15.4944C66.212 16.0572 66.2532 16.6269 66.2445 17.197V19.3651C66.2445 19.9704 66.0041 20.5509 65.5761 20.9789C65.1481 21.4069 64.5676 21.6473 63.9623 21.6473C63.357 21.6473 62.7765 21.4069 62.3485 20.9789C61.9205 20.5509 61.68 19.9704 61.68 19.3651V17.836C61.68 17.6907 61.6223 17.5514 61.5196 17.4487C61.4169 17.3459 61.2776 17.2882 61.1323 17.2882H49.219ZM61.4746 2.47652C61.4521 2.16225 61.5011 1.84696 61.6182 1.55441C61.7352 1.26186 61.9171 0.999674 62.1502 0.787662C62.5909 0.41071 63.1542 0.207799 63.734 0.217103C64.3123 0.210873 64.8726 0.417163 65.3088 0.7968C65.542 1.00717 65.7247 1.26749 65.8433 1.55834C65.9618 1.84918 66.0132 2.16306 65.9935 2.47652V4.4849H66.701C67.0006 4.47361 67.2985 4.5363 67.5682 4.66747C67.7819 4.77782 67.9689 4.93361 68.1159 5.12391C68.2552 5.31069 68.3561 5.52323 68.4126 5.74924C68.4716 5.97741 68.5022 6.21197 68.5039 6.44762C68.5025 6.68179 68.4718 6.91484 68.4126 7.1414C68.3562 7.37165 68.2554 7.58871 68.1159 7.78044C67.9716 7.97694 67.7801 8.13392 67.5591 8.23689C67.2896 8.35827 66.9964 8.41755 66.701 8.41034H65.9935V10.5328C65.9875 11.1342 65.7444 11.7088 65.317 12.1319C64.8896 12.555 64.3126 12.7923 63.7112 12.7922C63.1138 12.7863 62.5426 12.5463 62.1201 12.1239C61.6977 11.7015 61.4578 11.1302 61.4518 10.5328L61.4746 2.47652Z" fill="white"/>
<path d="M68.3944 10.8992C68.3964 10.6627 68.4317 10.4275 68.4994 10.2008C68.566 9.97098 68.6726 9.75467 68.8143 9.56183C68.9673 9.36823 69.1624 9.21211 69.3849 9.10538C69.6547 8.98556 69.9479 8.92785 70.243 8.9365H78.4591C78.7527 8.92728 79.0446 8.98503 79.3126 9.10538C79.5366 9.20965 79.7323 9.36619 79.8832 9.56183C80.0294 9.75321 80.1393 9.96979 80.2073 10.2008C80.2735 10.4277 80.3073 10.6629 80.3077 10.8992C80.307 11.1386 80.2732 11.3766 80.2073 11.6067C80.1391 11.8464 80.026 12.071 79.8741 12.2686C79.7201 12.4671 79.5256 12.6305 79.3035 12.7478C79.0415 12.8778 78.7513 12.9406 78.4591 12.9304H70.243C69.9464 12.9402 69.6518 12.8775 69.3849 12.7478C69.1611 12.6329 68.9661 12.4691 68.8143 12.2686C68.6715 12.068 68.5649 11.844 68.4994 11.6067C68.432 11.3768 68.3967 11.1388 68.3944 10.8992Z" fill="white"/>
<path d="M101.368 8.32349H98.1959V11.9751H89.067C88.5065 11.9882 87.9467 11.9299 87.401 11.8016C87.0199 11.7148 86.6734 11.5161 86.4059 11.2311C86.1627 10.9247 86.0052 10.5593 85.9495 10.1721C85.8587 9.62155 85.8175 9.06399 85.8262 8.50608V4.28394C85.8186 3.72909 85.8598 3.17465 85.9495 2.62704C86.0062 2.236 86.1635 1.86638 86.4059 1.55437C86.6746 1.27086 87.0206 1.07247 87.401 0.983809C87.9469 0.857348 88.5068 0.800603 89.067 0.814925H94.9095C95.4698 0.800603 96.0296 0.857348 96.5756 0.983809C96.955 1.07151 97.2998 1.27012 97.566 1.55437C97.8211 1.86125 97.9869 2.23232 98.0453 2.62704C98.139 3.1742 98.1818 3.72888 98.1731 4.28394V4.74039H101.345V2.38967C101.324 2.07941 101.375 1.76841 101.494 1.48099C101.612 1.19356 101.796 0.937492 102.03 0.732768C102.473 0.367124 103.031 0.169882 103.605 0.175916C103.893 0.176561 104.178 0.225923 104.449 0.321954C104.716 0.418737 104.963 0.562528 105.18 0.746475C105.398 0.934892 105.572 1.16853 105.691 1.43115C105.828 1.73163 105.895 2.05941 105.887 2.38967V14.0291H101.345L101.368 8.32349ZM98.6067 14.942V15.088C98.6066 15.1391 98.5989 15.1899 98.5839 15.2387C99.4753 15.2084 100.366 15.3037 101.231 15.5217C102.103 15.7407 102.93 16.1115 103.673 16.6171C104.438 17.1502 105.09 17.8297 105.59 18.6164C106.421 19.9081 105.887 21.6061 104.353 21.6061H103.678C102.97 21.6061 101.875 21.2136 101.51 20.611C101.428 20.4731 101.338 20.3405 101.24 20.2139C100.933 19.8059 100.55 19.4604 100.113 19.1961C99.654 18.924 99.1526 18.7311 98.6296 18.6255C98.0585 18.5106 97.4722 18.4921 96.8951 18.5707C96.3385 19.1381 95.7092 19.6293 95.0236 20.0314C94.3135 20.4547 93.5646 20.8092 92.787 21.0903C92.1841 21.3665 91.5516 21.5733 90.9019 21.7065C90.1681 21.8349 89.4203 21.8625 88.679 21.7887C88.413 21.759 88.1538 21.685 87.9122 21.5696C87.5391 21.457 87.1794 21.304 86.8395 21.1132C86.6656 20.9298 86.5264 20.7164 86.4287 20.4833C86.3315 20.2415 86.2894 19.9811 86.3055 19.721C86.3179 19.25 86.5088 18.8013 86.8395 18.4657C87.1451 18.1554 87.559 17.9754 87.9943 17.9637H88.4508C88.6044 17.9605 88.7573 17.9421 88.9072 17.9089C89.4425 17.8493 89.9703 17.7346 90.482 17.5665C90.9829 17.4059 91.4649 17.1917 91.9198 16.9275C92.3544 16.6776 92.7535 16.3706 93.1066 16.0146C93.4581 15.6578 93.7371 15.2362 93.9282 14.7731C94.1332 14.1782 94.5057 13.6552 95.0008 13.2668C95.4569 12.9826 95.9961 12.8618 96.5299 12.9245C97.0691 12.932 97.5919 13.111 98.0225 13.4357C98.2353 13.6241 98.3996 13.861 98.5013 14.1264C98.603 14.3918 98.6392 14.6779 98.6067 14.9602V14.942ZM90.1168 8.04963C90.1026 8.20849 90.1377 8.36787 90.2172 8.50608C90.282 8.55429 90.3557 8.58918 90.4341 8.60877C90.5124 8.62836 90.5938 8.63224 90.6737 8.62019H93.9555V4.69473C93.9743 4.53377 93.9337 4.3715 93.8414 4.23828C93.7111 4.13949 93.5474 4.09531 93.385 4.11506H90.6691C90.5887 4.10295 90.5065 4.10764 90.428 4.12885C90.3494 4.15006 90.2761 4.18731 90.2127 4.23828C90.1304 4.37545 90.0952 4.53571 90.1123 4.69473L90.1168 8.04963Z" fill="white"/>
<path d="M117.235 4.64645V5.55934C117.235 5.70997 117.235 5.85604 117.235 5.99297C117.235 6.12991 117.235 6.2577 117.203 6.38094C118.971 6.50266 120.282 7.09605 121.137 8.1611C121.635 8.8076 121.978 9.56057 122.137 10.3612C122.206 10.6751 122.205 11.0006 122.132 11.3138C122.059 11.627 121.917 11.9199 121.716 12.1708C121.515 12.4218 121.26 12.6245 120.97 12.7639C120.681 12.9034 120.363 12.976 120.042 12.9766C119.575 12.9795 119.121 12.8285 118.749 12.5472C118.377 12.2658 118.108 11.8697 117.983 11.4201C117.915 11.1481 117.805 10.888 117.659 10.6487C117.507 10.3745 117.291 10.1416 117.028 9.97053C116.765 9.79945 116.465 9.69536 116.153 9.66737C115.841 10.2076 115.452 10.6996 114.998 11.128C114.563 11.5435 114.08 11.9066 113.56 12.2098C113.052 12.5067 112.507 12.7369 111.94 12.8945C111.386 13.0514 110.816 13.1478 110.242 13.182C109.713 13.2239 109.188 13.0605 108.777 12.7256C108.573 12.5539 108.41 12.3391 108.299 12.0968C108.189 11.8544 108.134 11.5906 108.138 11.3243C108.12 10.9205 108.237 10.5223 108.471 10.1923C108.734 9.86144 109.115 9.64547 109.534 9.58978C110.5 9.43866 111.377 8.93844 111.999 8.18391C112.596 7.43782 112.911 6.5054 112.889 5.5502V4.63731H109.968C109.717 4.64231 109.468 4.58257 109.247 4.46386C109.048 4.35631 108.874 4.20866 108.735 4.03025C108.598 3.85561 108.49 3.65982 108.416 3.45056C108.341 3.24592 108.302 3.02958 108.302 2.81152C108.305 2.59849 108.336 2.38677 108.393 2.18162C108.453 1.9637 108.553 1.75918 108.69 1.57911C108.832 1.39245 109.01 1.23706 109.215 1.12266C109.445 0.996143 109.705 0.93315 109.968 0.940096H120.535C120.797 0.93315 121.057 0.996143 121.288 1.12266C121.492 1.23706 121.671 1.39245 121.813 1.57911C121.949 1.75918 122.05 1.9637 122.109 2.18162C122.167 2.38677 122.198 2.59849 122.201 2.81152C122.201 3.02958 122.162 3.24592 122.087 3.45056C122.012 3.65982 121.904 3.85561 121.767 4.03025C121.627 4.20887 121.451 4.3565 121.251 4.46386C121.031 4.58259 120.784 4.64234 120.535 4.63731L117.235 4.64645ZM113.446 21.6491C112.76 21.6574 112.075 21.5962 111.401 21.4665C111.026 21.3671 110.685 21.1703 110.411 20.896C110.152 20.6045 109.974 20.2504 109.895 19.869C109.79 19.3585 109.741 18.8381 109.749 18.3171V16.085C109.723 15.7654 109.772 15.444 109.892 15.1468C110.013 14.8496 110.201 14.5847 110.443 14.3733C110.916 14.0058 111.501 13.8124 112.099 13.8256C112.688 13.8085 113.263 14.0028 113.72 14.3733C113.953 14.5895 114.134 14.8561 114.249 15.1527C114.363 15.4493 114.409 15.7682 114.382 16.085V17.5228C114.382 17.783 114.418 17.9382 114.496 17.9793C114.651 18.0568 114.825 18.0885 114.998 18.0706H127.39C127.662 18.0431 127.936 18.0768 128.193 18.1692C128.45 18.2616 128.682 18.4104 128.874 18.6046C129.157 18.9492 129.31 19.382 129.308 19.8279C129.31 20.2833 129.148 20.7243 128.851 21.0694C128.554 21.43 128.522 21.608 127.838 21.608L113.446 21.6491ZM124.104 2.47832C124.082 2.16245 124.134 1.84584 124.254 1.55297C124.374 1.26011 124.56 0.998857 124.798 0.789461C125.251 0.414583 125.821 0.21241 126.409 0.218902C126.7 0.219907 126.988 0.269272 127.263 0.364968C127.538 0.467833 127.79 0.622816 128.007 0.821415C128.224 1.01919 128.398 1.26013 128.518 1.5289C128.654 1.83467 128.721 2.16659 128.714 2.50114V14.0721C128.717 14.3756 128.66 14.6768 128.545 14.9578C128.43 15.2388 128.261 15.4941 128.046 15.7088C127.831 15.9235 127.576 16.0931 127.295 16.2079C127.014 16.3227 126.713 16.3802 126.409 16.3771C126.106 16.3802 125.804 16.3227 125.523 16.2079C125.242 16.0931 124.987 15.9235 124.772 15.7088C124.558 15.4941 124.388 15.2388 124.273 14.9578C124.159 14.6768 124.101 14.3756 124.104 14.0721V2.47832Z" fill="white"/>
<path d="M140.623 8.88919V7.56551C140.613 7.24297 140.679 6.92265 140.814 6.62977C140.933 6.38474 141.11 6.17298 141.33 6.01358C141.554 5.85736 141.805 5.74436 142.07 5.68038C142.358 5.61195 142.654 5.57822 142.951 5.57995C143.238 5.57901 143.525 5.61274 143.804 5.68038C144.075 5.74353 144.331 5.85989 144.557 6.02271C144.78 6.18212 144.96 6.39368 145.082 6.63891C145.22 6.9231 145.287 7.23618 145.278 7.5518V8.87551H152.992C153.265 8.84669 153.541 8.88112 153.798 8.97611C154.055 9.0711 154.287 9.22408 154.476 9.42322C154.766 9.7686 154.928 10.2043 154.932 10.6556C154.934 11.115 154.772 11.5599 154.476 11.9109C154.287 12.1063 154.056 12.2569 153.801 12.3516C153.546 12.4464 153.273 12.483 153.002 12.4586H135.474C135.203 12.485 134.929 12.4493 134.674 12.3544C134.418 12.2596 134.188 12.1079 134 11.9109C133.703 11.5599 133.542 11.115 133.543 10.6556C133.541 10.2071 133.694 9.77172 133.977 9.42322C134.165 9.22408 134.397 9.0711 134.655 8.97611C134.912 8.88112 135.188 8.84669 135.46 8.87551L140.623 8.88919ZM146.397 15.1699C146.402 15.2261 146.402 15.2826 146.397 15.3388C146.397 15.3936 146.397 15.4483 146.397 15.5122C147.318 15.4787 148.239 15.5708 149.135 15.7861C150.004 15.9916 150.83 16.3502 151.573 16.8451C152.325 17.3548 152.966 18.0116 153.458 18.7759V18.7987C154.252 20.0265 153.768 21.6515 152.308 21.6515H151.418C150.779 21.6515 149.729 21.3228 149.387 20.7842C149.008 20.181 148.479 19.6857 147.853 19.3464C146.887 18.8359 145.782 18.6518 144.703 18.8215C144.13 19.3882 143.48 19.8721 142.773 20.2593C142.04 20.6676 141.268 20.9995 140.468 21.2498C139.847 21.4946 139.201 21.6677 138.541 21.7656C137.806 21.857 137.063 21.857 136.328 21.7656C135.702 21.688 134.762 21.4689 134.41 21.1037C134.234 20.9123 134.101 20.6842 134.022 20.4357C133.943 20.1872 133.92 19.9244 133.954 19.6659C133.967 19.434 134.034 19.2083 134.149 19.0064C134.263 18.8044 134.423 18.6318 134.616 18.502C135.018 18.23 135.503 18.1088 135.985 18.1596C136.624 18.2045 137.266 18.1507 137.889 17.9999C138.493 17.8563 139.076 17.6337 139.623 17.338C140.12 17.068 140.571 16.7215 140.961 16.311C141.301 15.9609 141.545 15.5284 141.668 15.0558C141.777 14.4472 142.121 13.906 142.627 13.5495C143.131 13.2353 143.723 13.0913 144.315 13.1387C144.602 13.1501 144.886 13.1992 145.16 13.2848C145.407 13.3629 145.636 13.492 145.831 13.6636C146.025 13.8331 146.174 14.0479 146.264 14.289C146.37 14.5701 146.415 14.8702 146.397 15.1699ZM136.538 4.21517C136.247 4.24303 135.954 4.21082 135.677 4.12051C135.4 4.03019 135.144 3.88372 134.926 3.69025C134.597 3.32938 134.422 2.85454 134.438 2.36657C134.429 1.89774 134.6 1.44336 134.917 1.09763C135.134 0.89968 135.391 0.749807 135.67 0.657785C135.95 0.565763 136.245 0.533669 136.538 0.563593H150.687C151.798 0.563593 152.586 0.787238 153.052 1.23456C153.292 1.48802 153.478 1.78819 153.597 2.11642C153.716 2.44464 153.767 2.79393 153.746 3.14253V4.03258C153.752 4.82259 153.694 5.61183 153.572 6.39243C153.489 6.9534 153.364 7.50729 153.198 8.04934H148.729C148.875 7.60149 148.99 7.14391 149.072 6.68C149.167 6.13451 149.213 5.58145 149.208 5.02766V4.70814C149.208 4.37494 149.017 4.20603 148.638 4.20603L136.538 4.21517Z" fill="white"/>
<path d="M160.296 12.3358C159.735 12.3489 159.175 12.2907 158.63 12.1624C158.249 12.0765 157.904 11.8776 157.639 11.5918C157.392 11.2876 157.234 10.9212 157.183 10.5329C157.088 9.98278 157.045 9.42496 157.055 8.86684V4.41647C157.046 3.86141 157.089 3.30673 157.183 2.75957C157.234 2.36718 157.392 1.99634 157.639 1.68693C157.905 1.40268 158.25 1.20407 158.63 1.11637C159.176 0.989908 159.735 0.933162 160.296 0.947485H166.458C167.018 0.933162 167.578 0.989908 168.124 1.11637C168.504 1.20503 168.85 1.40342 169.119 1.68693C169.369 1.99653 169.535 2.36632 169.598 2.75957C169.688 3.30718 169.729 3.86163 169.721 4.41647V10.8798C169.721 11.2651 169.568 11.6348 169.296 11.9078C169.024 12.1807 168.655 12.3346 168.27 12.3358H160.296ZM161.848 21.6474C161.163 21.6559 160.479 21.5947 159.807 21.4648C159.431 21.3665 159.087 21.1696 158.812 20.8942C158.553 20.6036 158.377 20.249 158.301 19.8672C158.192 19.3573 158.142 18.8366 158.15 18.3153V15.8733C158.124 15.5532 158.173 15.2313 158.295 14.9338C158.416 14.6364 158.606 14.3718 158.849 14.1616C159.32 13.7934 159.903 13.5998 160.501 13.6139C161.089 13.5968 161.664 13.7911 162.121 14.1616C162.355 14.3778 162.536 14.6443 162.65 14.941C162.765 15.2376 162.81 15.5564 162.783 15.8733V17.5393C162.783 17.7995 162.82 17.9547 162.897 17.9958C163.053 18.0733 163.227 18.105 163.399 18.0871H175.358C175.63 18.0596 175.904 18.0933 176.161 18.1857C176.417 18.2781 176.65 18.4269 176.842 18.6211C177.133 18.9625 177.295 19.3956 177.298 19.8444C177.302 20.2999 177.139 20.741 176.842 21.0859C176.545 21.4465 176.509 21.6245 175.824 21.6245L161.848 21.6474ZM161.368 8.38757C161.35 8.55451 161.387 8.72289 161.473 8.86684C161.605 8.96329 161.768 9.00428 161.93 8.98095H165.056C165.148 8.97975 165.235 8.94266 165.299 8.87773C165.363 8.8128 165.399 8.72526 165.399 8.63404V4.87292C165.417 4.71196 165.377 4.54969 165.285 4.41647C165.154 4.31769 164.991 4.27348 164.828 4.29322H161.93C161.849 4.28025 161.767 4.28454 161.688 4.30579C161.61 4.32704 161.536 4.36476 161.473 4.41647C161.389 4.55297 161.352 4.71337 161.368 4.87292V8.38757ZM172.008 2.47657C171.985 2.16353 172.033 1.84938 172.148 1.55716C172.262 1.26494 172.441 1.00204 172.67 0.787711C173.107 0.410252 173.667 0.207109 174.245 0.217152C174.819 0.20911 175.376 0.41585 175.806 0.796849C176.037 1.0085 176.217 1.26927 176.334 1.55997C176.451 1.85067 176.501 2.16389 176.481 2.47657V5.92274H177.189C177.488 5.91145 177.786 5.97417 178.056 6.10533C178.27 6.2148 178.457 6.37075 178.604 6.56178C178.742 6.75447 178.842 6.97118 178.9 7.20079C178.959 7.42896 178.99 7.66352 178.992 7.89917C178.99 8.13334 178.96 8.36642 178.9 8.59298C178.844 8.82323 178.743 9.04026 178.604 9.23199C178.456 9.42522 178.265 9.58148 178.047 9.68844C177.78 9.81814 177.485 9.88082 177.189 9.87103H176.481V14.0932C176.481 14.6863 176.246 15.2552 175.826 15.6747C175.407 16.0941 174.838 16.3297 174.245 16.3297C173.651 16.3297 173.083 16.0941 172.663 15.6747C172.244 15.2552 172.008 14.6863 172.008 14.0932V2.47657Z" fill="white"/>
<path d="M189.234 8.1839V7.271C189.226 6.95538 189.293 6.6423 189.43 6.35811C189.548 6.11795 189.724 5.91088 189.942 5.75559C190.166 5.59848 190.419 5.48542 190.686 5.42239C190.973 5.35363 191.267 5.3199 191.562 5.32196C191.851 5.32136 192.139 5.35508 192.42 5.42239C192.688 5.48739 192.941 5.60027 193.169 5.75559C193.393 5.90873 193.575 6.11596 193.698 6.35811C193.832 6.64341 193.898 6.95595 193.89 7.271V8.1839H202.106C202.368 8.17562 202.628 8.22551 202.868 8.32996C203.064 8.42023 203.237 8.55273 203.375 8.71793C203.501 8.87401 203.597 9.05197 203.658 9.24286C203.718 9.43185 203.749 9.62884 203.749 9.8271C203.751 10.2337 203.62 10.6298 203.375 10.9545C203.221 11.1368 203.025 11.2789 202.804 11.3687C202.583 11.4586 202.343 11.4934 202.106 11.4703H184.031C183.794 11.4943 183.555 11.4598 183.334 11.3698C183.114 11.2799 182.919 11.1373 182.766 10.9545C182.52 10.6302 182.387 10.2342 182.387 9.8271C182.388 9.62884 182.419 9.43185 182.479 9.24286C182.54 9.05098 182.637 8.87272 182.766 8.71793C182.903 8.55283 183.074 8.42028 183.268 8.32996C183.509 8.22551 183.769 8.17562 184.031 8.1839H189.234ZM186.359 21.6491C185.772 21.6558 185.187 21.5743 184.624 21.4072C184.274 21.2649 183.961 21.043 183.711 20.759C183.473 20.4822 183.294 20.1589 183.186 19.8096C183.07 19.4452 183.011 19.0648 183.013 18.6822V18.6137C182.983 17.8893 183.228 17.1805 183.697 16.6282C184.154 16.1109 184.884 15.8522 185.888 15.8522H198.098V15.3958C198.098 15.1538 197.939 15.0306 197.619 15.0306H184.556C184.373 15.0421 184.19 15.011 184.021 14.9397C183.852 14.8684 183.702 14.7589 183.583 14.6198C183.376 14.3777 183.26 14.0711 183.255 13.7526C183.258 13.4327 183.367 13.123 183.565 12.8716C183.683 12.7262 183.836 12.6119 184.008 12.5387C184.181 12.4655 184.369 12.4356 184.556 12.4517H200.257C201.23 12.4517 201.901 12.6297 202.266 12.9857C202.46 13.1996 202.609 13.4506 202.703 13.7237C202.797 13.9968 202.835 14.2861 202.813 14.5742V17.2581C202.813 17.5139 202.712 17.7594 202.532 17.9407C202.351 18.1221 202.106 18.2245 201.85 18.2257H188.367C188.304 18.2175 188.24 18.2244 188.181 18.2459C188.121 18.2673 188.068 18.3027 188.025 18.349C187.963 18.4404 187.931 18.5489 187.933 18.6594C187.928 18.7659 187.96 18.8708 188.025 18.956C188.069 18.9999 188.123 19.0329 188.183 19.0527C188.242 19.0725 188.305 19.0784 188.367 19.0702H201.764C201.944 19.0535 202.125 19.0824 202.291 19.1542C202.457 19.2259 202.602 19.3383 202.713 19.481C202.901 19.7478 203 20.0673 202.996 20.3939C202.986 20.6984 202.891 20.9941 202.722 21.2474C202.54 21.5441 202.677 21.7039 202.22 21.7039L186.359 21.6491ZM185.309 4.1215C185.02 4.14824 184.729 4.11763 184.453 4.03146C184.176 3.94529 183.92 3.80526 183.697 3.61942C183.533 3.44611 183.406 3.24174 183.322 3.01833C183.238 2.79492 183.2 2.55701 183.209 2.31856C183.194 1.85707 183.358 1.40763 183.666 1.06333C183.884 0.867964 184.141 0.720359 184.42 0.629976C184.699 0.539593 184.994 0.508408 185.286 0.538402H199.436C200.543 0.538402 201.332 0.762048 201.8 1.20937C202.04 1.46283 202.226 1.763 202.345 2.09123C202.465 2.41945 202.515 2.76874 202.494 3.11734V3.91612C202.501 4.62233 202.448 5.32786 202.334 6.02491C202.252 6.53272 202.13 7.03328 201.969 7.52204H197.496C197.632 7.12963 197.742 6.72859 197.825 6.32158C197.916 5.86027 197.959 5.39058 197.952 4.92029V4.57795C197.952 4.27213 197.761 4.1215 197.382 4.1215H185.309Z" fill="white"/>
<path d="M210.35 15.9891C210.331 16.1287 210.342 16.2705 210.382 16.4056C210.421 16.5407 210.488 16.6663 210.578 16.7742C210.822 16.9312 211.111 17.0005 211.4 16.9705H217.79C218.094 16.9625 218.397 17.0168 218.68 17.1303C218.909 17.2251 219.114 17.3684 219.282 17.5502C219.442 17.7184 219.559 17.9217 219.625 18.1436C219.696 18.3617 219.731 18.5898 219.73 18.8191C219.731 19.2881 219.57 19.743 219.273 20.1063C219.089 20.3126 218.858 20.4728 218.601 20.5743C218.343 20.6757 218.066 20.7156 217.79 20.6906H209.756C209.141 20.7024 208.528 20.6334 207.931 20.4852C207.474 20.3728 207.055 20.1448 206.712 19.8233C206.381 19.4912 206.144 19.0768 206.027 18.6228C205.867 18.0278 205.794 17.413 205.808 16.7971V12.6434C205.792 12.0274 205.866 11.4123 206.027 10.8176C206.145 10.368 206.382 9.95827 206.712 9.63083C207.053 9.30951 207.474 9.08431 207.931 8.97811C208.529 8.83959 209.142 8.77521 209.756 8.78641H213.591V5.47717C213.595 5.31741 213.556 5.15945 213.476 5.02072C213.399 4.88379 213.234 4.81531 212.974 4.81531H207.994C207.682 4.82652 207.371 4.7721 207.082 4.65557C206.85 4.55364 206.646 4.39702 206.488 4.19912C206.337 4.01635 206.221 3.80748 206.146 3.5829C206.07 3.36252 206.032 3.13118 206.032 2.89823C206.033 2.6661 206.068 2.43542 206.137 2.21356C206.205 1.98581 206.322 1.77558 206.479 1.59736C206.646 1.40485 206.851 1.24937 207.082 1.14092C207.369 1.01646 207.681 0.958723 207.994 0.972034H214.157C214.811 0.957662 215.465 1.01891 216.106 1.1546C216.556 1.24754 216.977 1.45151 217.329 1.748C217.642 2.03567 217.864 2.40847 217.968 2.82064C218.101 3.35784 218.163 3.91043 218.15 4.46384V11.5068C218.15 11.7574 218.051 11.9977 217.874 12.1749C217.696 12.3521 217.456 12.4517 217.206 12.4517H211.418C211.13 12.4229 210.841 12.4903 210.596 12.6434C210.506 12.7525 210.44 12.8788 210.4 13.0146C210.361 13.1504 210.35 13.2928 210.368 13.433L210.35 15.9891ZM220.757 2.43267C220.735 2.1224 220.786 1.81141 220.905 1.52398C221.024 1.23656 221.207 0.980489 221.441 0.775765C221.884 0.410121 222.442 0.212851 223.016 0.218884C223.304 0.219529 223.589 0.268919 223.861 0.364951C224.126 0.459716 224.37 0.603742 224.582 0.789444C224.793 0.982021 224.964 1.21478 225.084 1.47411C225.217 1.77568 225.283 2.10296 225.276 2.43267V8.20671H226.029C226.328 8.19542 226.626 8.25814 226.896 8.3893C227.11 8.49877 227.297 8.65471 227.444 8.84575C227.582 9.03844 227.682 9.25514 227.74 9.48476C227.799 9.71293 227.83 9.94749 227.832 10.1831C227.83 10.4173 227.8 10.6504 227.74 10.8769C227.684 11.1072 227.583 11.3242 227.444 11.516C227.296 11.7092 227.105 11.8654 226.887 11.9724C226.62 12.1021 226.325 12.1648 226.029 12.155H225.276V19.3669C225.276 20.613 224.719 21.6491 223.45 21.6491C222.204 21.6491 220.734 20.6358 220.734 19.3669L220.757 2.43267Z" fill="white"/>
<path d="M12.2515 49.0341C11.8629 49.0632 11.4725 49.009 11.1065 48.8752C10.7405 48.7414 10.4072 48.531 10.129 48.2581C9.6547 47.7343 9.4012 47.0474 9.42154 46.341V46.2041C9.40134 45.868 9.45274 45.5314 9.57234 45.2167C9.69195 44.9019 9.87703 44.6162 10.1153 44.3783C10.721 43.9028 11.4843 43.6745 12.2515 43.7393H24.5071V43.3285C24.5134 43.2796 24.5093 43.23 24.4951 43.1828C24.481 43.1356 24.4571 43.092 24.425 43.0546C24.3257 42.9968 24.2104 42.9727 24.0963 42.9861H10.8822C10.711 42.9986 10.5393 42.9708 10.3808 42.905C10.2223 42.8392 10.0813 42.7373 9.96927 42.6073C9.77461 42.3828 9.6662 42.0965 9.66345 41.7994C9.66538 41.5034 9.76129 41.2157 9.93732 40.9778C10.0462 40.8435 10.1864 40.7379 10.3455 40.6703C10.5047 40.6026 10.6779 40.575 10.8502 40.5898H17.1492V39.8184H10.3983C10.1755 39.8412 9.95041 39.8164 9.73793 39.7456C9.52546 39.6747 9.33047 39.5595 9.16592 39.4076C8.91948 39.1233 8.78912 38.7566 8.80077 38.3806C8.79694 38.0127 8.92668 37.6559 9.16592 37.3764C9.32675 37.2178 9.5206 37.0967 9.73364 37.0218C9.94669 36.9468 10.1737 36.9199 10.3983 36.9428H28.5421C28.7703 36.919 29.001 36.9454 29.2178 37.0203C29.4347 37.0953 29.6325 37.2168 29.7973 37.3764C30.0366 37.6559 30.1663 38.0127 30.1625 38.3806C30.1736 38.759 30.0379 39.127 29.7837 39.4076C29.6169 39.559 29.4203 39.6739 29.2064 39.7446C28.9926 39.8154 28.7663 39.8405 28.5421 39.8184H21.7867V40.5944H26.762C27.7068 40.5944 28.3504 40.7632 28.7019 41.0964C28.889 41.2974 29.0323 41.5351 29.1226 41.7944C29.213 42.0537 29.2485 42.329 29.2268 42.6027V44.4285C29.2268 44.7917 29.0825 45.14 28.8257 45.3968C28.5689 45.6536 28.2206 45.7978 27.8574 45.7978H14.7346C14.6754 45.7915 14.6155 45.7994 14.5599 45.8208C14.5043 45.8422 14.4547 45.8766 14.4151 45.9211C14.3577 45.9976 14.3257 46.0902 14.3238 46.1858C14.3238 46.4278 14.4607 46.551 14.7346 46.551H28.2272C28.4008 46.5312 28.5766 46.5575 28.7368 46.6272C28.8971 46.6969 29.0362 46.8076 29.1401 46.9481C29.3127 47.2009 29.405 47.5 29.4048 47.8062C29.3973 48.0907 29.3103 48.3674 29.1538 48.605C29.0525 48.7491 28.9143 48.8633 28.7536 48.9356C28.593 49.0078 28.4159 49.0356 28.2409 49.0158L12.2515 49.0341ZM17.1766 28.8637C17.2093 28.6203 17.2944 28.387 17.426 28.1798C17.5576 27.9725 17.7326 27.7963 17.9388 27.6632C18.4198 27.3826 18.9708 27.2448 19.5273 27.2661C20.0796 27.2434 20.6266 27.3813 21.102 27.6632C21.303 27.7993 21.4726 27.9769 21.5993 28.1839C21.7261 28.391 21.8071 28.6227 21.8369 28.8637H27.4969C27.7417 28.8356 27.9897 28.8584 28.2254 28.9306C28.461 29.0029 28.6792 29.123 28.8662 29.2836C29.1258 29.5669 29.265 29.9402 29.2542 30.3243C29.2608 30.5186 29.2288 30.7123 29.1598 30.8942C29.0908 31.076 28.9864 31.2422 28.8525 31.3833C28.6711 31.5413 28.4592 31.6604 28.23 31.7334C28.0008 31.8064 27.759 31.8317 27.5197 31.8077H21.6315C21.5837 32.0913 21.4993 32.3675 21.3805 32.6293C22.4171 32.4972 23.4632 32.4544 24.5071 32.5015C25.366 32.5392 26.2134 32.7134 27.0176 33.0173C27.7138 33.2912 28.3383 33.7205 28.8434 34.2725C29.0027 34.4589 29.1052 34.6871 29.1384 34.93C29.1717 35.1729 29.1343 35.4203 29.0309 35.6426C28.9274 35.8648 28.7622 36.0527 28.555 36.1837C28.3477 36.3147 28.1072 36.3833 27.862 36.3813H25.9358C25.5918 36.367 25.2659 36.2236 25.0229 35.9797C24.8014 35.7717 24.5469 35.602 24.2698 35.4776C23.7469 35.2471 23.1934 35.0934 22.6266 35.0211C21.9603 34.9384 21.2875 34.9232 20.6182 34.9755C19.8851 35.0313 19.1572 35.1427 18.4409 35.3087C17.8697 35.5756 17.2734 35.7851 16.6608 35.934C16.0179 36.0944 15.3653 36.2133 14.7072 36.2901C14.0481 36.3667 13.3852 36.4048 12.7216 36.4042C12.0778 36.4059 11.4345 36.3678 10.7954 36.2901C10.3103 36.2468 9.86063 36.0178 9.54021 35.651C9.39518 35.4667 9.29665 35.2502 9.25295 35.0198C9.20926 34.7894 9.22168 34.5519 9.28917 34.3273C9.32182 34.1194 9.40682 33.9231 9.53617 33.757C9.66552 33.591 9.83497 33.4605 10.0286 33.3779C10.4541 33.214 10.9131 33.1561 11.366 33.209C12.0127 33.2853 12.6646 33.3082 13.315 33.2775C13.8838 33.2538 14.4492 33.1774 15.0039 33.0493C15.4669 32.9463 15.9128 32.7773 16.3276 32.5472C16.67 32.3595 16.9699 32.1031 17.2085 31.794H11.4482C11.2081 31.8176 10.9658 31.7921 10.7359 31.7191C10.506 31.6462 10.2933 31.5272 10.1108 31.3695C9.84333 31.0831 9.7005 30.7022 9.71366 30.3106C9.70287 29.9265 9.84202 29.5532 10.1016 29.2699C10.2859 29.1123 10.5003 28.9938 10.7318 28.9217C10.9632 28.8495 11.207 28.8251 11.4482 28.8499L17.1766 28.8637Z" fill="white"/>
<path d="M31.7144 44.4452C32.5175 43.9137 33.2206 43.2446 33.7912 42.4688C34.3632 41.6712 34.8096 40.7907 35.1149 39.8579C35.4701 38.7682 35.7073 37.6434 35.8224 36.503C35.9671 35.1004 36.0357 33.691 36.0278 32.2809V30.5008C36.0065 30.1905 36.0572 29.8795 36.176 29.5921C36.2948 29.3047 36.4784 29.0486 36.7125 28.8439C37.1552 28.4782 37.713 28.281 38.2872 28.287C38.5749 28.2876 38.8605 28.337 39.1317 28.4331C39.3985 28.5361 39.6421 28.6913 39.8483 28.8895C40.0592 29.0877 40.2297 29.3249 40.3504 29.5879C40.4863 29.8807 40.5534 30.2008 40.5467 30.5236V32.2809C40.5467 32.9656 40.5466 33.6229 40.501 34.2528C40.4554 34.8827 40.4234 35.4989 40.3641 36.0785C41.2787 36.4317 42.1274 36.9363 42.8745 37.5711C43.6124 38.2164 44.2064 39.0095 44.6182 39.899C45.1029 40.9538 45.4186 42.0782 45.5539 43.2311C45.6553 43.9968 45.7072 44.7683 45.7091 45.5407C45.7133 45.8273 45.6606 46.112 45.5541 46.3781C45.4477 46.6443 45.2894 46.8867 45.0887 47.0913C44.8879 47.2959 44.6485 47.4586 44.3844 47.5701C44.1203 47.6816 43.8367 47.7396 43.5501 47.7408C43.2612 47.739 42.9756 47.6798 42.71 47.5663C42.4444 47.4529 42.204 47.2877 42.003 47.0803C41.8019 46.8729 41.6443 46.6275 41.5392 46.3584C41.4341 46.0894 41.3838 45.8021 41.3911 45.5133C41.4137 44.7238 41.3401 43.9344 41.172 43.1626C40.9673 42.082 40.4103 41.0997 39.5881 40.3692C38.5991 43.8047 36.9103 46.1706 34.5215 47.4669C34.2406 47.6151 33.9413 47.7256 33.6315 47.7955C33.3325 47.8652 33.0246 47.8883 32.7186 47.864C32.4449 47.8451 32.1771 47.7754 31.9289 47.6586C31.7031 47.5532 31.5047 47.397 31.3492 47.2022C31.1955 47.0141 31.075 46.801 30.9932 46.5723C30.9118 46.3379 30.8776 46.0896 30.8928 45.842C30.9095 45.5828 30.9827 45.3304 31.1073 45.1025C31.2538 44.8378 31.4621 44.6123 31.7144 44.4452ZM47.188 29.8389C47.1667 29.5287 47.2174 29.2177 47.3361 28.9302C47.4549 28.6428 47.6385 28.3867 47.8726 28.182C48.3154 27.8164 48.8732 27.6191 49.4474 27.6251C49.7351 27.6258 50.0206 27.6752 50.2918 27.7712C50.5554 27.866 50.7986 28.01 51.0084 28.1957C51.2174 28.3821 51.3866 28.6088 51.506 28.8621C51.6432 29.1626 51.7104 29.4904 51.7022 29.8206V35.5947H52.4554C52.7551 35.5834 53.0529 35.6461 53.3226 35.7773C53.5369 35.8868 53.724 36.0427 53.8703 36.2338C54.0081 36.4264 54.1088 36.6431 54.167 36.8728C54.226 37.1009 54.2566 37.3355 54.2583 37.5711C54.2569 37.8053 54.2262 38.0384 54.167 38.2649C54.1106 38.4952 54.0098 38.7122 53.8703 38.904C53.7219 39.0983 53.5295 39.2548 53.3089 39.3604C53.0433 39.4894 52.7505 39.552 52.4554 39.543H51.7022V46.7549C51.7022 47.3562 51.4649 47.9333 51.0419 48.3606C50.6188 48.788 50.0441 49.0311 49.4428 49.0371C48.8375 49.0371 48.257 48.7966 47.829 48.3686C47.401 47.9406 47.1606 47.3601 47.1606 46.7549L47.188 29.8389Z" fill="white"/>
<path d="M62.3191 48.121C61.7141 48.1335 61.1095 48.0799 60.5161 47.9612C60.1138 47.8836 59.7437 47.6882 59.4526 47.3998C59.1829 47.0951 59.0055 46.7198 58.9414 46.318C58.8398 45.7379 58.7939 45.1495 58.8045 44.5607V31.9399C58.7939 31.3511 58.8398 30.7626 58.9414 30.1826C59.0066 29.7797 59.1838 29.4033 59.4526 29.0962C59.7438 28.8106 60.1145 28.6196 60.5161 28.5485C61.1108 28.4399 61.7148 28.391 62.3191 28.4024H69.5766C69.8646 28.3912 70.1506 28.4541 70.4074 28.585C70.6153 28.6944 70.7951 28.8507 70.9323 29.0415C71.0653 29.2257 71.1586 29.4355 71.2061 29.6577C71.2596 29.8743 71.2871 30.0964 71.2883 30.3195C71.288 30.5502 71.2604 30.78 71.2061 31.0042C71.1574 31.2276 71.0608 31.4378 70.9231 31.6204C70.7785 31.8095 70.5948 31.9651 70.3845 32.0768C70.1355 32.2065 69.8572 32.2694 69.5766 32.2594H63.8938C63.7296 32.243 63.5655 32.2922 63.4374 32.3963C63.3277 32.548 63.2789 32.7353 63.3005 32.9213V43.6478C63.2789 43.8337 63.3277 44.021 63.4374 44.1727C63.5655 44.2768 63.7296 44.326 63.8938 44.3096H70.6264C70.9144 44.2984 71.2004 44.3613 71.4572 44.4922C71.6652 44.6016 71.8449 44.7579 71.9821 44.9487C72.1151 45.1328 72.2084 45.3427 72.256 45.5649C72.3094 45.7815 72.337 46.0036 72.3381 46.2267C72.3385 46.4529 72.311 46.6783 72.256 46.8977C72.2063 47.118 72.1097 47.325 71.973 47.5048C71.8317 47.6971 71.6472 47.8535 71.4344 47.9612C71.183 48.0833 70.9058 48.1428 70.6264 48.1346L62.3191 48.121ZM73.6618 29.8174C73.6405 29.5072 73.6912 29.1962 73.81 28.9087C73.9288 28.6213 74.1124 28.3653 74.3465 28.1605C74.7892 27.7949 75.3471 27.5976 75.9212 27.6037C76.2089 27.6043 76.4945 27.6537 76.7657 27.7497C77.0293 27.8445 77.2725 27.9886 77.4823 28.1742C77.6938 28.3673 77.8631 28.6019 77.9798 28.8634C78.1171 29.1639 78.1842 29.4917 78.1761 29.822V35.596H78.9292C79.2289 35.5848 79.5268 35.6475 79.7965 35.7786C80.0108 35.8881 80.1979 36.044 80.3442 36.2351C80.482 36.4278 80.5826 36.6445 80.6409 36.8741C80.6998 37.1023 80.7305 37.3368 80.7322 37.5725C80.7308 37.8066 80.7001 38.0397 80.6409 38.2663C80.5844 38.4965 80.4837 38.7136 80.3442 38.9053C80.1958 39.0997 80.0034 39.2561 79.7828 39.3617C79.5172 39.4907 79.2243 39.5534 78.9292 39.5443H78.1761V46.7562C78.1761 47.3575 77.9388 47.9346 77.5157 48.3619C77.0926 48.7893 76.518 49.0324 75.9167 49.0384C75.3114 49.0384 74.7309 48.798 74.3029 48.37C73.8749 47.942 73.6344 47.3615 73.6344 46.7562L73.6618 29.8174Z" fill="white"/>
<path d="M93.9053 44.0345C94.1918 44.0236 94.4766 44.0815 94.736 44.2034C94.9465 44.3092 95.127 44.4661 95.261 44.6598C95.394 44.844 95.4872 45.0539 95.5348 45.2761C95.5883 45.4926 95.6158 45.7148 95.617 45.9379C95.6167 46.1685 95.5891 46.3984 95.5348 46.6225C95.4852 46.8485 95.3888 47.0615 95.2518 47.2479C95.1088 47.4385 94.9247 47.5945 94.7132 47.7044C94.4634 47.8317 94.1856 47.8944 93.9053 47.8869H85.1415C84.5676 47.9011 83.9946 47.835 83.439 47.6906C83.0323 47.586 82.6616 47.373 82.3663 47.0745C82.0854 46.7662 81.893 46.3876 81.8095 45.979C81.6941 45.436 81.6405 44.8817 81.6497 44.3266V30.7245C81.6422 30.383 81.7076 30.0438 81.8414 29.7295C81.9619 29.4641 82.1378 29.2275 82.3572 29.0356C82.5737 28.8527 82.8253 28.716 83.0966 28.634C83.3829 28.5512 83.6796 28.5097 83.9776 28.5107C84.5596 28.4918 85.1293 28.6812 85.5843 29.0448C85.8133 29.2569 85.9911 29.5184 86.1042 29.8094C86.2173 30.1004 86.2627 30.4134 86.237 30.7245V43.3909C86.2133 43.5727 86.2625 43.7565 86.3739 43.9021C86.5279 44.0062 86.7142 44.0516 86.8988 44.0299L93.9053 44.0345ZM99.3827 49.0554C98.7774 49.0554 98.1969 48.815 97.7689 48.387C97.3409 47.959 97.1005 47.3785 97.1005 46.7732V29.8846C97.0783 29.5696 97.1285 29.2536 97.2472 28.9609C97.3658 28.6682 97.5498 28.4065 97.7851 28.1958C98.2319 27.8201 98.799 27.6176 99.3827 27.6252C99.9664 27.6176 100.533 27.8201 100.98 28.1958C101.216 28.4065 101.4 28.6682 101.518 28.9609C101.637 29.2536 101.687 29.5696 101.665 29.8846V46.7732C101.665 47.3785 101.424 47.959 100.996 48.387C100.568 48.815 99.988 49.0554 99.3827 49.0554Z" fill="white"/>
<path d="M123.168 37.1897C123.474 37.1798 123.777 37.2375 124.058 37.3586C124.284 37.4604 124.486 37.6081 124.651 37.7922C124.802 37.9695 124.914 38.1763 124.98 38.3993C125.048 38.6212 125.084 38.8519 125.085 39.084C125.083 39.5523 124.922 40.006 124.629 40.3712C124.448 40.5781 124.22 40.739 123.964 40.8406C123.709 40.9422 123.433 40.9815 123.159 40.9554H105.631C105.357 40.9815 105.08 40.9422 104.824 40.8406C104.568 40.739 104.339 40.5782 104.157 40.3712C103.863 40.0062 103.703 39.5524 103.701 39.084C103.7 38.8521 103.734 38.6214 103.801 38.3993C103.869 38.176 103.982 37.9693 104.134 37.7922C104.3 37.6081 104.502 37.4604 104.728 37.3586C105.008 37.2375 105.312 37.1798 105.618 37.1897H123.168ZM107.923 35.8204C107.385 35.8313 106.848 35.773 106.325 35.6469C105.945 35.5598 105.596 35.3668 105.321 35.0901C105.063 34.8016 104.885 34.4506 104.805 34.0722C104.699 33.5588 104.65 33.0353 104.659 32.5111V30.0235C104.631 29.707 104.679 29.3883 104.8 29.0944C104.921 28.8004 105.11 28.5399 105.353 28.3347C105.831 27.9798 106.414 27.795 107.01 27.8097C107.597 27.7922 108.173 27.9776 108.639 28.3347C108.877 28.5427 109.063 28.8042 109.18 29.0978C109.298 29.3914 109.344 29.7086 109.315 30.0235V31.7124C109.315 31.9725 109.351 32.1323 109.429 32.1688C109.584 32.2463 109.758 32.278 109.931 32.2601H122.324C122.595 32.2326 122.869 32.2663 123.126 32.3587C123.383 32.4512 123.615 32.5999 123.807 32.7941C124.09 33.1387 124.244 33.5715 124.241 34.0174C124.244 34.4728 124.081 34.9138 123.784 35.259C123.596 35.4537 123.366 35.6033 123.111 35.6965C122.857 35.7898 122.584 35.8244 122.314 35.7976L107.923 35.8204ZM108.128 49.0574C107.59 49.0683 107.053 49.01 106.531 48.8839C106.151 48.795 105.803 48.6022 105.526 48.327C105.269 48.0385 105.091 47.6876 105.011 47.3092C104.904 46.7958 104.855 46.2723 104.864 45.7481V44.1277C104.837 43.81 104.887 43.4903 105.01 43.1962C105.134 42.902 105.326 42.6422 105.572 42.4389C106.054 42.0846 106.64 41.9 107.238 41.914C107.825 41.8964 108.401 42.0818 108.868 42.4389C109.105 42.6471 109.291 42.9087 109.408 43.2022C109.525 43.4958 109.572 43.8129 109.543 44.1277V44.9493C109.543 45.2095 109.58 45.3647 109.657 45.4058C109.812 45.4833 109.987 45.515 110.159 45.4971H122.461C122.732 45.4696 123.006 45.5033 123.263 45.5957C123.52 45.6881 123.752 45.8369 123.944 46.0311C124.227 46.3757 124.38 46.8085 124.378 47.2544C124.38 47.7098 124.218 48.1508 123.921 48.4959C123.733 48.6907 123.502 48.8402 123.248 48.9335C122.993 49.0268 122.721 49.0613 122.451 49.0345L108.128 49.0574Z" fill="white"/>
<path d="M134.21 37.3029V35.3402C134.181 35.016 134.222 34.6895 134.33 34.3825C134.438 34.0754 134.61 33.795 134.835 33.56C135.323 33.172 135.937 32.977 136.56 33.0123C137.173 32.9782 137.777 33.1771 138.249 33.5692C138.471 33.8039 138.641 34.0831 138.748 34.3885C138.854 34.6938 138.894 35.0182 138.865 35.3402V37.3029H142.928V35.3402C142.897 35.0155 142.938 34.6881 143.046 34.3807C143.155 34.0733 143.33 33.7932 143.558 33.56C144.044 33.1711 144.657 32.976 145.278 33.0123C145.891 32.9782 146.495 33.1771 146.967 33.5692C147.19 33.8039 147.359 34.0831 147.466 34.3885C147.572 34.6938 147.612 35.0182 147.583 35.3402V37.3029H149.135C149.41 37.2744 149.688 37.3112 149.946 37.4104C150.203 37.5095 150.434 37.6682 150.619 37.8735C150.9 38.2316 151.052 38.6736 151.052 39.1287C151.055 39.5909 150.893 40.0391 150.596 40.3931C150.411 40.5941 150.182 40.7495 149.927 40.847C149.672 40.9444 149.398 40.9812 149.126 40.9545H143.224V44.88H149.642C149.947 44.8719 150.249 44.9263 150.532 45.0397C150.759 45.1335 150.962 45.277 151.126 45.4596C151.274 45.6341 151.387 45.8356 151.459 46.053C151.526 46.2719 151.56 46.4996 151.559 46.7286C151.558 47.1943 151.397 47.6455 151.103 48.0066C150.918 48.2094 150.689 48.3665 150.433 48.4655C150.177 48.5645 149.902 48.6028 149.628 48.5772H132.101C131.828 48.6038 131.553 48.5661 131.298 48.467C131.043 48.3679 130.814 48.2102 130.631 48.0066C130.336 47.6463 130.174 47.1946 130.175 46.7286C130.174 46.4996 130.208 46.2719 130.275 46.053C130.345 45.8347 130.458 45.6329 130.608 45.4596C130.772 45.277 130.975 45.1335 131.202 45.0397C131.484 44.9263 131.787 44.8719 132.092 44.88H138.528V40.9545H132.658C132.385 40.9809 132.11 40.9439 131.855 40.8465C131.599 40.7491 131.369 40.5939 131.183 40.3931C130.889 40.0371 130.728 39.5903 130.727 39.1287C130.734 38.6709 130.894 38.2286 131.183 37.8735C131.368 37.6682 131.599 37.5095 131.857 37.4104C132.114 37.3112 132.392 37.2744 132.667 37.3029H134.21ZM148.862 28.3566C149.167 28.3467 149.471 28.4043 149.752 28.5254C149.981 28.6315 150.184 28.7875 150.345 28.9819C150.495 29.1639 150.608 29.3731 150.678 29.5981C150.745 29.8202 150.779 30.0508 150.779 30.2828C150.779 30.5147 150.745 30.7453 150.678 30.9674C150.606 31.1936 150.49 31.4031 150.336 31.5836C150.168 31.7767 149.961 31.9322 149.729 32.0401C149.456 32.161 149.16 32.2203 148.862 32.2135H132.932C132.629 32.2226 132.327 32.1633 132.051 32.0401C131.825 31.9294 131.625 31.7741 131.462 31.5836C131.301 31.4077 131.184 31.1967 131.119 30.9674C131.051 30.7456 131.016 30.5149 131.014 30.2828C131.016 30.0506 131.051 29.8199 131.119 29.5981C131.184 29.3719 131.296 29.1619 131.448 28.9819C131.609 28.7875 131.812 28.6315 132.041 28.5254C132.322 28.4043 132.626 28.3467 132.932 28.3566H148.862Z" fill="white"/>
<path d="M161.391 44.8814V41.6452H157.694C156.37 41.6452 155.434 41.3592 154.887 40.7871C154.339 40.215 154.065 39.3143 154.065 38.0849V31.8544C154.065 30.6372 154.339 29.735 154.887 29.1477C155.434 28.5604 156.37 28.2759 157.694 28.2941H171.524C171.802 28.2842 172.079 28.3388 172.332 28.4539C172.542 28.549 172.729 28.6892 172.88 28.8647C173.026 29.0284 173.132 29.2237 173.19 29.4352C173.249 29.6431 173.28 29.8581 173.281 30.0743C173.282 30.5118 173.138 30.9372 172.871 31.2838C172.707 31.4769 172.499 31.6276 172.264 31.7229C172.03 31.8183 171.776 31.8556 171.524 31.8316H159.383C158.926 31.8316 158.698 32.0279 158.698 32.425V33.2694H171.387C171.643 33.2408 171.902 33.2758 172.141 33.3713C172.379 33.4669 172.591 33.62 172.756 33.8171C173.014 34.1507 173.155 34.5596 173.158 34.9811C173.158 35.4073 173.013 35.8208 172.747 36.1541C172.582 36.3449 172.374 36.4934 172.14 36.5871C171.905 36.6809 171.652 36.7171 171.401 36.6928H158.712V37.5144C158.705 37.5981 158.717 37.6824 158.746 37.7612C158.775 37.84 158.821 37.9115 158.88 37.9708C159.032 38.0729 159.214 38.1211 159.396 38.1077H171.903C172.181 38.0999 172.457 38.1545 172.711 38.2675C172.921 38.3626 173.108 38.5029 173.259 38.6783C173.402 38.8389 173.508 39.029 173.569 39.2352C173.629 39.4398 173.659 39.6519 173.66 39.8651C173.661 40.3026 173.516 40.728 173.249 41.0746C173.086 41.2677 172.878 41.4183 172.643 41.5137C172.409 41.6091 172.155 41.6464 171.903 41.6224H166.06V44.8632H172.464C172.769 44.8551 173.072 44.9095 173.354 45.0229C173.581 45.1167 173.784 45.2602 173.948 45.4429C174.096 45.6164 174.208 45.8182 174.276 46.0362C174.345 46.2549 174.381 46.4826 174.381 46.7118C174.38 47.1774 174.219 47.6286 173.925 47.9898C173.742 48.1931 173.513 48.3506 173.258 48.4497C173.003 48.5488 172.728 48.5867 172.455 48.5604H154.928C154.654 48.5867 154.379 48.5488 154.123 48.4497C153.867 48.3507 153.638 48.1932 153.453 47.9898C153.159 47.6288 152.998 47.1775 152.997 46.7118C152.996 46.4828 153.03 46.2551 153.097 46.0362C153.167 45.818 153.28 45.6161 153.43 45.4429C153.594 45.2602 153.797 45.1167 154.024 45.0229C154.307 44.9095 154.609 44.8551 154.914 44.8632L161.391 44.8814Z" fill="white"/>
<path d="M195.26 44.7208C195.573 44.7099 195.884 44.7676 196.173 44.8897C196.408 44.9955 196.619 45.1512 196.789 45.3461C196.947 45.5271 197.064 45.7405 197.131 45.9715C197.199 46.1981 197.234 46.4333 197.236 46.6698C197.237 46.9103 197.199 47.1494 197.122 47.3773C197.045 47.6041 196.924 47.8135 196.766 47.9935C196.601 48.1882 196.395 48.3441 196.163 48.45C195.881 48.5634 195.578 48.6178 195.273 48.6097H177.837C177.533 48.6178 177.23 48.5634 176.947 48.45C176.714 48.3441 176.506 48.1883 176.34 47.9935C176.184 47.8131 176.064 47.6037 175.988 47.3773C175.912 47.1494 175.873 46.9103 175.874 46.6698C175.875 46.4335 175.908 46.1983 175.975 45.9715C176.042 45.7405 176.159 45.5271 176.317 45.3461C176.487 45.1512 176.697 44.9955 176.933 44.8897C177.222 44.7683 177.533 44.7107 177.846 44.7208H195.26ZM190.49 40.9323C190.874 40.0446 191.145 39.1123 191.298 38.1571C191.507 36.8563 191.603 35.5399 191.585 34.2225V32.7847C191.588 32.7097 191.577 32.6348 191.551 32.5643C191.525 32.4938 191.485 32.4291 191.435 32.3739C191.38 32.3189 191.314 32.2761 191.242 32.2486C191.169 32.221 191.092 32.2093 191.015 32.2142H178.622C178.309 32.2228 177.997 32.1637 177.709 32.0407C177.472 31.9374 177.261 31.7813 177.093 31.5843C176.934 31.3949 176.81 31.1784 176.728 30.9452C176.648 30.7226 176.606 30.488 176.605 30.2514C176.605 30.014 176.644 29.7783 176.719 29.5531C176.794 29.3208 176.919 29.1075 177.084 28.9277C177.262 28.738 177.474 28.5832 177.709 28.4713C177.995 28.3407 178.308 28.2782 178.622 28.2887H192.548C193.113 28.2759 193.676 28.3404 194.223 28.4804C194.629 28.5865 195.002 28.7903 195.31 29.0738C195.59 29.3553 195.791 29.7067 195.89 30.0917C196.012 30.5686 196.071 31.0599 196.063 31.5523V34.2453C196.082 35.8505 195.96 37.4542 195.698 39.038C195.516 40.1848 195.171 41.2993 194.671 42.3473C194.524 42.6449 194.317 42.909 194.064 43.1232C193.818 43.3264 193.536 43.4812 193.233 43.5797C192.925 43.6858 192.601 43.7398 192.274 43.7394C191.944 43.7401 191.617 43.67 191.316 43.534C191.081 43.4428 190.87 43.2985 190.7 43.1125C190.53 42.9265 190.405 42.7036 190.335 42.4614C190.197 41.9499 190.252 41.4056 190.49 40.9323Z" fill="white"/>
<path d="M203.544 43.374C203.526 43.5112 203.535 43.6506 203.572 43.7839C203.609 43.9173 203.673 44.0418 203.759 44.15C204.002 44.2979 204.288 44.3621 204.571 44.3326H208.2C208.466 44.3055 208.734 44.3432 208.982 44.4426C209.23 44.5419 209.451 44.7 209.624 44.9032C209.9 45.2632 210.05 45.7046 210.049 46.1584C210.047 46.3905 210.012 46.6212 209.944 46.8431C209.877 47.0685 209.765 47.278 209.615 47.4592C209.459 47.6503 209.265 47.8059 209.044 47.9157C208.78 48.0381 208.491 48.0975 208.2 48.0891H202.723C202.132 48.1015 201.542 48.0433 200.965 47.9157C200.558 47.8282 200.182 47.6309 199.879 47.3451C199.597 47.0478 199.407 46.6754 199.331 46.2725C199.224 45.713 199.175 45.144 199.185 44.5745V39.6449C199.175 39.0784 199.224 38.5123 199.331 37.956C199.41 37.5569 199.6 37.1882 199.879 36.8925C200.182 36.6089 200.558 36.416 200.965 36.3356C201.543 36.2157 202.133 36.1621 202.723 36.1759H204.777V32.821C204.79 32.736 204.783 32.6492 204.757 32.5672C204.732 32.4852 204.687 32.4102 204.627 32.3483C204.568 32.2864 204.494 32.2392 204.413 32.2104C204.332 32.1815 204.246 32.1718 204.16 32.182H201.148C200.872 32.207 200.594 32.1672 200.337 32.0657C200.079 31.9643 199.849 31.804 199.664 31.5977C199.368 31.2344 199.207 30.7795 199.208 30.3105C199.208 30.0786 199.242 29.8479 199.308 29.6258C199.376 29.4005 199.493 29.193 199.651 29.0188C199.823 28.8365 200.029 28.6893 200.258 28.5852C200.538 28.4641 200.842 28.4064 201.148 28.4163H205.507C206.142 28.4006 206.777 28.4541 207.401 28.576C207.803 28.6485 208.177 28.8301 208.483 29.1009C208.745 29.3639 208.917 29.7024 208.976 30.0686C209.059 30.5555 209.098 31.049 209.09 31.5429V39.8959H204.571C204.288 39.8664 204.002 39.9306 203.759 40.0785C203.673 40.1867 203.609 40.3112 203.572 40.4446C203.535 40.5779 203.526 40.7173 203.544 40.8545V43.374ZM215.731 39.6083H214.59V47.0485C214.59 47.5751 214.381 48.0801 214.009 48.4524C213.636 48.8248 213.131 49.034 212.605 49.034C212.078 49.034 211.573 48.8248 211.201 48.4524C210.828 48.0801 210.619 47.5751 210.619 47.0485V29.5437C210.6 29.2725 210.644 29.0005 210.747 28.7489C210.85 28.4972 211.009 28.2726 211.213 28.0922C211.604 27.7689 212.097 27.5957 212.605 27.6038C213.104 27.6019 213.589 27.7746 213.974 28.0922C214.181 28.2703 214.344 28.4943 214.449 28.7462C214.554 28.9982 214.6 29.2712 214.581 29.5437V35.8655H215.722V29.5437C215.704 29.2704 215.75 28.9966 215.857 28.7445C215.964 28.4924 216.129 28.2689 216.338 28.0922C216.739 27.7704 217.239 27.5977 217.753 27.6038C218.01 27.6032 218.264 27.6448 218.507 27.727C218.745 27.8096 218.966 27.9383 219.155 28.1059C219.345 28.2745 219.501 28.4792 219.611 28.7084C219.731 28.9702 219.791 29.2557 219.785 29.5437V47.0485C219.785 47.5751 219.575 48.0801 219.203 48.4524C218.831 48.8248 218.326 49.034 217.799 49.034H217.708C217.181 49.034 216.676 48.8248 216.304 48.4524C215.931 48.0801 215.722 47.5751 215.722 47.0485L215.731 39.6083Z" fill="white"/>
<path d="M223.057 48.1215C222.8 48.1243 222.546 48.0698 222.313 47.9618C222.102 47.861 221.916 47.7162 221.765 47.5373C221.625 47.3635 221.513 47.1677 221.437 46.9576C221.36 46.7454 221.321 46.5214 221.323 46.2958C221.321 45.8581 221.466 45.4324 221.733 45.0862C221.894 44.8949 222.098 44.7453 222.328 44.6499C222.558 44.5545 222.809 44.5163 223.057 44.5385H223.491V35.0215C223.467 34.7397 223.509 34.4563 223.612 34.1929C223.714 33.9295 223.876 33.693 224.084 33.5015C224.543 33.1563 225.108 32.9835 225.682 33.0132C226.25 32.986 226.809 33.1642 227.256 33.5152C227.463 33.705 227.623 33.9392 227.726 34.2002C227.829 34.4611 227.871 34.7419 227.85 35.0215V44.5385H229.424V35.0215C229.401 34.7409 229.441 34.4587 229.541 34.1956C229.642 33.9325 229.8 33.6953 230.004 33.5015C230.459 33.1548 231.022 32.9817 231.593 33.0132C232.163 32.9871 232.725 33.1651 233.176 33.5152C233.387 33.7024 233.551 33.9358 233.657 34.1971C233.762 34.4585 233.805 34.7406 233.784 35.0215V44.5385H234.582C234.831 44.5163 235.081 44.5545 235.311 44.6499C235.542 44.7453 235.746 44.8949 235.906 45.0862C236.174 45.4324 236.318 45.8581 236.317 46.2958C236.318 46.5214 236.279 46.7454 236.203 46.9576C236.126 47.1687 236.013 47.3648 235.87 47.5373C235.721 47.7183 235.534 47.8634 235.322 47.9618C235.091 48.0703 234.838 48.1249 234.582 48.1215H223.057ZM223.377 32.1459C223.12 32.1487 222.866 32.0941 222.633 31.9861C222.42 31.8843 222.23 31.7398 222.076 31.5616C221.924 31.3877 221.808 31.1862 221.733 30.9683C221.657 30.7528 221.619 30.5258 221.619 30.2973C221.619 30.0683 221.652 29.8406 221.72 29.6217C221.789 29.4034 221.897 29.1993 222.039 29.0192C222.187 28.83 222.374 28.6745 222.587 28.5628C222.833 28.4442 223.104 28.3862 223.377 28.3939H233.875C234.146 28.3857 234.416 28.4437 234.66 28.5628C234.874 28.672 235.062 28.828 235.208 29.0192C235.351 29.1982 235.459 29.4026 235.527 29.6217C235.596 29.8404 235.631 30.0681 235.632 30.2973C235.633 30.5258 235.594 30.7528 235.518 30.9683C235.443 31.1862 235.327 31.3877 235.176 31.5616C235.02 31.7409 234.829 31.8855 234.614 31.9861C234.383 32.0946 234.13 32.1492 233.875 32.1459H223.377ZM237.709 39.974H236.545C236.241 39.9847 235.939 39.9221 235.664 39.7914C235.439 39.679 235.237 39.524 235.071 39.3349C234.911 39.1463 234.794 38.9251 234.728 38.6868C234.662 38.4567 234.629 38.2186 234.628 37.9793C234.628 37.7429 234.662 37.5078 234.728 37.2809C234.799 37.0462 234.912 36.8265 235.062 36.6328C235.224 36.4389 235.426 36.2831 235.655 36.1763C235.933 36.046 236.238 35.9835 236.545 35.9937H237.709V29.8545C237.688 29.5443 237.738 29.2333 237.857 28.9459C237.976 28.6584 238.16 28.4023 238.394 28.1976C238.836 27.832 239.394 27.6347 239.968 27.6408C240.256 27.6414 240.542 27.6908 240.813 27.7868C241.08 27.8836 241.327 28.0274 241.543 28.2113C241.761 28.3997 241.936 28.6334 242.054 28.896C242.192 29.1965 242.259 29.5243 242.251 29.8545V46.7978C242.251 47.4031 242.01 47.9836 241.582 48.4116C241.154 48.8397 240.574 49.0801 239.968 49.0801C239.363 49.0801 238.783 48.8397 238.355 48.4116C237.927 47.9836 237.686 47.4031 237.686 46.7978L237.709 39.974Z" fill="white"/>
</svg>
