<svg width="250" height="168" viewBox="0 0 250 168" fill="none" xmlns="http://www.w3.org/2000/svg">
<path d="M225 41C227.761 41 230 38.7614 230 36C230 33.2386 227.761 31 225 31C222.239 31 220 33.2386 220 36C220 38.7614 222.239 41 225 41Z" fill="#57BEB7"/>
<path d="M59 16C60.1046 16 61 15.1046 61 14C61 12.8954 60.1046 12 59 12C57.8954 12 57 12.8954 57 14C57 15.1046 57.8954 16 59 16Z" fill="#ECCD52"/>
<path d="M211 63C212.105 63 213 62.1046 213 61C213 59.8954 212.105 59 211 59C209.895 59 209 59.8954 209 61C209 62.1046 209.895 63 211 63Z" fill="#ECCD52"/>
<path d="M33.5 58C35.9853 58 38 55.9853 38 53.5C38 51.0147 35.9853 49 33.5 49C31.0147 49 29 51.0147 29 53.5C29 55.9853 31.0147 58 33.5 58Z" fill="#DC4C7C"/>
<g clip-path="url(#clip0_3701_82829)">
<path d="M120.81 132.32L123.989 149.7C123.989 149.7 115.876 141.847 110.325 150.36C104.798 158.897 110.657 166.986 121.617 164.486C132.576 161.963 146.003 158.355 145.481 148.639C144.959 138.923 144.959 128.169 144.959 128.169L120.81 132.32Z" fill="#7BA966"/>
<path d="M140.879 135.386L144.058 152.766C144.058 152.766 135.945 144.913 130.394 153.426C124.866 161.963 130.726 170.052 141.685 167.552C152.645 165.029 166.072 161.421 165.55 151.705C165.028 141.989 165.028 131.235 165.028 131.235L140.879 135.386Z" fill="#89BF73"/>
<path d="M165.028 131.235L140.879 135.386L142.373 143.616C146.501 144.088 151.079 144.017 155.231 142.649C158.789 141.47 162.158 139.914 165.075 138.31C165.028 134.16 165.028 131.235 165.028 131.235Z" fill="#6C9555"/>
<path d="M108.261 37.2126C97.2066 31.7179 97.0643 20.6578 104.774 16.0357C112.579 11.39 121.427 18.1817 122.115 24.3603C122.115 24.3603 110.942 0.660086 132.125 -0.000217083C149.893 -0.566191 144.912 22.9925 144.912 22.9925C144.912 22.9925 152.669 6.83864 162.656 14.385C173.426 22.5208 161.826 36.2929 161.826 36.2929C161.826 36.2929 189.746 52.659 189.746 90.4142C189.746 124.75 170.84 138.192 138.768 137.932C107.692 137.673 87.9313 122.321 87.9313 90.3906C87.9313 58.4602 108.261 37.2126 108.261 37.2126Z" fill="#89BF73"/>
<path d="M113.802 83.4978C114.042 76.5341 109.354 70.7225 103.331 70.5171C97.3079 70.3118 92.2305 75.7906 91.9903 82.7543C91.7501 89.7181 96.438 95.5297 102.461 95.735C108.484 95.9403 113.561 90.4615 113.802 83.4978Z" fill="white"/>
<path d="M105.438 92.0889C108.976 92.0889 111.843 89.2382 111.843 85.7217C111.843 82.2052 108.976 79.3545 105.438 79.3545C101.901 79.3545 99.0332 82.2052 99.0332 85.7217C99.0332 89.2382 101.901 92.0889 105.438 92.0889Z" fill="#070001"/>
<path d="M128.116 95.7675C135.165 95.7675 140.879 90.0873 140.879 83.0803C140.879 76.0733 135.165 70.3931 128.116 70.3931C121.068 70.3931 115.354 76.0733 115.354 83.0803C115.354 90.0873 121.068 95.7675 128.116 95.7675Z" fill="white"/>
<path d="M124.013 93.0791C127.55 93.0791 130.417 90.2284 130.417 86.7119C130.417 83.1954 127.55 80.3447 124.013 80.3447C120.475 80.3447 117.608 83.1954 117.608 86.7119C117.608 90.2284 120.475 93.0791 124.013 93.0791Z" fill="#070001"/>
<path d="M108.83 85.179C109.132 85.179 109.376 84.9362 109.376 84.6366C109.376 84.3371 109.132 84.0942 108.83 84.0942C108.529 84.0942 108.285 84.3371 108.285 84.6366C108.285 84.9362 108.529 85.179 108.83 85.179Z" fill="white"/>
<path d="M121.047 86.3109C121.349 86.3109 121.593 86.068 121.593 85.7685C121.593 85.4689 121.349 85.2261 121.047 85.2261C120.746 85.2261 120.502 85.4689 120.502 85.7685C120.502 86.068 120.746 86.3109 121.047 86.3109Z" fill="white"/>
<path d="M125.557 7.05722C126.597 6.22255 126.992 4.99564 126.441 4.31683C125.889 3.63802 124.6 3.76437 123.56 4.59904C122.52 5.43371 122.125 6.66063 122.676 7.33944C123.228 8.01825 124.518 7.8919 125.557 7.05722Z" fill="#B1D68A"/>
<path d="M156.563 17.6257C157.769 17.052 158.439 15.9489 158.06 15.1618C157.681 14.3747 156.396 14.2017 155.191 14.7753C153.985 15.3489 153.315 16.452 153.694 17.2391C154.074 18.0262 155.358 18.1993 156.563 17.6257Z" fill="#B1D68A"/>
<path d="M103.852 25.0439C103.956 23.7194 103.331 22.5906 102.456 22.5226C101.581 22.4546 100.787 23.4732 100.683 24.7976C100.579 26.1221 101.204 27.2509 102.079 27.3189C102.954 27.3869 103.748 26.3684 103.852 25.0439Z" fill="#B1D68A"/>
<path d="M175.845 92.8433C175.845 92.8433 157.271 101.38 144.935 100.531C132.6 99.6585 130.299 118.619 143.844 123.359C161.944 129.702 174.303 118.949 174.303 118.949" fill="#6C9555"/>
<path d="M57.0689 164.958L55.7167 164.934C55.7167 164.722 56.0963 144.701 52.3956 136.211L53.6292 135.692C57.4484 144.441 57.0926 164.109 57.0689 164.958Z" fill="#39552D"/>
<path d="M50.2844 126.189C50.2606 125.481 44.2352 114.02 40.4397 118.265C35.6241 123.642 49.5 128.5 48.695 127.91C48.695 127.91 38.0438 121.661 37.1186 126.283C36.1697 131 40.9141 132.65 44.7097 131.471C48.5052 130.292 49.4541 129.349 49.4541 129.349C49.4541 129.349 37.8303 133.829 41.6258 137.838C45.4213 141.847 51.5891 131.401 51.3519 130.151C51.1146 128.901 46.3702 141.847 51.3519 141.14C56.3335 140.433 53.0124 129.585 53.0124 129.585C53.0124 129.585 56.4995 141.258 60.6035 137.838C64.7074 134.419 53.7241 128.641 53.7241 128.641C53.7241 128.641 62.7384 135.032 63.2129 129.349C63.6873 123.689 54.4357 127.226 54.4357 127.226C54.4357 127.226 65.5851 125.576 62.264 121.095C58.9429 116.614 50.8774 127.226 50.8774 127.226C50.8774 127.226 62.0268 118.973 56.8079 116.143C53.4868 114.351 51.3519 126.519 51.3519 126.519C51.3519 126.519 55.6218 113.549 49.4541 114.02C43.998 114.421 50.2844 126.189 50.2844 126.189Z" fill="#EB6045"/>
<path d="M122.423 123.713L114.049 125.104V89.7778L122.423 91.1692C122.945 91.2635 123.325 91.7116 123.325 92.2304V122.651C123.325 123.17 122.945 123.618 122.423 123.713Z" fill="#F8C9CB"/>
<path d="M122.423 120.812L114.049 121.802V96.522L122.423 97.5124C122.945 97.5832 123.325 97.8898 123.325 98.2671V120.057C123.325 120.434 122.945 120.765 122.423 120.812Z" fill="#0F1010"/>
<path d="M84.373 119.468L114.049 125.08V89.7778L83.1394 91.3107L83.4952 118.43C83.4952 118.925 83.8748 119.374 84.373 119.468Z" fill="#FDE9DD"/>
<path d="M116.374 95.9797L121.522 96.4749C121.735 96.4985 121.925 96.64 121.972 96.8522C122.565 98.5973 125.721 106.733 134.782 107.417C144.176 108.125 181.942 83.1745 187.516 74.5906C188.062 73.7652 188.228 72.7276 187.967 71.7843C187.683 70.7466 187.137 69.2138 186.188 68.2705C186.188 68.2705 194.396 72.8691 191.288 83.6226C188.181 94.3761 152.669 105.13 135.684 108.195C120.976 110.86 116.682 99.7292 115.805 96.6636C115.686 96.3098 115.994 95.9561 116.374 95.9797Z" fill="#272828"/>
<path d="M118.58 102.323L124.772 101.993C123.752 100.673 123.04 99.3756 122.589 98.3616L116.279 98.0786C116.73 99.2813 117.465 100.814 118.58 102.323Z" fill="#3F3F3F"/>
<path d="M139.977 107.347C138.459 107.677 137.012 107.96 135.684 108.195C122.874 110.507 117.963 102.371 116.327 98.1966C116.421 97.5363 116.469 97.0647 116.469 97.0647V95.9799H116.184C116.184 95.9799 115.947 95.8148 115.734 96.4987C115.686 96.6638 115.639 96.876 115.591 97.159V98.9748C115.591 98.9748 118.746 109.634 130.299 109.681C136.158 109.705 138.649 108.927 141.709 106.946L144.058 105.271C142.943 106.002 141.472 106.851 139.977 107.347Z" fill="url(#paint0_linear_3701_82829)"/>
<path d="M144.058 105.271C145.196 104.516 145.979 103.903 145.979 103.903L144.058 105.271Z" fill="url(#paint1_linear_3701_82829)"/>
<path d="M83.1394 92.0652V95.296C85.6065 96.4515 89.663 97.9372 92.6282 97.0175C97.1354 95.6026 99.0332 90.5088 99.0332 90.5088L83.9697 91.2634L83.1394 92.0652Z" fill="#F8C9CB"/>
<path d="M94.099 80.3685C86.5079 75.5577 73.8878 83.6228 75.4297 94.3763C76.1651 99.4937 80.1504 103.078 83.6376 105.413L83.1631 94.0934V93.9519C83.1631 93.9519 93.9804 95.9092 96.9694 90.6032C98.7485 87.4903 98.5588 83.1748 94.099 80.3685Z" fill="#89BF73"/>
<path d="M76.9242 86.4053C75.6432 88.7163 75.0027 91.4519 75.4297 94.3761C76.1651 99.4934 80.1504 103.078 83.6376 105.413L83.1631 94.0931V93.9516C83.1631 93.9516 80.0318 93.8808 77.4698 92.065C75.833 90.9331 75.999 88.7871 76.9242 86.4053Z" fill="#6C9555"/>
<path d="M84.373 117.888L114.049 121.802V96.522L83.1394 97.6303L83.4952 117.133C83.4952 117.51 83.8748 117.817 84.373 117.888Z" fill="#272828"/>
<path d="M106.814 107.7C106.34 102.158 102.971 97.8191 99.0807 97.5361H89.8528L91.0152 118.925H99.1044V118.902C99.4602 118.949 99.8161 118.972 100.172 118.949C104.347 118.642 107.312 113.596 106.814 107.7Z" fill="#0F1010"/>
<path d="M91.8534 118.947C96.0253 118.533 98.9269 113.407 98.3344 107.497C97.7419 101.588 93.8796 97.1317 89.7077 97.545C85.5358 97.9584 82.6341 103.084 83.2267 108.994C83.8192 114.904 87.6815 119.36 91.8534 118.947Z" fill="#272828"/>
<path d="M91.2998 118.171C87.7415 118.171 84.4915 113.926 84.0408 108.714C83.8036 106.002 84.3255 103.408 85.5116 101.404C86.6265 99.5173 88.1922 98.4089 89.9239 98.291C90.0425 98.291 90.1374 98.291 90.256 98.291C93.8143 98.291 97.0642 102.536 97.515 107.771C97.7522 110.483 97.2303 113.077 96.0442 115.082C94.9293 116.968 93.3636 118.077 91.6319 118.194C91.537 118.171 91.4184 118.171 91.2998 118.171Z" stroke="#EDD8CA" stroke-width="0.3383" stroke-miterlimit="10"/>
<path d="M91.2998 116.072C89.2597 116.072 86.7215 112.865 86.3419 108.549C86.1521 106.238 86.5554 104.045 87.528 102.418C88.2397 101.215 89.1648 100.484 90.0663 100.413C90.1137 100.413 90.1612 100.413 90.2086 100.413C92.2487 100.413 94.787 103.62 95.1665 107.936C95.3563 110.247 94.953 112.44 93.9804 114.067C93.2687 115.27 92.3436 116.001 91.4422 116.072C91.4184 116.072 91.371 116.072 91.2998 116.072Z" stroke="#F6FAF0" stroke-width="0.6765" stroke-miterlimit="10"/>
<path d="M91.2998 115.27C89.9002 115.27 87.5755 112.417 87.2433 108.502C87.0536 106.333 87.4331 104.328 88.3346 102.819C88.8802 101.875 89.5918 101.286 90.1612 101.239H90.2323C91.6319 101.239 93.9567 104.092 94.2888 108.007C94.4786 110.176 94.099 112.181 93.1976 113.69C92.652 114.633 91.9403 115.223 91.371 115.27H91.2998Z" fill="#272828"/>
<path opacity="0.6" d="M92.5808 102.984C91.798 101.852 90.9203 101.191 90.2323 101.191H90.1612C89.5918 101.239 88.8802 101.828 88.3346 102.771C87.4331 104.281 87.0536 106.309 87.2433 108.455C87.3857 109.988 87.8127 111.379 88.382 112.464L92.5808 102.984Z" fill="#F6FAF0"/>
<path d="M90.5685 109.368C90.8946 109.338 91.1143 108.831 91.0592 108.234C91.0041 107.638 90.695 107.178 90.3689 107.208C90.0427 107.238 89.823 107.745 89.8781 108.342C89.9332 108.939 90.2423 109.398 90.5685 109.368Z" fill="#F6FAF0"/>
<path d="M96.8033 86.5943C96.5661 83.4107 92.4147 88.3394 92.0115 90.5561C91.6319 92.7728 91.8454 93.5274 93.9804 92.3012C96.1154 91.0749 96.9694 88.7403 96.8033 86.5943Z" fill="#74A060"/>
<path d="M140.784 10.2347C144.105 19.4318 141.97 25.5632 141.97 25.5632C141.97 25.5632 143.346 25.2566 145.054 22.9691C145.718 19.0073 148.019 -0.495238 132.149 -1.08285e-05C130.299 0.0707359 128.709 0.306558 127.334 0.683875C132.861 1.74508 139.029 5.40033 140.784 10.2347Z" fill="#75A55D"/>
<path d="M113.978 19.9035C120.834 24.3134 122.281 26.2707 122.281 26.2707C122.281 26.2707 121.783 23.7946 120.264 19.8563C117.133 15.5172 110.657 12.5223 104.774 16.036C102.876 17.168 101.453 18.7008 100.551 20.4223C103.801 18.7716 109.945 17.3095 113.978 19.9035Z" fill="#75A55D"/>
<path d="M163.32 24.1483C162.68 29.5722 157.39 36.4111 157.39 36.4111C157.39 36.4111 159.074 36.529 161.873 36.246C162.608 35.3498 173.046 22.2381 162.656 14.3852C162.063 13.9372 161.493 13.5834 160.9 13.2769C162.158 16.2954 163.795 20.1393 163.32 24.1483Z" fill="#75A55D"/>
<path d="M187.801 71.2183C187.493 70.2514 186.971 69.0487 186.188 68.2705C186.425 68.978 186.663 69.709 186.9 70.4637C186.995 70.7702 187.018 71.1004 186.971 71.4069C186.971 71.4069 186.971 71.4069 186.971 71.4305C186.971 71.5249 186.947 71.5956 186.947 71.6899C186.852 72.3738 186.663 72.869 186.663 72.869C185.382 76.2649 171.219 88.2211 155.753 97.4418C151.34 100.083 148.304 102.205 145.955 103.903C161.209 96.64 184.551 80.1795 187.801 74.0717C188.11 73.4822 188.181 72.7983 188.038 72.138C187.991 71.9022 187.92 71.572 187.801 71.2183ZM186.188 68.2705C186.188 68.2705 186.212 68.2705 186.188 68.2705C186.259 68.3413 186.307 68.412 186.378 68.4827C186.378 68.5063 186.402 68.5063 186.402 68.5299C186.354 68.4356 186.283 68.3413 186.188 68.2705ZM187.018 70.558C187.018 70.6523 187.018 70.7702 187.018 70.8646C187.018 70.7466 187.018 70.6523 187.018 70.558Z" fill="#0F1010"/>
<path d="M177.601 91.5462C177.577 91.5462 161.944 102.064 149.585 102.064C137.226 102.064 135.684 118.43 149.585 121.779C163.486 125.127 174.303 118.972 174.303 118.972L176.225 102.96C178.977 102.701 181.491 102.465 181.586 102.465C181.823 102.465 186.781 93.4328 186.781 93.4328L188.465 89.0229C188.465 88.9993 182.06 88.7635 177.601 91.5462Z" fill="#89BF73"/>
<path d="M145.338 109.889C146.246 108.025 146.341 106.206 145.551 105.826C144.76 105.446 143.384 106.649 142.477 108.513C141.569 110.377 141.474 112.196 142.265 112.576C143.055 112.957 144.431 111.753 145.338 109.889Z" fill="#B1D68A"/>
<path d="M135.714 154.262C136.593 153.461 136.824 152.29 136.231 151.647C135.638 151.004 134.445 151.132 133.566 151.933C132.687 152.734 132.456 153.904 133.049 154.547C133.642 155.191 134.835 155.063 135.714 154.262Z" fill="#B1D68A"/>
<path d="M51.3518 130.976C53.055 130.976 54.4357 129.604 54.4357 127.91C54.4357 126.217 53.055 124.845 51.3518 124.845C49.6486 124.845 48.2679 126.217 48.2679 127.91C48.2679 129.604 49.6486 130.976 51.3518 130.976Z" fill="#F7EE7D"/>
<path d="M56.0251 150.832C56.0251 150.832 55.8827 145.597 59.2038 142.767C62.5249 139.937 65.846 140.409 65.846 140.409C65.846 140.409 64.6599 144.418 61.576 147.248C58.4922 150.078 56.0251 150.832 56.0251 150.832Z" fill="#3E5931"/>
<path d="M55.7167 164.911H56.12C56.974 153.497 55.2423 145.833 54.1273 142.248C55.9539 151.752 55.7167 164.769 55.7167 164.911Z" fill="#2A3824"/>
</g>
<defs>
<linearGradient id="paint0_linear_3701_82829" x1="107.273" y1="102.84" x2="149.647" y2="102.84" gradientUnits="userSpaceOnUse">
<stop stop-color="#272828"/>
<stop offset="1" stop-color="#0F1010"/>
</linearGradient>
<linearGradient id="paint1_linear_3701_82829" x1="143.494" y1="104.599" x2="146.352" y2="104.599" gradientUnits="userSpaceOnUse">
<stop stop-color="#272828"/>
<stop offset="1" stop-color="#0F1010"/>
</linearGradient>
<clipPath id="clip0_3701_82829">
<rect width="155" height="168" fill="white" transform="translate(37)"/>
</clipPath>
</defs>
</svg>
