<svg width="250" height="168" viewBox="0 0 250 168" fill="none" xmlns="http://www.w3.org/2000/svg">
<path d="M225 41C227.761 41 230 38.7614 230 36C230 33.2386 227.761 31 225 31C222.239 31 220 33.2386 220 36C220 38.7614 222.239 41 225 41Z" fill="#57BEB7"/>
<path d="M59 16C60.1046 16 61 15.1046 61 14C61 12.8954 60.1046 12 59 12C57.8954 12 57 12.8954 57 14C57 15.1046 57.8954 16 59 16Z" fill="#ECCD52"/>
<path d="M211 63C212.105 63 213 62.1046 213 61C213 59.8954 212.105 59 211 59C209.895 59 209 59.8954 209 61C209 62.1046 209.895 63 211 63Z" fill="#ECCD52"/>
<path d="M33.5 58C35.9853 58 38 55.9853 38 53.5C38 51.0147 35.9853 49 33.5 49C31.0147 49 29 51.0147 29 53.5C29 55.9853 31.0147 58 33.5 58Z" fill="#DC4C7C"/>
<g clip-path="url(#clip0_3801_83099)">
<path d="M79.5908 138.592C74.8009 139.201 68.5765 143.029 69.1358 147.637C69.695 152.221 79.9555 156.976 87.2983 157.024C96.7321 157.073 105.534 155.61 106.701 150.88C108.67 142.81 88.8787 137.421 79.5908 138.592Z" fill="#DA861E"/>
<path d="M79.5908 138.592C77.1351 138.909 74.3389 140.055 72.2236 141.713C78.8127 152.416 88.9273 155.586 105.68 152.782C106.166 152.221 106.531 151.563 106.701 150.856C108.67 142.81 88.8787 137.421 79.5908 138.592Z" fill="#C2731F"/>
<path d="M84.0889 83.0247C84.0889 83.0247 82.2167 81.1473 76.1625 74.3691C68.5522 65.8842 49.9277 77.7095 62.7655 90.1199C75.6033 102.53 86.3015 99.3607 86.3015 99.3607" fill="#E6983A"/>
<path d="M58.4377 82.5861C58.4377 82.5861 58.6808 84.0734 58.8024 84.1954C60.7475 85.9265 75.19 75.1496 74.6551 73.4673C74.6551 73.4673 74.1931 72.7602 73.2935 72.2969C72.3939 71.8337 75.6276 73.4429 76.8677 74.6132C78.132 75.7835 81.4873 79.8797 81.4873 79.8797C81.4873 79.8797 79.6881 85.7314 76.1626 88.7792C72.637 91.8269 67.3609 94.2164 66.364 93.7775C65.3915 93.3142 58.2188 88.0965 58 83.4395C57.9514 82.6105 58.4377 82.5861 58.4377 82.5861Z" fill="#F8FAE8"/>
<path d="M168.191 140.079C164.252 142.907 160.629 149.246 163.304 153.001C165.979 156.78 177.26 156.049 183.728 152.587C192.043 148.125 199.094 142.639 197.854 137.909C195.787 129.911 175.826 134.617 168.191 140.079Z" fill="#DA861E"/>
<path d="M187.18 78.9532C186.305 54.3029 172.324 10.6591 134.079 12.0245L126.201 12.317C87.9549 13.6824 77.1352 58.2528 78.0105 82.8787C78.8858 107.529 67.288 120.646 74.6795 135.519C81.8764 149.978 93.7173 153.392 115.624 148.442C128.267 145.589 130.869 139.152 134.492 133.983C138.455 138.86 143.123 143.931 151.925 145.321C174.124 148.832 189.539 144.151 195.69 129.229C202.012 113.844 188.056 103.579 187.18 78.9532Z" fill="#EBA643"/>
<path d="M166.267 34.9108C167.242 34.2174 166.924 32.0883 165.556 30.1553C164.189 28.2224 162.29 27.2175 161.315 27.9109C160.34 28.6044 160.659 30.7335 162.026 32.6664C163.394 34.5994 165.292 35.6042 166.267 34.9108Z" fill="#F6B556"/>
<path d="M110.518 75.6616C118.092 75.6616 124.231 69.5049 124.231 61.9102C124.231 54.3154 118.092 48.1587 110.518 48.1587C102.945 48.1587 96.8052 54.3154 96.8052 61.9102C96.8052 69.5049 102.945 75.6616 110.518 75.6616Z" fill="white"/>
<path d="M107.455 69.8098C111.201 69.8098 114.238 66.7641 114.238 63.0072C114.238 59.2502 111.201 56.2046 107.455 56.2046C103.708 56.2046 100.671 59.2502 100.671 63.0072C100.671 66.7641 103.708 69.8098 107.455 69.8098Z" fill="#070001"/>
<path d="M135.221 73.9062C142.714 73.9062 148.788 67.8149 148.788 60.301C148.788 52.787 142.714 46.6958 135.221 46.6958C127.728 46.6958 121.654 52.787 121.654 60.301C121.654 67.8149 127.728 73.9062 135.221 73.9062Z" fill="white"/>
<path d="M131.696 69.444C135.442 69.444 138.479 66.3984 138.479 62.6415C138.479 58.8845 135.442 55.8389 131.696 55.8389C127.949 55.8389 124.912 58.8845 124.912 62.6415C124.912 66.3984 127.949 69.444 131.696 69.444Z" fill="#070001"/>
<path d="M103.978 62.5439C104.3 62.5439 104.561 62.2819 104.561 61.9587C104.561 61.6355 104.3 61.3735 103.978 61.3735C103.656 61.3735 103.394 61.6355 103.394 61.9587C103.394 62.2819 103.656 62.5439 103.978 62.5439Z" fill="white"/>
<path d="M128.535 62.3246C128.857 62.3246 129.118 62.0627 129.118 61.7395C129.118 61.4163 128.857 61.1543 128.535 61.1543C128.213 61.1543 127.951 61.4163 127.951 61.7395C127.951 62.0627 128.213 62.3246 128.535 62.3246Z" fill="white"/>
<path d="M101.935 76.198C103.808 72.7601 111.539 79.0507 123.891 78.5386C136.242 78.0266 140.303 71.3216 143.172 73.4428C146.041 75.5396 146.552 91.9731 123.502 92.6802C100.428 93.3873 99.4067 80.8305 101.935 76.198Z" fill="#070001"/>
<path d="M105.072 88.389C108.038 90.7541 112.901 92.5096 120.511 92.6803C121.241 92.6803 121.97 92.7046 122.724 92.6803C122.748 92.6803 122.797 92.6803 122.821 92.6803C126.104 92.6071 128.948 92.217 131.453 91.6318C131.623 91.5831 131.817 91.5343 131.987 91.4855C132.304 91.4124 132.595 91.3149 132.911 91.2173C136.753 90.0226 139.452 88.1696 141.251 86.1215C128.073 82.0009 114.287 85.0731 105.072 88.389Z" fill="#C75C51"/>
<path d="M165.501 93.6599L166.297 91.6136C168.856 96.819 164.976 102.061 171.461 106.332C178.15 110.733 187.756 103.563 184.122 93.6758C181.484 86.5159 175.223 79.9747 171.96 76.8953L172.202 76.2933C172.202 76.2933 183.887 85.2159 187.392 95.8799C190.926 106.563 179.17 115.277 171.746 110.813C163.597 105.883 167.572 99.8208 165.501 93.6599Z" fill="#C47920"/>
<path d="M174.147 104.03C175.233 103.531 175.314 101.38 174.327 99.2253C173.341 97.0707 171.661 95.7284 170.575 96.2272C169.488 96.726 169.408 98.877 170.394 101.032C171.38 103.186 173.061 104.528 174.147 104.03Z" fill="#F6B556"/>
<path d="M84.7454 139.201C82.2168 139.64 77.743 135.519 76.114 128.18C74.339 120.183 77.5242 114.794 80.0528 114.356C82.5815 113.917 81.7791 121.304 82.7517 126.278C84.089 133.008 87.2498 138.762 84.7454 139.201Z" fill="#F6B556"/>
<path d="M178.913 42.6241C179.594 44.6234 180.299 46.257 179.692 45.6474C177.601 43.6725 148.594 41.2587 123.429 42.1852C98.264 43.1117 83.3109 49.4754 82.703 46.574C82.6787 46.4521 82.6787 46.257 82.7273 46.0376C82.2654 47.2323 82.0222 48.1588 82.1195 48.5489C82.7273 51.4504 97.8749 45.0623 123.405 44.1358C148.934 43.2092 178.208 45.7206 180.324 47.6955C181.126 48.4514 180.129 45.6962 178.913 42.6241Z" fill="#DBDAD4"/>
<path d="M92.1855 30.6036C91.0914 30.823 90.1188 31.4326 89.4623 32.3347C86.5933 36.2846 82.3869 45.0622 82.6787 46.5495C83.2622 49.4509 98.2154 43.0628 123.405 42.1607C148.594 41.2586 177.479 43.7699 179.667 45.6229C182.001 47.5979 174.44 29.5796 171.036 27.9947C167.632 26.4099 149.858 23.6303 128.632 24.9226C111.199 25.971 96.8051 29.7259 92.1855 30.6036Z" fill="#F8FAE8"/>
<path d="M128.486 31.0423C129.362 30.7254 129.216 29.4575 128.316 29.3356C126.055 29.0186 122.116 29.0186 121.824 32.8222C121.411 38.1863 129.118 37.8205 129.191 36.0163C129.264 34.212 124.669 35.2116 124.693 32.9197C124.718 31.408 126.979 31.6031 128.486 31.0423Z" fill="#1F2020"/>
<path d="M67.0691 86.0729C67.4338 85.6096 66.9475 84.9513 66.3883 85.1951C65.0267 85.8047 62.8385 87.17 63.9812 89.3644C65.5859 92.4853 69.7436 89.6083 69.1601 88.5842C68.5766 87.5602 66.364 89.7058 65.6103 88.4135C65.0754 87.5845 66.4126 86.9018 67.0691 86.0729Z" fill="#1F2020"/>
<path d="M170.671 50.7189C169.042 50.2313 169.553 54.7663 170.039 57.741C170.549 60.7156 174.124 61.3007 175.437 59.5452C176.774 57.8141 176.579 52.4744 170.671 50.7189Z" fill="#8ACFDA"/>
<path d="M172.811 51.6206C175.607 53.9369 175.51 57.4967 174.464 58.8621C173.71 59.8617 172.178 60.1056 170.938 59.5448C172.227 60.8614 174.488 60.8614 175.461 59.5692C176.604 58.0575 176.604 53.8638 172.811 51.6206Z" fill="#D7EEF3"/>
<path d="M166.635 59.3013C164.763 58.2528 164.155 63.9582 163.96 67.7618C163.766 71.5654 168.021 73.2478 170.112 71.4679C172.203 69.688 173.418 63.0561 166.635 59.3013Z" fill="#8ACFDA"/>
<path d="M168.215 60.3252C171.425 64.0313 170.306 68.6395 168.604 70.0536C167.535 70.9558 165.906 70.9558 164.568 70.2487C165.808 72.1993 168.556 72.7844 170.112 71.4678C172.033 69.8342 173.2 64.1532 168.215 60.3252Z" fill="#D7EEF3"/>
<path d="M171.095 54.6033C171.56 54.5384 171.848 53.837 171.737 53.0368C171.626 52.2365 171.158 51.6403 170.693 51.7052C170.227 51.7701 169.94 52.4715 170.051 53.2718C170.162 54.0721 170.629 54.6682 171.095 54.6033Z" fill="#D7EEF3"/>
<path d="M167.164 61.1478C167.193 60.3403 166.836 59.6721 166.366 59.6552C165.896 59.6384 165.492 60.2793 165.463 61.0868C165.434 61.8942 165.792 62.5625 166.262 62.5793C166.731 62.5962 167.135 61.9552 167.164 61.1478Z" fill="#D7EEF3"/>
<path d="M112.001 77.1245C111.977 77.2708 111.977 77.3927 111.977 77.539C111.977 80.9037 116.378 83.6345 121.824 83.6345C127.271 83.6345 131.671 80.9037 131.671 77.539C131.671 77.4415 131.671 77.3439 131.671 77.2464C129.532 77.9047 126.979 78.4168 123.915 78.5387C119.247 78.7337 115.259 77.9779 112.001 77.1245Z" fill="white"/>
<path d="M58.8753 85.0487C61.0879 84.9756 67.1421 81.2451 69.3789 79.6359C71.2998 78.2461 72.9045 76.9295 73.9986 75.8323C74.6551 75.174 75.3359 74.4181 75.6276 73.6623C74.728 73.0528 73.7068 72.5163 73.3178 72.3213C74.1931 72.7845 74.6551 73.4916 74.6551 73.4916C75.2143 75.174 60.7475 85.9509 58.8024 84.2197C58.6808 84.0978 58.4377 82.6105 58.4377 82.6105C58.4377 82.6105 57.9514 82.6349 58 83.4639C58.0243 83.9515 58.1216 84.4635 58.2918 84.9756C58.3647 84.9999 58.4377 85.0243 58.4863 85.0487C58.6079 85.0487 58.7537 85.0487 58.8753 85.0487Z" fill="#DBDAD4"/>
<path d="M102.495 150.466C106.409 150.222 110.786 149.539 115.624 148.442C128.267 145.589 130.869 139.153 134.492 133.984V124.792C134.492 124.792 121.071 144.029 102.495 150.466Z" fill="#E6983A"/>
<path d="M185.94 67.2251C185.527 77.8313 185.405 94.1916 188.128 99.702C192.286 108.138 193.988 125.449 189.368 130.57C185.77 134.544 172.738 145.516 158.952 146.174C177.357 147.686 190.219 142.517 195.69 129.229C202.012 113.868 188.055 103.603 187.18 78.9529C187.059 75.3687 186.645 71.3944 185.94 67.2251Z" fill="#E6983A"/>
<path d="M147.159 143.809C145.798 143.151 144.631 142.688 143.585 142.419C145.36 143.468 147.378 144.321 149.712 144.882C148.861 144.565 148.01 144.224 147.159 143.809Z" fill="#E6983A"/>
</g>
<defs>
<clipPath id="clip0_3801_83099">
<rect width="140" height="145" fill="white" transform="translate(58 12)"/>
</clipPath>
</defs>
</svg>
