<svg width="299" height="50" viewBox="0 0 299 50" fill="none" xmlns="http://www.w3.org/2000/svg">
<g clip-path="url(#clip0_3801_83253)">
<path d="M20.045 17.7078C20.3683 17.6979 20.69 17.7566 20.9883 17.88C21.2314 17.9867 21.4474 18.1457 21.6203 18.3453C21.7829 18.527 21.9036 18.7414 21.974 18.9736C22.0468 19.1992 22.0834 19.4347 22.0825 19.6716C22.0837 19.9167 22.0438 20.1604 21.9646 20.3928C21.8863 20.6236 21.7629 20.837 21.6014 21.021C21.4284 21.2185 21.2145 21.3772 20.9741 21.4863C20.6747 21.6051 20.3534 21.6606 20.0308 21.6492H2.0281C1.71348 21.6574 1.40049 21.6019 1.10839 21.4863C0.868639 21.3784 0.656041 21.2195 0.485821 21.021C0.320723 20.8388 0.195487 20.6249 0.117937 20.3928C0.038692 20.1604 -0.00114684 19.9167 2.51232e-05 19.6716C-0.00092778 19.4347 0.035674 19.1992 0.108504 18.9736C0.178967 18.7414 0.299655 18.527 0.462238 18.3453C0.636126 18.1467 0.851802 17.9879 1.09424 17.88C1.39256 17.7566 1.71424 17.6979 2.03754 17.7078H20.045ZM15.3285 13.9852C15.6489 13.3565 15.8639 12.6808 15.9652 11.9843H2.85348C2.53746 11.9929 2.2234 11.9325 1.93377 11.8074C1.69271 11.6949 1.47638 11.5368 1.29705 11.3421C1.12744 11.1615 0.998802 10.9474 0.919735 10.7139C0.841708 10.4892 0.801867 10.2534 0.801824 10.0159C0.801867 9.77842 0.841708 9.54257 0.919735 9.31791C0.999412 9.08673 1.12441 8.87323 1.28762 8.68966C1.46151 8.49108 1.67718 8.33228 1.91962 8.22433C2.21794 8.10098 2.53962 8.04227 2.86292 8.05216H16.2718V5.56264C16.2751 5.48616 16.263 5.40979 16.2363 5.33793C16.2096 5.26606 16.1688 5.2001 16.1162 5.14383C16.0604 5.08695 15.9926 5.04292 15.9176 5.01477C15.8426 4.98663 15.7623 4.97507 15.6823 4.98098H3.11289C2.78912 4.99104 2.46707 4.93066 2.1696 4.80415C1.92491 4.69771 1.70738 4.53874 1.53287 4.33881C1.36468 4.15192 1.23636 3.93353 1.15556 3.69665C1.069 3.47058 1.02427 3.231 1.0235 2.98934C1.02354 2.75185 1.06338 2.516 1.14141 2.29134C1.22221 2.05446 1.35053 1.83607 1.51873 1.64918C1.69987 1.45038 1.92172 1.29178 2.1696 1.18385C2.46743 1.05892 2.78947 1.00014 3.11289 1.01167H17.2387C18.575 1.01167 19.5262 1.3064 20.0921 1.89582C20.6975 2.59156 21.0023 3.4937 20.9411 4.40863V6.94467C20.9613 8.78141 20.8399 10.617 20.5779 12.4356C20.416 13.7706 19.9306 15.0474 19.163 16.1583C19.0036 16.3488 18.8082 16.5068 18.5876 16.6236C18.3358 16.7641 18.0639 16.8661 17.7811 16.9261C17.4709 16.9904 17.1518 17.0014 16.8378 16.9586C16.5051 16.9192 16.1841 16.8132 15.8945 16.6469C15.6585 16.5291 15.4555 16.3558 15.3034 16.1424C15.1512 15.929 15.0546 15.682 15.022 15.4231C14.9661 14.9238 15.0735 14.4199 15.3285 13.9852Z" fill="white"/>
<path d="M37.0235 17.4034V19.8231C37.0235 20.4525 36.7701 21.0561 36.319 21.5012C35.8679 21.9463 35.2561 22.1963 34.6181 22.1963C33.9802 22.1963 33.3684 21.9463 32.9173 21.5012C32.4662 21.0561 32.2127 20.4525 32.2127 19.8231V17.4034H25.5625C25.2809 17.4302 24.9969 17.3916 24.7331 17.2905C24.4694 17.1895 24.2333 17.029 24.0438 16.8217C23.7385 16.4544 23.5718 15.9939 23.5722 15.5188C23.5709 15.285 23.6075 15.0525 23.6807 14.8301C23.7522 14.6055 23.8675 14.3968 24.0202 14.2158C24.1835 14.0141 24.3939 13.8544 24.6334 13.7505C24.9321 13.6293 25.254 13.5738 25.5767 13.5877H43.6879C44.0106 13.5738 44.3324 13.6293 44.6312 13.7505C44.8707 13.8544 45.0811 14.0141 45.2443 14.2158C45.397 14.3968 45.5124 14.6055 45.5839 14.8301C45.6571 15.0525 45.6937 15.285 45.6924 15.5188C45.6928 15.9939 45.5261 16.4544 45.2207 16.8217C45.0312 17.029 44.7951 17.1895 44.5314 17.2905C44.2677 17.3916 43.9836 17.4302 43.702 17.4034H37.0235ZM39.4289 4.58347C39.4273 4.45383 39.395 4.32634 39.3346 4.21118C39.2733 4.08554 39.1223 4.0251 38.8629 4.0251H26.1992C25.976 4.0357 25.7532 3.99498 25.5486 3.90615C25.344 3.81732 25.1631 3.68277 25.0201 3.51319C24.7436 3.18719 24.5931 2.77497 24.5956 2.34985C24.5978 1.93958 24.7483 1.54358 25.0201 1.2331C25.1616 1.06181 25.3422 0.926054 25.5472 0.837068C25.7522 0.748082 25.9757 0.708357 26.1992 0.721189H40.6316C41.2378 0.703506 41.8429 0.782063 42.4239 0.953855C42.8501 1.07984 43.2387 1.30669 43.5558 1.61465C43.8414 1.90559 44.049 2.26226 44.1595 2.65233C44.2809 3.08404 44.3397 3.53054 44.334 3.97852V6.65884C44.334 7.07641 44.1662 7.47694 43.8674 7.77264C43.5686 8.06834 43.1631 8.23509 42.7399 8.23632H30.0903C29.6658 8.23632 29.4536 8.39921 29.4536 8.72495V8.86451C29.4444 8.93457 29.4539 9.0058 29.4812 9.07111C29.5085 9.13641 29.5526 9.19354 29.6092 9.2368C29.7557 9.30751 29.9182 9.33955 30.0809 9.32984H43.3577C43.6097 9.32392 43.8598 9.37488 44.0888 9.47878C44.2792 9.57277 44.4515 9.69871 44.5982 9.85102C44.7293 9.99917 44.8259 10.1739 44.8811 10.3629C44.9326 10.5495 44.9595 10.7419 44.9613 10.9353C44.9593 11.3263 44.8267 11.7057 44.584 12.0148C44.4369 12.1912 44.2481 12.3293 44.0343 12.4169C43.8205 12.5045 43.5882 12.539 43.3577 12.5174H28.416C27.0356 12.5174 26.0137 12.2072 25.3503 11.5868C25.0102 11.2426 24.7466 10.8323 24.576 10.382C24.4055 9.93177 24.3319 9.45145 24.3598 8.97159V8.69234C24.3322 8.21041 24.4059 7.72807 24.5764 7.27561C24.7468 6.82315 25.0103 6.41039 25.3503 6.06326C26.0106 5.4242 27.0325 5.1062 28.416 5.1093H39.4289V4.58347Z" fill="white"/>
<path d="M67.5388 8.77159C67.7805 8.74218 68.0257 8.76896 68.2551 8.84976C68.4844 8.93055 68.6913 9.06313 68.8594 9.23693C69.1057 9.54948 69.2386 9.93454 69.2367 10.3304C69.2439 10.7316 69.1069 11.1223 68.85 11.4333C68.6816 11.604 68.476 11.7347 68.2488 11.8153C68.0216 11.8959 67.7788 11.9244 67.5388 11.8986H48.8616C48.6216 11.9244 48.3788 11.8959 48.1516 11.8153C47.9244 11.7347 47.7188 11.604 47.5504 11.4333C47.2957 11.1211 47.159 10.7312 47.1637 10.3304C47.1618 9.93454 47.2947 9.54948 47.541 9.23693C47.7091 9.06313 47.9161 8.93055 48.1454 8.84976C48.3747 8.76896 48.62 8.74218 48.8616 8.77159H67.5388ZM50.7954 22.0801C50.3426 22.0892 49.8929 22.0052 49.4748 21.8335C49.1161 21.6865 48.7942 21.4642 48.5315 21.182C48.2905 20.9107 48.1076 20.5942 47.9938 20.2514C47.8736 19.883 47.8131 19.4982 47.8146 19.1113V19.0415C47.7817 18.3097 48.035 17.5934 48.522 17.0406C48.9937 16.5287 49.7483 16.2728 50.7859 16.2728H63.4025V15.8307C63.4025 15.5794 63.2374 15.4584 62.9072 15.4584H49.404C49.2166 15.4713 49.0287 15.441 48.8552 15.3699C48.6816 15.2989 48.5272 15.189 48.4041 15.0489C48.1862 14.8097 48.0638 14.5004 48.0598 14.1788C48.0649 13.858 48.1758 13.5476 48.3758 13.2946C48.5006 13.1486 48.6592 13.0344 48.8381 12.9615C49.0171 12.8886 49.2112 12.8592 49.404 12.8758H65.6286C66.6332 12.8758 67.3266 13.0573 67.7039 13.4203C67.9045 13.6383 68.0581 13.8943 68.1554 14.1726C68.2527 14.451 68.2916 14.7459 68.2699 15.0396V17.1848C68.2699 17.5785 68.1113 17.9561 67.8292 18.2345C67.547 18.5128 67.1643 18.6692 66.7653 18.6692H53.3423C53.2794 18.662 53.2156 18.6673 53.1548 18.6849C53.0941 18.7025 53.0375 18.732 52.9885 18.7716C52.9218 18.8546 52.8882 18.9589 52.8942 19.0648C52.8889 19.1733 52.9222 19.2804 52.9885 19.3672C53.0352 19.4111 53.0911 19.4442 53.1522 19.4643C53.2134 19.4844 53.2783 19.491 53.3423 19.4836H67.1851C67.3697 19.4662 67.5559 19.4941 67.727 19.5647C67.8981 19.6353 68.049 19.7465 68.1661 19.8884C68.3564 20.1502 68.4586 20.4643 68.4585 20.7865C68.449 21.0941 68.3509 21.3928 68.1755 21.6474C68.0648 21.8009 67.9148 21.9226 67.7408 22.0003C67.5668 22.0779 67.375 22.1087 67.1851 22.0894L50.7954 22.0801ZM53.3423 3.67622C53.208 3.65978 53.0721 3.68756 52.9555 3.75529C52.8861 3.85449 52.8559 3.97532 52.8706 4.09498V4.39745C52.8706 4.59755 52.8989 4.72321 52.9555 4.76974C53.0744 4.83094 53.2092 4.85528 53.3423 4.83956H66.6663C66.9006 4.8143 67.1376 4.8432 67.3586 4.92396C67.5797 5.00473 67.7786 5.13515 67.9397 5.30489C68.1873 5.61316 68.3205 5.99577 68.317 6.38909C68.3251 6.76762 68.1906 7.13565 67.9397 7.42212C67.7721 7.58131 67.5714 7.70251 67.3514 7.77725C67.1315 7.852 66.8977 7.87851 66.6663 7.8549H51.2434C50.7261 7.86558 50.2091 7.82189 49.7011 7.7246C49.3483 7.66111 49.0211 7.49969 48.7579 7.25926C48.5101 7.0024 48.3458 6.67829 48.2862 6.3286C48.1923 5.85039 48.1496 5.36377 48.1589 4.87676V3.52729C48.1497 3.03565 48.1924 2.5444 48.2862 2.06148C48.3472 1.71222 48.5112 1.38849 48.7579 1.13081C49.0249 0.895971 49.3505 0.735379 49.7011 0.665478C50.2083 0.562145 50.7257 0.515352 51.2434 0.525912H66.5955C66.8314 0.498417 67.0705 0.526226 67.2934 0.607084C67.5163 0.687941 67.7168 0.819564 67.8784 0.991245C68.1206 1.30181 68.2502 1.68359 68.2463 2.07545C68.2531 2.47214 68.1197 2.85877 67.869 3.16897C67.7066 3.33698 67.5074 3.46625 67.2868 3.54688C67.0661 3.62752 66.8297 3.65741 66.5955 3.6343L53.3423 3.67622Z" fill="white"/>
<path d="M73.7884 17.5187V10.3526C73.7574 10.0514 73.7999 9.74722 73.9123 9.46553C74.0247 9.18383 74.2037 8.93276 74.4345 8.73322C74.9004 8.41101 75.4601 8.24763 76.0287 8.26789C76.593 8.24655 77.1486 8.41018 77.6087 8.73322C77.8424 8.92794 78.0247 9.1758 78.1397 9.45547C78.2547 9.73515 78.2991 10.0382 78.269 10.3386V17.5047H83.9995C84.2821 17.4758 84.5677 17.512 84.8337 17.6105C85.0997 17.709 85.3388 17.8672 85.5323 18.0724C85.8346 18.4379 86.001 18.8944 86.004 19.3661C86.0086 19.8447 85.8415 20.3094 85.5323 20.6783C85.3415 20.8833 85.1049 21.0417 84.8413 21.141C84.5778 21.2403 84.2944 21.2778 84.0136 21.2506H72.7885C72.5058 21.2751 72.2211 21.2364 71.9557 21.1373C71.6904 21.0382 71.451 20.8813 71.2556 20.6783C70.9453 20.3101 70.7781 19.8449 70.784 19.3661C70.7834 18.8938 70.9502 18.4361 71.2556 18.0724C71.4525 17.869 71.6936 17.7122 71.9607 17.6138C72.2278 17.5155 72.514 17.4782 72.7979 17.5047L73.7884 17.5187ZM79.8962 13.098C80.1567 12.2677 80.3305 11.4132 80.415 10.548C80.5354 9.33097 80.5905 8.10855 80.5801 6.88581V5.48981C80.5911 5.41394 80.5841 5.33662 80.5595 5.2639C80.535 5.19118 80.4936 5.12508 80.4387 5.07088C80.3838 5.01669 80.3168 4.97586 80.2431 4.95165C80.1694 4.92745 80.091 4.92053 80.0141 4.93143H73.1752C72.8669 4.9383 72.561 4.87792 72.2791 4.7546C72.0401 4.6432 71.8266 4.48486 71.6518 4.28927C71.4903 4.10531 71.3669 3.89189 71.2886 3.66108C71.2157 3.43235 71.1807 3.19351 71.1849 2.95377C71.1833 2.70856 71.2232 2.46478 71.3028 2.23248C71.381 2.00167 71.5044 1.78825 71.6659 1.60429C71.8411 1.40899 72.0544 1.2507 72.2932 1.13896C72.5755 1.01724 72.8815 0.958456 73.1894 0.966788H81.6082C82.1692 0.95453 82.7292 1.01715 83.2732 1.15293C83.678 1.25155 84.0501 1.45194 84.3532 1.7346C84.6383 2.00751 84.8394 2.35433 84.9333 2.73507C85.051 3.20692 85.1065 3.69175 85.0984 4.17759V6.92307C85.1143 8.38432 85.0387 9.84516 84.872 11.2972C84.7546 12.3351 84.5221 13.3572 84.1787 14.3451C84.0788 14.6394 83.909 14.9059 83.6835 15.1222C83.4624 15.3312 83.2031 15.497 82.9194 15.6108C82.6194 15.73 82.2995 15.7931 81.9761 15.7969C81.629 15.8054 81.2825 15.7631 80.9479 15.6713C80.6992 15.6078 80.4711 15.4825 80.2853 15.3074C80.0995 15.1323 79.9623 14.9132 79.8867 14.6709C79.7218 14.1587 79.7251 13.6082 79.8962 13.098ZM86.8294 2.48843C86.8074 2.17213 86.8598 1.85511 86.9825 1.56209C87.1052 1.26907 87.2949 1.00798 87.5368 0.799275C87.9943 0.426513 88.5707 0.225432 89.164 0.231582C89.4615 0.229988 89.7569 0.280377 90.0366 0.380464C90.3104 0.477073 90.5632 0.623932 90.7818 0.813248C90.9986 1.00976 91.1734 1.24708 91.2959 1.51125C91.4377 1.81758 91.5071 2.15174 91.4987 2.48843V8.3749H92.2769C92.5865 8.36339 92.8943 8.42733 93.173 8.56105C93.3954 8.67115 93.5891 8.83039 93.739 9.02638C93.8814 9.22282 93.9853 9.44372 94.0455 9.6778C94.1064 9.91041 94.1381 10.1495 94.1399 10.3898C94.1384 10.6285 94.1067 10.8661 94.0455 11.0971C93.9872 11.3318 93.8831 11.5531 93.739 11.7486C93.5863 11.9456 93.3893 12.1049 93.1636 12.2139C92.8867 12.3432 92.5831 12.407 92.2769 12.4H91.4987V19.7523C91.4925 20.3613 91.2446 20.9437 90.8081 21.3743C90.3716 21.805 89.7813 22.0496 89.164 22.0557C88.5426 22.0557 87.9464 21.8138 87.5048 21.3825C87.0632 20.9511 86.812 20.3653 86.8058 19.7523L86.8294 2.48843Z" fill="white"/>
<path d="M104.823 12.96C104.028 12.9618 103.236 12.8681 102.465 12.6808C101.757 12.5144 101.086 12.2227 100.484 11.8199C99.918 11.4319 99.4541 10.9167 99.13 10.3169C98.7759 9.64693 98.6006 8.89909 98.6207 8.1438V6.91066C98.6187 6.62544 98.66 6.34151 98.7433 6.06838C98.818 5.82709 98.9192 5.59459 99.0451 5.37503C98.8098 5.39486 98.5729 5.36348 98.3513 5.28307C98.1296 5.20266 97.9285 5.0752 97.7623 4.9097C97.4784 4.60542 97.3217 4.2065 97.3236 3.79295C97.3259 3.36621 97.4813 2.95407 97.7623 2.62962C97.9222 2.44553 98.1238 2.30116 98.3507 2.20819C98.5777 2.11523 98.8237 2.07627 99.0687 2.09447H102.488C102.48 1.8081 102.535 1.52335 102.649 1.25986C102.763 0.996372 102.933 0.76039 103.148 0.568169C103.627 0.186668 104.232 -0.00720625 104.846 0.0237088C105.456 -0.00417523 106.055 0.18955 106.53 0.568169C106.749 0.759487 106.925 0.994453 107.045 1.25753C107.165 1.52061 107.228 1.80585 107.228 2.09447H110.624C110.87 2.0736 111.118 2.11132 111.346 2.20444C111.574 2.29757 111.776 2.44338 111.935 2.62962C112.202 2.96021 112.347 3.37046 112.346 3.79295C112.35 4.20035 112.208 4.59615 111.945 4.9097C111.778 5.0793 111.575 5.20938 111.351 5.29C111.126 5.37062 110.885 5.39968 110.648 5.37503H110.624C110.916 5.81838 111.071 6.33554 111.072 6.86413V8.1438C111.091 8.89847 110.918 9.64573 110.567 10.3169C110.24 10.9159 109.775 11.4308 109.209 11.8199C108.607 12.2227 107.936 12.5144 107.228 12.6808C106.441 12.8719 105.633 12.9656 104.823 12.96ZM102.582 22.0805C102.003 22.0939 101.425 22.0344 100.861 21.9037C100.468 21.8133 100.11 21.611 99.8328 21.322C99.5805 21.0103 99.4176 20.6375 99.3611 20.2424C99.2633 19.6816 99.2191 19.113 99.2291 18.544V17.2876C99.2199 16.7217 99.2641 16.1562 99.3611 15.5984C99.4167 15.199 99.5796 14.8214 99.8328 14.5049C100.11 14.2158 100.468 14.0136 100.861 13.9232C101.425 13.7943 102.004 13.7364 102.582 13.751H115.199C115.778 13.7364 116.356 13.7943 116.921 13.9232C117.313 14.0126 117.669 14.2151 117.944 14.5049C118.207 14.8184 118.38 15.1962 118.444 15.5984C118.537 16.1567 118.579 16.7219 118.571 17.2876V20.2983C118.57 20.7706 118.379 21.2232 118.041 21.5572C117.702 21.8911 117.244 22.0793 116.765 22.0805H102.582ZM104.823 9.67936C105.3 9.68278 105.766 9.53613 106.153 9.26061C106.353 9.11864 106.513 8.92889 106.619 8.70916C106.724 8.48944 106.772 8.24688 106.757 8.00418V6.86413C106.772 6.62143 106.724 6.37887 106.619 6.15915C106.513 5.93942 106.353 5.74967 106.153 5.6077C105.766 5.33218 105.3 5.18553 104.823 5.18895C104.344 5.18679 103.877 5.33327 103.488 5.6077C103.288 5.7499 103.129 5.93983 103.024 6.1596C102.919 6.37937 102.873 6.6218 102.889 6.86413V8.00418C102.873 8.24651 102.919 8.48894 103.024 8.70871C103.129 8.92848 103.288 9.11841 103.488 9.26061C103.877 9.53504 104.344 9.68152 104.823 9.67936ZM103.88 18.1717C103.871 18.3556 103.907 18.539 103.983 18.7068C104.036 18.779 104.108 18.8349 104.192 18.8679C104.275 18.9009 104.366 18.9096 104.455 18.893H113.473C113.598 18.893 113.718 18.844 113.806 18.7567C113.895 18.6694 113.944 18.5511 113.944 18.4276V17.6319C113.956 17.4537 113.915 17.276 113.827 17.12C113.771 17.0514 113.698 16.9982 113.616 16.9655C113.533 16.9329 113.443 16.922 113.355 16.9339H104.441C104.205 16.9339 104.049 16.9944 103.969 17.12C103.893 17.2799 103.858 17.4556 103.865 17.6319L103.88 18.1717ZM113.784 2.53652C113.761 2.21652 113.811 1.89544 113.931 1.59727C114.051 1.29911 114.238 1.0316 114.477 0.814808C114.934 0.429067 115.518 0.222082 116.119 0.233143C116.716 0.226791 117.295 0.437097 117.746 0.824124C117.987 1.03859 118.176 1.30394 118.298 1.60046C118.421 1.89697 118.474 2.21695 118.453 2.53652V4.51418H119.184C119.494 4.50267 119.802 4.56661 120.081 4.70033C120.302 4.81125 120.496 4.97035 120.647 5.16566C120.79 5.35607 120.895 5.57275 120.953 5.80316C121.014 6.03577 121.046 6.2749 121.047 6.51513C121.046 6.75386 121.014 6.99148 120.953 7.22245C120.895 7.45718 120.791 7.67841 120.647 7.87387C120.497 8.0742 120.299 8.23423 120.071 8.3392C119.793 8.46295 119.49 8.52339 119.184 8.51603H118.453V10.6333C118.453 11.2464 118.208 11.8347 117.771 12.2703C117.334 12.706 116.74 12.9539 116.119 12.96C115.493 12.96 114.893 12.7148 114.451 12.2785C114.009 11.8422 113.76 11.2504 113.76 10.6333L113.784 2.53652Z" fill="white"/>
<path d="M127.311 18.1941C127.592 18.048 127.853 17.8682 128.089 17.659C128.324 17.4366 128.513 17.1711 128.646 16.8772C128.807 16.5055 128.918 16.1144 128.976 15.7139C129.053 15.1479 129.087 14.5771 129.08 14.0061V4.95541C129.087 4.887 129.075 4.81789 129.047 4.75529C129.024 4.73408 128.993 4.72244 128.962 4.72274H127.334V13.3546C127.363 14.4144 127.212 15.4713 126.886 16.4816C126.642 17.221 126.258 17.9079 125.754 18.5059C125.349 18.988 124.842 19.3771 124.269 19.6459C123.799 19.8707 123.298 20.0274 122.783 20.1113C122.567 20.1571 122.344 20.1536 122.13 20.1012C121.916 20.0488 121.716 19.9488 121.547 19.8088C121.241 19.5626 121.035 19.2156 120.967 18.8316C120.936 18.6158 120.921 18.3981 120.92 18.1801C120.918 17.9833 120.958 17.7882 121.038 17.6078C121.126 17.4166 121.249 17.2431 121.401 17.0959C121.607 16.9043 121.842 16.7471 122.099 16.6306C122.297 16.5314 122.482 16.4095 122.651 16.2676C122.848 16.0959 123.009 15.8871 123.123 15.6534C123.28 15.3441 123.394 15.0154 123.462 14.6762C123.56 14.1937 123.604 13.7023 123.594 13.2104V4.99727C123.602 4.92886 123.59 4.85976 123.561 4.79715C123.55 4.78622 123.537 4.77771 123.522 4.7721C123.508 4.76649 123.492 4.76393 123.476 4.7646H122.958C122.685 4.7729 122.414 4.72043 122.165 4.61106C121.964 4.51783 121.788 4.37909 121.651 4.20617C121.514 4.03333 121.414 3.83571 121.354 3.6245C121.292 3.40486 121.26 3.17789 121.26 2.94979C121.26 2.72257 121.287 2.49614 121.34 2.27508C121.392 2.06398 121.489 1.86593 121.623 1.69342C121.766 1.51533 121.948 1.37202 122.156 1.27461C122.406 1.15802 122.681 1.10219 122.958 1.11175H129.938C130.444 1.10083 130.95 1.14295 131.447 1.2374C131.771 1.29677 132.073 1.44144 132.32 1.65615C132.536 1.87772 132.681 2.15803 132.735 2.46117C132.812 2.88334 132.847 3.31196 132.839 3.74084V8.8595H133.994V2.18198C133.974 1.91096 134.016 1.6389 134.118 1.38651C134.22 1.13412 134.38 0.908044 134.584 0.72549C134.977 0.412632 135.47 0.247722 135.975 0.260157C136.48 0.250125 136.972 0.414763 137.366 0.72549C137.576 0.90205 137.74 1.12449 137.847 1.37498C137.953 1.62547 137.999 1.89709 137.98 2.16807V20.1159C137.98 20.3742 137.929 20.6301 137.829 20.8689C137.73 21.1076 137.583 21.3247 137.398 21.5075C137.213 21.6903 136.994 21.8354 136.752 21.9344C136.51 22.0333 136.251 22.0843 135.989 22.0843C135.46 22.0843 134.953 21.8769 134.578 21.5078C134.204 21.1386 133.994 20.638 133.994 20.1159V12.6148H132.839V14.1504C132.86 15.2445 132.754 16.3375 132.523 17.4077C132.352 18.183 132.052 18.9251 131.636 19.6041C131.299 20.1468 130.843 20.6079 130.301 20.9535C129.792 21.2709 129.23 21.4962 128.641 21.6189C128.169 21.7319 127.673 21.6911 127.226 21.5026C127.029 21.4263 126.851 21.3073 126.707 21.1543C126.562 21.0013 126.454 20.8181 126.391 20.6185C126.233 20.1674 126.225 19.6785 126.368 19.2225C126.441 18.9945 126.564 18.7848 126.726 18.6075C126.889 18.4301 127.088 18.2891 127.311 18.1941ZM139.008 2.16341C138.986 1.89015 139.031 1.61581 139.137 1.36271C139.244 1.10961 139.41 0.88491 139.621 0.706915C140.025 0.396578 140.524 0.232321 141.036 0.241582C141.547 0.233447 142.046 0.397583 142.451 0.706915C142.666 0.879639 142.836 1.10075 142.947 1.35175C143.058 1.60274 143.106 1.87628 143.087 2.14943V20.0973C143.087 20.6193 142.877 21.12 142.503 21.4891C142.129 21.8583 141.622 22.0656 141.092 22.0656H141.003C140.474 22.0656 139.966 21.8583 139.592 21.4891C139.218 21.12 139.008 20.6193 139.008 20.0973V2.16341Z" fill="white"/>
<path d="M166.278 0.976391C166.573 0.967558 166.865 1.03156 167.127 1.16254C167.349 1.27346 167.543 1.43256 167.693 1.62787C167.836 1.81538 167.941 2.02883 168 2.25606C168.06 2.47608 168.092 2.70281 168.094 2.93077C168.092 3.1587 168.06 3.38544 168 3.60553C167.939 3.83401 167.832 4.04779 167.684 4.23372C167.53 4.42804 167.336 4.58686 167.113 4.69905C166.854 4.82349 166.567 4.88415 166.278 4.87588H154.346C154.163 4.85725 153.98 4.90166 153.827 5.00153C153.714 5.14404 153.664 5.32469 153.686 5.50407V8.87773C153.666 9.05985 153.716 9.24269 153.827 9.38958C153.976 9.49904 154.161 9.54893 154.346 9.52921H166.656C166.95 9.52038 167.242 9.58438 167.505 9.71535C167.727 9.82628 167.92 9.98538 168.071 10.1807C168.212 10.3658 168.321 10.5736 168.391 10.7949C168.457 11.0108 168.492 11.2348 168.495 11.4603C168.492 11.6889 168.457 11.9158 168.391 12.1351C168.322 12.3637 168.208 12.577 168.057 12.7632C167.907 12.9574 167.715 13.1163 167.495 13.2286C167.234 13.3525 166.946 13.4132 166.656 13.4054H161.067V17.8726H167.717C168.032 17.8621 168.345 17.9176 168.637 18.0355C168.871 18.1311 169.081 18.2774 169.25 18.4636C169.403 18.6405 169.519 18.8463 169.589 19.0685C169.663 19.2909 169.699 19.5234 169.698 19.7572C169.698 20.2323 169.532 20.6928 169.226 21.0602C169.037 21.2674 168.801 21.428 168.537 21.529C168.273 21.63 167.989 21.6686 167.708 21.6418H149.596C149.315 21.6686 149.031 21.63 148.767 21.529C148.503 21.428 148.267 21.2674 148.078 21.0602C147.772 20.6928 147.606 20.2323 147.606 19.7572C147.605 19.5234 147.641 19.2909 147.714 19.0685C147.785 18.8463 147.901 18.6405 148.054 18.4636C148.223 18.2774 148.433 18.1311 148.667 18.0355C148.959 17.9176 149.272 17.8621 149.587 17.8726H156.237V13.4054H152.653C152.049 13.4184 151.446 13.3511 150.86 13.2053C150.421 13.101 150.018 12.8843 149.691 12.5772C149.385 12.2612 149.166 11.8736 149.054 11.451C148.911 10.8884 148.844 10.3094 148.856 9.72933V4.68042C148.844 4.10805 148.911 3.53678 149.054 2.982C149.168 2.55613 149.387 2.16453 149.691 1.8419C150.016 1.52878 150.419 1.30707 150.86 1.19974C151.447 1.058 152.049 0.992338 152.653 1.00434L166.278 0.976391Z" fill="white"/>
<path d="M172.387 8.63099C173.522 8.3274 174.507 7.6281 175.16 6.66264C175.789 5.70716 176.103 4.40888 176.103 2.76781V2.62824C176.095 2.29354 176.168 1.96168 176.315 1.66031C176.45 1.39875 176.64 1.16869 176.872 0.985604C177.107 0.805964 177.374 0.671775 177.66 0.590082C177.966 0.50385 178.284 0.461529 178.603 0.464433C179.187 0.469051 179.752 0.669192 180.206 1.03213C180.438 1.22746 180.621 1.47341 180.739 1.75046C180.858 2.02751 180.91 2.32807 180.89 2.62824V2.76781C180.892 3.10497 180.876 3.44202 180.843 3.7776C180.81 4.09868 180.772 4.41045 180.725 4.70827C181.527 4.80124 182.308 5.02448 183.036 5.369C183.719 5.70128 184.32 6.1779 184.796 6.765C185.303 7.40505 185.671 8.14177 185.876 8.92881C185.937 9.13355 185.984 9.34295 186.027 9.56165C186.079 9.85337 186.066 10.1529 185.988 10.4391C185.911 10.7253 185.771 10.9912 185.578 11.2183C185.385 11.4454 185.144 11.6281 184.872 11.7535C184.6 11.8789 184.303 11.9439 184.003 11.9442H183.569C183.075 11.9351 182.599 11.7593 182.221 11.446C181.842 11.1327 181.584 10.7008 181.489 10.2224C181.428 9.9499 181.33 9.68684 181.197 9.44066C181.027 9.13912 180.79 8.87927 180.504 8.68029C180.219 8.48132 179.891 8.34836 179.546 8.2913C178.918 9.42999 178.026 10.4059 176.943 11.1391C175.97 11.8032 174.848 12.2233 173.674 12.363C173.383 12.393 173.088 12.3773 172.802 12.3164C172.553 12.2592 172.314 12.1651 172.094 12.0373C171.893 11.9155 171.717 11.7577 171.575 11.5719C171.441 11.3996 171.344 11.2015 171.292 10.9903C171.134 10.5087 171.163 9.98647 171.372 9.52445C171.465 9.31133 171.604 9.12086 171.779 8.96647C171.954 8.81208 172.161 8.69753 172.387 8.63099ZM176.16 22.0791C175.581 22.0925 175.002 22.0331 174.438 21.9023C174.045 21.8119 173.688 21.6096 173.41 21.3206C173.158 21.0089 172.995 20.6361 172.938 20.2411C172.841 19.6802 172.796 19.1116 172.806 18.5426V16.6813C172.797 16.1154 172.841 15.5499 172.938 14.9921C172.994 14.5926 173.157 14.2151 173.41 13.8986C173.688 13.6096 174.045 13.4073 174.438 13.3169C175.002 13.188 175.581 13.1301 176.16 13.1448H189.389C189.968 13.1301 190.547 13.188 191.111 13.3169C191.504 13.4073 191.861 13.6096 192.139 13.8986C192.392 14.2151 192.555 14.5926 192.611 14.9921C192.708 15.5499 192.752 16.1154 192.743 16.6813V20.255C192.743 20.7487 192.544 21.2221 192.19 21.5712C191.836 21.9202 191.357 22.1164 190.856 22.1164L176.16 22.0791ZM177.433 18.1703C177.411 18.3505 177.447 18.533 177.537 18.6915C177.676 18.7823 177.843 18.8204 178.009 18.7986H187.607C187.745 18.7973 187.877 18.7423 187.974 18.6456C188.071 18.5488 188.125 18.4182 188.125 18.282V16.9837C188.125 16.7185 188.088 16.5509 188.007 16.4811C187.866 16.3963 187.7 16.3603 187.536 16.3788H178.009C177.844 16.356 177.677 16.3924 177.537 16.4811C177.448 16.6333 177.412 16.8096 177.433 16.9837V18.1703ZM187.88 2.53514C187.857 2.21264 187.91 1.88932 188.036 1.59056C188.161 1.2918 188.355 1.02577 188.602 0.813433C189.066 0.428678 189.656 0.222145 190.262 0.231767C190.564 0.230927 190.864 0.281271 191.149 0.380648C191.432 0.484765 191.691 0.642885 191.913 0.845981C192.138 1.04866 192.319 1.29398 192.446 1.56727C192.583 1.87989 192.65 2.21787 192.644 2.55843V10.1294C192.644 10.4123 192.587 10.6925 192.478 10.9538C192.368 11.2152 192.207 11.4527 192.004 11.6528C191.801 11.8529 191.561 12.0116 191.296 12.1198C191.031 12.2281 190.747 12.2839 190.46 12.2839H190.064C189.777 12.2839 189.493 12.2281 189.228 12.1198C188.963 12.0116 188.722 11.8529 188.52 11.6528C188.317 11.4527 188.156 11.2152 188.046 10.9538C187.937 10.6925 187.88 10.4123 187.88 10.1294V2.53514Z" fill="white"/>
<path d="M206.391 10.4925V9.5618C206.385 9.24023 206.454 8.92155 206.594 8.63114C206.715 8.37822 206.897 8.15791 207.123 7.98897C207.348 7.82292 207.605 7.70133 207.877 7.63072C208.169 7.55112 208.471 7.51197 208.773 7.51438C209.073 7.51381 209.371 7.55294 209.66 7.63072C209.936 7.70032 210.195 7.82195 210.424 7.98897C210.65 8.15904 210.833 8.37897 210.957 8.63114C211.093 8.92263 211.161 9.2408 211.155 9.5618V10.4925H217.758C218.035 10.4646 218.315 10.4992 218.576 10.5935C218.838 10.6878 219.074 10.8394 219.267 11.0369C219.56 11.3882 219.718 11.8295 219.716 12.284C219.717 12.7452 219.549 13.1912 219.244 13.5404C219.055 13.7402 218.821 13.8944 218.562 13.9912C218.303 14.088 218.025 14.1248 217.749 14.0988H199.59C199.314 14.1248 199.036 14.088 198.777 13.9912C198.518 13.8944 198.285 13.7402 198.095 13.5404C197.79 13.1912 197.623 12.7452 197.624 12.284C197.621 11.8295 197.779 11.3882 198.072 11.0369C198.265 10.8394 198.501 10.6878 198.763 10.5935C199.024 10.4992 199.304 10.4646 199.581 10.4925H206.391ZM210.778 2.79124C211.681 2.80243 212.579 2.92278 213.452 3.14956C214.297 3.36961 215.096 3.73676 215.81 4.23376C216.549 4.75771 217.188 5.40682 217.697 6.15093V6.17422C217.875 6.45432 217.975 6.77633 217.986 7.1071C217.996 7.43788 217.917 7.76546 217.757 8.05606C217.596 8.34666 217.36 8.58975 217.073 8.76036C216.785 8.93098 216.457 9.02295 216.122 9.02671H215.315C215.016 9.03127 214.72 8.96768 214.45 8.84097C214.18 8.71425 213.944 8.5278 213.759 8.29611C213.251 7.63124 212.589 7.09529 211.83 6.7326C210.755 6.23971 209.556 6.07755 208.387 6.26727C207.831 6.71456 207.236 7.11171 206.608 7.45389C205.95 7.80892 205.264 8.1123 204.557 8.36126C203.845 8.60745 203.115 8.79727 202.373 8.92896C201.658 9.06038 200.931 9.11963 200.203 9.10578C199.914 9.12131 199.624 9.07535 199.354 8.97099C199.084 8.86663 198.84 8.70634 198.638 8.50089C198.319 8.15013 198.15 7.69177 198.166 7.22122C198.182 6.73487 198.384 6.27255 198.732 5.92758C198.945 5.72601 199.196 5.56795 199.472 5.46253C199.747 5.35712 200.04 5.3064 200.336 5.31331C200.945 5.29127 201.548 5.18478 202.128 4.99692C202.727 4.81086 203.304 4.56124 203.849 4.2524C204.357 3.97046 204.821 3.61784 205.227 3.2054C205.588 2.85062 205.859 2.41701 206.019 1.93965C206.178 1.32289 206.561 0.784949 207.094 0.427317C207.602 0.110929 208.206 -0.0206922 208.802 0.0550848C209.367 0.0896132 209.905 0.305269 210.334 0.669299C210.544 0.889162 210.698 1.15452 210.784 1.44393C210.87 1.73333 210.885 2.03869 210.83 2.33523L210.778 2.79124ZM200.519 18.8452C199.986 18.8878 199.457 18.7205 199.048 18.3799C198.877 18.2164 198.744 18.0191 198.656 17.8009C198.568 17.5827 198.528 17.3487 198.539 17.1142C198.526 16.8822 198.565 16.6504 198.653 16.4349C198.741 16.2195 198.876 16.0257 199.048 15.8671C199.461 15.5338 199.987 15.3675 200.519 15.4017H215.329C215.907 15.3904 216.484 15.4403 217.051 15.5506C217.439 15.6254 217.797 15.8116 218.079 16.0858C218.333 16.3841 218.496 16.747 218.551 17.1328C218.649 17.6826 218.693 18.2405 218.683 18.7987V19.7294C218.683 20.3464 218.434 20.9382 217.992 21.3746C217.55 21.8109 216.95 22.056 216.324 22.056C215.699 22.056 215.099 21.8109 214.657 21.3746C214.215 20.9382 213.966 20.3464 213.966 19.7294V19.3338C213.966 19.198 213.911 19.0679 213.814 18.9719C213.717 18.8759 213.585 18.8219 213.447 18.8219L200.519 18.8452Z" fill="white"/>
<path d="M235.068 0.836765C235.334 0.82804 235.598 0.884017 235.837 0.999677C236.039 1.0998 236.216 1.24278 236.356 1.41843C236.49 1.59094 236.586 1.789 236.639 2.0001C236.69 2.20568 236.717 2.41657 236.719 2.62834C236.717 2.83342 236.685 3.03715 236.625 3.23324C236.565 3.43028 236.469 3.61484 236.342 3.7777C236.205 3.9485 236.033 4.08819 235.837 4.1872C235.597 4.30058 235.334 4.35638 235.068 4.35005H229.031C228.867 4.33554 228.702 4.37127 228.559 4.45241C228.504 4.50426 228.462 4.56864 228.437 4.63997C228.413 4.7113 228.406 4.78745 228.418 4.8619V7.09552C228.407 7.17279 228.414 7.25143 228.439 7.32558C228.463 7.39972 228.505 7.4674 228.559 7.52359C228.702 7.60663 228.866 7.64408 229.031 7.63067H235.964C236.231 7.62537 236.497 7.6761 236.742 7.77955C236.945 7.86794 237.123 8.00368 237.261 8.17507C237.39 8.33904 237.486 8.52531 237.544 8.72419C237.606 8.92013 237.638 9.12395 237.639 9.32909C237.638 9.5449 237.606 9.75951 237.544 9.96659C237.487 10.1687 237.391 10.3583 237.261 10.525C237.122 10.6982 236.944 10.8381 236.742 10.9345C236.499 11.047 236.233 11.1028 235.964 11.0974H227.05C226.496 11.1083 225.943 11.0615 225.399 10.9578C225.029 10.8972 224.683 10.7361 224.399 10.4924C224.144 10.2382 223.971 9.91395 223.904 9.56175C223.806 9.0606 223.761 8.55056 223.772 8.04016V3.9685C223.761 3.45656 223.805 2.94489 223.904 2.4422C223.97 2.08972 224.143 1.76523 224.399 1.51153C224.683 1.26785 225.029 1.10672 225.399 1.0462C225.943 0.942435 226.496 0.895619 227.05 0.906577L235.068 0.836765ZM227.875 22.0792C227.391 22.085 226.911 21.9982 226.461 21.8233C226.064 21.6662 225.706 21.4284 225.409 21.1253C225.127 20.8328 224.908 20.4879 224.763 20.1109C224.611 19.73 224.534 19.3242 224.536 18.915V18.6357C224.519 18.2598 224.588 17.8849 224.738 17.5386C224.887 17.1923 225.113 16.8835 225.399 16.6348C226.107 16.0936 226.992 15.8286 227.885 15.8903H239.275V15.2854C239.285 15.1826 239.26 15.0795 239.204 14.9922C239.116 14.9278 239.007 14.8994 238.898 14.9131H226.083C225.896 14.9296 225.707 14.8999 225.534 14.8269C225.362 14.7538 225.21 14.6395 225.093 14.4943C224.895 14.2231 224.788 13.8978 224.786 13.5637C224.787 13.2294 224.894 12.9038 225.093 12.633C225.208 12.4855 225.359 12.3689 225.533 12.2941C225.706 12.2193 225.895 12.1886 226.083 12.2049H241.176C242.228 12.2049 242.973 12.3817 243.407 12.74C243.841 13.0983 244.053 13.7312 244.053 14.6479V17.1653C244.053 17.4842 243.925 17.79 243.697 18.0159C243.469 18.2418 243.159 18.3693 242.836 18.3705H230.021C229.952 18.3649 229.882 18.3731 229.815 18.3947C229.749 18.4163 229.687 18.4508 229.635 18.4962C229.592 18.537 229.558 18.5861 229.535 18.6406C229.512 18.6951 229.501 18.7537 229.503 18.8126V18.8824C229.501 18.9406 229.512 18.9984 229.535 19.0522C229.558 19.1059 229.592 19.1543 229.635 19.1942C229.686 19.2413 229.748 19.2772 229.814 19.2997C229.881 19.3221 229.951 19.3306 230.021 19.3245H242.864C243.06 19.3073 243.256 19.3387 243.436 19.416C243.615 19.4932 243.772 19.6138 243.893 19.7665C244.101 20.0506 244.212 20.393 244.209 20.7437C244.209 21.0782 244.102 21.4041 243.902 21.6744C243.78 21.8265 243.621 21.9459 243.439 22.0215C243.258 22.0971 243.06 22.1266 242.864 22.1072L227.875 22.0792ZM239.195 2.53524C239.171 2.21525 239.222 1.89417 239.342 1.596C239.462 1.29783 239.649 1.03033 239.888 0.813533C240.345 0.427791 240.929 0.220806 241.53 0.231867C242.127 0.225515 242.706 0.435821 243.157 0.822848C243.398 1.03732 243.587 1.30267 243.709 1.59918C243.832 1.89569 243.885 2.21567 243.864 2.53524V4.00105H244.595C244.904 3.98933 245.21 4.04826 245.491 4.17322C245.715 4.28126 245.909 4.44087 246.057 4.63855C246.199 4.83213 246.303 5.04985 246.364 5.28072C246.425 5.50852 246.457 5.74305 246.458 5.97871C246.457 6.21744 246.425 6.45506 246.364 6.68603C246.307 6.91824 246.202 7.13665 246.057 7.32819C245.906 7.52679 245.709 7.68643 245.482 7.79352C245.204 7.91727 244.901 7.97771 244.595 7.97035H243.864V9.15692C243.864 9.76998 243.619 10.3583 243.182 10.794C242.745 11.2297 242.151 11.4774 241.53 11.4836C240.904 11.4836 240.304 11.2384 239.862 10.8021C239.42 10.3658 239.171 9.77399 239.171 9.15692L239.195 2.53524Z" fill="white"/>
<path d="M252.047 16.2858C252.029 16.428 252.041 16.5724 252.081 16.7101C252.122 16.8478 252.191 16.9758 252.283 17.0861C252.535 17.2462 252.834 17.3168 253.132 17.2863H260.089C260.412 17.2724 260.734 17.328 261.032 17.4491C261.272 17.5486 261.486 17.6996 261.66 17.8912C261.82 18.0691 261.941 18.2784 262.013 18.5054C262.083 18.7286 262.118 18.9607 262.117 19.1941C262.119 19.6722 261.952 20.1359 261.645 20.5063C261.455 20.7166 261.217 20.88 260.951 20.9834C260.684 21.0868 260.398 21.1275 260.113 21.102H251.387C250.752 21.1141 250.117 21.0437 249.501 20.8926C249.029 20.778 248.595 20.5456 248.241 20.2178C247.899 19.8793 247.655 19.4568 247.534 18.994C247.369 18.3874 247.293 17.7606 247.307 17.1327V12.8982C247.291 12.2702 247.367 11.6431 247.534 11.0368C247.656 10.5785 247.9 10.1608 248.241 9.82697C248.594 9.4994 249.029 9.26979 249.501 9.16152C250.119 9.0203 250.753 8.9547 251.387 8.96612H255.024C255.178 8.9649 255.326 8.90371 255.436 8.79576C255.545 8.68782 255.607 8.54177 255.608 8.38911V5.59711C255.614 5.43419 255.573 5.27302 255.491 5.13178C255.41 4.99218 255.241 4.92235 254.972 4.92235H249.548C249.233 4.93054 248.92 4.87512 248.628 4.75949C248.39 4.65388 248.18 4.49449 248.015 4.29416C247.859 4.10783 247.739 3.89493 247.661 3.66597C247.583 3.44131 247.543 3.20546 247.543 2.96797C247.542 2.73115 247.579 2.49564 247.652 2.26997C247.722 2.03779 247.843 1.82347 248.005 1.64179C248.177 1.44449 248.389 1.2858 248.628 1.17645C248.918 1.05299 249.232 0.9942 249.548 1.00428H256.222C256.899 0.989893 257.577 1.0523 258.24 1.19037C258.705 1.28472 259.138 1.49276 259.499 1.79532C259.823 2.08859 260.052 2.46866 260.16 2.88885C260.298 3.4364 260.362 3.99982 260.348 4.56403V11.1206C260.348 11.5406 260.18 11.9436 259.879 12.241C259.578 12.5384 259.171 12.7061 258.745 12.7074H253.132C252.835 12.678 252.537 12.7468 252.283 12.9028C252.19 13.014 252.122 13.1428 252.081 13.2812C252.04 13.4197 252.029 13.5649 252.047 13.7078V16.2858ZM265.725 22.0792C265.1 22.0792 264.5 21.834 264.058 21.3977C263.615 20.9614 263.367 20.3696 263.367 19.7525V2.53519C263.344 2.21395 263.395 1.89173 263.518 1.59328C263.641 1.29482 263.831 1.02808 264.074 0.81348C264.535 0.428245 265.122 0.22149 265.725 0.231814C266.329 0.22149 266.916 0.428245 267.376 0.81348C267.619 1.02808 267.81 1.29482 267.932 1.59328C268.055 1.89173 268.107 2.21395 268.083 2.53519V19.7525C268.083 20.3696 267.835 20.9614 267.393 21.3977C266.95 21.834 266.351 22.0792 265.725 22.0792Z" fill="white"/>
<path d="M272.399 17.2863C273.32 17.2079 274.228 17.0156 275.101 16.7139C275.884 16.4435 276.59 15.9938 277.162 15.4016C277.773 14.7342 278.221 13.9386 278.474 13.075C278.811 11.9106 278.97 10.7028 278.945 9.49195V5.7227C278.951 5.56919 278.897 5.41935 278.794 5.30395C278.737 5.24722 278.669 5.20329 278.593 5.17518C278.517 5.14707 278.436 5.1354 278.356 5.14104H272.979C272.655 5.15065 272.333 5.09029 272.036 4.96421C271.789 4.85427 271.568 4.69595 271.385 4.49888C271.212 4.31385 271.08 4.09509 270.998 3.85672C270.91 3.62294 270.865 3.37553 270.866 3.12617C270.867 2.88302 270.912 2.64198 270.998 2.4142C271.083 2.17445 271.215 1.95322 271.385 1.76272C271.569 1.56679 271.79 1.40864 272.036 1.29739C272.331 1.16347 272.654 1.09977 272.979 1.1113H279.959C281.296 1.1113 282.239 1.40596 282.789 1.99539C283.395 2.69113 283.699 3.59327 283.638 4.50819V9.51052C283.683 11.3138 283.4 13.1103 282.803 14.8153C282.315 16.1631 281.528 17.3869 280.502 18.3984C279.529 19.3258 278.357 20.0256 277.073 20.4458C275.702 20.8884 274.271 21.1237 272.828 21.1438C272.541 21.1416 272.256 21.1025 271.979 21.0275C271.711 20.9552 271.459 20.832 271.239 20.6646C271.023 20.501 270.849 20.2909 270.729 20.0503C270.594 19.7593 270.537 19.4387 270.564 19.1196C270.578 18.6612 270.743 18.2198 271.036 17.8633C271.212 17.6812 271.423 17.5362 271.657 17.437C271.892 17.3379 272.144 17.2866 272.399 17.2863ZM289.331 22.0792C288.706 22.0792 288.106 21.834 287.663 21.3977C287.221 20.9614 286.973 20.3696 286.973 19.7525V2.53519C286.95 2.21395 287.001 1.89173 287.124 1.59328C287.246 1.29482 287.437 1.02808 287.68 0.81348C288.141 0.428245 288.727 0.22149 289.331 0.231814C289.935 0.22149 290.521 0.428245 290.982 0.81348C291.225 1.02808 291.415 1.29482 291.538 1.59328C291.661 1.89173 291.712 2.21395 291.689 2.53519V19.7525C291.689 20.3696 291.441 20.9614 290.998 21.3977C290.556 21.834 289.956 22.0792 289.331 22.0792Z" fill="white"/>
<path d="M295.321 22.1749C295.583 22.0397 295.801 21.833 295.948 21.5793C296.099 21.3056 296.176 20.9976 296.17 20.6858C295.579 20.6518 295.019 20.4128 294.59 20.0111C294.388 19.8002 294.232 19.5513 294.131 19.2794C294.03 19.0076 293.985 18.7183 294 18.429C293.984 18.1154 294.036 17.802 294.154 17.5104C294.272 17.2188 294.453 16.9559 294.684 16.7398C295.187 16.3135 295.837 16.0937 296.5 16.1256C296.834 16.1107 297.167 16.1637 297.48 16.2814C297.792 16.399 298.077 16.5789 298.316 16.8096C298.542 17.0385 298.72 17.3102 298.837 17.6085C298.955 17.9068 299.01 18.2254 298.999 18.5453V18.7547C299.054 19.9012 298.784 21.0401 298.221 22.0446C297.761 22.8253 297.046 23.4289 296.193 23.757C295.994 23.8315 295.789 23.8891 295.58 23.9292C295.385 23.9615 295.186 23.9615 294.99 23.9292C294.78 23.8931 294.579 23.8138 294.401 23.6965C294.303 23.6215 294.228 23.5203 294.187 23.4048C294.145 23.2894 294.137 23.1646 294.165 23.0451C294.175 22.8708 294.246 22.7055 294.367 22.5779C294.488 22.4503 294.65 22.3686 294.825 22.3471C294.901 22.3154 294.98 22.2919 295.061 22.2773C295.152 22.2535 295.239 22.2192 295.321 22.1749Z" fill="white"/>
<path d="M102.691 45.3235C103.522 44.7624 104.261 44.0798 104.884 43.2993C105.5 42.5027 105.986 41.6155 106.323 40.6702C106.71 39.5702 106.971 38.4307 107.101 37.2732C107.267 35.8288 107.346 34.376 107.337 32.9224V31.1076C107.329 30.7714 107.397 30.4378 107.535 30.1304C107.663 29.8606 107.844 29.6186 108.068 29.4184C108.288 29.2274 108.544 29.0818 108.822 28.9903C109.112 28.8965 109.414 28.8494 109.719 28.8507C110.016 28.8514 110.311 28.9017 110.591 28.9996C110.87 29.1068 111.126 29.2646 111.346 29.4649C111.569 29.664 111.749 29.9064 111.874 30.1769C112.011 30.4684 112.08 30.7863 112.077 31.1076V32.8991C112.081 34.1894 112.01 35.479 111.865 36.7614C112.828 37.1086 113.724 37.6153 114.515 38.2597C115.299 38.9121 115.934 39.7209 116.378 40.6329C116.896 41.7094 117.235 42.8611 117.383 44.0438C117.491 44.8244 117.549 45.6107 117.557 46.3984C117.564 46.6942 117.51 46.9883 117.4 47.2635C117.29 47.5387 117.125 47.7895 116.916 48.0013C116.706 48.2131 116.456 48.3817 116.18 48.4972C115.904 48.6126 115.607 48.6727 115.308 48.6739C115.01 48.6721 114.716 48.6123 114.442 48.498C114.168 48.3837 113.919 48.2172 113.711 48.0079C113.502 47.7986 113.338 47.5508 113.226 47.2786C113.115 47.0063 113.059 46.7152 113.063 46.4217C113.079 45.5743 112.985 44.7283 112.784 43.9042C112.537 42.7815 111.914 41.7735 111.016 41.0424C110.565 42.6556 109.825 44.1763 108.832 45.5329C107.964 46.6974 106.86 47.6718 105.592 48.3947C105.305 48.559 104.995 48.6798 104.672 48.753C104.371 48.8211 104.06 48.8415 103.752 48.8135C103.469 48.7851 103.194 48.7096 102.936 48.5901C102.703 48.4827 102.498 48.3234 102.337 48.1248C102.178 47.933 102.054 47.7158 101.969 47.4826C101.885 47.2405 101.85 46.9843 101.866 46.7288C101.881 46.4627 101.957 46.2035 102.087 45.9703C102.237 45.7125 102.443 45.4914 102.691 45.3235ZM121.675 50.0001C121.049 50.0001 120.45 49.755 120.007 49.3186C119.565 48.8823 119.317 48.2905 119.317 47.6734V30.4561C119.293 30.1348 119.345 29.8126 119.468 29.5142C119.59 29.2157 119.781 28.949 120.024 28.7344C120.484 28.3491 121.071 28.1424 121.675 28.1527C122.278 28.1424 122.865 28.3491 123.326 28.7344C123.569 28.949 123.759 29.2157 123.882 29.5142C124.005 29.8126 124.056 30.1348 124.033 30.4561V47.6734C124.033 48.2905 123.785 48.8823 123.342 49.3186C122.9 49.755 122.3 50.0001 121.675 50.0001Z" fill="white"/>
<path d="M130.542 49.0694C129.909 49.0838 129.276 49.0292 128.655 48.9065C128.24 48.8253 127.858 48.6264 127.556 48.3342C127.277 48.0236 127.094 47.641 127.028 47.2314C126.923 46.64 126.876 46.0401 126.886 45.4398V32.5734C126.876 31.9731 126.923 31.3732 127.028 30.7819C127.095 30.3711 127.278 29.9874 127.556 29.6744C127.857 29.3831 128.24 29.1884 128.655 29.1159C129.277 29.0037 129.909 28.9538 130.542 28.967H138.512C138.81 28.9556 139.106 29.0197 139.371 29.1532C139.587 29.2632 139.773 29.4228 139.913 29.6185C140.051 29.8063 140.147 30.0202 140.196 30.2467C140.251 30.4675 140.28 30.694 140.281 30.9214C140.281 31.1566 140.252 31.3909 140.196 31.6194C140.146 31.8472 140.046 32.0615 139.904 32.2476C139.754 32.4404 139.565 32.5991 139.347 32.7129C139.089 32.8428 138.802 32.9068 138.512 32.8991H132.24C132.07 32.8824 131.9 32.9326 131.768 33.0387C131.655 33.1934 131.604 33.3843 131.626 33.5738V36.9707H137.947C138.246 36.9603 138.544 37.0159 138.819 37.1336C139.042 37.2308 139.239 37.3773 139.394 37.5617C139.545 37.7441 139.658 37.9545 139.725 38.1806C139.797 38.4144 139.833 38.6575 139.833 38.9019C139.832 39.1385 139.795 39.3737 139.725 39.5999C139.659 39.825 139.546 40.0341 139.394 40.2141C139.235 40.4023 139.033 40.5507 138.805 40.6469C138.534 40.7605 138.241 40.8161 137.947 40.8097H131.626V44.5324C131.605 44.7219 131.655 44.9127 131.768 45.0675C131.9 45.1737 132.07 45.2239 132.24 45.2072H139.479C139.777 45.1957 140.072 45.2598 140.338 45.3933C140.554 45.5033 140.74 45.6629 140.88 45.8586C141.018 46.0464 141.114 46.2603 141.163 46.4868C141.218 46.7076 141.247 46.9341 141.248 47.1615C141.248 47.3921 141.22 47.6219 141.163 47.8456C141.112 48.0702 141.012 48.2812 140.871 48.4645C140.725 48.6605 140.534 48.8199 140.314 48.9298C140.054 49.0542 139.768 49.1149 139.479 49.1066L130.542 49.0694ZM145.257 50.0001C144.632 50.0001 144.032 49.755 143.59 49.3186C143.147 48.8823 142.899 48.2905 142.899 47.6734V30.4561C142.876 30.1348 142.927 29.8126 143.05 29.5142C143.173 29.2157 143.363 28.949 143.606 28.7344C144.067 28.3491 144.653 28.1424 145.257 28.1527C145.861 28.1424 146.447 28.3491 146.908 28.7344C147.151 28.949 147.342 29.2157 147.464 29.5142C147.587 29.8126 147.638 30.1348 147.615 30.4561V47.6734C147.615 48.2905 147.367 48.8823 146.925 49.3186C146.482 49.755 145.882 50.0001 145.257 50.0001Z" fill="white"/>
<path d="M157.496 44.2297C157.478 44.3719 157.489 44.5164 157.53 44.6541C157.57 44.7917 157.639 44.9197 157.732 45.0301C157.983 45.1902 158.283 45.2607 158.581 45.2302H165.561C165.876 45.2197 166.189 45.2752 166.481 45.393C166.717 45.491 166.929 45.6369 167.103 45.8211C167.264 45.995 167.385 46.2015 167.457 46.4261C167.528 46.649 167.565 46.8812 167.566 47.1148C167.567 47.5929 167.4 48.0566 167.094 48.427C166.903 48.6373 166.665 48.8007 166.399 48.9041C166.133 49.0075 165.846 49.0481 165.561 49.0226H156.836C156.2 49.0347 155.566 48.9643 154.949 48.8132C154.477 48.6969 154.042 48.4648 153.685 48.1385C153.347 47.7969 153.103 47.3756 152.978 46.9147C152.817 46.3073 152.742 45.6809 152.756 45.0533V40.8188C152.74 40.1912 152.815 39.5645 152.978 38.9575C153.104 38.5008 153.347 38.084 153.685 37.7476C154.04 37.421 154.476 37.1916 154.949 37.0822C155.567 36.941 156.201 36.8754 156.836 36.8868H159.595V33.5131C159.6 33.3502 159.559 33.189 159.477 33.0478C159.397 32.9082 159.227 32.8384 158.958 32.8384H154.996C154.682 32.8465 154.369 32.7911 154.077 32.6755C153.838 32.5699 153.628 32.4105 153.463 32.2102C153.308 32.0238 153.188 31.8109 153.11 31.582C153.032 31.3573 152.992 31.1215 152.992 30.884C152.992 30.6476 153.026 30.4124 153.096 30.186C153.166 29.9538 153.287 29.7395 153.449 29.5578C153.623 29.361 153.837 29.2025 154.077 29.0925C154.367 28.969 154.681 28.9102 154.996 28.9203H160.161C160.837 28.9056 161.513 28.9681 162.175 29.1064C162.641 29.2 163.076 29.4081 163.439 29.7113C163.762 30.0046 163.992 30.3847 164.099 30.8049C164.238 31.3524 164.301 31.9158 164.288 32.48V40.6234H158.557C158.26 40.594 157.961 40.6628 157.708 40.8188C157.615 40.93 157.546 41.0589 157.506 41.1973C157.465 41.3357 157.454 41.4809 157.472 41.6238L157.496 44.2297ZM168.886 40.5536H166.929C166.652 40.5837 166.372 40.5449 166.114 40.4409C165.856 40.3369 165.629 40.1709 165.453 39.958C165.175 39.5447 165.032 39.0577 165.042 38.562C165.042 38.3063 165.074 38.0515 165.137 37.8035C165.195 37.5731 165.299 37.3564 165.443 37.166C165.591 36.9642 165.789 36.8038 166.019 36.7006C166.307 36.5823 166.617 36.5267 166.929 36.5378H168.886V30.4093C168.864 30.093 168.917 29.776 169.039 29.483C169.162 29.19 169.352 28.9289 169.594 28.7202C170.051 28.3474 170.628 28.1463 171.221 28.1525C171.518 28.1531 171.813 28.2035 172.093 28.3014C172.369 28.4 172.625 28.5466 172.848 28.7341C173.073 28.9262 173.254 29.1644 173.376 29.4321C173.518 29.7385 173.588 30.0726 173.579 30.4093V47.6825C173.579 48.2995 173.331 48.8913 172.888 49.3277C172.446 49.764 171.846 50.0091 171.221 50.0091C170.595 50.0091 169.996 49.764 169.553 49.3277C169.111 48.8913 168.863 48.2995 168.863 47.6825L168.886 40.5536Z" fill="white"/>
<path d="M188.648 44.9045C188.946 44.893 189.241 44.9571 189.506 45.0906C189.722 45.2007 189.908 45.3602 190.049 45.5559C190.186 45.7437 190.283 45.9576 190.332 46.1841C190.387 46.4049 190.416 46.6314 190.417 46.8588C190.416 47.094 190.388 47.3283 190.332 47.5568C190.281 47.7846 190.182 47.9989 190.039 48.185C189.89 48.3778 189.7 48.5365 189.483 48.6504C189.225 48.7802 188.938 48.8442 188.648 48.8365H180.041C179.449 48.8478 178.857 48.7852 178.281 48.6504C177.864 48.551 177.485 48.3363 177.187 48.0315C176.902 47.7152 176.706 47.3298 176.621 46.9147C176.502 46.3611 176.446 45.796 176.456 45.2302V31.2935C176.427 30.9765 176.476 30.6573 176.6 30.3632C176.723 30.0691 176.916 29.8087 177.164 29.6043C177.647 29.2519 178.237 29.0685 178.838 29.0831C179.433 29.0611 180.017 29.2455 180.489 29.6043C180.723 29.8171 180.904 30.0801 181.018 30.373C181.133 30.6659 181.177 30.9808 181.149 31.2935V44.2763C181.125 44.4566 181.171 44.6391 181.276 44.7881C181.436 44.8828 181.623 44.9236 181.809 44.9045H188.648ZM192.445 39.9719H187.893C187.579 39.9806 187.268 39.9169 186.983 39.7858C186.75 39.6712 186.542 39.5132 186.37 39.3205C186.206 39.1309 186.085 38.9087 186.016 38.669C185.948 38.4393 185.913 38.2011 185.913 37.9617C185.913 37.7207 185.948 37.481 186.016 37.2497C186.088 37.0129 186.205 36.7918 186.361 36.5983C186.528 36.4011 186.738 36.2423 186.974 36.1329C187.261 36.0001 187.576 35.9363 187.893 35.9468H192.445V30.4093C192.423 30.093 192.475 29.776 192.598 29.483C192.721 29.19 192.91 28.9289 193.152 28.7202C193.61 28.3474 194.186 28.1463 194.779 28.1525C195.077 28.1531 195.372 28.2035 195.652 28.3014C195.928 28.4 196.183 28.5466 196.407 28.7341C196.632 28.9262 196.812 29.1644 196.935 29.4321C197.077 29.7385 197.146 30.0726 197.138 30.4093V47.6825C197.138 48.2995 196.889 48.8913 196.447 49.3277C196.005 49.764 195.405 50.0091 194.779 50.0091C194.154 50.0091 193.554 49.764 193.112 49.3277C192.67 48.8913 192.421 48.2995 192.421 47.6825L192.445 39.9719Z" fill="white"/>
</g>
<defs>
<clipPath id="clip0_3801_83253">
<rect width="299" height="50" fill="white"/>
</clipPath>
</defs>
</svg>
