<svg width="250" height="168" viewBox="0 0 250 168" fill="none" xmlns="http://www.w3.org/2000/svg">
<path d="M225 41C227.761 41 230 38.7614 230 36C230 33.2386 227.761 31 225 31C222.239 31 220 33.2386 220 36C220 38.7614 222.239 41 225 41Z" fill="#57BEB7"/>
<path d="M59 16C60.1046 16 61 15.1046 61 14C61 12.8954 60.1046 12 59 12C57.8954 12 57 12.8954 57 14C57 15.1046 57.8954 16 59 16Z" fill="#ECCD52"/>
<path d="M211 63C212.105 63 213 62.1046 213 61C213 59.8954 212.105 59 211 59C209.895 59 209 59.8954 209 61C209 62.1046 209.895 63 211 63Z" fill="#ECCD52"/>
<path d="M33.5 58C35.9853 58 38 55.9853 38 53.5C38 51.0147 35.9853 49 33.5 49C31.0147 49 29 51.0147 29 53.5C29 55.9853 31.0147 58 33.5 58Z" fill="#DC4C7C"/>
<g clip-path="url(#clip0_3801_83429)">
<g clip-path="url(#clip1_3801_83429)">
<path d="M166.762 35.8179C166.762 36.0778 164.68 37.1173 164.94 38.1568C165.201 39.1963 165.721 39.976 166.242 40.7556C166.762 41.5352 168.064 42.055 168.324 42.3149C168.584 42.5748 169.886 43.0945 170.146 42.8346C170.406 42.5748 172.228 42.055 172.228 42.055L171.708 40.7556L170.927 39.1963L170.146 37.1952L169.886 36.0778C169.886 36.0778 168.532 35.8179 168.428 35.8179C168.324 35.8179 166.762 35.8179 166.762 35.8179Z" fill="#969696"/>
<path d="M187.194 74.722L179.412 73.1367C181.416 85.8449 180.838 110.245 174.227 132.257C172.535 137.896 167.257 140.576 156.871 141.069L156.351 143.928C176.757 144.448 195.653 137.951 199.427 118.642C203.201 99.3326 187.194 74.722 187.194 74.722Z" fill="#727FBD"/>
<path d="M172.827 56.5299C172.827 56.5299 185.887 54.8072 190.481 60.7007C194.88 66.626 194.638 75.5011 191.775 78.2818C188.912 81.0626 184.097 84.5709 178.293 78.9056C172.488 73.2402 172.827 56.5299 172.827 56.5299Z" fill="#727FBD"/>
<path d="M191.463 78.5419C191.931 78.0221 191.489 77.8142 191.02 77.7103C190.63 77.6323 190.213 78.0221 189.953 78.334L189.927 78.36C187.402 81.2966 182.821 81.0108 180.375 78.0221C180.271 77.8922 180.167 77.7623 180.062 77.6323C180.297 79.3215 180.505 81.1407 180.713 83.0898C183.68 84.4412 186.648 84.1293 189.12 83.6615C189.771 83.5316 190.578 83.1418 191.515 82.5441C191.229 81.9723 190.942 81.4266 190.656 80.8808C190.344 80.2571 190.448 79.5035 190.968 79.0357C191.15 78.8798 191.307 78.7238 191.463 78.5419Z" fill="#46558F"/>
<path d="M184.227 108.662C184.227 107.908 184.826 107.311 185.58 107.311C186.986 107.311 189.302 107.233 191.541 106.739C193.233 106.375 194.456 106.011 195.315 105.726C196.096 105.466 196.903 105.933 197.085 106.713C197.762 109.832 198.907 117.056 196.721 122.332C193.857 129.219 182.665 128.049 182.145 125.71C181.624 123.501 184.227 118.875 184.227 108.662Z" fill="#46558F"/>
<path d="M185.581 108.09C186.986 108.09 189.303 108.012 191.541 107.519C193.233 107.155 194.456 106.791 195.315 106.505C196.096 106.245 196.903 106.713 197.085 107.493C197.449 109.182 197.944 112.066 197.996 115.211C198.048 111.781 197.475 108.558 197.085 106.713C196.903 105.907 196.096 105.465 195.315 105.725C194.482 106.011 193.233 106.375 191.541 106.739C189.303 107.233 186.986 107.311 185.581 107.311C184.826 107.311 184.227 107.908 184.227 108.662C184.227 118.459 181.832 123.111 182.093 125.45C182.301 122.903 184.253 118.252 184.227 109.442C184.227 108.714 184.826 108.09 185.581 108.09Z" fill="#394D88"/>
<path fill-rule="evenodd" clip-rule="evenodd" d="M182.536 64.9251C181.915 66.0364 181.558 68.1092 182.067 71.5345C182.551 74.8018 183.871 75.8654 184.943 76.1705C186.146 76.513 187.469 76.0423 188.1 75.5306C188.732 75.0174 189.146 74.2483 189.403 73.5376C189.528 73.1914 189.608 72.8813 189.656 72.6599C189.68 72.5498 189.695 72.463 189.705 72.4066C189.709 72.3784 189.713 72.3579 189.714 72.346L189.716 72.3349L189.716 72.3362C189.785 71.7885 190.284 71.4001 190.832 71.4687C191.38 71.5373 191.769 72.0372 191.7 72.5852L190.769 72.4686C191.7 72.5852 191.7 72.5849 191.7 72.5852L191.7 72.5879L191.699 72.5916L191.698 72.6017L191.694 72.6326C191.69 72.6579 191.685 72.6923 191.678 72.735C191.663 72.8202 191.642 72.939 191.61 73.0838C191.548 73.3724 191.445 73.7705 191.284 74.217C190.968 75.0916 190.393 76.2456 189.36 77.0838C188.325 77.9234 186.342 78.6482 184.396 78.0941C182.318 77.5026 180.645 75.5776 180.088 71.8281C179.555 68.2366 179.85 65.6317 180.79 63.9492C181.271 63.0896 181.926 62.4633 182.717 62.1078C183.505 61.7539 184.356 61.7006 185.178 61.8647C186.929 62.2145 188.298 63.7859 189.072 65.402C189.854 67.0338 190.218 69.0961 189.554 70.7538C189.223 71.5792 188.691 72.2222 188.001 72.5888C187.305 72.9585 186.52 73.0065 185.795 72.7568C184.347 72.2582 183.351 70.7011 183.203 68.6341C183.164 68.0832 183.579 67.6047 184.129 67.5653C184.68 67.5259 185.159 67.9405 185.198 68.4914C185.311 70.0627 186.007 70.7146 186.446 70.8657C186.664 70.9408 186.872 70.9239 187.062 70.8226C187.259 70.7181 187.507 70.484 187.697 70.01C188.074 69.0689 187.918 67.6228 187.268 66.266C186.611 64.8935 185.637 63.996 184.786 63.826C184.306 63.7303 183.888 63.7744 183.537 63.9322C183.189 64.0884 182.836 64.3878 182.536 64.9251Z" fill="#526094"/>
<path d="M192.377 62.9531C191.145 60.2703 187.408 57.8444 185.065 57.3264C178.657 55.9099 172.514 61.078 173.686 67.8868C173.686 67.9388 173.712 67.9908 173.712 68.0687C173.816 68.6665 173.295 69.1862 172.697 69.0563C168.87 68.2766 164.628 68.4586 163.274 68.5365C163.014 68.5625 162.754 68.6925 162.624 68.9004L115.643 137.976C115.279 138.496 115.617 139.068 116.216 139.302C129.802 144.707 171.342 151.708 177.332 130.742C183.969 107.509 180.349 82.3368 180.349 78.0741C178.241 75.7872 177.928 71.9669 178.058 68.9523C178.058 67.601 178.163 65.8858 178.657 64.3265C178.657 64.3005 178.657 64.3005 178.657 64.3005C178.735 64.0666 178.813 63.8327 178.891 63.6248C179.021 63.3129 179.178 63.0011 179.334 62.7152C179.438 62.5333 179.568 62.3254 179.698 62.1695C180.479 61.1299 181.572 60.4283 183.16 60.3503C190.422 60.0125 192.114 68.5885 192.244 70.4077C192.4 72.4867 192.426 75.9431 189.355 79.0097C188.105 80.2571 190.422 79.7633 189.641 80.3351C190.422 79.7633 191.125 79.1396 191.749 78.5419C194.638 75.7612 195.437 69.6187 192.377 62.9531Z" fill="#46558F"/>
<path d="M163.743 164.198C163.821 160.716 143.103 157.415 117.439 156.818C91.7751 156.22 70.9266 158.533 70.8225 162.015C70.7444 165.524 91.4888 168.824 117.153 169.422C142.79 170.02 163.665 167.681 163.743 164.198Z" fill="#070102"/>
<path d="M124.596 14.2735C124.596 14.2735 76.913 12.1945 70.2498 60.1164C63.5866 108.038 45.5751 125.294 85.6324 142.758C125.69 160.222 175.924 142.083 174.232 111.391C172.514 80.6729 189.146 21.2123 124.596 14.2735Z" fill="#DBB75A"/>
<path d="M83.394 141.381C83.394 141.381 79.672 150.269 79.8022 156.818C79.9323 163.367 94.456 164.822 102.212 161.002C109.969 157.182 102.837 151.308 102.837 151.308L102.889 145.487L83.394 141.381Z" fill="#DBB75A"/>
<path d="M82.5872 143.512C83.2379 143.72 99.4273 148.761 102.837 151.516V145.513L83.394 141.407C83.394 141.381 83.0557 142.212 82.5872 143.512Z" fill="#C5973E"/>
<path d="M148.907 142.914C148.907 142.914 152.551 151.49 152.447 157.831C152.317 164.172 138.053 165.55 130.427 161.885C122.827 158.221 129.828 152.53 129.828 152.53L129.776 146.916L148.907 142.914Z" fill="#DBB75A"/>
<path d="M149.714 144.967C149.063 145.175 133.186 150.009 129.828 152.686V146.89L148.933 142.94C148.907 142.914 149.245 143.72 149.714 144.967Z" fill="#C5973E"/>
<path d="M93.1026 78.4379C93.1026 78.4379 82.8996 72.2788 80.7132 83.6355C78.5529 95.0183 87.8189 101.177 100.911 102.035C111.843 102.737 121.317 103.101 125.794 96.0838C127.772 92.9652 128.709 89.5348 127.199 85.9744C126.184 83.5316 123.764 80.335 119.755 79.9192C110.984 79.0356 112.624 85.7146 93.1026 78.4379Z" fill="#080103"/>
<path d="M107.887 89.8986C100.312 90.2624 94.1176 94.2126 90.76 100.008C93.7012 101.125 97.1629 101.801 100.911 102.061C111.713 102.763 121.135 103.101 125.638 96.3176C120.875 92.0556 114.524 89.5608 107.887 89.8986Z" fill="#BF5A4F"/>
<path d="M146.877 25.7603C145.575 26.9298 148.881 31.0359 153.41 35.9996C157.939 40.9633 161.973 44.9135 163.274 43.744C164.576 42.5746 162.988 36.1036 158.459 31.1398C153.956 26.1501 148.178 24.5649 146.877 25.7603Z" fill="#EDC76F"/>
<path d="M139.511 65.9899C139.979 57.8557 133.863 50.8909 125.846 50.4491C117.829 49.9813 110.958 56.1924 110.489 64.3267C110.021 72.4609 116.137 79.4257 124.154 79.8675C132.145 80.3353 139.042 74.1242 139.511 65.9899Z" fill="white"/>
<path d="M127.081 63.8434C127.315 59.7633 124.244 56.2549 120.21 56.047C116.175 55.8131 112.714 58.9317 112.479 63.0118C112.245 67.0919 115.316 70.6003 119.351 70.8082C123.385 71.0421 126.847 67.9235 127.081 63.8434Z" fill="#070102"/>
<path d="M111.14 63.2089C111.583 55.3865 105.7 48.6816 97.9959 48.2398C90.2915 47.798 83.6544 53.7752 83.2119 61.5976C82.7694 69.42 88.6518 76.1249 96.3561 76.5667C104.06 77.0085 110.698 71.0313 111.14 63.2089Z" fill="white"/>
<path d="M100.052 60.5841C100.286 56.504 97.215 52.9956 93.1807 52.7877C89.1463 52.5538 85.6846 55.6724 85.4503 59.7525C85.216 63.8326 88.2874 67.341 92.3217 67.5489C96.3561 67.7828 99.8178 64.6383 100.052 60.5841Z" fill="#070102"/>
<path d="M174.206 111.365C173.503 98.5789 175.95 80.8291 174.44 63.9629C167.231 83.194 174.961 109.26 161.504 124.645C131.077 159.547 73.8937 136.599 73.8677 136.599C77.0691 138.678 80.9473 140.705 85.6064 142.759C125.664 160.171 175.898 142.083 174.206 111.365Z" fill="#C5973E"/>
<path d="M92.4519 60.1685C92.4779 59.8566 92.2176 59.5708 91.9053 59.5448C91.5929 59.5188 91.3066 59.7787 91.2806 60.0905C91.2546 60.4024 91.5149 60.6882 91.8272 60.7142C92.1395 60.7402 92.4258 60.5063 92.4519 60.1685Z" fill="white"/>
<path d="M118.917 62.8799C118.943 62.568 118.683 62.2822 118.371 62.2562C118.058 62.2302 117.772 62.4901 117.746 62.8019C117.72 63.1138 117.98 63.3997 118.293 63.4256C118.605 63.4516 118.891 63.2177 118.917 62.8799Z" fill="white"/>
<path d="M102.134 81.2186C99.7397 80.6989 96.7985 79.8153 93.1285 78.4379C93.1285 78.4379 90.9161 77.1125 88.3394 76.8267C88.3654 78.5419 88.7818 81.7384 91.749 82.2322C94.2217 82.648 95.1848 81.0887 95.5752 79.7893C95.4971 81.1407 95.7834 82.9338 97.6314 83.5056C99.8958 84.2073 101.484 82.2322 102.134 81.2186Z" fill="white"/>
<path d="M170.484 90.9121C169.886 88.3912 167.829 86.8579 165.773 87.3257C163.951 87.7415 159.006 86.9879 155.934 84.519C150.859 80.4389 138.261 69.2641 132.847 82.8818C128.449 93.9267 138.287 104.53 149.844 105.439C161.583 106.349 169.573 99.9559 170.38 93.4069C170.614 91.2499 170.744 92.1335 170.484 90.9121Z" fill="#C5973E"/>
<path d="M64.7318 74.54C64.7318 74.54 71.421 77.8405 71.9676 81.8946C72.8005 88.0538 70.1977 91.952 66.5538 94.2909C63.3263 96.37 61.3481 103.647 61.3481 103.647" fill="#C5973E"/>
<path d="M160.489 108.091C160.489 108.091 164.029 120.903 173.347 126.048C173.347 126.048 171.265 131.402 168.871 131.194C166.45 130.96 157.939 124.697 153.514 113.002C149.089 101.308 160.489 108.091 160.489 108.091Z" fill="#37426D"/>
<path d="M66.2937 69.6021C66.2937 69.3422 66.7362 63.7808 69.7815 63.313C69.7815 63.313 69.1568 66.4835 69.4171 67.0033C69.6774 67.523 68.8965 68.3027 68.8965 68.3027L66.2937 69.6541" fill="#46558F"/>
<path d="M64.1072 108.948C64.1072 108.948 61.3482 111.963 60.5674 117.42C60.5674 117.42 57.4961 115.367 60.9838 108.48C64.4716 101.593 64.1072 108.948 64.1072 108.948Z" fill="#46558F"/>
<path d="M66.9965 66.1975C69.0006 64.6382 71.9939 65.7297 72.5925 68.1986C73.5556 72.1747 74.5706 79.8932 72.5925 92.0036C69.7815 109.26 67.1006 111.806 61.6867 110.845C56.2729 109.883 62.4155 88.0534 62.5717 84.1812C62.7279 81.0626 62.1032 69.9917 66.9965 66.1975Z" fill="#727FBD"/>
<path d="M72.6185 68.1988C72.098 66.0418 69.7554 64.9503 67.8294 65.73C68.8705 66.1458 69.7034 67.0034 70.0157 68.1988C70.9788 72.175 71.9939 79.8934 70.0157 92.0039C67.7773 105.752 65.617 110.169 62.0771 110.897C67.2307 111.677 69.8596 108.844 72.6185 92.0039C74.5967 79.8934 73.5816 72.175 72.6185 68.1988Z" fill="#515E9D"/>
<path d="M175.091 74.2798C176.913 72.2007 177.095 69.6799 174.831 69.0822C170.51 67.9387 166.58 74.7995 166.58 74.7995L171.968 78.9576C171.968 78.9576 172.488 77.1385 175.091 74.2798Z" fill="#727FBD"/>
<path d="M174.466 75.0078C174.414 74.7739 174.336 74.54 174.232 74.3321C173.503 72.7468 171.655 71.9932 169.105 71.5254C167.595 73.0847 166.606 74.7999 166.606 74.7999L171.942 78.932L171.994 78.958C172.02 78.828 172.488 77.3467 174.466 75.0078Z" fill="#515E9D"/>
<path d="M160.489 108.091C160.489 108.091 149.063 101.308 153.488 113.002C154.919 116.771 156.767 119.967 158.693 122.592C158.823 122.592 158.928 122.592 159.058 122.566C162.207 122.384 163.509 119.941 164.211 116.563C161.608 112.119 160.489 108.091 160.489 108.091Z" fill="#37426D"/>
<path d="M165.279 72.9806C168.975 73.3704 171.916 73.7342 172.749 75.5794C174.597 79.6335 167.283 88.8333 164.68 97.4093C162.077 106.011 164.264 117.472 157.236 117.914C150.234 118.33 146.174 113.262 147.293 102.035C148.412 90.8083 154.529 79.4776 157.652 76.385C161.296 72.7207 165.279 72.9806 165.279 72.9806Z" fill="#515E9D"/>
<path d="M162.858 96.8896C165.461 88.3135 172.775 79.1138 170.927 75.0597C170.588 74.332 169.964 73.8642 169.079 73.5004C167.959 73.2665 166.684 73.1366 165.279 72.9806C165.279 72.9806 161.296 72.7207 157.652 76.3591C154.529 79.4776 148.412 90.7824 147.293 102.009C146.46 110.559 148.595 115.523 152.733 117.238C153.566 117.394 154.451 117.42 155.414 117.368C162.441 116.952 160.255 105.492 162.858 96.8896Z" fill="#727FBD"/>
<path d="M173.503 88.6515C172.957 86.5725 170.901 85.3251 168.87 85.7409C167.075 86.1047 162.155 85.533 159.136 83.5319C154.165 80.2054 141.775 71.1096 136.231 82.4144C131.728 91.5882 141.489 101.334 152.941 101.957C164.576 102.581 172.697 98.1372 173.556 92.7317C173.842 90.9385 173.764 89.6391 173.503 88.6515Z" fill="#DBB75A"/>
<path d="M152.941 101.957C151.041 101.853 149.167 101.49 147.423 100.944C147.371 101.308 147.345 101.672 147.293 102.035C147.163 103.257 147.111 104.4 147.111 105.466C147.163 105.44 153.67 102.295 161.504 104.27C161.608 103.309 161.739 102.347 161.869 101.386C159.24 101.905 156.247 102.139 152.941 101.957Z" fill="#394D88"/>
<path d="M64.7319 75.5796C64.7319 75.5796 70.9266 76.0214 71.0827 81.8947C71.2389 87.7939 67.8553 94.5508 64.9922 97.1496C62.1291 99.7484 60.1249 100.372 59.5523 103.179C58.9797 105.986 64.7319 75.5796 64.7319 75.5796Z" fill="#46558F"/>
<path d="M67.5951 76.359C67.5951 76.359 67.5951 76.359 67.4649 76.1511C65.4347 74.202 62.6237 72.9286 59.5524 72.9805C56.1687 73.0065 52.733 74.6438 50.7809 80.1013C47.6055 89.0671 54.7372 98.2669 59.5524 103.179C60.3592 98.8126 63.4045 94.2127 63.4045 94.2127C64.6279 92.4715 69.6513 90.6784 70.1198 84.6492C70.1458 84.5712 70.1458 84.4932 70.1718 84.4153C70.6143 81.5566 69.6773 78.464 67.5951 76.359Z" fill="#DBB75A"/>
<path d="M61.6867 97.2532C60.8798 97.0972 60.099 96.9153 59.3182 96.6814C52.733 94.8103 50.6248 88.8591 50.0261 84.0513C49.6617 91.6917 55.466 98.9944 59.5784 103.178C59.9428 101.073 60.8538 98.9164 61.6867 97.2532Z" fill="#C5973E"/>
<path d="M64.6017 76.9046C63.7948 76.9306 63.066 77.5283 62.9359 78.3339C62.8057 79.0876 63.2222 79.7633 63.8989 80.7508C64.8619 82.1542 66.6318 82.4141 67.0483 82.2321C67.9853 81.6344 68.0113 79.9192 67.0483 78.5159C66.3716 77.5023 65.5387 76.8786 64.6017 76.9046Z" fill="#EDC76F"/>
<path d="M143.597 80.2053C143.181 79.5037 142.322 79.1658 141.541 79.4257C140.812 79.6856 140.422 80.3613 139.875 81.4268C139.094 82.9341 139.693 84.6233 140.057 84.8832C141.02 85.4289 142.556 84.6493 143.337 83.116C143.909 82.0505 144.065 81.011 143.597 80.2053Z" fill="#EDC76F"/>
<path d="M124.597 14.2738C124.597 14.2738 83.8626 12.5066 72.4363 50.0853C99.1151 48.552 122.306 41.1194 127.954 38.6765C127.954 38.6765 163.717 45.3295 171.239 48.2401C171.343 48.2921 171.447 48.3181 171.551 48.3441C166.346 31.244 153.748 17.3924 124.597 14.2738Z" fill="#C5973E"/>
<path d="M81.8585 28.5932C81.8585 28.5932 55.466 29.4508 55.8304 36.9353C56.1948 44.4199 78.8913 43.0165 91.7752 41.6132C104.659 40.2098 131.286 36.5715 129.047 33.219C126.809 29.8666 91.567 27.8915 81.8585 28.5932Z" fill="#F8F9FC"/>
<path d="M92.608 39.3779C79.7241 40.7812 57.0276 42.1846 56.6632 34.7C56.6632 34.674 56.6632 34.6481 56.6632 34.6221C56.0906 35.2978 55.7783 36.0774 55.8303 36.935C56.1947 44.4195 78.8912 43.0162 91.7751 41.6128C102.186 40.4954 121.551 37.8966 127.434 35.1678C125.898 34.9859 124.284 34.83 122.618 34.7C114.263 36.7271 100.729 38.4943 92.608 39.3779Z" fill="#CECECE"/>
<path d="M81.364 28.8011C81.364 28.8011 81.364 28.7231 81.39 28.6191C80.0886 28.6711 76.1844 28.879 71.8377 29.4767C70.8486 30.0485 70.6925 30.7502 72.15 31.5298C76.9652 34.1806 100.052 37.4291 122.02 34.6484C120.562 34.5184 119.053 34.4145 117.491 34.3365C78.3187 32.1015 81.364 28.8011 81.364 28.8011Z" fill="#E6E7EC"/>
<path d="M169.391 41.873C164.94 41.5352 165.201 36.5975 169.105 37.1172C170.614 37.3251 172.306 37.2472 172.879 36.6235C172.098 23.9673 162.702 3.46277 127.928 0.760016C85.0339 -2.61842 81.364 28.8011 81.364 28.8011C81.364 28.8011 78.3187 32.1015 117.491 34.3365C156.663 36.5715 170.042 51.0208 172.228 43.8741C172.436 43.1724 172.619 42.3668 172.723 41.4572C171.89 41.7431 170.744 41.977 169.391 41.873Z" fill="#F8F9FC"/>
<path d="M166.762 37.6366C166.762 37.6366 166.502 38.4163 166.762 39.4558C166.892 40.0275 167.803 41.2749 170.146 41.5348C172.488 41.7947 171.499 40.7552 171.499 40.7552C171.499 40.7552 170.406 39.9755 170.016 37.1948L170.458 37.2208C170.458 37.2208 170.666 38.4163 171.187 39.4558C171.707 40.4953 172.749 41.0151 172.749 41.2749C172.749 41.5348 172.618 42.0026 169.807 41.8987C167.022 41.7947 166.241 40.3654 166.137 39.5078C165.981 38.1564 166.762 37.6366 166.762 37.6366Z" fill="#DDDDDD"/>
<path d="M172.228 43.8739C172.436 43.1722 172.618 42.3666 172.723 41.457C171.864 41.7169 170.744 41.9768 169.391 41.8728C164.94 41.535 165.2 36.5972 169.105 37.117C170.614 37.3249 172.306 37.2469 172.879 36.6232C172.176 25.3704 164.654 7.8805 138.496 2.26709C147.111 6.37319 154.373 12.3504 155.154 20.7965C155.83 28.2551 154.737 35.038 153.019 40.7293C165.565 44.6795 170.927 48.1619 172.228 43.8739Z" fill="#E5E5E5"/>
</g>
</g>
<defs>
<clipPath id="clip0_3801_83429">
<rect width="155" height="168" fill="white" transform="translate(47)"/>
</clipPath>
<clipPath id="clip1_3801_83429">
<rect width="150" height="169" fill="white" transform="translate(50 0.5)"/>
</clipPath>
</defs>
</svg>
