<svg width="293" height="50" viewBox="0 0 293 50" fill="none" xmlns="http://www.w3.org/2000/svg">
<g clip-path="url(#clip0_3887_85147)">
<path d="M76.371 13.9123C75.5733 13.9173 74.7785 13.8156 74.0081 13.6098C73.3004 13.4243 72.6338 13.1087 72.0429 12.6793C71.4834 12.2702 71.0243 11.7405 70.7 11.1298C70.3478 10.447 70.174 9.68692 70.1947 8.91972V7.2214C70.1938 6.92949 70.238 6.6392 70.3257 6.36063C70.4148 6.09141 70.5357 5.83368 70.686 5.59289C70.443 5.61013 70.1993 5.57313 69.9726 5.48457C69.7459 5.39601 69.542 5.25815 69.3759 5.08108C69.0828 4.77218 68.9159 4.36574 68.908 3.94111C68.913 3.50789 69.0665 3.08934 69.3431 2.75463C69.4984 2.56515 69.6972 2.41553 69.9227 2.31837C70.1483 2.2212 70.394 2.17933 70.6392 2.19628H74.0315V2.14976C74.0126 1.85131 74.0607 1.55241 74.1724 1.27476C74.2841 0.997105 74.4565 0.747651 74.6772 0.544507C75.1528 0.156236 75.7563 -0.042728 76.371 -0.0138458C76.9922 -0.0418953 77.6014 0.162285 78.0788 0.55848C78.3004 0.758414 78.4742 1.00506 78.5875 1.28038C78.7008 1.55571 78.7509 1.85274 78.7339 2.14976V2.19628H82.1028C82.3491 2.17533 82.5968 2.21537 82.8238 2.3128C83.0508 2.41023 83.2499 2.56201 83.4035 2.75463C83.6644 3.09608 83.8073 3.5123 83.8106 3.94111C83.8135 4.35521 83.673 4.7577 83.4129 5.08108C83.255 5.26226 83.0559 5.40326 82.832 5.4923C82.6082 5.58133 82.3662 5.61582 82.1262 5.59289H82.0326C82.3665 6.07114 82.5461 6.63918 82.5473 7.2214V8.91972C82.5694 9.68652 82.3973 10.4465 82.0466 11.1298C81.7206 11.7407 81.26 12.2704 80.6991 12.6793C80.1082 13.1087 79.4416 13.4243 78.7339 13.6098C77.9635 13.816 77.1687 13.9177 76.371 13.9123ZM74.3824 21.9618C73.8351 21.9754 73.2886 21.9128 72.7588 21.7757C72.3717 21.6781 72.0189 21.477 71.7388 21.1941C71.4733 20.8978 71.2924 20.5364 71.2147 20.1472C71.1028 19.6274 71.051 19.0966 71.0603 18.5652V16.8436C71.0331 16.5173 71.0837 16.1891 71.2081 15.8859C71.3325 15.5827 71.5272 15.313 71.7762 15.0988C72.2592 14.7241 72.8576 14.5269 73.47 14.5404C74.0731 14.5222 74.6627 14.7204 75.131 15.0988C75.3701 15.3191 75.5555 15.5908 75.6731 15.8932C75.7907 16.1955 75.8373 16.5206 75.8095 16.8436V17.7742C75.8095 18.0394 75.8516 18.2022 75.9265 18.2627C76.0851 18.3433 76.2642 18.3757 76.4412 18.3558H88.7002C88.9788 18.3284 89.2601 18.3635 89.5233 18.4585C89.7865 18.5535 90.0248 18.706 90.2209 18.9048C90.522 19.2495 90.6881 19.6906 90.6888 20.1472C90.6919 20.6128 90.5258 21.0639 90.2209 21.4174C90.0254 21.6141 89.7884 21.765 89.527 21.8592C89.2656 21.9533 88.9863 21.9884 88.7096 21.9618H74.3824ZM76.371 10.5855C76.8527 10.5841 77.3196 10.4201 77.6952 10.1202C77.8939 9.96485 78.0518 9.76387 78.1553 9.53453C78.2588 9.30518 78.3048 9.05431 78.2894 8.80339V7.19814C78.3044 6.94795 78.2583 6.69787 78.1548 6.46934C78.0513 6.2408 77.8936 6.04062 77.6952 5.88602C77.3194 5.58645 76.8526 5.42242 76.371 5.42073C75.8909 5.42311 75.4258 5.58712 75.0515 5.88602C74.8526 6.0404 74.6942 6.24038 74.5899 6.46888C74.4856 6.69738 74.4385 6.9476 74.4526 7.19814V8.80339C74.4381 9.05465 74.485 9.30567 74.5893 9.53498C74.6936 9.76429 74.8522 9.96507 75.0515 10.1202C75.4256 10.4194 75.8909 10.5835 76.371 10.5855ZM85.2611 2.41964C85.2393 2.10066 85.2888 1.78083 85.4061 1.48315C85.5234 1.18547 85.7056 0.917343 85.9396 0.698061C86.3874 0.313289 86.9621 0.106212 87.5539 0.116449C88.1446 0.110162 88.7166 0.322413 89.1588 0.712005C89.3941 0.927686 89.578 1.19296 89.697 1.48841C89.816 1.78385 89.8671 2.10203 89.8466 2.41964V5.93257H90.5718C90.8789 5.92274 91.1838 5.98656 91.4608 6.11867C91.6812 6.22917 91.8733 6.38833 92.0223 6.58395C92.1644 6.77987 92.2677 7.00097 92.3264 7.23537C92.3891 7.46594 92.4205 7.70379 92.42 7.94262C92.4206 8.18299 92.3891 8.42235 92.3264 8.6545C92.2677 8.8889 92.1644 9.11 92.0223 9.30591C91.8735 9.50541 91.6774 9.66524 91.4515 9.7712C91.1778 9.90342 90.8759 9.96728 90.5718 9.9573H89.8466V14.2612C89.8466 14.8659 89.605 15.4458 89.175 15.8734C88.7451 16.301 88.1619 16.5412 87.5539 16.5412C86.9458 16.5412 86.3626 16.301 85.9326 15.8734C85.5027 15.4458 85.2611 14.8659 85.2611 14.2612V2.41964Z" fill="white"/>
<path d="M98.1283 7.70075C98.9494 7.78892 99.7777 7.78892 100.599 7.70075C101.259 7.64489 101.906 7.48794 102.517 7.23546C103.009 7.02987 103.44 6.7013 103.767 6.28162C104.074 5.88071 104.238 5.38974 104.234 4.88576V4.76943C104.243 4.70267 104.237 4.63479 104.217 4.57053C104.197 4.50626 104.163 4.44714 104.117 4.39721C103.99 4.3227 103.843 4.29011 103.696 4.30414H98.3623C98.0635 4.31315 97.766 4.26251 97.4873 4.15525C97.2601 4.06373 97.0557 3.92399 96.8884 3.74579C96.7347 3.57873 96.6197 3.3802 96.5515 3.16418C96.4801 2.94632 96.4438 2.71862 96.4439 2.4895C96.4501 2.04094 96.6159 1.60906 96.9118 1.27045C97.0997 1.07399 97.3299 0.922501 97.5852 0.827395C97.8405 0.73229 98.1142 0.696051 98.3857 0.72141H105.451C106.733 0.72141 107.619 0.981969 108.109 1.50309C108.648 2.16727 108.91 3.01133 108.843 3.86211V4.3274H112.119V2.39644C112.097 2.08085 112.149 1.76455 112.271 1.47231C112.392 1.18007 112.581 0.919844 112.82 0.712095C113.273 0.336262 113.845 0.13333 114.435 0.139798C114.73 0.139398 115.023 0.191402 115.3 0.293352C115.574 0.38929 115.828 0.534375 116.049 0.72141C116.273 0.914488 116.453 1.15231 116.578 1.41934C116.715 1.72675 116.782 2.06034 116.774 2.39644V9.04079C116.774 9.6578 116.528 10.2495 116.089 10.6858C115.65 11.1221 115.055 11.3672 114.435 11.3672C113.814 11.3672 113.219 11.1221 112.78 10.6858C112.342 10.2495 112.095 9.6578 112.095 9.04079V7.91014H107.982C107.583 8.64747 107.02 9.28414 106.335 9.77129C105.611 10.2834 104.808 10.6761 103.958 10.9345C103.013 11.2249 102.036 11.4015 101.048 11.4603C99.9553 11.527 98.8587 11.4911 97.7727 11.3533C97.2703 11.3049 96.802 11.0787 96.4532 10.7158C96.2739 10.5173 96.1417 10.2813 96.0664 10.0252C95.9911 9.76915 95.9746 9.49949 96.0181 9.2362C96.0329 8.99884 96.1016 8.76791 96.2192 8.56079C96.3367 8.35366 96.4999 8.17574 96.6965 8.0404C97.1172 7.75958 97.6255 7.63899 98.1283 7.70075ZM100.187 21.9619C99.7068 21.9699 99.2296 21.8829 98.7834 21.7059C98.3883 21.5522 98.0321 21.314 97.74 21.008C97.4625 20.716 97.2448 20.373 97.0989 19.9983C96.9486 19.6159 96.8724 19.2085 96.8743 18.7979V18.5187C96.8583 18.1429 96.9268 17.7682 97.075 17.4221C97.2231 17.0759 97.4471 16.7671 97.7306 16.518C98.434 15.9795 99.3107 15.7148 100.196 15.7735H111.964V15.1686C111.973 15.0674 111.948 14.9661 111.894 14.8802C111.852 14.8461 111.803 14.821 111.751 14.8066C111.698 14.7922 111.644 14.7887 111.59 14.7964H98.409C98.2233 14.8121 98.0365 14.7821 97.8652 14.709C97.6938 14.636 97.5432 14.5222 97.4265 14.3776C97.2249 14.1003 97.1182 13.766 97.1223 13.4238C97.1213 13.0893 97.2279 12.7632 97.4265 12.4932C97.5408 12.3452 97.6907 12.228 97.8623 12.1524C98.034 12.0768 98.2219 12.0452 98.409 12.0605H113.85C114.898 12.0605 115.633 12.242 116.063 12.5956C116.493 12.9492 116.704 13.5913 116.704 14.5033V16.4249C116.705 16.6606 116.658 16.894 116.568 17.1119C116.478 17.3297 116.345 17.5278 116.178 17.6946C116.011 17.8615 115.812 17.9938 115.593 18.0841C115.374 18.1745 115.14 18.2209 114.903 18.2209H102.316C102.247 18.2165 102.177 18.2257 102.111 18.2481C102.045 18.2704 101.985 18.3055 101.932 18.3512C101.891 18.3918 101.857 18.4403 101.835 18.4939C101.812 18.5474 101.801 18.6049 101.801 18.663V18.7328C101.801 18.7916 101.812 18.8499 101.834 18.9042C101.857 18.9586 101.89 19.0079 101.932 19.0492C102.038 19.1399 102.176 19.185 102.316 19.1748H115.511C115.704 19.1584 115.899 19.1903 116.077 19.2675C116.255 19.3446 116.411 19.4647 116.531 19.6168C116.736 19.9015 116.846 20.2435 116.844 20.5939C116.846 20.9285 116.739 21.2548 116.54 21.5245C116.418 21.6755 116.26 21.7937 116.08 21.8684C115.9 21.9432 115.705 21.9721 115.511 21.9526L100.187 21.9619Z" fill="white"/>
<path d="M138.906 9.44514C139.194 9.43775 139.481 9.49004 139.748 9.59869C139.967 9.69048 140.164 9.82861 140.324 10.0035C140.467 10.1703 140.574 10.3653 140.637 10.5758C140.701 10.7823 140.732 10.9973 140.731 11.2132C140.735 11.6527 140.586 12.0802 140.31 12.423C140.134 12.6151 139.916 12.7635 139.672 12.8564C139.428 12.9494 139.166 12.9842 138.906 12.9581H120.658C120.398 12.9842 120.136 12.9494 119.892 12.8564C119.648 12.7635 119.43 12.6151 119.254 12.423C118.978 12.0802 118.829 11.6527 118.833 11.2132C118.834 10.9974 118.866 10.7828 118.927 10.5758C118.991 10.365 119.1 10.1701 119.245 10.0035C119.403 9.82871 119.598 9.69054 119.816 9.59869C120.083 9.49004 120.37 9.43775 120.658 9.44514H138.906ZM135.589 0.348737C136.242 0.335568 136.893 0.442838 137.507 0.665131C138.016 0.856298 138.479 1.15288 138.864 1.53522C139.223 1.89011 139.499 2.31895 139.673 2.79151C139.854 3.29133 139.945 3.81905 139.94 4.35021C139.945 4.88141 139.855 5.40923 139.673 5.90895C139.501 6.38262 139.225 6.81188 138.864 7.16521C138.478 7.5422 138.015 7.83255 137.507 8.0167C136.892 8.2373 136.242 8.34299 135.589 8.32843H123.938C123.285 8.34213 122.634 8.23648 122.02 8.0167C121.512 7.83026 121.05 7.54019 120.663 7.16521C120.305 6.81043 120.03 6.38149 119.858 5.90895C119.675 5.40952 119.583 4.88169 119.586 4.35021C119.583 3.81877 119.675 3.29104 119.858 2.79151C120.032 2.32009 120.307 1.89159 120.663 1.53522C121.052 1.1632 121.513 0.874915 122.02 0.688389C122.634 0.466924 123.284 0.35968 123.938 0.371996L135.589 0.348737ZM123.096 21.9614C122.521 21.9758 121.948 21.9179 121.388 21.7893C121.001 21.7002 120.648 21.5013 120.372 21.217C120.118 20.9114 119.956 20.5403 119.905 20.1468C119.81 19.5858 119.766 19.0174 119.774 18.4485V17.6575C119.767 17.0964 119.81 16.5357 119.905 15.9825C119.959 15.587 120.121 15.2137 120.372 14.903C120.646 14.6155 120.999 14.4162 121.388 14.3307C121.949 14.2104 122.522 14.1557 123.096 14.1678H136.407C136.981 14.1555 137.554 14.2101 138.115 14.3307C138.506 14.415 138.861 14.6145 139.135 14.903C139.387 15.2137 139.549 15.587 139.603 15.9825C139.696 16.5359 139.738 17.0965 139.73 17.6575V20.519C139.73 20.7084 139.692 20.896 139.619 21.071C139.546 21.246 139.439 21.405 139.305 21.5389C139.17 21.6729 139.01 21.7791 138.834 21.8516C138.658 21.9241 138.47 21.9614 138.279 21.9614H123.096ZM134.185 5.14121C134.327 5.15901 134.472 5.14665 134.609 5.10495C134.746 5.06324 134.872 4.99314 134.98 4.89925C135.119 4.74085 135.194 4.53702 135.191 4.32696C135.193 4.11841 135.118 3.91629 134.98 3.75932C134.873 3.66461 134.746 3.59363 134.609 3.55112C134.472 3.50861 134.328 3.49552 134.185 3.5127H125.342C125.199 3.49582 125.054 3.50905 124.917 3.55155C124.78 3.59404 124.654 3.66486 124.546 3.75932C124.417 3.91964 124.35 4.12141 124.359 4.32696C124.356 4.53702 124.431 4.74085 124.57 4.89925C124.678 4.99264 124.804 5.06242 124.941 5.10409C125.079 5.14577 125.223 5.15842 125.365 5.14121H134.185ZM124.429 18.2158C124.417 18.3901 124.454 18.5642 124.537 18.7184C124.607 18.8207 124.757 18.8673 125.005 18.8673H134.606C134.672 18.8673 134.738 18.8542 134.799 18.829C134.861 18.8037 134.916 18.7667 134.963 18.7201C135.01 18.6734 135.048 18.618 135.073 18.557C135.098 18.4961 135.111 18.4307 135.111 18.3647V17.8994C135.123 17.736 135.082 17.5731 134.994 17.4342C134.933 17.3749 134.859 17.3302 134.778 17.3036C134.697 17.277 134.611 17.2692 134.527 17.2806H125.009C124.775 17.2806 124.626 17.3318 124.542 17.4342C124.462 17.5759 124.424 17.7373 124.434 17.8994L124.429 18.2158Z" fill="white"/>
<path d="M153.107 13.9123C152.317 13.9153 151.53 13.8136 150.767 13.6098C150.059 13.4243 149.393 13.1087 148.802 12.6793C148.242 12.2702 147.783 11.7405 147.459 11.1298C147.107 10.447 146.933 9.68692 146.954 8.91972V7.2214C146.953 6.92949 146.997 6.6392 147.085 6.36063C147.174 6.09141 147.295 5.83368 147.445 5.59289C147.202 5.61013 146.958 5.57313 146.732 5.48457C146.505 5.39601 146.301 5.25815 146.135 5.08108C145.842 4.77218 145.675 4.36574 145.667 3.94111C145.672 3.50789 145.825 3.08934 146.102 2.75463C146.257 2.56515 146.456 2.41553 146.682 2.31837C146.907 2.2212 147.153 2.17933 147.398 2.19628H150.791V2.14976C150.772 1.85131 150.82 1.55241 150.931 1.27476C151.043 0.997105 151.216 0.747651 151.436 0.544507C151.912 0.156236 152.515 -0.042728 153.13 -0.0138458C153.751 -0.0418953 154.36 0.162285 154.838 0.55848C155.059 0.758414 155.233 1.00506 155.347 1.28038C155.46 1.55571 155.51 1.85274 155.493 2.14976V2.19628H158.862C159.108 2.17533 159.356 2.21537 159.583 2.3128C159.81 2.41023 160.009 2.56201 160.163 2.75463C160.423 3.09608 160.566 3.5123 160.57 3.94111C160.572 4.35521 160.432 4.7577 160.172 5.08108C160.014 5.26226 159.815 5.40326 159.591 5.4923C159.367 5.58133 159.125 5.61582 158.885 5.59289H158.792C159.126 6.07114 159.305 6.63918 159.306 7.2214V8.91972C159.328 9.68652 159.156 10.4465 158.806 11.1298C158.48 11.7407 158.019 12.2704 157.458 12.6793C156.867 13.1087 156.201 13.4243 155.493 13.6098C154.715 13.818 153.912 13.9198 153.107 13.9123ZM151.118 21.9618C150.571 21.9754 150.024 21.9128 149.494 21.7757C149.107 21.6781 148.755 21.477 148.474 21.1941C148.209 20.8978 148.028 20.5364 147.95 20.1472C147.839 19.6274 147.787 19.0966 147.796 18.5652V16.8436C147.769 16.5173 147.819 16.1891 147.944 15.8859C148.068 15.5827 148.263 15.313 148.512 15.0988C148.995 14.7241 149.593 14.5269 150.206 14.5404C150.809 14.5222 151.398 14.7204 151.867 15.0988C152.106 15.3191 152.291 15.5908 152.409 15.8932C152.526 16.1955 152.573 16.5206 152.545 16.8436V17.7742C152.545 18.0394 152.587 18.2022 152.662 18.2627C152.821 18.3433 153 18.3757 153.177 18.3558H165.436C165.714 18.3284 165.996 18.3635 166.259 18.4585C166.522 18.5535 166.761 18.706 166.957 18.9048C167.258 19.2495 167.424 19.6906 167.424 20.1472C167.428 20.6128 167.261 21.0639 166.957 21.4174C166.761 21.6141 166.524 21.765 166.263 21.8592C166.001 21.9533 165.722 21.9884 165.445 21.9618H151.118ZM153.107 10.5855C153.588 10.5841 154.055 10.4201 154.431 10.1202C154.63 9.96485 154.787 9.76387 154.891 9.53453C154.994 9.30518 155.04 9.05431 155.025 8.80339V7.19814C155.04 6.94795 154.994 6.69787 154.89 6.46934C154.787 6.2408 154.629 6.04062 154.431 5.88602C154.055 5.58645 153.588 5.42242 153.107 5.42073C152.627 5.42311 152.161 5.58712 151.787 5.88602C151.588 6.0404 151.43 6.24038 151.326 6.46888C151.221 6.69738 151.174 6.9476 151.188 7.19814V8.80339C151.174 9.05465 151.221 9.30567 151.325 9.53498C151.429 9.76429 151.588 9.96507 151.787 10.1202C152.161 10.4194 152.626 10.5835 153.107 10.5855ZM161.997 2.41964C161.975 2.10066 162.024 1.78083 162.142 1.48315C162.259 1.18547 162.441 0.917343 162.675 0.698061C163.123 0.313289 163.698 0.106212 164.289 0.116449C164.88 0.110162 165.452 0.322413 165.894 0.712005C166.13 0.927686 166.314 1.19296 166.433 1.48841C166.552 1.78385 166.603 2.10203 166.582 2.41964V5.93257H167.307C167.615 5.92274 167.919 5.98656 168.196 6.11867C168.417 6.22917 168.609 6.38833 168.758 6.58395C168.9 6.77987 169.003 7.00097 169.062 7.23537C169.125 7.46594 169.156 7.70379 169.156 7.94262C169.156 8.18299 169.125 8.42235 169.062 8.6545C169.003 8.8889 168.9 9.11 168.758 9.30591C168.609 9.50541 168.413 9.66524 168.187 9.7712C167.913 9.90342 167.612 9.96728 167.307 9.9573H166.582V14.2612C166.582 14.5606 166.523 14.8571 166.408 15.1337C166.292 15.4103 166.124 15.6617 165.911 15.8734C165.698 16.0851 165.445 16.253 165.167 16.3676C164.889 16.4822 164.591 16.5412 164.289 16.5412C163.988 16.5412 163.69 16.4822 163.412 16.3676C163.134 16.253 162.881 16.0851 162.668 15.8734C162.455 15.6617 162.287 15.4103 162.171 15.1337C162.056 14.8571 161.997 14.5606 161.997 14.2612V2.41964Z" fill="white"/>
<path d="M174.864 7.70075C175.685 7.78893 176.514 7.78893 177.335 7.70075C177.994 7.64489 178.641 7.48794 179.253 7.23546C179.745 7.02987 180.176 6.70131 180.502 6.28162C180.809 5.88071 180.974 5.38974 180.97 4.88576V4.76943C180.979 4.70267 180.973 4.63479 180.953 4.57053C180.933 4.50626 180.899 4.44714 180.853 4.39721C180.726 4.3227 180.579 4.29011 180.432 4.30414H175.098C174.799 4.31315 174.502 4.26252 174.223 4.15525C173.996 4.06373 173.792 3.92399 173.624 3.74579C173.471 3.57873 173.355 3.3802 173.287 3.16418C173.216 2.94632 173.18 2.71862 173.18 2.4895C173.186 2.04094 173.352 1.60906 173.648 1.27045C173.835 1.07399 174.066 0.922501 174.321 0.827395C174.576 0.73229 174.85 0.696051 175.121 0.72141H182.187C183.469 0.72141 184.355 0.981969 184.844 1.50309C185.383 2.16727 185.646 3.01133 185.579 3.86211V4.3274H188.854V2.39644C188.833 2.08085 188.885 1.76455 189.006 1.47231C189.128 1.18007 189.316 0.919844 189.556 0.712095C190.009 0.336262 190.581 0.13333 191.171 0.139798C191.466 0.139398 191.759 0.191402 192.036 0.293352C192.31 0.38929 192.564 0.534375 192.785 0.72141C193.008 0.914488 193.189 1.15231 193.313 1.41934C193.45 1.72675 193.517 2.06034 193.51 2.39644V9.04079C193.51 9.6578 193.264 10.2495 192.825 10.6858C192.386 11.1221 191.791 11.3672 191.171 11.3672C190.55 11.3672 189.955 11.1221 189.516 10.6858C189.077 10.2495 188.831 9.6578 188.831 9.04079V7.91014H184.718C184.319 8.64747 183.756 9.28414 183.071 9.7713C182.347 10.2834 181.544 10.6761 180.694 10.9345C179.749 11.2249 178.772 11.4015 177.784 11.4603C176.691 11.527 175.595 11.4911 174.509 11.3533C174.006 11.3049 173.538 11.0787 173.189 10.7158C173.01 10.5173 172.878 10.2813 172.802 10.0252C172.727 9.76915 172.71 9.49949 172.754 9.2362C172.769 8.99884 172.837 8.76791 172.955 8.56079C173.072 8.35366 173.236 8.17574 173.432 8.0404C173.853 7.75958 174.361 7.63899 174.864 7.70075ZM176.923 21.9619C176.443 21.9699 175.965 21.8829 175.519 21.706C175.124 21.5522 174.768 21.314 174.476 21.008C174.198 20.716 173.981 20.3731 173.835 19.9984C173.684 19.6159 173.608 19.2085 173.61 18.7979V18.5187C173.594 18.1429 173.663 17.7682 173.811 17.4221C173.959 17.0759 174.183 16.7671 174.466 16.518C175.17 15.9795 176.047 15.7148 176.932 15.7735H188.7V15.1686C188.709 15.0674 188.684 14.9661 188.63 14.8802C188.588 14.8461 188.539 14.821 188.487 14.8066C188.434 14.7922 188.379 14.7887 188.326 14.7964H175.154C174.969 14.8121 174.782 14.7821 174.61 14.709C174.439 14.636 174.288 14.5222 174.172 14.3776C173.97 14.1003 173.863 13.766 173.868 13.4238C173.866 13.0893 173.973 12.7632 174.172 12.4932C174.286 12.3452 174.436 12.228 174.607 12.1524C174.779 12.0768 174.967 12.0452 175.154 12.0605H190.595C191.643 12.0605 192.378 12.242 192.808 12.5956C193.239 12.9492 193.449 13.5913 193.449 14.5033V18.2256H179.061C178.992 18.2211 178.922 18.2304 178.856 18.2527C178.79 18.2751 178.73 18.3101 178.678 18.3559C178.636 18.3965 178.603 18.445 178.58 18.4985C178.558 18.5521 178.546 18.6096 178.547 18.6676V18.7374C178.546 18.7962 178.557 18.8545 178.58 18.9089C178.602 18.9632 178.635 19.0126 178.678 19.0538C178.784 19.1445 178.922 19.1897 179.061 19.1794H192.724C192.917 19.1631 193.112 19.195 193.29 19.2721C193.468 19.3493 193.624 19.4694 193.744 19.6215C193.95 19.9061 194.059 20.2481 194.057 20.5986C194.059 20.9332 193.953 21.2595 193.753 21.5291C193.631 21.6801 193.473 21.7984 193.293 21.8731C193.113 21.9479 192.918 21.9768 192.724 21.9572L176.923 21.9619Z" fill="white"/>
<path d="M215.642 9.44514C215.93 9.43775 216.217 9.49004 216.484 9.59869C216.703 9.69048 216.899 9.82861 217.059 10.0035C217.203 10.1703 217.31 10.3653 217.373 10.5758C217.436 10.7823 217.468 10.9973 217.467 11.2132C217.471 11.6527 217.322 12.0802 217.045 12.423C216.87 12.6151 216.651 12.7635 216.408 12.8564C216.164 12.9494 215.901 12.9842 215.642 12.9581H197.394C197.134 12.9842 196.872 12.9494 196.628 12.8564C196.384 12.7635 196.165 12.6151 195.99 12.423C195.713 12.0802 195.564 11.6527 195.569 11.2132C195.57 10.9974 195.601 10.7828 195.662 10.5758C195.727 10.365 195.835 10.1701 195.98 10.0035C196.139 9.82871 196.334 9.69054 196.551 9.59869C196.818 9.49004 197.105 9.43775 197.394 9.44514H215.642ZM212.366 0.348737C213.02 0.335568 213.67 0.442838 214.285 0.665131C214.779 0.861475 215.227 1.15776 215.6 1.53522C215.959 1.89011 216.235 2.31895 216.409 2.79151C216.59 3.29133 216.68 3.81905 216.676 4.35021C216.681 4.88141 216.59 5.40923 216.409 5.90895C216.237 6.38262 215.96 6.81188 215.6 7.16521C215.214 7.5422 214.751 7.83255 214.243 8.0167C213.628 8.2373 212.978 8.34299 212.324 8.32843H200.674C200.02 8.34213 199.37 8.23648 198.755 8.0167C198.248 7.83026 197.786 7.54019 197.398 7.16521C197.04 6.81043 196.765 6.38149 196.593 5.90895C196.411 5.40952 196.319 4.88169 196.322 4.35021C196.319 3.81877 196.411 3.29104 196.593 2.79151C196.768 2.32009 197.042 1.89159 197.398 1.53522C197.787 1.1632 198.249 0.874915 198.755 0.688389C199.37 0.466924 200.02 0.35968 200.674 0.371996L212.366 0.348737ZM199.873 21.9614C199.299 21.9758 198.725 21.9179 198.166 21.7893C197.779 21.7002 197.426 21.5013 197.15 21.217C196.896 20.9114 196.733 20.5403 196.682 20.1468C196.587 19.5858 196.543 19.0174 196.551 18.4485V17.6575C196.544 17.0964 196.588 16.5357 196.682 15.9825C196.737 15.587 196.898 15.2137 197.15 14.903C197.423 14.6155 197.777 14.4162 198.166 14.3307C198.727 14.2104 199.3 14.1557 199.873 14.1678H213.185C213.759 14.1555 214.332 14.2101 214.893 14.3307C215.283 14.415 215.639 14.6145 215.913 14.903C216.173 15.2111 216.343 15.5846 216.404 15.9825C216.497 16.5359 216.539 17.0965 216.531 17.6575V20.291C216.531 20.5102 216.488 20.7273 216.405 20.9299C216.321 21.1326 216.197 21.3167 216.042 21.4719C215.886 21.6271 215.701 21.7502 215.498 21.8342C215.294 21.9182 215.076 21.9614 214.856 21.9614H199.873ZM210.963 5.14121C211.105 5.15901 211.249 5.14665 211.386 5.10495C211.524 5.06324 211.65 4.99314 211.758 4.89925C211.897 4.74085 211.972 4.53702 211.969 4.32696C211.971 4.11841 211.896 3.91629 211.758 3.75932C211.651 3.66461 211.524 3.59363 211.387 3.55112C211.25 3.50861 211.105 3.49552 210.963 3.5127H202.119C201.977 3.49582 201.832 3.50905 201.695 3.55155C201.558 3.59404 201.432 3.66486 201.324 3.75932C201.179 3.91352 201.097 4.11594 201.095 4.32696C201.091 4.53702 201.166 4.74085 201.305 4.89925C201.413 4.99264 201.54 5.06242 201.677 5.10409C201.814 5.14577 201.958 5.15842 202.101 5.14121H210.963ZM201.207 18.2158C201.195 18.3901 201.232 18.5642 201.315 18.7184C201.385 18.8207 201.534 18.8673 201.782 18.8673H211.328C211.477 18.8673 211.619 18.8084 211.725 18.7037C211.83 18.599 211.889 18.457 211.889 18.3089V17.8902C211.9 17.7267 211.859 17.5638 211.772 17.4249C211.711 17.3656 211.637 17.3209 211.556 17.2943C211.475 17.2677 211.389 17.2598 211.304 17.2713H201.782C201.548 17.2713 201.399 17.3225 201.315 17.4249C201.235 17.5666 201.197 17.728 201.207 17.8902V18.2158Z" fill="white"/>
<path d="M220.438 22.0549C220.698 21.9214 220.914 21.7163 221.06 21.464C221.213 21.1897 221.289 20.8795 221.28 20.566C220.693 20.5356 220.137 20.2961 219.713 19.8913C219.512 19.6809 219.357 19.4321 219.257 19.1601C219.156 18.8882 219.112 18.5987 219.128 18.3093C219.112 17.9966 219.165 17.6842 219.282 17.3935C219.399 17.1029 219.578 16.8407 219.806 16.625C220.305 16.1975 220.95 15.976 221.608 16.0061C221.939 15.9916 222.271 16.0452 222.581 16.1637C222.891 16.2822 223.173 16.463 223.409 16.6948C223.634 16.9226 223.81 17.1935 223.927 17.491C224.044 17.7885 224.098 18.1065 224.088 18.4256V18.635C224.141 19.7829 223.874 20.9232 223.316 21.9293C222.86 22.7098 222.15 23.3123 221.304 23.6369C221.106 23.7135 220.903 23.7726 220.695 23.8137C220.502 23.8485 220.304 23.8485 220.11 23.8137C219.9 23.7812 219.7 23.7017 219.526 23.5811C219.428 23.506 219.354 23.4048 219.313 23.2893C219.271 23.1739 219.264 23.0491 219.292 22.9296C219.302 22.7557 219.373 22.5909 219.493 22.4635C219.612 22.3361 219.773 22.2541 219.947 22.2317L220.181 22.1619C220.271 22.1389 220.358 22.1028 220.438 22.0549Z" fill="white"/>
<path d="M12.0952 44.8072C12.3902 44.798 12.6829 44.862 12.9468 44.9933C13.16 45.1048 13.3442 45.2641 13.4849 45.4586C13.6212 45.6464 13.7168 45.8603 13.7656 46.0868C13.8201 46.3076 13.8484 46.534 13.8498 46.7614C13.8495 46.9966 13.8213 47.2308 13.7656 47.4594C13.7097 47.6797 13.6077 47.8858 13.4662 48.0642C13.3192 48.2582 13.1306 48.4172 12.914 48.5295C12.6588 48.6617 12.3734 48.7258 12.0858 48.7157H3.556C2.96858 48.7292 2.3819 48.6667 1.81074 48.5295C1.397 48.4329 1.02008 48.2197 0.725201 47.9153C0.443748 47.5979 0.250237 47.213 0.163714 46.7987C0.0428667 46.244 -0.0121149 45.6771 -6.88368e-05 45.1097V31.1742C-0.0284731 30.8593 0.019124 30.5422 0.138754 30.2493C0.258384 29.9563 0.446606 29.696 0.687761 29.4899C1.16355 29.1356 1.74519 28.9504 2.33944 28.9641C2.93026 28.9442 3.50952 29.1302 3.97709 29.4899C4.20881 29.7019 4.38841 29.9641 4.502 30.2562C4.61558 30.5482 4.66012 30.8623 4.63217 31.1742V44.1558C4.60737 44.3362 4.65255 44.5192 4.75851 44.6676C4.91667 44.7642 5.10287 44.8052 5.28724 44.784L12.0952 44.8072ZM15.2067 30.3134C15.1849 29.9978 15.2369 29.6815 15.3587 29.3893C15.4805 29.0971 15.6687 28.8368 15.9086 28.6291C16.361 28.2533 16.9334 28.0503 17.5229 28.0568C17.8182 28.0568 18.1113 28.1088 18.3885 28.2103C18.6585 28.3054 18.9078 28.4506 19.1231 28.6384C19.3411 28.8334 19.5163 29.071 19.6378 29.3363C19.7785 29.6426 19.8473 29.9768 19.839 30.3134V36.1994H20.611C20.9181 36.1899 21.2229 36.2537 21.5 36.3855C21.7204 36.496 21.9125 36.6551 22.0615 36.8508C22.2017 37.0478 22.3048 37.2685 22.3657 37.5022C22.426 37.7332 22.4574 37.9707 22.4592 38.2094C22.4575 38.4496 22.4261 38.6887 22.3657 38.9213C22.3048 39.155 22.2017 39.3757 22.0615 39.5727C21.9108 39.7723 21.7132 39.932 21.486 40.038C21.2138 40.1695 20.9135 40.2333 20.611 40.2241H19.839V47.5989C19.8328 48.2119 19.5836 48.7977 19.1455 49.229C18.7075 49.6602 18.1159 49.9022 17.4995 49.9021C17.1951 49.9028 16.8937 49.8436 16.6124 49.7281C16.3311 49.6125 16.0755 49.4429 15.8603 49.2289C15.6452 49.0149 15.4746 48.7608 15.3584 48.4811C15.2422 48.2013 15.1827 47.9016 15.1833 47.5989L15.2067 30.3134Z" fill="white"/>
<path d="M42.8831 37.5487C43.1189 37.5258 43.3569 37.5556 43.5795 37.6362C43.8022 37.7167 44.0039 37.8458 44.1698 38.014C44.4139 38.3032 44.5465 38.6693 44.5441 39.0469C44.5539 39.4366 44.4152 39.8155 44.1558 40.1078C43.9865 40.2651 43.7854 40.3846 43.5659 40.4584C43.3464 40.5322 43.1136 40.5586 42.8831 40.5358H24.284C24.0548 40.56 23.823 40.5343 23.6048 40.4603C23.3867 40.3864 23.1873 40.2661 23.0207 40.1078C22.7671 39.813 22.6336 39.4346 22.6463 39.0469C22.6419 38.669 22.7748 38.3022 23.0207 38.014C23.1822 37.8465 23.3798 37.7177 23.5986 37.6371C23.8174 37.5565 24.0518 37.5263 24.284 37.5487H42.8831ZM26.2024 49.8789C25.804 49.9085 25.4039 49.8533 25.0287 49.7169C24.6535 49.5805 24.3118 49.366 24.0267 49.0879C23.537 48.5553 23.2738 47.855 23.292 47.1336V46.9941C23.2704 46.6514 23.3227 46.308 23.4453 45.987C23.568 45.666 23.7582 45.3748 24.0033 45.1329C24.6221 44.6432 25.4047 44.4054 26.193 44.4675H38.7562V44.0488C38.7626 43.999 38.7584 43.9484 38.7439 43.9003C38.7294 43.8522 38.7049 43.8077 38.672 43.7696C38.57 43.7112 38.452 43.6868 38.3351 43.6998H24.7659C24.5909 43.713 24.4151 43.6854 24.2526 43.6192C24.0901 43.553 23.9455 43.4499 23.8301 43.3183C23.6299 43.088 23.5187 42.7944 23.5166 42.4901C23.5193 42.1885 23.6175 41.8954 23.7974 41.6525C23.9098 41.5165 24.0536 41.4096 24.2165 41.3407C24.3795 41.2719 24.5567 41.2432 24.7332 41.257H41.0723C42.0362 41.257 42.7006 41.4292 43.0609 41.7688C43.252 41.9742 43.3984 42.2166 43.491 42.4808C43.5836 42.745 43.6204 43.0253 43.599 43.3043V45.0677C43.599 45.2673 43.5594 45.465 43.4824 45.6493C43.4055 45.8336 43.2927 46.0011 43.1506 46.142C43.0084 46.2829 42.8397 46.3945 42.6541 46.4705C42.4685 46.5464 42.2696 46.5852 42.0689 46.5846H28.7291C28.6678 46.577 28.6057 46.585 28.5484 46.6078C28.4912 46.6306 28.4406 46.6674 28.4015 46.7149C28.3405 46.7899 28.3075 46.8836 28.3079 46.9801C28.3079 47.2313 28.4483 47.3523 28.7291 47.3523H42.5789C42.7574 47.3326 42.9378 47.3602 43.1022 47.432C43.2665 47.5039 43.4088 47.6177 43.5147 47.7618C43.6916 48.0178 43.7863 48.3212 43.7861 48.6319C43.7767 48.9215 43.6878 49.2032 43.5288 49.4461C43.425 49.593 43.2833 49.7094 43.1186 49.7831C42.954 49.8568 42.7724 49.885 42.593 49.8649L26.2024 49.8789ZM26.3662 36.874C25.9678 36.9037 25.5676 36.8485 25.1924 36.7121C24.8172 36.5757 24.4756 36.3612 24.1904 36.083C23.7042 35.549 23.4443 34.8488 23.4652 34.1288V33.9892C23.4434 33.6521 23.4958 33.3143 23.6186 32.9993C23.7414 32.6843 23.9318 32.3997 24.1764 32.1653C24.8015 31.6896 25.5815 31.4609 26.3662 31.5232H38.5316V31.1277C38.538 31.0779 38.5338 31.0273 38.5193 30.9792C38.5048 30.9311 38.4803 30.8866 38.4474 30.8485C38.3454 30.7901 38.2274 30.7657 38.1105 30.7787H24.8923C24.7159 30.7918 24.5389 30.7627 24.3761 30.6939C24.2133 30.6251 24.0694 30.5186 23.9565 30.3832C23.7566 30.1491 23.6457 29.8527 23.643 29.5457C23.6465 29.2414 23.7445 28.9456 23.9237 28.6989C24.0336 28.5591 24.1766 28.4486 24.3399 28.3772C24.5031 28.3057 24.6817 28.2756 24.8595 28.2894H40.7916C41.7555 28.2894 42.4199 28.4616 42.7802 28.8012C42.9713 29.0066 43.1177 29.249 43.2102 29.5132C43.3028 29.7774 43.3396 30.0577 43.3182 30.3367V33.6402H28.9069C28.847 33.634 28.7865 33.6413 28.7298 33.6614C28.6731 33.6815 28.6217 33.714 28.5793 33.7566C28.5179 33.8277 28.4847 33.9187 28.4857 34.0125C28.4857 34.2451 28.6261 34.3614 28.9069 34.3614H42.6866C42.865 34.3418 43.0455 34.3693 43.2098 34.4411C43.3741 34.513 43.5164 34.6268 43.6224 34.7709C43.7993 35.0269 43.8939 35.3303 43.8938 35.641C43.8844 35.9307 43.7954 36.2123 43.6364 36.4552C43.5322 36.6018 43.3905 36.7179 43.2259 36.7915C43.0614 36.8651 42.88 36.8936 42.7006 36.874H26.3662Z" fill="white"/>
<path d="M59.6574 33.5473V33.5938C59.6574 33.7986 59.6574 33.9893 59.634 34.1755C59.6106 34.3616 59.5919 34.543 59.5638 34.7105C61.3559 34.65 62.68 35.0595 63.5269 35.9436C63.9199 36.3624 64.214 36.8631 64.3879 37.4092C64.4903 37.7311 64.5147 38.0726 64.4594 38.4057C64.404 38.7388 64.2704 39.0542 64.0693 39.3263C63.8682 39.5984 63.6054 39.8194 63.3022 39.9714C62.999 40.1233 62.664 40.202 62.3244 40.2009C61.885 40.2124 61.4522 40.0926 61.0819 39.8571C60.7116 39.6215 60.4207 39.281 60.2469 38.8795C60.1667 38.6705 60.0459 38.4791 59.8913 38.3165C59.7097 38.1337 59.4897 37.993 59.247 37.9045C59.0044 37.816 58.7451 37.782 58.4876 37.8047C58.4034 37.8116 58.3214 37.8353 58.2466 37.8745C58.1719 37.9137 58.1058 37.9675 58.0525 38.0327C57.3886 38.7799 56.5587 39.363 55.6287 39.7356C54.6275 40.1488 53.5544 40.3622 52.4704 40.3638C51.9435 40.3772 51.4274 40.2132 51.0059 39.8985C50.8221 39.7604 50.674 39.5807 50.574 39.3744C50.4739 39.1681 50.4247 38.941 50.4304 38.712C50.4048 38.2547 50.5498 37.8041 50.8374 37.4464C51.1274 37.136 51.5259 36.9478 51.951 36.9206C52.8729 36.8795 53.7508 36.5171 54.4309 35.897C54.7279 35.5889 54.9579 35.2235 55.1068 34.8232C55.2558 34.423 55.3203 33.9966 55.2966 33.5706V33.524H52.2552C51.999 33.5312 51.7451 33.4753 51.5159 33.3612C51.3134 33.26 51.1349 33.1172 50.9919 32.9424C50.8498 32.7739 50.7389 32.5818 50.6643 32.3748C50.5863 32.1696 50.5467 31.952 50.5473 31.7327C50.5476 31.5199 50.5792 31.3083 50.6409 31.1045C50.7022 30.8896 50.8056 30.6888 50.945 30.5136C51.0892 30.3308 51.2732 30.1828 51.4831 30.0809C51.7245 29.9684 51.9887 29.9127 52.2552 29.918H55.2264C55.201 29.6348 55.2405 29.3496 55.3418 29.0837C55.4431 28.8177 55.6036 28.5781 55.8112 28.3826C56.2967 28.0264 56.8937 27.8532 57.4957 27.8941C58.1003 27.8558 58.6993 28.0286 59.1895 28.3826C59.4011 28.5757 59.5652 28.8146 59.669 29.0809C59.7729 29.3471 59.8137 29.6336 59.7884 29.918H62.8531C63.1197 29.9127 63.3838 29.9684 63.6252 30.0809C63.8343 30.1841 64.018 30.3319 64.1633 30.5136C64.301 30.6899 64.4041 30.8904 64.4674 31.1045C64.5269 31.3088 64.5584 31.5201 64.561 31.7327C64.5594 31.9518 64.5198 32.169 64.444 32.3748C64.3676 32.5809 64.2568 32.7728 64.1165 32.9424C63.9718 33.1175 63.7917 33.2602 63.5878 33.3612C63.3603 33.4753 63.1078 33.5312 62.8531 33.524L59.6574 33.5473ZM69.5535 41.085C69.7965 41.0576 70.0426 41.0915 70.2691 41.1833C70.4955 41.2752 70.6951 41.4222 70.8496 41.6108C71.0888 41.9466 71.2164 42.3485 71.2145 42.76C71.2153 43.1743 71.0843 43.5782 70.8402 43.914C70.6854 44.0993 70.4869 44.2438 70.2625 44.3347C70.0381 44.4256 69.7945 44.4601 69.5535 44.4351H63.8919C63.8264 44.6072 63.7656 44.7654 63.7047 44.9004C63.6439 45.0353 63.569 45.1982 63.4942 45.3657L64.196 45.2959C64.43 45.2959 64.6639 45.2959 64.8745 45.2959C65.681 45.2909 66.4852 45.3815 67.2701 45.5657C67.9981 45.7328 68.6967 46.0072 69.3429 46.38C69.9655 46.7389 70.5134 47.2126 70.9572 47.7759C71.1013 47.9725 71.1875 48.2052 71.2062 48.4478C71.225 48.6904 71.1755 48.9334 71.0634 49.1496C70.9513 49.3659 70.7808 49.5469 70.5712 49.6724C70.3616 49.7979 70.121 49.863 69.8764 49.8603H67.7989C67.615 49.8632 67.4324 49.8293 67.262 49.7605C67.0916 49.6918 66.9368 49.5896 66.8069 49.4602C66.5783 49.2142 66.3188 48.9983 66.0349 48.8181C65.5784 48.5239 65.0777 48.304 64.5516 48.1667C63.9786 48.0157 63.3896 47.9329 62.797 47.9201C62.1546 47.9074 61.5123 47.9541 60.8786 48.0597C60.3224 48.4076 59.7351 48.7036 59.124 48.9437C58.4954 49.1952 57.8496 49.402 57.1916 49.5625C56.5296 49.7263 55.8575 49.846 55.1796 49.9208C54.5168 50 53.849 50.0311 53.1816 50.0139C52.6459 50.0313 52.122 49.8544 51.7077 49.516C51.5233 49.3417 51.3795 49.1293 51.2866 48.8938C51.1936 48.6582 51.1537 48.4053 51.1697 48.1527C51.1674 47.9537 51.208 47.7564 51.2887 47.5743C51.3694 47.3921 51.4883 47.2292 51.6376 47.0965C51.9781 46.7967 52.4232 46.6414 52.8775 46.6638C53.5035 46.6641 54.1288 46.6221 54.7491 46.5382C55.3544 46.4577 55.9522 46.3285 56.5365 46.152C57.0852 45.9928 57.6117 45.7662 58.104 45.4773C58.5614 45.2155 58.9634 44.8678 59.2877 44.4537H53.2705C53.0295 44.4791 52.7858 44.4448 52.5613 44.3539C52.3368 44.263 52.1384 44.1182 51.9838 43.9326C51.7377 43.5979 51.6064 43.1933 51.6095 42.7787C51.6081 42.3679 51.7339 41.9666 51.9698 41.6294C52.1255 41.4411 52.326 41.2944 52.5531 41.2026C52.7803 41.1108 53.0268 41.0767 53.2705 41.1036L69.5535 41.085ZM66.2782 30.3368C66.2558 30.017 66.306 29.6962 66.4251 29.3982C66.5441 29.1002 66.729 28.8326 66.966 28.6152C67.4199 28.2314 67.9986 28.0247 68.5943 28.0336C69.1876 28.029 69.7619 28.2409 70.2086 28.6292C70.4475 28.8427 70.6348 29.1072 70.7564 29.403C70.8779 29.6987 70.9306 30.018 70.9104 30.3368V32.0119H71.6357C71.9427 32.0024 72.2475 32.0662 72.5247 32.198C72.7437 32.3105 72.9354 32.4693 73.0862 32.6633C73.228 32.8559 73.3313 33.0739 73.3903 33.3054C73.4507 33.5364 73.4821 33.7739 73.4839 34.0126C73.4821 34.2528 73.4507 34.4919 73.3903 34.7245C73.3295 34.9582 73.2264 35.1789 73.0862 35.3759C72.9375 35.5774 72.7393 35.7376 72.5106 35.8412C72.2359 35.9639 71.9367 36.0227 71.6357 36.0133H70.9104V38.0141C70.9104 38.6311 70.6639 39.2228 70.2252 39.6591C69.7865 40.0954 69.1914 40.3405 68.5709 40.3405C68.2646 40.3412 67.9612 40.2812 67.6784 40.1643C67.3956 40.0473 67.1389 39.8756 66.9234 39.6591C66.7079 39.4427 66.5379 39.1858 66.4231 38.9034C66.3083 38.6209 66.2511 38.3187 66.2548 38.0141L66.2782 30.3368Z" fill="white"/>
<path d="M93.5803 37.8282C93.8938 37.8201 94.2052 37.8804 94.4927 38.005C94.7235 38.1098 94.9304 38.2602 95.101 38.4471C95.2562 38.6254 95.3711 38.8349 95.4379 39.0612C95.5079 39.2874 95.5441 39.5225 95.5455 39.7592C95.5438 40.2381 95.3788 40.7023 95.0776 41.0759C94.8917 41.2863 94.658 41.4497 94.396 41.5524C94.134 41.6552 93.8512 41.6944 93.5709 41.6669H75.6035C75.3225 41.694 75.0391 41.6546 74.7765 41.5519C74.5138 41.4492 74.2793 41.2861 74.0922 41.0759C73.7906 40.7024 73.6256 40.2382 73.6243 39.7592C73.624 39.5228 73.6587 39.2876 73.7272 39.0612C73.7956 38.8346 73.9121 38.6252 74.0688 38.4471C74.2376 38.2583 74.4449 38.1076 74.677 38.005C74.9715 37.8766 75.2915 37.8161 75.6129 37.8282H93.5803ZM77.9524 36.4323C77.4013 36.4448 76.851 36.3869 76.3147 36.2602C75.9237 36.1711 75.5665 35.9725 75.2853 35.6879C75.0185 35.3974 74.8357 35.0404 74.7566 34.6549C74.6479 34.13 74.5977 33.5948 74.6069 33.059V30.5232C74.5782 30.2006 74.6279 29.8759 74.7517 29.5763C74.8754 29.2767 75.0697 29.011 75.3181 28.8016C75.8094 28.4418 76.4065 28.2537 77.0166 28.2665C77.6183 28.2509 78.2075 28.4396 78.687 28.8016C78.9308 29.0139 79.1206 29.2805 79.241 29.5797C79.3613 29.879 79.4088 30.2022 79.3795 30.5232V32.2447C79.3795 32.51 79.4169 32.6728 79.4964 32.71C79.6546 32.792 79.834 32.8244 80.0111 32.8031H92.7147C92.9933 32.7757 93.2746 32.8108 93.5377 32.9058C93.8009 33.0008 94.0393 33.1533 94.2353 33.3521C94.5343 33.6981 94.7001 34.1383 94.7032 34.5944C94.7068 35.0602 94.5406 35.5115 94.2353 35.8647C94.0404 36.0607 93.8042 36.2113 93.5436 36.3054C93.283 36.3995 93.0047 36.435 92.7287 36.4091L77.9524 36.4323ZM78.1629 49.9025C77.6119 49.9149 77.0615 49.857 76.5253 49.7303C76.1342 49.6412 75.777 49.4426 75.4959 49.158C75.23 48.8668 75.0474 48.5102 74.9671 48.1251C74.8584 47.6002 74.8082 47.065 74.8174 46.5291V44.8774C74.7881 44.5534 74.8388 44.2271 74.9652 43.9271C75.0916 43.627 75.2898 43.3622 75.5427 43.1558C76.0379 42.7968 76.6378 42.6089 77.2505 42.6207C77.8523 42.6051 78.4415 42.7938 78.9209 43.1558C79.1647 43.3681 79.3546 43.6347 79.4749 43.9339C79.5953 44.2331 79.6427 44.5564 79.6134 44.8774V45.7149C79.6134 45.9801 79.6508 46.1429 79.7304 46.2034C79.8886 46.2853 80.068 46.3178 80.2451 46.2965H92.855C93.1337 46.2691 93.4149 46.3042 93.6781 46.3992C93.9413 46.4942 94.1797 46.6467 94.3757 46.8455C94.6747 47.1915 94.8405 47.6317 94.8436 48.0878C94.8464 48.5534 94.6802 49.0044 94.3757 49.3581C94.1808 49.5541 93.9445 49.7046 93.684 49.7988C93.4234 49.8929 93.1451 49.9284 92.8691 49.9025H78.1629Z" fill="white"/>
<path d="M102.541 35.5948C103.388 35.683 104.243 35.683 105.091 35.5948C105.784 35.5334 106.463 35.3638 107.103 35.0922C107.615 34.8823 108.067 34.5517 108.422 34.1291C108.737 33.7324 108.903 33.2386 108.89 32.7332V32.6402C108.89 32.347 108.717 32.1749 108.375 32.1749H102.761C102.46 32.1842 102.161 32.1336 101.881 32.026C101.655 31.9344 101.452 31.7946 101.287 31.6165C101.13 31.451 101.013 31.2521 100.945 31.0349C100.875 30.8168 100.841 30.5891 100.842 30.3603C100.839 29.9141 100.996 29.4814 101.287 29.1412C101.474 28.9442 101.704 28.7923 101.96 28.6972C102.215 28.602 102.489 28.5661 102.761 28.5922H110.107C111.386 28.5922 112.275 28.8527 112.774 29.3739C113.319 30.035 113.588 30.88 113.522 31.7329V32.6169C113.553 33.7911 113.226 34.9471 112.587 35.9344C111.963 36.8564 111.112 37.6044 110.116 38.1073C108.987 38.6809 107.764 39.0481 106.504 39.1914C105.067 39.3662 103.613 39.3662 102.176 39.1914C101.669 39.1421 101.198 38.9105 100.852 38.5401C100.674 38.339 100.543 38.1012 100.468 37.8437C100.394 37.5862 100.378 37.3155 100.421 37.0511C100.435 36.8136 100.504 36.5824 100.621 36.3752C100.739 36.168 100.902 35.9902 101.1 35.8553C101.533 35.5994 102.044 35.5069 102.541 35.5948ZM104.6 49.8792C104.119 49.8865 103.642 49.7996 103.196 49.6232C102.803 49.4682 102.448 49.2301 102.157 48.9253C101.878 48.6334 101.659 48.2905 101.511 47.9156C101.365 47.5321 101.291 47.1253 101.291 46.7152V46.436C101.275 46.0606 101.344 45.6864 101.491 45.3403C101.638 44.9943 101.861 44.6852 102.143 44.4353C102.848 43.8969 103.726 43.6322 104.614 43.6908H116.381V43.0859C116.39 42.9847 116.366 42.8834 116.311 42.7974C116.269 42.7636 116.22 42.7387 116.168 42.7243C116.115 42.7099 116.061 42.7063 116.007 42.7137H102.836C102.65 42.7302 102.463 42.7006 102.291 42.6275C102.12 42.5544 101.969 42.4401 101.853 42.2949C101.651 42.0176 101.545 41.6832 101.549 41.3411C101.548 41.0066 101.654 40.6805 101.853 40.4105C101.966 40.2615 102.116 40.1436 102.288 40.0679C102.46 39.9922 102.648 39.9612 102.836 39.9778H118.276C119.32 39.9778 120.059 40.1593 120.485 40.5129C120.911 40.8665 121.13 41.5086 121.13 42.4206V44.412C121.13 44.6397 121.085 44.8651 120.998 45.0754C120.91 45.2857 120.781 45.4768 120.619 45.6376C120.457 45.7984 120.264 45.9257 120.053 46.0125C119.841 46.0992 119.614 46.1435 119.385 46.1429H106.752C106.61 46.1336 106.471 46.1805 106.363 46.2732C106.322 46.314 106.29 46.3626 106.268 46.4162C106.247 46.4698 106.236 46.5271 106.237 46.5849V46.6547C106.236 46.7132 106.246 46.7714 106.268 46.8258C106.289 46.8801 106.322 46.9296 106.363 46.9711C106.471 47.0621 106.611 47.1072 106.752 47.0967H120.415C120.607 47.0803 120.801 47.1122 120.979 47.1894C121.156 47.2666 121.311 47.3867 121.43 47.5387C121.637 47.823 121.748 48.1649 121.748 48.5158C121.748 48.8501 121.641 49.1757 121.444 49.4464C121.321 49.5964 121.163 49.714 120.983 49.7886C120.804 49.8633 120.608 49.8928 120.415 49.8745L104.6 49.8792ZM116.391 30.337C116.369 30.0151 116.422 29.6926 116.545 29.3941C116.669 29.0957 116.859 28.8293 117.102 28.6154C117.567 28.2437 118.148 28.0461 118.744 28.0571C119.043 28.0574 119.339 28.1094 119.619 28.2106C119.902 28.3135 120.161 28.4717 120.382 28.6759C120.606 28.8766 120.785 29.1224 120.906 29.3971C121.046 29.707 121.114 30.044 121.107 30.3835V36.8976C121.107 37.2051 121.046 37.5095 120.927 37.7933C120.808 38.0771 120.633 38.3346 120.414 38.5509C120.194 38.7672 119.933 38.9381 119.647 39.0537C119.36 39.1692 119.053 39.2271 118.744 39.224C118.124 39.224 117.529 38.9789 117.09 38.5426C116.651 38.1063 116.405 37.5146 116.405 36.8976L116.391 30.337Z" fill="white"/>
<path d="M143.459 36.5952C143.698 36.5665 143.942 36.5936 144.169 36.6744C144.396 36.7551 144.602 36.8873 144.769 37.0605C145.012 37.3734 145.144 37.7582 145.143 38.1539C145.148 38.5568 145.01 38.9486 144.755 39.2613C144.588 39.4316 144.385 39.5621 144.161 39.6427C143.936 39.7233 143.696 39.752 143.459 39.7266H124.93C124.692 39.7517 124.451 39.7229 124.226 39.6423C124 39.5617 123.796 39.4315 123.629 39.2613C123.375 38.9481 123.239 38.5563 123.245 38.1539C123.242 37.7578 123.374 37.3723 123.62 37.0605C123.786 36.8864 123.991 36.7536 124.219 36.6728C124.447 36.592 124.69 36.5654 124.93 36.5952H143.459ZM126.848 49.8792C126.399 49.8896 125.953 49.8072 125.538 49.6373C125.182 49.4903 124.863 49.268 124.602 48.9858C124.362 48.7145 124.179 48.3981 124.064 48.0553C123.946 47.6869 123.887 47.3021 123.891 46.9153V46.8455C123.859 46.1139 124.111 45.3981 124.593 44.8448C125.061 44.333 125.809 44.0771 126.839 44.0771H139.355V43.635C139.355 43.3884 139.191 43.2628 138.864 43.2628H125.468C125.282 43.2748 125.095 43.2447 124.923 43.1745C124.75 43.1044 124.596 42.9962 124.471 42.858C124.258 42.6153 124.139 42.3053 124.134 41.9832C124.138 41.6622 124.248 41.3513 124.448 41.0992C124.571 40.9529 124.729 40.8384 124.906 40.7655C125.084 40.6926 125.276 40.6634 125.468 40.6804H141.564C142.56 40.6804 143.248 40.8666 143.622 41.2295C143.822 41.4465 143.974 41.7016 144.071 41.9792C144.167 42.2568 144.206 42.5511 144.184 42.8441V44.8913C144.183 45.3113 144.014 45.7137 143.715 46.0102C143.416 46.3068 143.011 46.4733 142.588 46.4733H129.375C129.312 46.4667 129.249 46.4728 129.188 46.4912C129.128 46.5096 129.072 46.5399 129.024 46.5803C128.956 46.6608 128.923 46.7642 128.93 46.8688C128.925 46.9774 128.958 47.0844 129.024 47.1712C129.07 47.2159 129.125 47.2496 129.186 47.2698C129.247 47.2899 129.311 47.296 129.375 47.2876H143.108C143.291 47.2707 143.475 47.2993 143.644 47.3707C143.813 47.4422 143.962 47.5543 144.076 47.697C144.269 47.9553 144.372 48.2687 144.371 48.5904C144.362 48.8981 144.265 49.1969 144.09 49.4511C143.981 49.6053 143.832 49.7277 143.66 49.8054C143.487 49.8831 143.296 49.9134 143.108 49.8932L126.848 49.8792ZM144.394 32.0121C144.397 32.5165 144.31 33.0174 144.137 33.4917C143.968 33.9411 143.7 34.3467 143.351 34.6782C142.97 35.0279 142.521 35.297 142.032 35.4692C141.429 35.6725 140.796 35.7701 140.16 35.7577H128.275C127.631 35.7736 126.99 35.6759 126.38 35.4692C125.889 35.2981 125.439 35.0289 125.056 34.6782C124.707 34.3477 124.44 33.9417 124.275 33.4917C124.1 33.018 124.013 32.5167 124.017 32.0121C124.012 31.512 124.099 31.0151 124.275 30.5464C124.444 30.0987 124.711 29.6936 125.056 29.3599C125.436 29.0031 125.887 28.7304 126.38 28.5597C126.99 28.3513 127.631 28.252 128.275 28.2665H140.16C140.796 28.2555 141.43 28.3547 142.032 28.5597C142.523 28.7315 142.973 29.0041 143.351 29.3599C143.696 29.6947 143.964 30.0994 144.137 30.5464C144.31 31.0158 144.397 31.5122 144.394 32.0121ZM139.598 32.0121C139.603 31.9161 139.588 31.8202 139.553 31.7305C139.518 31.6408 139.465 31.5592 139.397 31.491C139.187 31.3346 138.924 31.2632 138.663 31.2909H129.726C129.463 31.2634 129.199 31.3347 128.986 31.491C128.92 31.5601 128.868 31.6419 128.834 31.7315C128.801 31.8211 128.786 31.9165 128.79 32.0121C128.785 32.1084 128.8 32.2047 128.834 32.295C128.868 32.3854 128.92 32.468 128.986 32.5379C129.2 32.6921 129.463 32.7617 129.726 32.7333H138.663C138.924 32.7619 139.186 32.6922 139.397 32.5379C139.466 32.4689 139.519 32.3866 139.554 32.296C139.588 32.2055 139.603 32.1088 139.598 32.0121Z" fill="white"/>
<path d="M152.559 36.4321C153.363 36.482 154.17 36.4555 154.969 36.353C155.644 36.2724 156.302 36.0872 156.92 35.804C157.44 35.5718 157.888 35.2075 158.221 34.7478C158.547 34.2542 158.71 33.6721 158.689 33.082V32.8494C158.689 32.5097 158.511 32.3376 158.151 32.3376H152.817C152.516 32.347 152.217 32.2963 151.937 32.1887C151.711 32.0971 151.508 31.9573 151.343 31.7792C151.186 31.6137 151.069 31.4148 151.001 31.1976C150.931 30.9795 150.897 30.7518 150.898 30.5229C150.897 30.2941 150.932 30.0665 151.001 29.8483C151.071 29.6321 151.188 29.4336 151.343 29.2667C151.509 29.09 151.711 28.9518 151.937 28.8619C152.217 28.7525 152.516 28.7003 152.817 28.7083H159.882C161.161 28.7083 162.045 28.9689 162.535 29.49C163.076 30.1531 163.341 30.9975 163.274 31.849V32.5935H166.526V30.267C166.504 29.9515 166.556 29.6351 166.678 29.3429C166.8 29.0506 166.988 28.7904 167.228 28.5827C167.68 28.2069 168.253 28.0039 168.842 28.0104C169.138 28.0104 169.431 28.0624 169.708 28.1639C169.981 28.2609 170.235 28.4059 170.456 28.592C170.68 28.7841 170.859 29.0222 170.981 29.2899C171.121 29.5963 171.19 29.9304 171.182 30.267V37.7117C171.182 38.3287 170.935 38.9204 170.497 39.3567C170.058 39.793 169.463 40.0381 168.842 40.0381C168.222 40.0381 167.627 39.793 167.188 39.3567C166.749 38.9204 166.503 38.3287 166.503 37.7117V36.1855H162.526C162.127 36.9673 161.564 37.6545 160.874 38.2002C160.157 38.7641 159.351 39.2045 158.488 39.503C157.539 39.8312 156.554 40.0422 155.554 40.1312C154.465 40.2381 153.368 40.2381 152.278 40.1312C151.769 40.0953 151.292 39.8673 150.945 39.4937C150.761 39.2924 150.624 39.0535 150.543 38.7939C150.463 38.5342 150.44 38.2601 150.477 37.9908C150.485 37.7528 150.547 37.5197 150.658 37.3086C150.769 37.0976 150.926 36.9141 151.118 36.7718C151.543 36.4937 152.054 36.3735 152.559 36.4321ZM169.989 41.1315C170.236 41.1242 170.481 41.1803 170.7 41.2944C170.883 41.4009 171.042 41.5434 171.168 41.7132C171.292 41.8856 171.382 42.0798 171.434 42.2855C171.488 42.478 171.517 42.6766 171.519 42.8764C171.517 43.0732 171.489 43.2688 171.434 43.458C171.383 43.6568 171.292 43.8435 171.168 44.0071C171.042 44.1709 170.883 44.3058 170.7 44.4025C170.479 44.5097 170.234 44.5608 169.989 44.5514H156.841C156.433 44.5514 156.232 44.7329 156.232 45.0865V45.924C156.232 46.2823 156.433 46.4591 156.841 46.4591H170.316C170.563 46.4518 170.808 46.5079 171.027 46.622C171.209 46.7266 171.368 46.8657 171.495 47.0314C171.619 47.1939 171.71 47.3788 171.762 47.5758C171.816 47.7651 171.844 47.9607 171.846 48.1574C171.845 48.3542 171.816 48.5499 171.762 48.739C171.71 48.9404 171.619 49.1299 171.495 49.2974C171.372 49.4695 171.212 49.6124 171.027 49.7161C170.809 49.8318 170.563 49.888 170.316 49.879H154.735C153.565 49.879 152.739 49.6308 152.255 49.1345C151.787 48.6413 151.53 47.8503 151.53 46.7616V44.249C151.53 43.1788 151.768 42.3878 152.255 41.89C152.742 41.3921 153.565 41.1315 154.735 41.1315H169.989Z" fill="white"/>
<path d="M193.243 37.8282C193.565 37.8166 193.885 37.877 194.179 38.005C194.41 38.1098 194.617 38.2602 194.788 38.4471C194.943 38.6254 195.058 38.8349 195.124 39.0612C195.194 39.2874 195.231 39.5225 195.232 39.7592C195.23 40.2381 195.065 40.7023 194.764 41.0759C194.578 41.2863 194.345 41.4497 194.083 41.5524C193.821 41.6552 193.538 41.6944 193.257 41.6669H175.29C175.009 41.694 174.726 41.6546 174.463 41.5519C174.2 41.4492 173.966 41.2861 173.779 41.0759C173.477 40.7024 173.312 40.2382 173.311 39.7592C173.311 39.5228 173.345 39.2876 173.414 39.0612C173.482 38.8346 173.599 38.6252 173.755 38.4471C173.924 38.2583 174.131 38.1076 174.364 38.005C174.658 37.8766 174.978 37.8161 175.299 37.8282H193.243ZM177.615 36.4323C177.064 36.4448 176.514 36.3869 175.978 36.2602C175.587 36.1711 175.23 35.9725 174.948 35.6879C174.682 35.3974 174.499 35.0404 174.42 34.6549C174.311 34.13 174.261 33.5948 174.27 33.059V30.5232C174.241 30.2006 174.291 29.8759 174.415 29.5763C174.539 29.2767 174.733 29.011 174.981 28.8016C175.472 28.4418 176.07 28.2537 176.68 28.2665C177.281 28.2509 177.871 28.4396 178.35 28.8016C178.594 29.0139 178.784 29.2805 178.904 29.5797C179.024 29.879 179.072 30.2022 179.043 30.5232V32.2447C179.043 32.51 179.08 32.6728 179.16 32.71C179.318 32.792 179.497 32.8244 179.674 32.8031H192.378C192.656 32.7757 192.938 32.8108 193.201 32.9058C193.464 33.0008 193.702 33.1533 193.898 33.3521C194.197 33.6981 194.363 34.1383 194.366 34.5944C194.37 35.0602 194.204 35.5115 193.898 35.8647C193.704 36.0607 193.467 36.2113 193.207 36.3054C192.946 36.3995 192.668 36.435 192.392 36.4091L177.615 36.4323ZM177.826 49.9025C177.275 49.9149 176.725 49.857 176.188 49.7303C175.797 49.6412 175.44 49.4426 175.159 49.158C174.893 48.8668 174.711 48.5102 174.63 48.1251C174.522 47.6002 174.471 47.065 174.481 46.5291V44.8774C174.451 44.5534 174.502 44.2271 174.628 43.9271C174.755 43.627 174.953 43.3622 175.206 43.1558C175.701 42.7968 176.301 42.6089 176.914 42.6207C177.515 42.6051 178.105 42.7938 178.584 43.1558C178.828 43.3681 179.018 43.6347 179.138 43.9339C179.258 44.2331 179.306 44.5564 179.277 44.8774V45.7149C179.277 45.9801 179.314 46.1429 179.394 46.2034C179.552 46.2853 179.731 46.3178 179.908 46.2965H192.542C192.82 46.2691 193.101 46.3042 193.365 46.3992C193.628 46.4942 193.866 46.6467 194.062 46.8455C194.353 47.1947 194.51 47.6346 194.507 48.0878C194.51 48.5534 194.343 49.0044 194.039 49.3581C193.844 49.5541 193.608 49.7046 193.347 49.7988C193.087 49.8929 192.808 49.9284 192.532 49.9025H177.826Z" fill="white"/>
<path d="M220.803 45.5051C221.124 45.4959 221.443 45.5563 221.739 45.6819C221.981 45.7895 222.196 45.9483 222.37 46.1472C222.532 46.3289 222.651 46.5432 222.721 46.7753C222.791 47.0015 222.827 47.2366 222.829 47.4733C222.828 47.7183 222.789 47.9617 222.712 48.1945C222.633 48.4256 222.509 48.6391 222.347 48.8226C222.177 49.014 221.966 49.1651 221.729 49.2646C221.433 49.3848 221.114 49.4403 220.793 49.4275H202.92C202.6 49.4413 202.28 49.3858 201.984 49.2646C201.745 49.1664 201.532 49.0152 201.362 48.8226C201.199 48.6402 201.076 48.4264 201.001 48.1945C200.922 47.9622 200.883 47.7184 200.884 47.4733C200.884 47.2369 200.919 47.0017 200.987 46.7753C201.057 46.5432 201.177 46.3289 201.338 46.1472C201.512 45.9483 201.728 45.7895 201.97 45.6819C202.265 45.5565 202.585 45.4962 202.906 45.5051H220.803ZM219.867 28.7547C220.152 28.7466 220.435 28.8023 220.695 28.9175C220.909 29.0176 221.1 29.1601 221.257 29.3363C221.403 29.5056 221.511 29.7038 221.575 29.9179C221.635 30.1298 221.667 30.349 221.668 30.5693C221.67 31.0154 221.522 31.4493 221.247 31.8023C221.077 32.0019 220.86 32.1571 220.615 32.2544C220.37 32.3517 220.106 32.3882 219.844 32.3607H207.397C206.93 32.3607 206.696 32.5654 206.696 32.9655V33.8961H219.703C219.965 33.8669 220.231 33.9026 220.476 34C220.721 34.0975 220.937 34.2536 221.107 34.4545C221.371 34.7945 221.516 35.2113 221.519 35.6409C221.519 36.077 221.371 36.5004 221.098 36.8414C220.925 37.0373 220.707 37.1889 220.463 37.2837C220.218 37.3784 219.955 37.4134 219.694 37.3858H206.71V38.2698C206.703 38.3552 206.715 38.4411 206.745 38.5214C206.775 38.6018 206.822 38.6747 206.883 38.7351C207.038 38.8392 207.225 38.8883 207.412 38.8747H220.232C220.517 38.8667 220.8 38.9223 221.06 39.0376C221.274 39.1377 221.465 39.2802 221.622 39.4563C221.767 39.6229 221.875 39.8178 221.94 40.0286C222.001 40.2357 222.032 40.4503 222.033 40.6661C222.035 41.1122 221.887 41.5461 221.612 41.8991C221.444 42.0953 221.231 42.2484 220.991 42.3456C220.75 42.4427 220.49 42.4811 220.232 42.4574H205.68C204.323 42.4574 203.364 42.1674 202.803 41.5874C202.241 41.0073 201.96 40.0876 201.96 38.8282V32.3839C201.96 31.1276 202.241 30.2095 202.803 29.6294C203.364 29.0493 204.323 28.7578 205.68 28.7547H219.867Z" fill="white"/>
<path d="M229.295 44.1096C229.276 44.2494 229.286 44.3916 229.324 44.5275C229.361 44.6635 229.427 44.7904 229.515 44.9006C229.765 45.0514 230.057 45.1167 230.348 45.0867H234.091C234.364 45.0594 234.639 45.0981 234.893 45.1994C235.147 45.3007 235.373 45.4615 235.551 45.6683C235.834 46.0356 235.987 46.4854 235.986 46.9479C235.985 47.1845 235.949 47.4196 235.879 47.6458C235.81 47.8756 235.695 48.0892 235.542 48.274C235.381 48.4674 235.182 48.6258 234.957 48.7392C234.686 48.8624 234.389 48.9214 234.091 48.9114H228.476C227.871 48.9253 227.267 48.8675 226.675 48.7392C226.258 48.6488 225.873 48.4478 225.561 48.1576C225.273 47.8539 225.078 47.4745 225 47.0642C224.89 46.4923 224.84 45.9107 224.85 45.3287V40.3035C224.84 39.7261 224.89 39.1491 225 38.582C225.08 38.1764 225.275 37.802 225.561 37.5025C225.872 37.2119 226.257 37.0137 226.675 36.9302C227.268 36.8103 227.872 36.7557 228.476 36.7673H229.843C229.94 36.7679 230.036 36.7495 230.125 36.7131C230.215 36.6766 230.296 36.6229 230.365 36.555C230.434 36.4871 230.488 36.4064 230.526 36.3175C230.563 36.2285 230.582 36.1332 230.582 36.0368V33.3475C230.596 33.2609 230.589 33.1723 230.562 33.0887C230.536 33.0051 230.49 32.9288 230.429 32.8657C230.368 32.8026 230.293 32.7544 230.21 32.725C230.127 32.6956 230.038 32.6856 229.95 32.696H226.829C226.547 32.7228 226.262 32.6833 225.998 32.5807C225.734 32.478 225.498 32.3152 225.309 32.1051C225.004 31.7333 224.839 31.2679 224.841 30.7884C224.841 30.552 224.875 30.3168 224.944 30.0904C225.012 29.8616 225.132 29.6515 225.295 29.4762C225.471 29.2893 225.682 29.1391 225.917 29.0342C226.212 28.9058 226.531 28.8453 226.853 28.8574H231.321C231.972 28.844 232.623 28.8986 233.263 29.0203C233.674 29.0969 234.057 29.2816 234.372 29.5553C234.64 29.8252 234.817 30.1717 234.877 30.5464C234.961 31.0414 235 31.5428 234.994 32.0447V39.0891C234.994 39.2826 234.956 39.4742 234.881 39.6529C234.807 39.8316 234.697 39.9939 234.56 40.1304C234.422 40.267 234.258 40.3752 234.078 40.4489C233.898 40.5225 233.706 40.5601 233.511 40.5594H230.362C230.072 40.5314 229.78 40.5967 229.529 40.7456C229.441 40.8562 229.377 40.9831 229.339 41.119C229.301 41.2548 229.291 41.3968 229.309 41.5365L229.295 44.1096ZM241.788 40.271H240.618V47.8552C240.618 48.392 240.404 48.9068 240.022 49.2864C239.641 49.666 239.123 49.8792 238.583 49.8792C238.043 49.8792 237.526 49.666 237.144 49.2864C236.762 48.9068 236.548 48.392 236.548 47.8552V30.0113C236.528 29.7356 236.573 29.4591 236.679 29.2033C236.784 28.9475 236.948 28.7193 237.156 28.5364C237.549 28.2082 238.047 28.03 238.56 28.0339C239.073 28.0312 239.57 28.2092 239.963 28.5364C240.176 28.717 240.342 28.9444 240.45 29.2005C240.558 29.4566 240.605 29.7343 240.586 30.0113V36.4556H241.755V30.0113C241.737 29.7334 241.784 29.455 241.894 29.1988C242.004 28.9425 242.173 28.7156 242.387 28.5364C242.797 28.2053 243.31 28.0274 243.838 28.0339C244.1 28.0356 244.361 28.0795 244.61 28.1641C244.854 28.2465 245.08 28.3762 245.274 28.5457C245.471 28.7182 245.63 28.9288 245.742 29.1645C245.865 29.4297 245.926 29.7193 245.92 30.0113V47.8552C245.92 48.392 245.705 48.9068 245.324 49.2864C244.942 49.666 244.424 49.8792 243.884 49.8792H243.791C243.251 49.8792 242.733 49.666 242.352 49.2864C241.97 48.9068 241.755 48.392 241.755 47.8552L241.788 40.271Z" fill="white"/>
<path d="M250.444 31.9423C250.196 31.9667 249.946 31.9345 249.713 31.8483C249.479 31.762 249.269 31.6239 249.097 31.4445C248.832 31.1269 248.687 30.7266 248.69 30.3138C248.689 29.9113 248.83 29.5213 249.087 29.211C249.259 29.0286 249.471 28.8882 249.706 28.801C249.942 28.7139 250.194 28.6822 250.444 28.7086H258.258C259.409 28.7086 260.219 28.9505 260.677 29.4297C261.179 30.0265 261.428 30.7942 261.37 31.5701V32.5472C261.41 33.9024 261.099 35.2451 260.467 36.4463C259.881 37.5093 259.032 38.4061 258.001 39.0519C256.886 39.7462 255.647 40.2201 254.351 40.4478C252.893 40.7069 251.406 40.7726 249.93 40.6432C249.47 40.6253 249.035 40.4339 248.713 40.1081C248.547 39.9332 248.422 39.723 248.349 39.4933C248.276 39.2635 248.257 39.0204 248.292 38.7821C248.29 38.5692 248.341 38.3591 248.44 38.1706C248.54 37.9822 248.685 37.8214 248.863 37.7026C249.253 37.4676 249.71 37.3647 250.164 37.4094C251.29 37.4975 252.423 37.4349 253.532 37.2233C254.42 37.0674 255.251 36.6823 255.942 36.1066C255.723 36.168 255.499 36.2116 255.273 36.2369C255.091 36.2578 254.909 36.2686 254.726 36.2695H250.21C249.965 36.296 249.717 36.268 249.484 36.1875C249.251 36.1071 249.039 35.9762 248.863 35.8042C248.597 35.4926 248.452 35.0963 248.456 34.6875C248.454 34.2878 248.595 33.9005 248.853 33.5941C249.028 33.4156 249.24 33.2788 249.475 33.1942C249.71 33.1095 249.962 33.0792 250.21 33.1055H257.229V32.4309C257.229 32.1238 257.065 31.9656 256.761 31.9656L250.444 31.9423ZM253.93 49.949C253.21 49.9643 252.493 49.8541 251.811 49.6233C251.254 49.4328 250.744 49.1285 250.313 48.7299C249.916 48.3492 249.612 47.8828 249.424 47.3667C249.226 46.8064 249.128 46.2158 249.134 45.6218C249.13 45.0326 249.228 44.447 249.424 43.891C249.612 43.3653 249.916 42.8883 250.313 42.4951C250.741 42.084 251.252 41.767 251.811 41.5645C252.491 41.3264 253.209 41.2114 253.93 41.2248H264.411C265.122 41.2128 265.83 41.323 266.503 41.5505C267.063 41.7497 267.574 42.0671 268 42.4811C268.399 42.8757 268.707 43.352 268.903 43.877C269.11 44.4388 269.213 45.033 269.207 45.6311C269.213 46.2308 269.11 46.8266 268.903 47.3899C268.712 47.9169 268.403 48.394 268 48.7858C267.571 49.1841 267.06 49.4856 266.503 49.6698C265.828 49.8901 265.121 49.9955 264.411 49.9816L253.93 49.949ZM263.171 46.7385C263.359 46.7645 263.551 46.7455 263.73 46.6832C263.909 46.6209 264.07 46.517 264.201 46.3802C264.363 46.1601 264.453 45.8951 264.458 45.6218C264.455 45.3568 264.365 45.1 264.201 44.8913C264.066 44.7606 263.904 44.662 263.725 44.6031C263.547 44.5443 263.358 44.5267 263.171 44.5517H255.17C254.984 44.526 254.794 44.5432 254.616 44.6021C254.437 44.661 254.275 44.76 254.141 44.8913C253.975 45.099 253.884 45.3564 253.883 45.6218C253.886 45.8954 253.976 46.1612 254.141 46.3802C254.271 46.5173 254.433 46.6214 254.612 46.6837C254.791 46.746 254.982 46.7649 255.17 46.7385H263.171ZM264.247 30.3371C264.226 30.0152 264.279 29.6926 264.402 29.3942C264.525 29.0958 264.716 28.8294 264.959 28.6155C265.423 28.2431 266.005 28.0454 266.601 28.0571C266.899 28.0575 267.195 28.1095 267.476 28.2107C267.759 28.3136 268.018 28.4718 268.239 28.676C268.461 28.8779 268.64 29.1235 268.763 29.3972C268.902 29.7071 268.971 30.044 268.964 30.3836V38.2237C268.964 38.8407 268.717 39.4325 268.279 39.8688C267.84 40.3051 267.245 40.5502 266.624 40.5502C266.004 40.5502 265.409 40.3051 264.97 39.8688C264.531 39.4325 264.285 38.8407 264.285 38.2237L264.247 30.3371Z" fill="white"/>
<path d="M279.805 38.2933V38.0141C279.776 37.7195 279.824 37.4225 279.945 37.1518C280.065 36.8811 280.254 36.6461 280.493 36.4694C280.985 36.154 281.56 35.992 282.145 36.0041C282.725 35.9933 283.295 36.1554 283.782 36.4694C284.023 36.6433 284.214 36.8761 284.337 37.1452C284.46 37.4143 284.51 37.7104 284.484 38.0048V38.284H291.035C291.31 38.2571 291.588 38.2925 291.847 38.3876C292.106 38.4827 292.341 38.635 292.532 38.833C292.831 39.179 292.997 39.6192 293 40.0754C292.999 40.536 292.833 40.9812 292.532 41.3317C292.344 41.5314 292.113 41.6856 291.856 41.7824C291.599 41.8792 291.323 41.916 291.049 41.89H273.035C272.76 41.9157 272.484 41.8787 272.226 41.782C271.968 41.6852 271.736 41.5312 271.547 41.3317C271.246 40.9814 271.08 40.5361 271.079 40.0754C271.08 39.6188 271.246 39.1777 271.547 38.833C271.738 38.6347 271.972 38.4823 272.232 38.3871C272.491 38.292 272.769 38.2567 273.044 38.284L279.805 38.2933ZM290.216 28.3594C290.472 28.3365 290.729 28.3682 290.971 28.4525C291.213 28.5367 291.434 28.6716 291.62 28.8479C291.899 29.1711 292.049 29.5852 292.041 30.0112C292.049 30.4397 291.894 30.8554 291.606 31.1744C291.419 31.3471 291.197 31.478 290.955 31.5583C290.712 31.6385 290.456 31.6663 290.202 31.6397H284.634C284.562 31.9585 284.46 32.27 284.33 32.5703C284.642 32.5423 284.969 32.5237 285.312 32.5144C285.64 32.5144 285.967 32.5144 286.295 32.5144C287.037 32.5403 287.775 32.6464 288.494 32.8308C289.156 32.9994 289.787 33.2694 290.366 33.6311C290.94 34.0014 291.44 34.4747 291.84 35.027C291.976 35.2251 292.055 35.4566 292.068 35.6962C292.081 35.9358 292.027 36.1744 291.913 36.386C291.799 36.5975 291.629 36.774 291.422 36.8962C291.214 37.0183 290.977 37.0816 290.735 37.0789H288.695C288.518 37.0778 288.343 37.0395 288.182 36.9665C288.021 36.8936 287.877 36.7876 287.76 36.6555C287.626 36.5147 287.482 36.3841 287.329 36.2647C287.002 36.0132 286.645 35.8023 286.267 35.6365C285.866 35.4662 285.451 35.3308 285.027 35.2317C284.613 35.1325 284.189 35.081 283.764 35.0782H282.72C282.357 35.088 281.994 35.1222 281.635 35.1805C281.048 35.5191 280.432 35.807 279.796 36.0413C279.123 36.2951 278.432 36.4974 277.728 36.6462C277.006 36.8042 276.274 36.9177 275.538 36.9858C274.812 37.0553 274.082 37.0739 273.353 37.0417C273.087 37.0476 272.822 36.9942 272.58 36.8856C272.337 36.7769 272.121 36.6156 271.949 36.4136C271.794 36.206 271.683 35.9684 271.625 35.716C271.567 35.4637 271.563 35.202 271.612 34.9479C271.636 34.7376 271.707 34.5353 271.82 34.3564C271.934 34.1774 272.087 34.0265 272.267 33.9149C272.678 33.6776 273.15 33.5674 273.624 33.5985C274.361 33.632 275.1 33.6087 275.833 33.5288C276.49 33.4638 277.14 33.3392 277.775 33.1565C278.305 33.0119 278.813 32.7975 279.286 32.5191C279.671 32.299 279.987 31.9768 280.198 31.5885H273.858C273.604 31.6139 273.348 31.5855 273.106 31.5053C272.864 31.4252 272.642 31.2949 272.455 31.1232C272.17 30.8025 272.016 30.3876 272.024 29.96C272.016 29.534 272.166 29.12 272.445 28.7968C272.63 28.6202 272.851 28.4851 273.094 28.4008C273.336 28.3165 273.593 28.285 273.849 28.3082L290.216 28.3594ZM273.98 46.6453C273.45 46.6845 272.925 46.5177 272.515 46.18C272.347 46.0149 272.216 45.8165 272.129 45.5977C272.043 45.3789 272.004 45.1445 272.015 44.9097C272.003 44.679 272.042 44.4485 272.128 44.234C272.215 44.0196 272.347 43.8263 272.515 43.6674C272.928 43.3351 273.45 43.169 273.98 43.2021H288.672C289.245 43.1899 289.818 43.2414 290.38 43.3557C290.764 43.4244 291.12 43.6059 291.4 43.8768C291.653 44.1741 291.816 44.5374 291.868 44.9237C291.965 45.4719 292.009 46.0282 291.999 46.5848V47.5154C291.999 48.1324 291.752 48.7241 291.314 49.1604C290.875 49.5967 290.28 49.8418 289.659 49.8418C289.039 49.8418 288.444 49.5967 288.005 49.1604C287.566 48.7241 287.32 48.1324 287.32 47.5154V47.1198C287.32 46.9841 287.265 46.8539 287.169 46.7579C287.072 46.662 286.942 46.608 286.805 46.608L273.98 46.6453Z" fill="white"/>
</g>
<defs>
<clipPath id="clip0_3887_85147">
<rect width="293" height="50" fill="white"/>
</clipPath>
</defs>
</svg>
