<svg width="249" height="50" viewBox="0 0 249 50" fill="none" xmlns="http://www.w3.org/2000/svg">
<g clip-path="url(#clip0_3887_85128)">
<path d="M8.54912 17.7707V13.4097H6.79724C5.90251 13.4334 5.01233 13.2747 4.18112 12.9433C3.45485 12.6419 2.80173 12.1886 2.26575 11.614C1.74885 11.0494 1.34876 10.3884 1.08848 9.66902C0.811444 8.92284 0.672155 8.13271 0.677369 7.33693V6.82386C0.671948 6.02806 0.811243 5.23789 1.08848 4.49177C1.34877 3.77097 1.74882 3.10847 2.26575 2.54214C2.8038 1.96755 3.4562 1.51159 4.18112 1.20353C5.00832 0.854914 5.89952 0.683333 6.79724 0.699815H15.0661C15.9639 0.683333 16.8551 0.854914 17.6823 1.20353C18.4072 1.51159 19.0596 1.96755 19.5976 2.54214C20.1144 3.10944 20.5158 3.77159 20.7796 4.49177C21.053 5.23877 21.1907 6.02853 21.186 6.82386V7.33693C21.1905 8.13224 21.0529 8.92197 20.7796 9.66902C20.5158 10.3878 20.1143 11.0484 19.5976 11.614C19.0616 12.1886 18.4085 12.6419 17.6823 12.9433C16.851 13.2747 15.9609 13.4334 15.0661 13.4097H13.3143V17.7707H19.9013C20.2208 17.7592 20.5391 17.8148 20.8356 17.9339C21.067 18.0331 21.2742 18.1811 21.443 18.3677C21.5991 18.5429 21.7154 18.7498 21.784 18.9741C21.853 19.1961 21.8876 19.4272 21.8868 19.6597C21.8871 20.1359 21.722 20.5974 21.4196 20.9656C21.2314 21.174 20.9968 21.3354 20.7347 21.4366C20.4726 21.5379 20.1903 21.5763 19.9107 21.5487H1.97143C1.69242 21.5767 1.41074 21.5385 1.14933 21.4371C0.887914 21.3358 0.654179 21.1743 0.467167 20.9656C0.165067 20.5972 0 20.1358 0 19.6597C0.000723066 19.427 0.036946 19.1958 0.107439 18.9741C0.176228 18.7508 0.290761 18.5443 0.443786 18.3677C0.612551 18.1811 0.819743 18.0331 1.05113 17.9339C1.34785 17.8154 1.66604 17.7598 1.98546 17.7707H8.54912ZM16.3275 6.76325C16.336 6.46094 16.2801 6.16025 16.1633 5.8812C16.0465 5.60215 15.8715 5.35112 15.6501 5.14476C15.3967 4.91939 15.1011 4.74647 14.7804 4.63598C14.4596 4.5255 14.1201 4.47964 13.7814 4.5011H8.03525C7.69661 4.47964 7.35707 4.5255 7.0363 4.63598C6.71554 4.74647 6.41992 4.91939 6.16658 5.14476C5.94513 5.35112 5.77019 5.60215 5.65339 5.8812C5.5366 6.16025 5.48066 6.46094 5.48921 6.76325V7.36959C5.48059 7.67259 5.5365 7.97398 5.65328 8.2538C5.77006 8.53361 5.94501 8.78546 6.16658 8.99271C6.42029 9.21725 6.71607 9.38933 7.03682 9.49901C7.35757 9.60869 7.69693 9.65379 8.03525 9.6317H13.7814C14.1197 9.65379 14.4591 9.60869 14.7799 9.49901C15.1006 9.38933 15.3964 9.21725 15.6501 8.99271C15.8717 8.78546 16.0466 8.53361 16.1634 8.2538C16.2802 7.97398 16.3361 7.67259 16.3275 7.36959V6.76325Z" fill="white"/>
<path d="M43.2128 17.6308C43.5335 17.6219 43.8522 17.6824 44.1472 17.808C44.3889 17.9159 44.6041 18.0751 44.7778 18.2745C44.9389 18.4566 45.0584 18.6714 45.1282 18.9041C45.1966 19.131 45.2312 19.3668 45.231 19.6037C45.2325 19.8495 45.193 20.0938 45.1142 20.3267C45.0391 20.5591 44.9167 20.7735 44.7545 20.9564C44.5854 21.1568 44.373 21.3163 44.1332 21.4228C43.8373 21.5442 43.5184 21.5999 43.1988 21.586H25.3531C25.0335 21.5993 24.7148 21.5437 24.4187 21.4228C24.1803 21.3162 23.9693 21.1567 23.802 20.9564C23.6404 20.7724 23.5166 20.5584 23.4376 20.3267C23.3588 20.0938 23.3193 19.8495 23.3208 19.6037C23.3222 19.3665 23.3584 19.1308 23.4283 18.9041C23.4981 18.6714 23.6177 18.4566 23.7787 18.2745C23.9525 18.0751 24.1677 17.9159 24.4094 17.808C24.7042 17.6817 25.023 17.6212 25.3437 17.6308H43.2128ZM39.0083 5.20075C39.009 5.04539 38.9687 4.89257 38.8916 4.75765C38.8168 4.61773 38.644 4.54779 38.3777 4.54779H26.2313C25.9827 4.56065 25.7344 4.51596 25.5059 4.41726C25.2774 4.31856 25.0748 4.16848 24.9139 3.97874C24.6057 3.61749 24.4396 3.15662 24.4467 2.68211C24.4442 2.21262 24.6099 1.7577 24.9139 1.39946C25.0731 1.20689 25.2751 1.05394 25.5037 0.952747C25.7324 0.851555 25.9815 0.804904 26.2313 0.816442H39.7324C40.4122 0.799506 41.0903 0.890805 41.7413 1.08694C42.2152 1.23199 42.6476 1.48785 43.0026 1.83323C43.3168 2.15653 43.5463 2.55223 43.6707 2.98527C43.807 3.47885 43.8731 3.98915 43.8669 4.50113V7.81735C43.8669 8.26762 43.6877 8.69948 43.3688 9.01787C43.0499 9.33626 42.6174 9.51512 42.1664 9.51512H30.0201C29.4922 9.51512 29.2258 9.74367 29.2258 10.1914V10.308C29.2258 10.7278 29.4922 10.9377 30.0201 10.9377H42.6803C42.9661 10.9302 43.2501 10.986 43.5118 11.101C43.7266 11.2055 43.9174 11.3532 44.0724 11.5347C44.2163 11.7087 44.3229 11.9103 44.3854 12.1271C44.4482 12.3391 44.4796 12.559 44.4789 12.78C44.4794 13.0018 44.4447 13.2222 44.3761 13.433C44.309 13.6461 44.2011 13.8441 44.0584 14.0161C43.9099 14.1951 43.7232 14.3385 43.5118 14.4358C43.2508 14.5531 42.9663 14.609 42.6803 14.5991H28.8288C27.3027 14.5991 26.1473 14.2259 25.3624 13.4797C24.9639 13.0899 24.6526 12.6203 24.4488 12.1018C24.2451 11.5833 24.1537 11.0276 24.1805 10.4713V10.0049C24.1514 9.45384 24.242 8.9031 24.446 8.3903C24.65 7.87749 24.9626 7.41475 25.3624 7.03377C26.1473 6.31238 27.3027 5.95015 28.8288 5.94704H38.4057C38.5668 5.94704 38.7213 5.88314 38.8352 5.76943C38.949 5.65572 39.013 5.50149 39.013 5.34067L39.0083 5.20075Z" fill="white"/>
<path d="M51.505 4.99047H48.375C48.0545 5.00343 47.7353 4.94446 47.4407 4.8179C47.2067 4.70829 46.9995 4.54913 46.8334 4.35148C46.677 4.1626 46.5581 3.94575 46.483 3.71249C46.4086 3.48176 46.3693 3.24124 46.3662 2.99888C46.3683 2.75868 46.4045 2.51998 46.4736 2.28992C46.5411 2.05206 46.6608 1.83218 46.824 1.64626C46.9977 1.45271 47.207 1.29436 47.4407 1.17984C47.7333 1.04594 48.0532 0.982051 48.375 0.993264H59.1899C59.5117 0.981531 59.8317 1.04545 60.1243 1.17984C60.3555 1.28957 60.5597 1.44882 60.7222 1.64626C60.8713 1.83808 60.9822 2.05655 61.0492 2.28992C61.117 2.52018 61.1516 2.7589 61.1521 2.99888C61.1517 3.24041 61.117 3.48064 61.0492 3.71249C60.9812 3.9468 60.8651 4.16441 60.7082 4.35148C60.5441 4.55117 60.3364 4.71072 60.1009 4.8179C59.8215 4.94034 59.5183 4.99928 59.2133 4.99047H56.0506V7.50914C56.0506 8.05485 56.0506 8.57722 56.0039 9.07162C55.9571 9.56603 55.9244 10.0511 55.8637 10.5175C56.6774 10.8014 57.4454 11.202 58.1435 11.7069C58.8407 12.2282 59.4175 12.8931 59.8346 13.6565C60.3253 14.5708 60.6645 15.5584 60.839 16.581C60.9536 17.1973 61.0269 17.8206 61.0586 18.4466C61.0758 18.74 61.0327 19.0338 60.932 19.31C60.8313 19.5861 60.675 19.8388 60.4729 20.0524C60.2707 20.2661 60.0269 20.4361 59.7564 20.5522C59.486 20.6683 59.1946 20.7279 58.9003 20.7274C58.3432 20.7244 57.8085 20.5078 57.4068 20.1224C57.0052 19.737 56.7671 19.2122 56.742 18.6565C56.7159 18.0584 56.6139 17.4659 56.4383 16.8935C56.1802 15.9931 55.6234 15.207 54.8593 14.664C54.3501 16.0411 53.581 17.3078 52.5935 18.3953C51.6932 19.3729 50.5942 20.1474 49.3701 20.6668C49.1165 20.7781 48.8435 20.8384 48.5665 20.844C48.2833 20.8509 48.0005 20.8196 47.7257 20.7507C47.4596 20.6855 47.2068 20.575 46.9782 20.4242C46.7583 20.2854 46.5832 20.0862 46.4736 19.8506C46.2511 19.4194 46.193 18.9221 46.3101 18.4513C46.3689 18.2092 46.4756 17.9812 46.6241 17.781C46.7725 17.5807 46.9597 17.4122 47.1744 17.2853C47.8893 16.8465 48.5388 16.3095 49.1038 15.6901C49.6545 15.076 50.1068 14.3806 50.4446 13.6285C50.8234 12.7561 51.0902 11.8393 51.2387 10.9C51.4211 9.74619 51.5071 8.57922 51.4957 7.41118L51.505 4.99047ZM65.6135 22.0147C64.994 22.0147 64.3998 21.769 63.9618 21.3317C63.5237 20.8943 63.2776 20.3011 63.2776 19.6826V2.42517C63.2553 2.10326 63.3069 1.7805 63.4283 1.48146C63.5497 1.18242 63.7379 0.914982 63.9784 0.699447C64.4357 0.315541 65.016 0.108612 65.6135 0.116424C66.2109 0.108612 66.7912 0.315541 67.2486 0.699447C67.4891 0.914982 67.6772 1.18242 67.7986 1.48146C67.9201 1.7805 67.9716 2.10326 67.9493 2.42517V19.6826C67.9493 20.3011 67.7032 20.8943 67.2651 21.3317C66.8271 21.769 66.233 22.0147 65.6135 22.0147Z" fill="white"/>
<path d="M82.385 9.56161V8.18568H78.1104C77.537 8.20031 76.964 8.14233 76.4052 8.0131C76.0185 7.92477 75.6661 7.72532 75.3915 7.43939C75.1289 7.13581 74.9587 6.7636 74.901 6.36663C74.8037 5.80454 74.7599 5.23455 74.7701 4.66423V3.94126C74.7608 3.37869 74.8046 2.81652 74.901 2.26216C74.9619 1.86334 75.1316 1.48896 75.3915 1.18007C75.6634 0.890757 76.0169 0.69071 76.4052 0.606385C76.9653 0.485534 77.5376 0.430727 78.1104 0.443122H91.4013C91.9742 0.430727 92.5464 0.485534 93.1064 0.606385C93.4956 0.692022 93.8503 0.891789 94.1249 1.18007C94.3729 1.49369 94.534 1.86684 94.5921 2.26216C94.6843 2.81698 94.7265 3.37892 94.7182 3.94126V6.306C94.7182 6.80081 94.5213 7.27535 94.1709 7.62523C93.8204 7.97511 93.3451 8.17167 92.8495 8.17167H87.094V9.54761H93.8446C94.1326 9.5402 94.4189 9.59262 94.6855 9.70153C94.9028 9.79196 95.0986 9.92703 95.2601 10.098C95.4051 10.2588 95.512 10.4501 95.5731 10.6577C95.6341 10.8652 95.6656 11.0804 95.6666 11.2967C95.6722 11.7346 95.5234 12.1606 95.2461 12.5C95.0683 12.6886 94.8493 12.8338 94.6063 12.9244C94.3633 13.0149 94.1027 13.0485 93.8446 13.0224H75.6251C75.367 13.0485 75.1064 13.0149 74.8633 12.9244C74.6203 12.8338 74.4014 12.6886 74.2236 12.5C73.9463 12.1606 73.7975 11.7346 73.8031 11.2967C73.8041 11.0804 73.8355 10.8652 73.8965 10.6577C73.9575 10.449 74.0663 10.2574 74.2142 10.098C74.3732 9.92615 74.5677 9.79089 74.7842 9.70153C75.0508 9.59262 75.3371 9.5402 75.6251 9.54761L82.385 9.56161ZM87.0567 15.625C87.0567 15.6717 87.0567 15.7183 87.0567 15.765C87.0521 15.8115 87.0521 15.8584 87.0567 15.9049C87.9987 15.8893 88.9394 15.9832 89.8597 16.1847C90.7531 16.3784 91.6044 16.7307 92.373 17.2249C93.1398 17.7268 93.795 18.3809 94.2977 19.1465V19.1698C94.4765 19.4497 94.5772 19.7722 94.5895 20.104C94.6018 20.4357 94.5252 20.7647 94.3676 21.057C94.21 21.3494 93.9771 21.5944 93.693 21.7669C93.4089 21.9394 93.0839 22.0331 92.7515 22.0383H91.7003C91.3898 22.0403 91.0837 21.965 90.8096 21.8192C90.5356 21.6735 90.3022 21.4618 90.1306 21.2034C89.7325 20.6083 89.1869 20.1263 88.5469 19.8041C87.5437 19.313 86.4157 19.1342 85.3095 19.2911C84.7214 19.8476 84.0577 20.3187 83.338 20.6903C82.5931 21.0918 81.8108 21.4199 81.0022 21.6698C80.211 21.9099 79.3968 22.0662 78.5729 22.1362C77.8201 22.2232 77.0599 22.2232 76.3071 22.1362C75.7465 22.0795 75.2206 21.8383 74.8122 21.4506C74.6308 21.2571 74.4946 21.0257 74.4138 20.7732C74.333 20.5207 74.3096 20.2534 74.3451 19.9907C74.3585 19.7537 74.4266 19.5231 74.5441 19.3167C74.6616 19.1104 74.8253 18.934 75.0224 18.8014C75.4337 18.5235 75.9301 18.3996 76.4239 18.4515C77.0696 18.5164 77.7216 18.4738 78.3533 18.3256C78.9725 18.1853 79.5719 17.9691 80.1379 17.6819C80.6564 17.4315 81.1299 17.0974 81.5394 16.6931C81.8636 16.3583 82.0954 15.9453 82.2121 15.4944C82.2598 15.1978 82.3671 14.9138 82.5277 14.6597C82.6883 14.4056 82.8988 14.1866 83.1465 14.0159C83.6668 13.7266 84.2564 13.5847 84.8516 13.6054C85.4133 13.5905 85.964 13.7628 86.4166 14.0952C86.6343 14.2773 86.8043 14.5097 86.9118 14.7722C87.0192 15.0347 87.0609 15.3195 87.0333 15.6017L87.0567 15.625ZM79.4652 4.40767C79.453 4.58232 79.4902 4.7569 79.5726 4.91141C79.6427 5.01403 79.7922 5.06067 80.0398 5.06067H89.6634C89.7873 5.06067 89.9062 5.01152 89.9938 4.92405C90.0814 4.83658 90.1306 4.71795 90.1306 4.59425V4.17447C90.1419 4.01059 90.101 3.84733 90.0138 3.70805C89.9528 3.64862 89.879 3.60388 89.7981 3.57721C89.7171 3.55054 89.6311 3.54265 89.5466 3.55415H80.0398C79.8062 3.55415 79.6567 3.60544 79.5726 3.70805C79.493 3.85011 79.4557 4.01194 79.4652 4.17447V4.40767Z" fill="white"/>
<path d="M104.295 13.9457C103.506 13.949 102.721 13.8471 101.959 13.6426C101.253 13.4566 100.587 13.1402 99.9972 12.7097C99.4373 12.301 98.9787 11.7697 98.6564 11.1565C98.3047 10.472 98.1312 9.71012 98.1519 8.94106V7.23863C98.1487 6.94585 98.1929 6.65448 98.2827 6.37576C98.3716 6.1059 98.4924 5.84754 98.6424 5.60616C98.3999 5.62345 98.1565 5.58636 97.9302 5.49759C97.7038 5.40881 97.5003 5.27061 97.3344 5.09312C97.0417 4.78346 96.8752 4.37604 96.8672 3.95039C96.8722 3.51611 97.0255 3.09655 97.3017 2.76103C97.4565 2.57079 97.6548 2.42059 97.8801 2.32316C98.1054 2.22573 98.3508 2.18394 98.5957 2.20132H101.983V2.15469C101.964 1.85551 102.012 1.55589 102.123 1.27756C102.235 0.999237 102.407 0.749178 102.627 0.545542C103.102 0.155534 103.705 -0.0440175 104.318 -0.0141656C104.939 -0.0422831 105.547 0.162364 106.024 0.559519C106.244 0.760557 106.417 1.0079 106.53 1.28374C106.643 1.55958 106.694 1.85706 106.678 2.15469V2.20132H110.041C110.287 2.18115 110.534 2.22166 110.761 2.31926C110.987 2.41686 111.186 2.56857 111.34 2.76103C111.601 3.1033 111.743 3.52053 111.746 3.95039C111.749 4.36549 111.609 4.76895 111.349 5.09312C111.192 5.27444 110.993 5.41556 110.769 5.50479C110.546 5.59402 110.304 5.62876 110.065 5.60616H109.971C110.303 6.08661 110.482 6.65535 110.485 7.23863V8.96438C110.505 9.73283 110.333 10.4942 109.985 11.1799C109.66 11.7922 109.2 12.3232 108.64 12.733C108.05 13.1635 107.384 13.4799 106.678 13.6659C105.9 13.8667 105.098 13.9609 104.295 13.9457ZM102.3 22.0241C101.754 22.0381 101.208 21.9753 100.679 21.8375C100.293 21.7397 99.9406 21.5381 99.6608 21.2545C99.394 20.9587 99.2131 20.5959 99.1376 20.205C99.0259 19.684 98.9742 19.152 98.9835 18.6192V16.8935C98.9563 16.5663 99.0069 16.2374 99.1311 15.9335C99.2553 15.6296 99.4496 15.3592 99.6982 15.1444C100.18 14.7681 100.778 14.5703 101.389 14.5847C101.992 14.5664 102.58 14.7651 103.048 15.1444C103.287 15.3653 103.472 15.6377 103.589 15.9408C103.706 16.2439 103.753 16.5697 103.725 16.8935V17.8263C103.725 18.0922 103.767 18.2554 103.842 18.2927C104 18.3743 104.179 18.4068 104.356 18.386H116.596C116.874 18.3585 117.155 18.3937 117.417 18.489C117.68 18.5842 117.918 18.7371 118.114 18.9364C118.412 19.2832 118.578 19.7245 118.581 20.1817C118.585 20.6487 118.419 21.1012 118.114 21.4551C117.919 21.6522 117.682 21.8035 117.421 21.8979C117.16 21.9923 116.881 22.0274 116.605 22.0008L102.3 22.0241ZM104.286 10.6202C104.767 10.6181 105.233 10.4537 105.608 10.1537C105.806 9.99804 105.964 9.7966 106.067 9.5667C106.171 9.3368 106.217 9.08529 106.201 8.83377V7.22465C106.216 6.97385 106.17 6.72314 106.067 6.49405C105.963 6.26496 105.806 6.06433 105.608 5.90935C105.232 5.6097 104.767 5.44536 104.286 5.44293C103.806 5.44531 103.342 5.60972 102.968 5.90935C102.77 6.0641 102.612 6.26457 102.507 6.49362C102.403 6.72267 102.356 6.9735 102.37 7.22465V8.83377C102.356 9.08564 102.403 9.33727 102.507 9.56713C102.611 9.79699 102.769 9.99826 102.968 10.1537C103.346 10.4523 103.814 10.6136 104.295 10.6108L104.286 10.6202ZM113.162 2.43453C113.139 2.11468 113.188 1.79378 113.305 1.49523C113.423 1.19668 113.605 0.927987 113.839 0.708776C114.286 0.323071 114.86 0.115492 115.451 0.125754C116.041 0.120342 116.612 0.333021 117.053 0.722783C117.288 0.938987 117.472 1.20487 117.591 1.50104C117.71 1.7972 117.761 2.11615 117.74 2.43453V5.95598H118.464C118.771 5.94613 119.075 6.01013 119.352 6.14256C119.572 6.25333 119.764 6.41287 119.913 6.60897C120.054 6.80536 120.158 7.02697 120.216 7.26194C120.276 7.49352 120.308 7.73165 120.31 7.97091C120.308 8.2117 120.277 8.45139 120.216 8.68454C120.158 8.91951 120.054 9.14112 119.913 9.33751C119.763 9.53644 119.567 9.69643 119.343 9.80392C119.069 9.93646 118.768 10.0005 118.464 9.9905H117.74V14.3049C117.74 14.911 117.499 15.4923 117.07 15.9209C116.64 16.3495 116.058 16.5903 115.451 16.5903C114.844 16.5903 114.262 16.3495 113.832 15.9209C113.403 15.4923 113.162 14.911 113.162 14.3049V2.43453Z" fill="white"/>
<path d="M133.049 4.33793V4.47785C133.049 4.69706 133.049 4.89762 133.049 5.08418C133.049 5.27075 133.012 5.45732 132.979 5.64389C134.723 5.67809 136.013 6.15696 136.847 7.08047C137.226 7.51584 137.512 8.02365 137.688 8.57298C137.789 8.89604 137.813 9.23838 137.757 9.57226C137.701 9.90614 137.567 10.2222 137.366 10.4947C137.165 10.7673 136.902 10.9887 136.6 11.141C136.297 11.2933 135.962 11.3723 135.623 11.3715C135.184 11.3682 134.755 11.233 134.394 10.9835C134.032 10.734 133.754 10.3816 133.596 9.97223C133.522 9.79022 133.421 9.62041 133.297 9.46852C133.1 9.24368 132.851 9.07069 132.572 8.96493C132.292 8.85916 131.991 8.82389 131.694 8.86218C131.043 9.73623 130.173 10.4245 129.172 10.8584C128.186 11.295 127.12 11.5206 126.042 11.5207C125.517 11.5376 125.002 11.3729 124.584 11.0543C124.391 10.9077 124.235 10.7168 124.131 10.4976C124.027 10.2784 123.977 10.0374 123.986 9.79502C123.959 9.33128 124.105 8.87391 124.397 8.51237C124.682 8.19604 125.079 8.00351 125.505 7.97598C125.955 7.95565 126.396 7.84623 126.804 7.65406C127.211 7.4619 127.576 7.19081 127.878 6.85656C128.402 6.17699 128.67 5.33489 128.635 4.47785V4.33793H125.832C125.577 4.34513 125.325 4.28901 125.098 4.17466C124.894 4.07338 124.715 3.93035 124.57 3.7549C124.43 3.58483 124.319 3.39246 124.243 3.18586C124.165 2.9802 124.126 2.76206 124.126 2.5422C124.129 2.32907 124.16 2.11728 124.22 1.91255C124.281 1.69708 124.384 1.49577 124.523 1.32019C124.669 1.13821 124.852 0.990158 125.061 0.886422C125.302 0.773641 125.565 0.717793 125.832 0.723187H136.179C136.445 0.71677 136.709 0.772667 136.95 0.886422C137.159 0.990158 137.342 1.13821 137.487 1.32019C137.627 1.49577 137.73 1.69708 137.791 1.91255C137.85 2.11728 137.882 2.32907 137.884 2.5422C137.885 2.76206 137.846 2.9802 137.768 3.18586C137.691 3.39246 137.581 3.58483 137.441 3.7549C137.298 3.93014 137.12 4.07319 136.917 4.17466C136.689 4.28903 136.435 4.34513 136.179 4.33793H133.049ZM126.742 14.9489C126.56 14.9668 126.376 14.9391 126.208 14.8682C126.039 14.7974 125.89 14.6857 125.775 14.5432C125.578 14.2726 125.475 13.945 125.481 13.6103C125.481 13.2751 125.587 12.9484 125.785 12.6775C125.893 12.5341 126.035 12.4194 126.198 12.3438C126.361 12.2681 126.54 12.2338 126.719 12.2437H142.229C143.243 12.2437 143.958 12.4256 144.378 12.7801C144.798 13.1346 145.009 13.7689 145.009 14.6457V16.8939C145.009 17.0835 144.971 17.2713 144.898 17.4465C144.826 17.6217 144.719 17.7807 144.584 17.9146C144.45 18.0485 144.29 18.1546 144.114 18.2268C143.939 18.2989 143.75 18.3357 143.56 18.3351H130.643C130.574 18.3301 130.504 18.3391 130.439 18.3615C130.373 18.384 130.312 18.4194 130.26 18.4657C130.218 18.5057 130.184 18.5542 130.161 18.6081C130.139 18.6619 130.128 18.7199 130.129 18.7782V18.8482C130.128 18.9073 130.138 18.966 130.161 19.0207C130.183 19.0754 130.217 19.1246 130.26 19.1653C130.312 19.2108 130.373 19.2454 130.439 19.267C130.505 19.2887 130.574 19.2969 130.643 19.2913H143.878C144.066 19.2757 144.254 19.3057 144.427 19.3788C144.601 19.452 144.754 19.5659 144.873 19.711C145.076 19.9801 145.186 20.3073 145.186 20.6439C145.181 20.9682 145.075 21.2829 144.883 21.5441C144.764 21.6935 144.61 21.811 144.435 21.886C144.26 21.9609 144.068 21.9909 143.878 21.9732H128.462C127.982 21.985 127.505 21.8976 127.06 21.7167C126.674 21.5604 126.325 21.3271 126.032 21.031C125.756 20.7471 125.541 20.4088 125.402 20.0375C125.261 19.6649 125.19 19.2697 125.191 18.8715V18.5917C125.174 18.2181 125.241 17.8454 125.386 17.5008C125.532 17.1562 125.752 16.8485 126.032 16.6C126.717 16.069 127.573 15.8068 128.438 15.8631H140.258V15.2801C140.267 15.1786 140.242 15.0771 140.188 14.9909C140.145 14.957 140.097 14.932 140.044 14.9176C139.992 14.9031 139.938 14.8995 139.884 14.9069L126.742 14.9489ZM140.384 7.64948H139.052C138.784 7.68057 138.513 7.64821 138.259 7.55502C138.006 7.46184 137.779 7.31047 137.595 7.11312C137.318 6.75246 137.173 6.30809 137.184 5.85378C137.179 5.40691 137.318 4.97032 137.581 4.60843C137.764 4.40621 137.994 4.25076 138.25 4.15502C138.506 4.05928 138.781 4.02603 139.052 4.05806H140.384V2.37896C140.362 2.06261 140.414 1.74551 140.535 1.45256C140.657 1.15961 140.845 0.898787 141.085 0.690534C141.536 0.31379 142.108 0.110365 142.696 0.11685C142.991 0.116844 143.284 0.168933 143.56 0.270747C143.834 0.366918 144.087 0.512383 144.308 0.699872C144.531 0.893418 144.711 1.13182 144.836 1.3995C144.973 1.70765 145.039 2.04205 145.032 2.37896V9.31927C145.032 9.93777 144.786 10.5309 144.348 10.9683C143.91 11.4056 143.316 11.6514 142.696 11.6514C142.077 11.6514 141.483 11.4056 141.045 10.9683C140.606 10.5309 140.36 9.93777 140.36 9.31927L140.384 7.64948Z" fill="white"/>
<path d="M151.058 12.4301C150.524 12.4427 149.99 12.3847 149.47 12.2575C149.091 12.166 148.747 11.9667 148.48 11.6839C148.221 11.3907 148.046 11.0328 147.975 10.6484C147.874 10.137 147.827 9.61644 147.835 9.09524V2.82191C147.807 2.50926 147.852 2.19437 147.965 1.9016C148.078 1.60884 148.258 1.34604 148.489 1.13348C148.948 0.775269 149.518 0.5888 150.101 0.606429C150.664 0.575241 151.217 0.7643 151.642 1.13348C151.847 1.36128 152.003 1.62879 152.099 1.91931C152.196 2.20983 152.231 2.51712 152.203 2.82191V3.24167H156.127V2.82191C156.097 2.51373 156.133 2.20267 156.232 1.90923C156.331 1.6158 156.491 1.34663 156.702 1.11948C157.135 0.758979 157.689 0.575689 158.253 0.606429C158.795 0.582233 159.328 0.747141 159.762 1.07285C159.974 1.26549 160.144 1.50113 160.258 1.7641C160.372 2.02708 160.429 2.31135 160.425 2.59801H163.765V2.3648C163.744 2.04845 163.796 1.73138 163.917 1.43843C164.039 1.14548 164.227 0.884627 164.466 0.676374C164.918 0.299629 165.489 0.096205 166.078 0.102689C166.373 0.102288 166.666 0.154418 166.942 0.256615C167.213 0.351843 167.464 0.497435 167.68 0.685712C167.896 0.882496 168.071 1.12034 168.194 1.38534C168.331 1.69349 168.398 2.02789 168.39 2.3648V10.6904C168.391 10.9957 168.331 11.2981 168.213 11.5801C168.096 11.862 167.924 12.1178 167.706 12.3326C167.489 12.5475 167.231 12.717 166.947 12.8314C166.664 12.9458 166.36 13.0029 166.055 12.9992C165.439 12.9992 164.848 12.7567 164.411 12.3244C163.974 11.892 163.725 11.3048 163.719 10.6904V10.5971H160.378V11.1708C160.377 11.5015 160.245 11.8182 160.01 12.0517C159.775 12.2851 159.458 12.4161 159.126 12.4161L151.058 12.4301ZM150.591 17.5607C150.319 17.5797 150.046 17.5441 149.787 17.456C149.529 17.3679 149.291 17.229 149.087 17.0477C148.911 16.8748 148.774 16.6674 148.683 16.4385C148.592 16.2097 148.55 15.9644 148.559 15.7184C148.551 15.4724 148.593 15.2274 148.684 14.9987C148.775 14.7699 148.912 14.5624 149.087 14.3891C149.292 14.2088 149.53 14.0706 149.788 13.9826C150.046 13.8945 150.319 13.8583 150.591 13.876H165.073C165.669 13.8632 166.265 13.9179 166.849 14.0393C167.251 14.1207 167.618 14.3244 167.9 14.6223C168.166 14.9394 168.341 15.3233 168.404 15.7324C168.497 16.3059 168.54 16.8865 168.531 17.4674V19.6596C168.534 19.9678 168.475 20.2736 168.359 20.5592C168.243 20.8448 168.072 21.1047 167.855 21.3237C167.637 21.5428 167.379 21.7166 167.094 21.8353C166.809 21.9539 166.503 22.015 166.195 22.015C165.884 22.0181 165.576 21.9593 165.288 21.8421C165.001 21.7248 164.739 21.5514 164.52 21.3321C164.3 21.1127 164.126 20.8518 164.009 20.5646C163.891 20.2775 163.832 19.9698 163.835 19.6596V18.1204C163.835 17.972 163.776 17.8296 163.671 17.7247C163.566 17.6197 163.424 17.5607 163.275 17.5607H150.591ZM156.127 8.62415V6.79114C156.127 6.67857 156.082 6.5706 156.003 6.491C155.923 6.4114 155.815 6.36668 155.702 6.36668H152.628C152.515 6.36668 152.407 6.4114 152.328 6.491C152.248 6.5706 152.203 6.67857 152.203 6.79114V8.46556C152.203 8.73142 152.245 8.89466 152.32 8.95529C152.478 9.03687 152.657 9.06936 152.834 9.04858H155.702C155.758 9.04858 155.813 9.0376 155.865 9.01627C155.916 8.99494 155.963 8.96368 156.003 8.92426C156.042 8.88485 156.074 8.83806 156.095 8.78656C156.116 8.73507 156.127 8.67989 156.127 8.62415ZM160.425 7.46278H163.765V5.76034H160.425V7.46278Z" fill="white"/>
<path d="M190.417 10.6342C190.737 10.6227 191.055 10.6783 191.352 10.7974C191.583 10.8966 191.79 11.0446 191.959 11.2312C192.113 11.4026 192.229 11.6044 192.3 11.8235C192.369 12.0422 192.404 12.2704 192.403 12.4998C192.4 12.9657 192.235 13.4161 191.935 13.7732C191.745 13.9779 191.51 14.1358 191.248 14.2345C190.986 14.3332 190.705 14.3701 190.427 14.3422H172.487C172.21 14.3701 171.929 14.3332 171.668 14.2344C171.407 14.1357 171.173 13.9778 170.983 13.7732C170.684 13.4157 170.519 12.9656 170.516 12.4998C170.516 12.2702 170.552 12.042 170.623 11.8235C170.694 11.6055 170.809 11.4041 170.96 11.2312C171.128 11.0446 171.336 10.8966 171.567 10.7974C171.864 10.6789 172.182 10.6233 172.501 10.6342H190.417ZM176.402 9.37484C175.642 9.38979 174.884 9.27948 174.16 9.04834C173.569 8.85639 173.027 8.53805 172.571 8.1155C172.159 7.72499 171.839 7.24676 171.637 6.71625C171.419 6.13489 171.311 5.51802 171.319 4.89724C171.312 4.27351 171.42 3.65378 171.637 3.06886C171.838 2.52692 172.157 2.03631 172.571 1.63231C173.029 1.21236 173.57 0.894372 174.16 0.699478C174.883 0.460961 175.641 0.345833 176.402 0.358973H186.633C187.394 0.345475 188.153 0.460612 188.875 0.699478C189.466 0.893318 190.007 1.21143 190.464 1.63231C190.878 2.0365 191.197 2.52706 191.398 3.06886C191.614 3.65407 191.72 4.2738 191.711 4.89724C191.721 5.51773 191.615 6.13458 191.398 6.71625C191.195 7.24654 190.876 7.72468 190.464 8.1155C190.009 8.53902 189.467 8.8575 188.875 9.04834C188.151 9.27989 187.394 9.39022 186.633 9.37484H176.402ZM175.047 22.0148C174.497 22.0272 173.948 21.9692 173.412 21.8422C173.022 21.7516 172.666 21.5527 172.385 21.2685C172.12 20.9769 171.939 20.619 171.861 20.233C171.749 19.7074 171.697 19.1706 171.707 18.6332V17.3039C171.673 16.9855 171.722 16.6638 171.849 16.3698C171.976 16.0757 172.176 15.8192 172.431 15.6248C172.939 15.2997 173.534 15.137 174.136 15.1584C174.734 15.1412 175.321 15.3179 175.809 15.6621C176.05 15.8631 176.239 16.1197 176.359 16.4099C176.478 16.7 176.525 17.0149 176.496 17.3273V17.8403C176.496 18.1062 176.533 18.2694 176.612 18.3068C176.771 18.3883 176.95 18.4208 177.126 18.4H189.74C190.018 18.3725 190.299 18.4077 190.562 18.503C190.824 18.5982 191.062 18.7511 191.258 18.9504C191.559 19.2959 191.725 19.738 191.725 20.1957C191.729 20.6627 191.563 21.1152 191.258 21.469C191.063 21.6662 190.826 21.8175 190.565 21.9119C190.304 22.0063 190.025 22.0414 189.749 22.0148H175.047ZM185.465 5.96999C185.876 6.01565 186.289 5.90761 186.624 5.66681C186.727 5.56775 186.809 5.44799 186.863 5.31537C186.916 5.18276 186.942 5.04029 186.937 4.89724C186.945 4.75386 186.921 4.61052 186.866 4.47748C186.812 4.34444 186.73 4.22498 186.624 4.12764C186.281 3.90453 185.872 3.80575 185.465 3.8478H177.57C177.165 3.80569 176.757 3.90452 176.416 4.12764C176.31 4.22475 176.226 4.34404 176.171 4.47705C176.116 4.61006 176.092 4.75354 176.098 4.89724C176.094 5.04059 176.121 5.18321 176.175 5.3158C176.23 5.4484 176.312 5.56799 176.416 5.66681C176.75 5.90771 177.161 6.01582 177.57 5.96999H185.465Z" fill="white"/>
<path d="M197.191 5.73715C197.163 4.90397 197.323 4.07513 197.658 3.31177C197.963 2.6626 198.424 2.09862 198.999 1.66997C199.619 1.22235 200.323 0.904997 201.069 0.737133C201.937 0.533416 202.826 0.434757 203.717 0.443288C205.175 0.395002 206.622 0.715912 207.922 1.37612C208.475 1.67952 208.952 2.10473 209.316 2.61952C209.681 3.1343 209.923 3.72513 210.024 4.3472H213.248V2.38827C213.226 2.07192 213.278 1.75482 213.399 1.46187C213.521 1.16892 213.709 0.908092 213.948 0.69984C214.4 0.323095 214.972 0.119642 215.56 0.126127C215.855 0.126121 216.148 0.178239 216.424 0.280053C216.698 0.376224 216.951 0.52166 217.172 0.709149C217.395 0.902695 217.575 1.1411 217.7 1.40878C217.836 1.71692 217.903 2.05135 217.896 2.38827V11.9498H213.224V7.98529H209.954C209.839 8.59641 209.587 9.1737 209.217 9.67431C208.847 10.1749 208.37 10.586 207.819 10.8771C206.53 11.5077 205.105 11.8121 203.671 11.7633C202.767 11.7734 201.865 11.6763 200.985 11.4741C200.239 11.309 199.536 10.9914 198.92 10.5412C198.348 10.111 197.894 9.54502 197.598 8.89478C197.268 8.12964 197.108 7.30212 197.13 6.46943L197.191 5.73715ZM200.625 22.0151C200.153 22.0286 199.682 21.9784 199.223 21.8659C198.894 21.7871 198.597 21.6117 198.368 21.3621C198.155 21.1035 198.011 20.7955 197.948 20.4666C197.862 20.0164 197.822 19.5584 197.831 19.1V14.4358C197.801 14.1703 197.832 13.9013 197.921 13.6493C198.01 13.3972 198.155 13.1686 198.345 12.9806C198.752 12.6881 199.246 12.5433 199.747 12.5702C200.234 12.5418 200.716 12.691 201.101 12.9899C201.282 13.1734 201.421 13.393 201.509 13.6343C201.598 13.8756 201.634 14.1329 201.615 14.3892H204.138C204.109 14.1361 204.135 13.8796 204.216 13.6378C204.297 13.3961 204.43 13.1749 204.605 12.9899C205.008 12.6899 205.505 12.5443 206.007 12.5795C206.499 12.5477 206.986 12.697 207.375 12.9993C207.551 13.1941 207.683 13.4235 207.763 13.6726C207.844 13.9217 207.871 14.1849 207.843 14.4452V22.0245L200.625 22.0151ZM204.152 19.1233V17.2577H201.629V18.587C201.604 18.7486 201.637 18.9139 201.723 19.0534C201.862 19.1403 202.028 19.1735 202.19 19.1467L204.152 19.1233ZM201.746 6.6933C201.727 6.94116 201.767 7.19003 201.863 7.41949C201.958 7.64894 202.107 7.85245 202.297 8.01327C202.712 8.31682 203.218 8.46837 203.732 8.44237C204.246 8.46754 204.754 8.31613 205.17 8.01327C205.359 7.8515 205.507 7.64771 205.601 7.4184C205.696 7.1891 205.736 6.9407 205.717 6.6933V5.50394C205.736 5.25726 205.696 5.00966 205.601 4.78117C205.506 4.55267 205.358 4.34969 205.17 4.18864C204.754 3.88412 204.247 3.73104 203.732 3.75487C203.218 3.73021 202.711 3.88343 202.297 4.18864C202.108 4.34873 201.959 4.55141 201.863 4.78006C201.767 5.0087 201.727 5.2568 201.746 5.50394V6.6933ZM209.267 18.9368C209.638 18.807 209.985 18.618 210.295 18.3771C210.596 18.1376 210.847 17.8412 211.033 17.5049C211.248 17.1094 211.405 16.6853 211.5 16.2455C211.622 15.6656 211.684 15.0749 211.687 14.4825C211.67 14.2027 211.719 13.9228 211.832 13.6658C211.944 13.4087 212.115 13.1819 212.332 13.0039C212.769 12.6888 213.297 12.525 213.836 12.5375C214.37 12.5119 214.894 12.6922 215.299 13.0412C215.489 13.2428 215.635 13.4827 215.725 13.745C215.815 14.0072 215.848 14.2857 215.822 14.5618C215.822 14.8416 215.822 15.1121 215.789 15.3687C215.756 15.6252 215.738 15.8771 215.705 16.1243C216.259 16.2147 216.789 16.4163 217.263 16.717C217.736 17.0176 218.144 17.4109 218.461 17.8733C218.842 18.4642 219.093 19.1285 219.199 19.823C219.249 20.0945 219.238 20.3737 219.167 20.6404C219.095 20.9071 218.966 21.1546 218.787 21.3652C218.608 21.5758 218.385 21.7442 218.133 21.8582C217.881 21.9722 217.607 22.029 217.331 22.0245H217.121C216.668 22.0188 216.231 21.8531 215.889 21.5568C215.547 21.2605 215.321 20.8528 215.252 20.406C215.188 19.9958 214.965 19.6272 214.63 19.3799C214.16 20.2232 213.491 20.9401 212.682 21.4694C211.957 21.944 211.126 22.2353 210.262 22.3183C209.779 22.3872 209.286 22.2937 208.861 22.0524C208.691 21.9501 208.544 21.8148 208.428 21.6546C208.311 21.4944 208.228 21.3124 208.184 21.1196C208.088 20.6975 208.117 20.2568 208.268 19.851C208.353 19.6299 208.489 19.432 208.665 19.2732C208.841 19.1144 209.053 18.9991 209.281 18.9368H209.267Z" fill="white"/>
<path d="M236.62 12.5232H233.574V15.3217C233.592 16.2495 233.434 17.1723 233.107 18.0409C232.821 18.7852 232.375 19.4573 231.799 20.0092C231.219 20.5522 230.525 20.9587 229.767 21.1985C228.914 21.4727 228.023 21.6066 227.127 21.595C226.232 21.6066 225.34 21.4727 224.488 21.1985C223.727 20.9576 223.03 20.5514 222.446 20.0092C221.863 19.4606 221.411 18.7879 221.124 18.0409C220.799 17.1717 220.641 16.2493 220.657 15.3217V6.78625C220.641 5.86017 220.799 4.93931 221.124 4.0717C221.412 3.32401 221.864 2.64998 222.446 2.09876C223.033 1.55971 223.729 1.15393 224.488 0.909371C225.341 0.637759 226.232 0.503933 227.127 0.512927C228.022 0.503933 228.914 0.637759 229.767 0.909371C230.523 1.15296 231.217 1.55894 231.799 2.09876C232.374 2.65318 232.82 3.32659 233.107 4.0717C233.434 4.93869 233.593 5.85999 233.574 6.78625V8.55864H236.634V2.40191C236.612 2.08556 236.664 1.76846 236.786 1.47551C236.907 1.18256 237.095 0.921736 237.335 0.713484C237.786 0.336739 238.358 0.133314 238.946 0.139799C239.241 0.139793 239.534 0.191882 239.811 0.293696C240.084 0.389867 240.337 0.535332 240.558 0.722821C240.781 0.916367 240.961 1.15477 241.086 1.42245C241.223 1.7306 241.29 2.065 241.282 2.40191V19.692C241.282 20.3105 241.036 20.9037 240.598 21.3411C240.16 21.7784 239.566 22.0241 238.946 22.0241C238.327 22.0241 237.733 21.7784 237.295 21.3411C236.857 20.9037 236.611 20.3105 236.611 19.692L236.62 12.5232ZM225.221 15.415C225.171 16.0478 225.359 16.6766 225.749 17.178C225.921 17.3662 226.133 17.5145 226.368 17.6128C226.604 17.7111 226.858 17.7569 227.113 17.7471C227.369 17.757 227.624 17.7112 227.86 17.6129C228.097 17.5147 228.309 17.3663 228.482 17.178C228.87 16.6759 229.057 16.0472 229.005 15.415V6.63233C229.057 6.00151 228.87 5.37419 228.482 4.87392C228.309 4.68508 228.097 4.53599 227.861 4.43694C227.624 4.33789 227.369 4.29125 227.113 4.30024C226.858 4.2913 226.603 4.33799 226.368 4.43706C226.132 4.53612 225.921 4.68519 225.749 4.87392C225.359 5.37352 225.171 6.00091 225.221 6.63233V15.415Z" fill="white"/>
<path d="M244.001 19.7761C243.985 19.4589 244.034 19.1417 244.147 18.8447C244.259 18.5476 244.433 18.2771 244.655 18.0503C244.909 17.827 245.206 17.6564 245.526 17.5483C245.847 17.4402 246.186 17.3968 246.524 17.4207C246.859 17.3995 247.195 17.4455 247.512 17.5561C247.829 17.6666 248.12 17.8394 248.369 18.0643C248.59 18.2897 248.762 18.5579 248.874 18.8523C248.987 19.1468 249.038 19.4612 249.023 19.7761C249.038 20.0917 248.987 20.4069 248.875 20.7022C248.762 20.9974 248.59 21.2664 248.369 21.4925C248.12 21.7166 247.828 21.8885 247.511 21.9983C247.194 22.108 246.859 22.1533 246.524 22.1315C246.186 22.1553 245.847 22.112 245.526 22.0039C245.206 21.8958 244.909 21.7251 244.655 21.5018C244.432 21.2752 244.259 21.0047 244.147 20.7076C244.034 20.4105 243.984 20.0933 244.001 19.7761ZM246.501 16.3246C245.869 16.3246 245.263 16.074 244.816 15.6279C244.369 15.1818 244.118 14.5767 244.118 13.9458V2.58858C244.111 2.2482 244.179 1.91047 244.319 1.59978C244.442 1.32541 244.62 1.07927 244.842 0.876806C245.064 0.680468 245.323 0.529908 245.604 0.433732C245.891 0.330684 246.195 0.278588 246.501 0.279806C246.8 0.280554 247.097 0.332624 247.379 0.433732C247.661 0.5331 247.922 0.683264 248.15 0.876806C248.378 1.07734 248.561 1.32372 248.687 1.59978C248.823 1.91151 248.89 2.24874 248.883 2.58858V13.9458C248.883 14.5767 248.632 15.1818 248.185 15.6279C247.739 16.074 247.133 16.3246 246.501 16.3246Z" fill="white"/>
<path d="M46.8335 49.1138C46.2052 49.1308 45.5773 49.0681 44.9648 48.9273C44.542 48.837 44.1581 48.6168 43.867 48.2976C43.5872 47.9557 43.4049 47.5448 43.3391 47.1082C43.2365 46.4996 43.1896 45.883 43.1989 45.2659V32.7192C43.19 32.1022 43.237 31.4855 43.3391 30.8769C43.4068 30.4409 43.589 30.0305 43.867 29.6875C44.1607 29.3716 44.5435 29.1521 44.9648 29.0579C45.5777 28.9194 46.2053 28.8567 46.8335 28.8713H52.3133C52.9415 28.8572 53.5691 28.9198 54.182 29.0579C54.6029 29.1532 54.9853 29.3725 55.2798 29.6875C55.5564 30.0309 55.7369 30.4413 55.8031 30.8769C55.9052 31.4855 55.9521 32.1022 55.9432 32.7192V47.0289C55.9432 47.5819 55.7232 48.1122 55.3316 48.5032C54.94 48.8942 54.4088 49.1138 53.855 49.1138H46.8335ZM47.7678 44.6129C47.7521 44.8234 47.8063 45.0332 47.922 45.2099C48.0037 45.2863 48.1014 45.3436 48.2081 45.3775C48.3148 45.4113 48.4277 45.421 48.5387 45.4058H50.6175C50.8282 45.4058 51.0301 45.3223 51.1791 45.1736C51.328 45.0249 51.4117 44.8232 51.4117 44.6129V33.3489C51.4213 33.1554 51.3811 32.9627 51.2949 32.7892C51.2201 32.6493 51.0473 32.5793 50.781 32.5793H48.3751C48.1135 32.5793 47.9453 32.6493 47.8753 32.7892C47.7971 32.9651 47.7603 33.1566 47.7678 33.3489V44.6129ZM58.5127 30.3638C58.4909 30.0475 58.5428 29.7304 58.6643 29.4374C58.7859 29.1445 58.9739 28.8837 59.2134 28.6754C59.6651 28.2987 60.2366 28.0952 60.8251 28.1017C61.12 28.1017 61.4126 28.1538 61.6894 28.2556C61.9603 28.3508 62.2108 28.4965 62.4275 28.6847C62.6437 28.8815 62.8184 29.1194 62.9414 29.3844C63.078 29.6925 63.145 30.0269 63.1376 30.3638V36.264H63.9084C64.215 36.2542 64.5194 36.3182 64.796 36.4506C65.0161 36.5614 65.2078 36.7209 65.3567 36.917C65.4986 37.1134 65.6016 37.335 65.6603 37.57C65.7228 37.8011 65.7543 38.0395 65.7537 38.2789C65.7543 38.5199 65.7228 38.7598 65.6603 38.9926C65.6016 39.2275 65.4986 39.4492 65.3567 39.6456C65.207 39.8445 65.0114 40.0045 64.7867 40.112C64.5135 40.2445 64.212 40.3085 63.9084 40.2985H63.1376V47.6773C63.1414 47.9846 63.0835 48.2895 62.9674 48.5741C62.8514 48.8588 62.6795 49.1174 62.4618 49.3347C62.2442 49.552 61.9852 49.7236 61.7001 49.8395C61.415 49.9554 61.1096 50.0131 60.8018 50.0093C60.1863 50.0032 59.5982 49.7548 59.1652 49.3181C58.7321 48.8814 58.4892 48.2917 58.4893 47.6773L58.5127 30.3638Z" fill="white"/>
<path d="M74.6767 42.1174H67.7299C67.4409 42.1266 67.1535 42.0708 66.889 41.9541C66.6721 41.8595 66.4802 41.7158 66.3284 41.5344C66.1871 41.3622 66.0808 41.1641 66.0154 40.9513C65.9453 40.7407 65.909 40.5203 65.908 40.2983C65.9095 40.0775 65.941 39.8578 66.0014 39.6454C66.0658 39.4284 66.1739 39.2268 66.3191 39.053C66.4746 38.8681 66.6692 38.72 66.889 38.6192C67.1542 38.5048 67.4411 38.4491 67.7299 38.456H85.9494C86.2383 38.4491 86.5252 38.5048 86.7904 38.6192C87.0107 38.7212 87.2066 38.8691 87.365 39.053C87.5088 39.227 87.6153 39.4286 87.6779 39.6454C87.7407 39.8574 87.7722 40.0773 87.7714 40.2983C87.7719 40.5201 87.7372 40.7405 87.6686 40.9513C87.6015 41.1644 87.4936 41.3624 87.3509 41.5344C87.1992 41.7158 87.0073 41.8595 86.7904 41.9541C86.5258 42.0708 86.2384 42.1266 85.9494 42.1174H79.4091V42.8077C79.4091 43.4262 79.163 44.0194 78.7249 44.4567C78.2869 44.8941 77.6928 45.1398 77.0733 45.1398C76.4538 45.1398 75.8596 44.8941 75.4216 44.4567C74.9835 44.0194 74.7374 43.4262 74.7374 42.8077L74.6767 42.1174ZM71.7569 37.3133C70.0471 37.3133 68.7671 36.9075 67.9262 36.0912C67.5029 35.6693 67.1721 35.164 66.9549 34.6076C66.7378 34.0511 66.639 33.4556 66.6648 32.859C66.6577 32.2352 66.7654 31.6155 66.9825 31.0306C67.1848 30.5001 67.5041 30.0219 67.9168 29.6314C68.3749 29.2127 68.9161 28.8948 69.5052 28.6985C70.2282 28.46 70.9862 28.3449 71.7475 28.3581H81.9785C82.7399 28.3442 83.4981 28.4593 84.2209 28.6985C84.8105 28.8938 85.3518 29.2118 85.8093 29.6314C86.2217 30.0221 86.541 30.5003 86.7436 31.0306C86.959 31.6158 87.0651 32.2355 87.0566 32.859C87.0824 33.4556 86.9836 34.0511 86.7665 34.6076C86.5493 35.164 86.2186 35.6693 85.7953 36.0912C84.9544 36.909 83.6774 37.3164 81.9645 37.3133H71.7569ZM70.4021 49.9998C69.8519 50.012 69.3025 49.954 68.767 49.8273C68.3774 49.7358 68.0214 49.537 67.7393 49.2536C67.4743 48.962 67.2935 48.6041 67.216 48.2181C67.1033 47.6925 67.0515 47.1557 67.0618 46.6183V45.1258C67.0338 44.8011 67.085 44.4745 67.2111 44.1739C67.3373 43.8733 67.5345 43.6078 67.786 43.4C68.2805 43.0402 68.8794 42.8518 69.4911 42.8636C70.0933 42.8488 70.6827 43.0378 71.1636 43.4C71.4056 43.6138 71.5938 43.8814 71.7131 44.1811C71.8324 44.4809 71.8794 44.8045 71.8503 45.1258V45.9187C71.8503 46.1845 71.8924 46.3291 71.9671 46.3524C72.1367 46.3819 72.3091 46.3929 72.481 46.3851H85.0712C85.3493 46.3576 85.6301 46.3928 85.8929 46.488C86.1557 46.5833 86.3937 46.7362 86.5894 46.9355C86.8879 47.2823 87.0535 47.7236 87.0566 48.1808C87.0606 48.6478 86.8946 49.1003 86.5894 49.4541C86.3943 49.6513 86.1576 49.8026 85.8966 49.8969C85.6356 49.9913 85.3568 50.0265 85.0805 49.9998H70.4021ZM80.8199 33.9084C81.2283 33.9529 81.6392 33.8504 81.9785 33.6192C82.0822 33.5223 82.1639 33.4043 82.2179 33.2731C82.2719 33.1419 82.297 33.0007 82.2915 32.859C82.3003 32.7176 82.2766 32.576 82.2224 32.4451C82.1681 32.3142 82.0847 32.1973 81.9785 32.1034C81.6312 31.8827 81.2207 31.7827 80.8106 31.8189H72.9155C72.5115 31.7792 72.1057 31.8743 71.7616 32.0894C71.6545 32.1829 71.5702 32.2996 71.5152 32.4305C71.4601 32.5614 71.4357 32.7032 71.4439 32.845C71.4393 32.987 71.4653 33.1284 71.5201 33.2595C71.5749 33.3907 71.6572 33.5086 71.7616 33.6053C72.0991 33.8364 72.5086 33.9391 72.9155 33.8944L80.8199 33.9084Z" fill="white"/>
<path d="M101.796 28.778C102.062 28.7716 102.326 28.8275 102.566 28.9413C102.769 29.0381 102.945 29.182 103.08 29.361C103.208 29.5371 103.303 29.7346 103.361 29.944C103.422 30.1483 103.454 30.3604 103.454 30.5737C103.454 30.7718 103.423 30.9686 103.361 31.1567C103.301 31.3574 103.203 31.5444 103.071 31.7071C102.93 31.8764 102.755 32.0145 102.557 32.1129C102.321 32.2294 102.059 32.2855 101.796 32.2761H95.1385C94.704 32.2761 94.4844 32.4627 94.4844 32.8358V33.722H101.702C101.946 33.7146 102.188 33.7709 102.403 33.8853C102.587 33.9899 102.747 34.1331 102.87 34.3051C102.985 34.4736 103.071 34.6595 103.127 34.8554C103.178 35.0409 103.205 35.2321 103.206 35.4244C103.204 35.6105 103.177 35.7955 103.127 35.9748C103.073 36.1671 102.986 36.3486 102.87 36.5112C102.747 36.6796 102.587 36.8182 102.403 36.917C102.191 37.0314 101.952 37.0878 101.711 37.0803H94.4938V37.9431C94.4831 38.0282 94.4923 38.1146 94.5206 38.1955C94.549 38.2764 94.5958 38.3497 94.6573 38.4095C94.803 38.5029 94.975 38.5471 95.1478 38.5355H103.09C103.355 38.5285 103.618 38.5811 103.86 38.6894C104.061 38.7787 104.241 38.909 104.388 39.0718C104.52 39.2295 104.618 39.4119 104.678 39.6082C104.737 39.797 104.769 39.9934 104.771 40.1913C104.771 40.4091 104.739 40.6258 104.678 40.8349C104.62 41.0388 104.521 41.2291 104.388 41.3946C104.244 41.5663 104.064 41.7047 103.86 41.8004C103.62 41.9162 103.356 41.9722 103.09 41.9636H93.2091C92.6718 41.976 92.135 41.9212 91.6113 41.8004C91.227 41.7183 90.8739 41.529 90.5929 41.2547C90.331 40.9737 90.1502 40.6272 90.0697 40.2519C89.9573 39.7499 89.9056 39.2363 89.9155 38.722V32.0289C89.9056 31.5162 89.9573 31.0041 90.0697 30.5037C90.1558 30.1205 90.3467 29.7686 90.6209 29.487C90.9027 29.2127 91.2554 29.0222 91.6394 28.9366C92.1634 28.8181 92.6999 28.7633 93.2371 28.7733L101.796 28.778ZM94.391 50.0093C93.8445 50.0233 93.2988 49.9605 92.7699 49.8228C92.3834 49.725 92.0312 49.5233 91.7515 49.2397C91.4847 48.944 91.3038 48.5811 91.2283 48.1903C91.1166 47.6693 91.0648 47.1372 91.0741 46.6045V44.9954C91.0425 44.6767 91.0914 44.3553 91.2162 44.0603C91.3411 43.7654 91.538 43.5064 91.7889 43.3069C92.2847 42.964 92.877 42.7876 93.48 42.8032C94.0733 42.7839 94.6564 42.961 95.1385 43.3069C95.3794 43.513 95.5668 43.7741 95.6847 44.0681C95.8027 44.3621 95.8477 44.6802 95.8158 44.9954V45.8116C95.8158 46.0774 95.8579 46.2407 95.9326 46.278C96.091 46.3588 96.2697 46.3912 96.4465 46.3713H108.663C108.941 46.3438 109.222 46.379 109.485 46.4742C109.747 46.5695 109.985 46.7224 110.181 46.9217C110.48 47.2685 110.645 47.7097 110.648 48.167C110.652 48.6339 110.486 49.0865 110.181 49.4403C109.986 49.6375 109.749 49.7888 109.488 49.8832C109.227 49.9775 108.949 50.0127 108.672 49.986L94.391 50.0093ZM105.767 30.4198C105.745 30.0966 105.798 29.7727 105.922 29.4734C106.046 29.174 106.237 28.9073 106.481 28.694C106.942 28.3106 107.526 28.1039 108.126 28.111C108.425 28.1114 108.722 28.1635 109.004 28.2649C109.283 28.3623 109.54 28.5128 109.761 28.708C109.985 28.9103 110.164 29.1564 110.289 29.431C110.424 29.7427 110.491 30.08 110.485 30.4198V42.3601C110.485 42.9786 110.239 43.5718 109.801 44.0091C109.363 44.4465 108.769 44.6922 108.149 44.6922C107.53 44.6922 106.935 44.4465 106.497 44.0091C106.059 43.5718 105.813 42.9786 105.813 42.3601L105.767 30.4198Z" fill="white"/>
<path d="M117.282 31.5767C117.024 31.5994 116.764 31.5698 116.518 31.4896C116.271 31.4095 116.043 31.2804 115.848 31.1103C115.703 30.9587 115.589 30.7794 115.514 30.5831C115.44 30.3868 115.405 30.1774 115.414 29.9676C115.408 29.7615 115.443 29.5562 115.517 29.364C115.592 29.1717 115.705 28.9963 115.848 28.8482C116.046 28.683 116.274 28.5588 116.521 28.4827C116.767 28.4067 117.026 28.3803 117.282 28.405H132.348C133.082 28.3484 133.816 28.5021 134.465 28.8482C134.89 29.1467 135.105 29.7204 135.105 30.5739V33.1625C135.116 33.8873 135.05 34.6111 134.909 35.322C134.805 35.8345 134.635 36.3315 134.404 36.8006H134.661C134.9 36.7747 135.142 36.8032 135.369 36.884C135.595 36.9647 135.8 37.0957 135.969 37.267C136.216 37.5696 136.348 37.9494 136.343 38.3397C136.352 38.7365 136.216 39.123 135.96 39.4265C135.791 39.5949 135.587 39.724 135.363 39.8046C135.138 39.8852 134.898 39.9154 134.661 39.8929H116.161C115.924 39.9153 115.685 39.8851 115.462 39.8045C115.238 39.7239 115.035 39.5948 114.867 39.4265C114.61 39.1234 114.472 38.737 114.479 38.3397C114.476 37.9498 114.608 37.5708 114.853 37.267C115.022 37.0965 115.228 36.9661 115.454 36.8854C115.68 36.8047 115.922 36.7757 116.161 36.8006H129.779C129.858 36.6467 129.938 36.4834 130.013 36.3108C130.097 36.1243 130.16 35.9287 130.199 35.7278H117.025C116.525 35.7718 116.027 35.6307 115.624 35.3314C115.478 35.1852 115.366 35.0097 115.293 34.8168C115.221 34.6238 115.19 34.4176 115.203 34.212C115.195 34.0103 115.229 33.8092 115.301 33.6208C115.373 33.4323 115.483 33.2606 115.624 33.1159C116.02 32.8021 116.522 32.6518 117.025 32.6961H130.503V32.0198C130.503 31.712 130.326 31.5534 129.966 31.5534L117.282 31.5767ZM118.077 50.0002C117.628 50.0097 117.183 49.9272 116.768 49.7577C116.412 49.6121 116.093 49.389 115.834 49.1047C115.593 48.8338 115.41 48.5163 115.297 48.1719C115.177 47.8028 115.117 47.417 115.119 47.0291V46.9592C115.088 46.2258 115.338 45.5082 115.82 44.9536C116.287 44.4405 117.035 44.184 118.062 44.184H130.559V43.7642C130.559 43.517 130.396 43.3911 130.092 43.3911H116.708C116.523 43.4035 116.337 43.3733 116.165 43.303C115.994 43.2326 115.84 43.124 115.717 42.9853C115.496 42.7362 115.376 42.4134 115.381 42.0804C115.386 41.7582 115.498 41.4467 115.699 41.1942C115.821 41.0476 115.977 40.9329 116.154 40.8598C116.33 40.7866 116.522 40.7574 116.712 40.7745H132.783C133.783 40.7745 134.465 40.961 134.838 41.3248C135.037 41.5423 135.19 41.7981 135.286 42.0764C135.382 42.3546 135.421 42.6496 135.399 42.9433V45.4666C135.399 45.7561 135.284 46.0337 135.079 46.2384C134.874 46.443 134.596 46.558 134.306 46.558H120.613C120.551 46.5514 120.487 46.5575 120.427 46.5759C120.367 46.5944 120.311 46.6248 120.263 46.6653C120.197 46.7471 120.164 46.85 120.169 46.9545C120.164 47.0634 120.197 47.1706 120.263 47.2577C120.309 47.3016 120.364 47.3348 120.425 47.355C120.486 47.3751 120.55 47.3817 120.613 47.3743H134.325C134.508 47.3574 134.693 47.3861 134.862 47.4577C135.032 47.5293 135.181 47.6416 135.296 47.7847C135.485 48.0451 135.587 48.3587 135.586 48.6803C135.577 48.9888 135.48 49.2883 135.306 49.5431C135.199 49.702 135.052 49.8292 134.879 49.9113C134.707 49.9934 134.515 50.0274 134.325 50.0095L118.077 50.0002Z" fill="white"/>
<path d="M143.117 44.2164C143.098 44.3597 143.109 44.5053 143.149 44.6441C143.19 44.7829 143.258 44.912 143.35 45.0233C143.602 45.1785 143.897 45.2472 144.191 45.2192H150.731C151.043 45.211 151.353 45.2666 151.642 45.3825C151.877 45.4832 152.088 45.6308 152.264 45.8163C152.424 45.9899 152.544 46.197 152.614 46.4226C152.683 46.6446 152.718 46.8758 152.717 47.1082C152.719 47.589 152.554 48.0555 152.25 48.4282C152.061 48.6384 151.825 48.8015 151.561 48.9044C151.297 49.0073 151.013 49.047 150.731 49.0205H142.509C141.88 49.0327 141.252 48.9621 140.641 48.8107C140.173 48.697 139.743 48.4639 139.393 48.1343C139.054 47.7969 138.812 47.3749 138.693 46.9123C138.529 46.3042 138.454 45.676 138.468 45.0467V40.8023C138.455 40.1806 138.53 39.5602 138.693 38.9599C138.816 38.5015 139.058 38.0833 139.393 37.7472C139.743 37.4204 140.174 37.1919 140.641 37.0849C141.253 36.9416 141.88 36.8742 142.509 36.8843H146.433V33.5028C146.438 33.3396 146.398 33.1782 146.317 33.0364C146.242 32.8965 146.069 32.8265 145.803 32.8265H140.687C140.368 32.8398 140.049 32.7841 139.753 32.6633C139.516 32.5591 139.307 32.3991 139.146 32.1968C138.991 32.0101 138.873 31.7967 138.795 31.5672C138.718 31.342 138.679 31.1056 138.678 30.8676C138.68 30.6304 138.716 30.3946 138.786 30.1679C138.856 29.9352 138.975 29.7204 139.136 29.5383C139.307 29.3415 139.517 29.1827 139.753 29.0718C140.047 28.9435 140.367 28.883 140.687 28.8946H146.994C147.665 28.8823 148.336 28.9449 148.994 29.0812C149.454 29.1757 149.883 29.3842 150.241 29.6875C150.56 29.9822 150.788 30.3629 150.895 30.7836C151.032 31.3326 151.094 31.8972 151.082 32.4627V38.9552C151.082 39.3981 150.906 39.8228 150.592 40.1359C150.278 40.4491 149.853 40.625 149.409 40.625H144.191C143.896 40.598 143.601 40.6685 143.35 40.8256C143.258 40.9362 143.19 41.0645 143.15 41.2025C143.11 41.3405 143.098 41.4853 143.117 41.6278V44.2164ZM153.768 30.3638C153.746 30.0475 153.798 29.7304 153.92 29.4374C154.041 29.1445 154.229 28.8837 154.469 28.6754C154.92 28.2987 155.492 28.0952 156.08 28.1017C156.375 28.1017 156.668 28.1538 156.945 28.2556C157.216 28.3508 157.466 28.4965 157.683 28.6847C157.899 28.8815 158.074 29.1194 158.197 29.3844C158.333 29.6925 158.4 30.0269 158.393 30.3638V36.264H159.164C159.47 36.2542 159.775 36.3182 160.051 36.4506C160.271 36.5614 160.463 36.7209 160.612 36.917C160.754 37.1134 160.857 37.335 160.916 37.57C160.978 37.8011 161.01 38.0395 161.009 38.2789C161.01 38.5199 160.978 38.7598 160.916 38.9926C160.857 39.2275 160.754 39.4492 160.612 39.6456C160.462 39.8445 160.267 40.0045 160.042 40.112C159.769 40.2445 159.467 40.3085 159.164 40.2985H158.393V47.6773C158.397 47.9846 158.339 48.2895 158.223 48.5741C158.107 48.8588 157.935 49.1174 157.717 49.3347C157.5 49.552 157.241 49.7236 156.955 49.8395C156.67 49.9554 156.365 50.0131 156.057 50.0093C155.442 50.0032 154.854 49.7548 154.421 49.3181C153.988 48.8814 153.745 48.2917 153.745 47.6773L153.768 30.3638Z" fill="white"/>
<path d="M161.803 34.7949C161.785 33.8665 161.952 32.9437 162.294 32.0804C162.6 31.3277 163.067 30.6511 163.663 30.0981C164.265 29.5504 164.977 29.1371 165.751 28.8854C166.618 28.6046 167.525 28.466 168.437 28.475C169.349 28.4655 170.256 28.6041 171.123 28.8854C171.899 29.1357 172.615 29.5439 173.226 30.0841C173.839 30.629 174.318 31.3072 174.627 32.0664C174.96 32.9366 175.119 33.8636 175.094 34.7949V43.2371C175.119 44.1683 174.96 45.0954 174.627 45.9656C174.328 46.7205 173.861 47.3981 173.263 47.9479C172.656 48.4932 171.939 48.9034 171.161 49.1512C170.296 49.429 169.392 49.5661 168.484 49.557C167.572 49.5675 166.665 49.4304 165.798 49.1512C165.021 48.899 164.306 48.4894 163.695 47.9479C163.091 47.4001 162.62 46.7222 162.317 45.9656C161.976 45.097 161.81 44.1699 161.827 43.2371L161.803 34.7949ZM166.428 43.3303C166.379 43.9779 166.585 44.6191 167.003 45.1167C167.187 45.3106 167.41 45.4636 167.657 45.5657C167.904 45.6677 168.17 45.7166 168.437 45.7091C168.707 45.7163 168.974 45.6673 169.224 45.5653C169.473 45.4633 169.698 45.3105 169.885 45.1167C170.308 44.6215 170.518 43.9794 170.469 43.3303V34.7016C170.517 34.0499 170.307 33.4055 169.885 32.9059C169.7 32.7102 169.475 32.5568 169.225 32.4561C168.975 32.3555 168.706 32.3101 168.437 32.3229C168.169 32.3246 167.903 32.3804 167.657 32.487C167.41 32.5936 167.188 32.7487 167.003 32.9432C166.588 33.4313 166.381 34.0629 166.428 34.7016V43.3303ZM180.093 50.0001C179.473 50.0001 178.879 49.7544 178.441 49.3171C178.003 48.8797 177.757 48.2865 177.757 47.668V30.4106C177.735 30.0887 177.786 29.7659 177.908 29.4669C178.029 29.1678 178.217 28.9004 178.458 28.6848C178.915 28.3009 179.496 28.094 180.093 28.1018C180.691 28.0932 181.271 28.3002 181.728 28.6848C181.969 28.9004 182.157 29.1678 182.278 29.4669C182.4 29.7659 182.451 30.0887 182.429 30.4106V47.668C182.429 48.2865 182.183 48.8797 181.745 49.3171C181.307 49.7544 180.712 50.0001 180.093 50.0001Z" fill="white"/>
<path d="M188.852 49.1138C188.224 49.1308 187.596 49.0681 186.984 48.9273C186.561 48.837 186.177 48.6168 185.886 48.2976C185.606 47.9557 185.424 47.5448 185.358 47.1082C185.255 46.4996 185.208 45.883 185.218 45.2659V32.7192C185.209 32.1022 185.256 31.4855 185.358 30.8769C185.426 30.4409 185.608 30.0305 185.886 29.6875C186.18 29.3716 186.562 29.1521 186.984 29.0579C187.596 28.9194 188.224 28.8567 188.852 28.8713H194.332C194.96 28.8572 195.588 28.9198 196.201 29.0579C196.622 29.1532 197.004 29.3725 197.299 29.6875C197.575 30.0309 197.756 30.4413 197.822 30.8769C197.924 31.4855 197.971 32.1022 197.962 32.7192V36.7538H201.162V30.3638C201.14 30.0475 201.192 29.7304 201.314 29.4374C201.435 29.1445 201.623 28.8836 201.863 28.6754C202.315 28.2987 202.886 28.0952 203.475 28.1017C203.77 28.1013 204.062 28.1534 204.339 28.2556C204.612 28.3528 204.865 28.4982 205.086 28.6847C205.31 28.8783 205.49 29.1167 205.614 29.3844C205.751 29.6925 205.818 30.0269 205.81 30.3638V47.6773C205.81 48.2958 205.564 48.8889 205.126 49.3263C204.688 49.7636 204.094 50.0093 203.475 50.0093C202.855 50.0093 202.261 49.7636 201.823 49.3263C201.385 48.8889 201.139 48.2958 201.139 47.6773V40.737H197.939V47.2108C197.939 47.7131 197.739 48.1947 197.383 48.5499C197.027 48.905 196.545 49.1045 196.042 49.1045L188.852 49.1138ZM189.787 44.6129C189.771 44.8234 189.825 45.0332 189.941 45.2099C190.022 45.2863 190.12 45.3436 190.227 45.3775C190.334 45.4113 190.447 45.421 190.557 45.4058H193.398V33.3489C193.407 33.1554 193.367 32.9627 193.281 32.7892C193.206 32.6493 193.033 32.5793 192.767 32.5793H190.361C190.1 32.5793 189.931 32.6493 189.861 32.7892C189.783 32.9651 189.746 33.1566 189.754 33.3489L189.787 44.6129Z" fill="white"/>
</g>
<defs>
<clipPath id="clip0_3887_85128">
<rect width="249" height="50" fill="white"/>
</clipPath>
</defs>
</svg>
