<svg width="250" height="168" viewBox="0 0 250 168" fill="none" xmlns="http://www.w3.org/2000/svg">
<path d="M225 41C227.761 41 230 38.7614 230 36C230 33.2386 227.761 31 225 31C222.239 31 220 33.2386 220 36C220 38.7614 222.239 41 225 41Z" fill="#57BEB7"/>
<path d="M59 16C60.1046 16 61 15.1046 61 14C61 12.8954 60.1046 12 59 12C57.8954 12 57 12.8954 57 14C57 15.1046 57.8954 16 59 16Z" fill="#ECCD52"/>
<path d="M211 63C212.105 63 213 62.1046 213 61C213 59.8954 212.105 59 211 59C209.895 59 209 59.8954 209 61C209 62.1046 209.895 63 211 63Z" fill="#ECCD52"/>
<path d="M33.5 58C35.9853 58 38 55.9853 38 53.5C38 51.0147 35.9853 49 33.5 49C31.0147 49 29 51.0147 29 53.5C29 55.9853 31.0147 58 33.5 58Z" fill="#DC4C7C"/>
<g clip-path="url(#clip0_3801_83751)">
<g clip-path="url(#clip1_3801_83751)">
<path d="M155.268 126.912C146.862 128.374 141.713 131.512 142.384 136.185C143.054 140.833 150.023 149.866 160.345 147.973C170.642 146.104 178.521 133.693 174.809 126.169C171.121 118.646 160.967 125.93 155.268 126.912Z" fill="#F99958"/>
<path d="M150.311 140.976C149.64 136.328 154.789 133.19 163.195 131.704C166.499 131.129 171.265 128.445 175.432 127.751C175.288 127.2 175.097 126.672 174.833 126.169C171.121 118.646 160.991 125.93 155.268 126.912C146.862 128.374 141.713 131.512 142.384 136.185C142.911 139.802 147.269 146.08 154.046 147.805C151.891 145.481 150.574 142.869 150.311 140.976Z" fill="#E2803D"/>
<path d="M170.69 133.813C170.762 128.781 167.05 125.666 162.261 124.54C159.698 125.498 157.232 126.577 155.268 126.936C146.862 128.398 141.713 131.536 142.384 136.208C142.815 139.132 145.737 143.804 150.406 146.367C159.89 147.014 170.523 144.139 170.69 133.813Z" fill="#E2803D"/>
<path d="M142.863 127.344C149.664 117.927 169.445 119.413 169.253 130.938C169.062 142.462 155.819 144.714 145.737 143.109C136.277 141.6 136.134 129.835 141.234 128.11C142.623 127.655 142.863 127.344 142.863 127.344Z" fill="#9795C8"/>
<path d="M141.234 128.11C141.785 127.918 142.168 127.751 142.408 127.631C141.929 128.302 141.498 129.068 141.234 129.907C140.3 132.998 142.168 143.325 159.004 142.63C154.837 143.756 149.999 143.78 145.737 143.085C136.277 141.599 136.134 129.859 141.234 128.11Z" fill="#8485BF"/>
<path d="M137.115 133.86C137.115 133.86 136.972 137.334 137.882 137.766C138.792 138.173 150.814 136.424 157.136 132.399C163.458 128.373 166.883 125.402 166.715 122.815C166.571 120.227 153.017 122.527 152.49 122.815C151.963 123.078 137.115 133.86 137.115 133.86Z" fill="#515151"/>
<path d="M105.337 148.811C98.1525 144.523 91.7345 143.732 87.9986 147.997C84.2628 152.262 81.4849 158.347 90.3455 163.547C99.2062 168.77 115.395 169.609 119.634 160.983C123.872 152.358 110.222 151.735 105.337 148.811Z" fill="#FFDD50"/>
<path d="M119.179 154.969C119.322 156 119.131 157.198 118.412 158.611C114.174 167.237 97.9849 166.374 89.1242 161.175C87.0407 159.953 85.6039 158.683 84.6699 157.413C85.2686 159.498 86.945 161.606 90.3216 163.571C99.1823 168.794 115.371 169.633 119.61 161.007C120.951 158.324 120.52 156.407 119.179 154.969Z" fill="#E8C11A"/>
<path d="M114.844 152.31C111.515 150.968 107.54 150.129 105.337 148.811C98.1525 144.523 91.7345 143.732 87.9986 147.997C86.921 149.243 85.9152 150.632 85.2446 152.118C86.3941 155.664 89.4115 158.395 95.5422 159.282C107.564 161.031 112.401 157.293 114.844 152.31Z" fill="#E8C11A"/>
<path d="M95.2787 122.288C95.2787 122.288 77.9884 151.95 96.8353 155.113C115.682 158.276 113.096 141.504 116.377 134.483C119.658 127.463 101.697 117.544 95.2787 122.288Z" fill="#9795C8"/>
<path d="M109.576 138.293C108.546 142.486 107.037 150.656 100.332 155.496C115.371 156.095 113.335 141.049 116.401 134.508C119.346 128.23 105.289 119.629 97.6975 121.282C103.349 126.864 110.438 134.723 109.576 138.293Z" fill="#8A8EC0"/>
<path d="M113.168 159.977C113.564 159.977 113.886 159.655 113.886 159.258C113.886 158.861 113.564 158.539 113.168 158.539C112.771 158.539 112.449 158.861 112.449 159.258C112.449 159.655 112.771 159.977 113.168 159.977Z" fill="#F2C610"/>
<path d="M107.66 161.414C108.056 161.414 108.378 161.092 108.378 160.695C108.378 160.298 108.056 159.977 107.66 159.977C107.263 159.977 106.941 160.298 106.941 160.695C106.941 161.092 107.263 161.414 107.66 161.414Z" fill="#F2C610"/>
<path d="M105.983 162.852C106.38 162.852 106.702 162.53 106.702 162.133C106.702 161.736 106.38 161.414 105.983 161.414C105.587 161.414 105.265 161.736 105.265 162.133C105.265 162.53 105.587 162.852 105.983 162.852Z" fill="#F2C610"/>
<path d="M110.773 162.54C111.527 162.54 112.138 161.929 112.138 161.175C112.138 160.421 111.527 159.809 110.773 159.809C110.019 159.809 109.408 160.421 109.408 161.175C109.408 161.929 110.019 162.54 110.773 162.54Z" fill="#F2C610"/>
<path d="M92.5726 124.995C92.5726 124.995 88.7409 129.308 95.5421 132.375C102.894 135.705 109.839 138.173 112.832 138.293C115.826 138.413 116.305 137.766 116.784 136.784C117.263 135.801 118.963 130.818 118.963 130.818L107.54 122.815L101.218 122.36L92.5726 124.995Z" fill="#515151"/>
<path d="M185.202 46.0716C180.221 45.3049 174.761 52.6127 173.971 55.5837C173.205 58.5547 173.444 62.2925 179.599 63.179C185.753 64.0655 194.494 61.1903 194.303 55.8473C194.111 50.5042 188.603 46.5748 185.202 46.0716Z" fill="#F99958"/>
<path d="M184.723 47.4134C183.742 47.2696 182.64 48.7072 182.496 49.2822C182.353 49.8812 182.4 50.6 183.622 50.7917C184.843 50.9834 186.591 50.4084 186.543 49.3541C186.496 48.2999 185.394 47.5332 184.723 47.4134Z" fill="#FFB98A"/>
<path d="M181.754 61.0223C175.623 60.1358 175.36 56.4221 176.126 53.4271C176.438 52.1812 177.587 50.1925 179.144 48.3716C176.485 50.5998 174.426 53.8344 173.971 55.5835C173.205 58.5545 173.444 62.2922 179.599 63.1787C184.604 63.8975 191.333 62.1245 193.56 58.5545C190.495 60.663 185.61 61.5734 181.754 61.0223Z" fill="#E2803D"/>
<path d="M187.741 62.436C188.1 58.9139 187.43 53.6188 183.358 51.6302C180.413 50.1926 177.443 51.151 175.144 53.0677C174.57 54.0261 174.139 54.9127 173.971 55.5835C173.205 58.5545 173.444 62.2923 179.599 63.1788C182.137 63.5382 185.131 63.2746 187.741 62.436Z" fill="#C4682A"/>
<path d="M74.4921 31.1444C68.553 32.7258 64.8172 35.7207 65.1524 39.8897C65.4877 44.0588 67.2598 48.6351 74.5639 46.6464C81.868 44.6338 90.6089 36.5354 88.2381 29.8745C85.8912 23.1897 78.5392 30.0662 74.4921 31.1444Z" fill="#F99958"/>
<path d="M74.492 31.1447C72.6241 31.6478 70.9717 32.2947 69.5828 33.0615C70.3012 32.7979 71.0436 32.5583 71.8578 32.3427C72.7199 32.1031 73.7497 31.6239 74.8273 31.0488C74.7315 31.0728 74.6118 31.0967 74.492 31.1447Z" fill="#E2803D"/>
<path d="M88.262 29.8507C86.7293 25.5139 83.0893 26.9036 79.6168 28.7006C82.1553 27.7662 84.4782 27.8141 85.6277 31.0487C87.5675 36.4875 82.0595 42.9088 76.0007 46.1673C82.9695 43.5796 90.4891 36.0802 88.262 29.8507Z" fill="#E2803D"/>
<path d="M87.1844 37.0865C86.897 35.8646 86.1307 34.8583 84.5501 34.2113C76.5516 30.833 70.876 37.7814 69.2954 46.8142C70.6125 47.2455 72.3368 47.2455 74.5639 46.6225C79.3056 45.3287 84.6699 41.4712 87.1844 37.0865Z" fill="#C4682A"/>
<path d="M192.674 96.2436C186.735 97.8249 188.172 106.882 188.483 111.051C188.819 115.22 190.591 119.796 197.895 117.807C205.199 115.795 213.94 107.696 211.569 101.036C209.222 94.3508 196.721 95.1654 192.674 96.2436Z" fill="#89E27D"/>
<path d="M211.593 101.011C211.353 100.317 210.994 99.7176 210.539 99.1665C210.827 105.372 203.067 112.153 196.458 113.95C192.315 115.076 189.968 114.117 188.627 112.296C189.226 116.058 191.333 119.604 197.895 117.783C205.223 115.795 213.964 107.672 211.593 101.011Z" fill="#78C66A"/>
<path d="M164.009 0.787404C158.429 1.67392 160.129 8.11911 160.608 11.0662C161.087 14.0132 162.955 17.3197 169.804 16.1936C176.653 15.0675 184.652 9.6765 182.161 4.88453C179.671 0.0925693 167.793 0.188409 164.009 0.787404Z" fill="#FFDD50"/>
<path d="M182.137 4.88476C181.395 3.47113 179.838 2.46482 177.898 1.79395C178.258 2.15334 178.569 2.5367 178.785 2.96798C181.299 7.75994 173.301 13.1509 166.427 14.277C164.584 14.5885 163.123 14.5645 161.925 14.3249C163.195 15.9063 165.517 16.8886 169.78 16.1938C176.653 15.0677 184.652 9.67673 182.137 4.88476Z" fill="#E8C11A"/>
<path opacity="0.7" d="M81.2691 71.7088C76.288 70.9421 70.8279 78.2499 70.0376 81.2209C69.2713 84.1919 69.5108 87.9296 75.6653 88.8162C81.8199 89.7027 90.5608 86.8275 90.3693 81.4845C90.1777 76.1414 84.6697 72.212 81.2691 71.7088Z" fill="#89E27D"/>
<path opacity="0.7" d="M80.1438 72.9545C78.8506 72.7628 77.4377 74.6556 77.2221 75.4223C77.0306 76.189 77.0785 77.1714 78.683 77.387C80.2874 77.6266 82.5625 76.8599 82.5146 75.4942C82.4667 74.1045 81.0298 73.0982 80.1438 72.9545Z" fill="#BCFCB1"/>
<path opacity="0.7" d="M87.4239 75.1826C88.1663 76.4285 88.6453 77.8182 88.6932 79.3516C88.8847 84.6946 80.1199 87.5698 73.9892 86.6833C72.2171 86.4198 70.9479 85.9406 70.0378 85.2936C70.6365 86.9469 72.2171 88.3365 75.6656 88.8397C81.7962 89.7262 90.5611 86.851 90.3695 81.508C90.2737 79.0162 89.0524 76.8358 87.4239 75.1826Z" fill="#78C66A"/>
<path d="M63.0689 113.159C58.0878 112.392 47.8381 110.739 47.0718 113.734C46.3055 116.705 51.3345 129.38 57.4651 130.29C63.5957 131.177 72.3606 128.302 72.169 122.959C71.9775 117.592 66.4695 113.662 63.0689 113.159Z" fill="#F99958"/>
<path d="M62.0153 113.998C58.6866 112.824 50.9515 112.704 51.3825 113.231C51.8136 113.758 59.6445 115.315 63.7396 116.753C67.8347 118.191 70.0618 120.179 69.5828 118.502C69.0081 116.442 64.2664 114.812 62.0153 113.998Z" fill="#FCA870"/>
<path d="M58.1836 125.235C53.6335 124.564 49.6821 117.424 48.2692 112.56C47.6226 112.824 47.2155 113.207 47.0718 113.734C46.3055 116.705 51.3345 129.38 57.4651 130.29C63.5957 131.177 72.3606 128.302 72.169 122.959C72.1451 122.288 72.0493 121.665 71.8577 121.042C69.3911 124.324 62.9971 125.93 58.1836 125.235Z" fill="#E2803D"/>
<path d="M167.17 73.5773C167.17 73.5773 165.685 65.1674 167.17 60.591C168.655 56.0147 173.899 51.2946 179.048 53.7865C184.197 56.2783 183.909 64.0413 182.999 66.8925C181.275 72.3314 178.473 81.0767 168.128 84.7425C157.782 88.4324 167.17 73.5773 167.17 73.5773Z" fill="#A8A8D3"/>
<path d="M167.17 73.5773C167.17 73.5773 165.685 65.1674 167.17 60.591C168.655 56.0147 173.899 51.2946 179.048 53.7865C184.197 56.2783 183.909 64.0413 182.999 66.8925C181.275 72.3314 178.473 81.0767 168.128 84.7425C157.782 88.4324 167.17 73.5773 167.17 73.5773Z" fill="#9795C8"/>
<path d="M88.0943 59.4651C93.291 66.1498 90.7285 72.9065 83.5203 71.3731C76.3359 69.8397 68.6248 63.3226 69.439 53.0678C70.2772 42.813 76.2641 34.0916 85.029 37.8054C92.4767 40.9441 81.9158 51.4864 88.0943 59.4651Z" fill="#9795C8"/>
<path d="M83.5443 71.3734C90.7287 72.9068 93.2911 66.1501 88.1183 59.4654C86.8491 57.8121 86.2744 56.0631 86.1307 54.29C86.0109 57.0933 85.077 64.3771 78.5392 66.0064C75.0429 66.8689 72.3368 62.7239 69.8223 58.3153C71.4268 65.5272 77.6532 70.1275 83.5443 71.3734Z" fill="#8485BF"/>
<path d="M86.3936 41.3122C86.7896 40.4603 85.944 39.2269 84.505 38.5573C83.0659 37.8877 81.5783 38.0354 81.1823 38.8873C80.7864 39.7391 81.6319 40.9725 83.0709 41.6422C84.51 42.3118 85.9976 42.164 86.3936 41.3122Z" fill="#A8A8D3"/>
<path d="M175.74 55.5095C176.964 55.3925 177.917 54.8811 177.868 54.3674C177.819 53.8536 176.787 53.532 175.562 53.649C174.338 53.766 173.385 54.2773 173.434 54.7911C173.483 55.3048 174.515 55.6265 175.74 55.5095Z" fill="#A8A8D3"/>
<path d="M167.17 90.0619C165.565 88.241 165.446 85.6054 166.787 83.5928C169.181 79.9509 170.475 75.8777 170.475 71.5889C170.475 66.15 168.583 61.0706 164.967 56.7578C163.793 55.3681 163.434 53.4034 164.104 51.7262C165.206 48.899 165.805 45.8561 165.805 42.7173C165.805 26.7601 152.202 13.8218 128.015 13.8218C102.894 13.8218 89.0522 26.7601 89.0522 42.7173C89.0522 45.9519 89.603 49.0427 90.6567 51.9419C91.3033 53.6909 90.9201 55.6556 89.7228 57.0693C86.1785 61.3102 84.3585 66.2698 84.3585 71.5889C84.3585 76.0454 85.5558 80.2624 87.9506 84.0001C89.2199 86.0127 89.0762 88.5764 87.5196 90.3734C83.4724 95.0216 81.365 100.508 81.365 106.403C81.365 122.983 96.8352 136.448 127.417 136.448C155.747 136.448 173.468 123.007 173.468 106.403C173.468 100.365 171.289 94.7581 167.17 90.0619Z" fill="#8389B7"/>
<path d="M166.739 122.791C171.097 118.071 173.468 112.44 173.468 106.403C173.468 100.389 171.313 94.7581 167.17 90.0619C165.565 88.241 165.446 85.6054 166.787 83.5928C169.181 79.9509 170.475 75.8777 170.475 71.5889C170.475 66.15 168.583 61.0706 164.967 56.7578C163.793 55.3681 163.434 53.4034 164.104 51.7262C165.206 48.899 165.805 45.8561 165.805 42.7173C165.805 26.7601 152.202 13.8218 128.015 13.8218C118.771 13.8218 111.06 15.5708 105.001 18.5658C100.811 23.3338 98.6313 29.18 98.6313 35.5054C98.6313 38.74 99.1821 41.8308 100.236 44.73C100.882 46.479 100.499 48.4437 99.3019 49.8574C95.7576 54.0982 93.9376 59.0579 93.9376 64.377C93.9376 68.8335 95.1349 73.0505 97.5297 76.7882C98.799 78.8008 98.6553 81.3645 97.0987 83.1615C93.0515 87.8097 90.9441 93.2965 90.9441 99.1906C90.9441 115.771 106.414 129.236 136.996 129.236C148.969 129.236 159.075 126.816 166.739 122.791Z" fill="#9795C8"/>
<path d="M182.64 57.8838C179.431 64.7603 173.3 65.4791 168.679 62.7956C169.852 65.5509 170.451 68.522 170.451 71.5888C170.451 75.8776 169.181 79.9508 166.763 83.5927C166.523 83.9281 166.356 84.3115 166.212 84.6709C166.811 84.9584 167.457 85.0063 168.104 84.7667C171.025 83.7365 173.324 82.2989 175.192 80.6456C176.629 79.3518 177.803 77.9621 178.784 76.5006C179.335 75.662 179.814 74.8234 180.245 73.9848C180.341 73.7692 180.461 73.5535 180.557 73.3618C181.155 72.092 181.658 70.8461 182.065 69.672C182.209 69.2887 182.329 68.9053 182.448 68.522C182.568 68.1386 182.688 67.7792 182.808 67.4198C182.856 67.2521 182.927 67.0604 182.975 66.8927C183.071 66.6291 183.263 64.305 183.454 61.6934C183.382 60.4235 183.119 59.1057 182.64 57.8838Z" fill="#8485BF"/>
<path d="M191.237 105.588C189.561 105.708 190.279 98.6394 193.153 98.1602C196.027 97.681 197.943 96.9623 198.182 97.9206C198.422 98.879 194.351 105.348 191.237 105.588Z" fill="#BCFCB1"/>
<path d="M70.0617 37.0629C70.3262 37.0629 70.5407 36.8483 70.5407 36.5837C70.5407 36.319 70.3262 36.1045 70.0617 36.1045C69.7972 36.1045 69.5828 36.319 69.5828 36.5837C69.5828 36.8483 69.7972 37.0629 70.0617 37.0629Z" fill="#F78D46"/>
<path d="M70.0617 35.6249C70.3262 35.6249 70.5407 35.4104 70.5407 35.1457C70.5407 34.881 70.3262 34.6665 70.0617 34.6665C69.7972 34.6665 69.5828 34.881 69.5828 35.1457C69.5828 35.4104 69.7972 35.6249 70.0617 35.6249Z" fill="#F78D46"/>
<path d="M71.9775 35.8646C72.242 35.8646 72.4564 35.6501 72.4564 35.3854C72.4564 35.1208 72.242 34.9062 71.9775 34.9062C71.713 34.9062 71.4985 35.1208 71.4985 35.3854C71.4985 35.6501 71.713 35.8646 71.9775 35.8646Z" fill="#F78D46"/>
<path d="M69.1037 38.7396C69.3682 38.7396 69.5827 38.5251 69.5827 38.2604C69.5827 37.9958 69.3682 37.7812 69.1037 37.7812C68.8392 37.7812 68.6248 37.9958 68.6248 38.2604C68.6248 38.5251 68.8392 38.7396 69.1037 38.7396Z" fill="#F78D46"/>
<path d="M67.9064 37.3023C68.3032 37.3023 68.6249 36.9805 68.6249 36.5835C68.6249 36.1866 68.3032 35.8647 67.9064 35.8647C67.5096 35.8647 67.188 36.1866 67.188 36.5835C67.188 36.9805 67.5096 37.3023 67.9064 37.3023Z" fill="#F78D46"/>
<path d="M189.92 53.4753C190.171 53.4753 190.375 53.2822 190.375 53.0441C190.375 52.8059 190.171 52.6128 189.92 52.6128C189.669 52.6128 189.465 52.8059 189.465 53.0441C189.465 53.2822 189.669 53.4753 189.92 53.4753Z" fill="#F7873C"/>
<path d="M191.261 54.6492C191.512 54.6492 191.716 54.4561 191.716 54.2179C191.716 53.9797 191.512 53.7866 191.261 53.7866C191.01 53.7866 190.806 53.9797 190.806 54.2179C190.806 54.4561 191.01 54.6492 191.261 54.6492Z" fill="#F7873C"/>
<path d="M189.01 56.2307C189.261 56.2307 189.465 56.0376 189.465 55.7994C189.465 55.5612 189.261 55.3682 189.01 55.3682C188.759 55.3682 188.555 55.5612 188.555 55.7994C188.555 56.0376 188.759 56.2307 189.01 56.2307Z" fill="#F7873C"/>
<path d="M187.861 54.9368C188.244 54.9368 188.555 54.6579 188.555 54.3139C188.555 53.9698 188.244 53.6909 187.861 53.6909C187.477 53.6909 187.166 53.9698 187.166 54.3139C187.166 54.6579 187.477 54.9368 187.861 54.9368Z" fill="#F7873C"/>
<path d="M189.298 59.4891C189.681 59.4891 189.992 59.2102 189.992 58.8661C189.992 58.5221 189.681 58.2432 189.298 58.2432C188.914 58.2432 188.603 58.5221 188.603 58.8661C188.603 59.2102 188.914 59.4891 189.298 59.4891Z" fill="#F7873C"/>
<path d="M126.531 103.431C152.705 103.431 167.122 99.9571 171.672 97.2496C170.618 94.6859 169.11 92.266 167.17 90.0616C166.691 89.5106 166.356 88.9116 166.14 88.2646C162.452 89.9179 153.304 92.2899 130.602 92.8889C103.229 93.6317 91.9261 90.8523 88.1184 89.5106C87.9507 89.7981 87.7592 90.0856 87.5197 90.3731C85.5799 92.5774 84.1191 94.9734 83.0894 97.5371C86.1068 99.3341 95.9014 103.431 126.531 103.431Z" fill="#666C9A"/>
<path d="M88.7888 86.8992C88.7888 86.8992 96.6436 91.9068 130.41 90.9484C164.176 89.99 166.212 84.647 166.212 84.647L167.194 82.8979C167.194 82.8979 168.08 83.3771 168.415 84.647C168.75 85.9169 167.768 85.9169 168.726 87.8337C169.684 89.7504 170.953 92.6496 170.642 93.8236C169.924 96.4592 156.274 101.491 126.578 101.491C90.8962 101.491 85.1727 95.2372 84.4303 94.782C83.6879 94.3268 85.6277 92.1464 86.1066 90.2296C86.3701 89.1994 87.0645 87.5941 87.5435 87.1149C88.0225 86.6357 88.7409 86.2044 88.7409 86.2044C88.7409 86.2044 88.8367 86.9232 88.7888 86.8992Z" fill="#484848"/>
<path d="M93.6741 88.6005C90.0341 87.714 88.7888 86.8994 88.7888 86.8994C88.8367 86.9234 88.7409 86.2285 88.7409 86.2285C88.7409 86.2285 88.0225 86.6598 87.5435 87.139C87.0646 87.6182 86.3701 89.2235 86.1066 90.2538C85.6277 92.1706 83.6879 94.3509 84.4303 94.8061C84.8135 95.0457 86.5616 96.8667 93.2431 98.5439C92.9557 95.3332 93.2431 91.7632 93.6741 88.6005Z" fill="#383838"/>
<path d="M170.642 93.8476C170.954 92.6736 170.181 90.1472 169.557 87.9803C169.163 86.6161 168.726 85.9408 168.415 84.6709C168.104 83.4011 167.218 82.9219 167.218 82.9219L166.236 84.6709C166.236 84.6709 164.943 88.0253 147.628 89.8942C149.017 92.7934 150.071 96.2196 150.43 100.197C163.745 98.4958 170.163 95.6206 170.642 93.8476Z" fill="#383838"/>
<path d="M168.415 84.647C168.104 83.3772 167.194 82.8979 167.194 82.8979L166.212 84.647C166.212 84.647 164.176 89.9901 130.41 90.9485C96.6436 91.9069 88.7887 86.8993 88.7887 86.8993C88.8366 86.9232 88.7408 86.2284 88.7408 86.2284C88.7408 86.2284 88.0224 86.6597 87.5434 87.1389C87.4716 87.2107 87.3997 87.3066 87.304 87.4264C88.2619 87.8576 93.8896 93.2726 127.345 92.4819C160.8 91.6912 167.625 87.9295 168.415 84.647Z" fill="#6D6D6D"/>
<path d="M153.748 26.6851C154.27 25.9044 153.41 24.4123 151.828 23.3524C150.245 22.2926 148.539 22.0664 148.016 22.8471C147.494 23.6278 148.354 25.1199 149.936 26.1798C151.519 27.2396 153.225 27.4659 153.748 26.6851Z" fill="#A8A8D3"/>
<path d="M204.115 146.919C204.115 152.42 203.963 157.896 203.667 163.391C203.598 164.676 204.03 167.341 203.251 168.508" stroke="white" stroke-width="3" stroke-linecap="round"/>
</g>
</g>
<defs>
<clipPath id="clip0_3801_83751">
<rect width="155" height="168" fill="white" transform="translate(47)"/>
</clipPath>
<clipPath id="clip1_3801_83751">
<rect width="165" height="167" fill="white" transform="translate(47 0.5)"/>
</clipPath>
</defs>
</svg>
