<svg width="249" height="50" viewBox="0 0 249 50" fill="none" xmlns="http://www.w3.org/2000/svg">
<g clip-path="url(#clip0_3887_85063)">
<path d="M3.4221 20.7955C2.84298 20.8088 2.26443 20.751 1.69942 20.6233C1.30352 20.537 0.940262 20.3401 0.651834 20.0556C0.386118 19.7526 0.20889 19.3823 0.139635 18.9853C0.0374185 18.4314 -0.00939434 17.8687 -6.65775e-05 17.3055V3.04308C-0.0288963 2.72701 0.0139634 2.40851 0.125198 2.11125C0.236433 1.81398 0.413244 1.54559 0.642513 1.326C1.09764 0.956026 1.67187 0.76415 2.25811 0.786195C2.83487 0.761194 3.39989 0.953891 3.84109 1.326C4.05996 1.55161 4.22744 1.82189 4.33192 2.11829C4.4364 2.41468 4.47543 2.73017 4.44639 3.04308V16.3097C4.44639 16.5703 4.4883 16.7378 4.57677 16.8076C4.73525 16.8965 4.91756 16.9339 5.09829 16.9146H8.56694C8.88465 16.9068 9.20086 16.9606 9.49813 17.0728C9.73523 17.1693 9.94583 17.3208 10.1126 17.5149C10.2653 17.6984 10.3765 17.9127 10.4386 18.1431C10.5005 18.3801 10.5318 18.6241 10.5317 18.869C10.533 19.1131 10.4985 19.3562 10.4293 19.5903C10.3624 19.8146 10.2517 20.0234 10.1034 20.2045C9.938 20.3938 9.73075 20.5419 9.49813 20.6373C9.20086 20.7496 8.88465 20.8033 8.56694 20.7955H3.4221ZM11.407 1.97745C11.3885 1.69882 11.4357 1.41975 11.5449 1.16272C11.6541 0.905682 11.8222 0.677886 12.0356 0.497691C12.4435 0.167865 12.9544 -0.00835536 13.479 -0.000218609C13.7402 -0.000861023 13.9998 0.0415983 14.2472 0.12543C14.4949 0.209686 14.7241 0.340821 14.9223 0.511664C15.1194 0.681036 15.2781 0.890433 15.3879 1.12591C15.5093 1.393 15.5682 1.6842 15.5602 1.97745V8.53865H16.794V1.97745C16.7754 1.69882 16.8227 1.41975 16.9318 1.16272C17.041 0.905682 17.2091 0.677886 17.4226 0.497691C17.8305 0.167865 18.3412 -0.00835536 18.8658 -0.000218609C19.1271 -0.000861023 19.3867 0.0415983 19.6341 0.12543C19.8819 0.209686 20.1111 0.340821 20.3092 0.511664C20.5063 0.681036 20.665 0.890433 20.7748 1.12591C20.8962 1.393 20.9551 1.6842 20.947 1.97745V19.7625C20.947 20.3141 20.7278 20.8432 20.3375 21.2333C19.9472 21.6234 19.4178 21.8425 18.8658 21.8425C18.5921 21.8431 18.321 21.7898 18.068 21.6855C17.8149 21.5813 17.5849 21.4281 17.3912 21.2349C17.1974 21.0417 17.0438 20.8122 16.9389 20.5595C16.834 20.3069 16.78 20.036 16.78 19.7625V12.3544H15.5462V19.7625C15.5462 20.3141 15.3269 20.8432 14.9366 21.2333C14.5463 21.6234 14.017 21.8425 13.465 21.8425C13.1913 21.8431 12.9201 21.7898 12.667 21.6855C12.414 21.5813 12.1841 21.4281 11.9904 21.2349C11.7966 21.0417 11.6428 20.8122 11.538 20.5595C11.4331 20.3069 11.3792 20.036 11.3792 19.7625L11.407 1.97745Z" fill="white"/>
<path d="M33.9653 12.8432C33.0668 12.8526 32.1709 12.7415 31.302 12.5128C30.5533 12.3238 29.8513 11.9833 29.2394 11.5124C28.6649 11.0627 28.2067 10.4819 27.9032 9.81858C27.5702 9.04838 27.4112 8.21423 27.4376 7.37558V5.8167C27.4113 4.97355 27.5702 4.13488 27.9032 3.35976C28.205 2.69021 28.6632 2.10292 29.2394 1.64734C29.8535 1.17993 30.5547 0.839781 31.302 0.646861C32.1716 0.42205 33.0671 0.312527 33.9653 0.321123C34.865 0.312925 35.7619 0.422438 36.6331 0.646861C37.3786 0.840827 38.0781 1.18091 38.691 1.64734C39.267 2.1043 39.7265 2.69112 40.0319 3.35976C40.3626 4.13558 40.5215 4.97374 40.4975 5.8167V7.36627C40.5215 8.20472 40.3626 9.03835 40.0319 9.80927C39.7252 10.4719 39.2657 11.0524 38.691 11.5031C38.0803 11.9731 37.3801 12.3135 36.6331 12.5035C35.763 12.735 34.8657 12.8493 33.9653 12.8432ZM32.047 21.8428C31.5027 21.8556 30.9592 21.7946 30.4314 21.6613C30.0473 21.5611 29.6969 21.3603 29.4164 21.0796C29.1523 20.7833 28.9722 20.4219 28.8949 20.0326C28.7838 19.5112 28.7322 18.9789 28.7412 18.4458V15.9609C28.7141 15.6346 28.7645 15.3064 28.8883 15.0032C29.0121 14.7 29.2058 14.4302 29.4536 14.216C29.9327 13.8385 30.5292 13.6409 31.1391 13.6576C31.7395 13.638 32.3266 13.8364 32.792 14.216C33.0299 14.4363 33.2144 14.7081 33.3314 15.0105C33.4483 15.3128 33.4948 15.6379 33.4671 15.9609V17.6548C33.4671 17.92 33.5043 18.0829 33.5835 18.1201C33.7411 18.2015 33.9194 18.2339 34.0956 18.2132H46.2942C46.5715 18.1857 46.8513 18.2208 47.1132 18.3159C47.3751 18.4109 47.6123 18.5634 47.8074 18.7623C48.0968 19.1131 48.2534 19.5546 48.2497 20.0093C48.253 20.4737 48.0875 20.9234 47.7841 21.2751C47.5896 21.4718 47.3537 21.6227 47.0936 21.7169C46.8334 21.811 46.5556 21.8461 46.2802 21.8195L32.047 21.8428ZM33.9792 9.41837C34.4934 9.44273 35.0002 9.28814 35.4132 8.98096C35.6065 8.8007 35.756 8.57874 35.8504 8.33198C35.9448 8.08522 35.9815 7.82017 35.9579 7.55704V5.63059C35.9813 5.36609 35.9444 5.09974 35.8501 4.85153C35.7557 4.60331 35.6064 4.37966 35.4132 4.19735C35.0059 3.87663 34.4973 3.71164 33.9792 3.73202C33.4623 3.71069 32.955 3.87585 32.5499 4.19735C32.355 4.37859 32.2043 4.60196 32.1091 4.85036C32.0138 5.09877 31.9766 5.36564 32.0004 5.63059V7.55704C31.9766 7.82059 32.0139 8.08608 32.1092 8.33298C32.2044 8.57987 32.3552 8.80157 32.5499 8.98096C32.957 9.28576 33.4571 9.44031 33.9653 9.41837H33.9792ZM42.8954 2.29879C42.8723 1.98035 42.921 1.66079 43.0378 1.36363C43.1546 1.06648 43.3367 0.79929 43.5705 0.581708C44.0149 0.194961 44.5876 -0.0124153 45.1767 4.20872e-05C45.7639 -0.00708259 46.3328 0.203468 46.7737 0.591024C47.0076 0.80693 47.1905 1.07224 47.3089 1.36767C47.4272 1.66309 47.4783 1.98118 47.4582 2.29879V5.8167H48.1798C48.485 5.80543 48.7884 5.86768 49.0645 5.99819C49.2838 6.10871 49.4749 6.26787 49.6232 6.46352C49.7646 6.65945 49.8673 6.88058 49.9258 7.115C49.9859 7.34761 50.0173 7.58671 50.019 7.82694C50.0172 8.06564 49.9858 8.30322 49.9258 8.53426C49.8673 8.76868 49.7646 8.98977 49.6232 9.18571C49.4725 9.3827 49.278 9.542 49.0552 9.65104C48.7814 9.77859 48.4817 9.84073 48.1798 9.83253H47.4582V14.1415C47.4582 14.4409 47.3992 14.7374 47.2845 15.0141C47.1699 15.2907 47.0018 15.5421 46.7899 15.7538C46.5781 15.9655 46.3266 16.1335 46.0498 16.2481C45.773 16.3627 45.4763 16.4217 45.1767 16.4217C44.5717 16.4217 43.9914 16.1814 43.5635 15.7538C43.1357 15.3262 42.8954 14.7462 42.8954 14.1415V2.29879Z" fill="white"/>
<path d="M63.9029 17.0729C64.2139 17.0639 64.5235 17.121 64.8109 17.2405C65.0436 17.3378 65.2507 17.4874 65.416 17.6779C65.5704 17.8641 65.6859 18.0793 65.7559 18.3107C65.8241 18.5371 65.8587 18.7723 65.8584 19.0087C65.8597 19.2513 65.8251 19.4928 65.7559 19.7253C65.6883 19.9556 65.5688 20.1673 65.4067 20.3442C65.2325 20.5286 65.0216 20.6744 64.7876 20.7723C64.5075 20.8886 64.2059 20.9441 63.9029 20.9352H52.1932C51.9123 20.9616 51.6291 20.9219 51.3664 20.8193C51.1036 20.7167 50.8685 20.554 50.68 20.3442C50.3752 19.9661 50.2107 19.4943 50.2144 19.0087C50.2158 18.7721 50.2518 18.5369 50.3215 18.3107C50.391 18.0771 50.5101 17.8613 50.6707 17.6779C50.8414 17.4893 51.0511 17.34 51.2853 17.2405C51.5727 17.121 51.8821 17.0639 52.1932 17.0729H63.9029ZM50.7731 6.27721C50.7524 5.37429 50.9321 4.47801 51.2993 3.65276C51.6255 2.92646 52.1202 2.28837 52.7426 1.79143C53.3823 1.29804 54.1134 0.935876 54.8937 0.725798C55.7656 0.486295 56.6666 0.368842 57.5708 0.376799C58.4719 0.370941 59.3695 0.488364 60.2387 0.725798C61.0197 0.933893 61.751 1.29624 62.3897 1.79143C63.0065 2.29153 63.4976 2.92897 63.8237 3.65276C64.1893 4.47838 64.3674 5.37464 64.3453 6.27721V8.51546C64.3674 9.41804 64.1893 10.3143 63.8237 11.1399C63.4975 11.8571 63.0061 12.487 62.3897 12.978C61.7525 13.4765 61.0207 13.8406 60.2387 14.0483C59.3695 14.2857 58.4719 14.4031 57.5708 14.3973C56.6666 14.4052 55.7656 14.2878 54.8937 14.0483C54.1123 13.8388 53.3808 13.4749 52.7426 12.978C52.1207 12.4901 51.6257 11.8596 51.2993 11.1399C50.9321 10.3147 50.7524 9.41839 50.7731 8.51546V6.27721ZM55.336 8.67369C55.3258 9.00159 55.3894 9.32758 55.5222 9.62762C55.6365 9.87845 55.8089 10.0985 56.025 10.2698C56.2399 10.4361 56.485 10.5594 56.7467 10.6328C57.0149 10.7085 57.2921 10.7476 57.5708 10.7491C57.8465 10.7479 58.1207 10.7088 58.3856 10.6328C58.6437 10.5573 58.8853 10.4342 59.098 10.2698C59.3144 10.0965 59.4893 9.87711 59.6101 9.62762C59.7482 9.32903 59.8152 9.0025 59.8057 8.67369V6.11436C59.812 5.79333 59.745 5.47508 59.6101 5.18369C59.4893 4.9342 59.3144 4.71481 59.098 4.54153C58.8853 4.37711 58.6437 4.25401 58.3856 4.17859C58.1207 4.10256 57.8465 4.06342 57.5708 4.06225C57.2921 4.06373 57.0149 4.10286 56.7467 4.17859C56.485 4.25197 56.2399 4.3752 56.025 4.54153C55.8089 4.71277 55.6365 4.93286 55.5222 5.18369C55.3927 5.47655 55.3291 5.79425 55.336 6.11436V8.67369ZM69.0244 21.8426C68.407 21.8426 67.8149 21.5975 67.3783 21.1611C66.9418 20.7248 66.6964 20.133 66.6964 19.5159V2.29863C66.6739 1.97811 66.7252 1.65672 66.8462 1.35907C66.9673 1.06142 67.1549 0.79543 67.3948 0.581546C67.8493 0.196311 68.4286 -0.0104441 69.0244 -0.000119473C69.6202 -0.0104441 70.1995 0.196311 70.654 0.581546C70.8939 0.79543 71.0816 1.06142 71.2027 1.35907C71.3237 1.65672 71.3749 1.97811 71.3524 2.29863V19.5159C71.3524 20.133 71.1072 20.7248 70.6706 21.1611C70.234 21.5975 69.6418 21.8426 69.0244 21.8426Z" fill="white"/>
<path d="M77.801 6.6264C77.778 5.70194 77.9361 4.78193 78.2666 3.91819C78.5587 3.17252 79.0118 2.50041 79.5936 1.94981C80.1781 1.41202 80.8722 1.0072 81.6282 0.763216C82.4784 0.492235 83.3664 0.35872 84.2588 0.367694C85.1434 0.359766 86.0237 0.493285 86.8661 0.763216C87.6254 1.00924 88.3237 1.4137 88.9147 1.94981C89.4994 2.49797 89.953 3.17077 90.2417 3.91819C90.5677 4.78316 90.7257 5.70228 90.7073 6.6264V15.1466C90.7252 16.0707 90.5672 16.9898 90.2417 17.8549C89.953 18.6023 89.4994 19.2751 88.9147 19.8233C88.3246 20.3596 87.6259 20.7627 86.8661 21.0052C86.0242 21.2773 85.1436 21.4109 84.2588 21.4007C83.3662 21.4123 82.4778 21.2787 81.6282 21.0052C80.8717 20.7646 80.1772 20.3612 79.5936 19.8233C79.0118 19.2726 78.5587 18.6005 78.2666 17.8549C77.9365 16.991 77.7783 16.0711 77.801 15.1466V6.6264ZM82.3639 15.263C82.3125 15.8945 82.5039 16.5219 82.8993 17.0173C83.0766 17.2082 83.2934 17.3583 83.5346 17.4571C83.7758 17.556 84.0356 17.6012 84.2961 17.5896C84.5526 17.5978 84.808 17.551 85.0449 17.4522C85.2818 17.3535 85.4948 17.2052 85.6695 17.0173C86.0649 16.5219 86.2564 15.8945 86.205 15.263V6.51006C86.2574 5.8784 86.0657 5.25069 85.6695 4.75578C85.4944 4.56872 85.2812 4.42128 85.0443 4.32336C84.8074 4.22545 84.5523 4.17931 84.2961 4.18806C84.036 4.17592 83.7764 4.2204 83.5353 4.31842C83.2941 4.41644 83.0771 4.56568 82.8993 4.75578C82.5031 5.25069 82.3115 5.8784 82.3639 6.51006V15.263ZM93.0726 2.23365C93.0508 1.91735 93.1025 1.60033 93.2236 1.30731C93.3448 1.01429 93.5321 0.753233 93.7709 0.544523C94.2216 0.16997 94.7912 -0.0313806 95.3772 -0.0231975C95.6709 -0.0247922 95.9626 0.0256257 96.2386 0.125712C96.5089 0.222322 96.7585 0.369152 96.9742 0.558468C97.1918 0.752854 97.3663 0.990622 97.4864 1.25647C97.623 1.56376 97.6898 1.89748 97.6819 2.23365V8.11547H98.4502C98.7557 8.10564 99.0591 8.1695 99.3348 8.30161C99.5541 8.41213 99.7452 8.5713 99.8935 8.76694C100.035 8.96288 100.138 9.18397 100.196 9.41839C100.256 9.651 100.288 9.89013 100.289 10.1304C100.287 10.3691 100.256 10.6066 100.196 10.8377C100.138 11.0721 100.035 11.2932 99.8935 11.4891C99.7427 11.6861 99.5483 11.8454 99.3255 11.9545C99.0517 12.082 98.7521 12.1442 98.4502 12.1359H97.6959V19.4882C97.6959 20.1013 97.4538 20.6896 97.0223 21.1252C96.5907 21.5609 96.0046 21.8087 95.3912 21.8149C94.7778 21.8087 94.1916 21.5609 93.76 21.1252C93.3285 20.6896 93.0865 20.1013 93.0865 19.4882L93.0726 2.23365Z" fill="white"/>
<path d="M101.08 6.67742C101.062 5.74969 101.228 4.82752 101.569 3.96452C101.874 3.21363 102.34 2.53858 102.934 1.98686C103.533 1.4405 104.243 1.02808 105.015 0.777007C105.879 0.496346 106.783 0.35804 107.692 0.367512C108.601 0.35804 109.505 0.496346 110.369 0.777007C111.143 1.02862 111.856 1.43734 112.464 1.97754C113.077 2.51934 113.556 3.19647 113.861 3.95521C114.194 4.82318 114.352 5.74825 114.327 6.67742V15.0953C114.351 16.0259 114.193 16.9523 113.861 17.8221C113.56 18.574 113.096 19.2495 112.502 19.7998C111.895 20.3407 111.181 20.7481 110.406 20.9957C109.545 21.2728 108.644 21.4095 107.739 21.4005C106.83 21.4115 105.926 21.2748 105.061 20.9957C104.289 20.7439 103.576 20.3369 102.966 19.7998C102.365 19.2528 101.895 18.5767 101.593 17.8221C101.253 16.9539 101.087 16.0274 101.104 15.0953L101.08 6.67742ZM105.69 15.1883C105.639 15.8345 105.845 16.4746 106.263 16.9706C106.446 17.164 106.668 17.3166 106.914 17.4185C107.16 17.5203 107.425 17.569 107.692 17.5615C107.96 17.5684 108.227 17.5194 108.476 17.4177C108.724 17.3159 108.949 17.1637 109.135 16.9706C109.558 16.477 109.767 15.836 109.717 15.1883V6.57969C109.765 5.9295 109.556 5.28661 109.135 4.78817C108.951 4.59292 108.726 4.43983 108.477 4.33943C108.228 4.23902 107.96 4.19369 107.692 4.20651C107.424 4.20818 107.16 4.26387 106.914 4.37021C106.668 4.47656 106.447 4.63136 106.263 4.82538C105.849 5.31234 105.643 5.94246 105.69 6.57969V15.1883ZM119.308 21.8426C118.691 21.8426 118.099 21.5975 117.662 21.1611C117.226 20.7248 116.98 20.133 116.98 19.5159V2.29863C116.958 1.97811 117.009 1.65672 117.13 1.35907C117.251 1.06142 117.439 0.79543 117.679 0.581546C118.133 0.196311 118.713 -0.0104441 119.308 -0.000119473C119.904 -0.0104441 120.484 0.196311 120.938 0.581546C121.178 0.79543 121.366 1.06142 121.487 1.35907C121.608 1.65672 121.659 1.97811 121.636 2.29863V19.5159C121.636 20.133 121.391 20.7248 120.955 21.1611C120.518 21.5975 119.926 21.8426 119.308 21.8426Z" fill="white"/>
<path d="M129.854 3.43893C129.721 3.42083 129.586 3.45051 129.472 3.52269C129.402 3.61949 129.373 3.73945 129.389 3.85774V4.13693C129.389 4.34168 129.417 4.46731 129.472 4.50919C129.589 4.57255 129.722 4.59856 129.854 4.58366H143.007C143.239 4.55841 143.473 4.5873 143.691 4.66807C143.909 4.74883 144.105 4.87925 144.264 5.04899C144.508 5.35584 144.64 5.73678 144.637 6.12857C144.645 6.50847 144.512 6.8779 144.264 7.16625C144.099 7.32544 143.901 7.44664 143.684 7.52138C143.466 7.59613 143.236 7.62261 143.007 7.59901H137.001V8.66461H143.869C144.107 8.6391 144.348 8.66771 144.574 8.74828C144.799 8.82885 145.004 8.95931 145.172 9.12994C145.416 9.433 145.548 9.81119 145.545 10.2002C145.556 10.5922 145.42 10.9742 145.163 11.2705C144.994 11.4377 144.791 11.5659 144.567 11.6463C144.344 11.7267 144.105 11.7573 143.869 11.7358H125.431C125.195 11.7572 124.957 11.7266 124.734 11.6462C124.512 11.5658 124.309 11.4376 124.141 11.2705C123.883 10.9747 123.745 10.5928 123.755 10.2002C123.752 9.81119 123.883 9.433 124.127 9.12994C124.296 8.95931 124.5 8.82885 124.726 8.74828C124.952 8.66771 125.193 8.6391 125.431 8.66461H132.299V7.59901H127.782C127.272 7.60733 126.762 7.56366 126.26 7.4687C125.912 7.40305 125.59 7.24191 125.329 7.00337C125.082 6.74803 124.919 6.42321 124.863 6.0727C124.766 5.59504 124.722 5.10813 124.733 4.62086V3.29002C124.723 2.79968 124.766 2.30972 124.863 1.82887C124.92 1.47854 125.082 1.15389 125.329 0.898203C125.591 0.661845 125.913 0.501034 126.26 0.432871C126.76 0.325246 127.271 0.27683 127.782 0.288619H142.937C143.171 0.261863 143.407 0.290023 143.628 0.370813C143.849 0.451604 144.047 0.582791 144.208 0.753951C144.444 1.06419 144.57 1.44392 144.567 1.83353C144.574 2.23034 144.443 2.61725 144.195 2.92708C144.035 3.09594 143.838 3.22576 143.62 3.30646C143.402 3.38717 143.169 3.41657 142.937 3.39241L129.854 3.43893ZM127.34 21.8428C126.893 21.8532 126.449 21.7709 126.036 21.6009C125.681 21.4556 125.363 21.2331 125.105 20.9494C124.864 20.6798 124.681 20.3629 124.57 20.0187C124.451 19.6521 124.391 19.2688 124.393 18.8833V18.8089C124.36 18.0785 124.61 17.3635 125.091 16.8126C125.557 16.2976 126.302 16.0401 127.326 16.0401H139.781V15.626C139.781 15.3747 139.618 15.2491 139.292 15.2491H125.952C125.768 15.2614 125.583 15.2314 125.412 15.1612C125.241 15.091 125.088 14.9826 124.965 14.8442C124.75 14.6036 124.629 14.2926 124.626 13.9694C124.63 13.6492 124.742 13.3397 124.942 13.0899C125.063 12.9422 125.218 12.8264 125.395 12.7525C125.571 12.6787 125.762 12.6492 125.952 12.6665H141.969C142.961 12.6665 143.645 12.8526 144.018 13.2156C144.216 13.4333 144.368 13.6892 144.464 13.9677C144.56 14.2461 144.598 14.5412 144.576 14.8349V17.1616C144.576 17.3302 144.543 17.4973 144.479 17.6531C144.414 17.8089 144.319 17.9505 144.2 18.0697C144.081 18.189 143.939 18.2836 143.783 18.3482C143.627 18.4127 143.46 18.4459 143.291 18.4459H129.84C129.778 18.4387 129.715 18.444 129.655 18.4616C129.595 18.4792 129.539 18.5087 129.491 18.5483C129.426 18.6299 129.393 18.7325 129.398 18.8368C129.394 18.9467 129.427 19.0548 129.491 19.1439C129.537 19.1877 129.592 19.2209 129.653 19.241C129.713 19.2611 129.777 19.2677 129.84 19.2602H143.505C143.688 19.2429 143.871 19.2707 144.04 19.3414C144.209 19.412 144.358 19.5232 144.474 19.6651C144.662 19.9249 144.763 20.2377 144.763 20.5585C144.754 20.8663 144.657 21.1651 144.483 21.4194C144.377 21.5779 144.231 21.7048 144.058 21.7867C143.886 21.8686 143.695 21.9025 143.505 21.8847L127.34 21.8428Z" fill="white"/>
<path d="M167.149 8.55744C167.389 8.53092 167.632 8.56134 167.859 8.64622C168.085 8.73111 168.289 8.86806 168.452 9.04603C168.696 9.3602 168.827 9.74683 168.825 10.1442C168.831 10.5452 168.696 10.9357 168.443 11.2471C168.276 11.4172 168.073 11.5475 167.849 11.6281C167.625 11.7086 167.386 11.7375 167.149 11.7124H148.711C148.475 11.7378 148.236 11.7091 148.013 11.6285C147.789 11.5479 147.587 11.4174 147.421 11.2471C147.175 10.9379 147.044 10.5532 147.049 10.1582C147.047 9.76081 147.178 9.37417 147.421 9.06001C147.585 8.88203 147.788 8.74505 148.015 8.66017C148.241 8.57529 148.485 8.5449 148.725 8.57141L167.149 8.55744ZM150.62 21.8427C150.173 21.8531 149.73 21.7707 149.316 21.6007C148.961 21.4555 148.643 21.2329 148.385 20.9493C148.144 20.6797 147.961 20.3627 147.85 20.0186C147.731 19.6519 147.671 19.2686 147.673 18.8832V18.8087C147.64 18.0783 147.89 17.3634 148.371 16.8124C148.837 16.2975 149.582 16.04 150.606 16.04H163.061V15.5747C163.061 15.328 162.898 15.2024 162.572 15.2024H149.233C149.048 15.2148 148.863 15.1847 148.692 15.1145C148.521 15.0444 148.368 14.9359 148.246 14.7975C148.03 14.5569 147.909 14.2459 147.906 13.9227C147.91 13.6025 148.022 13.293 148.222 13.0433C148.343 12.8955 148.499 12.7797 148.675 12.7059C148.851 12.6321 149.042 12.6025 149.233 12.6198H165.249C166.241 12.6198 166.925 12.8059 167.298 13.1689C167.496 13.3866 167.648 13.6425 167.744 13.921C167.84 14.1994 167.878 14.4945 167.856 14.7883V17.4453C167.856 17.7032 167.754 17.9506 167.571 18.133C167.389 18.3154 167.141 18.4178 166.883 18.4178H153.12C153.058 18.4106 152.995 18.4159 152.935 18.4335C152.875 18.4511 152.82 18.4806 152.771 18.5202C152.706 18.6018 152.673 18.7044 152.678 18.8087C152.674 18.9186 152.707 19.0267 152.771 19.1158C152.817 19.1597 152.872 19.1928 152.933 19.2129C152.993 19.2331 153.057 19.2396 153.12 19.2322H166.785C166.968 19.2148 167.152 19.2427 167.321 19.3133C167.489 19.3839 167.638 19.4951 167.754 19.637C167.942 19.8968 168.043 20.2096 168.043 20.5304C168.034 20.8382 167.937 21.1371 167.763 21.3913C167.657 21.5498 167.511 21.6767 167.339 21.7586C167.166 21.8406 166.975 21.8744 166.785 21.8567L150.62 21.8427ZM168.08 3.97393C168.085 4.47863 167.998 4.98006 167.824 5.45368C167.658 5.90285 167.392 6.30854 167.046 6.64027C166.666 6.99157 166.218 7.26086 165.729 7.43134C165.13 7.63706 164.499 7.73629 163.866 7.72451H152.04C151.399 7.73903 150.761 7.63977 150.154 7.43134C149.667 7.2615 149.22 6.9921 148.842 6.64027C148.495 6.30871 148.227 5.90307 148.059 5.45368C147.885 4.98006 147.798 4.47863 147.803 3.97393C147.798 3.47376 147.885 2.97687 148.059 2.50812C148.23 2.06154 148.497 1.65802 148.842 1.32618C149.217 0.967324 149.664 0.692821 150.154 0.521136C150.761 0.314389 151.399 0.216712 152.04 0.232632H163.866C164.499 0.219452 165.129 0.317092 165.729 0.521136C166.228 0.687009 166.685 0.95842 167.07 1.31686C167.412 1.64917 167.678 2.05265 167.847 2.4988C168.015 2.97198 168.094 3.47209 168.08 3.97393ZM163.308 3.97393C163.312 3.87835 163.297 3.78287 163.263 3.69329C163.23 3.60371 163.178 3.52189 163.112 3.45275C162.9 3.29855 162.637 3.22886 162.376 3.25729H153.484C153.224 3.22776 152.963 3.29761 152.753 3.45275C152.685 3.52101 152.632 3.60258 152.598 3.69229C152.563 3.78201 152.548 3.87793 152.552 3.97393C152.547 4.07066 152.563 4.16736 152.597 4.25788C152.631 4.34841 152.684 4.43079 152.753 4.49975C152.962 4.65655 153.223 4.72805 153.484 4.69984H162.376C162.638 4.7274 162.9 4.65601 163.112 4.49975C163.179 4.42991 163.23 4.34728 163.264 4.25689C163.297 4.1665 163.312 4.07024 163.308 3.97393Z" fill="white"/>
<path d="M190.452 12.238H188.333V12.8848C188.35 14.0692 188.193 15.2497 187.867 16.3888C187.608 17.2997 187.19 18.1581 186.634 18.9249C186.145 19.5853 185.528 20.1395 184.818 20.5535C184.143 20.9436 183.406 21.2144 182.639 21.3539C182.184 21.453 181.709 21.3973 181.289 21.1957C181.094 21.1082 180.92 20.9798 180.78 20.8192C180.639 20.6586 180.535 20.4695 180.474 20.265C180.301 19.7685 180.314 19.2262 180.511 18.7387C180.607 18.5035 180.751 18.2906 180.933 18.1129C181.114 17.9352 181.331 17.7966 181.568 17.7057C181.937 17.5576 182.288 17.3688 182.616 17.1426C182.937 16.9161 183.207 16.6243 183.407 16.2864C183.65 15.8633 183.82 15.4024 183.91 14.923C184.038 14.2357 184.095 13.5372 184.082 12.8383V5.09516C184.101 4.95355 184.064 4.81018 183.98 4.69498C183.865 4.6217 183.729 4.58893 183.593 4.60191H181.265V12.5637C181.298 13.7092 181.108 14.8501 180.707 15.9235C180.388 16.7477 179.914 17.5029 179.31 18.1477C178.78 18.6931 178.147 19.1281 177.448 19.4274C176.841 19.6852 176.202 19.8559 175.548 19.9346C175.087 20.0129 174.613 19.9149 174.221 19.6601C174.05 19.5453 173.904 19.3971 173.792 19.2243C173.68 19.0515 173.604 18.8579 173.569 18.655C173.473 18.2012 173.51 17.7294 173.676 17.2962C173.785 17.0666 173.939 16.8611 174.128 16.6917C174.318 16.5223 174.539 16.3924 174.78 16.3097C175.059 16.184 175.338 16.0491 175.618 15.9002C175.907 15.7432 176.165 15.5333 176.377 15.2813C176.625 14.9724 176.807 14.6161 176.912 14.2343C177.057 13.6803 177.123 13.1084 177.108 12.5358V5.16031C177.126 5.02018 177.089 4.87832 177.005 4.76476C176.89 4.69311 176.754 4.66199 176.619 4.67635H175.362C175.074 4.68321 174.788 4.62766 174.524 4.51349C174.305 4.413 174.111 4.2652 173.956 4.08074C173.806 3.90072 173.695 3.69156 173.63 3.4665C173.56 3.24032 173.524 3.00515 173.523 2.7685C173.523 2.53584 173.554 2.30428 173.616 2.07981C173.679 1.85434 173.786 1.64383 173.932 1.46091C174.083 1.27107 174.278 1.12091 174.5 1.0235C174.771 0.904238 175.066 0.84701 175.362 0.855986H185.228C185.763 0.847602 186.298 0.894377 186.825 0.995581C187.172 1.06216 187.494 1.22318 187.756 1.46091C187.993 1.70062 188.155 2.00483 188.221 2.33574C188.309 2.79575 188.348 3.26362 188.338 3.73174V8.29665H190.456V2.24733C190.434 1.93102 190.486 1.61397 190.607 1.32095C190.729 1.02793 190.916 0.766876 191.155 0.558167C191.605 0.183613 192.175 -0.0177086 192.761 -0.00952564C193.055 -0.0111203 193.346 0.0392692 193.622 0.139356C193.894 0.238022 194.147 0.384612 194.367 0.57214C194.592 0.763327 194.771 1.00165 194.893 1.27014C195.03 1.57743 195.097 1.91115 195.089 2.24733V19.5205C195.089 20.1375 194.844 20.7293 194.407 21.1657C193.97 21.602 193.378 21.8471 192.761 21.8471C192.143 21.8471 191.551 21.602 191.115 21.1657C190.678 20.7293 190.433 20.1375 190.433 19.5205L190.452 12.238Z" fill="white"/>
<path d="M200.834 20.7955C200.255 20.8088 199.677 20.751 199.112 20.6233C198.716 20.537 198.352 20.3401 198.064 20.0556C197.798 19.7526 197.621 19.3823 197.552 18.9853C197.45 18.4314 197.403 17.8687 197.412 17.3055V3.04308C197.383 2.72701 197.426 2.40851 197.537 2.11125C197.649 1.81398 197.825 1.54559 198.055 1.326C198.51 0.956026 199.084 0.76415 199.67 0.786195C200.247 0.761194 200.812 0.953891 201.253 1.326C201.472 1.55161 201.64 1.82189 201.744 2.11829C201.849 2.41468 201.888 2.73017 201.858 3.04308V16.3097C201.858 16.5703 201.9 16.7378 201.989 16.8076C202.147 16.8965 202.33 16.9339 202.51 16.9146H205.979C206.297 16.9068 206.613 16.9606 206.91 17.0728C207.147 17.1693 207.358 17.3208 207.525 17.5149C207.677 17.6984 207.789 17.9127 207.851 18.1431C207.913 18.3801 207.944 18.6241 207.944 18.869C207.945 19.1131 207.911 19.3562 207.841 19.5903C207.775 19.8146 207.664 20.0234 207.516 20.2045C207.35 20.3938 207.143 20.5419 206.91 20.6373C206.613 20.7496 206.297 20.8033 205.979 20.7955H200.834ZM208.819 1.97745C208.801 1.69882 208.848 1.41975 208.957 1.16272C209.066 0.905682 209.234 0.677886 209.448 0.497691C209.856 0.167865 210.366 -0.00835536 210.891 -0.000218609C211.152 -0.000861023 211.412 0.0415983 211.659 0.12543C211.907 0.209686 212.136 0.340821 212.334 0.511664C212.531 0.681036 212.69 0.890433 212.8 1.12591C212.921 1.393 212.98 1.6842 212.972 1.97745V8.53865H214.206V1.97745C214.188 1.69882 214.235 1.41975 214.344 1.16272C214.453 0.905682 214.621 0.677886 214.835 0.497691C215.243 0.167865 215.753 -0.00835536 216.278 -0.000218609C216.539 -0.000861023 216.799 0.0415983 217.046 0.12543C217.294 0.209686 217.523 0.340821 217.721 0.511664C217.918 0.681036 218.077 0.890433 218.187 1.12591C218.308 1.393 218.367 1.6842 218.359 1.97745V19.7625C218.359 20.3141 218.14 20.8432 217.75 21.2333C217.359 21.6234 216.83 21.8425 216.278 21.8425C216.004 21.8431 215.733 21.7898 215.48 21.6855C215.227 21.5813 214.997 21.4281 214.803 21.2349C214.61 21.0417 214.456 20.8122 214.351 20.5595C214.246 20.3069 214.192 20.036 214.192 19.7625V12.3544H212.958V19.7625C212.958 20.3141 212.739 20.8432 212.349 21.2333C211.958 21.6234 211.429 21.8425 210.877 21.8425C210.603 21.8431 210.332 21.7898 210.079 21.6855C209.826 21.5813 209.596 21.4281 209.402 21.2349C209.209 21.0417 209.055 20.8122 208.95 20.5595C208.845 20.3069 208.791 20.036 208.791 19.7625L208.819 1.97745Z" fill="white"/>
<path d="M229.817 13.7227V17.2825H233.216C233.496 17.253 233.778 17.2895 234.041 17.3889C234.304 17.4883 234.54 17.6479 234.729 17.8548C235.019 18.222 235.175 18.6765 235.172 19.1438C235.175 19.6236 235.01 20.0895 234.706 20.4607C234.516 20.6649 234.282 20.8225 234.021 20.921C233.76 21.0195 233.48 21.0562 233.202 21.0284H222.121C221.842 21.0535 221.562 21.0154 221.3 20.9172C221.038 20.8189 220.801 20.6629 220.608 20.4607C220.301 20.0913 220.135 19.6242 220.142 19.1438C220.142 18.6731 220.307 18.2171 220.608 17.8548C220.8 17.6486 221.038 17.4896 221.302 17.3903C221.566 17.291 221.85 17.2541 222.13 17.2825H225.296V13.7227H224.039C223.506 13.7352 222.974 13.6773 222.456 13.5505C222.079 13.4592 221.736 13.2604 221.469 12.9782C221.211 12.6856 221.037 12.3286 220.966 11.9451C220.866 11.4365 220.819 10.9187 220.827 10.4002V2.57799C220.798 2.26614 220.844 1.95202 220.96 1.66101C221.075 1.37 221.258 1.11025 221.492 0.902772C221.958 0.555808 222.528 0.377006 223.108 0.395575C223.677 0.366485 224.237 0.546933 224.682 0.902772C224.896 1.12235 225.06 1.38595 225.162 1.67524C225.264 1.96453 225.302 2.2726 225.273 2.57799V3.43884H229.603V2.57799C229.572 2.26864 229.611 1.95617 229.718 1.66431C229.826 1.37244 229.998 1.10884 230.222 0.893484C230.678 0.544927 231.242 0.368555 231.815 0.395575C232.393 0.371101 232.962 0.550624 233.421 0.902772C233.646 1.11625 233.819 1.37796 233.928 1.66814C234.037 1.95832 234.079 2.26942 234.05 2.57799V11.3495C234.05 11.9789 233.799 12.5825 233.354 13.0276C232.909 13.4727 232.305 13.7227 231.675 13.7227H229.817ZM229.608 9.68826V7.36159C229.608 7.2172 229.55 7.07871 229.448 6.97661C229.346 6.87451 229.208 6.81716 229.063 6.81716H225.804C225.66 6.81961 225.523 6.87868 225.423 6.98152C225.323 7.08436 225.267 7.22265 225.268 7.36625V9.63708C225.268 9.90232 225.306 10.0652 225.385 10.1303C225.544 10.2078 225.721 10.2384 225.897 10.2187H229.054C229.197 10.2213 229.335 10.1675 229.438 10.0692C229.542 9.97081 229.603 9.83568 229.608 9.69291V9.68826ZM236.01 2.24293C235.988 1.92663 236.04 1.60957 236.161 1.31656C236.282 1.02354 236.469 0.762482 236.708 0.553772C237.159 0.179219 237.728 -0.0221032 238.314 -0.0139202C238.608 -0.0155148 238.9 0.0349031 239.176 0.13499C239.446 0.231599 239.696 0.378429 239.911 0.567746C240.129 0.762131 240.304 0.999899 240.424 1.26574C240.56 1.57304 240.627 1.90676 240.619 2.24293V8.12474H241.387C241.693 8.11492 241.996 8.17878 242.272 8.31089C242.491 8.42141 242.682 8.58057 242.831 8.77622C242.972 8.97215 243.075 9.19325 243.133 9.42767C243.194 9.66028 243.225 9.89941 243.227 10.1396C243.225 10.3783 243.193 10.6159 243.133 10.8469C243.075 11.0814 242.972 11.3025 242.831 11.4984C242.68 11.6954 242.486 11.8547 242.263 11.9637C241.989 12.0913 241.689 12.1534 241.387 12.1452H240.633V19.4975C240.633 20.1105 240.391 20.6988 239.959 21.1345C239.528 21.5702 238.942 21.818 238.328 21.8241C237.715 21.818 237.129 21.5702 236.697 21.1345C236.266 20.6988 236.024 20.1105 236.024 19.4975L236.01 2.24293Z" fill="white"/>
<path d="M244.018 19.6089C244.002 19.2926 244.052 18.9763 244.164 18.68C244.276 18.3837 244.448 18.1138 244.67 17.8872C245.177 17.4456 245.838 17.2216 246.509 17.2637C246.846 17.2387 247.185 17.2824 247.505 17.3919C247.826 17.5015 248.12 17.6747 248.371 17.9012C248.591 18.126 248.763 18.3936 248.875 18.6874C248.987 18.9812 249.037 19.2948 249.023 19.6089C249.038 19.9238 248.987 20.2383 248.875 20.5329C248.763 20.8275 248.592 21.0958 248.371 21.3214C248.12 21.5478 247.826 21.7211 247.505 21.8306C247.185 21.9402 246.846 21.9838 246.509 21.9589C245.838 22.0009 245.177 21.7769 244.67 21.3353C244.449 21.1072 244.277 20.8364 244.165 20.5395C244.053 20.2426 244.003 19.9259 244.018 19.6089ZM246.509 16.1655C245.879 16.1655 245.275 15.9155 244.83 15.4704C244.385 15.0253 244.134 14.4217 244.134 13.7923V2.46145C244.128 2.12196 244.197 1.78524 244.335 1.47495C244.455 1.20025 244.633 0.954355 244.856 0.753662C245.077 0.557781 245.335 0.407571 245.615 0.311618C245.902 0.210302 246.205 0.159905 246.509 0.162709C246.807 0.161869 247.103 0.212241 247.384 0.311618C247.665 0.410755 247.926 0.56057 248.152 0.753662C248.38 0.953728 248.562 1.19953 248.688 1.47495C248.823 1.78609 248.889 2.12244 248.883 2.46145V13.7923C248.883 14.4217 248.633 15.0253 248.188 15.4704C247.743 15.9155 247.139 16.1655 246.509 16.1655Z" fill="white"/>
<path d="M73.7969 37.1987C74.0839 37.1913 74.3693 37.2436 74.635 37.3522C74.8507 37.4414 75.0445 37.5763 75.203 37.7477C75.3505 37.9068 75.459 38.098 75.5197 38.3061C75.5805 38.5132 75.6118 38.7278 75.6128 38.9437C75.6184 39.3806 75.47 39.8056 75.1937 40.1442C75.0164 40.3323 74.7983 40.4772 74.5561 40.5675C74.3139 40.6579 74.0541 40.6914 73.7969 40.6654H67.0691V42.0614H71.3293C71.9 42.0478 72.4703 42.1009 73.0287 42.2196C73.4157 42.3037 73.768 42.5033 74.039 42.792C74.2979 43.1008 74.4685 43.4738 74.5325 43.8715C74.6246 44.4266 74.6667 44.9888 74.6583 45.5514V48.0735C74.6583 48.5264 74.4782 48.9608 74.1578 49.2811C73.8373 49.6013 73.4028 49.7813 72.9496 49.7813H58.0831C57.5116 49.7959 56.9406 49.738 56.3837 49.6091C55.9993 49.5208 55.6486 49.3237 55.3734 49.0414C55.1218 48.7347 54.9606 48.3642 54.9078 47.9711C54.8111 47.4087 54.7674 46.8385 54.7774 46.268V45.5235C54.7679 44.9607 54.8116 44.3982 54.9078 43.8436C54.9617 43.4481 55.1227 43.0748 55.3734 42.764C55.6444 42.4754 55.9967 42.2758 56.3837 42.1917C56.9421 42.073 57.5124 42.0199 58.0831 42.0335H62.3666V40.6375H55.6387C55.3815 40.6635 55.1217 40.63 54.8795 40.5396C54.6373 40.4493 54.4191 40.3044 54.2419 40.1163C53.9655 39.7777 53.8173 39.3527 53.8229 38.9157C53.8239 38.6999 53.8552 38.4853 53.916 38.2782C53.9767 38.07 54.0851 37.8789 54.2326 37.7198C54.391 37.5484 54.5849 37.4134 54.8007 37.3243C55.0664 37.2156 55.3517 37.1633 55.6387 37.1707L73.7969 37.1987ZM60.0386 31.4751C59.8758 31.4565 59.7114 31.4943 59.573 31.5821C59.5241 31.6318 59.4868 31.692 59.4643 31.758C59.4417 31.8241 59.4344 31.8944 59.4427 31.9637V32.3127C59.4427 32.5314 59.4846 32.671 59.573 32.7361C59.7154 32.8132 59.8776 32.8456 60.0386 32.8292H73.0753C73.3103 32.8048 73.5477 32.8383 73.7669 32.9267C73.986 33.0151 74.1801 33.1558 74.3324 33.3364C74.5736 33.6606 74.7042 34.0538 74.7049 34.4578C74.7076 34.8496 74.5761 35.2306 74.3324 35.5374C74.1733 35.7072 73.9769 35.8376 73.7587 35.9183C73.5405 35.9991 73.3066 36.028 73.0753 36.0027H57.8503C57.3398 36.0123 56.8297 35.9702 56.3278 35.8771C55.9801 35.8115 55.6577 35.6503 55.3966 35.4118C55.154 35.1627 54.9918 34.8466 54.931 34.5044C54.8341 34.0267 54.7905 33.5398 54.8007 33.0526V31.2331C54.791 30.7412 54.8346 30.2498 54.931 29.7673C54.9881 29.4171 55.1505 29.0925 55.3966 28.8366C55.6603 28.602 55.9817 28.4414 56.3278 28.3713C56.8288 28.2703 57.3392 28.2235 57.8503 28.2317H73.0194C73.2555 28.2052 73.4945 28.2371 73.7154 28.3248C73.9362 28.4124 74.1321 28.5531 74.2858 28.7342C74.5214 29.0538 74.6486 29.4402 74.6489 29.8371C74.652 30.2446 74.5211 30.6418 74.2764 30.9678C74.1228 31.1462 73.9282 31.2846 73.7092 31.3713C73.4903 31.4581 73.2536 31.4905 73.0194 31.4658L60.0386 31.4751ZM59.41 45.9888C59.4031 46.1507 59.4401 46.3115 59.5171 46.4541C59.587 46.5565 59.736 46.603 59.9827 46.603H70.0396V45.7236C70.0506 45.5601 70.0098 45.3973 69.9232 45.2582C69.8622 45.1992 69.7885 45.1548 69.7079 45.1282C69.6273 45.1016 69.5418 45.0935 69.4576 45.1047H59.9827C59.7499 45.1047 59.6009 45.1558 59.5171 45.2582C59.4382 45.4001 59.4011 45.5615 59.41 45.7236V45.9888Z" fill="white"/>
<path d="M86.5774 33.5504V33.7318C86.5847 34.0956 86.566 34.4595 86.5214 34.8207C88.3233 34.8207 89.6549 35.2535 90.5256 36.1655C90.9917 36.6788 91.3242 37.2989 91.494 37.971C91.5748 38.2816 91.583 38.6066 91.5178 38.9209C91.4527 39.2352 91.3159 39.5302 91.1183 39.7831C90.9206 40.036 90.6672 40.24 90.3779 40.3793C90.0886 40.5186 89.7711 40.5894 89.45 40.5862H89.2079C88.7805 40.5769 88.3665 40.4348 88.0236 40.1796C87.6807 39.9245 87.4257 39.5689 87.2943 39.1623C87.2178 38.9377 87.0975 38.7305 86.9404 38.5527C86.7357 38.3257 86.4766 38.1544 86.1875 38.0551C85.8983 37.9558 85.5887 37.9317 85.2877 37.985C84.6111 38.9257 83.6946 39.6681 82.6337 40.1348C81.5941 40.6011 80.4675 40.8421 79.328 40.8421C78.8053 40.8545 78.2935 40.6905 77.8753 40.3768C77.6826 40.2335 77.5276 40.0456 77.4238 39.8291C77.32 39.6127 77.2704 39.3742 77.2793 39.1343C77.25 38.6743 77.3965 38.2203 77.6891 37.864C77.9765 37.5546 78.3711 37.3665 78.7925 37.3381C79.7524 37.2743 80.6555 36.8603 81.3301 36.1748C81.9417 35.5111 82.2678 34.6337 82.238 33.7318V33.5504H79.0719C78.8167 33.5555 78.564 33.498 78.3362 33.3828C78.1368 33.2805 77.9596 33.1398 77.8148 32.9687C77.676 32.7967 77.566 32.6034 77.4889 32.3963C77.4113 32.1911 77.3719 31.9735 77.3725 31.7541C77.3754 31.5385 77.4067 31.3241 77.4656 31.1166C77.5226 30.9001 77.6258 30.6985 77.7682 30.5257C77.9156 30.3467 78.0978 30.1995 78.3037 30.0929C78.5416 29.9729 78.8055 29.9137 79.0719 29.9207H82.1449V29.8044C82.121 29.5206 82.1608 29.235 82.2615 28.9685C82.3622 28.702 82.5212 28.4614 82.7269 28.2642C83.2141 27.9183 83.807 27.7537 84.403 27.7988C85.0031 27.7555 85.5999 27.9198 86.0931 28.2642C86.3013 28.4599 86.4625 28.7001 86.5649 28.9668C86.6672 29.2334 86.7082 29.5197 86.6844 29.8044V29.9207H89.8504C90.1168 29.9137 90.3808 29.9729 90.6187 30.0929C90.8246 30.1995 91.0067 30.3467 91.1541 30.5257C91.2965 30.6985 91.3998 30.9001 91.4568 31.1166C91.5157 31.3241 91.547 31.5385 91.5499 31.7541C91.5505 31.9735 91.5111 32.1911 91.4335 32.3963C91.3565 32.6034 91.2464 32.7967 91.1076 32.9687C90.9628 33.1398 90.7855 33.2805 90.5861 33.3828C90.3585 33.4985 90.1057 33.5561 89.8504 33.5504H86.5774ZM90.8375 43.4573C91.7379 43.4301 92.6379 43.5208 93.5147 43.7272C94.4042 43.9329 95.2515 44.2902 96.0195 44.7835C96.8023 45.2991 97.4685 45.9728 97.9751 46.7611V46.789C98.1636 47.0801 98.27 47.4165 98.2832 47.763C98.2963 48.1094 98.2157 48.453 98.0498 48.7574C97.8839 49.0619 97.6389 49.316 97.3406 49.4929C97.0423 49.6698 96.7017 49.7629 96.3549 49.7625H95.5121C95.176 49.7657 94.8448 49.6815 94.551 49.5184C94.2572 49.3553 94.0108 49.1187 93.8359 48.8319C93.7524 48.6946 93.6607 48.5625 93.5613 48.4363C93.2415 48.0407 92.8496 47.7091 92.4065 47.4591C91.9388 47.1976 91.4304 47.0167 90.9026 46.924C90.3307 46.8226 89.7465 46.8101 89.1706 46.8868C88.5934 47.4398 87.949 47.9181 87.2524 48.3107C86.5121 48.7265 85.7323 49.0678 84.9245 49.3298C84.1328 49.5918 83.3195 49.7833 82.4941 49.9021C81.7343 50.0163 80.9633 50.0366 80.1986 49.9626C79.9286 49.933 79.6657 49.8574 79.4211 49.7393C79.1831 49.6246 78.9683 49.4668 78.7879 49.2739C78.6104 49.0897 78.4698 48.8733 78.3735 48.6364C78.2714 48.3907 78.2268 48.1249 78.2431 47.8593C78.2489 47.3736 78.4443 46.9093 78.7879 46.5657C79.1039 46.257 79.5242 46.0777 79.9658 46.0631H80.4314C80.5865 46.0729 80.742 46.0729 80.897 46.0631C81.431 46.0178 81.9605 45.9292 82.4801 45.7979C82.9937 45.6708 83.4929 45.4915 83.97 45.2628C84.3954 45.0609 84.7916 44.8026 85.148 44.495C85.5519 44.1505 85.8706 43.7173 86.0791 43.2293C86.2886 42.6395 86.6617 42.1214 87.1547 41.7355C87.6216 41.4498 88.1701 41.3271 88.7144 41.3865C89.2623 41.3939 89.7932 41.5784 90.2275 41.9124C90.4343 42.1058 90.5942 42.3438 90.6951 42.6083C90.7959 42.8728 90.835 43.1568 90.8095 43.4387L90.8375 43.4573ZM93.5613 30.2186C93.5394 29.8961 93.5922 29.573 93.7158 29.2744C93.8393 28.9757 94.0302 28.7096 94.2735 28.4968C94.7332 28.1143 95.3143 27.908 95.9124 27.9152C96.2109 27.9159 96.507 27.9678 96.7878 28.0687C97.0674 28.1728 97.3236 28.331 97.542 28.5341C97.765 28.7359 97.9442 28.9814 98.0682 29.2553C98.2034 29.5663 98.2701 29.9028 98.2637 30.2418V39.9394C98.2565 40.5542 98.0089 41.1418 97.5739 41.5765C97.1388 42.0113 96.5509 42.2588 95.9357 42.266C95.3165 42.2648 94.7227 42.0201 94.2826 41.5846C93.8426 41.1492 93.5918 40.5582 93.5845 39.9394L93.5613 30.2186Z" fill="white"/>
<path d="M120.356 37.1987C120.643 37.1913 120.929 37.2436 121.195 37.3522C121.41 37.4414 121.604 37.5763 121.763 37.7477C121.91 37.9068 122.019 38.098 122.079 38.3061C122.14 38.5132 122.171 38.7278 122.172 38.9437C122.178 39.3806 122.03 39.8056 121.753 40.1442C121.576 40.3323 121.358 40.4772 121.116 40.5675C120.873 40.6579 120.614 40.6914 120.356 40.6654H113.629V42.0614H117.889C118.46 42.0478 119.03 42.1009 119.588 42.2196C119.975 42.3037 120.328 42.5033 120.599 42.792C120.857 43.1008 121.028 43.4738 121.092 43.8715C121.184 44.4266 121.226 44.9888 121.218 45.5514V48.241C121.218 48.6495 121.055 49.0413 120.766 49.3301C120.477 49.619 120.085 49.7813 119.677 49.7813H104.643C104.071 49.7959 103.5 49.738 102.943 49.6091C102.559 49.5208 102.208 49.3237 101.933 49.0414C101.681 48.7347 101.52 48.3642 101.467 47.9711C101.371 47.4087 101.327 46.8385 101.337 46.268V45.5235C101.327 44.9607 101.371 44.3982 101.467 43.8436C101.521 43.4481 101.682 43.0748 101.933 42.764C102.204 42.4754 102.556 42.2758 102.943 42.1917C103.502 42.073 104.072 42.0199 104.643 42.0335H108.926V40.6375H102.198C101.941 40.6635 101.681 40.63 101.439 40.5396C101.197 40.4493 100.979 40.3044 100.801 40.1163C100.525 39.7777 100.377 39.3527 100.382 38.9157C100.383 38.6999 100.415 38.4853 100.476 38.2782C100.536 38.07 100.645 37.8789 100.792 37.7198C100.951 37.5484 101.144 37.4134 101.36 37.3243C101.626 37.2156 101.911 37.1633 102.198 37.1707L120.356 37.1987ZM106.598 31.4751C106.435 31.4565 106.271 31.4943 106.133 31.5821C106.084 31.6318 106.046 31.692 106.024 31.758C106.001 31.8241 105.994 31.8944 106.002 31.9637V32.3127C106.002 32.5314 106.044 32.671 106.133 32.7361C106.275 32.8132 106.437 32.8456 106.598 32.8292H119.635C119.87 32.8048 120.107 32.8383 120.326 32.9267C120.546 33.0151 120.74 33.1558 120.892 33.3364C121.133 33.6606 121.264 34.0538 121.264 34.4578C121.267 34.8496 121.136 35.2306 120.892 35.5374C120.733 35.7072 120.536 35.8376 120.318 35.9183C120.1 35.9991 119.866 36.028 119.635 36.0027H104.41C103.899 36.0123 103.389 35.9702 102.887 35.8771C102.54 35.8115 102.217 35.6503 101.956 35.4118C101.714 35.1627 101.551 34.8466 101.491 34.5044C101.394 34.0267 101.35 33.5398 101.36 33.0526V31.2331C101.351 30.7412 101.394 30.2498 101.491 29.7673C101.548 29.4171 101.71 29.0925 101.956 28.8366C102.22 28.602 102.541 28.4414 102.887 28.3713C103.388 28.2703 103.899 28.2235 104.41 28.2317H119.579C119.815 28.2052 120.054 28.2371 120.275 28.3248C120.496 28.4124 120.692 28.5531 120.845 28.7342C121.081 29.0538 121.208 29.4402 121.209 29.8371C121.212 30.2446 121.081 30.6418 120.836 30.9678C120.682 31.1462 120.488 31.2846 120.269 31.3713C120.05 31.4581 119.813 31.4905 119.579 31.4658L106.598 31.4751ZM105.97 45.9888C105.963 46.1507 106 46.3115 106.077 46.4541C106.147 46.5565 106.296 46.603 106.542 46.603H115.919C116.1 46.603 116.273 46.5315 116.4 46.4041C116.528 46.2766 116.599 46.1038 116.599 45.9236V45.7236C116.61 45.5601 116.569 45.3973 116.483 45.2582C116.422 45.1992 116.348 45.1548 116.267 45.1282C116.187 45.1016 116.101 45.0935 116.017 45.1047H106.542C106.309 45.1047 106.161 45.1558 106.077 45.2582C105.998 45.4001 105.961 45.5615 105.97 45.7236V45.9888Z" fill="white"/>
<path d="M133.137 33.5504V33.7318C133.144 34.0956 133.125 34.4595 133.081 34.8207C134.883 34.8207 136.214 35.2535 137.085 36.1655C137.551 36.6788 137.884 37.2989 138.053 37.971C138.134 38.2816 138.142 38.6066 138.077 38.9209C138.012 39.2352 137.875 39.5302 137.678 39.7831C137.48 40.036 137.227 40.24 136.937 40.3793C136.648 40.5186 136.33 40.5894 136.009 40.5862H135.767C135.34 40.5769 134.926 40.4348 134.583 40.1796C134.24 39.9245 133.985 39.5689 133.854 39.1623C133.777 38.9377 133.657 38.7305 133.5 38.5527C133.295 38.3257 133.036 38.1544 132.747 38.0551C132.458 37.9558 132.148 37.9317 131.847 37.985C131.17 38.9257 130.254 39.6681 129.193 40.1348C128.153 40.6011 127.027 40.8421 125.887 40.8421C125.365 40.8545 124.853 40.6905 124.435 40.3768C124.242 40.2335 124.087 40.0456 123.983 39.8291C123.879 39.6127 123.83 39.3742 123.839 39.1343C123.809 38.6743 123.956 38.2203 124.248 37.864C124.536 37.5546 124.93 37.3665 125.352 37.3381C126.312 37.2743 127.215 36.8603 127.889 36.1748C128.501 35.5111 128.827 34.6337 128.797 33.7318V33.5504H125.631C125.376 33.5555 125.123 33.498 124.896 33.3828C124.696 33.2805 124.519 33.1398 124.374 32.9687C124.235 32.7967 124.125 32.6034 124.048 32.3963C123.971 32.1911 123.931 31.9735 123.932 31.7541C123.935 31.5385 123.966 31.3241 124.025 31.1166C124.082 30.9001 124.185 30.6985 124.328 30.5257C124.475 30.3467 124.657 30.1995 124.863 30.0929C125.101 29.9729 125.365 29.9137 125.631 29.9207H128.704V29.8044C128.68 29.5206 128.72 29.235 128.821 28.9685C128.922 28.702 129.081 28.4614 129.286 28.2642C129.773 27.9183 130.366 27.7537 130.962 27.7988C131.562 27.7555 132.159 27.9198 132.652 28.2642C132.861 28.4599 133.022 28.7001 133.124 28.9668C133.227 29.2334 133.267 29.5197 133.244 29.8044V29.9207H136.41C136.676 29.9137 136.94 29.9729 137.178 30.0929C137.384 30.1995 137.566 30.3467 137.713 30.5257C137.856 30.6985 137.959 30.9001 138.016 31.1166C138.075 31.3241 138.106 31.5385 138.109 31.7541C138.11 31.9735 138.07 32.1911 137.993 32.3963C137.916 32.6034 137.806 32.7967 137.667 32.9687C137.522 33.1398 137.345 33.2805 137.145 33.3828C136.918 33.4985 136.665 33.5561 136.41 33.5504H133.137ZM137.397 43.4573C138.297 43.4301 139.197 43.5208 140.074 43.7272C140.963 43.9329 141.811 44.2902 142.579 44.7835C143.362 45.2991 144.028 45.9728 144.534 46.7611V46.789C144.717 47.0869 144.816 47.428 144.821 47.777C144.827 48.126 144.739 48.4701 144.566 48.7736C144.394 49.0771 144.143 49.3289 143.84 49.5028C143.537 49.6767 143.193 49.7664 142.844 49.7625H142.071C141.735 49.7657 141.404 49.6815 141.11 49.5184C140.817 49.3553 140.57 49.1187 140.395 48.8319C140.312 48.6946 140.22 48.5625 140.121 48.4363C139.801 48.0407 139.409 47.7091 138.966 47.4591C138.498 47.1976 137.99 47.0167 137.462 46.924C136.89 46.8226 136.306 46.8101 135.73 46.8868C135.153 47.4398 134.508 47.9181 133.812 48.3107C133.071 48.7265 132.292 49.0678 131.484 49.3298C130.692 49.5918 129.879 49.7833 129.053 49.9021C128.294 50.0163 127.523 50.0366 126.758 49.9626C126.488 49.933 126.225 49.8574 125.98 49.7393C125.742 49.6246 125.528 49.4668 125.347 49.2739C125.17 49.0897 125.029 48.8733 124.933 48.6364C124.831 48.3907 124.786 48.1249 124.802 47.8593C124.808 47.3736 125.004 46.9093 125.347 46.5657C125.663 46.257 126.083 46.0777 126.525 46.0631H126.991C127.146 46.0729 127.301 46.0729 127.456 46.0631C127.99 46.0178 128.52 45.9292 129.039 45.7979C129.553 45.6708 130.052 45.4915 130.529 45.2628C130.955 45.0609 131.351 44.8026 131.707 44.495C132.111 44.1523 132.43 43.7206 132.638 43.2339C132.846 42.642 133.22 42.1219 133.714 41.7355C134.181 41.4498 134.729 41.3271 135.274 41.3865C135.822 41.3939 136.353 41.5784 136.787 41.9124C136.994 42.1058 137.154 42.3438 137.254 42.6083C137.355 42.8728 137.394 43.1568 137.369 43.4387L137.397 43.4573ZM140.121 30.2186C140.099 29.8961 140.152 29.573 140.275 29.2744C140.399 28.9757 140.589 28.7096 140.833 28.4968C141.293 28.1143 141.874 27.908 142.472 27.9152C142.77 27.9159 143.066 27.9678 143.347 28.0687C143.627 28.1728 143.883 28.331 144.101 28.5341C144.324 28.7359 144.503 28.9814 144.628 29.2553C144.763 29.5663 144.829 29.9028 144.823 30.2418V40.1906C144.823 40.7489 144.601 41.2844 144.207 41.6796C143.812 42.0747 143.277 42.2974 142.719 42.2986H142.225C141.666 42.2974 141.131 42.0747 140.737 41.6796C140.342 41.2844 140.121 40.7489 140.121 40.1906V30.2186Z" fill="white"/>
<path d="M154.438 40.4794C153.876 40.4905 153.315 40.4484 152.762 40.3538C152.396 40.3023 152.054 40.1399 151.784 39.8885C151.533 39.6135 151.371 39.2699 151.318 38.902C151.243 38.3531 151.209 37.7994 151.216 37.2454V32.0104C151.21 31.4626 151.244 30.9151 151.318 30.3724C151.366 30.0029 151.529 29.6579 151.784 29.3859C152.056 29.1374 152.397 28.9755 152.762 28.9206C153.315 28.826 153.876 28.7839 154.438 28.7949H159.908C160.148 28.7648 160.39 28.7995 160.612 28.8953C160.833 28.991 161.024 29.1444 161.166 29.3394C161.387 29.7154 161.5 30.1455 161.491 30.5818C161.503 31.0212 161.387 31.4546 161.156 31.8289C161.009 32.0143 160.818 32.1593 160.6 32.2505C160.381 32.3416 160.144 32.3759 159.908 32.3501H156.323C156.129 32.3268 155.933 32.3677 155.765 32.4664C155.664 32.6341 155.623 32.8309 155.648 33.0248V36.2821C155.622 36.4776 155.663 36.6761 155.765 36.8452C155.933 36.9439 156.129 36.9848 156.323 36.9615H160.49C160.73 36.9326 160.973 36.9663 161.196 37.0593C161.419 37.1522 161.614 37.3013 161.762 37.492C161.989 37.8627 162.105 38.2906 162.097 38.7251C162.108 39.1688 161.991 39.6064 161.762 39.9862C161.614 40.1768 161.419 40.3259 161.196 40.4189C160.973 40.5119 160.73 40.5456 160.49 40.5167L154.438 40.4794ZM155.672 49.7861C155.127 49.7989 154.584 49.7379 154.056 49.6046C153.672 49.5045 153.321 49.3037 153.041 49.023C152.777 48.7267 152.597 48.3652 152.519 47.976C152.408 47.4545 152.357 46.9222 152.366 46.3892V43.9276C152.338 43.6016 152.388 43.2737 152.511 42.9705C152.634 42.6672 152.826 42.3973 153.073 42.1826C153.555 41.8062 154.152 41.6073 154.764 41.6195C155.364 41.6038 155.951 41.8035 156.417 42.1826C156.655 42.4023 156.84 42.6739 156.957 42.9765C157.074 43.279 157.12 43.6044 157.092 43.9276V45.6214C157.092 45.8866 157.129 46.0495 157.208 46.1146C157.367 46.1921 157.544 46.2227 157.72 46.203H170.198C170.475 46.1756 170.755 46.2107 171.017 46.3057C171.279 46.4008 171.516 46.5533 171.711 46.7521C172.009 47.0998 172.174 47.5416 172.177 47.9992C172.183 48.4613 172.017 48.9091 171.711 49.2556C171.516 49.4492 171.28 49.5971 171.021 49.6888C170.762 49.7806 170.486 49.8138 170.212 49.7861H155.672ZM168.103 37.4548H166.939V41.9266C166.939 42.1894 166.887 42.4496 166.786 42.6923C166.686 42.9351 166.538 43.1557 166.352 43.3415C166.167 43.5273 165.946 43.6747 165.703 43.7752C165.46 43.8758 165.2 43.9276 164.937 43.9276C164.406 43.9263 163.898 43.7151 163.523 43.3401C163.147 42.9651 162.936 42.4569 162.935 41.9266V29.9164C162.917 29.6415 162.961 29.3661 163.064 29.1107C163.167 28.8552 163.327 28.6264 163.531 28.4413C163.92 28.1094 164.416 27.9307 164.927 27.9387C165.438 27.9332 165.934 28.1116 166.324 28.4413C166.531 28.6244 166.694 28.8527 166.799 29.1085C166.904 29.3642 166.948 29.6406 166.93 29.9164V33.8717H168.094V29.9164C168.075 29.6393 168.121 29.3618 168.229 29.1057C168.336 28.8497 168.502 28.6222 168.713 28.4413C169.114 28.109 169.621 27.9308 170.142 27.9387C170.66 27.9354 171.162 28.1132 171.562 28.4413C171.775 28.6208 171.943 28.8478 172.052 29.104C172.162 29.3602 172.209 29.6385 172.191 29.9164V41.9266C172.191 42.4573 171.98 42.9662 171.604 43.3415C171.229 43.7167 170.72 43.9276 170.189 43.9276H170.096C169.565 43.9263 169.057 43.7151 168.681 43.3401C168.306 42.9651 168.095 42.4569 168.094 41.9266L168.103 37.4548Z" fill="white"/>
<path d="M174.053 45.086C174.873 44.5458 175.59 43.8653 176.172 43.0758C176.754 42.2621 177.21 41.3646 177.522 40.4141C177.885 39.3016 178.127 38.1534 178.244 36.9892C178.392 35.5593 178.461 34.1224 178.453 32.6849V30.8747C178.431 30.5584 178.483 30.2412 178.604 29.9482C178.725 29.6551 178.913 29.3941 179.152 29.1856C179.602 28.8097 180.171 28.6067 180.758 28.6132C181.052 28.6132 181.344 28.6652 181.619 28.7668C181.894 28.8699 182.144 29.0283 182.355 29.2321C182.569 29.4348 182.743 29.6765 182.867 29.9441C182.999 30.2364 183.066 30.554 183.063 30.8747V32.6616C183.071 34.2094 182.977 35.7561 182.783 37.2917C183.706 37.6164 184.571 38.0878 185.344 38.6877C186.091 39.2894 186.702 40.0428 187.137 40.898C187.636 41.8994 187.966 42.9764 188.114 44.0855C188.213 44.7656 188.272 45.4508 188.291 46.1376C188.3 46.4344 188.249 46.7299 188.142 47.0067C188.035 47.2835 187.873 47.536 187.666 47.7494C187.46 47.9628 187.213 48.1327 186.939 48.2491C186.666 48.3654 186.372 48.426 186.075 48.4271C185.492 48.4247 184.933 48.1929 184.519 47.782C184.105 47.371 183.87 46.8138 183.864 46.2307C183.826 43.9444 183.171 42.3638 181.899 41.489C180.887 44.6843 179.226 46.9023 176.917 48.1432C176.631 48.2978 176.326 48.4121 176.009 48.4829C175.704 48.554 175.39 48.5775 175.078 48.5527C174.8 48.5339 174.528 48.4629 174.277 48.3433C174.044 48.2383 173.839 48.0787 173.681 47.878C173.524 47.6879 173.401 47.4723 173.318 47.2405C173.235 47.0014 173.2 46.7485 173.215 46.496C173.232 46.2317 173.307 45.9744 173.434 45.7421C173.586 45.4776 173.798 45.2528 174.053 45.086ZM190.559 38.5713H187.602C187.295 38.581 186.989 38.5205 186.708 38.3945C186.474 38.2865 186.267 38.1275 186.103 37.9292C185.942 37.739 185.823 37.517 185.754 37.2777C185.683 37.0487 185.646 36.8102 185.647 36.5704C185.646 36.3291 185.683 36.089 185.754 35.8584C185.821 35.6239 185.935 35.4055 186.089 35.2163C186.257 35.021 186.463 34.8626 186.694 34.7509C186.986 34.6169 187.305 34.5531 187.625 34.5648H190.582V30.1674C190.56 29.8511 190.611 29.5339 190.733 29.2408C190.854 28.9478 191.041 28.6867 191.28 28.4783C191.731 28.1024 192.3 27.8994 192.887 27.9059C193.181 27.9059 193.472 27.9579 193.748 28.0595C194.019 28.1583 194.271 28.3031 194.493 28.4876C194.715 28.6797 194.893 28.9178 195.015 29.1856C195.154 29.4937 195.222 29.8293 195.215 30.1674V47.4406C195.215 48.0576 194.969 48.6494 194.533 49.0858C194.096 49.5221 193.504 49.7672 192.887 49.7672C192.269 49.7672 191.677 49.5221 191.241 49.0858C190.804 48.6494 190.559 48.0576 190.559 47.4406V38.5713Z" fill="white"/>
</g>
<defs>
<clipPath id="clip0_3887_85063">
<rect width="249" height="50" fill="white"/>
</clipPath>
</defs>
</svg>
