<svg width="250" height="168" viewBox="0 0 250 168" fill="none" xmlns="http://www.w3.org/2000/svg">
<g clip-path="url(#clip0_4154_83522)">
<path d="M50.7037 141.577C50.7037 141.577 40.7356 150.079 45.1045 157.828C49.4482 165.551 66.1203 165.551 77.2433 164.548C88.3664 163.545 108.805 160.26 117.944 160.762C127.084 161.263 160.126 162.793 173.76 160.762C187.394 158.73 203.815 153.69 205.598 144.612C207.356 135.534 203.388 135.082 194.651 132.299C185.913 129.515 140.266 125.729 140.266 125.729L50.7037 141.577Z" fill="#202121"/>
<path d="M83.7216 107.071C83.5459 102.356 82.868 96.9145 79.3528 95.8111C74.557 94.2814 70.7405 98.6449 67.7275 104.388C64.0115 111.459 64.5388 118.682 62.1786 124.073C59.8184 129.465 47.3896 140.925 47.3896 147.32C47.3896 153.715 51.9343 158.254 62.053 159.257C72.1717 160.26 81.9389 161.288 93.3884 159.257C104.838 157.226 110.738 155.721 121.184 156.398C131.629 157.075 135.495 156.9 151.339 156.223C167.182 155.545 169.367 155.545 178.456 155.545C187.545 155.545 205.9 147.295 204.895 134.857C203.891 122.418 187.495 123.045 182.775 105.065C178.054 87.0842 175.368 51.9257 151.59 46.0325C124.171 39.2114 106.47 49.2173 95.1962 67.3984" fill="#F7B531"/>
<path d="M148.853 65.5679C148.853 65.5679 155.858 68.0756 156.762 75.8245C157.414 81.5171 154.226 90.6202 147.672 92.9774C141.119 95.3347 135.294 92.9774 135.294 92.9774L148.853 65.5679Z" fill="#202121"/>
<path d="M143.102 77.229L135.972 91.6736C136.147 92.5513 136.273 93.1532 136.323 93.3287C136.474 93.3789 136.65 93.429 136.85 93.4792L140.968 94.0559C142.927 94.1061 145.262 93.8804 147.672 93.0278C148.149 92.8522 148.601 92.6516 149.053 92.4008C149.43 88.3884 149.204 80.9906 143.102 77.229Z" fill="#C75C50"/>
<path d="M158.707 59.4757C159.665 55.5892 156.884 51.5634 152.494 50.4838C148.105 49.4043 143.769 51.6798 142.811 55.5663C141.853 59.4528 144.635 63.4787 149.024 64.5582C153.414 65.6378 157.749 63.3622 158.707 59.4757Z" fill="white"/>
<path d="M150.259 59.9506C152.519 59.9506 154.351 58.1205 154.351 55.863C154.351 53.6055 152.519 51.7754 150.259 51.7754C147.998 51.7754 146.166 53.6055 146.166 55.863C146.166 58.1205 147.998 59.9506 150.259 59.9506Z" fill="#040000"/>
<path d="M151.213 54.2078C151.477 54.2078 151.69 53.9945 151.69 53.7314C151.69 53.4682 151.477 53.2549 151.213 53.2549C150.95 53.2549 150.736 53.4682 150.736 53.7314C150.736 53.9945 150.95 54.2078 151.213 54.2078Z" fill="white"/>
<path d="M108.975 110.233C134.115 108.342 152.688 82.8501 150.459 53.2944C148.231 23.7386 126.045 1.31175 100.905 3.20249C75.7655 5.09323 57.1922 30.5856 59.4206 60.1413C61.649 89.6971 83.8352 112.124 108.975 110.233Z" fill="#F7F7F7"/>
<path d="M93.3877 85.4042C80.4317 85.4042 73.2256 77.1538 71.9953 60.8785C71.3676 52.6782 72.7987 46.0829 76.2386 41.268C79.6534 36.4782 85.0768 33.6696 91.8812 33.168C92.5842 33.1179 93.3124 33.0928 93.9903 33.0928C101.422 33.0928 114.102 36.2776 115.709 57.5934C116.337 65.7937 114.906 72.3891 111.466 77.2039C108.051 81.9937 102.628 84.8024 95.8232 85.3039C95.0198 85.3541 94.1912 85.4042 93.3877 85.4042ZM94.2163 41.9451C93.5886 41.9451 93.0362 41.9953 92.5842 42.0203C88.0898 42.3714 84.9262 44.4528 83.1937 48.2897C81.8378 51.2739 81.3356 55.2612 81.7123 60.1513C82.817 74.646 88.592 76.5018 93.5133 76.5018C94.0405 76.5018 94.5929 76.4767 95.1955 76.4265C105.264 75.6742 106.67 66.1448 106.068 58.2956C105.239 47.4621 101.247 41.9451 94.2163 41.9451Z" fill="#F7F7F7"/>
<path d="M94.0406 33.8199C102.025 33.8199 113.5 37.431 115.006 57.6434C116.211 73.7431 109.206 83.5484 95.7731 84.5766C94.9446 84.6267 94.1662 84.6769 93.3878 84.6769C80.8838 84.6769 73.9287 76.6772 72.7235 60.8283C71.5183 44.7286 78.5236 34.9233 91.9566 33.8951C92.6095 33.845 93.3125 33.8199 94.0406 33.8199ZM93.5134 77.254C94.0909 77.254 94.6684 77.2289 95.2459 77.1787C105.917 76.3762 107.423 66.4456 106.796 58.2704C105.641 42.8478 98.284 41.2177 94.2164 41.2177C93.5636 41.2177 92.9861 41.2679 92.5341 41.293C81.863 42.0954 80.3565 52.0261 80.9842 60.2013C82.0388 74.5958 87.6882 77.254 93.5134 77.254ZM94.0406 32.3403V33.8199V32.3403C93.3125 32.3403 92.5844 32.3654 91.8562 32.4156C84.8258 32.9422 79.2266 35.8512 75.6612 40.8416C72.1209 45.8069 70.6395 52.5527 71.2672 60.9286C71.8949 69.1289 74.0543 75.4233 77.695 79.6363C81.4362 83.9496 86.709 86.1314 93.3878 86.1314C94.1913 86.1314 95.045 86.1063 95.8987 86.031C102.929 85.5044 108.528 82.5954 112.094 77.605C115.634 72.6397 117.115 65.8939 116.488 57.518C114.83 35.6004 101.699 32.3403 94.0406 32.3403ZM93.5134 75.7744C88.6172 75.7744 83.4951 73.9187 82.4405 60.101C81.6119 49.1673 85.0518 43.3493 92.6346 42.7725C93.0614 42.7475 93.6138 42.6973 94.2164 42.6973C100.795 42.6973 104.536 47.9636 105.314 58.3707C106.143 69.3044 102.703 75.1224 95.1203 75.6992C94.5428 75.7493 94.0155 75.7744 93.5134 75.7744Z" fill="#E5E5E5"/>
<path d="M94.6688 41.2181C93.8151 41.193 93.0619 41.2432 92.5095 41.2933C81.8384 42.0958 80.3319 52.0265 80.9596 60.2017C82.1397 76.0255 88.8436 77.6555 95.2212 77.1791C95.8238 77.1289 96.4013 77.0537 96.9537 76.9534C91.2792 76.828 85.8808 73.9692 84.8012 59.9258C84.2237 52.1769 85.5544 42.8983 94.6688 41.2181Z" fill="#E5E5E5"/>
<path d="M95.8243 33.5944C95.1714 33.6446 94.5437 33.7198 93.916 33.8201C101.901 33.7951 113.476 37.331 115.007 57.6437C116.162 72.991 109.86 82.6208 97.6321 84.3511C98.2849 84.3511 98.9628 84.326 99.6408 84.2759C113.074 83.2728 120.079 73.4424 118.874 57.3427C117.192 35.2997 103.708 33.0177 95.8243 33.5944Z" fill="#E5E5E5"/>
<path d="M93.1369 108.089C88.1905 103.801 86.3827 98.7605 83.7212 96.1023C79.7541 92.1401 74.2051 98.0333 74.2051 98.0333C74.2051 98.0333 74.3306 98.259 74.5566 98.6101C79.2519 103.249 85.3281 106.534 93.1369 108.089Z" fill="#5F5F5F"/>
<path d="M123.993 96.4602C121.056 99.6701 122.06 103.883 123.19 106.541C128.513 104.46 132.932 101.551 136.523 97.9648C133.685 96.0589 127.484 92.6484 123.993 96.4602Z" fill="#5F5F5F"/>
<path d="M83.671 107.673C83.4952 102.958 82.8173 97.5164 79.3021 96.413C74.5064 94.8832 71.393 97.2656 67.5011 104.864C63.8604 111.961 64.4881 119.284 62.1279 124.675" fill="#F7B531"/>
<path d="M133.16 113.766C133.16 113.766 122.288 103.936 127.234 97.1151C132.156 90.294 144.66 106.369 144.66 106.369" fill="#F7B531"/>
<path d="M132.682 114.293C132.231 113.867 121.409 103.936 126.656 96.714C127.585 95.4351 128.816 94.758 130.297 94.7329C130.322 94.7329 130.347 94.7329 130.398 94.7329C136.424 94.7329 144.86 105.466 145.212 105.943L144.107 106.795C144.031 106.695 135.746 96.1372 130.398 96.1372C130.373 96.1372 130.347 96.1372 130.322 96.1372C129.268 96.1623 128.439 96.6137 127.786 97.5416C123.292 103.761 133.511 113.165 133.637 113.265L132.682 114.293Z" fill="#EDA320"/>
<path d="M145.257 33.3926C145.368 33.715 145.451 33.938 145.532 34.0858C145.449 33.8628 145.34 33.6156 145.257 33.3926Z" fill="#E54A35"/>
<path d="M144.844 32.328C140.778 22.154 134.398 14.0916 124.998 9.56982C126.72 13.6512 130.781 17.8032 128.276 22.4304C125.771 27.0577 128.313 33.7959 134.075 32.5954C139.438 31.4587 142.862 28.0046 144.844 32.328Z" fill="#E54A35"/>
<path d="M144.844 32.328C140.778 22.154 134.398 14.0916 124.998 9.56982C125.19 10.04 125.432 10.5085 125.674 10.977C130.196 13.9089 135.821 18.2333 136.428 22.0517C137.128 26.3687 135.959 29.6455 136.092 32.0748C140.316 30.7011 143.108 28.5733 144.844 32.328Z" fill="#FF7545"/>
<path d="M130.31 20.9555C130.293 18.2462 128.015 25.0988 128.279 27.6743C128.542 30.2498 131.671 31.3724 131.915 28.9552C132.159 26.5381 130.319 24.8947 130.31 20.9555Z" fill="#BF2C1D"/>
<path d="M138.987 23.4196C138.593 23.6338 138.885 24.8533 139.21 25.5197C139.534 26.1861 141.005 26.5876 140.846 25.6144C140.686 24.6162 139.703 23.0439 138.987 23.4196Z" fill="#FF9D83"/>
<path d="M157.466 74.266C157.862 74.1935 158.091 73.6377 157.978 73.0248C157.865 72.4118 157.453 71.9737 157.058 72.0463C156.662 72.1189 156.433 72.6746 156.546 73.2876C156.659 73.9006 157.071 74.3386 157.466 74.266Z" fill="#BF2C1D"/>
<path d="M159.699 76.3401C159.815 75.5033 159.363 74.7495 158.69 74.6566C158.017 74.5637 157.377 75.1668 157.261 76.0037C157.146 76.8406 157.597 77.5944 158.27 77.6873C158.944 77.7802 159.583 77.177 159.699 76.3401Z" fill="#E54A35"/>
<path d="M91.393 9.1998C93.0515 6.89336 95.5261 4.83811 97.9045 3.42684C86.9499 5.60145 79.4506 10.424 73.9919 16.5195C75.8005 15.2051 77.7306 14.0524 79.5894 13.3384C86.3489 10.7442 88.4619 13.2586 91.393 9.1998Z" fill="#E54A35"/>
<path d="M197.998 124.785C192.536 120.034 185.898 114.975 182.64 104.968C182.518 104.599 182.395 104.229 182.273 103.86C182.735 110.389 182.854 116.662 181.969 119.98C180.386 125.977 188.989 122.153 197.998 124.785Z" fill="#E5A32C"/>
<path d="M77.1182 96.6389C77.1182 96.6389 80.7087 96.5135 82.0645 99.6732C83.3953 102.833 83.9979 107.297 83.9979 111.46" fill="#F7B531"/>
<path d="M83.9978 112.162C83.6212 112.162 83.2948 111.861 83.2948 111.46C83.2948 106.946 82.6168 102.758 81.4116 99.9492C80.2817 97.291 77.2687 97.3411 77.1432 97.3411C76.7666 97.3411 76.4401 97.0402 76.415 96.6641C76.415 96.2879 76.7163 95.9619 77.093 95.9368C77.2687 95.9368 81.1856 95.8365 82.6922 99.3975C83.9476 102.382 84.6757 106.77 84.6757 111.46C84.7008 111.861 84.3744 112.162 83.9978 112.162Z" fill="#EDA320"/>
<path d="M72.6983 101.905C72.6983 101.905 70.5891 102.958 69.4342 106.193C68.2792 109.428 69.9614 109.804 71.016 109.203C72.0706 108.601 74.1797 104.789 74.2801 103.46C74.3554 102.131 73.5017 101.479 72.6983 101.905Z" fill="#FFD58A"/>
</g>
<path d="M225 41C227.761 41 230 38.7614 230 36C230 33.2386 227.761 31 225 31C222.239 31 220 33.2386 220 36C220 38.7614 222.239 41 225 41Z" fill="#57BEB7"/>
<path d="M55 16C56.1046 16 57 15.1046 57 14C57 12.8954 56.1046 12 55 12C53.8954 12 53 12.8954 53 14C53 15.1046 53.8954 16 55 16Z" fill="#ECCD52"/>
<path d="M211 63C212.105 63 213 62.1046 213 61C213 59.8954 212.105 59 211 59C209.895 59 209 59.8954 209 61C209 62.1046 209.895 63 211 63Z" fill="#ECCD52"/>
<path d="M29.5 58C31.9853 58 34 55.9853 34 53.5C34 51.0147 31.9853 49 29.5 49C27.0147 49 25 51.0147 25 53.5C25 55.9853 27.0147 58 29.5 58Z" fill="#DC4C7C"/>
<defs>
<clipPath id="clip0_4154_83522">
<rect width="162" height="162" fill="white" transform="translate(44 3)"/>
</clipPath>
</defs>
</svg>
