<svg width="299" height="50" viewBox="0 0 299 50" fill="none" xmlns="http://www.w3.org/2000/svg">
<g clip-path="url(#clip0_3911_86760)">
<path d="M7.43985 3.4702e-05C7.76095 -0.025082 8.08386 0.0142818 8.38949 0.115825C8.69513 0.217369 8.97729 0.379046 9.21942 0.591291C9.4285 0.82244 9.589 1.09316 9.69143 1.38745C9.79386 1.68174 9.83615 1.9936 9.81574 2.30451V2.58383H12.7041C13.0114 2.57316 13.3172 2.63204 13.5985 2.75608C13.8289 2.86599 14.0324 3.02488 14.1949 3.22163C14.3452 3.412 14.456 3.63041 14.5209 3.86409C14.5814 4.092 14.6127 4.32664 14.6142 4.56241C14.6128 4.79917 14.5766 5.03445 14.507 5.26074C14.4395 5.48914 14.3288 5.70251 14.1809 5.88925C14.0222 6.08795 13.8197 6.24729 13.5892 6.35479C13.3096 6.47389 13.008 6.53259 12.7041 6.52705H9.72259V7.92369C9.72259 8.46839 9.72255 8.98513 9.67596 9.48327C9.62937 9.98141 9.5968 10.4702 9.53623 10.9498C10.3261 11.1985 11.0749 11.5625 11.7584 12.0298C12.4375 12.5109 13.0021 13.1356 13.4122 13.8594C13.8929 14.7282 14.2207 15.6731 14.3812 16.6527C14.4826 17.2393 14.5463 17.8318 14.5722 18.4265C14.5835 18.7118 14.537 18.9966 14.4356 19.2636C14.3342 19.5306 14.18 19.7744 13.9821 19.9804C13.7842 20.1864 13.5467 20.3504 13.2839 20.4626C13.0211 20.5747 12.7383 20.6328 12.4525 20.6332C11.9033 20.6288 11.377 20.4129 10.9831 20.0305C10.5891 19.6481 10.3579 19.1286 10.3375 18.5801C10.3168 18.0361 10.2228 17.4974 10.058 16.9786C9.81041 16.1363 9.27023 15.41 8.53462 14.9302C8.00944 16.2417 7.23414 17.4386 6.25188 18.4544C5.34846 19.3746 4.27188 20.1072 3.08405 20.6099C2.8339 20.7186 2.56478 20.7771 2.29205 20.7822C2.0171 20.7938 1.74203 20.7623 1.47679 20.689C1.21789 20.6216 0.973324 20.508 0.754733 20.3538C0.521993 20.19 0.335771 19.9687 0.214317 19.7114C0.0200873 19.3105 -0.0277235 18.8543 0.0791983 18.4218C0.134477 18.1818 0.239821 17.9562 0.388333 17.7596C0.536844 17.5631 0.725168 17.4001 0.941033 17.2812C1.62442 16.877 2.25105 16.3839 2.80448 15.8147C3.36072 15.2355 3.82005 14.5706 4.16482 13.8455C4.557 13.0155 4.8314 12.1349 4.98008 11.2291C5.17232 10.0989 5.26273 8.95368 5.25026 7.80731V6.50375H2.12901C1.82036 6.51201 1.51357 6.45325 1.22987 6.33149C0.999848 6.21678 0.794233 6.05869 0.624278 5.86594C0.463689 5.68417 0.34448 5.46975 0.274881 5.23746C0.206698 5.01096 0.17218 4.77567 0.172405 4.53914C0.17218 4.30261 0.206698 4.06732 0.274881 3.84082C0.344915 3.60642 0.460467 3.38811 0.614952 3.19836C0.777815 2.99818 0.985215 2.83877 1.2206 2.73281C1.50703 2.60928 1.8172 2.55047 2.12901 2.56056H5.06396V2.28124C5.04293 1.97065 5.08444 1.65899 5.18606 1.36472C5.28768 1.07044 5.44732 0.799513 5.65556 0.567991C5.90051 0.35996 6.18443 0.202642 6.49073 0.105141C6.79702 0.00764034 7.11963 -0.0280878 7.43985 3.4702e-05ZM16.3378 2.32778C16.3161 2.01133 16.3679 1.69413 16.4891 1.40097C16.6103 1.10782 16.7977 0.846642 17.0366 0.637835C17.4885 0.2649 18.0578 0.0637249 18.6438 0.0698785C18.9375 0.0705364 19.2289 0.120883 19.5057 0.218829C19.7748 0.315501 20.023 0.462457 20.2371 0.651815C20.4541 0.846931 20.6285 1.08465 20.7495 1.35014C20.8897 1.65662 20.9582 1.99093 20.9499 2.32778V8.21699H21.7186C22.0244 8.20547 22.3284 8.26942 22.6037 8.40319C22.8231 8.51376 23.0143 8.673 23.1627 8.86874C23.3023 9.0642 23.4049 9.28351 23.4655 9.51586C23.5257 9.74858 23.557 9.98779 23.5587 10.2281C23.5572 10.467 23.526 10.7047 23.4655 10.9358C23.406 11.1699 23.3033 11.391 23.1627 11.5876C23.0112 11.7858 22.8149 11.9454 22.5897 12.0531C22.3187 12.1847 22.0197 12.2485 21.7186 12.2393H20.9499V19.7859C20.9486 20.3469 20.7248 20.8845 20.3274 21.2807C19.93 21.6769 19.3915 21.8995 18.8302 21.8995H18.4529C17.8919 21.8995 17.3539 21.6768 16.9573 21.2804C16.5606 20.884 16.3378 20.3464 16.3378 19.7859V2.32778Z" fill="white"/>
<path d="M30.7331 9.26423V7.82101C30.7276 7.49991 30.7944 7.18169 30.9287 6.88991C31.0493 6.64 31.2302 6.42402 31.4551 6.26143C31.6828 6.10122 31.9389 5.98586 32.2098 5.92156C32.5044 5.85176 32.8062 5.81739 33.109 5.81915C33.4024 5.81819 33.6949 5.85257 33.9801 5.92156C34.2563 5.98789 34.5172 6.10641 34.7488 6.27072C34.9761 6.4333 35.1601 6.64912 35.2846 6.89923C35.425 7.18909 35.4936 7.50841 35.4848 7.83033V9.27352H43.5909C43.9093 9.26358 44.2264 9.31906 44.5226 9.43648C44.7533 9.53336 44.9601 9.67954 45.1282 9.86478C45.2799 10.0418 45.3939 10.2477 45.4636 10.47C45.5338 10.693 45.5699 10.9252 45.5708 11.159C45.572 11.6274 45.407 12.0811 45.1049 12.4392C44.914 12.6404 44.6796 12.7953 44.4196 12.8921C44.1596 12.9889 43.881 13.0251 43.6049 12.9979H25.7157C25.4389 13.0248 25.1597 12.9885 24.899 12.8917C24.6383 12.7949 24.4031 12.6402 24.211 12.4392C23.9086 12.0813 23.7435 11.6275 23.7451 11.159C23.7445 10.9255 23.7791 10.6932 23.8476 10.47C23.9171 10.2466 24.033 10.0403 24.1877 9.86478C24.354 9.67752 24.5613 9.53099 24.7933 9.43648C25.0891 9.31762 25.4065 9.26209 25.725 9.27352L30.7331 9.26423ZM26.7267 4.14318C26.4304 4.17189 26.1314 4.13913 25.8484 4.047C25.5655 3.95487 25.3046 3.80536 25.0822 3.60779C24.7465 3.23973 24.5677 2.75539 24.5836 2.25769C24.568 1.78268 24.7346 1.31967 25.0495 0.963474C25.2714 0.761579 25.5333 0.608717 25.8183 0.51486C26.1033 0.421003 26.4049 0.388269 26.7033 0.41879H41.1451C42.2771 0.41879 43.0831 0.646895 43.5536 1.10313C43.8004 1.36078 43.9911 1.66667 44.1138 2.00158C44.2364 2.33649 44.2884 2.69316 44.2663 3.04913V4.09661C44.2726 4.96111 44.2134 5.82483 44.0893 6.68041C44.0092 7.27931 43.8815 7.8709 43.7073 8.44952H39.1419C39.297 7.96596 39.4138 7.47093 39.4913 6.96904C39.5882 6.35311 39.6349 5.73034 39.631 5.10685V4.6413C39.631 4.30145 39.4354 4.1292 39.0487 4.1292L26.7267 4.14318ZM26.6102 17.807C26.3458 17.8255 26.0804 17.7905 25.8299 17.7042C25.5793 17.6178 25.3488 17.4817 25.152 17.3042C24.9857 17.1344 24.8557 16.9324 24.77 16.7107C24.6843 16.489 24.6447 16.2522 24.6535 16.0147C24.6443 15.7785 24.6838 15.543 24.7695 15.3227C24.8553 15.1025 24.9855 14.9022 25.152 14.7344C25.5575 14.3929 26.0817 14.2256 26.6102 14.2689H41.2382C41.8095 14.2568 42.3801 14.3114 42.9386 14.4318C43.3261 14.5127 43.6791 14.711 43.9496 14.9998C44.2006 15.3124 44.3616 15.6874 44.4155 16.0845C44.5115 16.6378 44.5552 17.199 44.5459 17.7605V19.6227C44.5459 20.2401 44.3005 20.8321 43.8637 21.2687C43.4268 21.7052 42.8344 21.9504 42.2166 21.9504C41.5988 21.9504 41.0064 21.7052 40.5695 21.2687C40.1327 20.8321 39.8873 20.2401 39.8873 19.6227V18.3191C39.8873 18.1833 39.8333 18.0531 39.7372 17.957C39.641 17.861 39.5107 17.807 39.3748 17.807H26.6102Z" fill="white"/>
<path d="M54.0258 3.4702e-05C54.3469 -0.025082 54.6698 0.0142818 54.9754 0.115825C55.2811 0.217369 55.5632 0.379046 55.8054 0.591291C56.0144 0.82244 56.1749 1.09316 56.2774 1.38745C56.3798 1.68174 56.4221 1.9936 56.4017 2.30451V2.58383H59.29C59.5973 2.57316 59.9031 2.63204 60.1845 2.75608C60.4148 2.86599 60.6183 3.02488 60.7808 3.22163C60.9311 3.412 61.042 3.63041 61.1069 3.86409C61.1673 4.092 61.1986 4.32664 61.2001 4.56241C61.1987 4.79917 61.1626 5.03445 61.0929 5.26074C61.0254 5.48914 60.9147 5.70251 60.7668 5.88925C60.6082 6.08795 60.4057 6.24729 60.1752 6.35479C59.8955 6.47389 59.5939 6.53259 59.29 6.52705H56.3085V7.92369C56.3085 8.46839 56.3085 8.98513 56.2619 9.48327C56.2153 9.98141 56.1827 10.4702 56.1222 10.9498C56.9121 11.1985 57.6609 11.5625 58.3443 12.0298C59.0234 12.5109 59.5881 13.1356 59.9981 13.8594C60.4788 14.7282 60.8066 15.6731 60.9672 16.6527C61.0685 17.2393 61.1323 17.8318 61.1581 18.4265C61.1694 18.7118 61.123 18.9966 61.0216 19.2636C60.9202 19.5306 60.7659 19.7744 60.568 19.9804C60.3701 20.1864 60.1326 20.3504 59.8698 20.4626C59.607 20.5747 59.3243 20.6328 59.0385 20.6332C58.4893 20.6288 57.963 20.4129 57.569 20.0305C57.1751 19.6481 56.9438 19.1286 56.9234 18.5801C56.9028 18.0361 56.8088 17.4974 56.6439 16.9786C56.3963 16.1363 55.8562 15.41 55.1206 14.9302C54.5954 16.2417 53.8201 17.4386 52.8378 18.4544C51.9344 19.3746 50.8578 20.1072 49.67 20.6099C49.4198 20.7186 49.1507 20.7771 48.878 20.7822C48.603 20.7938 48.328 20.7623 48.0627 20.689C47.8038 20.6216 47.5593 20.508 47.3407 20.3538C47.1079 20.19 46.9217 19.9687 46.8003 19.7114C46.606 19.3105 46.5582 18.8543 46.6651 18.4218C46.7204 18.1818 46.8258 17.9562 46.9743 17.7596C47.1228 17.5631 47.3111 17.4001 47.527 17.2812C48.2104 16.877 48.837 16.3839 49.3904 15.8147C49.9467 15.2355 50.406 14.5706 50.7508 13.8455C51.1429 13.0155 51.4173 12.1349 51.566 11.2291C51.7583 10.0989 51.8487 8.95368 51.8362 7.80731V6.50375H48.7149C48.4063 6.51201 48.0995 6.45325 47.8158 6.33149C47.5858 6.21678 47.3802 6.05869 47.2102 5.86594C47.0496 5.68417 46.9304 5.46975 46.8608 5.23746C46.7926 5.01096 46.7581 4.77567 46.7583 4.53914C46.7581 4.30261 46.7926 4.06732 46.8608 3.84082C46.9309 3.60642 47.0464 3.38811 47.2009 3.19836C47.3638 2.99818 47.5712 2.83877 47.8065 2.73281C48.093 2.60928 48.4031 2.55047 48.7149 2.56056H51.6499V2.28124C51.6289 1.97065 51.6704 1.65899 51.772 1.36472C51.8736 1.07044 52.0333 0.799513 52.2415 0.567991C52.4864 0.35996 52.7704 0.202642 53.0767 0.105141C53.383 0.00764034 53.7056 -0.0280878 54.0258 3.4702e-05ZM62.9238 2.32778C62.902 2.01133 62.9538 1.69413 63.075 1.40097C63.1962 1.10782 63.3836 0.846642 63.6225 0.637835C64.0744 0.2649 64.6437 0.0637249 65.2298 0.0698785C65.5234 0.0705364 65.8148 0.120883 66.0916 0.218829C66.3607 0.315501 66.6089 0.462457 66.823 0.651815C67.04 0.846931 67.2145 1.08465 67.3355 1.35014C67.4756 1.65662 67.5441 1.99093 67.5358 2.32778V8.21699H68.3045C68.6104 8.20547 68.9143 8.26942 69.1896 8.40319C69.409 8.51376 69.6003 8.673 69.7487 8.86874C69.8882 9.0642 69.9909 9.28351 70.0515 9.51586C70.1116 9.74858 70.1429 9.98779 70.1446 10.2281C70.1432 10.467 70.1119 10.7047 70.0515 10.9358C69.9919 11.1699 69.8892 11.391 69.7487 11.5876C69.5972 11.7858 69.4008 11.9454 69.1757 12.0531C68.9046 12.1847 68.6057 12.2485 68.3045 12.2393H67.5358V19.7859C67.5346 20.3469 67.3107 20.8845 66.9133 21.2807C66.5159 21.6769 65.9775 21.8995 65.4161 21.8995H65.0388C64.4779 21.8995 63.9399 21.6768 63.5432 21.2804C63.1466 20.884 62.9238 20.3464 62.9238 19.7859V2.32778Z" fill="white"/>
<path d="M77.319 9.26423V7.82101C77.3135 7.49991 77.3804 7.18169 77.5146 6.88991C77.6352 6.64 77.8161 6.42402 78.0411 6.26143C78.2687 6.10122 78.5249 5.98586 78.7958 5.92156C79.0903 5.85176 79.3922 5.81739 79.6949 5.81915C79.9883 5.81819 80.2808 5.85257 80.5661 5.92156C80.8422 5.98789 81.1031 6.10641 81.3347 6.27072C81.562 6.4333 81.746 6.64912 81.8705 6.89923C82.0109 7.18909 82.0796 7.50841 82.0708 7.83033V9.27352H90.1768C90.4953 9.26358 90.8124 9.31906 91.1085 9.43648C91.3393 9.53336 91.546 9.67954 91.7142 9.86478C91.8658 10.0418 91.9799 10.2477 92.0496 10.47C92.1197 10.693 92.1558 10.9252 92.1567 11.159C92.158 11.6274 91.9929 12.0811 91.6909 12.4392C91.4999 12.6404 91.2655 12.7953 91.0055 12.8921C90.7456 12.9889 90.4669 13.0251 90.1908 12.9979H72.3017C72.0249 13.0248 71.7456 12.9885 71.4849 12.8917C71.2242 12.7949 70.989 12.6402 70.7969 12.4392C70.4945 12.0813 70.3294 11.6275 70.3311 11.159C70.3305 10.9255 70.365 10.6932 70.4335 10.47C70.503 10.2466 70.6189 10.0403 70.7736 9.86478C70.94 9.67752 71.1472 9.53099 71.3793 9.43648C71.675 9.31762 71.9924 9.26209 72.311 9.27352L77.319 9.26423ZM73.3126 4.14318C73.0164 4.17189 72.7174 4.13913 72.4344 4.047C72.1514 3.95487 71.8906 3.80536 71.6681 3.60779C71.3325 3.23973 71.1536 2.75539 71.1696 2.25769C71.1539 1.78268 71.3206 1.31967 71.6354 0.963474C71.8573 0.761579 72.1193 0.608717 72.4042 0.51486C72.6892 0.421003 72.9908 0.388269 73.2893 0.41879H87.731C88.8631 0.41879 89.669 0.646895 90.1396 1.10313C90.3863 1.36078 90.577 1.66667 90.6997 2.00158C90.8224 2.33649 90.8743 2.69316 90.8523 3.04913V4.09661C90.8585 4.96111 90.7993 5.82483 90.6752 6.68041C90.5952 7.27931 90.4674 7.8709 90.2933 8.44952H85.7278C85.883 7.96596 85.9998 7.47093 86.0772 6.96904C86.1741 6.35311 86.2209 5.73034 86.217 5.10685V4.6413C86.217 4.30145 86.0213 4.1292 85.6346 4.1292L73.3126 4.14318ZM73.1961 17.807C72.9317 17.8255 72.6663 17.7905 72.4158 17.7042C72.1652 17.6178 71.9347 17.4817 71.738 17.3042C71.5716 17.1344 71.4416 16.9324 71.3559 16.7107C71.2702 16.489 71.2306 16.2522 71.2395 16.0147C71.2302 15.7785 71.2697 15.543 71.3555 15.3227C71.4412 15.1025 71.5715 14.9022 71.738 14.7344C72.1434 14.3929 72.6676 14.2256 73.1961 14.2689H87.8242C88.3954 14.2568 88.9661 14.3114 89.5246 14.4318C89.912 14.5127 90.265 14.711 90.5355 14.9998C90.7865 15.3124 90.9475 15.6874 91.0014 16.0845C91.0975 16.6378 91.1412 17.199 91.1318 17.7605V19.6227C91.1318 20.2401 90.8864 20.8321 90.4496 21.2687C90.0128 21.7052 89.4203 21.9504 88.8025 21.9504C88.1848 21.9504 87.5923 21.7052 87.1555 21.2687C86.7186 20.8321 86.4732 20.2401 86.4732 19.6227V18.3191C86.4732 18.1833 86.4192 18.0531 86.3231 17.957C86.227 17.861 86.0966 17.807 85.9607 17.807H73.1961Z" fill="white"/>
<path d="M114.379 0.838207C114.67 0.829371 114.958 0.893401 115.218 1.02444C115.436 1.13699 115.626 1.29589 115.777 1.48999C115.916 1.67855 116.019 1.89178 116.079 2.11847C116.139 2.3386 116.17 2.56546 116.173 2.79352C116.17 3.02158 116.139 3.24844 116.079 3.46857C116.018 3.69743 115.91 3.91129 115.763 4.09705C115.614 4.29245 115.423 4.45162 115.204 4.5626C114.947 4.68709 114.664 4.74779 114.379 4.73951H102.583C102.403 4.72008 102.222 4.76458 102.071 4.86522C101.96 5.00803 101.91 5.1886 101.931 5.36802V8.74326C101.911 8.92546 101.961 9.10838 102.071 9.25535C102.218 9.36571 102.401 9.41569 102.583 9.39501H114.742C115.033 9.38617 115.321 9.4502 115.581 9.58124C115.799 9.69379 115.99 9.85269 116.14 10.0468C116.278 10.2322 116.384 10.4401 116.452 10.6613C116.521 10.8766 116.557 11.101 116.559 11.327C116.557 11.5561 116.521 11.7836 116.452 12.0021C116.385 12.2305 116.274 12.4439 116.126 12.6306C115.977 12.826 115.786 12.9852 115.567 13.0961C115.31 13.2206 115.027 13.2813 114.742 13.273H109.222V17.7423H115.791C116.109 17.7324 116.426 17.7878 116.722 17.9053C116.953 18.0021 117.16 18.1483 117.328 18.3336C117.48 18.5116 117.595 18.7192 117.663 18.9434C117.734 19.1648 117.77 19.3955 117.77 19.6278C117.77 20.1029 117.605 20.5632 117.305 20.9313C117.117 21.1387 116.884 21.2993 116.624 21.4004C116.363 21.5014 116.083 21.5401 115.805 21.5133H97.9247C97.6459 21.5401 97.3646 21.5014 97.1034 21.4004C96.8421 21.2994 96.6081 21.1388 96.42 20.9313C96.1191 20.5634 95.9545 20.1029 95.9541 19.6278C95.9533 19.3958 95.9878 19.165 96.0566 18.9434C96.1249 18.7181 96.2409 18.5102 96.3967 18.3336C96.563 18.1463 96.7703 17.9998 97.0023 17.9053C97.2981 17.7864 97.6155 17.7309 97.934 17.7423H104.503V13.273H100.962C100.366 13.286 99.7703 13.2187 99.1918 13.0729C98.7578 12.9695 98.359 12.7525 98.0365 12.4444C97.7346 12.1282 97.5182 11.7405 97.4076 11.3177C97.2654 10.7549 97.1996 10.1755 97.2119 9.59519V4.54399C97.2006 3.97137 97.2664 3.39981 97.4076 2.84472C97.5203 2.41866 97.7363 2.0269 98.0365 1.70412C98.358 1.39158 98.7566 1.16991 99.1918 1.06169C99.7709 0.919886 100.366 0.854134 100.962 0.866139L114.379 0.838207Z" fill="white"/>
<path d="M128.634 4.56234V5.02789C128.635 5.39373 128.612 5.75926 128.564 6.12195C130.362 6.18402 131.69 6.69612 132.547 7.65825C133.02 8.2187 133.353 8.8844 133.516 9.59959C133.592 9.90902 133.597 10.2318 133.53 10.5434C133.463 10.8551 133.326 11.1472 133.128 11.3978C132.931 11.6483 132.679 11.8505 132.392 11.9891C132.105 12.1276 131.79 12.1989 131.471 12.1974H131.228C130.792 12.1871 130.37 12.0406 130.022 11.7784C129.674 11.5162 129.416 11.1515 129.286 10.7355C129.21 10.5045 129.091 10.2898 128.936 10.1024C128.738 9.85903 128.482 9.66954 128.191 9.55154C127.901 9.43353 127.585 9.39081 127.273 9.42733C126.613 10.3531 125.732 11.1002 124.711 11.6014C123.726 12.097 122.645 12.3718 121.543 12.4069C121.012 12.4528 120.484 12.2983 120.062 11.9739C119.863 11.8262 119.701 11.6356 119.586 11.4163C119.472 11.1971 119.408 10.9548 119.4 10.7076C119.347 10.2422 119.466 9.77341 119.736 9.39008C120.004 9.05263 120.393 8.83236 120.821 8.77555C121.776 8.66589 122.658 8.21045 123.299 7.49529C123.886 6.79978 124.197 5.91386 124.175 5.00462V4.53907H121.264C121.007 4.54416 120.754 4.48324 120.528 4.36216C120.325 4.25246 120.147 4.10185 120.006 3.91988C119.864 3.74292 119.754 3.54295 119.68 3.32865C119.603 3.11993 119.563 2.89928 119.563 2.67687C119.564 2.45942 119.595 2.24316 119.656 2.03441C119.717 1.81214 119.82 1.60355 119.959 1.41988C120.101 1.22651 120.284 1.0674 120.495 0.954331C120.733 0.833331 120.997 0.774094 121.264 0.78208H131.932C132.198 0.775082 132.463 0.834265 132.701 0.954331C132.911 1.06868 133.094 1.22757 133.236 1.41988C133.374 1.60464 133.476 1.81288 133.539 2.03441C133.598 2.24365 133.629 2.4596 133.632 2.67687C133.63 2.89907 133.59 3.11934 133.516 3.32865C133.44 3.54209 133.33 3.74176 133.19 3.91988C133.047 4.10206 132.867 4.25266 132.663 4.36216C132.439 4.48325 132.187 4.5442 131.932 4.53907L128.634 4.56234ZM125.442 22.0204C124.724 22.0361 124.009 21.921 123.332 21.6806C122.775 21.478 122.267 21.1608 121.841 20.7495C121.444 20.3568 121.142 19.8793 120.956 19.3529C120.76 18.7871 120.662 18.1919 120.667 17.5931C120.664 16.999 120.762 16.4086 120.956 15.8473C121.144 15.3219 121.446 14.8448 121.841 14.4506C122.268 14.0403 122.776 13.7232 123.332 13.5195C124.008 13.2735 124.723 13.1551 125.442 13.1703H135.389C136.097 13.1565 136.803 13.2701 137.471 13.5056C138.029 13.7059 138.537 14.0234 138.962 14.4367C139.358 14.8326 139.665 15.3089 139.861 15.8333C140.066 16.4004 140.169 16.9994 140.164 17.6024C140.169 18.2054 140.066 18.8044 139.861 19.3715C139.668 19.8979 139.361 20.3749 138.962 20.7681C138.538 21.1823 138.029 21.5 137.471 21.6992C136.801 21.9286 136.096 22.0389 135.389 22.0251L125.442 22.0204ZM134.154 18.7849C134.344 18.8102 134.536 18.7882 134.715 18.7208C134.894 18.6533 135.053 18.5426 135.179 18.3985C135.34 18.1707 135.429 17.8999 135.435 17.621C135.432 17.3539 135.347 17.0941 135.193 16.8761C135.062 16.7402 134.901 16.6369 134.723 16.5746C134.545 16.5124 134.355 16.4928 134.168 16.5176H126.714C126.527 16.4925 126.337 16.5118 126.159 16.5741C125.981 16.6364 125.82 16.7399 125.689 16.8761C125.525 17.0953 125.435 17.3612 125.433 17.635C125.437 17.9142 125.527 18.1855 125.689 18.4124C125.815 18.5569 125.974 18.6679 126.153 18.7353C126.332 18.8028 126.525 18.8246 126.714 18.7988L134.154 18.7849ZM135.179 2.39755C135.156 2.07747 135.206 1.75641 135.325 1.45821C135.443 1.16001 135.627 0.892327 135.864 0.675013C136.315 0.290605 136.892 0.0837366 137.485 0.0930764C138.075 0.0867219 138.647 0.297097 139.092 0.684305C139.33 0.898874 139.517 1.1644 139.638 1.46105C139.759 1.7577 139.811 2.07784 139.791 2.39755V4.21318H140.513C140.819 4.20166 141.123 4.26563 141.398 4.39941C141.616 4.51196 141.807 4.67086 141.957 4.86496C142.098 5.05632 142.201 5.27281 142.26 5.50276C142.32 5.73548 142.351 5.97468 142.353 6.21503C142.352 6.45387 142.32 6.6916 142.26 6.92268C142.2 7.15684 142.098 7.37787 141.957 7.57446C141.809 7.77606 141.612 7.93635 141.384 8.04001C141.111 8.16436 140.813 8.22486 140.513 8.21692H139.791V10.3584C139.791 10.9165 139.569 11.4517 139.174 11.8464C138.779 12.241 138.244 12.4627 137.685 12.4627H137.285C136.729 12.459 136.197 12.2357 135.805 11.8415C135.413 11.4472 135.193 10.9141 135.193 10.3584L135.179 2.39755Z" fill="white"/>
<path d="M148.642 18.0634C148.923 17.9178 149.184 17.738 149.42 17.5281C149.661 17.3078 149.856 17.0419 149.993 16.7459C150.164 16.3762 150.281 15.9844 150.343 15.582C150.427 15.0165 150.466 14.4452 150.459 13.8735V4.81855C150.468 4.74958 150.455 4.67972 150.422 4.61836C150.412 4.60778 150.399 4.59942 150.386 4.59381C150.372 4.58821 150.358 4.58547 150.343 4.58577H148.666V13.2217C148.693 14.2817 148.552 15.3394 148.246 16.3549C148.017 17.0913 147.648 17.7771 147.161 18.3753C146.762 18.8632 146.257 19.2534 145.684 19.5159C145.183 19.7499 144.649 19.9069 144.1 19.9815C143.889 20.0218 143.671 20.0143 143.463 19.9595C143.255 19.9047 143.062 19.8041 142.898 19.6649C142.608 19.4181 142.415 19.0767 142.353 18.7012C142.323 18.4853 142.307 18.2676 142.307 18.0495C142.305 17.8525 142.344 17.6574 142.423 17.4768C142.509 17.2846 142.63 17.1107 142.782 16.9647C142.983 16.7709 143.216 16.6134 143.471 16.4992C143.667 16.3999 143.85 16.278 144.016 16.136C144.211 15.9637 144.369 15.7549 144.482 15.5216C144.646 15.2147 144.764 14.8852 144.832 14.5439C144.928 14.0613 144.972 13.5695 144.962 13.0774V4.86512C144.97 4.79615 144.957 4.72629 144.925 4.66494C144.915 4.65435 144.902 4.64599 144.889 4.64039C144.875 4.63478 144.86 4.63204 144.846 4.63235H144.263C143.994 4.64113 143.727 4.58859 143.481 4.47871C143.28 4.38605 143.105 4.24725 142.968 4.07368C142.835 3.90001 142.737 3.70244 142.679 3.49174C142.615 3.27251 142.584 3.04506 142.586 2.81669C142.586 2.58937 142.613 2.36284 142.665 2.14164C142.718 1.93076 142.813 1.73278 142.945 1.5597C143.086 1.38153 143.266 1.23818 143.471 1.14073C143.719 1.02592 143.99 0.970128 144.263 0.977766H151.298C151.798 0.966837 152.298 1.00898 152.789 1.10347C153.108 1.16566 153.405 1.31011 153.65 1.52248C153.864 1.7439 154.005 2.02467 154.056 2.32787C154.134 2.75006 154.169 3.17889 154.163 3.60813V14.0131C154.179 15.0836 154.081 16.1527 153.869 17.2022C153.717 17.9792 153.438 18.7261 153.045 19.4135C152.718 19.9708 152.263 20.4417 151.717 20.7869C151.173 21.1176 150.573 21.3464 149.947 21.4619C149.479 21.5607 148.991 21.5153 148.549 21.3316C148.354 21.2604 148.177 21.1446 148.034 20.9935C147.891 20.8424 147.785 20.6601 147.725 20.461C147.574 20.0077 147.574 19.5177 147.725 19.0644C147.799 18.8428 147.92 18.6393 148.078 18.4669C148.236 18.2945 148.428 18.1571 148.642 18.0634ZM160.173 12.3372H159.124V19.9955C159.124 20.5141 158.918 21.0114 158.551 21.3781C158.184 21.7448 157.687 21.9508 157.168 21.9508C156.649 21.9508 156.151 21.7448 155.784 21.3781C155.417 21.0114 155.211 20.5141 155.211 19.9955V2.00198C155.191 1.73429 155.233 1.46559 155.334 1.21685C155.435 0.968107 155.592 0.746051 155.793 0.56808C156.188 0.249043 156.684 0.0836395 157.191 0.102531C157.437 0.102304 157.682 0.144846 157.913 0.228238C158.143 0.31363 158.356 0.439786 158.542 0.600672C158.737 0.76472 158.896 0.967702 159.008 1.19659C159.121 1.45308 159.176 1.73111 159.171 2.0113V8.52899H160.219V2.0113C160.199 1.74278 160.243 1.47337 160.345 1.22446C160.448 0.975556 160.607 0.754 160.811 0.5774C161.207 0.262759 161.702 0.0979135 162.208 0.111851C162.458 0.111945 162.705 0.154461 162.94 0.237558C163.175 0.320649 163.393 0.446953 163.583 0.609992C163.776 0.775851 163.934 0.978415 164.048 1.20591C164.171 1.45986 164.231 1.73894 164.226 2.02062V20.0141C164.226 20.2709 164.175 20.5251 164.077 20.7624C163.978 20.9996 163.834 21.2151 163.652 21.3967C163.471 21.5783 163.255 21.7223 163.018 21.8206C162.78 21.9188 162.526 21.9694 162.269 21.9694H162.199C161.942 21.9694 161.688 21.9188 161.45 21.8206C161.213 21.7223 160.997 21.5783 160.815 21.3967C160.634 21.2151 160.49 20.9996 160.391 20.7624C160.293 20.5251 160.242 20.2709 160.242 20.0141L160.173 12.3372Z" fill="white"/>
<path d="M167.953 17.1554C168.861 17.0767 169.756 16.886 170.618 16.5874C171.393 16.3164 172.092 15.8648 172.658 15.2699C173.26 14.6025 173.702 13.8063 173.949 12.9422C174.283 11.7773 174.44 10.5689 174.414 9.35745V5.58651C174.418 5.51 174.406 5.43359 174.379 5.36169C174.353 5.28979 174.313 5.2238 174.261 5.1675C174.205 5.11136 174.138 5.0678 174.064 5.03969C173.99 5.01159 173.911 4.99961 173.832 5.00457H168.521C168.202 5.01344 167.884 4.95309 167.59 4.82766C167.347 4.71887 167.129 4.56026 166.951 4.36211C166.78 4.17637 166.649 3.95779 166.565 3.71965C166.482 3.48492 166.439 3.23774 166.439 2.98874C166.441 2.74595 166.483 2.50518 166.565 2.27646C166.652 2.03725 166.783 1.81627 166.951 1.62468C167.132 1.42915 167.348 1.27096 167.59 1.15913C167.882 1.02597 168.201 0.962249 168.521 0.972929H175.416C176.736 0.972929 177.668 1.26776 178.211 1.85746C178.808 2.55427 179.109 3.45627 179.05 4.37143V9.37609C179.096 11.1807 178.815 12.9786 178.221 14.6833C177.739 16.0315 176.964 17.2559 175.952 18.2681C174.991 19.1982 173.831 19.8986 172.56 20.3165C171.206 20.7601 169.792 20.9955 168.368 21.0148C168.084 21.015 167.802 20.9759 167.529 20.8984C167.264 20.8257 167.014 20.7042 166.793 20.54C166.583 20.3733 166.412 20.1617 166.295 19.9208C166.161 19.6378 166.105 19.3246 166.131 19.013C166.144 18.5542 166.308 18.1125 166.597 17.756C166.772 17.5704 166.981 17.4217 167.214 17.3185C167.447 17.2153 167.698 17.1599 167.953 17.1554ZM184.677 21.9506C184.06 21.9506 183.467 21.7053 183.03 21.2688C182.594 20.8323 182.348 20.2402 182.348 19.6228V2.39751C182.326 2.07616 182.377 1.7539 182.498 1.45536C182.619 1.15681 182.807 0.889886 183.047 0.67497C183.503 0.291044 184.082 0.0843988 184.677 0.0930335C185.273 0.0852354 185.852 0.291779 186.308 0.67497C186.548 0.889886 186.736 1.15681 186.857 1.45536C186.978 1.7539 187.029 2.07616 187.007 2.39751V19.6228C187.007 20.2402 186.761 20.8323 186.324 21.2688C185.888 21.7053 185.295 21.9506 184.677 21.9506Z" fill="white"/>
<path d="M209.266 9.6137C209.5 9.58974 209.738 9.61915 209.96 9.69977C210.181 9.78039 210.382 9.91014 210.547 10.0793C210.79 10.3682 210.923 10.7348 210.919 11.1128C210.929 11.5027 210.791 11.8818 210.533 12.1742C210.364 12.3306 210.163 12.4496 209.945 12.5234C209.727 12.5972 209.495 12.6241 209.266 12.6025H190.748C190.519 12.6258 190.289 12.5996 190.072 12.5257C189.855 12.4517 189.656 12.3319 189.49 12.1742C189.237 11.8793 189.104 11.5007 189.117 11.1128C189.112 10.7345 189.244 10.3672 189.49 10.0793C189.65 9.91088 189.847 9.78138 190.065 9.70068C190.283 9.61999 190.516 9.59024 190.748 9.6137H209.266ZM192.658 21.9508C192.261 21.9805 191.863 21.9252 191.489 21.7887C191.115 21.6523 190.775 21.4377 190.491 21.1593C190.007 20.6251 189.749 19.9245 189.769 19.204V19.0644C189.749 18.7215 189.801 18.3783 189.923 18.0572C190.045 17.7362 190.234 17.4448 190.477 17.2022C191.094 16.7139 191.873 16.4776 192.658 16.5411H205.166V16.1221C205.172 16.0722 205.168 16.0216 205.154 15.9735C205.139 15.9254 205.115 15.8808 205.082 15.8428C204.981 15.7844 204.863 15.7599 204.747 15.7729H191.237C191.062 15.7867 190.886 15.7589 190.724 15.6917C190.562 15.6246 190.419 15.5199 190.305 15.3865C190.106 15.1576 189.996 14.8655 189.993 14.5625C189.995 14.2607 190.093 13.9675 190.272 13.7245C190.384 13.5875 190.527 13.4798 190.689 13.4109C190.851 13.3419 191.028 13.3137 191.204 13.3288H207.416C208.376 13.3288 209.037 13.501 209.396 13.8409C209.586 14.0465 209.732 14.289 209.824 14.5533C209.916 14.8176 209.953 15.0981 209.932 15.3772V17.6398C209.932 17.9102 209.824 18.1695 209.633 18.3607C209.442 18.5519 209.182 18.6593 208.912 18.6593H195.141C195.08 18.652 195.019 18.6597 194.962 18.6816C194.905 18.7035 194.854 18.739 194.815 18.785C194.756 18.863 194.723 18.9575 194.721 19.055C194.721 19.3018 194.861 19.4275 195.141 19.4275H208.93C209.108 19.4068 209.288 19.4339 209.452 19.5059C209.616 19.5779 209.757 19.6922 209.862 19.8371C210.039 20.0931 210.133 20.3968 210.132 20.7077C210.123 20.9976 210.034 21.2794 209.876 21.5224C209.772 21.669 209.631 21.7852 209.467 21.8589C209.303 21.9326 209.123 21.9611 208.944 21.9414L192.658 21.9508ZM192.821 8.93865C192.424 8.96835 192.026 8.91311 191.652 8.77663C191.278 8.64015 190.938 8.42556 190.654 8.14721C190.17 7.61295 189.912 6.91236 189.932 6.1919V6.05224C189.91 5.71415 189.962 5.37527 190.084 5.05925C190.206 4.74324 190.396 4.45772 190.64 4.22263C191.265 3.75076 192.04 3.52386 192.821 3.58483H204.933V3.1891C204.939 3.13927 204.935 3.08867 204.921 3.04055C204.906 2.99243 204.882 2.94787 204.849 2.90978C204.748 2.85139 204.63 2.82691 204.514 2.83994H191.353C191.178 2.85302 191.001 2.82393 190.839 2.75509C190.677 2.68625 190.534 2.57967 190.421 2.44423C190.224 2.20921 190.114 1.91318 190.109 1.60625C190.113 1.30042 190.211 1.00312 190.389 0.754286C190.499 0.615313 190.641 0.505618 190.804 0.434959C190.966 0.3643 191.144 0.334867 191.321 0.34926H207.16C208.12 0.34926 208.781 0.521502 209.14 0.861353C209.33 1.06698 209.475 1.30949 209.568 1.5738C209.66 1.83811 209.697 2.11858 209.676 2.39769V4.68352C209.676 4.95393 209.568 5.21326 209.377 5.40447C209.185 5.59567 208.926 5.70308 208.655 5.70308H195.28C195.221 5.69581 195.16 5.70254 195.104 5.72274C195.047 5.74294 194.996 5.77607 194.954 5.81946C194.893 5.89068 194.86 5.98169 194.861 6.07551C194.861 6.30829 195.001 6.42467 195.28 6.42467H208.534C208.711 6.40447 208.891 6.43129 209.054 6.50239C209.218 6.57349 209.36 6.68637 209.466 6.8297C209.642 7.08759 209.736 7.39265 209.736 7.70493C209.727 7.99479 209.638 8.27656 209.48 8.51965C209.376 8.66625 209.235 8.78243 209.071 8.85611C208.907 8.92979 208.727 8.9583 208.548 8.93865H192.821Z" fill="white"/>
<path d="M221.378 21.5315C220.697 21.5381 220.019 21.4278 219.375 21.2056C218.767 20.9968 218.213 20.6548 217.754 20.2047C217.273 19.719 216.904 19.1343 216.673 18.4914C216.392 17.7047 216.258 16.8732 216.277 16.038V8.10041C216.262 7.42828 216.364 6.75864 216.58 6.12183C216.395 6.08683 216.22 6.01366 216.065 5.90704C215.91 5.80042 215.779 5.66269 215.681 5.50264C215.484 5.16863 215.384 4.78669 215.392 4.39929C215.376 3.95234 215.51 3.51288 215.774 3.15162C215.928 2.97609 216.121 2.83945 216.338 2.75288C216.555 2.6663 216.79 2.63225 217.022 2.65348H219.212V2.35086C219.176 1.75341 219.371 1.16488 219.757 0.707489C219.97 0.499603 220.224 0.339364 220.504 0.237421C220.784 0.135479 221.082 0.0941593 221.378 0.116232C221.68 0.09392 221.983 0.134992 222.268 0.236825C222.553 0.338657 222.813 0.499 223.032 0.707489C223.424 1.16277 223.624 1.75153 223.591 2.35086V2.65348H225.734C225.966 2.63262 226.2 2.66687 226.416 2.75344C226.632 2.84002 226.825 2.97646 226.978 3.15162C227.243 3.51229 227.38 3.9518 227.365 4.39929C227.373 4.78738 227.271 5.16988 227.071 5.50264C226.974 5.66255 226.844 5.80025 226.69 5.9069C226.535 6.01354 226.361 6.08677 226.177 6.12183C226.273 6.42623 226.346 6.73749 226.396 7.05293C226.453 7.39909 226.481 7.74951 226.479 8.10041V16.038C226.496 16.873 226.362 17.7041 226.083 18.4914C225.851 19.1346 225.48 19.7193 224.998 20.2047C224.541 20.6547 223.988 20.9967 223.382 21.2056C222.737 21.4271 222.06 21.5373 221.378 21.5315ZM221.378 18.0399C221.621 18.0306 221.854 17.9405 222.04 17.7838C222.166 17.6663 222.262 17.5208 222.321 17.359C222.381 17.1972 222.401 17.0237 222.38 16.8527V7.21586C222.399 7.04495 222.378 6.87194 222.319 6.71039C222.26 6.54883 222.165 6.40314 222.04 6.28476C221.856 6.12377 221.623 6.03018 221.378 6.01939C221.133 6.03023 220.898 6.12375 220.712 6.28476C220.589 6.40421 220.495 6.55017 220.437 6.71152C220.378 6.87288 220.358 7.04538 220.377 7.21586V16.876C220.357 17.0466 220.376 17.2195 220.435 17.3811C220.493 17.5426 220.588 17.6885 220.712 17.8071C220.903 17.9554 221.137 18.0372 221.378 18.0399ZM233.118 12.3369H232V19.9347C232 20.4693 231.787 20.982 231.409 21.3601C231.031 21.7381 230.518 21.9505 229.983 21.9505C229.718 21.9505 229.456 21.8983 229.212 21.797C228.967 21.6956 228.745 21.547 228.558 21.3598C228.371 21.1725 228.223 20.9503 228.122 20.7057C228.021 20.4612 227.97 20.1992 227.97 19.9347V2.07154C227.951 1.79616 227.994 1.51992 228.096 1.26354C228.199 1.00715 228.358 0.77727 228.562 0.591101C228.953 0.263309 229.449 0.0865646 229.959 0.09296C230.469 0.0909982 230.964 0.267215 231.357 0.591101C231.568 0.772783 231.734 1.00116 231.842 1.25814C231.949 1.51512 231.996 1.79364 231.977 2.07154V8.51939H233.095V2.07154C233.076 1.79409 233.122 1.51606 233.228 1.25922C233.335 1.00238 233.5 0.773704 233.71 0.591101C234.115 0.262483 234.623 0.0862157 235.145 0.09296C235.406 0.0930698 235.665 0.135501 235.913 0.218639C236.157 0.302835 236.382 0.434138 236.575 0.605053C236.769 0.776968 236.928 0.985873 237.041 1.21958C237.163 1.48657 237.224 1.77785 237.218 2.07154V19.9347C237.218 20.4693 237.005 20.982 236.627 21.3601C236.249 21.7381 235.735 21.9505 235.2 21.9505H235.107C234.843 21.9505 234.58 21.8983 234.336 21.797C234.092 21.6956 233.869 21.547 233.683 21.3598C233.496 21.1725 233.347 20.9503 233.247 20.7057C233.146 20.4612 233.094 20.1992 233.095 19.9347L233.118 12.3369Z" fill="white"/>
<path d="M247.522 8.9616V7.91412H243.274C242.705 7.92215 242.137 7.88636 241.573 7.80705C241.195 7.76111 240.84 7.59838 240.558 7.3415C240.307 7.06146 240.144 6.71301 240.092 6.34056C239.997 5.76367 239.955 5.1793 239.966 4.59475V2.15061C239.957 1.82169 240.024 1.49512 240.162 1.19624C240.282 0.94633 240.463 0.730321 240.688 0.567735C240.916 0.407528 241.172 0.292192 241.443 0.227893C241.737 0.154962 242.039 0.117457 242.342 0.116166C242.843 0.114259 243.336 0.242602 243.772 0.488599C243.994 0.615629 244.186 0.789908 244.333 0.999073C244.481 1.20824 244.58 1.44719 244.625 1.69904H255.13C255.159 1.44264 255.249 1.1969 255.393 0.982308C255.536 0.767717 255.729 0.590477 255.955 0.465328C256.42 0.227366 256.937 0.107455 257.459 0.116166C257.75 0.11495 258.039 0.149333 258.321 0.218573C258.593 0.284821 258.849 0.403422 259.076 0.567735C259.303 0.730316 259.487 0.94613 259.612 1.19624C259.752 1.48611 259.821 1.80542 259.812 2.12734V6.44763C259.813 6.63549 259.776 6.82164 259.704 6.99532C259.633 7.169 259.527 7.32678 259.394 7.45962C259.261 7.59246 259.104 7.69774 258.93 7.76934C258.756 7.84095 258.57 7.87748 258.382 7.87687H252.242V8.9616H259.113C259.352 8.9354 259.593 8.9637 259.819 9.04435C260.045 9.125 260.25 9.25589 260.418 9.42715C260.662 9.72997 260.794 10.1086 260.79 10.4979C260.799 10.8905 260.661 11.2722 260.404 11.5687C260.235 11.735 260.032 11.8629 259.81 11.9432C259.587 12.0236 259.349 12.0547 259.113 12.0342H240.665C240.428 12.0544 240.19 12.0233 239.966 11.9429C239.743 11.8626 239.539 11.7349 239.37 11.5687C239.113 11.2718 238.977 10.8899 238.988 10.4979C238.981 10.1082 239.114 9.7288 239.361 9.42715C239.528 9.25532 239.733 9.12404 239.959 9.04335C240.185 8.96266 240.426 8.9347 240.665 8.9616H247.522ZM242.561 21.9737C242.115 21.9825 241.672 21.9034 241.257 21.7409C240.9 21.6022 240.581 21.3822 240.325 21.0985C240.086 20.8272 239.903 20.5106 239.789 20.1674C239.671 19.8036 239.613 19.4232 239.617 19.0408V18.9709C239.584 18.2457 239.834 17.5361 240.316 16.9923C240.781 16.4926 241.527 16.2444 242.552 16.2475H255.013V15.8285C255.013 15.5817 254.85 15.456 254.548 15.456H241.201C241.016 15.4689 240.831 15.44 240.659 15.3715C240.488 15.3029 240.333 15.1966 240.208 15.0603C239.995 14.8238 239.876 14.5174 239.873 14.199C239.874 13.8802 239.984 13.5714 240.185 13.3238C240.311 13.1811 240.468 13.0701 240.644 12.9997C240.821 12.9293 241.011 12.9016 241.201 12.9188H257.226C258.219 12.9188 258.903 13.0957 259.276 13.4542C259.475 13.6692 259.627 13.9228 259.723 14.1991C259.819 14.4754 259.857 14.7686 259.835 15.0603V17.1692C259.836 17.3571 259.799 17.5432 259.728 17.7169C259.656 17.8906 259.551 18.0484 259.418 18.1812C259.285 18.3141 259.127 18.4193 258.953 18.4909C258.779 18.5625 258.593 18.5991 258.405 18.5985H245.091C245.028 18.5898 244.964 18.5949 244.904 18.6134C244.844 18.6319 244.788 18.6633 244.741 18.7055C244.707 18.745 244.682 18.7909 244.666 18.8405C244.65 18.8901 244.644 18.9423 244.648 18.9942C244.643 19.1028 244.676 19.2099 244.741 19.2968C244.787 19.3415 244.842 19.3752 244.902 19.3954C244.963 19.4155 245.027 19.4216 245.091 19.4132H258.764C258.945 19.3955 259.127 19.4223 259.295 19.4913C259.463 19.5603 259.612 19.6693 259.728 19.8089C259.92 20.0635 260.024 20.3744 260.022 20.6935C260.014 20.9972 259.917 21.292 259.742 21.5408C259.631 21.6919 259.482 21.8114 259.311 21.8873C259.139 21.9633 258.95 21.9931 258.764 21.9737H242.561ZM255.093 5.30705V4.25957H244.671V4.58543C244.66 4.77552 244.712 4.96403 244.82 5.12082C244.896 5.19206 244.987 5.24568 245.086 5.27787C245.185 5.31006 245.29 5.32003 245.393 5.30705H255.093Z" fill="white"/>
<path d="M270.294 17.8304C270.664 17.6856 271.015 17.4981 271.342 17.2717C271.662 17.0416 271.931 16.7485 272.134 16.4104C272.374 15.9863 272.542 15.5254 272.632 15.0464C272.762 14.3605 272.821 13.6632 272.809 12.9654V5.23725C272.818 5.16749 272.814 5.09664 272.795 5.02875C272.777 4.96085 272.745 4.89724 272.702 4.84155C272.589 4.7679 272.454 4.73504 272.32 4.74843H269.991V12.686C270.024 13.832 269.834 14.9735 269.432 16.0473C269.116 16.8732 268.641 17.6293 268.034 18.2726C267.506 18.8208 266.872 19.2563 266.171 19.5529C265.567 19.8138 264.928 19.9863 264.275 20.065C263.813 20.1419 263.339 20.0422 262.947 19.7857C262.775 19.6726 262.629 19.5254 262.517 19.3531C262.404 19.1809 262.329 18.9874 262.295 18.7847C262.198 18.3296 262.233 17.8562 262.397 17.4207C262.507 17.1904 262.661 16.9844 262.852 16.8148C263.042 16.6453 263.265 16.5157 263.506 16.4337C263.786 16.308 264.065 16.173 264.345 16.024C264.634 15.8713 264.891 15.6624 265.099 15.4095C265.349 15.1015 265.531 14.7447 265.635 14.362C265.785 13.8084 265.852 13.2359 265.835 12.6628V5.2838C265.844 5.21404 265.84 5.14319 265.821 5.07529C265.803 5.00739 265.771 4.94378 265.728 4.88809C265.615 4.81444 265.48 4.78158 265.346 4.79498H264.088C263.8 4.80184 263.514 4.74626 263.25 4.63205C263.028 4.53348 262.832 4.38536 262.677 4.19909C262.529 4.01783 262.418 3.80895 262.351 3.58456C262.283 3.35805 262.248 3.12277 262.248 2.88624C262.247 2.65333 262.278 2.42137 262.341 2.1972C262.404 1.97367 262.51 1.76478 262.654 1.5827C262.807 1.3923 263.003 1.24077 263.227 1.14043C263.499 1.02446 263.793 0.968852 264.088 0.977466H273.965C274.499 0.966456 275.033 1.01331 275.558 1.11715C275.907 1.18067 276.23 1.34216 276.49 1.5827C276.726 1.8219 276.888 2.12425 276.956 2.45328C277.04 2.91386 277.079 3.38168 277.072 3.84993V12.998C277.089 14.1814 276.932 15.361 276.606 16.4989C276.348 17.411 275.93 18.2701 275.372 19.0361C274.886 19.6999 274.267 20.2549 273.555 20.6656C272.881 21.0561 272.145 21.3284 271.379 21.471C270.923 21.5665 270.448 21.5092 270.028 21.308C269.832 21.2227 269.657 21.0949 269.516 20.9339C269.375 20.7729 269.272 20.5827 269.213 20.3769C269.041 19.8804 269.052 19.3386 269.245 18.8499C269.344 18.6192 269.488 18.4103 269.668 18.2354C269.847 18.0604 270.06 17.9227 270.294 17.8304ZM278.586 2.35084C278.564 2.03565 278.614 1.71959 278.733 1.42673C278.852 1.13388 279.036 0.871947 279.271 0.660896C279.719 0.287538 280.285 0.0861577 280.869 0.0929393C281.162 0.0935972 281.454 0.143972 281.731 0.241918C282 0.33859 282.248 0.485518 282.462 0.674876C282.678 0.869235 282.849 1.10731 282.965 1.3732C283.094 1.68283 283.157 2.01562 283.151 2.35084V8.24005H283.617C283.938 8.22692 284.258 8.29075 284.549 8.42626C284.781 8.53715 284.988 8.69578 285.155 8.8918C285.308 9.08333 285.422 9.30325 285.49 9.53893C285.559 9.77014 285.595 10.0099 285.597 10.2512C285.596 10.491 285.559 10.7293 285.49 10.9588C285.422 11.1986 285.303 11.421 285.141 11.6106C284.969 11.8058 284.76 11.9642 284.526 12.0762C284.249 12.2066 283.946 12.2704 283.641 12.2624H283.175V19.6693C283.175 20.2743 282.934 20.8545 282.506 21.2823C282.078 21.7101 281.497 21.9505 280.892 21.9505C280.287 21.9505 279.706 21.7101 279.278 21.2823C278.85 20.8545 278.609 20.2743 278.609 19.6693L278.586 2.35084Z" fill="white"/>
<path d="M290.428 15.8053C290.15 15.8053 289.884 15.695 289.687 15.4985C289.49 15.3021 289.38 15.0357 289.38 14.7579V13.4543C289.356 12.7055 289.459 11.958 289.683 11.243C289.923 10.6238 290.377 10.1115 290.964 9.79974L292.362 8.96176C292.706 8.75554 293.033 8.52201 293.34 8.26344C293.649 8.0067 293.902 7.68993 294.085 7.33234C294.216 7.00385 294.28 6.65235 294.272 6.29883C294.283 6.05687 294.238 5.81553 294.141 5.59352C294.045 5.37151 293.898 5.17479 293.713 5.01857C293.333 4.70535 292.853 4.53997 292.362 4.55302C291.85 4.54443 291.345 4.67646 290.903 4.93475C290.488 5.18037 290.184 5.5776 290.056 6.04276C289.908 6.56715 289.578 7.02139 289.124 7.32302C288.629 7.62735 288.047 7.75842 287.47 7.69548C287.206 7.68036 286.946 7.62215 286.701 7.5232C286.459 7.42552 286.24 7.27801 286.058 7.09024C285.872 6.89082 285.726 6.65673 285.63 6.40124C285.515 6.10508 285.467 5.78702 285.49 5.47014C285.502 4.76583 285.703 4.07768 286.072 3.47758C286.458 2.85248 286.965 2.31107 287.563 1.88541C288.222 1.41456 288.954 1.05591 289.729 0.823967C290.582 0.564049 291.47 0.435322 292.362 0.442213C293.262 0.434836 294.159 0.555516 295.026 0.800667C295.794 1.01963 296.512 1.38829 297.137 1.88541C297.74 2.37546 298.218 3.00069 298.534 3.71035C298.886 4.53044 299.057 5.41624 299.037 6.30812C299.051 7.0013 298.957 7.69244 298.758 8.35655C298.555 8.94758 298.239 9.49323 297.826 9.9627C297.425 10.406 296.984 10.8112 296.508 11.1731C295.991 11.5781 295.441 11.9646 294.868 12.337C294.594 12.4969 294.375 12.7353 294.239 13.0213C294.142 13.2866 294.094 13.5676 294.099 13.85V14.7811C294.099 15.0589 293.989 15.3254 293.792 15.5218C293.596 15.7183 293.329 15.8286 293.051 15.8286L290.428 15.8053ZM289.24 19.2504C289.222 18.9337 289.271 18.6167 289.383 18.32C289.496 18.0233 289.669 17.7534 289.892 17.5279C290.146 17.3045 290.441 17.1339 290.761 17.026C291.081 16.9181 291.419 16.875 291.756 16.8994C292.093 16.876 292.432 16.9204 292.752 17.03C293.072 17.1395 293.367 17.312 293.619 17.5372C293.838 17.7638 294.009 18.0324 294.121 18.3269C294.233 18.6214 294.285 18.9356 294.272 19.2504C294.286 19.5647 294.236 19.8787 294.124 20.1727C294.012 20.4667 293.84 20.7344 293.619 20.959C293.368 21.1859 293.073 21.3598 292.753 21.4702C292.433 21.5806 292.094 21.6252 291.756 21.6014C291.419 21.6258 291.081 21.5827 290.761 21.4748C290.441 21.3669 290.146 21.1963 289.892 20.9729C289.669 20.7474 289.496 20.4776 289.383 20.1808C289.271 19.8841 289.222 19.5671 289.24 19.2504Z" fill="white"/>
<path d="M58.8896 45.4841C59.209 45.4735 59.5269 45.5323 59.8213 45.6564C60.0622 45.7643 60.2768 45.9231 60.4503 46.1219C60.6119 46.3065 60.7312 46.5242 60.7997 46.7597C60.8688 46.9909 60.9048 47.2307 60.9068 47.472C60.908 47.7173 60.8686 47.9611 60.7904 48.1936C60.7117 48.4249 60.5882 48.6385 60.427 48.8221C60.2577 49.0136 60.0475 49.1648 59.812 49.2644C59.5161 49.3827 59.1988 49.4382 58.8803 49.4273H41.089C40.7705 49.4388 40.453 49.3832 40.1573 49.2644C39.9204 49.1648 39.7088 49.0137 39.5377 48.8221C39.3782 48.6381 39.2563 48.4245 39.179 48.1936C39.1007 47.9611 39.0614 47.7173 39.0625 47.472C39.0629 47.2309 39.0974 46.9911 39.165 46.7597C39.2335 46.5242 39.3528 46.3065 39.5144 46.1219C39.6879 45.9231 39.9025 45.7643 40.1433 45.6564C40.4378 45.5325 40.7557 45.4738 41.075 45.4841H58.8896ZM52.3675 30.8193C52.3479 31.5439 52.2384 32.2632 52.0415 32.9608C53.0372 32.9955 54.0206 33.1921 54.9531 33.5428C55.919 33.9033 56.8052 34.4489 57.5619 35.1489C58.3765 35.9164 59.036 36.8331 59.5046 37.8491C59.6105 38.0661 59.7053 38.2883 59.7887 38.5148C59.9218 38.8741 59.9658 39.2602 59.9172 39.6401C59.8686 40.0201 59.7287 40.3826 59.5095 40.6968C59.2902 41.011 58.9982 41.2676 58.6583 41.4445C58.3183 41.6215 57.9406 41.7137 57.5572 41.7132C57.0761 41.7141 56.6062 41.5684 56.21 41.2956C55.8138 41.0228 55.5102 40.6358 55.3397 40.1862C55.2601 39.9799 55.1699 39.7779 55.0696 39.5809C54.7655 38.9817 54.3496 38.446 53.8443 38.0027C53.3572 37.5764 52.7926 37.2476 52.1812 37.0344C51.545 36.8146 50.8742 36.7121 50.2013 36.7318C49.6751 37.4599 49.0739 38.1309 48.4077 38.7337C47.7597 39.3245 47.0525 39.8471 46.2974 40.2932C45.5781 40.7206 44.8122 41.0642 44.0146 41.3174C43.2614 41.5612 42.4768 41.6945 41.6853 41.7132C41.1496 41.7341 40.623 41.5696 40.1945 41.2476C39.9864 41.0876 39.8146 40.8854 39.6901 40.6543C39.5657 40.4233 39.4915 40.1685 39.4725 39.9068C39.4015 39.3916 39.5261 38.8684 39.8219 38.4404C40.1409 38.0059 40.6175 37.7134 41.1496 37.6256C41.9281 37.4476 42.6767 37.1574 43.3718 36.7644C44.0963 36.3595 44.7532 35.8443 45.319 35.2374C45.9071 34.6066 46.3942 33.889 46.7632 33.1098C47.1613 32.2644 47.4207 31.3606 47.5319 30.4329C47.553 30.1106 47.6439 29.7967 47.7984 29.5129C47.9528 29.2292 48.1671 28.9824 48.4264 28.7895C48.9341 28.4377 49.5483 28.2732 50.164 28.324C50.7783 28.354 51.3594 28.6112 51.7945 29.0456C52.0091 29.2886 52.1692 29.5747 52.264 29.8846C52.3588 30.1946 52.3862 30.5212 52.3443 30.8426L52.3675 30.8193Z" fill="white"/>
<path d="M82.1826 45.5075C82.5025 45.4961 82.8209 45.5565 83.1143 45.6844C83.3562 45.7905 83.5712 45.9496 83.7433 46.15C83.9039 46.3318 84.0231 46.5462 84.0927 46.7785C84.1624 47.0048 84.1985 47.24 84.1998 47.4768C84.201 47.7221 84.1616 47.9659 84.0833 48.1984C84.0046 48.4297 83.8812 48.6432 83.72 48.8269C83.5507 49.0184 83.3405 49.1695 83.105 49.2692C82.8091 49.3875 82.4918 49.443 82.1733 49.4321H64.382C64.0634 49.4435 63.746 49.388 63.4503 49.2692C63.2134 49.1696 63.0017 49.0185 62.8307 48.8269C62.6711 48.6428 62.5493 48.4293 62.472 48.1984C62.3937 47.9659 62.3543 47.7221 62.3555 47.4768C62.3553 47.2403 62.3898 47.005 62.458 46.7785C62.5276 46.5462 62.6468 46.3318 62.8074 46.15C62.9794 45.9496 63.1943 45.7905 63.4363 45.6844C63.7297 45.5567 64.0481 45.4962 64.368 45.5075H82.1826ZM81.2509 28.7477C81.5345 28.7397 81.8163 28.7954 82.0754 28.9107C82.2903 29.0077 82.4812 29.1507 82.6345 29.3297C82.781 29.4985 82.889 29.697 82.9513 29.9116C83.0119 30.1236 83.0433 30.3429 83.0445 30.5634C83.0459 31.0098 82.8984 31.4439 82.6252 31.7971C82.4558 31.9975 82.2398 32.1532 81.9961 32.2506C81.7524 32.348 81.4885 32.3841 81.2276 32.3558H68.8357C68.3698 32.3558 68.1369 32.5559 68.1369 32.961V33.8688H81.0878C81.3488 33.8396 81.613 33.8753 81.8568 33.9728C82.1006 34.0703 82.3166 34.2264 82.4854 34.4275C82.7484 34.7677 82.8924 35.1847 82.8954 35.6146C82.895 36.0493 82.7472 36.4711 82.4761 36.8111C82.3076 37.0057 82.0949 37.1571 81.8558 37.2527C81.6167 37.3483 81.3581 37.3852 81.1018 37.3604H68.1508V38.245C68.144 38.3304 68.156 38.4163 68.1857 38.4967C68.2155 38.5771 68.2624 38.65 68.3232 38.7105C68.4781 38.8146 68.6634 38.8638 68.8496 38.8502H81.6189C81.9025 38.8422 82.1843 38.8978 82.4435 39.0131C82.6583 39.1101 82.8492 39.2532 83.0025 39.4321C83.1485 39.5959 83.2567 39.7898 83.3193 40.0001C83.3803 40.2088 83.4116 40.4251 83.4125 40.6425C83.4139 41.0889 83.2664 41.5231 82.9932 41.8762C82.8238 42.0766 82.6078 42.2323 82.3641 42.3297C82.1204 42.4272 81.8565 42.4633 81.5956 42.4349H67.1073C65.7563 42.4349 64.8012 42.1431 64.2422 41.5597C63.6832 40.9762 63.4037 40.0575 63.4037 38.8036V32.3558C63.4037 31.1143 63.6832 30.1941 64.2422 29.5951C64.8012 28.996 65.7563 28.7059 67.1073 28.7245L81.2509 28.7477Z" fill="white"/>
<path d="M90.9872 44.0875C90.9686 44.2299 90.9796 44.3745 91.0197 44.5123C91.0598 44.6501 91.1281 44.7782 91.2202 44.8883C91.4687 45.0484 91.7646 45.119 92.0587 45.0885H98.4643C98.7751 45.0803 99.0842 45.1357 99.3728 45.2514C99.6083 45.351 99.8184 45.5022 99.9877 45.6937C100.146 45.8717 100.265 46.0811 100.337 46.3082C100.407 46.5312 100.443 46.7635 100.444 46.9972C100.446 47.4755 100.281 47.9395 99.9784 48.3101C99.7907 48.5213 99.5558 48.6854 99.2927 48.789C99.0296 48.8925 98.7458 48.9326 98.4643 48.906H90.335C89.7074 48.9181 89.0808 48.8476 88.4716 48.6965C88.0042 48.5826 87.5742 48.3501 87.2231 48.0214C86.8892 47.6797 86.6487 47.2581 86.5243 46.797C86.3652 46.1895 86.2915 45.5627 86.3053 44.9348V40.6983C86.2925 40.0782 86.3662 39.4593 86.5243 38.8594C86.6508 38.4033 86.8913 37.9868 87.2231 37.649C87.5741 37.3222 88.0045 37.0927 88.4716 36.9833C89.0823 36.842 89.7082 36.7763 90.335 36.7877H94.5278V33.4125C94.5284 33.2574 94.4883 33.1049 94.4113 32.9702C94.3321 32.8306 94.1644 32.7607 93.8989 32.7607H88.5415C88.2229 32.7721 87.9055 32.7166 87.6097 32.5978C87.3756 32.5005 87.168 32.3489 87.0041 32.1555C86.8469 31.9714 86.7281 31.7577 86.6547 31.527C86.5777 31.3022 86.5383 31.0663 86.5383 30.8287C86.5381 30.5922 86.5726 30.3569 86.6408 30.1304C86.7104 29.8981 86.8296 29.6836 86.9902 29.5019C87.1617 29.305 87.3728 29.1464 87.6097 29.0363C87.9033 28.9094 88.2219 28.8505 88.5415 28.8641H95.1288C95.7968 28.8494 96.4643 28.9119 97.118 29.0503C97.5781 29.1451 98.0072 29.3531 98.3665 29.6555C98.6859 29.9489 98.9126 30.3292 99.0187 30.7495C99.155 31.2975 99.2177 31.8611 99.2051 32.4255V38.4358C99.2038 39.0021 98.9781 39.5449 98.5774 39.9454C98.1767 40.3459 97.6335 40.5714 97.0668 40.5726H92.0773C91.7832 40.5421 91.4874 40.6127 91.2388 40.7728C91.1467 40.8829 91.0784 41.011 91.0384 41.1488C90.9983 41.2866 90.9872 41.4313 91.0059 41.5736L90.9872 44.0875ZM104.521 49.8836C103.903 49.8836 103.31 49.6384 102.873 49.2019C102.437 48.7653 102.191 48.1732 102.191 47.5559V30.3306C102.169 30.0092 102.22 29.687 102.341 29.3884C102.462 29.0899 102.65 28.8229 102.89 28.608C103.346 28.2248 103.925 28.0183 104.521 28.0261C105.116 28.0183 105.695 28.2248 106.151 28.608C106.391 28.8229 106.579 29.0899 106.7 29.3884C106.821 29.687 106.872 30.0092 106.85 30.3306V47.5559C106.85 48.1732 106.604 48.7653 106.168 49.2019C105.731 49.6384 105.138 49.8836 104.521 49.8836Z" fill="white"/>
<path d="M128.769 45.5075C129.089 45.4961 129.408 45.5565 129.701 45.6844C129.943 45.7905 130.158 45.9496 130.33 46.15C130.491 46.3318 130.61 46.5462 130.68 46.7785C130.749 47.0048 130.785 47.24 130.787 47.4768C130.788 47.7221 130.749 47.9659 130.67 48.1984C130.592 48.4297 130.468 48.6432 130.307 48.8269C130.138 49.0184 129.927 49.1695 129.692 49.2692C129.396 49.3875 129.079 49.443 128.76 49.4321H110.969C110.65 49.4435 110.333 49.388 110.037 49.2692C109.8 49.1696 109.589 49.0185 109.418 48.8269C109.258 48.6428 109.136 48.4293 109.059 48.1984C108.981 47.9659 108.941 47.7221 108.942 47.4768C108.942 47.2403 108.977 47.005 109.045 46.7785C109.114 46.5462 109.234 46.3318 109.394 46.15C109.566 45.9496 109.781 45.7905 110.023 45.6844C110.317 45.5567 110.635 45.4962 110.955 45.5075H128.769ZM127.838 28.7477C128.121 28.7397 128.403 28.7954 128.662 28.9107C128.877 29.0077 129.068 29.1507 129.221 29.3297C129.368 29.4985 129.476 29.697 129.538 29.9116C129.599 30.1236 129.63 30.3429 129.631 30.5634C129.633 31.0098 129.485 31.4439 129.212 31.7971C129.043 31.9975 128.827 32.1532 128.583 32.2506C128.339 32.348 128.075 32.3841 127.815 32.3558H115.423C114.957 32.3558 114.724 32.5559 114.724 32.961V33.8688H127.675C127.936 33.8396 128.2 33.8753 128.444 33.9728C128.688 34.0703 128.903 34.2264 129.072 34.4275C129.335 34.7677 129.479 35.1847 129.482 35.6146C129.482 36.0493 129.334 36.4711 129.063 36.8111C128.894 37.0057 128.682 37.1571 128.443 37.2527C128.204 37.3483 127.945 37.3852 127.689 37.3604H114.738V38.245C114.731 38.3304 114.743 38.4163 114.773 38.4967C114.802 38.5771 114.849 38.65 114.91 38.7105C115.065 38.8146 115.25 38.8638 115.437 38.8502H128.206C128.489 38.8422 128.771 38.8978 129.03 39.0131C129.245 39.1101 129.436 39.2532 129.589 39.4321C129.735 39.5959 129.844 39.7898 129.906 40.0001C129.967 40.2088 129.999 40.4251 129.999 40.6425C130.001 41.0889 129.853 41.5231 129.58 41.8762C129.411 42.0766 129.195 42.2323 128.951 42.3297C128.707 42.4272 128.443 42.4633 128.183 42.4349H113.694C112.343 42.4349 111.388 42.1431 110.829 41.5597C110.27 40.9762 109.991 40.0575 109.991 38.8036V32.3558C109.991 31.1143 110.27 30.1941 110.829 29.5951C111.388 28.996 112.343 28.7059 113.694 28.7245L127.838 28.7477Z" fill="white"/>
<path d="M147.869 45.0185V47.6255C147.869 48.2552 147.619 48.8591 147.173 49.3044C146.728 49.7497 146.123 49.9998 145.493 49.9998C144.863 49.9998 144.259 49.7497 143.813 49.3044C143.368 48.8591 143.117 48.2552 143.117 47.6255V45.0185H136.549C136.27 45.0453 135.989 45.0066 135.727 44.9056C135.466 44.8046 135.232 44.6439 135.044 44.4365C134.743 44.0686 134.579 43.6081 134.578 43.133C134.578 42.8995 134.612 42.6672 134.681 42.444C134.753 42.219 134.868 42.0102 135.021 41.8294C135.182 41.6276 135.39 41.4678 135.626 41.3639C135.922 41.245 136.239 41.1895 136.558 41.2009H154.447C154.766 41.1901 155.083 41.2456 155.379 41.3639C155.615 41.4691 155.822 41.6286 155.985 41.8294C156.135 42.0105 156.249 42.2192 156.32 42.444C156.39 42.667 156.426 42.8992 156.427 43.133C156.426 43.6081 156.262 44.0684 155.961 44.4365C155.774 44.6439 155.541 44.8045 155.28 44.9055C155.02 45.0066 154.739 45.0453 154.461 45.0185H147.869ZM138.668 36.2428V35.3117C138.639 34.9811 138.681 34.6481 138.791 34.3349C138.901 34.0218 139.077 33.7358 139.307 33.4961C139.805 33.1003 140.432 32.9015 141.068 32.9374C141.693 32.9026 142.309 33.1055 142.791 33.5054C143.018 33.7448 143.192 34.0296 143.3 34.3411C143.408 34.6525 143.449 34.9833 143.42 35.3117V36.2428H147.566V35.3117C147.537 34.9811 147.579 34.6481 147.689 34.3349C147.799 34.0218 147.975 33.7358 148.205 33.4961C148.703 33.1003 149.33 32.9015 149.966 32.9374C150.591 32.9026 151.207 33.1055 151.689 33.5054C151.916 33.7448 152.09 34.0296 152.198 34.3411C152.306 34.6525 152.347 34.9833 152.318 35.3117V36.2428H153.949C154.252 36.2363 154.553 36.2917 154.834 36.4058C155.061 36.4976 155.264 36.641 155.426 36.8248C155.573 36.9943 155.684 37.1924 155.752 37.4067C155.822 37.6248 155.858 37.8525 155.859 38.0818C155.858 38.311 155.822 38.5387 155.752 38.7568C155.683 38.9725 155.568 39.1709 155.416 39.3387C155.251 39.518 155.047 39.6567 154.82 39.7438C154.543 39.8532 154.246 39.9054 153.949 39.8974H137.056C136.757 39.9054 136.459 39.8532 136.181 39.7438C135.955 39.6554 135.753 39.5169 135.589 39.3387C135.434 39.1723 135.318 38.9735 135.249 38.7568C135.18 38.5385 135.145 38.3107 135.146 38.0818C135.145 37.8528 135.18 37.625 135.249 37.4067C135.318 37.19 135.434 36.9912 135.589 36.8248C135.755 36.6452 135.956 36.5024 136.181 36.4058C136.458 36.2909 136.756 36.2354 137.056 36.2428H138.668ZM153.646 28.5613C153.95 28.5534 154.252 28.6122 154.531 28.7335C154.761 28.8384 154.967 28.9889 155.137 29.1758C155.288 29.3528 155.402 29.5587 155.472 29.781C155.541 29.9963 155.577 30.2207 155.579 30.4468C155.578 30.679 155.542 30.9098 155.472 31.1311C155.405 31.3543 155.29 31.5607 155.137 31.7363C154.969 31.9317 154.763 32.0902 154.531 32.2019C154.251 32.321 153.95 32.3797 153.646 32.3741H137.341C137.04 32.3807 136.741 32.3219 136.465 32.2019C136.238 32.0886 136.037 31.9301 135.873 31.7363C135.718 31.5609 135.602 31.3546 135.533 31.1311C135.464 30.9095 135.43 30.6788 135.431 30.4468C135.431 30.221 135.466 29.9965 135.533 29.781C135.603 29.5608 135.714 29.3556 135.859 29.1758C136.02 28.9895 136.219 28.8388 136.442 28.7335C136.725 28.6096 137.032 28.5507 137.341 28.5613H153.646Z" fill="white"/>
<path d="M177.685 45.4841C178.004 45.4734 178.322 45.5322 178.616 45.6563C178.857 45.7642 179.072 45.9231 179.245 46.1219C179.407 46.3064 179.526 46.5241 179.595 46.7597C179.664 46.9909 179.7 47.2307 179.702 47.4719C179.703 47.7172 179.664 47.961 179.585 48.1935C179.507 48.4248 179.383 48.6384 179.222 48.822C179.053 49.0136 178.842 49.1647 178.607 49.2643C178.311 49.3826 177.994 49.4381 177.675 49.4273H159.884C159.565 49.4387 159.248 49.3832 158.952 49.2643C158.715 49.1647 158.504 49.0137 158.333 48.822C158.173 48.638 158.051 48.4245 157.974 48.1935C157.896 47.961 157.856 47.7172 157.857 47.4719C157.858 47.2309 157.892 46.9911 157.96 46.7597C158.028 46.5241 158.148 46.3064 158.309 46.1219C158.483 45.9231 158.697 45.7642 158.938 45.6563C159.233 45.5325 159.551 45.4737 159.87 45.4841H177.685ZM176.287 28.7708C176.578 28.762 176.866 28.826 177.126 28.9571C177.344 29.0696 177.534 29.2285 177.685 29.4226C177.826 29.6102 177.929 29.8238 177.987 30.0511C178.047 30.2712 178.078 30.4981 178.081 30.7261C178.078 30.9542 178.047 31.1811 177.987 31.4012C177.928 31.6308 177.82 31.845 177.671 32.0297C177.522 32.2251 177.331 32.3842 177.112 32.4952C176.855 32.6197 176.572 32.6804 176.287 32.6721H164.543C164.362 32.6535 164.181 32.6979 164.03 32.7978C163.919 32.9406 163.869 33.1212 163.89 33.3006V36.8854C163.871 37.0676 163.921 37.2505 164.03 37.3975C164.177 37.507 164.36 37.5569 164.543 37.5371H176.702C176.992 37.5283 177.281 37.5923 177.54 37.7233C177.758 37.8359 177.949 37.9948 178.099 38.1889C178.238 38.3743 178.343 38.5822 178.411 38.8034C178.48 39.0187 178.516 39.2431 178.518 39.4692C178.516 39.6982 178.48 39.9257 178.411 40.1442C178.344 40.3726 178.233 40.586 178.085 40.7727C177.933 40.9647 177.743 41.1232 177.526 41.2382C177.272 41.3704 176.988 41.4346 176.702 41.4245H162.889C162.292 41.4375 161.697 41.3701 161.118 41.2243C160.683 41.1186 160.284 40.8984 159.963 40.5865C159.663 40.2637 159.447 39.8719 159.334 39.4459C159.192 38.8831 159.126 38.3037 159.139 37.7233V32.4626C159.127 31.89 159.193 31.3185 159.334 30.7634C159.447 30.3373 159.663 29.9456 159.963 29.6228C160.285 29.3111 160.684 29.0896 161.118 28.9803C161.698 28.8385 162.293 28.7728 162.889 28.7848L176.287 28.7708Z" fill="white"/>
<path d="M186.023 48.9524C185.761 48.9553 185.502 48.8996 185.264 48.7895C185.048 48.6883 184.857 48.5404 184.705 48.3565C184.559 48.1811 184.445 47.9809 184.369 47.7653C184.291 47.5489 184.252 47.3204 184.253 47.0903C184.251 46.6439 184.399 46.2097 184.672 45.8566C184.836 45.6615 185.044 45.5088 185.279 45.4116C185.514 45.3143 185.77 45.2753 186.023 45.2979H186.512V35.5912C186.487 35.3043 186.528 35.0154 186.633 34.7472C186.738 34.479 186.904 34.2388 187.118 34.0456C187.585 33.69 188.163 33.5118 188.748 33.5428C189.328 33.5151 189.899 33.6969 190.356 34.0549C190.566 34.2485 190.73 34.4873 190.835 34.7535C190.94 35.0196 190.983 35.306 190.961 35.5912V45.2979H192.685V35.5912C192.661 35.3057 192.702 35.0184 192.804 34.7508C192.907 34.4832 193.068 34.2421 193.277 34.0456C193.739 33.6884 194.315 33.5099 194.898 33.5428C195.481 33.5162 196.054 33.6977 196.514 34.0549C196.729 34.2458 196.897 34.4839 197.005 34.7504C197.112 35.0169 197.156 35.3047 197.134 35.5912V45.2979H197.786C198.04 45.2753 198.295 45.3143 198.53 45.4116C198.766 45.5088 198.974 45.6615 199.137 45.8566C199.41 46.2097 199.558 46.6439 199.557 47.0903C199.558 47.3204 199.518 47.5489 199.44 47.7653C199.363 47.9811 199.248 48.1813 199.1 48.3565C198.95 48.5424 198.759 48.6907 198.541 48.7895C198.305 48.9002 198.047 48.9559 197.786 48.9524H186.023ZM186.303 32.6582C186.041 32.6611 185.781 32.6054 185.543 32.4953C185.325 32.3929 185.132 32.2453 184.975 32.0623C184.821 31.885 184.702 31.6795 184.626 31.4571C184.548 31.2373 184.508 31.0059 184.509 30.7728C184.508 30.5408 184.543 30.31 184.612 30.0884C184.682 29.8638 184.792 29.654 184.938 29.4692C185.089 29.2762 185.28 29.1176 185.497 29.0037C185.748 28.8827 186.024 28.8236 186.303 28.8314H197.181C197.458 28.8236 197.733 28.8827 197.982 29.0037C198.201 29.115 198.392 29.2741 198.541 29.4692C198.688 29.6532 198.798 29.8633 198.867 30.0884C198.937 30.3098 198.973 30.5405 198.974 30.7728C198.975 31.0059 198.936 31.2373 198.858 31.4571C198.781 31.6795 198.663 31.885 198.508 32.0623C198.351 32.2465 198.156 32.3943 197.935 32.4953C197.699 32.6059 197.441 32.6616 197.181 32.6582H186.303ZM200.325 30.2839C200.303 29.9675 200.355 29.6503 200.476 29.3571C200.598 29.064 200.785 28.8028 201.024 28.594C201.476 28.221 202.045 28.0199 202.631 28.026C202.925 28.0267 203.216 28.077 203.493 28.175C203.762 28.2717 204.01 28.4186 204.224 28.608C204.442 28.8031 204.616 29.0408 204.737 29.3063C204.877 29.6128 204.946 29.9471 204.937 30.2839V36.1731H205.706C206.012 36.1616 206.316 36.2256 206.591 36.3593C206.81 36.4699 207.002 36.6292 207.15 36.8249C207.29 37.0203 207.392 37.2397 207.453 37.472C207.513 37.7047 207.544 37.9439 207.546 38.1843C207.545 38.4231 207.513 38.6609 207.453 38.8919C207.393 39.1261 207.291 39.3471 207.15 39.5437C206.999 39.742 206.802 39.9015 206.577 40.0093C206.306 40.1408 206.007 40.2047 205.706 40.1955H204.937V47.6024C204.931 48.2157 204.683 48.8018 204.247 49.2333C203.811 49.6648 203.222 49.9069 202.608 49.9068C201.994 49.9069 201.405 49.6648 200.969 49.2333C200.533 48.8018 200.285 48.2157 200.279 47.6024L200.325 30.2839Z" fill="white"/>
<path d="M208.334 34.7067C208.309 33.7802 208.467 32.8578 208.799 31.9926C209.104 31.2423 209.568 30.5672 210.16 30.014C210.762 29.468 211.474 29.0554 212.247 28.8036C213.112 28.5243 214.017 28.3875 214.926 28.3985C215.835 28.3881 216.739 28.5249 217.604 28.8036C218.377 29.0591 219.09 29.4676 219.701 30.0047C220.312 30.549 220.79 31.2258 221.098 31.9833C221.43 32.8519 221.589 33.7772 221.564 34.7067V43.1332C221.589 44.0627 221.43 44.988 221.098 45.8566C220.798 46.6104 220.331 47.2867 219.733 47.8352C219.126 48.3763 218.412 48.784 217.637 49.0317C216.777 49.3128 215.877 49.4512 214.972 49.4414C214.063 49.453 213.158 49.3146 212.293 49.0317C211.52 48.7797 210.807 48.3726 210.197 47.8352C209.585 47.2922 209.106 46.6151 208.799 45.8566C208.467 44.988 208.309 44.0627 208.334 43.1332V34.7067ZM212.946 43.2263C212.897 43.8703 213.101 44.5082 213.514 45.0047C213.698 45.1989 213.921 45.3524 214.168 45.455C214.415 45.5577 214.681 45.6073 214.949 45.6006C215.218 45.606 215.485 45.5559 215.733 45.4533C215.982 45.3508 216.206 45.198 216.393 45.0047C216.815 44.5123 217.025 43.8727 216.975 43.2263V34.6136C217.023 33.9631 216.814 33.3199 216.393 32.8212C216.209 32.6259 215.984 32.4728 215.735 32.3723C215.485 32.2719 215.217 32.2265 214.949 32.2393C214.68 32.2389 214.415 32.2933 214.168 32.3989C213.921 32.5046 213.699 32.6594 213.514 32.8538C213.103 33.3444 212.899 33.9755 212.946 34.6136V43.2263ZM226.572 49.8836C225.954 49.8836 225.362 49.6384 224.925 49.2019C224.488 48.7653 224.243 48.1732 224.243 47.5559V30.3306C224.22 30.0092 224.271 29.687 224.393 29.3884C224.514 29.0899 224.702 28.8229 224.942 28.608C225.398 28.2248 225.976 28.0183 226.572 28.0261C227.168 28.0183 227.747 28.2248 228.203 28.608C228.443 28.8229 228.631 29.0899 228.752 29.3884C228.873 29.687 228.924 30.0092 228.901 30.3306V47.5559C228.901 48.1732 228.656 48.7653 228.219 49.2019C227.782 49.6384 227.19 49.8836 226.572 49.8836Z" fill="white"/>
<path d="M235.354 48.9525C234.729 48.9669 234.104 48.9123 233.491 48.7895C233.079 48.7122 232.701 48.5126 232.405 48.2169C232.13 47.9061 231.949 47.5234 231.883 47.1135C231.78 46.5219 231.733 45.9217 231.744 45.3212V32.4487C231.733 31.8482 231.78 31.248 231.883 30.6564C231.95 30.2455 232.131 29.8615 232.405 29.5483C232.701 29.2536 233.08 29.0555 233.491 28.9804C234.105 28.8681 234.73 28.8182 235.354 28.8314H242.645C242.939 28.82 243.231 28.8841 243.493 29.0176C243.705 29.1292 243.888 29.2886 244.028 29.4832C244.164 29.6711 244.259 29.8851 244.308 30.1117C244.363 30.3326 244.391 30.5592 244.392 30.7867C244.392 31.022 244.363 31.2564 244.308 31.485C244.258 31.7129 244.16 31.9273 244.019 32.1135C243.872 32.3064 243.684 32.4652 243.469 32.5791C243.215 32.7113 242.931 32.7755 242.645 32.7653H236.985C236.817 32.7486 236.65 32.7988 236.519 32.905C236.407 33.0597 236.357 33.2507 236.379 33.4403V36.8389H241.271C241.566 36.8307 241.86 36.8863 242.132 37.0018C242.352 37.0991 242.547 37.2456 242.701 37.4301C242.85 37.6125 242.961 37.8231 243.027 38.0493C243.098 38.2833 243.134 38.5264 243.134 38.7709C243.133 39.0076 243.097 39.2429 243.027 39.4692C242.961 39.6954 242.85 39.906 242.701 40.0884C242.543 40.2753 242.344 40.4221 242.118 40.5167C241.851 40.6304 241.562 40.686 241.271 40.6796H236.379V44.404C236.357 44.5937 236.407 44.7847 236.519 44.9394C236.65 45.0456 236.817 45.0958 236.985 45.0791H243.973C244.267 45.0676 244.558 45.1318 244.82 45.2653C245.033 45.3769 245.216 45.5363 245.356 45.7309C245.492 45.9187 245.587 46.1327 245.636 46.3593C245.69 46.5803 245.718 46.8069 245.72 47.0344C245.72 47.2651 245.692 47.495 245.636 47.7187C245.585 47.9435 245.486 48.1546 245.347 48.3379C245.203 48.5341 245.014 48.6936 244.797 48.8035C244.541 48.928 244.258 48.9887 243.973 48.9804L235.354 48.9525ZM247.583 40.6424H245.72C245.415 40.6527 245.112 40.5921 244.834 40.4655C244.612 40.359 244.42 40.199 244.275 39.9999C244.133 39.8044 244.03 39.583 243.973 39.3482C243.912 39.1171 243.881 38.8794 243.879 38.6405C243.881 38.4002 243.912 38.161 243.973 37.9282C244.03 37.6977 244.133 37.4809 244.275 37.2904C244.426 37.0964 244.616 36.9374 244.834 36.8249C245.11 36.6911 245.414 36.6272 245.72 36.6387H247.583V30.2839C247.561 29.9675 247.613 29.6503 247.734 29.3571C247.855 29.064 248.043 28.8028 248.282 28.594C248.734 28.221 249.303 28.0199 249.889 28.026C250.183 28.0267 250.474 28.077 250.751 28.175C251.023 28.2737 251.276 28.4203 251.496 28.608C251.719 28.8001 251.897 29.0384 252.018 29.3063C252.158 29.6128 252.227 29.9471 252.218 30.2839V47.5651C252.218 48.1825 251.973 48.7745 251.536 49.2111C251.099 49.6476 250.507 49.8929 249.889 49.8929C249.271 49.8929 248.679 49.6476 248.242 49.2111C247.805 48.7745 247.56 48.1825 247.56 47.5651L247.583 40.6424Z" fill="white"/>
<path d="M254.92 47.6488C254.902 47.332 254.95 47.015 255.063 46.7183C255.175 46.4216 255.349 46.1518 255.572 45.9262C255.822 45.7058 256.114 45.5368 256.429 45.429C256.745 45.3211 257.079 45.2765 257.412 45.2977C257.75 45.2738 258.088 45.318 258.409 45.4276C258.729 45.5371 259.023 45.7099 259.275 45.9355C259.495 46.1621 259.665 46.4308 259.777 46.7253C259.89 47.0198 259.941 47.334 259.928 47.6488C259.943 47.9631 259.892 48.2771 259.78 48.5711C259.668 48.8651 259.496 49.1327 259.275 49.3573C259.024 49.5847 258.73 49.7589 258.41 49.8693C258.089 49.9797 257.75 50.0241 257.412 49.9998C257.079 50.021 256.745 49.9764 256.429 49.8686C256.114 49.7607 255.822 49.5917 255.572 49.3713C255.349 49.1458 255.175 48.8759 255.063 48.5792C254.95 48.2825 254.902 47.9655 254.92 47.6488ZM257.412 43.7382C256.782 43.7382 256.178 43.488 255.732 43.0427C255.286 42.5975 255.036 41.9936 255.036 41.3639V30.4933C255.03 30.1526 255.096 29.8144 255.232 29.5017C255.357 29.2282 255.536 28.9828 255.758 28.7801C255.978 28.5785 256.234 28.4205 256.513 28.3145C256.802 28.216 257.106 28.1657 257.412 28.1655C257.709 28.1666 258.003 28.2169 258.283 28.3145C258.566 28.4204 258.827 28.5783 259.052 28.7801C259.281 28.9786 259.464 29.2249 259.588 29.5017C259.726 29.8135 259.795 30.1521 259.788 30.4933V41.3639C259.788 41.9936 259.538 42.5975 259.092 43.0427C258.646 43.488 258.042 43.7382 257.412 43.7382Z" fill="white"/>
</g>
<defs>
<clipPath id="clip0_3911_86760">
<rect width="299" height="50" fill="white"/>
</clipPath>
</defs>
</svg>
