<svg width="250" height="190" viewBox="0 0 250 190" fill="none" xmlns="http://www.w3.org/2000/svg">
<g clip-path="url(#clip0_3848_83649)">
<path d="M170.357 99.7369C171.194 106.823 172.488 112.735 175.228 116.335C172.488 112.735 171.194 106.823 170.357 99.7369C176.75 104.019 191.323 112.849 201.483 111.409C214.8 109.514 203.842 144.606 170.281 155.747C151.028 162.152 99.1268 168.632 69.828 148.168C30.7502 120.883 46.9977 114.062 57.5757 104.55C65.2239 97.6906 72.111 27.0147 124.621 28C165.335 28.7579 167.123 72.3003 170.357 99.7369Z" fill="#F99F87"/>
<path d="M157.991 46.7206C157.611 47.1375 157.23 47.6301 156.926 48.2744C156.735 48.1986 156.545 48.1607 156.355 48.1228C156.811 47.3649 157.23 46.6448 157.649 46.0764C156.469 44.1437 155.137 42.2868 153.653 40.5815C152.854 40.4678 151.599 40.4678 150.267 41.0362C150.229 39.3309 149.62 37.6635 149.62 37.6635C149.62 37.6635 146.804 38.0804 145.358 40.9983C144.331 40.6573 143.075 40.8089 142.086 41.0741C142.01 40.8089 141.934 40.6194 141.934 40.6194C141.934 40.6194 139.613 40.9605 138.091 43.2342C137.824 42.4763 137.292 41.6047 136.378 40.8468C137.215 39.3688 137.292 37.2845 137.292 37.2845C137.292 37.2845 135.465 36.7919 133.525 37.9288C133.296 36.4508 132.573 35.0866 132.573 35.0866C132.573 35.0866 130.024 35.8066 129.187 38.7246C128.388 38.7625 127.551 39.0657 126.866 39.3688C128.083 38.2319 128.844 36.7919 128.844 36.7919C128.844 36.7919 126.637 34.8971 123.403 35.8066C122.566 34.0255 120.702 32.5854 120.702 32.5854C120.702 32.5854 119.027 33.9876 118.799 36.5266C117.277 35.7308 115.489 35.5034 115.489 35.5034C115.489 35.5034 114.804 37.3603 115.717 39.5204C115.375 39.7099 114.994 39.9752 114.575 40.392C114.537 40.2783 114.537 40.1646 114.499 40.0509C114.157 38.0046 110.085 35.9961 110.085 35.9961C110.085 35.9961 109.895 36.1098 110.085 39.7099C109.401 39.7099 108.602 39.8615 107.802 40.2404C107.764 38.5351 107.156 36.8677 107.156 36.8677C107.156 36.8677 104.34 37.2845 102.894 40.2025C102.437 40.0509 101.981 40.0131 101.486 40.0131C101.79 39.4825 102.133 38.9899 102.399 38.573C103.313 37.1709 102.856 34.4423 102.361 32.6612C100.877 33.3813 99.4694 34.1771 98.0996 35.0108C97.6049 35.7308 97.2625 36.4887 97.0342 37.2845C96.4634 37.1709 95.6263 37.133 94.6751 37.3224C89.9188 40.8468 85.8854 45.1669 82.3848 49.9418C83.0316 49.9418 83.8307 49.9039 84.82 49.8281C86.6464 49.7144 88.3206 48.8807 89.6905 47.8575C90.3373 48.8428 91.0222 49.487 91.0222 49.487C91.0222 49.487 91.2125 49.3733 91.4408 49.146C91.0983 50.0555 90.9461 50.8513 90.9461 50.8513C90.9461 50.8513 92.6964 51.5713 94.7512 50.6618C94.7892 52.1398 95.3219 53.6177 95.3219 53.6177C95.3219 53.6177 97.9474 53.2387 99.165 50.4344C100.915 50.5481 102.932 49.5628 102.932 49.5628C102.932 49.5628 102.818 49.1081 102.475 48.4638C102.666 48.4638 102.894 48.4259 103.084 48.3881C103.693 50.245 105.367 51.9503 105.367 51.9503C105.367 51.9503 107.194 50.7755 107.764 48.2744C109.172 49.2597 110.885 49.7144 110.885 49.7144C110.885 49.7144 110.923 49.6386 110.999 49.4491C111.76 49.866 113.244 50.4344 115.184 49.866C116.021 51.6092 118.685 52.7461 118.685 52.7461C118.685 52.7461 119.788 51.1924 119.408 48.9944C119.826 49.0702 120.245 49.146 120.625 49.146C120.816 51.685 122.794 54.9062 122.794 54.9062C122.794 54.9062 123.023 54.9441 124.925 51.685C125.724 51.685 126.904 51.4955 128.083 50.8134C128.312 52.5187 129.187 54.0724 129.187 54.0724C129.187 54.0724 131.698 53.3524 132.84 50.6239C133.372 51.1166 135.199 52.5187 137.9 52.1019C138.509 53.9588 140.183 55.6641 140.183 55.6641C140.183 55.6641 141.896 54.5651 142.504 52.2913C143.075 53.0493 143.608 53.8072 143.988 54.4135C144.826 55.6641 147.032 56.3083 148.821 56.6115C148.669 57.1799 148.593 57.5968 148.593 57.5968C148.593 57.5968 150.343 58.3168 152.398 57.4073C152.436 58.8852 152.968 60.3632 152.968 60.3632C152.968 60.3632 155.594 59.9842 156.811 57.1799C157.04 57.1799 157.268 57.1799 157.496 57.1799C158.219 58.7336 159.475 59.9842 159.475 59.9842C159.475 59.9842 161.301 58.8094 161.872 56.3083C162.177 56.5357 162.481 56.6873 162.823 56.8767C161.454 53.3903 159.894 49.9039 157.991 46.7206ZM90.7178 41.7184C90.7178 41.6426 90.7559 41.5668 90.7559 41.491C90.7939 41.5289 90.832 41.6047 90.87 41.6426C90.7939 41.6805 90.7559 41.7184 90.7178 41.7184ZM105.063 44.2195C105.063 44.1437 105.101 44.0679 105.101 43.9921C105.139 44.03 105.177 44.1058 105.215 44.1437C105.177 44.1816 105.139 44.2195 105.063 44.2195ZM110.961 43.4237C111.037 43.2721 111.151 43.1205 111.227 42.9689C111.303 43.0826 111.341 43.1584 111.417 43.2721C111.265 43.31 111.113 43.3858 110.961 43.4237ZM111.417 47.8575C111.455 47.4028 111.455 46.8722 111.341 46.3038C111.608 46.4933 111.95 46.6827 112.292 46.8343C111.95 47.1375 111.646 47.5164 111.417 47.8575ZM116.326 46.3038C116.326 46.228 116.326 46.1901 116.326 46.1522C116.364 46.1901 116.44 46.1901 116.478 46.228C116.44 46.228 116.364 46.2659 116.326 46.3038ZM121.995 40.5436C121.957 40.5057 121.881 40.4678 121.843 40.4299C121.881 40.392 121.957 40.3541 121.995 40.3541C121.995 40.392 121.995 40.4678 121.995 40.5436ZM130.252 46.8722C130.214 46.8343 130.138 46.7964 130.1 46.7585C130.138 46.7206 130.214 46.6827 130.252 46.6827C130.252 46.7206 130.252 46.7964 130.252 46.8722ZM139.879 47.9712C139.841 47.9712 139.841 48.0091 139.803 48.0091C139.803 47.9333 139.841 47.8575 139.841 47.7817C139.879 47.8196 139.879 47.8575 139.917 47.8954L139.879 47.9712ZM147.527 45.0532C147.527 44.9774 147.565 44.9016 147.565 44.8258C147.603 44.8637 147.641 44.9395 147.679 44.9774C147.641 44.9774 147.565 45.0153 147.527 45.0532ZM150 49.9418C150.077 49.7144 150.153 49.4491 150.191 49.2218C150.571 49.487 150.99 49.7144 151.37 49.9039C151.37 50.0176 151.37 50.1692 151.37 50.3207C150.952 50.0934 150.457 49.9797 150 49.9418Z" fill="#E8816D"/>
<path d="M32.3867 54.6784C32.3867 54.6784 29.4187 54.2615 29.2285 56.0805C29.0382 57.8995 28.848 76.4686 29.2285 77.8707C29.609 79.2729 32.3867 78.5149 32.3867 78.5149V54.6784Z" fill="#757575"/>
<path d="M32.3867 54.6784C32.3867 54.6784 29.4187 54.2615 29.2285 56.0805C29.0382 57.8995 28.848 76.4686 29.2285 77.8707C29.609 79.2729 32.3867 78.5149 32.3867 78.5149V54.6784Z" fill="#757575"/>
<path d="M29.609 77.9086C29.2285 76.5064 29.4187 57.8995 29.609 56.1184C29.7612 54.7163 31.5876 54.6405 32.3867 54.6784C32.3867 54.6784 29.4187 54.2615 29.2285 56.0805C29.0382 57.8995 28.848 76.4685 29.2285 77.8707C29.3807 78.477 30.0275 78.7044 30.6744 78.7044C30.1797 78.6286 29.7612 78.4391 29.609 77.9086Z" fill="#898989"/>
<path d="M32.3866 73.5129V61.3862L32.1583 61.4241C31.169 61.4999 30.2939 61.3104 29.7611 62.2578V72.9066C29.7231 73.2477 30.9027 73.5508 32.3486 73.5508L32.3866 73.5129Z" fill="#595959"/>
<path d="M43.2692 82.7971L60.3158 108.301C61.9139 108.453 63.6642 108.832 65.1862 109.514L41.7852 75.6348L34.5176 80.5991L53.9233 108.68L54.9126 108.453L39.1597 84.9951L43.2692 82.7971Z" fill="#9B9B9B"/>
<path d="M56.054 108.187C56.2443 108.187 58.0707 108.036 60.3157 108.263L43.2691 82.7593L39.1216 84.9572L54.8745 108.453L55.9018 108.225C55.9399 108.187 55.9779 108.187 56.054 108.187Z" fill="#BCBCBC"/>
<path opacity="0.5" d="M42.8885 77.2264L40.3391 76.6201L38.3224 78.0223C38.018 79.6518 37.5614 81.9255 37.0668 83.1003C36.9907 83.3277 36.9146 83.6688 36.9146 84.0477L43.307 93.2564C44.3724 93.1806 45.4759 92.9912 46.4652 92.5743C48.8624 91.589 50.5747 90.1869 51.3737 89.4289L42.8885 77.2264Z" fill="black"/>
<path d="M72.6443 122.209C72.6443 121.754 72.5682 121.3 72.454 120.845C72.3779 120.239 72.1877 119.632 71.8072 119.102L68.8773 114.857C68.9153 115.691 68.8012 116.487 68.6109 117.283C68.4587 117.245 68.2685 117.207 68.1163 117.207L67.6597 119.291L71.655 125.279C72.2638 124.407 72.6443 123.346 72.6443 122.209Z" fill="#9B9B9B"/>
<path d="M71.6166 125.241L67.6213 119.253L67.431 120.011C67.3169 120.201 67.2027 120.39 67.0886 120.618C66.8222 121.755 66.5939 123.119 66.4417 124.483L66.2515 125.393L67.5071 127.249C67.5452 127.249 67.5452 127.249 67.5832 127.249C69.2575 127.249 70.7034 126.454 71.6166 125.241Z" fill="#BCBCBC"/>
<path d="M65.9092 126.984C66.1755 127.06 66.4419 127.136 66.7082 127.174C66.9746 127.212 67.2409 127.249 67.5073 127.249L66.2516 125.393L65.9092 126.984Z" fill="#9B9B9B"/>
<path opacity="0.5" d="M69.2195 121.603C69.9425 120.618 70.2088 118.761 70.2469 116.828L68.8771 114.857C68.9151 115.691 68.801 116.487 68.6107 117.283C68.4585 117.245 68.2682 117.207 68.116 117.207L67.6594 119.291L67.4692 120.049C67.355 120.239 67.2409 120.428 67.1267 120.656C66.8604 121.792 66.6321 123.157 66.4799 124.521L66.3657 124.976C67.317 123.915 68.3824 122.702 69.2195 121.603Z" fill="black"/>
<path d="M33.3377 41.4529L51.2975 34.5937C52.8957 33.9874 54.6079 35.1622 54.6079 36.8675V86.1322C54.6079 87.4585 53.5045 88.5575 52.1727 88.5575L33.528 88.6333C32.1582 88.6333 31.0547 87.5343 31.0547 86.1701L31.7396 43.6888C31.7776 42.6656 32.3865 41.794 33.3377 41.4529Z" fill="#E8E8E8"/>
<path d="M53.6681 34.9731C53.9874 35.4279 54.1906 36.0721 54.1906 36.83V86.0947C54.1906 86.8906 53.9584 87.6106 53.5811 88.0653L55.8742 86.739C56.5127 86.36 56.9481 85.3747 56.9481 84.2378V39.9754C56.9481 38.9143 56.5998 37.929 56.0483 37.3606L53.6681 34.9731Z" fill="#ADADAD"/>
<path d="M56.083 37.3606L53.6948 34.9731C54.0113 35.4279 54.2127 36.0721 54.2127 36.83V37.7017C55.0184 38.1564 56.7448 39.2175 56.9462 39.9375C56.975 38.8764 56.6297 37.8911 56.083 37.3606Z" fill="#D1D1D1"/>
<path d="M42.9648 52.5941C42.6604 52.6698 42.356 52.7835 42.0896 53.0109C41.8233 52.8972 41.5189 52.8593 41.2145 52.9351C39.8066 53.2004 38.7031 54.8678 38.7412 56.6868C38.7792 58.5058 39.9588 60.1732 41.3286 60.4006C41.633 60.4385 41.9374 60.4006 42.2038 60.3248C42.4701 60.5143 42.7745 60.6659 43.0789 60.7038C44.4488 60.9312 45.5903 59.1122 45.5903 56.6489C45.5522 54.1478 44.4107 52.3288 42.9648 52.5941Z" fill="#231815"/>
<path d="M42.3561 55.8149C42.3561 56.5728 41.9375 57.217 41.4048 57.217C40.8721 57.217 40.4155 56.6107 40.4155 55.9286C40.4155 55.2086 40.8341 54.6022 41.3668 54.5264C41.8995 54.4506 42.318 55.057 42.3561 55.8149Z" fill="white"/>
<path d="M43.8781 55.7393C43.8781 56.573 43.4595 57.2172 42.9268 57.2172C42.3941 57.2172 41.9375 56.573 41.9375 55.8151C41.9375 55.0572 42.3561 54.375 42.8888 54.3371C43.4215 54.2992 43.8781 54.9056 43.8781 55.7393Z" fill="white"/>
<path d="M43.2695 55.7773C43.2695 56.232 43.0412 56.611 42.7368 56.611C42.4324 56.611 42.166 56.2699 42.166 55.8152C42.166 55.3604 42.3943 54.9814 42.6987 54.9814C43.0031 54.9814 43.2695 55.3225 43.2695 55.7773Z" fill="#231815"/>
<path d="M42.1279 55.8531C42.1279 56.3078 41.8996 56.6489 41.5952 56.6489C41.2908 56.6489 41.0244 56.3078 41.0244 55.891C41.0244 55.4741 41.2527 55.1331 41.5571 55.0952C41.8615 55.0573 42.1279 55.3983 42.1279 55.8531Z" fill="#231815"/>
<path opacity="0.3" d="M51.2975 34.5937L33.3377 41.4529C33.0714 41.5666 32.843 41.7181 32.6147 41.8697L54.1792 79.967V36.7028C54.1792 34.9975 52.8957 33.9874 51.2975 34.5937Z" fill="white"/>
<path d="M32.8053 61.6516L51.7544 58.0894C53.0862 57.9757 56.7009 58.4683 58.261 58.8852C58.6796 58.9989 58.984 59.3778 58.984 59.8326V69.3065C58.984 70.0645 58.4513 70.6708 57.6903 70.7845C56.1302 71.0119 53.6189 71.1256 52.6676 71.1256L32.9575 73.0582C31.5115 73.0582 30.332 72.793 30.37 72.4519V62.4474C30.9408 61.5758 31.816 61.7653 32.8053 61.6516Z" fill="#9B9B9B"/>
<path d="M58.261 58.923C57.1195 58.6198 54.9506 58.2787 53.3145 58.165L53.8852 71.1255C55.0648 71.0876 56.6248 70.9739 57.6903 70.8223C58.4132 70.7086 58.984 70.1023 58.984 69.3443V59.8325C58.984 59.4156 58.7176 59.0366 58.261 58.923Z" fill="#595959"/>
<path d="M51.8306 58.1272C51.9828 58.2408 52.4013 58.3924 52.5916 59.4914C52.7818 60.5146 52.9721 69.6096 52.8199 70.1023C52.5916 71.0118 52.0589 71.2012 52.0589 71.2012L52.6677 71.1255C53.2004 71.1255 54.1897 71.0876 55.2551 71.0118C55.2551 71.0497 54.6082 70.6328 54.4941 70.0644C53.9994 67.3738 54.0755 60.742 54.1897 59.5672C54.3038 58.4303 54.8366 58.3166 54.7985 58.3166C53.6189 58.165 52.4774 58.0514 51.8306 58.1272Z" fill="#757575"/>
<path d="M32.1962 72.2623C31.8538 72.2623 31.5874 71.9971 31.5874 71.656V62.8641C31.5874 62.5231 31.8538 62.2578 32.1962 62.2578C32.5387 62.2578 32.805 62.5231 32.805 62.8641V71.656C32.805 71.9971 32.5387 72.2623 32.1962 72.2623Z" fill="#848484"/>
<path opacity="0.7" d="M52.7314 58.4239C52.7314 58.4239 53.1034 59.2017 53.2175 60.0733C53.3697 61.0586 53.4458 62.8776 53.4458 62.8776C53.4458 62.8776 53.5121 60.8248 53.6451 60.0733C53.9495 58.8228 54.1627 58.5274 54.1627 58.5274C54.1627 58.5274 53.9683 58.4721 53.4337 58.4244C52.9309 58.3795 52.7314 58.4239 52.7314 58.4239Z" fill="white"/>
<path d="M179.794 123.877C185.501 129.182 196.917 125.771 200.341 114.403C200.646 113.379 200.646 112.394 200.417 111.485C190.334 112.205 176.522 103.83 170.357 99.7368C170.357 99.7368 172.526 117.131 179.794 123.877Z" fill="#EF947F"/>
<path d="M67.1266 120.618C68.6106 118.117 69.4477 115.464 68.4203 112.698C66.4417 107.43 56.4345 108.15 56.0159 108.188C55.7115 108.226 55.4832 108.453 55.5212 108.756C55.5593 109.06 55.7876 109.287 56.092 109.249C56.2061 109.249 65.7188 108.567 67.393 113.077C68.8389 116.942 65.8329 120.845 63.2074 124.294C61.4952 126.53 60.0112 128.5 59.7448 130.281C59.0219 135.776 61.6093 138.239 61.7235 138.315C61.7996 138.353 61.8376 138.391 61.9137 138.429C62.4464 138.884 63.0552 139.073 63.7021 139.073C67.5071 139.073 68.6486 133.01 67.1266 130.736C65.7188 128.5 66.4417 123.687 67.1266 120.618Z" fill="#E5806E"/>
<path d="M57.6522 111.371C58.261 109.59 64.1208 110.992 64.8818 112.887C65.6428 114.782 64.5013 115.919 63.3598 116.298C62.2183 116.676 56.8912 113.645 57.6522 111.371Z" fill="#F7C6BC"/>
<path d="M101.068 78.0224C107.876 78.0224 113.396 72.5252 113.396 65.7441C113.396 58.963 107.876 53.4658 101.068 53.4658C94.2588 53.4658 88.7393 58.963 88.7393 65.7441C88.7393 72.5252 94.2588 78.0224 101.068 78.0224Z" fill="white"/>
<path d="M99.964 70.2541C103.326 70.2541 106.052 67.5395 106.052 64.1908C106.052 60.8421 103.326 58.1274 99.964 58.1274C96.6017 58.1274 93.876 60.8421 93.876 64.1908C93.876 67.5395 96.6017 70.2541 99.964 70.2541Z" fill="#040000"/>
<path d="M124.24 78.9702C130.965 78.9702 136.416 73.5409 136.416 66.8435C136.416 60.1461 130.965 54.7168 124.24 54.7168C117.515 54.7168 112.064 60.1461 112.064 66.8435C112.064 73.5409 117.515 78.9702 124.24 78.9702Z" fill="white"/>
<path d="M120.131 71.2395C123.493 71.2395 126.219 68.5248 126.219 65.1761C126.219 61.8274 123.493 59.1128 120.131 59.1128C116.769 59.1128 114.043 61.8274 114.043 65.1761C114.043 68.5248 116.769 71.2395 120.131 71.2395Z" fill="#040000"/>
<path d="M103.236 63.6602C103.531 63.6602 103.769 63.4227 103.769 63.1297C103.769 62.8367 103.531 62.5991 103.236 62.5991C102.942 62.5991 102.704 62.8367 102.704 63.1297C102.704 63.4227 102.942 63.6602 103.236 63.6602Z" fill="white"/>
<path d="M117.315 64.7969C117.609 64.7969 117.848 64.5594 117.848 64.2664C117.848 63.9734 117.609 63.7358 117.315 63.7358C117.021 63.7358 116.782 63.9734 116.782 64.2664C116.782 64.5594 117.021 64.7969 117.315 64.7969Z" fill="white"/>
<path d="M111.455 79.6145C111.455 79.6145 113.32 77.4544 117.163 77.6818C120.968 77.9092 122.109 81.1682 121.539 83.0251C120.968 84.882 118.571 89.4295 111.189 89.4295C104.15 89.4295 102.437 86.0189 101.79 83.5557C101.144 81.1682 102.399 77.6818 105.862 77.6818C109.324 77.6818 111.455 79.6145 111.455 79.6145Z" fill="#040000"/>
<path d="M104.758 87.8754C106.166 88.7849 108.183 89.4291 111.227 89.3912C115.184 89.3912 117.695 88.0649 119.294 86.5869C117.391 84.9953 115.222 83.6689 113.396 83.6689C111.075 83.7068 107.612 85.829 104.758 87.8754Z" fill="#CC4A44"/>
<path d="M144.978 41.4152C147.299 41.7563 150.305 44.6364 152.322 48.0849C154.338 51.5334 154.719 55.4367 153.501 55.702C152.283 55.9673 150.571 51.9503 148.288 49.4113C146.043 46.8344 143.95 44.2953 143.684 42.7416C143.418 41.1879 143.722 41.2258 144.978 41.4152Z" fill="#FFAF99"/>
<path opacity="0.5" d="M108.763 74.4019C109.063 68.7202 101.362 63.6987 91.5623 63.186C81.763 62.6733 73.5762 66.8637 73.2765 72.5454C72.9768 78.2271 80.6778 83.2486 90.4771 83.7613C100.276 84.2739 108.463 80.0836 108.763 74.4019Z" fill="black"/>
<path opacity="0.5" d="M148.338 75.9874C148.637 70.3056 140.936 65.2841 131.137 64.7715C121.338 64.2588 113.151 68.4491 112.851 74.1308C112.552 79.8125 120.252 84.8341 130.052 85.3467C139.851 85.8594 148.038 81.6691 148.338 75.9874Z" fill="black"/>
<path opacity="0.5" d="M90.4676 83.7864C95.1695 84.0328 99.4754 83.1949 102.742 81.6175C88.7849 80.4838 82.0538 72.5478 79.0842 65.4004C75.6692 67.0763 73.442 69.5902 73.2935 72.4985C72.9965 78.2164 80.668 83.2441 90.4676 83.7864Z" fill="white"/>
<path opacity="0.5" d="M130.013 85.3632C135.407 85.6589 140.307 84.5252 143.673 82.4549C128.825 82.1099 121.5 74.5189 118.085 67.2729C114.967 68.9489 112.987 71.3642 112.838 74.1246C112.541 79.7932 120.213 84.821 130.013 85.3632Z" fill="white"/>
<path d="M143.623 68.2092C140.357 66.0404 135.902 64.7588 131.102 64.5123C126.301 64.2659 121.747 65.1038 118.283 66.8783C115.511 68.3078 113.68 70.1316 112.938 72.2512C112.542 71.7583 111.898 71.3146 110.958 71.3146C109.919 71.3146 109.176 71.7583 108.681 72.2019C108.087 70.1809 106.504 68.2585 104.029 66.6812C100.762 64.5123 96.3079 63.2307 91.5071 62.9843C81.6085 62.442 73.2936 66.7798 72.9472 72.5962C72.6502 78.4127 80.4701 83.5884 90.3687 84.0813C90.9132 84.1306 91.4576 84.1306 92.002 84.1306C96.1594 84.1306 100.119 83.2926 103.187 81.7153C106.701 79.8915 108.731 77.3283 108.879 74.5186C108.879 74.1243 108.879 73.7299 108.83 73.3356C109.077 72.9906 109.671 72.3005 110.859 72.3005C112.195 72.3005 112.492 73.4835 112.542 73.6807C112.492 73.8778 112.492 74.075 112.492 74.2229C112.344 77.0818 114.076 79.8422 117.392 82.011C120.659 84.1799 125.113 85.4615 129.914 85.7079C130.458 85.7572 131.003 85.7572 131.547 85.7572C135.704 85.7572 139.664 84.9193 142.732 83.3419C146.247 81.5181 148.276 78.9549 148.424 76.1453C148.721 73.1384 146.939 70.3781 143.623 68.2092ZM103.039 81.1731C99.624 82.9476 95.1696 83.7363 90.4677 83.4898C80.8166 82.9969 73.1946 78.0677 73.4916 72.4976C73.7885 67.2727 80.965 63.3293 89.9233 63.3293C90.4677 63.3293 90.9627 63.3293 91.5071 63.3786C96.2089 63.6251 100.564 64.9067 103.781 67.0262C106.256 68.6529 107.79 70.5753 108.285 72.5962C108.285 72.5962 108.285 72.5962 108.285 72.6455C108.186 72.6948 108.137 72.7934 108.038 72.9906V73.0399C107.939 73.3356 107.889 73.73 107.889 74.2229C107.889 74.9623 108.038 75.6031 108.236 75.8002C107.642 77.8705 105.811 79.7929 103.039 81.1731ZM148.078 75.9481C147.929 78.6099 145.999 81.0252 142.633 82.7504C139.218 84.5249 134.764 85.3136 130.062 85.0671C125.36 84.8207 121.005 83.5391 117.788 81.4195C115.313 79.7929 113.779 77.8705 113.235 75.8002C113.284 75.8495 113.334 75.8988 113.383 75.8988C113.631 75.8988 113.878 75.1594 113.878 74.2722C113.878 73.3849 113.68 72.6455 113.383 72.6455C113.383 72.6455 113.334 72.6455 113.334 72.6948C113.977 70.5753 115.759 68.7022 118.53 67.2727C121.549 65.7446 125.41 64.9067 129.518 64.9067C130.062 64.9067 130.607 64.9067 131.151 64.9559C135.853 65.2024 140.208 66.484 143.425 68.6036C146.543 70.6738 148.226 73.2863 148.078 75.9481Z" fill="black"/>
<path opacity="0.3" d="M139.862 70.1317C139.664 69.9838 139.367 69.9345 139.169 70.0331C138.921 70.181 138.773 70.526 138.872 70.8218C138.426 71.0189 138.179 71.4626 138.228 71.8076C138.327 72.3005 138.971 72.7441 139.664 72.4977C139.763 72.9906 140.159 73.3357 140.604 73.4342C141.099 73.5328 141.643 73.3357 141.94 72.892C142.287 73.1878 142.732 73.1878 143.079 72.9906C143.425 72.7934 143.574 72.3498 143.475 71.9555C143.722 71.709 143.821 71.2654 143.673 70.9696C143.524 70.6246 143.128 70.4274 142.782 70.4767C142.633 70.3288 142.039 69.7866 141.148 69.7866C140.505 69.7866 140.06 70.0331 139.862 70.1317Z" fill="#55DBFF"/>
<path opacity="0.3" d="M136.546 71.561C136.645 71.6103 136.793 71.6596 136.892 71.561C137.04 71.4624 137.09 71.3145 136.991 71.1667C137.189 71.0681 137.288 70.8216 137.288 70.6737C137.238 70.4273 136.892 70.2301 136.546 70.378C136.496 70.1315 136.298 69.9837 136.051 69.9344C135.803 69.8851 135.556 70.0329 135.407 70.2301C135.259 70.1315 135.011 70.1315 134.863 70.2301C134.714 70.3287 134.615 70.5752 134.714 70.723C134.615 70.8709 134.566 71.0681 134.665 71.216C134.764 71.3638 134.962 71.4624 135.11 71.4131C135.16 71.4624 135.506 71.7089 135.952 71.7089C136.199 71.7582 136.447 71.6596 136.546 71.561Z" fill="#55DBFF"/>
<path d="M133.182 42.4008C129.681 44.5988 126.979 42.4387 126.979 42.4387C126.979 42.4387 128.73 38.9523 130.975 39.0281C133.22 39.1418 134.628 41.4913 133.182 42.4008Z" fill="#FF7122"/>
<path d="M131.432 40.5818C127.284 40.7334 126.066 37.5123 126.066 37.5123C126.066 37.5123 129.339 35.3522 131.241 36.5649C133.106 37.7775 133.144 40.506 131.432 40.5818Z" fill="#FF7122"/>
<path d="M135.084 37.3609C138.851 39.0283 138.547 42.4768 138.547 42.4768C138.547 42.4768 134.666 42.9695 133.486 41.0747C132.307 39.1799 133.524 36.6788 135.084 37.3609Z" fill="#FF7122"/>
<path d="M134.514 39.8239C136.911 43.1587 134.932 45.963 134.932 45.963C134.932 45.963 131.317 44.4472 131.279 42.2113C131.241 39.9754 133.524 38.4217 134.514 39.8239Z" fill="#FF7122"/>
<path d="M129.339 37.7018C129.567 33.5711 132.916 32.6616 132.916 32.6616C132.916 32.6616 134.742 36.1102 133.372 37.8534C132.002 39.5966 129.225 39.4071 129.339 37.7018Z" fill="#FF7122"/>
<path d="M131.85 37.3607C134.133 33.9122 137.481 34.7838 137.481 34.7838C137.481 34.7838 137.329 38.6871 135.236 39.5208C133.144 40.3545 130.899 38.7629 131.85 37.3607Z" fill="#FF7122"/>
<path d="M98.0615 41.908C98.0615 41.908 96.7678 35.5794 99.7738 32.0551C102.78 28.5308 103.008 28.6066 103.008 28.6066C103.008 28.6066 104.987 33.8741 103.579 36.0342C102.171 38.1942 99.8499 42.3249 99.8499 42.3249L98.0615 41.908Z" fill="#6DB547"/>
<path d="M151.789 49.1463C151.789 49.1463 150.495 42.8177 153.501 39.2934C156.469 35.7691 156.735 35.8449 156.735 35.8449C156.735 35.8449 158.714 41.1124 157.306 43.2725C155.898 45.4325 153.539 49.6011 153.539 49.6011L151.789 49.1463Z" fill="#6DB547"/>
<path d="M115.374 43.7272C115.374 43.7272 111.265 40.8092 111.075 37.2091C110.885 33.609 111.075 33.5332 111.075 33.5332C111.075 33.5332 115.032 35.4659 115.374 37.4744C115.717 39.4829 116.63 43.0451 116.63 43.0451L115.374 43.7272Z" fill="#61C632"/>
<path d="M94.8652 41.4912C94.8652 41.4912 91.0982 46.7588 86.4941 46.9861C81.89 47.2514 81.7759 46.9861 81.7759 46.9861C81.7759 46.9861 84.2872 41.946 86.8366 41.5291C89.386 41.1123 93.9901 39.9375 93.9901 39.9375L94.8652 41.4912Z" fill="#61C632"/>
<path d="M140.716 44.2197C140.716 44.2197 147.07 45.5461 149.125 49.6767C151.218 53.7695 151.027 53.9969 151.027 53.9969C151.027 53.9969 145.396 53.7316 143.988 51.5715C142.58 49.4115 139.65 45.6598 139.65 45.6598L140.716 44.2197Z" fill="#61C632"/>
<path d="M125.8 38.0807C125.8 38.0807 128.198 44.0682 125.953 48.0852C123.708 52.1022 123.403 52.0643 123.403 52.0643C123.403 52.0643 120.511 47.2515 121.501 44.864C122.49 42.4766 124.012 38.0049 124.012 38.0049L125.8 38.0807Z" fill="#6DB547"/>
<path d="M89.8045 48.3123C89.7284 48.2365 89.6904 48.1608 89.6143 48.085C89.6904 48.1229 89.7665 48.1986 89.8045 48.3123Z" fill="#2D2D2D"/>
<path d="M89.8045 48.3123C89.7284 48.2365 89.6904 48.1608 89.6143 48.085C89.6904 48.1229 89.7665 48.1986 89.8045 48.3123Z" fill="#2D2D2D"/>
<path d="M89.9185 48.4263C89.9565 48.4642 90.0326 48.54 90.0707 48.5779C90.0326 48.54 89.9565 48.4642 89.9185 48.4263Z" fill="#2D2D2D"/>
<path d="M89.9185 48.4263C89.9565 48.4642 90.0326 48.54 90.0707 48.5779C90.0326 48.54 89.9565 48.4642 89.9185 48.4263Z" fill="#2D2D2D"/>
<path d="M92.3538 37.095C95.4739 33.5328 99.1268 34.9729 99.1268 34.9729C99.1268 34.9729 98.4038 39.3688 95.8925 40.0509C93.3812 40.733 91.0601 38.573 92.3538 37.095Z" fill="#FFAA39"/>
<path d="M92.202 42.6659C87.8262 44.5228 85.2007 41.6048 85.2007 41.6048C85.2007 41.6048 87.8262 37.9668 90.3375 38.4594C92.8488 38.99 94.0284 41.908 92.202 42.6659Z" fill="#FFB448"/>
<path d="M90.5657 40.2785C85.8474 39.6722 85.0483 35.8447 85.0483 35.8447C85.0483 35.8447 89.1578 34.0257 91.0603 35.731C93.0009 37.4363 92.5062 40.5438 90.5657 40.2785Z" fill="#FFAA39"/>
<path d="M96.3873 37.5879C99.6597 40.9985 97.8713 44.5228 97.8713 44.5228C97.8713 44.5228 93.5335 43.386 93.115 40.8469C92.6964 38.3079 95.0556 36.1857 96.3873 37.5879Z" fill="#FFB448"/>
<path d="M94.7514 39.9751C95.8549 44.5605 92.5064 46.6827 92.5064 46.6827C92.5064 46.6827 89.3482 43.4994 90.2614 41.112C91.1747 38.7246 94.2948 38.0803 94.7514 39.9751Z" fill="#FFAA39"/>
<path d="M89.4243 37.133C90.2994 32.4718 94.2186 31.9033 94.2186 31.9033C94.2186 31.9033 95.8167 36.0719 93.9903 37.8909C92.1639 39.7099 89.0818 39.0656 89.4243 37.133Z" fill="#FFB448"/>
<path d="M147.565 40.3162C150.685 36.754 154.338 38.1941 154.338 38.1941C154.338 38.1941 153.615 42.59 151.104 43.2721C148.63 43.9163 146.309 41.7942 147.565 40.3162Z" fill="#FFAA39"/>
<path d="M147.451 45.8871C143.075 47.744 140.45 44.826 140.45 44.826C140.45 44.826 143.075 41.188 145.587 41.6806C148.098 42.2112 149.239 45.1292 147.451 45.8871Z" fill="#FFB448"/>
<path d="M145.815 43.4997C141.096 42.8934 140.297 39.0659 140.297 39.0659C140.297 39.0659 144.407 37.2469 146.309 38.9522C148.212 40.6575 147.755 43.765 145.815 43.4997Z" fill="#FFAA39"/>
<path d="M151.636 40.8091C154.909 44.2197 153.12 47.744 153.12 47.744C153.12 47.744 148.783 46.6072 148.364 44.0681C147.945 41.5291 150.305 39.4069 151.636 40.8091Z" fill="#FFB448"/>
<path d="M150 43.1963C151.104 47.7817 147.755 49.9039 147.755 49.9039C147.755 49.9039 144.597 46.7206 145.51 44.3332C146.424 41.9457 149.544 41.3015 150 43.1963Z" fill="#FFAA39"/>
<path d="M144.673 40.3541C145.548 35.693 149.467 35.1245 149.467 35.1245C149.467 35.1245 151.065 39.2931 149.239 41.1121C147.413 42.969 144.292 42.2868 144.673 40.3541Z" fill="#FFB448"/>
<path d="M103.426 39.5587C104.302 34.8975 108.221 34.3291 108.221 34.3291C108.221 34.3291 109.819 38.4977 107.992 40.3167C106.166 42.1357 103.046 41.4914 103.426 39.5587Z" fill="#FFE94A"/>
<path d="M106.319 39.5208C109.439 35.9586 113.091 37.3986 113.091 37.3986C113.091 37.3986 112.369 41.7946 109.857 42.4767C107.384 43.1588 105.025 40.9988 106.319 39.5208Z" fill="#FFD44D"/>
<path d="M106.166 45.1293C101.791 46.9862 99.165 44.0682 99.165 44.0682C99.165 44.0682 101.791 40.4302 104.302 40.9228C106.813 41.4155 107.993 44.3335 106.166 45.1293Z" fill="#FFD44D"/>
<path d="M104.53 42.7422C99.8118 42.1358 99.0127 38.2705 99.0127 38.2705C99.0127 38.2705 103.122 36.4515 105.025 38.1568C106.965 39.8621 106.471 42.9696 104.53 42.7422Z" fill="#FFE94A"/>
<path d="M110.39 40.0137C113.662 43.4243 111.874 46.9486 111.874 46.9486C111.874 46.9486 107.536 45.8117 107.117 43.2727C106.661 40.7337 109.02 38.6115 110.39 40.0137Z" fill="#FFE94A"/>
<path d="M108.716 42.4009C109.819 46.9863 106.471 49.1085 106.471 49.1085C106.471 49.1085 103.313 45.9252 104.226 43.5378C105.139 41.1503 108.259 40.5061 108.716 42.4009Z" fill="#FFD44D"/>
<path d="M155.936 47.4411C156.812 42.7799 160.731 42.2114 160.731 42.2114C160.731 42.2114 162.329 46.38 160.503 48.199C158.676 50.018 155.594 49.3359 155.936 47.4411Z" fill="#FFE94A"/>
<path d="M158.828 47.4031C161.948 43.8409 165.601 45.281 165.601 45.281C165.601 45.281 164.878 49.6769 162.367 50.359C159.893 51.0033 157.572 48.8811 158.828 47.4031Z" fill="#FFD44D"/>
<path d="M158.714 52.974C154.338 54.8309 151.713 51.9129 151.713 51.9129C151.713 51.9129 154.338 48.2749 156.85 48.7676C159.361 49.2602 160.503 52.2161 158.714 52.974Z" fill="#FFD44D"/>
<path d="M157.078 50.5866C152.36 49.9803 151.561 46.1528 151.561 46.1528C151.561 46.1528 155.67 44.3338 157.573 46.0391C159.475 47.7444 159.018 50.814 157.078 50.5866Z" fill="#FFE94A"/>
<path d="M162.9 47.8579C166.172 51.2685 164.383 54.7929 164.383 54.7929C164.383 54.7929 160.046 53.656 159.627 51.117C159.209 48.5779 161.568 46.4558 162.9 47.8579Z" fill="#FFE94A"/>
<path d="M161.264 50.2451C162.367 54.8306 159.019 56.9527 159.019 56.9527C159.019 56.9527 155.86 53.7695 156.774 51.382C157.687 48.9946 160.807 48.3503 161.264 50.2451Z" fill="#FFD44D"/>
<path d="M97.681 40.9989C101.448 39.2557 103.807 41.7189 103.807 41.7189C103.807 41.7189 101.638 44.9779 99.4313 44.599C97.2244 44.2579 96.159 41.7189 97.681 40.9989Z" fill="#FF7122"/>
<path d="M99.2031 43.0451C103.313 43.4241 104.15 46.7589 104.15 46.7589C104.15 46.7589 100.649 48.4642 98.8987 47.0242C97.1484 45.622 97.4909 42.8935 99.2031 43.0451Z" fill="#FF7122"/>
<path d="M95.1698 45.7737C91.6311 43.6136 92.3921 40.2788 92.3921 40.2788C92.3921 40.2788 96.3113 40.2788 97.2245 42.3252C98.1377 44.3716 96.6157 46.6453 95.1698 45.7737Z" fill="#FF7122"/>
<path d="M96.0449 43.3862C94.0663 39.7482 96.4254 37.2471 96.4254 37.2471C96.4254 37.2471 99.8119 39.2177 99.5836 41.4535C99.3173 43.6515 96.844 44.902 96.0449 43.3862Z" fill="#FF7122"/>
<path d="M100.916 46.1527C100.155 50.2076 96.73 50.7002 96.73 50.7002C96.73 50.7002 95.3602 47.0622 96.9583 45.4706C98.5184 43.9168 101.22 44.4853 100.916 46.1527Z" fill="#FF7122"/>
<path d="M98.3661 46.1906C95.6645 49.298 92.4683 48.0096 92.4683 48.0096C92.4683 48.0096 93.1151 44.1821 95.284 43.6137C97.4529 43.0452 99.5076 44.9021 98.3661 46.1906Z" fill="#FF7122"/>
<path d="M153.653 47.6302C157.42 45.887 159.779 48.3502 159.779 48.3502C159.779 48.3502 157.61 51.6093 155.404 51.2303C153.197 50.8514 152.131 48.3502 153.653 47.6302Z" fill="#FF7122"/>
<path d="M155.175 49.6765C159.285 50.0554 160.122 53.3903 160.122 53.3903C160.122 53.3903 156.621 55.0956 154.871 53.6555C153.121 52.2534 153.463 49.5249 155.175 49.6765Z" fill="#FF7122"/>
<path d="M151.142 52.4051C147.603 50.245 148.364 46.9102 148.364 46.9102C148.364 46.9102 152.283 46.9102 153.197 48.9565C154.11 51.0029 152.588 53.3146 151.142 52.4051Z" fill="#FF7122"/>
<path d="M151.979 50.0556C150 46.4176 152.36 43.9165 152.36 43.9165C152.36 43.9165 155.746 45.8871 155.518 48.123C155.289 50.3588 152.816 51.5336 151.979 50.0556Z" fill="#FF7122"/>
<path d="M156.888 52.784C156.127 56.8389 152.702 57.3316 152.702 57.3316C152.702 57.3316 151.332 53.6936 152.93 52.1019C154.491 50.5482 157.192 51.1166 156.888 52.784Z" fill="#FF7122"/>
<path d="M154.338 52.8219C151.637 55.9294 148.44 54.6409 148.44 54.6409C148.44 54.6409 149.087 50.8134 151.256 50.245C153.425 49.6766 155.48 51.5335 154.338 52.8219Z" fill="#FF7122"/>
<path d="M130.785 45.8494C128.16 49.7905 124.316 48.8052 124.316 48.8052C124.316 48.8052 124.469 44.3335 126.866 43.3861C129.263 42.4008 131.85 44.2198 130.785 45.8494Z" fill="#FFAA39"/>
<path d="M130.176 40.3163C134.286 37.9289 137.292 40.5058 137.292 40.5058C137.292 40.5058 135.161 44.447 132.611 44.2575C130.024 44.068 128.502 41.3016 130.176 40.3163Z" fill="#FFB448"/>
<path d="M132.117 42.4766C136.873 42.4766 138.167 46.1904 138.167 46.1904C138.167 46.1904 134.362 48.5399 132.193 47.0999C130.024 45.6598 130.176 42.4766 132.117 42.4766Z" fill="#FFAA39"/>
<path d="M126.676 45.887C122.985 42.9311 124.317 39.2173 124.317 39.2173C124.317 39.2173 128.768 39.7857 129.491 42.249C130.214 44.7122 128.198 47.1375 126.676 45.887Z" fill="#FFB448"/>
<path d="M128.007 43.348C126.333 38.9142 129.339 36.4131 129.339 36.4131C129.339 36.4131 132.878 39.1416 132.269 41.6427C131.66 44.1439 128.73 45.167 128.007 43.348Z" fill="#FFAA39"/>
<path d="M133.639 45.4324C133.373 50.1694 129.567 51.2305 129.567 51.2305C129.567 51.2305 127.437 47.2893 129.035 45.243C130.633 43.1966 133.753 43.4997 133.639 45.4324Z" fill="#FFB448"/>
<path d="M125.648 39.2934C125.382 44.0304 121.577 45.0915 121.577 45.0915C121.577 45.0915 119.446 41.1503 121.044 39.1039C122.642 37.0576 125.762 37.3228 125.648 39.2934Z" fill="#FFE94A"/>
<path d="M122.756 39.7102C120.131 43.6514 116.288 42.6661 116.288 42.6661C116.288 42.6661 116.44 38.1944 118.837 37.247C121.272 36.2617 123.86 38.0807 122.756 39.7102Z" fill="#FFD44D"/>
<path d="M122.186 34.1396C126.295 31.7521 129.301 34.3291 129.301 34.3291C129.301 34.3291 127.17 38.2702 124.621 38.0808C121.995 37.8913 120.473 35.1249 122.186 34.1396Z" fill="#FFD44D"/>
<path d="M124.126 36.2998C128.882 36.2998 130.176 40.0136 130.176 40.0136C130.176 40.0136 126.371 42.3632 124.202 40.9231C122.071 39.4831 122.147 36.2998 124.126 36.2998Z" fill="#FFE94A"/>
<path d="M118.685 39.7483C114.994 36.7924 116.326 33.0786 116.326 33.0786C116.326 33.0786 120.778 33.6471 121.501 36.1103C122.224 38.5735 120.207 40.961 118.685 39.7483Z" fill="#FFE94A"/>
<path d="M120.017 37.1713C118.342 32.7375 121.348 30.2363 121.348 30.2363C121.348 30.2363 124.887 32.9648 124.278 35.466C123.707 37.9671 120.701 38.9903 120.017 37.1713Z" fill="#FFD44D"/>
<path d="M117.657 46.3417C114.157 48.5397 111.455 46.3796 111.455 46.3796C111.455 46.3796 113.205 42.8932 115.45 42.969C117.695 43.0827 119.103 45.4322 117.657 46.3417Z" fill="#FF7122"/>
<path d="M115.907 44.5228C111.76 44.6743 110.542 41.4532 110.542 41.4532C110.542 41.4532 113.814 39.2931 115.717 40.5058C117.581 41.7185 117.619 44.447 115.907 44.5228Z" fill="#FF7122"/>
<path d="M119.56 41.3014C123.327 42.9688 123.023 46.4174 123.023 46.4174C123.023 46.4174 119.141 46.91 117.962 45.0152C116.782 43.0825 118 40.5814 119.56 41.3014Z" fill="#FF7122"/>
<path d="M118.989 43.7648C121.386 47.0996 119.408 49.9039 119.408 49.9039C119.408 49.9039 115.793 48.3881 115.755 46.1522C115.717 43.9164 118 42.3626 118.989 43.7648Z" fill="#FF7122"/>
<path d="M113.814 41.6427C114.043 37.512 117.391 36.6025 117.391 36.6025C117.391 36.6025 119.218 40.0511 117.848 41.7943C116.44 43.5754 113.7 43.348 113.814 41.6427Z" fill="#FF7122"/>
<path d="M116.325 41.3017C118.609 37.8531 121.957 38.7247 121.957 38.7247C121.957 38.7247 121.805 42.628 119.712 43.4617C117.619 44.2954 115.374 42.7038 116.325 41.3017Z" fill="#FF7122"/>
<path d="M137.178 43.2345C138.053 38.5733 141.972 38.0049 141.972 38.0049C141.972 38.0049 143.57 42.1734 141.744 43.9924C139.917 45.8493 136.835 45.1672 137.178 43.2345Z" fill="#FFE94A"/>
<path d="M140.107 43.1966C143.227 39.6344 146.88 41.0744 146.88 41.0744C146.88 41.0744 146.157 45.4704 143.646 46.1525C141.135 46.7967 138.814 44.6745 140.107 43.1966Z" fill="#FFD44D"/>
<path d="M139.955 48.7675C135.58 50.6244 132.954 47.7064 132.954 47.7064C132.954 47.7064 135.58 44.0684 138.091 44.561C140.602 45.0916 141.782 48.0095 139.955 48.7675Z" fill="#FFD44D"/>
<path d="M138.319 46.3801C133.601 45.7737 132.802 41.9462 132.802 41.9462C132.802 41.9462 136.911 40.1272 138.814 41.8326C140.754 43.5379 140.26 46.6453 138.319 46.3801Z" fill="#FFE94A"/>
<path d="M144.141 43.6895C147.413 47.1001 145.625 50.6244 145.625 50.6244C145.625 50.6244 141.287 49.4875 140.868 46.9485C140.45 44.4095 142.809 42.2873 144.141 43.6895Z" fill="#FFE94A"/>
<path d="M142.505 46.0767C143.608 50.6621 140.26 52.7843 140.26 52.7843C140.26 52.7843 137.102 49.601 138.015 47.2136C138.928 44.8261 142.048 44.1819 142.505 46.0767Z" fill="#FFD44D"/>
</g>
<path d="M211 52C213.761 52 216 49.7614 216 47C216 44.2386 213.761 42 211 42C208.239 42 206 44.2386 206 47C206 49.7614 208.239 52 211 52Z" fill="#57BEB7"/>
<path d="M234 73C235.105 73 236 72.1046 236 71C236 69.8954 235.105 69 234 69C232.895 69 232 69.8954 232 71C232 72.1046 232.895 73 234 73Z" fill="#ECCD52"/>
<path d="M44 158C45.1046 158 46 157.105 46 156C46 154.895 45.1046 154 44 154C42.8954 154 42 154.895 42 156C42 157.105 42.8954 158 44 158Z" fill="#ECCD52"/>
<path d="M27.5 149C29.9853 149 32 146.985 32 144.5C32 142.015 29.9853 140 27.5 140C25.0147 140 23 142.015 23 144.5C23 146.985 25.0147 149 27.5 149Z" fill="#DC4C7C"/>
<defs>
<clipPath id="clip0_3848_83649">
<rect width="178" height="134" fill="white" transform="translate(29 28)"/>
</clipPath>
</defs>
</svg>
