<svg width="340" height="47" viewBox="0 0 340 47" fill="none" xmlns="http://www.w3.org/2000/svg">
<g clip-path="url(#clip0_3888_86320)">
<path d="M12.2048 9.80085V10.7548H18.4082C18.6728 10.7479 18.936 10.7968 19.181 10.8985C19.3802 10.9815 19.559 11.1079 19.7047 11.2688C19.8392 11.4187 19.9389 11.5973 19.9966 11.7915C20.0527 11.9853 20.0817 12.1862 20.0825 12.3882C20.0846 12.8034 19.9484 13.207 19.6961 13.5338C19.5362 13.7158 19.3362 13.8568 19.1124 13.9453C18.8886 14.0339 18.6473 14.0675 18.4082 14.0435H1.66548C1.42641 14.0675 1.18519 14.0339 0.96137 13.9453C0.737549 13.8568 0.53747 13.7158 0.37758 13.5338C0.125277 13.207 -0.0108261 12.8034 -0.00874823 12.3882C-0.0100306 12.1861 0.0188977 11.9849 0.0770909 11.7915C0.131812 11.597 0.230239 11.4181 0.364689 11.2688C0.512004 11.1078 0.692216 10.9814 0.89272 10.8985C1.1377 10.7968 1.40087 10.7479 1.66548 10.7548H7.86885V9.81827H6.30195C4.62768 9.81827 3.38704 9.46546 2.58854 8.7511C2.19251 8.4002 1.87894 7.96374 1.67093 7.47379C1.46292 6.98384 1.36573 6.45283 1.38648 5.91977C1.37731 5.62201 1.42839 5.3255 1.53667 5.04859C1.15623 4.9981 0.809946 4.79977 0.570745 4.49539C0.339134 4.19344 0.217856 3.81941 0.227388 3.43691C0.219564 3.22716 0.253504 3.01797 0.327272 2.82187C0.401039 2.62576 0.513116 2.44679 0.656689 2.29567C0.819869 2.14119 1.0128 2.02271 1.22339 1.94774C1.43399 1.87276 1.6576 1.84292 1.88013 1.86008H7.71866C7.73342 1.58934 7.80495 1.3249 7.9286 1.08451C8.05224 0.844118 8.22511 0.633316 8.43556 0.466195C8.90654 0.14207 9.46838 -0.0184011 10.0368 0.00883194C10.6029 -0.015877 11.1612 0.149451 11.6252 0.479248C11.8348 0.643623 12.0067 0.852238 12.1291 1.09065C12.2514 1.32906 12.3212 1.5916 12.3336 1.86008H18.1721C18.3945 1.84371 18.618 1.87392 18.8285 1.94885C19.039 2.02379 19.232 2.14185 19.3956 2.29567C19.5384 2.44737 19.6498 2.62643 19.7236 2.8224C19.7973 3.01836 19.8318 3.22727 19.8249 3.43691C19.8323 3.81909 19.7112 4.19243 19.4815 4.49539C19.2408 4.79803 18.8953 4.99594 18.5155 5.04859C18.5584 5.1816 18.5942 5.31682 18.6229 5.45369C18.6504 5.59723 18.6648 5.74305 18.6658 5.88928C18.6856 6.42222 18.588 6.95293 18.38 7.44273C18.1721 7.93254 17.8591 8.36911 17.4638 8.7206C16.661 9.43497 15.4246 9.7878 13.7504 9.7878L12.2048 9.80085ZM4.13396 20.7995C3.62838 20.8111 3.12342 20.7569 2.63141 20.6383C2.27263 20.5549 1.94491 20.369 1.68697 20.1025C1.44387 19.8294 1.27654 19.4957 1.20191 19.1355C1.10002 18.6444 1.0539 18.1432 1.0645 17.6414V16.5089C1.03281 16.2134 1.07748 15.9146 1.19415 15.6419C1.31083 15.3693 1.49551 15.1321 1.72994 14.9539C2.19714 14.652 2.74323 14.5002 3.29684 14.5183C3.84022 14.4957 4.37674 14.6482 4.82948 14.9539C5.05252 15.1388 5.22719 15.3766 5.33801 15.6463C5.44884 15.916 5.49239 16.2093 5.46483 16.5002V17.0665C5.46483 17.2581 5.49057 17.3757 5.55067 17.428C5.66926 17.4914 5.80381 17.5172 5.937 17.5021H17.6141C17.8679 17.4757 18.1244 17.5062 18.3654 17.5912C18.6065 17.6762 18.8263 17.8138 19.0093 17.9943C19.2834 18.3097 19.4359 18.715 19.4386 19.1355C19.4422 19.565 19.2893 19.9808 19.0093 20.3029C18.8277 20.4813 18.6098 20.6173 18.3711 20.7016C18.1324 20.7859 17.8784 20.8163 17.6268 20.7907L4.13396 20.7995ZM6.92441 4.83513C6.58906 4.80638 6.25451 4.89897 5.97997 5.0965C5.87823 5.18433 5.7981 5.29502 5.74593 5.41979C5.69376 5.54456 5.67102 5.67995 5.67948 5.81521C5.6739 5.94684 5.69584 6.07819 5.74394 6.20057C5.79204 6.32296 5.86516 6.4336 5.95849 6.52522C6.22171 6.72985 6.55135 6.82628 6.88155 6.79528H13.1708C13.5009 6.82585 13.8303 6.72946 14.0937 6.52522C14.1862 6.43295 14.2588 6.32219 14.3068 6.19996C14.3548 6.07774 14.3773 5.94671 14.3728 5.81521C14.3787 5.68025 14.3548 5.54569 14.3028 5.42133C14.2508 5.29698 14.1721 5.18599 14.0723 5.0965C13.7975 4.89966 13.4631 4.80713 13.1278 4.83513H6.92441Z" fill="white"/>
<path d="M25.7164 4.90019H22.9688C22.6841 4.91008 22.4009 4.85501 22.1401 4.73902C21.9264 4.6345 21.7364 4.48619 21.5821 4.30344C21.4331 4.13074 21.3232 3.92706 21.2601 3.70668C21.1978 3.49016 21.166 3.26578 21.1656 3.04022C21.1657 2.81607 21.1975 2.59311 21.2601 2.37814C21.3208 2.15729 21.4277 1.95227 21.5735 1.77703C21.7271 1.59353 21.9174 1.44508 22.1316 1.34144C22.4004 1.21593 22.6945 1.15624 22.9902 1.16719H32.6928C32.9772 1.15944 33.2594 1.21911 33.5171 1.34144C33.7267 1.44859 33.9134 1.59661 34.0666 1.77703C34.2084 1.953 34.311 2.15809 34.3672 2.37814C34.4229 2.59435 34.4517 2.81675 34.4531 3.04022C34.4512 3.26597 34.418 3.49035 34.3543 3.70668C34.2932 3.92346 34.191 4.12612 34.0537 4.30344C33.9079 4.48969 33.7213 4.63884 33.5086 4.73902C33.2515 4.85255 32.9731 4.90756 32.6928 4.90019H29.9022V7.25238C29.9022 7.76202 29.9023 8.24986 29.8594 8.71159C29.8164 9.17331 29.7864 9.62631 29.7305 10.0619C30.4747 10.3261 31.1763 10.7004 31.8127 11.1727C32.448 11.6629 32.9746 12.2833 33.3583 12.9934C33.8072 13.847 34.1147 14.7697 34.2684 15.7246C34.3683 16.3007 34.4329 16.8826 34.4617 17.4669C34.4762 17.7398 34.4359 18.0129 34.343 18.2695C34.2501 18.5261 34.1067 18.7608 33.9215 18.9593C33.7364 19.1578 33.5132 19.3159 33.2658 19.424C33.0184 19.5322 32.7518 19.5881 32.4824 19.5882C31.9716 19.5854 31.4814 19.3836 31.113 19.0245C30.7447 18.6653 30.5265 18.1763 30.5033 17.6586C30.4772 17.1094 30.3863 16.5654 30.2328 16.0382C30.0111 15.206 29.5253 14.4711 28.8504 13.9474C28.4074 15.2262 27.7301 16.4085 26.8541 17.4321C26.0544 18.3551 25.0553 19.0781 23.9347 19.5447C23.6996 19.6466 23.4476 19.7028 23.192 19.7102C22.9317 19.7167 22.6717 19.6874 22.4192 19.6231C22.1756 19.5593 21.9437 19.4564 21.7323 19.3182C21.5333 19.186 21.3744 19.0006 21.273 18.7824C21.0578 18.3913 20.9993 17.9311 21.1098 17.4974C21.1666 17.2708 21.2673 17.0578 21.4059 16.8709C21.5444 16.684 21.7181 16.5268 21.9169 16.4084C22.5611 16.0074 23.1404 15.5079 23.6342 14.9274C24.1283 14.3364 24.5306 13.6725 24.8276 12.9586C25.16 12.1369 25.3907 11.2766 25.5146 10.3973C25.665 9.32246 25.7367 8.23778 25.7293 7.15217L25.7164 4.90019ZM36.1059 2.4609C36.0855 2.16542 36.1331 1.86916 36.2449 1.59552C36.3566 1.32188 36.5295 1.07835 36.7499 0.884077C37.1649 0.532234 37.6903 0.342229 38.2311 0.348285C38.5021 0.348279 38.771 0.396952 39.0253 0.492037C39.2738 0.579274 39.5029 0.715455 39.6993 0.892771C39.8993 1.07533 40.06 1.29775 40.1715 1.54615C40.2986 1.83359 40.3617 2.14593 40.3562 2.4609V7.97108H41.0646C41.3463 7.96223 41.626 8.02198 41.8803 8.14533C42.0825 8.24878 42.2587 8.39777 42.3955 8.58092C42.525 8.76485 42.6196 8.97164 42.6745 9.19073C42.7302 9.40693 42.759 9.62936 42.7603 9.85283C42.7587 10.0777 42.7299 10.3015 42.6745 10.5193C42.6179 10.7378 42.5234 10.9442 42.3955 11.1291C42.2561 11.3148 42.0751 11.4642 41.8674 11.5647C41.6176 11.6878 41.3421 11.7476 41.0646 11.7389H40.3562V18.765C40.3562 19.2987 40.1472 19.8106 39.7752 20.188C39.4033 20.5654 38.8988 20.7774 38.3727 20.7774H38.0851C37.8248 20.7774 37.5671 20.7253 37.3267 20.6241C37.0863 20.5229 36.8679 20.3746 36.684 20.1877C36.5002 20.0008 36.3546 19.7789 36.2553 19.5348C36.1561 19.2906 36.1053 19.029 36.1059 18.765V2.4609Z" fill="white"/>
<path d="M56.3051 8.71192V9.88802H59.4607C59.9571 9.84595 60.45 10.0022 60.8345 10.3236C60.9701 10.4643 61.0761 10.6314 61.1462 10.8148C61.2163 10.9982 61.249 11.1942 61.2423 11.3908C61.2498 11.804 61.1043 12.205 60.8345 12.5146C60.6507 12.686 60.4333 12.8162 60.1966 12.8965C59.9598 12.9768 59.7091 13.0055 59.4607 12.9807H48.9638C48.7154 13.0061 48.4643 12.9776 48.2275 12.8973C47.9907 12.8169 47.7734 12.6865 47.5899 12.5146C47.3105 12.2095 47.1568 11.8073 47.1606 11.3908C47.1557 11.1925 47.1913 10.9953 47.2652 10.8116C47.3391 10.628 47.4497 10.4618 47.5899 10.3236C47.9739 10.0014 48.4673 9.84501 48.9638 9.88802H52.2696V8.71192H50.8442C50.3528 8.72366 49.862 8.66947 49.3846 8.55076C49.0382 8.46506 48.7218 8.2842 48.47 8.02805C48.2344 7.75996 48.0755 7.43158 48.0106 7.07847C47.9171 6.60538 47.8741 6.12347 47.8819 5.64103V2.59191C47.852 2.30933 47.889 2.02359 47.9898 1.75843C48.0906 1.49327 48.2523 1.25635 48.4615 1.06735C48.8959 0.763702 49.4155 0.610888 49.9426 0.631762C50.3725 0.612724 50.7983 0.723369 51.1662 0.949733C51.3324 1.07121 51.473 1.22508 51.5799 1.40234C51.6868 1.57959 51.7577 1.77667 51.7887 1.98208H56.2322C56.261 1.77064 56.3342 1.56794 56.4467 1.38761C56.5593 1.20728 56.7087 1.05352 56.8848 0.936679C57.2695 0.722428 57.704 0.617107 58.1426 0.631762C58.6641 0.602714 59.1794 0.756513 59.6023 1.06735C59.8036 1.25881 59.9587 1.49477 60.0555 1.75692C60.1523 2.01906 60.1882 2.30031 60.1604 2.57883V8.67707L56.3051 8.71192ZM49.0497 17.9464C49.418 17.8712 49.7727 17.739 50.1015 17.5544C50.3856 17.3943 50.6364 17.1798 50.8399 16.9228C51.028 16.6863 51.1734 16.4179 51.2692 16.13C51.3615 15.8483 51.4164 15.5553 51.4324 15.2588C51.4164 14.9895 51.4678 14.7204 51.5819 14.4767C51.696 14.233 51.869 14.0225 52.0849 13.8649C52.5139 13.5986 53.0122 13.4695 53.5146 13.4947C54.008 13.4957 54.4898 13.6474 54.897 13.9303C55.0973 14.0974 55.2542 14.312 55.3537 14.555C55.4533 14.798 55.4926 15.0621 55.468 15.3242C55.4718 15.3574 55.4718 15.391 55.468 15.4243C55.4641 15.4562 55.4641 15.4884 55.468 15.5202C57.0393 15.5202 58.1556 16.1663 58.8167 17.4586C59.2545 16.8125 59.4799 16.0426 59.4607 15.2588C59.4513 14.9692 59.5132 14.6817 59.641 14.4225C59.7552 14.2027 59.9221 14.0155 60.1262 13.878C60.3307 13.7375 60.5592 13.6371 60.8001 13.5818C61.058 13.5234 61.3215 13.4942 61.5858 13.4947C62.0855 13.4986 62.5733 13.65 62.9897 13.9303C63.1964 14.093 63.359 14.3062 63.4626 14.5499C63.5662 14.7936 63.6073 15.06 63.5821 15.3242C63.5917 15.4401 63.5917 15.5567 63.5821 15.6726C64.1341 15.7367 64.6714 15.8958 65.1707 16.1431C65.6387 16.3782 66.0459 16.7213 66.3598 17.1449C66.6986 17.6084 66.9398 18.1378 67.0682 18.7C67.1197 18.9524 67.1152 19.2132 67.0553 19.4637C66.9954 19.7142 66.8816 19.9481 66.7218 20.1485C66.5621 20.3489 66.3605 20.5109 66.1316 20.6227C65.9027 20.7345 65.6521 20.7934 65.3981 20.7951H64.9688C64.5747 20.7959 64.1924 20.659 63.886 20.4076C63.5795 20.1562 63.3677 19.8055 63.2859 19.4143C63.2526 19.2177 63.1774 19.0307 63.0654 18.8667C62.9534 18.7027 62.8074 18.5655 62.6376 18.4648C62.3504 18.8989 62.0147 19.2979 61.6373 19.6539C61.2667 20.0013 60.8609 20.308 60.4267 20.5687C60.0011 20.8197 59.5469 21.0171 59.0742 21.1567C58.6206 21.2895 58.1511 21.3584 57.6789 21.3614C57.2167 21.3686 56.7599 21.2609 56.3481 21.0478C56.186 20.9627 56.0465 20.839 55.9419 20.6873C55.8372 20.5355 55.7703 20.3603 55.747 20.1766C55.704 19.939 55.704 19.6955 55.747 19.4579C55.6793 19.1932 55.5464 18.9504 55.3607 18.7522C55.1542 18.5462 54.8932 18.4054 54.6093 18.3471C54.3563 18.7648 54.0486 19.1458 53.6948 19.4797C53.3478 19.8147 52.9631 20.1071 52.5486 20.3509C52.1423 20.5862 51.71 20.7718 51.2606 20.904C50.8111 21.0346 50.3458 21.1006 49.8782 21.1001C49.4062 21.1217 48.9377 21.0085 48.5259 20.7734C48.3596 20.6716 48.2188 20.5321 48.1145 20.3658C48.0102 20.1995 47.9453 20.011 47.9248 19.8151C47.8423 19.3968 47.9061 18.9624 48.1052 18.5867C48.2065 18.4161 48.3437 18.2703 48.5069 18.1596C48.6702 18.0489 48.8555 17.9761 49.0497 17.9464ZM56.1978 5.96336V4.6566H51.8617V5.35353C51.8394 5.52115 51.8775 5.69133 51.9691 5.83269C52.1084 5.92559 52.276 5.96426 52.4413 5.94159L56.1978 5.96336ZM61.9078 2.5222C61.8873 2.22275 61.9333 1.92246 62.0426 1.6435C62.1518 1.36454 62.3214 1.11407 62.5389 0.910545C62.9547 0.550171 63.4861 0.356516 64.0329 0.366059C64.5772 0.361725 65.1042 0.560089 65.514 0.923599C65.7333 1.12349 65.9052 1.37114 66.0167 1.64799C66.1283 1.92484 66.1765 2.22371 66.158 2.5222V4.63482H66.8235C67.1052 4.62597 67.385 4.6857 67.6393 4.80904C67.8403 4.91435 68.0161 5.06303 68.1544 5.24463C68.2846 5.42498 68.3793 5.62907 68.4334 5.84574C68.4891 6.06195 68.5179 6.28438 68.5193 6.50785C68.5177 6.73273 68.4889 6.95657 68.4334 7.17431C68.3768 7.39277 68.2824 7.59925 68.1544 7.78412C68.0168 7.97157 67.8353 8.12127 67.6264 8.21971C67.3741 8.33412 67.0996 8.38922 66.8235 8.38087H66.158V10.9073C66.158 11.4849 65.9319 12.0389 65.5293 12.4473C65.1268 12.8558 64.5807 13.0852 64.0114 13.0852C63.7304 13.0858 63.452 13.0297 63.1925 12.9202C62.933 12.8107 62.6975 12.65 62.4998 12.4473C62.302 12.2447 62.146 12.0042 62.0407 11.7398C61.9354 11.4754 61.8829 11.1924 61.8863 10.9073L61.9078 2.5222Z" fill="white"/>
<path d="M79.6084 0.980092C79.8488 0.974021 80.0873 1.02628 80.3039 1.13254C80.4903 1.22835 80.6519 1.3671 80.776 1.53766C80.8958 1.70373 80.9833 1.89148 81.0337 2.09084C81.0835 2.28281 81.1094 2.48038 81.1109 2.6789C81.1094 2.87515 81.0805 3.07018 81.0251 3.25821C80.9681 3.44834 80.8811 3.62783 80.7674 3.78964C80.6457 3.95574 80.4868 4.09009 80.3039 4.18166C80.088 4.28991 79.849 4.3423 79.6084 4.33413H74.1563C73.7527 4.33413 73.5552 4.50837 73.5552 4.85684V8.66824C73.5447 8.74772 73.5529 8.82858 73.579 8.90427C73.6051 8.97996 73.6484 9.04834 73.7055 9.10383C73.8389 9.1922 73.9973 9.23351 74.1563 9.22142H80.424C80.6685 9.21638 80.9109 9.26857 81.1324 9.37389C81.3169 9.46687 81.4782 9.60086 81.6046 9.76591C81.7157 9.9261 81.8025 10.1023 81.8622 10.2886C81.9176 10.4722 81.9465 10.6629 81.948 10.8549C81.9472 11.0583 81.9183 11.2607 81.8622 11.456C81.8053 11.6461 81.7182 11.8256 81.6046 11.9874C81.4804 12.1546 81.3185 12.289 81.1324 12.3794C80.9116 12.4868 80.6687 12.5391 80.424 12.5319H72.3746C71.8765 12.5446 71.3789 12.4934 70.8935 12.3794C70.5418 12.2988 70.2183 12.1227 69.9577 11.8698C69.7115 11.6095 69.5407 11.2855 69.464 10.9333C69.3627 10.4642 69.3165 9.98464 69.3266 9.50456V4.01616C69.3163 3.53751 69.3624 3.05931 69.464 2.59178C69.5399 2.23922 69.7108 1.91497 69.9577 1.65525C70.2192 1.40272 70.5422 1.22532 70.8935 1.14126C71.3793 1.02945 71.8766 0.978265 72.3746 0.988812L79.6084 0.980092ZM73.4265 20.7994C72.9229 20.8121 72.4201 20.7534 71.9325 20.6251C71.5789 20.5331 71.2567 20.3448 71.0009 20.0806C70.7559 19.8037 70.5885 19.4653 70.5158 19.1006C70.4146 18.6138 70.3685 18.1169 70.3784 17.6196V15.6159C70.3485 15.3186 70.3926 15.0185 70.5066 14.7431C70.6206 14.4676 70.8008 14.2255 71.0309 14.039C71.4884 13.7192 72.0339 13.5546 72.5892 13.5686C73.1344 13.5512 73.67 13.7165 74.1133 14.039C74.3344 14.2317 74.5064 14.4756 74.6148 14.7501C74.7232 15.0246 74.7646 15.3216 74.7357 15.6159V16.8791C74.7357 17.1274 74.7701 17.2798 74.8431 17.3364C74.9882 17.4131 75.1529 17.4435 75.3153 17.4236H86.5415C86.7972 17.3979 87.0553 17.4307 87.2968 17.5197C87.5382 17.6087 87.7569 17.7514 87.9367 17.9376C88.211 18.2614 88.3632 18.6735 88.366 19.1006C88.3678 19.5363 88.2155 19.9582 87.9367 20.2897C87.7579 20.4733 87.5412 20.6142 87.3021 20.7023C87.0631 20.7904 86.8076 20.8236 86.5544 20.7994H73.4265ZM83.9443 8.34155H80.7674C80.5567 8.35529 80.3457 8.31824 80.1517 8.23345C79.9577 8.14866 79.7863 8.01855 79.6513 7.85369C79.3965 7.53672 79.2597 7.13888 79.2649 6.72987C79.2602 6.32393 79.3836 5.92708 79.6169 5.59732C79.753 5.42388 79.9293 5.28735 80.1301 5.19994C80.3309 5.11252 80.5498 5.07696 80.7674 5.09641H83.9443V2.48288C83.924 2.1874 83.9715 1.89116 84.0832 1.61752C84.195 1.34388 84.3679 1.10032 84.5883 0.90605C85.0033 0.554207 85.5285 0.364202 86.0693 0.370258C86.3404 0.370252 86.6092 0.418925 86.8635 0.514009C87.115 0.603184 87.3479 0.739072 87.5504 0.914743C87.7543 1.09566 87.9183 1.31834 88.0313 1.56813C88.1583 1.85557 88.2213 2.16791 88.2159 2.48288V13.6034C88.2159 14.1811 87.9896 14.7351 87.5871 15.1435C87.1845 15.5519 86.6386 15.7814 86.0693 15.7814C85.5001 15.7814 84.954 15.5519 84.5515 15.1435C84.1489 14.7351 83.9228 14.1811 83.9228 13.6034L83.9443 8.34155Z" fill="white"/>
<path d="M111.708 9.90971C111.931 9.88542 112.156 9.91543 112.365 9.99726C112.575 10.0791 112.761 10.2103 112.91 10.3801C113.134 10.6765 113.254 11.0394 113.254 11.4125C113.257 11.7922 113.132 12.1615 112.897 12.4579C112.748 12.6226 112.563 12.7497 112.356 12.8291C112.15 12.9085 111.928 12.938 111.708 12.9153H105.368V13.7647H108.738C109.33 13.7526 109.921 13.841 110.485 14.026C110.941 14.1784 111.359 14.4313 111.708 14.7665C112.027 15.0808 112.269 15.4654 112.417 15.8903C112.573 16.3483 112.65 16.8302 112.644 17.3147C112.649 17.8006 112.572 18.2839 112.417 18.7435C112.269 19.1671 112.026 19.5502 111.708 19.8629C111.359 20.1982 110.941 20.451 110.485 20.6034C109.921 20.7885 109.33 20.8768 108.738 20.8648H97.6616C97.0675 20.8771 96.4755 20.7888 95.91 20.6034C95.4534 20.451 95.0357 20.1982 94.6866 19.8629C94.3684 19.5502 94.1259 19.1671 93.9782 18.7435C93.824 18.2836 93.7485 17.8004 93.7549 17.3147C93.7481 16.8304 93.8236 16.3486 93.9782 15.8903C94.1259 15.4654 94.3684 15.0808 94.6866 14.7665C95.0357 14.4313 95.4534 14.1784 95.91 14.026C96.4755 13.8406 97.0675 13.7523 97.6616 13.7647H101.032V12.9327H94.6994C94.4791 12.9554 94.2568 12.9259 94.0497 12.8466C93.8426 12.7672 93.6565 12.6401 93.506 12.4753C93.2732 12.1786 93.1488 11.8092 93.154 11.4299C93.1513 11.0565 93.2723 10.693 93.4974 10.3976C93.6458 10.2269 93.8325 10.095 94.0417 10.0132C94.2509 9.93126 94.4765 9.90174 94.6994 9.92712L111.708 9.90971ZM96.9189 6.18543V6.05476C96.8944 5.76983 96.9368 5.48304 97.0428 5.21801C97.1488 4.95298 97.3153 4.71727 97.5285 4.5302C97.995 4.19454 98.5584 4.02595 99.1298 4.05104C99.6925 4.02586 100.247 4.19985 100.697 4.54325C100.905 4.73092 101.068 4.96509 101.172 5.22734C101.277 5.4896 101.32 5.77282 101.298 6.05476V6.18543H105.119V6.05476C105.094 5.76983 105.137 5.48304 105.242 5.21801C105.348 4.95298 105.515 4.71727 105.728 4.5302C106.195 4.19454 106.758 4.02595 107.329 4.05104C107.892 4.02586 108.446 4.19985 108.896 4.54325C109.105 4.73092 109.268 4.96509 109.372 5.22734C109.476 5.4896 109.519 5.77282 109.497 6.05476V6.18543H111.172C111.392 6.15858 111.615 6.18396 111.823 6.25955C112.032 6.33515 112.22 6.45889 112.374 6.62102C112.595 6.90674 112.716 7.25939 112.717 7.62287C112.719 7.99307 112.593 8.35224 112.361 8.6378C112.208 8.79725 112.022 8.91935 111.816 8.99482C111.61 9.0703 111.389 9.09716 111.172 9.07338H95.2446C95.0262 9.09687 94.8053 9.06989 94.5987 8.99445C94.392 8.91901 94.2048 8.79708 94.0511 8.6378C93.8201 8.35183 93.6956 7.99259 93.6992 7.62287C93.6983 7.25905 93.8194 6.90575 94.0426 6.62102C94.1954 6.45805 94.3837 6.33374 94.5925 6.25809C94.8012 6.18244 95.0246 6.15755 95.2446 6.18543H96.9189ZM110.85 0.653451C111.071 0.629323 111.295 0.658103 111.504 0.737517C111.713 0.81693 111.9 0.94477 112.052 1.11081C112.275 1.40371 112.396 1.76397 112.395 2.13446C112.399 2.51163 112.273 2.87838 112.039 3.17117C111.886 3.33062 111.7 3.45272 111.494 3.52819C111.288 3.60366 111.068 3.63053 110.85 3.60675H95.5666C95.3481 3.63024 95.1273 3.60323 94.9206 3.52779C94.7139 3.45236 94.5267 3.33045 94.3731 3.17117C94.14 2.87797 94.0155 2.51115 94.0212 2.13446C94.0181 1.76364 94.1392 1.40273 94.3646 1.11081C94.5153 0.943933 94.7027 0.815532 94.9116 0.736054C95.1205 0.656577 95.3449 0.628274 95.5666 0.653451H110.85ZM107.394 17.9899C107.647 18.0201 107.902 17.955 108.111 17.8069C108.172 17.7416 108.221 17.6644 108.252 17.5798C108.284 17.4953 108.299 17.4051 108.295 17.3147C108.299 17.225 108.284 17.1355 108.252 17.0517C108.22 16.9678 108.172 16.8914 108.111 16.8269C107.904 16.6749 107.648 16.608 107.394 16.6396H99.0225C98.7674 16.6073 98.5097 16.6742 98.3013 16.8269C98.2403 16.8916 98.1928 16.9682 98.1618 17.052C98.1308 17.1359 98.117 17.2252 98.121 17.3147C98.1171 17.4048 98.131 17.4948 98.162 17.5793C98.1929 17.6639 98.2403 17.7413 98.3013 17.8069C98.5114 17.9557 98.7681 18.0208 99.0225 17.9899H107.394Z" fill="white"/>
<path d="M117.054 8.21088C117.792 8.25543 118.532 8.23064 119.265 8.13684C119.876 8.06325 120.473 7.8943 121.034 7.63593C121.501 7.41796 121.905 7.0802 122.206 6.65586C122.499 6.20749 122.649 5.67807 122.635 5.13999V4.85687C122.635 4.53889 122.468 4.37771 122.141 4.37771H117.29C117.015 4.38422 116.741 4.33689 116.483 4.23832C116.275 4.15361 116.089 4.02261 115.938 3.855C115.794 3.69999 115.687 3.51379 115.624 3.31051C115.56 3.10632 115.529 2.89319 115.53 2.67893C115.529 2.46469 115.561 2.25158 115.624 2.04732C115.689 1.84494 115.796 1.65916 115.938 1.50284C116.089 1.33658 116.276 1.20705 116.483 1.12388C116.74 1.02151 117.014 0.972616 117.29 0.980124H123.73C124.403 0.940169 125.075 1.07511 125.683 1.37216C126.123 1.6303 126.446 2.05215 126.584 2.54823C126.67 2.53897 126.756 2.53897 126.842 2.54823H129.89V2.47855C129.87 2.18426 129.916 1.88908 130.025 1.61572C130.134 1.34236 130.304 1.09811 130.521 0.901722C130.932 0.548424 131.455 0.358102 131.994 0.365956C132.265 0.365951 132.534 0.414597 132.788 0.509681C133.039 0.598856 133.272 0.734771 133.475 0.910442C133.679 1.09136 133.843 1.31404 133.956 1.56382C134.083 1.85126 134.146 2.16358 134.14 2.47855V10.1231C134.14 10.6026 133.952 11.0624 133.618 11.4014C133.284 11.7404 132.831 11.9308 132.359 11.9308H131.672C131.199 11.9308 130.746 11.7404 130.412 11.4014C130.078 11.0624 129.89 10.6026 129.89 10.1231H126.833C126.031 10.1231 125.546 9.81387 125.352 9.18662C124.403 10.271 123.146 11.0315 121.755 11.3646C120.14 11.7803 118.465 11.8983 116.809 11.713C116.341 11.6794 115.904 11.466 115.586 11.1163C115.417 10.9278 115.292 10.7042 115.217 10.4611C115.143 10.218 115.122 9.9614 115.157 9.70931C115.163 9.4863 115.219 9.2677 115.321 9.06999C115.423 8.87228 115.568 8.70065 115.745 8.56807C116.126 8.29698 116.59 8.17055 117.054 8.21088ZM120.338 20.7994C119.677 20.8141 119.019 20.7109 118.393 20.4945C117.879 20.3071 117.411 20.01 117.02 19.6233C116.656 19.2629 116.377 18.8236 116.204 18.3383C116.02 17.8143 115.93 17.2611 115.938 16.7049C115.932 16.153 116.022 15.6045 116.204 15.0845C116.378 14.5932 116.656 14.1469 117.02 13.7777C117.411 13.3906 117.879 13.0935 118.393 12.9065C119.017 12.6812 119.676 12.5735 120.338 12.5886H129.954C130.607 12.5773 131.256 12.6804 131.873 12.8935C132.389 13.0782 132.858 13.3756 133.247 13.7646C133.612 14.1355 133.894 14.581 134.076 15.0714C134.265 15.5973 134.36 16.1536 134.355 16.7136C134.36 17.275 134.266 17.8328 134.076 18.3601C133.898 18.8523 133.615 19.2985 133.247 19.6669C132.857 20.0474 132.387 20.3346 131.873 20.5076C131.255 20.7137 130.606 20.8124 129.954 20.7994H120.338ZM128.817 17.7503C128.988 17.7736 129.163 17.7562 129.327 17.6995C129.491 17.6428 129.639 17.5484 129.761 17.4236C129.912 17.2231 129.995 16.9787 129.997 16.7267C129.996 16.4811 129.913 16.2432 129.761 16.0515C129.635 15.934 129.485 15.8458 129.322 15.7932C129.159 15.7405 128.987 15.7246 128.817 15.7466H121.476C121.306 15.724 121.133 15.7396 120.97 15.7923C120.807 15.845 120.657 15.9335 120.531 16.0515C120.378 16.2422 120.295 16.4807 120.295 16.7267C120.296 16.979 120.379 17.224 120.531 17.4236C120.653 17.5489 120.801 17.6437 120.965 17.7005C121.129 17.7572 121.304 17.7742 121.476 17.7503H128.817ZM126.735 5.5538C126.702 6.07857 126.608 6.59757 126.456 7.10014H126.649C126.713 7.09523 126.778 7.09523 126.842 7.10014H129.89V5.57558L126.735 5.5538Z" fill="white"/>
<path d="M154.64 8.34175C154.86 8.3149 155.083 8.34025 155.292 8.41584C155.5 8.49144 155.689 8.6152 155.842 8.77734C156.066 9.07024 156.187 9.43047 156.186 9.80096C156.19 10.1781 156.064 10.5449 155.829 10.8377C155.677 10.9971 155.49 11.1192 155.284 11.1947C155.078 11.2702 154.858 11.297 154.64 11.2732H137.64C137.421 11.2967 137.201 11.2698 136.994 11.1943C136.787 11.1189 136.6 10.9969 136.446 10.8377C136.213 10.5445 136.089 10.1776 136.094 9.80096C136.091 9.43014 136.212 9.06926 136.438 8.77734C136.591 8.61437 136.779 8.49003 136.988 8.41438C137.196 8.33873 137.42 8.31386 137.64 8.34175H154.64ZM139.4 20.7996C138.988 20.8093 138.579 20.7322 138.198 20.5731C137.872 20.4354 137.579 20.2274 137.339 19.9632C137.118 19.7102 136.95 19.4137 136.846 19.0921C136.737 18.7472 136.683 18.3869 136.687 18.0249V17.9595C136.658 17.2746 136.888 16.6045 137.331 16.0865C137.76 15.6073 138.447 15.3678 139.391 15.3678H150.875V14.954C150.875 14.7231 150.725 14.6055 150.424 14.6055H138.125C137.954 14.6174 137.783 14.5895 137.624 14.5238C137.466 14.4581 137.324 14.3564 137.211 14.2265C137.015 13.9994 136.906 13.7092 136.901 13.4076C136.904 13.1071 137.006 12.816 137.189 12.58C137.303 12.443 137.447 12.3359 137.61 12.2676C137.773 12.1994 137.949 12.172 138.125 12.188H152.893C153.807 12.188 154.438 12.3579 154.782 12.702C154.965 12.9051 155.104 13.1439 155.193 13.4038C155.282 13.6637 155.317 13.9392 155.297 14.2135V15.9994C155.296 16.4272 155.128 16.8372 154.829 17.1393C154.53 17.4414 154.126 17.6111 153.704 17.6111H141.71C141.652 17.6049 141.594 17.6106 141.539 17.6278C141.483 17.645 141.432 17.6734 141.388 17.7112C141.326 17.7866 141.295 17.8834 141.302 17.9813C141.297 18.083 141.327 18.1831 141.388 18.2644C141.43 18.3063 141.48 18.3378 141.536 18.3567C141.592 18.3756 141.651 18.3812 141.71 18.3733H154.31C154.477 18.3571 154.647 18.3837 154.802 18.4507C154.957 18.5176 155.093 18.6228 155.198 18.7567C155.375 18.9985 155.47 19.2919 155.469 19.593C155.461 19.8811 155.371 20.1608 155.211 20.3988C155.11 20.5425 154.974 20.6565 154.815 20.7292C154.657 20.8019 154.483 20.8307 154.31 20.8126L139.4 20.7996ZM141.718 3.57205C141.594 3.55519 141.468 3.58292 141.362 3.65045C141.299 3.74168 141.273 3.8539 141.289 3.96406V4.2472C141.289 4.43886 141.289 4.55211 141.362 4.59567C141.472 4.65279 141.596 4.67554 141.718 4.66102H153.846C154.059 4.63738 154.275 4.66443 154.476 4.74003C154.677 4.81564 154.858 4.93772 155.005 5.09661C155.23 5.38384 155.351 5.74043 155.348 6.10718C155.356 6.4628 155.233 6.80862 155.005 7.07853C154.851 7.22532 154.668 7.33703 154.468 7.40615C154.268 7.47527 154.056 7.50018 153.846 7.47926H139.808C139.336 7.48839 138.864 7.44901 138.4 7.36167C138.08 7.29913 137.783 7.14844 137.541 6.92608C137.316 6.68564 137.166 6.38225 137.112 6.05491C137.026 5.60581 136.987 5.14884 136.996 4.69151V3.4283C136.988 2.9681 137.027 2.50832 137.112 2.05621C137.165 1.72845 137.314 1.42469 137.541 1.18503C137.783 0.963232 138.08 0.812621 138.4 0.749442C138.863 0.652535 139.335 0.60868 139.808 0.618744H153.782C153.996 0.592652 154.214 0.618539 154.417 0.694249C154.62 0.76996 154.802 0.893342 154.949 1.05433C155.17 1.34338 155.288 1.69942 155.284 2.0649C155.291 2.43635 155.169 2.79853 154.941 3.08855C154.793 3.24609 154.612 3.36723 154.411 3.44273C154.21 3.51823 153.995 3.54609 153.782 3.52414L141.718 3.57205Z" fill="white"/>
<path d="M158.118 6.5991C158.101 5.73208 158.255 4.87029 158.569 4.06397C158.848 3.36073 159.276 2.72858 159.823 2.21272C160.377 1.70032 161.033 1.31415 161.746 1.08017C162.542 0.81546 163.377 0.685945 164.215 0.696853C165.052 0.686343 165.886 0.815848 166.683 1.08017C167.395 1.31589 168.053 1.69684 168.615 2.19964C169.169 2.71202 169.602 3.34487 169.881 4.05089C170.195 4.8621 170.348 5.72793 170.332 6.5991V14.4832C170.348 15.3544 170.195 16.2202 169.881 17.0314C169.605 17.7367 169.175 18.3695 168.623 18.8827C168.064 19.3903 167.406 19.7732 166.692 20.0065C165.898 20.2656 165.069 20.3936 164.236 20.3855C163.398 20.3957 162.565 20.2677 161.768 20.0065C161.054 19.7712 160.396 19.3886 159.836 18.8827C159.279 18.3723 158.846 17.7389 158.569 17.0314C158.256 16.2202 158.103 15.3544 158.118 14.4832V6.5991ZM162.368 14.5704C162.321 15.1746 162.509 15.7735 162.892 16.2387C163.062 16.4199 163.268 16.5627 163.495 16.658C163.723 16.7534 163.968 16.7989 164.215 16.7919C164.462 16.7978 164.708 16.7517 164.937 16.6565C165.166 16.5612 165.373 16.419 165.545 16.2387C165.934 15.7762 166.127 15.1765 166.082 14.5704V6.51198C166.125 5.90335 165.933 5.30153 165.545 4.83494C165.375 4.65217 165.168 4.50889 164.939 4.41491C164.709 4.32092 164.462 4.27846 164.215 4.29046C163.967 4.29194 163.722 4.34401 163.495 4.44354C163.268 4.54308 163.063 4.68806 162.892 4.8698C162.512 5.3263 162.324 5.91607 162.368 6.51198V14.5704ZM174.926 20.7993C174.356 20.7993 173.81 20.5698 173.408 20.1614C173.005 19.7529 172.779 19.199 172.779 18.6213V2.50456C172.759 2.20392 172.806 1.9025 172.917 1.62322C173.029 1.34395 173.202 1.09416 173.423 0.892874C173.843 0.533655 174.376 0.340309 174.926 0.348388C175.475 0.341092 176.008 0.534343 176.428 0.892874C176.649 1.09416 176.822 1.34395 176.934 1.62322C177.045 1.9025 177.093 2.20392 177.072 2.50456V18.6213C177.072 19.199 176.846 19.7529 176.443 20.1614C176.041 20.5698 175.495 20.7993 174.926 20.7993Z" fill="white"/>
<path d="M188.226 16.8529V10.319C188.219 10.0085 188.28 9.70023 188.407 9.41735C188.519 9.1722 188.685 8.9562 188.892 8.78574C189.094 8.61462 189.332 8.49117 189.587 8.42422C189.858 8.35242 190.136 8.31583 190.416 8.31533C190.688 8.31497 190.958 8.35607 191.219 8.43728C191.474 8.51172 191.714 8.63275 191.927 8.79446C192.138 8.95905 192.308 9.17266 192.421 9.41735C192.549 9.69988 192.612 10.0082 192.605 10.319V16.8529H200.333C200.619 16.8465 200.903 16.8983 201.17 17.0053C201.383 17.0975 201.573 17.2357 201.728 17.4104C201.869 17.5748 201.975 17.7678 202.037 17.9767C202.102 18.1838 202.135 18.3997 202.136 18.617C202.136 19.0616 201.984 19.4926 201.706 19.8366C201.534 20.0306 201.319 20.1809 201.079 20.2755C200.839 20.37 200.58 20.4062 200.324 20.3811H183.839C183.582 20.4062 183.323 20.3701 183.082 20.2755C182.841 20.181 182.626 20.0307 182.452 19.8366C182.174 19.4928 182.023 19.0617 182.023 18.617C182.022 18.3999 182.054 18.184 182.117 17.9767C182.18 17.7668 182.287 17.5735 182.431 17.4104C182.584 17.2339 182.775 17.0953 182.989 17.0053C183.255 16.8971 183.54 16.8452 183.826 16.8529H188.226ZM195.846 13.085C196.201 12.2317 196.446 11.3358 196.576 10.4192C196.746 9.18111 196.825 7.93188 196.812 6.68187V5.30976C196.817 5.16539 196.766 5.02484 196.671 4.91772C196.619 4.86564 196.557 4.82517 196.489 4.7989C196.421 4.77264 196.348 4.76118 196.276 4.76527H184.62C184.326 4.77494 184.033 4.71997 183.762 4.6041C183.539 4.50409 183.341 4.35534 183.182 4.16852C183.033 3.98766 182.916 3.78112 182.839 3.55868C182.763 3.34468 182.724 3.11941 182.723 2.89224C182.723 2.66712 182.759 2.44352 182.83 2.23014C182.898 2.00593 183.016 1.80037 183.173 1.62903C183.34 1.44691 183.54 1.29903 183.762 1.19344C184.031 1.0709 184.325 1.01138 184.62 1.01922H197.735C198.267 1.00633 198.797 1.06938 199.311 1.20652C199.693 1.30526 200.044 1.5 200.333 1.77278C200.597 2.03902 200.786 2.37326 200.878 2.73977C200.993 3.19489 201.048 3.66372 201.041 4.13366V6.70364C201.041 10.1884 200.626 12.7656 199.796 14.4353C199.658 14.7192 199.463 14.9712 199.225 15.1758C198.993 15.3688 198.728 15.5165 198.444 15.6114C198.154 15.7149 197.849 15.7664 197.542 15.7639C197.231 15.7656 196.924 15.6987 196.641 15.5679C196.42 15.4817 196.222 15.3442 196.063 15.1665C195.905 14.9887 195.789 14.7756 195.726 14.5442C195.595 14.0521 195.641 13.5287 195.855 13.0676L195.846 13.085Z" fill="white"/>
<path d="M221.743 16.6831C222.038 16.6746 222.331 16.731 222.602 16.8487C222.824 16.9494 223.022 17.0981 223.181 17.2843C223.331 17.4579 223.441 17.6632 223.503 17.8854C223.567 18.1001 223.6 18.3231 223.602 18.5475C223.601 18.7769 223.565 19.0047 223.495 19.2226C223.422 19.439 223.308 19.6388 223.16 19.8107C223.006 19.9978 222.812 20.1468 222.593 20.2463C222.327 20.3532 222.042 20.4051 221.756 20.3987H205.357C205.07 20.4064 204.785 20.3545 204.52 20.2463C204.298 20.148 204.103 19.9989 203.949 19.8107C203.8 19.6399 203.687 19.4397 203.618 19.2226C203.546 19.0052 203.509 18.777 203.511 18.5475C203.511 18.3233 203.543 18.1003 203.605 17.8854C203.667 17.6632 203.777 17.4579 203.927 17.2843C204.087 17.0981 204.285 16.9494 204.507 16.8487C204.778 16.7313 205.071 16.6748 205.365 16.6831H221.743ZM215.703 2.9621C215.683 3.63988 215.582 4.31273 215.402 4.96583C216.32 5.00062 217.226 5.18445 218.086 5.51031C218.975 5.84857 219.792 6.35892 220.49 7.01307C221.238 7.73314 221.845 8.59037 222.28 9.53951C222.374 9.73988 222.46 9.94896 222.542 10.1624C222.663 10.4989 222.703 10.8602 222.658 11.2156C222.612 11.571 222.483 11.9101 222.28 12.2039C222.078 12.4977 221.809 12.7375 221.496 12.9031C221.182 13.0687 220.834 13.1551 220.481 13.1549C220.039 13.1552 219.607 13.0191 219.243 12.7647C218.879 12.5104 218.599 12.1497 218.442 11.7305C218.369 11.5372 218.286 11.3482 218.193 11.1642C217.913 10.6023 217.529 10.0996 217.064 9.68323C216.615 9.28432 216.095 8.97674 215.531 8.77723C214.944 8.57409 214.327 8.47822 213.707 8.49408C213.221 9.17433 212.667 9.80198 212.054 10.3671C211.456 10.9189 210.804 11.4079 210.109 11.8263C209.447 12.2272 208.741 12.5487 208.006 12.7846C207.312 13.0148 206.589 13.1396 205.859 13.1549C205.365 13.1789 204.878 13.0245 204.485 12.7193C204.294 12.5696 204.135 12.3804 204.02 12.1642C203.906 11.948 203.837 11.7097 203.82 11.4648C203.75 10.9825 203.865 10.4913 204.142 10.0927C204.436 9.68615 204.875 9.41254 205.365 9.33041C206.083 9.1657 206.773 8.89416 207.413 8.52458C208.08 8.1462 208.685 7.66575 209.208 7.10019C209.748 6.50719 210.197 5.83458 210.538 5.10522C210.905 4.31421 211.144 3.46856 211.247 2.60058C211.266 2.29949 211.349 2.00623 211.492 1.74137C211.634 1.47651 211.832 1.24644 212.071 1.0673C212.538 0.736128 213.105 0.581952 213.672 0.631715C214.238 0.663059 214.772 0.903208 215.175 1.30687C215.372 1.52998 215.521 1.79258 215.612 2.07769C215.703 2.3628 215.734 2.66408 215.703 2.9621Z" fill="white"/>
<path d="M229.012 13.438C228.493 13.4469 227.979 13.3352 227.51 13.1113C227.082 12.9065 226.698 12.6178 226.381 12.262C226.069 11.9104 225.829 11.5005 225.672 11.0554C225.51 10.6045 225.427 10.1283 225.427 9.64844V9.12572C225.424 8.66472 225.504 8.20694 225.664 7.77538C225.813 7.36229 226.051 6.98761 226.359 6.67772C226.68 6.35534 227.065 6.10589 227.488 5.94593C227.976 5.76358 228.493 5.67493 229.012 5.68457H232.833V4.74807C232.843 4.68112 232.837 4.6128 232.816 4.54854C232.795 4.48427 232.76 4.4258 232.713 4.3778C232.582 4.30616 232.432 4.27583 232.284 4.29068H227.046C226.804 4.29939 226.563 4.24701 226.346 4.13823C226.161 4.04563 226 3.91156 225.874 3.74619C225.754 3.5905 225.663 3.41318 225.608 3.22351C225.55 3.04058 225.521 2.84941 225.522 2.65722C225.521 2.45504 225.55 2.25384 225.608 2.06047C225.664 1.86459 225.759 1.68235 225.887 1.5247C226.02 1.3634 226.184 1.2302 226.368 1.13266C226.579 1.02784 226.811 0.975582 227.046 0.980216H233.915C235.06 0.980216 235.883 1.24882 236.384 1.78604C236.894 2.35619 237.164 3.10699 237.135 3.87689V8.75546H230.523C230.094 8.75546 229.858 8.9602 229.858 9.36529V9.56131C229.858 9.94028 230.077 10.1276 230.523 10.1276H237.393C237.626 10.123 237.857 10.1752 238.067 10.28C238.25 10.3754 238.41 10.509 238.539 10.6721C238.66 10.836 238.751 11.0203 238.809 11.2165C238.864 11.4077 238.893 11.6055 238.895 11.8046C238.894 12.0008 238.865 12.1959 238.809 12.3839C238.753 12.5716 238.666 12.7484 238.552 12.9066C238.427 13.0664 238.268 13.1959 238.088 13.2856C237.872 13.3938 237.633 13.4462 237.393 13.438H229.012ZM229.678 20.7995C229.174 20.8122 228.671 20.7536 228.184 20.6252C227.83 20.5332 227.508 20.3449 227.252 20.0808C227.007 19.8038 226.84 19.4654 226.767 19.1007C226.666 18.6139 226.62 18.1171 226.629 17.6197V16.2258C226.6 15.9286 226.644 15.6285 226.758 15.353C226.872 15.0775 227.052 14.8355 227.282 14.649C227.74 14.3292 228.285 14.1645 228.841 14.1785C229.386 14.1611 229.921 14.3265 230.365 14.649C230.586 14.8416 230.758 15.0855 230.866 15.3601C230.974 15.6346 231.016 15.9316 230.987 16.2258V16.8792C230.987 17.1275 231.021 17.2799 231.094 17.3366C231.24 17.4133 231.404 17.4436 231.567 17.4237H242.385C242.641 17.398 242.899 17.4309 243.141 17.5198C243.382 17.6088 243.601 17.7516 243.781 17.9377C244.047 18.2646 244.192 18.6764 244.189 19.1007C244.19 19.5364 244.038 19.9584 243.759 20.2899C243.581 20.4734 243.364 20.6143 243.125 20.7024C242.886 20.7906 242.63 20.8237 242.377 20.7995H229.678ZM239.681 2.50478C239.66 2.20607 239.705 1.90638 239.813 1.62756C239.92 1.34874 240.088 1.09781 240.303 0.893093C240.713 0.531433 241.241 0.337365 241.784 0.348607C242.325 0.342551 242.849 0.541373 243.253 0.906173C243.469 1.10787 243.639 1.35605 243.749 1.63261C243.858 1.90918 243.906 2.20713 243.888 2.50478V5.79346H244.554C244.835 5.78461 245.115 5.84436 245.369 5.96771C245.572 6.07116 245.748 6.22015 245.885 6.4033C246.014 6.58723 246.109 6.79402 246.164 7.0131C246.219 7.22931 246.248 7.45174 246.249 7.67521C246.248 7.90009 246.219 8.12393 246.164 8.34167C246.107 8.56013 246.012 8.76661 245.885 8.95148C245.745 9.13721 245.564 9.28654 245.356 9.38707C245.107 9.51015 244.831 9.56995 244.554 9.56131H243.888V13.5905C243.888 14.1566 243.667 14.6995 243.272 15.0998C242.878 15.5 242.342 15.7249 241.784 15.7249C241.227 15.7249 240.691 15.5 240.297 15.0998C239.902 14.6995 239.681 14.1566 239.681 13.5905V2.50478Z" fill="white"/>
<path d="M253.054 0.300732C253.348 0.283699 253.643 0.326154 253.921 0.425608C254.198 0.525061 254.454 0.679538 254.672 0.880072C254.877 1.09332 255.035 1.34764 255.137 1.62669C255.239 1.90575 255.283 2.20337 255.265 2.50045V2.69647H258.377C258.602 2.68208 258.827 2.7197 259.035 2.80648C259.243 2.89326 259.429 3.02695 259.579 3.19741C259.851 3.53502 259.995 3.95956 259.987 4.39528C259.992 4.83815 259.84 5.26802 259.558 5.6062C259.411 5.77798 259.228 5.9133 259.022 6.00167C258.816 6.09004 258.592 6.12908 258.369 6.11583H258.304C258.418 6.41092 258.511 6.71367 258.583 7.02186C258.656 7.35367 258.692 7.69259 258.691 8.03243V14.8058C258.712 15.6585 258.567 16.507 258.261 17.3018C257.994 17.9666 257.584 18.562 257.059 19.0441C256.54 19.5083 255.93 19.857 255.269 20.0677C254.554 20.2949 253.808 20.4081 253.058 20.4032C252.311 20.4091 251.568 20.2959 250.856 20.0677C250.199 19.855 249.592 19.5064 249.074 19.0441C248.55 18.562 248.139 17.9666 247.872 17.3018C247.567 16.507 247.421 15.6585 247.443 14.8058V8.03243C247.435 7.37504 247.559 6.72288 247.808 6.11583C247.584 6.1291 247.36 6.09007 247.153 6.00172C246.946 5.91337 246.762 5.77806 246.614 5.6062C246.333 5.26802 246.18 4.83815 246.185 4.39528C246.174 3.96135 246.314 3.53737 246.58 3.19741C246.727 3.02582 246.912 2.89123 247.119 2.8043C247.326 2.71737 247.55 2.68046 247.774 2.69647H250.864V2.47867C250.846 2.18191 250.889 1.88446 250.99 1.60542C251.091 1.32638 251.249 1.07192 251.453 0.858298C251.894 0.466331 252.469 0.26605 253.054 0.300732ZM253.054 16.8531C253.264 16.8542 253.473 16.8115 253.666 16.7276C253.86 16.6437 254.034 16.5203 254.179 16.3652C254.355 16.154 254.489 15.9094 254.572 15.6455C254.656 15.3817 254.687 15.1037 254.664 14.8276V7.87998C254.691 7.61001 254.663 7.3372 254.582 7.07862C254.501 6.82005 254.368 6.58127 254.192 6.3772C253.881 6.0906 253.474 5.93485 253.054 5.94161C252.641 5.93645 252.241 6.09236 251.938 6.3772C251.761 6.5807 251.627 6.81941 251.546 7.07814C251.464 7.33687 251.437 7.60996 251.466 7.87998V14.8276C251.442 15.1034 251.472 15.3812 251.555 15.645C251.637 15.9089 251.77 16.1536 251.946 16.3652C252.088 16.519 252.26 16.6417 252.45 16.7256C252.641 16.8095 252.846 16.8529 253.054 16.8531ZM263.808 20.8169C263.239 20.8169 262.693 20.5875 262.29 20.1791C261.888 19.7706 261.661 19.2166 261.661 18.639V2.52222C261.641 2.22159 261.688 1.92017 261.8 1.64089C261.911 1.36161 262.084 1.11186 262.305 0.910567C262.725 0.551349 263.259 0.358002 263.808 0.366081C264.357 0.358785 264.89 0.552036 265.311 0.910567C265.532 1.11186 265.704 1.36161 265.816 1.64089C265.928 1.92017 265.975 2.22159 265.954 2.52222V18.639C265.954 19.2166 265.728 19.7706 265.326 20.1791C264.923 20.5875 264.377 20.8169 263.808 20.8169Z" fill="white"/>
<path d="M274.593 10.7808C273.563 10.7808 272.795 10.5674 272.297 10.1405C271.798 9.71365 271.545 8.96879 271.545 7.90596V3.00559C271.518 2.7075 271.559 2.4071 271.665 2.12763C271.771 1.84816 271.938 1.59711 272.155 1.3939C272.587 1.05311 273.123 0.875948 273.67 0.892967C274.214 0.87532 274.746 1.05271 275.173 1.3939C275.387 1.59893 275.552 1.85049 275.656 2.12965C275.76 2.40882 275.8 2.70832 275.774 3.00559V6.79518C275.774 7.04347 275.808 7.20029 275.881 7.26563C276.024 7.34838 276.19 7.38201 276.354 7.36147H282.514C282.768 7.33327 283.025 7.36499 283.265 7.45415C283.505 7.54331 283.721 7.6875 283.897 7.87546C284.164 8.21857 284.305 8.64504 284.296 9.08202C284.306 9.51798 284.161 9.94304 283.888 10.2799C283.711 10.4622 283.495 10.6018 283.257 10.6885C283.019 10.7752 282.766 10.8067 282.514 10.7808H274.593ZM275.409 20.7994C274.882 20.813 274.356 20.7589 273.842 20.6382C273.484 20.5546 273.158 20.3651 272.906 20.0937C272.675 19.8012 272.526 19.4504 272.477 19.0788C272.391 18.5534 272.352 18.0213 272.361 17.4889V15.4852C272.353 14.9571 272.392 14.4295 272.477 13.9084C272.524 13.5334 272.672 13.1791 272.906 12.8847C273.157 12.6119 273.483 12.4221 273.842 12.3402C274.355 12.2178 274.882 12.1622 275.409 12.1747H286.893C287.421 12.1625 287.947 12.2181 288.46 12.3402C288.818 12.4232 289.142 12.6128 289.392 12.8847C289.633 13.1766 289.79 13.5312 289.843 13.9084C289.929 14.4293 289.969 14.957 289.963 15.4852V18.9699C289.963 19.2128 289.916 19.4533 289.824 19.6777C289.732 19.902 289.598 20.1058 289.428 20.2774C289.259 20.449 289.058 20.5849 288.836 20.6775C288.615 20.77 288.378 20.8174 288.138 20.8168L275.409 20.7994ZM276.568 17.1404C276.546 17.3105 276.579 17.4834 276.663 17.6326C276.79 17.7157 276.942 17.7498 277.092 17.7285H284.914C285.133 17.7285 285.343 17.6405 285.499 17.4838C285.654 17.3271 285.742 17.1144 285.743 16.8921V15.7901C285.763 15.6267 285.725 15.4612 285.635 15.324C285.507 15.2428 285.356 15.2075 285.206 15.2238H277.096C276.946 15.2034 276.793 15.239 276.667 15.324C276.585 15.4642 276.552 15.6284 276.573 15.7901L276.568 17.1404ZM285.584 2.50465C285.563 2.2052 285.609 1.90491 285.719 1.62595C285.828 1.34699 285.998 1.09649 286.215 0.892967C286.631 0.532593 287.162 0.338938 287.709 0.348481C288.253 0.344147 288.78 0.542538 289.19 0.906047C289.409 1.10594 289.581 1.35359 289.693 1.63044C289.804 1.90729 289.853 2.20616 289.834 2.50465V4.00743H290.5C290.781 3.99858 291.061 4.05831 291.315 4.18165C291.516 4.28696 291.692 4.43564 291.831 4.61724C291.961 4.7976 292.055 5.00168 292.11 5.21836C292.165 5.43457 292.194 5.65699 292.195 5.88046C292.194 6.10534 292.165 6.32918 292.11 6.54692C292.053 6.76539 291.958 6.97187 291.831 7.15673C291.693 7.34418 291.511 7.49388 291.302 7.59232C291.05 7.70674 290.776 7.76183 290.5 7.75348H289.834V9.2345C289.834 9.81212 289.608 10.3661 289.205 10.7745C288.803 11.183 288.257 11.4124 287.688 11.4124C287.406 11.413 287.128 11.357 286.869 11.2474C286.609 11.1379 286.374 10.9772 286.176 10.7745C285.978 10.5719 285.822 10.3314 285.717 10.067C285.612 9.80261 285.559 9.51963 285.562 9.2345L285.584 2.50465Z" fill="white"/>
<path d="M294.32 16.3127C295.157 16.2387 295.982 16.0602 296.776 15.7813C297.49 15.5277 298.134 15.1052 298.656 14.5486C299.212 13.9247 299.618 13.1795 299.845 12.3706C300.153 11.2807 300.298 10.1501 300.274 9.01661V5.48833C300.279 5.34397 300.228 5.20344 300.133 5.09631C300.081 5.04424 300.019 5.00376 299.951 4.9775C299.883 4.95124 299.81 4.93975 299.738 4.94384H294.844C294.549 4.95351 294.257 4.89854 293.985 4.78268C293.761 4.68055 293.561 4.5322 293.397 4.34709C293.239 4.17502 293.118 3.97191 293.041 3.75033C292.964 3.5292 292.925 3.29652 292.925 3.06212C292.926 2.83634 292.965 2.61243 293.041 2.40002C293.118 2.17443 293.239 1.96697 293.397 1.79018C293.562 1.6061 293.762 1.45791 293.985 1.3546C294.255 1.23206 294.548 1.17253 294.844 1.18038H301.197C302.412 1.18038 303.279 1.45914 303.795 2.00798C304.344 2.65995 304.622 3.5039 304.567 4.36017V9.04274C304.607 10.731 304.349 12.4129 303.803 14.0084C303.361 15.2703 302.647 16.4162 301.713 17.3625C300.827 18.2328 299.758 18.8881 298.587 19.2791C297.339 19.6941 296.037 19.9144 294.724 19.9325C294.462 19.9327 294.202 19.896 293.951 19.8236C293.705 19.7573 293.475 19.6434 293.272 19.4881C293.077 19.3341 292.92 19.1357 292.813 18.9088C292.686 18.6376 292.634 18.3365 292.663 18.0376C292.675 17.6084 292.825 17.195 293.092 16.8616C293.415 16.5225 293.856 16.3254 294.32 16.3127ZM309.732 20.7993C309.163 20.7993 308.617 20.5698 308.214 20.1614C307.811 19.7529 307.585 19.199 307.585 18.6213V2.50456C307.565 2.20392 307.612 1.9025 307.724 1.62322C307.835 1.34395 308.008 1.09416 308.229 0.892874C308.649 0.533655 309.183 0.340309 309.732 0.348388C310.281 0.341092 310.814 0.534343 311.234 0.892874C311.455 1.09416 311.628 1.34395 311.74 1.62322C311.851 1.9025 311.899 2.20392 311.878 2.50456V18.6213C311.878 19.199 311.652 19.7529 311.25 20.1614C310.847 20.5698 310.301 20.7993 309.732 20.7993Z" fill="white"/>
<path d="M332.4 9.25611C332.616 9.23464 332.835 9.26262 333.039 9.338C333.243 9.41338 333.428 9.53424 333.581 9.6917C333.805 9.96249 333.926 10.3053 333.924 10.6587C333.933 11.0235 333.806 11.3783 333.568 11.6518C333.412 11.7982 333.227 11.9095 333.026 11.9785C332.825 12.0476 332.612 12.0728 332.4 12.0526H315.335C315.125 12.0744 314.913 12.0499 314.713 11.9807C314.513 11.9115 314.33 11.7994 314.176 11.6518C313.944 11.3759 313.821 11.0217 313.833 10.6587C313.829 10.3049 313.951 9.96151 314.176 9.6917C314.324 9.53495 314.506 9.41432 314.706 9.33888C314.907 9.26343 315.122 9.23514 315.335 9.25611H332.4ZM317.095 20.7992C316.73 20.827 316.363 20.7753 316.018 20.6476C315.674 20.5199 315.361 20.3191 315.099 20.0587C314.653 19.5588 314.415 18.9033 314.434 18.2292V18.0986C314.413 17.7776 314.461 17.456 314.573 17.1554C314.686 16.8547 314.861 16.5822 315.086 16.3562C315.654 15.8978 316.372 15.6752 317.095 15.7333H328.614V15.3413C328.619 15.2947 328.616 15.2473 328.602 15.2023C328.589 15.1573 328.567 15.1156 328.536 15.0799C328.443 15.0259 328.334 15.003 328.227 15.0146H315.778C315.617 15.027 315.456 15.0012 315.307 14.9392C315.157 14.8771 315.025 14.7807 314.919 14.6574C314.735 14.4419 314.633 14.167 314.631 13.8821C314.634 13.5997 314.724 13.3253 314.889 13.098C314.992 12.9707 315.124 12.8706 315.273 12.8061C315.423 12.7417 315.586 12.7148 315.747 12.7278H330.687C331.572 12.7278 332.181 12.8889 332.512 13.2069C332.686 13.3997 332.82 13.6267 332.905 13.8739C332.99 14.1211 333.024 14.3833 333.005 14.6443V16.7482C333.005 16.8756 332.981 17.0017 332.932 17.1193C332.884 17.2369 332.814 17.3437 332.725 17.4336C332.636 17.5234 332.53 17.5946 332.414 17.6429C332.298 17.6912 332.174 17.7158 332.048 17.7152H319.375C319.319 17.7081 319.262 17.7156 319.209 17.7369C319.157 17.7583 319.11 17.7928 319.075 17.8372C319.019 17.9075 318.988 17.9952 318.989 18.0855C318.989 18.3207 319.117 18.434 319.375 18.434H332.512C332.675 18.4146 332.841 18.44 332.992 18.5073C333.143 18.5747 333.274 18.6817 333.37 18.8173C333.531 19.0576 333.618 19.3412 333.619 19.6318C333.611 19.903 333.529 20.1667 333.383 20.3941C333.288 20.5313 333.157 20.64 333.006 20.7089C332.855 20.7779 332.689 20.8045 332.525 20.7862L317.095 20.7992ZM317.246 8.6245C316.88 8.65229 316.513 8.60061 316.169 8.47291C315.825 8.34521 315.511 8.14443 315.25 7.884C314.803 7.38412 314.565 6.72864 314.584 6.05455V5.92385C314.564 5.60823 314.612 5.29201 314.725 4.99714C314.838 4.70226 315.012 4.43582 315.237 4.21635C315.81 3.77107 316.526 3.55694 317.246 3.61524H328.408V3.245C328.413 3.19837 328.41 3.151 328.396 3.10598C328.383 3.06095 328.36 3.01927 328.33 2.98363C328.237 2.92956 328.128 2.90672 328.021 2.91831H315.893C315.732 2.93055 315.569 2.90333 315.42 2.83892C315.27 2.77451 315.138 2.67476 315.035 2.54804C314.852 2.32889 314.75 2.05144 314.747 1.76399C314.75 1.47909 314.84 1.20218 315.005 0.971212C315.105 0.839793 315.236 0.735896 315.386 0.668953C315.536 0.60201 315.7 0.57414 315.863 0.587892H330.481C331.365 0.587892 331.975 0.749076 332.306 1.06706C332.48 1.25988 332.614 1.48684 332.699 1.73402C332.784 1.98121 332.818 2.24341 332.799 2.50449V4.59967C332.799 4.86422 332.696 5.11794 332.511 5.305C332.327 5.49207 332.077 5.59716 331.816 5.59716H319.534C319.479 5.59135 319.423 5.59812 319.371 5.61697C319.319 5.63581 319.272 5.66626 319.233 5.70606C319.177 5.77269 319.146 5.85786 319.147 5.94565C319.147 6.16345 319.276 6.27234 319.534 6.27234H332.177C332.341 6.25301 332.506 6.27834 332.657 6.34572C332.808 6.4131 332.939 6.52009 333.035 6.65566C333.196 6.89631 333.282 7.17972 333.284 7.47021C333.276 7.74142 333.194 8.00505 333.048 8.23249C332.953 8.36966 332.823 8.47836 332.672 8.5473C332.521 8.61624 332.354 8.64289 332.19 8.6245H317.246Z" fill="white"/>
<path d="M336.651 20.8864C336.881 20.7587 337.071 20.5687 337.201 20.3376C337.342 20.0812 337.414 19.7908 337.407 19.4969C336.868 19.4673 336.358 19.2432 335.969 18.8653C335.784 18.6688 335.641 18.436 335.549 18.1813C335.456 17.9265 335.417 17.6552 335.432 17.3843C335.417 17.0913 335.465 16.7986 335.572 16.5263C335.68 16.254 335.844 16.0087 336.054 15.8074C336.511 15.4048 337.103 15.1972 337.707 15.2281C338.012 15.2139 338.316 15.2639 338.6 15.3748C338.885 15.4858 339.143 15.6553 339.36 15.8728C339.566 16.0866 339.727 16.3403 339.834 16.6187C339.941 16.8971 339.991 17.1945 339.983 17.4932V17.6892C340.032 18.7638 339.787 19.8313 339.274 20.7731C338.854 21.5019 338.203 22.0652 337.428 22.3717C337.247 22.4423 337.06 22.4977 336.87 22.5373C336.693 22.5699 336.511 22.5699 336.333 22.5373C336.141 22.5069 335.957 22.4324 335.797 22.3195C335.707 22.2496 335.639 22.1548 335.601 22.0467C335.563 21.9385 335.556 21.8215 335.582 21.7097C335.59 21.5463 335.655 21.391 335.765 21.2715C335.875 21.1519 336.023 21.0756 336.183 21.0563C336.253 21.028 336.324 21.0061 336.398 20.9909C336.487 20.9688 336.572 20.9336 336.651 20.8864Z" fill="white"/>
<path d="M119.616 44.7914V41.7423H116.53C116.329 43.3424 115.711 44.5373 114.675 45.3272C113.54 46.1465 112.17 46.563 110.777 46.512C109.974 46.5211 109.174 46.4006 108.407 46.1548C107.715 45.933 107.077 45.5615 106.54 45.0659C106.002 44.5569 105.584 43.9316 105.316 43.2364C105.01 42.4191 104.865 41.5491 104.887 40.6751V32.6603C104.865 31.7878 105.011 30.9192 105.316 30.1034C105.581 29.407 106 28.7812 106.54 28.2739C107.076 27.7767 107.714 27.405 108.407 27.1849C109.173 26.9376 109.973 26.8156 110.777 26.8234C112.088 26.7809 113.381 27.1456 114.482 27.8688C115.514 28.6047 116.219 29.7237 116.444 30.9833H119.599V28.6311C119.578 28.3324 119.623 28.0327 119.731 27.7539C119.839 27.4751 120.006 27.2242 120.222 27.0194C120.633 26.6592 121.16 26.4654 121.703 26.4749C122.247 26.4706 122.774 26.669 123.184 27.0325C123.403 27.2324 123.575 27.48 123.686 27.7569C123.798 28.0337 123.846 28.3326 123.828 28.6311V44.7827C123.828 45.0641 123.773 45.3428 123.667 45.6028C123.561 45.8629 123.405 46.0991 123.209 46.2981C123.013 46.4971 122.78 46.655 122.524 46.7627C122.268 46.8704 121.993 46.9258 121.716 46.9258C121.16 46.9212 120.628 46.6948 120.235 46.2954C119.842 45.8959 119.62 45.3557 119.616 44.7914ZM109.034 40.8363C109.005 41.1292 109.035 41.4249 109.123 41.7057C109.21 41.9864 109.352 42.2463 109.541 42.4697C109.706 42.6347 109.902 42.7641 110.117 42.8502C110.332 42.9362 110.563 42.9772 110.794 42.9707C111.026 42.9778 111.258 42.9371 111.474 42.851C111.69 42.7649 111.887 42.6352 112.052 42.4697C112.239 42.2451 112.379 41.9849 112.465 41.7044C112.552 41.4239 112.582 41.1288 112.554 40.8363V32.534C112.58 32.2436 112.548 31.9511 112.462 31.673C112.376 31.395 112.237 31.1369 112.052 30.9136C111.888 30.7458 111.691 30.6136 111.475 30.5253C111.259 30.4369 111.027 30.3941 110.794 30.3996C110.562 30.3929 110.33 30.4351 110.114 30.5236C109.899 30.6121 109.703 30.7448 109.541 30.9136C109.353 31.1354 109.212 31.3932 109.125 31.6716C109.038 31.9499 109.007 32.2432 109.034 32.534V40.8363ZM116.633 38.1356H119.638V34.6074H116.633V38.1356Z" fill="white"/>
<path d="M131.101 38.2447C130.477 38.2474 129.855 38.1594 129.255 37.9834C128.695 37.8253 128.173 37.5508 127.723 37.1775C127.281 36.8111 126.925 36.35 126.679 35.8272C126.409 35.2263 126.277 34.5709 126.293 33.9106V32.3861C126.289 31.9581 126.377 31.5345 126.551 31.1446C126.211 31.0968 125.903 30.9172 125.692 30.6437C125.504 30.3932 125.402 30.0874 125.4 29.7725C125.396 29.389 125.53 29.0172 125.778 28.7271C125.926 28.5663 126.108 28.4416 126.31 28.3623C126.512 28.2831 126.73 28.2515 126.946 28.2698H129.178C129.156 28.0034 129.193 27.7355 129.286 27.4854C129.379 27.2353 129.525 27.0093 129.715 26.8236C130.107 26.4977 130.604 26.3302 131.11 26.3532C131.609 26.3323 132.099 26.4999 132.484 26.8236C132.674 27.0094 132.823 27.2349 132.919 27.4846C133.016 27.7342 133.057 28.0021 133.042 28.2698H135.231C135.448 28.2485 135.667 28.2787 135.871 28.3581C136.074 28.4374 136.257 28.5638 136.404 28.7271C136.636 29.0239 136.761 29.3933 136.756 29.7725C136.756 30.0824 136.667 30.3855 136.498 30.6437C136.4 30.7815 136.275 30.8973 136.131 30.9835C135.987 31.0697 135.827 31.1246 135.661 31.1446C135.733 31.3369 135.795 31.5333 135.845 31.7327C135.894 31.9469 135.919 32.1661 135.918 32.3861V33.9106C135.934 34.5709 135.802 35.2263 135.532 35.8272C135.287 36.3491 134.933 36.81 134.493 37.1775C134.041 37.5501 133.517 37.8244 132.956 37.9834C132.353 38.1602 131.729 38.2482 131.101 38.2447ZM131.359 47.0001C130.701 47.014 130.045 46.9154 129.418 46.7082C128.91 46.5391 128.444 46.2596 128.053 45.8893C127.697 45.5407 127.425 45.1127 127.259 44.6392C127.083 44.124 126.995 43.5816 127.001 43.0362C126.995 42.4922 127.082 41.9513 127.259 41.4376C127.424 40.9601 127.696 40.5278 128.053 40.1744C128.443 39.7971 128.909 39.5103 129.418 39.3337C130.043 39.1197 130.7 39.0166 131.359 39.0288H141.405C142.058 39.0175 142.708 39.1176 143.328 39.325C143.837 39.4948 144.302 39.7775 144.689 40.1526C145.049 40.5102 145.324 40.9448 145.496 41.4245C145.677 41.942 145.767 42.4874 145.763 43.0362C145.787 43.5644 145.704 44.0919 145.519 44.5863C145.335 45.0808 145.052 45.5316 144.689 45.9111C143.971 46.6371 142.876 47.0001 141.405 47.0001H131.359ZM131.101 35.2174C131.388 35.2192 131.666 35.1191 131.887 34.9343C132.017 34.8057 132.117 34.6485 132.178 34.4748C132.239 34.3011 132.26 34.1156 132.239 33.9324V32.3643C132.259 32.1811 132.238 31.9957 132.177 31.8221C132.116 31.6484 132.017 31.4912 131.887 31.3624C131.665 31.1796 131.387 31.0796 131.101 31.0793C130.817 31.0795 130.541 31.1796 130.32 31.3624C130.189 31.4908 130.089 31.6478 130.027 31.8215C129.966 31.9951 129.944 32.1808 129.964 32.3643V33.9324C129.944 34.1159 129.965 34.3017 130.027 34.4754C130.089 34.6491 130.189 34.8061 130.32 34.9343C130.54 35.1191 130.816 35.2193 131.101 35.2174ZM140.246 44.0599C140.41 44.0793 140.576 44.0634 140.734 44.0131C140.892 43.9628 141.037 43.8793 141.16 43.768C141.327 43.5624 141.414 43.3022 141.405 43.0362C141.416 42.7778 141.328 42.5251 141.16 42.3306C141.034 42.225 140.888 42.1464 140.731 42.0992C140.573 42.0521 140.409 42.0374 140.246 42.0561H132.518C132.356 42.037 132.192 42.0515 132.035 42.0987C131.879 42.1458 131.734 42.2247 131.608 42.3306C131.437 42.5235 131.348 42.777 131.359 43.0362C131.35 43.303 131.438 43.5639 131.608 43.768C131.73 43.8796 131.875 43.9634 132.032 44.0138C132.189 44.0641 132.355 44.0798 132.518 44.0599H140.246ZM141.899 34.0849H141.002V36.4545C141.002 36.957 140.805 37.439 140.454 37.7943C140.104 38.1497 139.629 38.3493 139.134 38.3493C138.639 38.3493 138.164 38.1497 137.813 37.7943C137.463 37.439 137.266 36.957 137.266 36.4545V28.3307C137.248 28.0725 137.289 27.8134 137.386 27.5739C137.483 27.3343 137.633 27.1207 137.825 26.9499C138.185 26.6433 138.642 26.4766 139.113 26.4795C139.583 26.4789 140.039 26.6453 140.401 26.9499C140.594 27.1197 140.746 27.3328 140.844 27.5725C140.943 27.8122 140.985 28.0717 140.967 28.3307V30.7265H141.869V28.3307C141.85 28.0725 141.891 27.8134 141.988 27.5739C142.085 27.3343 142.235 27.1207 142.427 26.9499C142.793 26.6384 143.258 26.4714 143.736 26.4795C144.206 26.4814 144.661 26.6475 145.024 26.9499C145.221 27.1175 145.376 27.3299 145.477 27.5699C145.578 27.8098 145.621 28.0705 145.604 28.3307V36.4545C145.604 36.957 145.407 37.439 145.057 37.7943C144.707 38.1497 144.232 38.3493 143.736 38.3493C143.241 38.3493 142.766 38.1497 142.416 37.7943C142.066 37.439 141.869 36.957 141.869 36.4545L141.899 34.0849Z" fill="white"/>
<path d="M169.374 42.8185C169.669 42.8102 169.962 42.8667 170.233 42.984C170.455 43.0848 170.653 43.2334 170.813 43.4196C170.962 43.5933 171.072 43.7986 171.134 44.0207C171.197 44.2357 171.229 44.4587 171.229 44.6828C171.23 44.9124 171.194 45.1405 171.122 45.358C171.05 45.5741 170.938 45.7738 170.791 45.946C170.636 46.1332 170.44 46.2822 170.22 46.3816C169.954 46.4899 169.669 46.5418 169.383 46.5341H152.984C152.697 46.5418 152.412 46.4899 152.147 46.3816C151.927 46.2821 151.734 46.1331 151.58 45.946C151.431 45.7742 151.318 45.5744 151.245 45.358C151.173 45.1405 151.136 44.9124 151.138 44.6828C151.139 44.4585 151.173 44.2355 151.236 44.0207C151.298 43.7986 151.408 43.5933 151.558 43.4196C151.718 43.2334 151.916 43.0848 152.138 42.984C152.409 42.866 152.702 42.8095 152.997 42.8185H169.374ZM156.603 29.838H165.725V28.8144C165.716 28.5061 165.779 28.1999 165.91 27.9214C166.021 27.6867 166.186 27.4821 166.391 27.3246C166.601 27.1677 166.838 27.0525 167.091 26.9849C167.36 26.9128 167.637 26.8762 167.915 26.876C168.187 26.8776 168.458 26.9142 168.722 26.9849C168.972 27.0533 169.208 27.1686 169.417 27.3246C169.623 27.4839 169.792 27.6878 169.911 27.9214C170.046 28.1985 170.113 28.5051 170.104 28.8144V38.1054C170.104 38.452 169.969 38.7844 169.727 39.0295C169.485 39.2745 169.158 39.4122 168.816 39.4122H155.302C154.772 39.4253 154.243 39.3712 153.726 39.251C153.359 39.1665 153.026 38.9723 152.769 38.6935C152.526 38.3986 152.367 38.0415 152.31 37.6612C152.221 37.1317 152.181 36.5951 152.189 36.0582V28.8274C152.18 28.5191 152.244 28.213 152.374 27.9345C152.487 27.6972 152.657 27.4921 152.868 27.3377C153.081 27.1813 153.321 27.0661 153.576 26.9979C153.845 26.9258 154.122 26.8892 154.4 26.889C154.67 26.888 154.938 26.9292 155.195 27.011C155.446 27.0883 155.683 27.2091 155.894 27.3682C156.103 27.5329 156.274 27.7408 156.397 27.978C156.529 28.2486 156.595 28.5473 156.59 28.8492L156.603 29.838ZM165.725 35.2131V33.9064C165.724 33.7323 165.656 33.5656 165.534 33.4425C165.413 33.3194 165.249 33.2498 165.077 33.2486H157.251C157.079 33.2498 156.915 33.3194 156.794 33.4425C156.672 33.5656 156.604 33.7323 156.603 33.9064V35.2131C156.59 35.3892 156.64 35.564 156.744 35.7054C156.816 35.7681 156.899 35.8149 156.989 35.8427C157.08 35.8705 157.174 35.8786 157.268 35.8665H165.077C165.248 35.8665 165.413 35.7978 165.534 35.6754C165.655 35.553 165.724 35.3868 165.725 35.2131Z" fill="white"/>
<path d="M173.153 32.7343C173.136 31.8673 173.289 31.0055 173.604 30.1992C173.884 29.4957 174.313 28.8636 174.862 28.3479C175.415 27.8365 176.069 27.4504 176.781 27.2154C177.577 26.9507 178.411 26.8212 179.249 26.8321C180.087 26.8212 180.921 26.9507 181.718 27.2154C182.43 27.4511 183.088 27.8321 183.65 28.3348C184.205 28.846 184.638 29.4792 184.916 30.1861C185.229 30.9973 185.383 31.8631 185.367 32.7343V40.6185C185.383 41.4896 185.229 42.3554 184.916 43.1666C184.641 43.8716 184.212 44.5044 183.662 45.0179C183.103 45.5255 182.445 45.9084 181.731 46.1417C180.936 46.4011 180.105 46.5291 179.271 46.5207C178.433 46.5309 177.599 46.403 176.802 46.1417C176.09 45.9045 175.432 45.522 174.87 45.0179C174.314 44.5075 173.881 43.8741 173.604 43.1666C173.291 42.3554 173.137 41.4896 173.153 40.6185V32.7343ZM177.403 40.7056C177.358 41.3103 177.547 41.9091 177.931 42.3739C178.1 42.555 178.305 42.6978 178.532 42.7931C178.759 42.8885 179.004 42.9341 179.249 42.9271C179.497 42.9335 179.743 42.8876 179.972 42.7924C180.201 42.6972 180.408 42.5547 180.58 42.3739C180.969 41.9114 181.162 41.3117 181.117 40.7056V32.6472C181.16 32.0386 180.968 31.4367 180.58 30.9702C180.41 30.7874 180.203 30.6441 179.973 30.5501C179.744 30.4561 179.497 30.4137 179.249 30.4257C179.002 30.4272 178.759 30.4794 178.532 30.5789C178.306 30.6785 178.101 30.8234 177.931 31.005C177.55 31.4608 177.36 32.0507 177.403 32.6472V40.7056ZM189.96 46.9345C189.391 46.9345 188.845 46.705 188.442 46.2966C188.04 45.8881 187.814 45.3342 187.814 44.7565V28.6398C187.793 28.3391 187.841 28.0377 187.952 27.7584C188.064 27.4792 188.237 27.2294 188.458 27.0281C188.878 26.6696 189.411 26.4763 189.96 26.4836C190.509 26.4763 191.043 26.6696 191.463 27.0281C191.684 27.2294 191.857 27.4792 191.968 27.7584C192.08 28.0377 192.127 28.3391 192.107 28.6398V44.7565C192.107 45.3342 191.881 45.8881 191.478 46.2966C191.075 46.705 190.53 46.9345 189.96 46.9345Z" fill="white"/>
<path d="M201.917 42.9884V39.9175H199.106C197.675 39.9175 196.606 39.5807 195.899 38.907C195.538 38.5465 195.256 38.1124 195.072 37.6334C194.889 37.1543 194.808 36.6412 194.834 36.1279V35.6923C194.808 35.1778 194.89 34.6636 195.073 34.1832C195.257 33.7028 195.538 33.2671 195.899 32.9045C196.607 32.225 197.676 31.8809 199.106 31.8809H208.529V31.2275C208.533 31.0751 208.496 30.9243 208.421 30.792C208.348 30.6613 208.194 30.5959 207.949 30.5959H196.723C196.495 30.607 196.267 30.5648 196.057 30.4727C195.847 30.3806 195.661 30.241 195.512 30.0645C195.229 29.7272 195.076 29.2967 195.083 28.8536C195.081 28.4151 195.233 27.9903 195.512 27.6557C195.659 27.4759 195.844 27.3331 196.054 27.2385C196.264 27.144 196.493 27.1005 196.723 27.1112H209.151C209.776 27.0933 210.399 27.1786 210.997 27.3639C211.433 27.4986 211.831 27.7376 212.156 28.0608C212.445 28.3627 212.656 28.7323 212.77 29.1367C212.895 29.5977 212.956 30.0742 212.951 30.5524V33.9413C212.951 34.267 212.823 34.5795 212.596 34.8098C212.369 35.0402 212.061 35.1696 211.74 35.1696H200.149C199.664 35.1696 199.419 35.3744 199.419 35.7794V35.8883C199.419 36.2978 199.664 36.4982 200.149 36.4982H211.783C212.046 36.4912 212.306 36.5433 212.547 36.6506C212.742 36.7466 212.917 36.8797 213.062 37.0426C213.195 37.2014 213.293 37.387 213.35 37.5871C213.405 37.7856 213.434 37.9907 213.436 38.197C213.437 38.6146 213.301 39.0208 213.049 39.3513C212.893 39.5388 212.694 39.6845 212.47 39.7756C212.245 39.8667 212.002 39.9005 211.761 39.874H206.266V42.9884H212.32C212.606 42.9808 212.891 43.0326 213.157 43.1409C213.37 43.2319 213.561 43.3703 213.715 43.546C213.858 43.7101 213.964 43.9031 214.028 44.1123C214.091 44.3196 214.123 44.5355 214.123 44.7526C214.123 45.1973 213.971 45.6283 213.693 45.9722C213.52 46.1663 213.304 46.3166 213.063 46.4111C212.823 46.5056 212.564 46.5418 212.307 46.5167H195.821C195.565 46.5418 195.307 46.5056 195.067 46.4111C194.827 46.3165 194.612 46.1662 194.439 45.9722C194.161 45.6282 194.01 45.1972 194.01 44.7526C194.01 44.5353 194.044 44.3194 194.108 44.1123C194.171 43.9034 194.276 43.7104 194.418 43.546C194.571 43.3703 194.762 43.2319 194.976 43.1409C195.242 43.0326 195.526 42.9808 195.813 42.9884H201.917Z" fill="white"/>
<path d="M217.42 42.448C218.215 42.3552 218.997 42.1726 219.752 41.9035C220.453 41.654 221.091 41.2493 221.619 40.7187C222.18 40.1196 222.6 39.4007 222.851 38.6148C223.18 37.5442 223.333 36.4255 223.302 35.3043V31.6236C223.306 31.4801 223.257 31.3403 223.164 31.2316C223.112 31.1794 223.05 31.1389 222.981 31.1126C222.912 31.0864 222.839 31.075 222.765 31.0791H217.893C217.608 31.0899 217.325 31.0301 217.068 30.9049C216.856 30.7991 216.666 30.651 216.51 30.4693C216.363 30.2907 216.253 30.0831 216.188 29.8595C216.125 29.6432 216.091 29.4188 216.09 29.1931C216.091 28.9687 216.124 28.7457 216.188 28.5309C216.249 28.311 216.355 28.1063 216.498 27.9298C216.652 27.7471 216.842 27.5988 217.056 27.4942C217.324 27.3687 217.618 27.3091 217.914 27.32H224.225C225.44 27.32 226.307 27.5988 226.822 28.1476C227.372 28.7996 227.649 29.6436 227.595 30.4998V34.2459H230.858V28.6137C230.837 28.3182 230.885 28.022 230.997 27.7484C231.108 27.4747 231.281 27.2312 231.502 27.0369C231.917 26.685 232.442 26.4951 232.983 26.5011C233.254 26.5011 233.523 26.5498 233.777 26.6448C234.028 26.734 234.261 26.8699 234.464 27.0456C234.669 27.2264 234.834 27.449 234.949 27.699C235.074 27.9868 235.136 28.2991 235.129 28.6137V44.7871C235.129 45.3647 234.903 45.9187 234.501 46.3271C234.098 46.7356 233.552 46.9651 232.983 46.9651C232.413 46.9651 231.867 46.7356 231.465 46.3271C231.062 45.9187 230.836 45.3647 230.836 44.7871V37.9571H227.402C227.235 39.229 226.839 40.459 226.234 41.5855C225.705 42.5359 224.992 43.3684 224.139 44.0336C223.288 44.6855 222.328 45.1768 221.306 45.484C220.202 45.8171 219.064 46.0174 217.914 46.0808C217.658 46.0955 217.401 46.066 217.154 45.9937C216.911 45.9256 216.685 45.8069 216.489 45.6452C216.294 45.4827 216.135 45.2791 216.025 45.0485C215.905 44.7854 215.846 44.4977 215.854 44.2078C215.839 43.7854 215.976 43.3721 216.24 43.0448C216.545 42.7017 216.967 42.4885 217.42 42.448Z" fill="white"/>
</g>
<defs>
<clipPath id="clip0_3888_86320">
<rect width="340" height="47" fill="white"/>
</clipPath>
</defs>
</svg>
