<svg width="250" height="168" viewBox="0 0 250 168" fill="none" xmlns="http://www.w3.org/2000/svg">
<path d="M225 41C227.761 41 230 38.7614 230 36C230 33.2386 227.761 31 225 31C222.239 31 220 33.2386 220 36C220 38.7614 222.239 41 225 41Z" fill="#57BEB7"/>
<path d="M59 16C60.1046 16 61 15.1046 61 14C61 12.8954 60.1046 12 59 12C57.8954 12 57 12.8954 57 14C57 15.1046 57.8954 16 59 16Z" fill="#ECCD52"/>
<path d="M211 63C212.105 63 213 62.1046 213 61C213 59.8954 212.105 59 211 59C209.895 59 209 59.8954 209 61C209 62.1046 209.895 63 211 63Z" fill="#ECCD52"/>
<path d="M33.5 58C35.9853 58 38 55.9853 38 53.5C38 51.0147 35.9853 49 33.5 49C31.0147 49 29 51.0147 29 53.5C29 55.9853 31.0147 58 33.5 58Z" fill="#DC4C7C"/>
<g clip-path="url(#clip0_3887_84432)">
<path d="M108.509 118.041C106.001 113.971 100.583 112.78 96.5442 115.361L51.5938 144.273C47.3547 147.028 45.2978 150.949 46.2259 153.853C46.2259 153.853 47.5804 159.188 56.736 160.777C63.91 162.018 72.5138 157.575 75.9252 155.615C76.4018 155.342 76.8784 155.019 77.3048 154.647L106.879 128.837C109.989 126.107 110.691 121.565 108.509 118.041Z" fill="#896A52"/>
<path d="M109.036 118.041C108.911 117.817 108.76 117.619 108.61 117.42C108.936 120.126 107.957 122.905 105.775 124.816L76.2013 150.626C75.7748 150.999 75.3233 151.321 74.8216 151.594C71.4102 153.555 62.8065 158.022 55.6325 156.756C50.6157 155.912 47.9317 153.877 46.5521 152.264C46.527 152.81 46.6023 153.356 46.7528 153.853C46.7528 153.853 48.1073 159.188 57.2629 160.777C64.4369 162.018 73.0407 157.575 76.4521 155.615C76.9287 155.342 77.4053 155.019 77.8317 154.647L107.406 128.836C110.541 126.107 111.218 121.565 109.036 118.041Z" fill="#755946"/>
<path d="M61.3262 144.769V145.265L62.1289 145.042L62.0787 144.198L61.3262 144.744" fill="#604838"/>
<path d="M60.7744 143.975V145.042L61.3263 145.315L61.6523 144.496L60.8246 143.975" fill="#6B5245"/>
<path d="M61.1256 143.628L60.7744 143.975L61.3012 144.769L62.1039 144.248L61.4768 143.628C61.4015 143.528 61.2259 143.528 61.1256 143.628Z" fill="#70523E"/>
<path d="M91.1262 124.394L91.4773 124.742L91.8787 123.997L91.2516 123.451L91.1011 124.345" fill="#604838"/>
<path d="M90.1729 124.196L90.9254 124.965L91.5023 124.767L91.1511 123.948L90.1979 124.171" fill="#6B5245"/>
<path d="M90.1729 123.724V124.221L91.126 124.394L91.3016 123.451H90.4237C90.2732 123.451 90.1729 123.575 90.1729 123.724Z" fill="#70523E"/>
<path d="M92.3301 124.246V124.742L93.1328 124.519L93.0826 123.675L92.3301 124.196" fill="#604838"/>
<path d="M91.7783 123.451V124.518L92.3302 124.767L92.6562 123.948L91.8285 123.451" fill="#6B5245"/>
<path d="M92.1295 123.104L91.7783 123.451L92.3051 124.245L93.1078 123.724L92.4807 123.104C92.4054 122.98 92.2298 122.98 92.1295 123.104Z" fill="#70523E"/>
<path d="M98.2246 121.764L98.2747 121.342L97.447 121.466L97.4219 122.186L98.2246 121.789" fill="#604838"/>
<path d="M98.7264 122.459L98.7766 121.565L98.2749 121.317L97.8735 121.962L98.6762 122.459" fill="#6B5245"/>
<path d="M98.35 122.707L98.7262 122.459L98.2496 121.764L97.4219 122.136L97.9988 122.682C98.0741 122.781 98.2496 122.781 98.35 122.707Z" fill="#70523E"/>
<path d="M92.5811 125.834V126.33L93.4088 126.107L93.3587 125.263L92.5811 125.809" fill="#604838"/>
<path d="M92.0542 125.04V126.107L92.581 126.38L92.9321 125.561L92.0793 125.04" fill="#6B5245"/>
<path d="M92.4054 124.692L92.0542 125.04L92.581 125.834L93.3836 125.313L92.7565 124.692C92.6813 124.593 92.5057 124.593 92.4054 124.692Z" fill="#70523E"/>
<path d="M97.2461 122.731V123.004L97.6474 122.88L97.6224 122.434L97.2461 122.731Z" fill="#604838"/>
<path d="M96.9453 122.334V122.88L97.2463 123.029L97.4219 122.583L96.9704 122.334" fill="#6B5245"/>
<path d="M97.1458 122.136L96.9702 122.31L97.2461 122.731L97.6726 122.458L97.3465 122.136C97.2712 122.086 97.196 122.086 97.1458 122.136Z" fill="#70523E"/>
<path d="M60.4485 144.62L60.6492 144.422L59.997 143.95L59.6709 144.322L60.4234 144.645" fill="#604838"/>
<path d="M60.499 145.34L60.9254 144.893L60.6746 144.397L60.0977 144.496L60.4739 145.29" fill="#6B5245"/>
<path d="M60.0975 145.241L60.4738 145.34L60.4236 144.645L59.646 144.298L59.8216 144.968C59.8718 145.092 59.9972 145.191 60.0975 145.241Z" fill="#70523E"/>
<path d="M94.3872 121.516C94.3872 121.516 96.118 117.57 98.9274 118.935C101.737 120.324 100.182 120.399 100.182 120.399C100.182 120.399 97.2217 122.26 95.9424 122.359C94.6631 122.459 94.3872 121.516 94.3872 121.516Z" fill="#77B535"/>
<path d="M94.7383 120.771C94.7383 120.771 90.6998 119.431 89.8971 122.359C89.0944 125.288 90.173 124.221 90.173 124.221C90.173 124.221 93.4841 123.302 94.3871 122.434C95.2901 121.565 94.7383 120.771 94.7383 120.771Z" fill="#80BC3B"/>
<path d="M92.0796 123.625C92.9826 123.302 93.9609 122.881 94.3873 122.459C95.0395 121.813 94.9392 121.218 94.8388 120.945C93.7853 121.094 92.205 121.665 92.0796 123.625Z" fill="#71AA30"/>
<path d="M96.2682 120.87C96.2682 120.87 91.3768 120.622 92.8819 125.635C94.3869 130.673 94.5876 128.464 94.5876 128.464C94.5876 128.464 97.0458 125.486 97.2214 123.699C97.4221 121.888 96.2682 120.87 96.2682 120.87Z" fill="#77B535"/>
<path d="M94.6128 128.489C94.6128 128.489 96.3686 126.38 97.0208 124.618C96.494 125.362 95.4405 126.28 93.5091 126.33C93.3837 126.33 93.2582 126.33 93.1328 126.33C94.4121 130.45 94.6128 128.489 94.6128 128.489Z" fill="#8AC447"/>
<path d="M64.1606 147.301C64.1606 147.301 64.261 148.517 65.0887 149.063C65.8914 149.584 65.9667 148.145 66.6189 146.333C67.271 144.521 66.0169 142.213 66.0169 142.213L64.1606 147.301Z" fill="#513B2D"/>
<path d="M78.7344 138.49C78.7344 138.49 78.8849 139.706 79.9133 140.252C80.9418 140.774 81.0421 139.334 81.8448 137.523C82.6475 135.711 81.0672 133.403 81.0672 133.403L78.7344 138.49Z" fill="#513B2D"/>
<path d="M66.7192 142.387V142.883L67.5219 142.635L67.4718 141.792L66.7192 142.337" fill="#604838"/>
<path d="M66.1675 141.568V142.635L66.7193 142.908L67.0454 142.089L66.2176 141.568" fill="#6B5245"/>
<path d="M66.5187 141.245L66.1675 141.593L66.6942 142.387L67.4969 141.866L66.8698 141.245C66.7946 141.121 66.619 141.121 66.5187 141.245Z" fill="#70523E"/>
<path d="M66.7192 144.248V144.744L67.5219 144.521L67.4718 143.677L66.7192 144.198" fill="#604838"/>
<path d="M66.1675 143.454V144.521L66.7193 144.769L67.0454 143.975L66.2176 143.454" fill="#6B5245"/>
<path d="M66.5187 143.107L66.1675 143.454L66.6942 144.248L67.4969 143.727L66.8698 143.107C66.7946 143.007 66.619 143.007 66.5187 143.107Z" fill="#70523E"/>
<path d="M67.8233 141.99L67.3467 142.114L67.7731 142.834L68.5758 142.585L67.8484 141.99" fill="#604838"/>
<path d="M68.4502 141.27L67.4218 141.543L67.2964 142.139L68.1743 142.238L68.4753 141.32" fill="#6B5245"/>
<path d="M68.8768 141.518L68.4503 141.27L67.8232 141.99L68.5507 142.61L68.9771 141.866C69.0523 141.742 69.0022 141.593 68.8768 141.518Z" fill="#70523E"/>
<path d="M63.6592 141.518C63.6592 141.518 65.39 137.572 68.1994 138.937C71.0088 140.327 69.4536 140.402 69.4536 140.402C69.4536 140.402 66.4937 142.263 65.2144 142.362C63.91 142.462 63.6592 141.518 63.6592 141.518Z" fill="#77B535"/>
<path d="M64.0103 140.774C64.0103 140.774 59.9718 139.434 59.1691 142.362C58.3664 145.291 59.445 144.223 59.445 144.223C59.445 144.223 62.7561 143.305 63.6591 142.437C64.5621 141.568 64.0103 140.774 64.0103 140.774Z" fill="#80BC3B"/>
<path d="M61.3262 143.628C62.2292 143.305 63.2075 142.884 63.6339 142.462C64.2861 141.816 64.1857 141.221 64.0854 140.948C63.057 141.097 61.4767 141.667 61.3262 143.628Z" fill="#71AA30"/>
<path d="M65.5402 140.873C65.5402 140.873 60.6488 140.625 62.1538 145.638C63.6589 150.651 63.8595 148.467 63.8595 148.467C63.8595 148.467 66.3178 145.489 66.4934 143.702C66.6689 141.891 65.5402 140.873 65.5402 140.873Z" fill="#77B535"/>
<path d="M63.8598 148.492C63.8598 148.492 65.6157 146.383 66.2679 144.621C65.7411 145.365 64.6876 146.283 62.7561 146.333C62.6307 146.333 62.5053 146.333 62.3799 146.333C63.6842 150.453 63.8598 148.492 63.8598 148.492Z" fill="#8AC447"/>
<path d="M79.1357 134.594C79.1357 134.594 83.5003 133.577 84.5288 134.768C85.5572 135.959 85.6826 132.832 83.6007 131.864C81.5438 130.921 79.1357 134.594 79.1357 134.594Z" fill="#513B2D"/>
<path d="M75.875 135.165V135.661L76.6777 135.438L76.6275 134.594L75.875 135.14" fill="#604838"/>
<path d="M75.3232 134.371V135.438L75.8751 135.711L76.2263 134.892L75.3734 134.371" fill="#6B5245"/>
<path d="M75.6744 134.024L75.3232 134.371L75.85 135.165L76.6527 134.644L76.0256 134.024C75.9503 133.924 75.7998 133.924 75.6744 134.024Z" fill="#70523E"/>
<path d="M76.1509 136.778V137.274L76.9536 137.051L76.9034 136.207L76.1509 136.728" fill="#604838"/>
<path d="M75.5991 135.984V137.051L76.151 137.299L76.4771 136.505L75.6493 135.984" fill="#6B5245"/>
<path d="M75.9503 135.636L75.5991 135.984L76.1259 136.778L76.9286 136.257L76.3015 135.636C76.2262 135.537 76.0506 135.537 75.9503 135.636Z" fill="#70523E"/>
<path d="M81.0171 134.52L80.5405 134.669L80.992 135.364L81.7947 135.116L81.0673 134.52" fill="#604838"/>
<path d="M81.6695 133.8L80.616 134.073L80.5156 134.669L81.3936 134.793L81.6695 133.85" fill="#6B5245"/>
<path d="M82.096 134.048L81.6696 133.8L81.0425 134.52L81.7699 135.14L82.1963 134.396C82.2716 134.272 82.2214 134.123 82.096 134.048Z" fill="#70523E"/>
<path d="M82.823 135.016L83.0237 134.818L82.3715 134.346L82.0454 134.743L82.7979 135.041" fill="#604838"/>
<path d="M82.8735 135.736L83.2999 135.289L83.0491 134.793L82.4722 134.892L82.8484 135.686" fill="#6B5245"/>
<path d="M82.472 135.637L82.8483 135.736L82.7981 135.041L82.0205 134.694L82.1961 135.364C82.2463 135.488 82.3717 135.587 82.472 135.637Z" fill="#70523E"/>
<path d="M81.2427 135.562L81.0922 135.314L80.4902 135.835L80.7662 136.232L81.2678 135.587" fill="#604838"/>
<path d="M81.945 135.686L81.6189 135.165L81.0922 135.314L81.042 135.885L81.9199 135.711" fill="#6B5245"/>
<path d="M81.7443 136.034L81.9449 135.686L81.2426 135.562L80.7158 136.232H81.4182C81.5436 136.232 81.6941 136.158 81.7443 136.034Z" fill="#70523E"/>
<path d="M76.7027 131.815C76.7027 131.815 76.1509 130.648 77.7813 130.127C79.3867 129.606 80.9168 130.127 80.9168 130.127L79.4118 132.261L76.7027 131.815Z" fill="#8BBC4A"/>
<path d="M78.4839 132.46C78.4839 132.46 80.2147 128.514 83.0241 129.879C85.8335 131.269 85.3318 133.031 85.3318 133.031C85.3318 133.031 81.3434 133.229 80.0391 133.304C78.7347 133.378 78.4839 132.46 78.4839 132.46Z" fill="#77B535"/>
<path d="M78.835 131.715C78.835 131.715 74.7965 130.375 73.9938 133.304C73.1911 136.232 74.2697 135.165 74.2697 135.165C74.2697 135.165 77.5808 134.247 78.4838 133.378C79.3868 132.509 78.835 131.715 78.835 131.715Z" fill="#80BC3B"/>
<path d="M76.1509 134.569C77.0539 134.247 78.0322 133.825 78.4586 133.403C79.1108 132.758 79.0104 132.162 78.9101 131.889C77.8817 132.038 76.3014 132.609 76.1509 134.569Z" fill="#71AA30"/>
<path d="M80.3649 131.815C80.3649 131.815 75.4735 131.566 76.9785 136.579C78.4836 141.617 78.6842 139.409 78.6842 139.409C78.6842 139.409 81.1425 136.431 81.3181 134.644C81.4936 132.832 80.3649 131.815 80.3649 131.815Z" fill="#77B535"/>
<path d="M78.6845 139.409C78.6845 139.409 80.4404 137.299 81.0926 135.537C80.5658 136.282 79.5123 137.2 77.5808 137.25C77.4554 137.25 77.33 137.25 77.2046 137.25C78.509 141.394 78.6845 139.409 78.6845 139.409Z" fill="#8AC447"/>
<path d="M49.562 149.782C49.562 151.644 52.1457 153.48 53.8764 153.331C55.6072 153.182 51.8697 149.361 51.7192 148.368C51.5687 147.375 49.562 147.673 49.562 149.782Z" fill="#A0897A"/>
<path d="M150.65 23.7096C166.378 28.1271 179.421 38.8483 183.911 50.5622C184.262 49.6687 184.588 48.7505 184.839 47.8074C189.329 31.5271 176.336 14.0804 158.501 9.04246C145.182 5.2702 123.635 11.9461 117.113 26.0425C127.623 21.8483 140.842 20.9549 150.65 23.7096Z" fill="#E2AA3B"/>
<path d="M181.955 35.8951C182.03 34.7286 182.055 33.5622 182.03 32.3462C183.058 33.2892 184.062 34.2819 185.065 35.3491C184.864 34.406 184.588 33.463 184.287 32.5447C183.51 31.8002 182.732 31.0557 181.955 30.3608C181.879 29.1447 181.754 27.9038 181.603 26.6381C181.027 25.6454 180.399 24.6776 179.722 23.7345C179.822 24.2557 179.898 24.7768 179.998 25.3228C180.174 26.514 180.324 27.7549 180.45 29.0454C179.045 27.9038 177.615 26.8119 176.16 25.7943C176.286 24.6775 176.361 23.6104 176.411 22.5929C176.436 22.0717 176.461 21.5505 176.461 21.0542C177.389 21.6746 178.343 22.3447 179.271 23.0396C178.016 21.3768 176.587 19.7885 175.031 18.3243C175.031 18.3491 175.031 18.3739 175.031 18.3987C173.727 17.6046 172.423 16.86 171.068 16.19C171.194 15.8921 171.294 15.5943 171.394 15.2965C170.993 14.9987 170.592 14.7257 170.19 14.4527C170.065 14.8002 169.914 15.1724 169.789 15.5447C167.933 14.6513 166.051 13.8571 164.095 13.1374C164.622 12.6659 165.123 12.1943 165.625 11.7476C165.174 11.5243 164.697 11.3009 164.22 11.0775C163.668 11.5739 163.117 12.0702 162.54 12.6162C161.035 12.1199 159.53 11.6732 157.974 11.2761C159.053 10.7549 160.107 10.2586 161.085 9.81185C160.433 9.5885 159.78 9.36514 159.103 9.1666C158.05 9.66295 156.921 10.1841 155.792 10.7549C155.742 10.7549 155.692 10.7301 155.642 10.7301C153.434 10.2586 151.277 9.91112 149.17 9.66295C150.976 9.11696 152.732 8.64543 154.438 8.19871C152.958 8.02499 151.428 7.95054 149.847 7.97536C149.797 7.97536 149.772 8.00017 149.722 8.00017C148.267 8.42207 146.862 8.86879 145.533 9.3155C143.827 9.24105 142.197 9.19142 140.641 9.19142C138.886 9.61331 137.13 10.1345 135.424 10.7797C137.506 10.6308 139.713 10.5564 141.996 10.606C138.56 11.9213 135.6 13.3359 133.141 14.8498C130.508 15.0484 128.125 15.3462 126.043 15.6936C125.215 16.2892 124.412 16.9097 123.66 17.5797C125.692 17.1578 128.074 16.7856 130.683 16.4878C128.426 18.1754 126.72 19.9374 125.566 21.8235H125.541C122.38 22.3943 120.023 23.0148 118.543 23.4863C118.166 24.0819 117.84 24.6775 117.514 25.298C119.094 24.752 122.079 23.8834 126.043 23.1885L126.344 23.3374C126.344 23.3374 126.344 23.3374 126.369 23.3374C126.419 23.263 126.444 23.1885 126.494 23.114C129.755 22.5681 133.643 22.1213 137.907 22.0221C137.857 22.0469 137.832 22.0965 137.782 22.1213C138.509 22.1213 139.262 22.1213 139.989 22.1462C140.039 22.0965 140.115 22.0469 140.165 21.9973C140.692 21.9973 141.218 22.0221 141.77 22.0221C144.956 22.1213 148.493 22.4688 152.255 23.1637C152.03 23.4119 151.804 23.6848 151.603 23.933C152.105 24.0819 152.606 24.2308 153.108 24.4046C153.359 24.1067 153.635 23.8089 153.911 23.5111C157.347 24.2557 160.934 25.298 164.572 26.787C164.195 27.4571 163.794 28.152 163.367 28.8469C163.794 29.0703 164.195 29.3184 164.597 29.5418C165.048 28.7973 165.475 28.0527 165.876 27.333C168.51 28.4994 171.194 29.8644 173.827 31.5272C173.526 32.7681 173.175 34.0338 172.749 35.3243C173.15 35.6717 173.526 35.9943 173.903 36.3418C174.379 35.0016 174.756 33.6615 175.082 32.3462C176.938 33.587 178.769 34.952 180.575 36.4659C180.425 38.5009 180.098 40.5856 179.597 42.6206C179.973 43.117 180.324 43.6133 180.65 44.1345C181.252 42.0746 181.679 39.9155 181.904 37.6323C183.234 38.8235 184.538 40.0892 185.818 41.4294C185.818 40.7345 185.818 40.0396 185.767 39.3199C184.463 38.1535 183.234 36.987 181.955 35.8951ZM162.866 14.3038C164.973 15.0484 167.08 15.917 169.212 16.9345C168.71 18.1754 168.158 19.4659 167.531 20.8308C164.923 19.59 162.189 18.5476 159.379 17.6542C160.558 16.4878 161.712 15.371 162.866 14.3038ZM155.918 12.2936C157.673 12.6907 159.479 13.187 161.286 13.7827C160.132 14.8746 158.953 16.0162 157.774 17.2075C156.469 16.8352 155.165 16.5126 153.836 16.2148C152.506 15.9418 151.202 15.6936 149.923 15.4951C151.954 14.3535 153.986 13.2615 155.918 12.2936ZM145.708 10.7797C148.217 10.9535 150.901 11.3009 153.71 11.8221C152.933 12.2192 152.155 12.6411 151.377 13.0629C150.073 13.7578 148.844 14.4775 147.64 15.1724C143.626 14.6761 139.814 14.5768 136.327 14.6761C139.212 13.187 142.448 11.8965 145.708 10.7797ZM139.588 20.6075C134.998 20.5827 130.884 20.9797 127.472 21.5009C128.952 19.5403 131.085 17.8031 133.593 16.2396C135.976 16.0659 138.534 16.0162 141.193 16.0907C142.623 16.1403 144.103 16.2396 145.658 16.3885C143.401 17.8031 141.369 19.2177 139.588 20.6075ZM153.259 21.9476C149.295 21.1535 145.458 20.7564 141.896 20.6323C143.827 19.2177 145.859 17.8775 147.966 16.6367C150.725 17.0089 153.635 17.5549 156.645 18.3491C155.491 19.5403 154.362 20.7316 153.259 21.9476ZM165.148 25.5213C161.862 24.1812 158.451 23.0892 154.889 22.2951C155.968 21.1038 157.097 19.9374 158.2 18.8206C161.035 19.6644 163.969 20.7564 166.879 22.1462C166.378 23.2381 165.776 24.3797 165.148 25.5213ZM174.053 30.063C171.62 28.5491 169.112 27.2338 166.478 26.0921C167.08 24.9505 167.657 23.8338 168.184 22.7666C170.341 23.8586 172.498 25.0994 174.63 26.514C174.48 27.6557 174.279 28.8469 174.053 30.063ZM174.956 22.5929C174.931 23.3374 174.881 24.1067 174.806 24.9009C172.874 23.6352 170.868 22.4936 168.811 21.4513C169.438 20.0863 169.99 18.7958 170.491 17.5797C171.996 18.3491 173.501 19.2177 175.006 20.1608C175.006 20.9549 174.981 21.7491 174.956 22.5929ZM180.575 34.7286C178.869 33.3389 177.139 32.0732 175.307 30.8819C175.558 29.6907 175.759 28.5243 175.909 27.4075C177.465 28.4994 179.02 29.7155 180.525 31.0308C180.6 32.2469 180.625 33.4878 180.575 34.7286Z" fill="#D89E39"/>
<path d="M201.936 68.6823C206.418 52.3888 183.828 32.1192 151.479 23.409C119.13 14.6987 89.2734 20.8461 84.7915 37.1396C80.3096 53.4331 102.9 73.7027 135.249 82.4129C167.597 91.1232 197.454 84.9758 201.936 68.6823Z" fill="#EABC54"/>
<path d="M151.979 21.9472C119.696 13.2611 89.8968 19.3662 85.3315 35.5721C91.2764 20.483 120.223 15.0232 151.478 23.4363C183.836 32.1472 206.411 52.4232 201.947 68.7034C201.947 68.7283 201.921 68.7779 201.921 68.8027C202.122 68.2815 202.298 67.7604 202.448 67.2144C206.913 50.9093 184.338 30.6582 151.979 21.9472Z" fill="#D8AB50"/>
<path d="M163.794 76.4466C155.616 76.4466 146.661 75.2057 137.882 72.848C123.935 69.0758 111.218 62.6729 102.94 55.2772C96.5439 49.5444 93.3582 43.7371 94.4619 39.7663C95.3399 36.6145 98.9018 34.4057 101.761 33.1152C107.079 30.7079 114.604 29.3926 122.932 29.3926C131.109 29.3926 140.064 30.6335 148.844 32.9911C162.79 36.7386 175.533 43.1415 183.786 50.5619C190.182 56.2948 193.368 62.1021 192.264 66.0729C191.386 69.2247 187.824 71.4334 184.965 72.724C179.647 75.1313 172.122 76.4466 163.794 76.4466Z" fill="#99670D"/>
<path d="M139.438 157.55C161.797 157.55 179.923 154.173 179.923 150.006C179.923 145.839 161.797 142.461 139.438 142.461C117.078 142.461 98.9521 145.839 98.9521 150.006C98.9521 154.173 117.078 157.55 139.438 157.55Z" fill="#1C1D1D"/>
<path d="M92.631 68.5049C92.631 68.5049 91.4019 84.4874 79.6125 86.8947C70.6826 88.7063 69.4786 105.607 81.9955 105.235C94.5123 104.887 106.026 88.9793 107.205 85.2319C108.384 81.5093 92.631 68.5049 92.631 68.5049Z" fill="#F99635"/>
<path d="M88.8682 91.6597C88.8682 91.6597 89.5454 114.79 97.0706 132.534C104.596 150.279 114.93 150.874 122.531 147.847C130.131 144.844 135.775 141.99 143.601 141.32C151.427 140.625 88.8682 91.6597 88.8682 91.6597Z" fill="#F99635"/>
<path d="M192.088 65.5021C191.787 63.4919 191.461 61.5561 191.06 59.6948C189.68 56.7663 187.122 53.5401 183.535 50.3138C177.038 44.4817 167.757 39.27 157.297 35.4729C155.817 37.0364 155.09 38.3766 155.09 38.3766C155.09 38.3766 155.04 36.5897 154.287 34.4306C152.406 33.8101 150.524 33.2393 148.593 32.7182C144.053 31.5021 139.437 30.559 134.922 29.9634C131.586 32.8174 130.332 36.8875 130.006 38.2277C129.956 38.5007 129.931 38.6496 129.905 38.6496C129.905 38.6496 129.931 38.5007 130.006 38.2277C130.232 36.8131 130.482 32.1225 127.673 29.2685C125.992 29.1693 124.312 29.1196 122.681 29.1196C118.492 29.1196 114.504 29.4423 110.892 30.0875C106.302 33.0656 101.511 38.724 97.2964 49.1474C95.4904 53.5897 93.8098 58.8758 92.2797 65.2043C86.0338 90.9401 85.9334 121.044 113.099 135.339C140.265 149.633 187.899 138.912 192.339 96.9955C193.619 84.9342 193.368 74.3868 192.088 65.5021Z" fill="#FF9F36"/>
<path d="M192.916 89.8979C192.916 89.8979 190.132 148.815 164.371 149.237C138.61 149.659 148.744 132.832 132.815 127.124" fill="#FF9F36"/>
<path d="M115.031 84.4874C121.722 84.4874 127.147 79.1207 127.147 72.5005C127.147 65.8804 121.722 60.5137 115.031 60.5137C108.34 60.5137 102.916 65.8804 102.916 72.5005C102.916 79.1207 108.34 84.4874 115.031 84.4874Z" fill="white"/>
<path d="M112.623 80.6904C115.934 80.6904 118.618 78.0348 118.618 74.759C118.618 71.4832 115.934 68.8276 112.623 68.8276C109.312 68.8276 106.628 71.4832 106.628 74.759C106.628 78.0348 109.312 80.6904 112.623 80.6904Z" fill="#040000"/>
<path d="M136.879 85.0336C143.501 85.0336 148.869 79.7225 148.869 73.1709C148.869 66.6193 143.501 61.3081 136.879 61.3081C130.257 61.3081 124.889 66.6193 124.889 73.1709C124.889 79.7225 130.257 85.0336 136.879 85.0336Z" fill="white"/>
<path d="M132.138 81.584C135.449 81.584 138.133 78.9284 138.133 75.6526C138.133 72.3768 135.449 69.7212 132.138 69.7212C128.827 69.7212 126.143 72.3768 126.143 75.6526C126.143 78.9284 128.827 81.584 132.138 81.584Z" fill="#040000"/>
<path d="M110.089 76.6703C110.38 76.6703 110.616 76.4369 110.616 76.1491C110.616 75.8613 110.38 75.6279 110.089 75.6279C109.798 75.6279 109.562 75.8613 109.562 76.1491C109.562 76.4369 109.798 76.6703 110.089 76.6703Z" fill="white"/>
<path d="M129.931 77.6381C130.222 77.6381 130.457 77.4047 130.457 77.1169C130.457 76.829 130.222 76.5957 129.931 76.5957C129.64 76.5957 129.404 76.829 129.404 77.1169C129.404 77.4047 129.64 77.6381 129.931 77.6381Z" fill="white"/>
<path d="M167.832 85.3066C167.832 85.3066 169.965 96.9461 160.282 105.235C152.983 111.489 161.787 128.117 173.226 121.317C184.664 114.517 184.839 94.3402 183.911 90.3198C182.958 86.3242 167.832 85.3066 167.832 85.3066Z" fill="#E87F21"/>
<path d="M118.919 29.6903C116.912 29.5166 104.446 32.5939 98.5258 54.0115C93.1077 73.5925 102.138 49.3209 109.462 40.7093C115.508 33.5866 121.302 32.4699 121.076 30.9064C120.976 30.2611 120.474 29.8392 118.919 29.6903Z" fill="#FFAF45"/>
<path d="M109.412 87.2919C116.185 85.6291 129.278 90.7167 140.064 87.4656C146.436 85.5546 143.426 99.8247 125.942 99.1298C108.484 98.4597 105.298 88.3094 109.412 87.2919Z" fill="#040000"/>
<path d="M140.917 94.1666C138.961 93.7447 136.728 93.3476 134.32 93.0498C129.128 92.4294 122.23 95.4323 117.614 97.8892C119.922 98.5593 122.706 99.006 125.967 99.1549C133.492 99.4527 138.359 96.9462 140.917 94.1666Z" fill="#D05E53"/>
<path d="M131.887 37.1606C131.436 40.8832 141.419 35.4482 144.73 31.8C142.724 31.3285 140.717 30.9314 138.735 30.584C135.951 32.346 132.013 36.019 131.887 37.1606Z" fill="#FFAF45"/>
<path d="M158.376 40.3372C158.075 42.7445 162.113 41.3299 165.901 39.0715C164.346 38.3518 162.765 37.6569 161.135 36.9868C159.63 38.3518 158.451 39.7167 158.376 40.3372Z" fill="#FFAF45"/>
<path d="M199.268 66.5672C199.657 65.5407 198.932 64.3218 197.648 63.8449C196.364 63.3679 195.008 63.8135 194.618 64.84C194.228 65.8665 194.953 67.0854 196.237 67.5623C197.521 68.0393 198.878 67.5938 199.268 66.5672Z" fill="#754E11"/>
<path d="M91.4103 44.2352C91.7998 43.2086 91.0748 41.9898 89.7908 41.5128C88.5068 41.0359 87.1501 41.4814 86.7605 42.508C86.371 43.5345 87.0961 44.7534 88.38 45.2303C89.664 45.7073 91.0207 45.2617 91.4103 44.2352Z" fill="#754E11"/>
<path d="M194.622 64.8569C194.296 65.7007 194.722 66.6686 195.6 67.2642C196.453 65.2292 196.879 63.9387 196.955 63.7153C195.926 63.5664 194.948 64.0131 194.622 64.8569Z" fill="#754E11"/>
<path d="M198.309 64.187C198.184 64.5593 197.757 65.8498 196.955 67.7359C198.008 67.86 198.986 67.4133 199.287 66.5695C199.614 65.7257 199.162 64.7578 198.309 64.187Z" fill="#754E11"/>
<path d="M91.4269 44.2336C91.8283 43.2161 91.1008 42.0001 89.7965 41.5037C89.4704 41.3796 89.1443 41.33 88.8433 41.3052C88.8683 42.695 88.9185 44.0351 88.9687 45.3752C90.0724 45.549 91.1008 45.1023 91.4269 44.2336Z" fill="#754E11"/>
<path d="M86.7615 42.5212C86.4605 43.2906 86.8117 44.1592 87.5141 44.7548C87.4639 43.7621 87.4388 42.7446 87.4137 41.7271C87.1378 41.9008 86.887 42.1738 86.7615 42.5212Z" fill="#754E11"/>
<path fill-rule="evenodd" clip-rule="evenodd" d="M121.579 111.489L120.926 111.613L120.291 111.414L121.579 111.489ZM120.794 114.688C120.508 115.906 120.202 117.411 119.986 119.005C119.723 120.942 119.596 122.985 119.788 124.799C119.982 126.626 120.489 128.123 121.405 129.072C121.6 129.274 121.739 129.374 121.823 129.418C121.841 129.388 121.864 129.343 121.889 129.278C121.958 129.103 122.019 128.848 122.065 128.507C122.253 127.123 122.13 124.819 121.863 122.299C121.599 119.801 121.201 117.161 120.869 115.142C120.843 114.987 120.818 114.835 120.794 114.688ZM120.926 111.613C120.291 111.414 120.291 111.414 120.291 111.414L120.29 111.417L120.287 111.426L120.278 111.457C120.27 111.484 120.257 111.523 120.242 111.575C120.211 111.678 120.166 111.828 120.111 112.02C120.001 112.404 119.849 112.956 119.68 113.632C119.344 114.982 118.938 116.832 118.667 118.827C118.397 120.817 118.257 122.977 118.465 124.938C118.671 126.884 119.23 128.731 120.446 129.992C120.741 130.297 121.054 130.547 121.386 130.676C121.75 130.818 122.153 130.818 122.511 130.587C122.827 130.383 123.013 130.058 123.129 129.759C123.25 129.448 123.33 129.08 123.384 128.684C123.596 127.123 123.452 124.671 123.186 122.159C122.918 119.626 122.516 116.958 122.182 114.927C122.015 113.911 121.864 113.052 121.755 112.447C121.701 112.145 121.657 111.906 121.627 111.742C121.611 111.66 121.6 111.597 121.592 111.555L121.579 111.49C121.579 111.49 121.579 111.489 120.926 111.613Z" fill="#3A3836"/>
<path d="M120.574 116.304C119.546 116.13 118.868 115.187 119.019 114.169L119.32 112.457C119.496 111.439 120.449 110.769 121.477 110.918C122.506 111.092 123.183 112.035 123.032 113.052L122.731 114.765C122.581 115.782 121.603 116.452 120.574 116.304Z" fill="#3A3836"/>
<path d="M120.649 116.304C120.675 116.304 120.7 116.304 120.7 116.304C120.649 116.304 120.624 116.304 120.574 116.279L120.649 116.304Z" fill="#232221"/>
<path d="M121.603 110.944C121.578 110.944 121.578 110.944 121.553 110.919L121.427 110.894C121.402 110.894 121.377 110.894 121.377 110.894C121.427 110.894 121.452 110.894 121.502 110.919C121.527 110.919 121.578 110.919 121.603 110.944Z" fill="#232221"/>
<path d="M120.524 116.279H120.574C120.524 116.279 120.499 116.254 120.474 116.254C120.499 116.279 120.499 116.279 120.524 116.279Z" fill="#232221"/>
<path d="M197.657 63.8645L197.331 63.7652C197.206 63.7404 197.08 63.7156 196.98 63.6907C196.905 63.9141 196.478 65.2046 195.625 67.2396C193.619 72.0046 189.204 80.8396 181.453 89.3272C170.968 100.793 152.055 113.946 121.377 111.514C121.302 111.514 113.576 110.819 105.775 101.91C98.8016 93.9929 90.3985 77.5885 89.0189 45.3506C88.9687 44.0353 88.9186 42.6703 88.8935 41.2805C88.3667 41.2557 87.865 41.4046 87.4888 41.6528C87.5139 42.6703 87.5389 43.6878 87.5891 44.6805C88.141 58.901 90.0975 71.409 93.3584 81.5345C96.1929 90.3447 100.056 97.5418 104.822 102.927C113.024 112.184 120.951 112.854 121.302 112.879C123.81 113.078 126.294 113.177 128.727 113.177C139.638 113.177 149.747 111.191 158.852 107.245C167.757 103.399 175.734 97.6659 182.532 90.2207C190.433 81.5593 194.923 72.5506 196.98 67.6615C197.783 65.7506 198.209 64.4849 198.334 64.1126C198.109 64.063 197.908 63.9389 197.657 63.8645Z" fill="#3A3836"/>
<path d="M154.864 104.664C153.836 108.809 136.151 114.839 130.031 112.73C128.15 112.085 127.046 110.993 126.569 109.727C127.297 113.003 131.009 128.539 135.725 131.194C140.993 134.172 150.55 132.36 153.535 127.943C156.143 124.096 155.165 108.635 154.864 104.664Z" fill="#EDC29F"/>
<path d="M154.889 104.143C154.864 104.019 154.839 103.895 154.789 103.771C154.789 103.746 154.789 103.746 154.789 103.746C153.484 101.19 142.849 100.172 132.063 102.183C127.949 102.952 125.466 106.774 126.594 109.752C127.071 110.993 128.175 112.11 130.056 112.755C136.151 114.864 153.861 108.834 154.889 104.689C154.889 104.491 154.914 104.317 154.889 104.143Z" fill="#F4D8C3"/>
<path d="M132.188 105.558C135.876 104.863 139.739 104.515 143.351 104.515C148.066 104.515 151.428 105.136 153.058 105.905C153.685 105.359 154.036 104.863 154.137 104.491C154.162 104.391 154.162 104.292 154.162 104.218C154.162 104.168 154.137 104.118 154.112 104.069L154.087 104.044C153.485 102.952 149.622 101.86 143.351 101.86C139.739 101.86 135.876 102.232 132.188 102.902C130.282 103.25 128.601 104.391 127.698 105.98C127.021 107.146 126.871 108.437 127.272 109.479C127.272 109.504 127.297 109.504 127.297 109.528C127.397 109.231 127.523 108.933 127.698 108.635C128.601 107.072 130.282 105.93 132.188 105.558Z" fill="#896A52"/>
<path d="M130.282 112.035C131.034 112.283 132.038 112.432 133.242 112.432C136.703 112.432 141.72 111.34 146.285 109.553C149.596 108.263 151.829 106.972 153.058 105.905C151.428 105.136 148.066 104.515 143.351 104.515C139.738 104.515 135.876 104.887 132.188 105.557C130.282 105.905 128.601 107.047 127.698 108.635C127.523 108.933 127.397 109.23 127.297 109.528C127.723 110.645 128.752 111.514 130.282 112.035Z" fill="#D2F1F9"/>
<path d="M154.789 117.817C154.789 117.817 161.812 119.306 164.371 117.222C166.929 115.137 166.578 108.139 164.747 105.409C162.916 102.679 154.362 106.104 154.362 106.104L153.108 108.089C153.108 108.089 161.662 104.664 163.493 107.394C165.324 110.124 165.675 117.147 163.117 119.207C160.558 121.292 152.732 120.721 152.732 120.721L154.789 117.817Z" fill="#E0AE89"/>
<path d="M153.108 108.089V109.082C153.108 109.082 160.784 106.65 162.038 107.642C163.292 108.635 164.07 112.159 163.819 114.368C163.543 116.577 162.54 119.059 160.031 119.307C157.523 119.555 152.732 119.48 152.732 119.48V120.746C152.732 120.746 160.207 121.118 162.765 119.48C165.324 117.843 164.923 112.705 164.923 112.705C164.923 112.705 164.747 107.618 162.816 106.65C160.809 105.657 157.272 106.799 157.272 106.799C157.272 106.799 153.961 107.568 153.108 108.089Z" fill="#EDC29F"/>
<path d="M129.579 109.379C129.002 108.61 131.21 106.401 135.474 106.153C139.738 105.905 145.006 105.657 143.501 106.649C141.569 107.915 136.954 107.32 134.972 107.965C132.966 108.635 130.708 110.868 129.579 109.379Z" fill="#F8FEFF"/>
<path d="M129.88 121.366C129.88 121.366 135.85 121.887 137.13 125.933C138.033 128.812 136.979 130.4 135.951 130.747C135.173 130.995 134.446 130.251 134.446 130.251L129.88 121.366Z" fill="#E0AE89"/>
<path d="M135.499 130.127L108.609 120.051L110.716 114.616L131.586 122.384C131.586 122.384 134.646 122.905 136.051 125.387C137.456 127.869 136.703 129.308 135.499 130.127Z" fill="#EDC29F"/>
<path d="M110.14 117.073L133.693 125.56C133.693 125.56 135.976 125.759 132.213 123.774L111.168 115.981L110.14 117.073Z" fill="#F4D8C3"/>
<path d="M110.064 111.563L108.233 109.528L106.979 113.325C106.502 114.045 106.051 114.914 105.725 115.906C105.399 116.899 105.223 117.867 105.198 118.711L104.169 121.863H106.502C107.857 122.309 109.738 120.349 110.666 117.47C111.594 114.715 111.318 112.134 110.064 111.563Z" fill="#E0AE89"/>
<path d="M108.706 116.464C109.824 113.062 109.62 109.947 108.25 109.506C106.88 109.065 104.863 111.466 103.745 114.868C102.627 118.27 102.831 121.385 104.201 121.826C105.571 122.267 107.588 119.866 108.706 116.464Z" fill="#F4D8C3"/>
<path d="M104.521 121.639C104.42 121.639 104.345 121.614 104.27 121.59C103.718 121.416 103.367 120.622 103.291 119.431C103.216 118.14 103.467 116.552 103.994 114.939C105.072 111.663 106.828 109.677 107.907 109.677C108.007 109.677 108.082 109.702 108.158 109.727C108.71 109.901 109.061 110.695 109.136 111.886C109.211 113.177 108.96 114.765 108.434 116.378C107.38 119.679 105.599 121.639 104.521 121.639Z" fill="#EDC29F"/>
<path d="M106.803 112.78C106.778 112.78 106.778 112.78 106.753 112.78C106.653 112.755 106.603 112.631 106.578 112.432C106.553 112.234 106.603 111.961 106.703 111.712C106.904 111.191 107.205 110.869 107.405 110.869C107.431 110.869 107.431 110.869 107.456 110.869C107.556 110.893 107.606 111.018 107.631 111.216C107.656 111.415 107.606 111.688 107.506 111.936C107.305 112.457 106.979 112.78 106.803 112.78Z" fill="#896A52"/>
<path d="M104.797 115.262C104.772 115.262 104.772 115.262 104.746 115.262C104.646 115.237 104.596 115.113 104.571 114.914C104.546 114.716 104.596 114.443 104.696 114.194C104.897 113.673 105.198 113.351 105.399 113.351C105.424 113.351 105.424 113.351 105.449 113.351C105.549 113.375 105.599 113.499 105.624 113.698C105.649 113.897 105.599 114.17 105.499 114.418C105.298 114.939 104.972 115.262 104.797 115.262Z" fill="#896A52"/>
<path d="M107.556 115.013C107.531 115.013 107.531 115.013 107.506 115.013C107.405 114.988 107.355 114.864 107.33 114.666C107.305 114.467 107.355 114.194 107.456 113.946C107.656 113.425 107.957 113.102 108.158 113.102C108.183 113.102 108.183 113.102 108.208 113.102C108.308 113.127 108.359 113.251 108.384 113.449C108.409 113.648 108.359 113.921 108.258 114.169C108.058 114.69 107.731 115.013 107.556 115.013Z" fill="#896A52"/>
<path d="M105.549 117.247C105.524 117.247 105.524 117.247 105.499 117.247C105.399 117.222 105.348 117.098 105.323 116.899C105.298 116.701 105.348 116.428 105.449 116.18C105.649 115.659 105.95 115.336 106.151 115.336C106.176 115.336 106.176 115.336 106.201 115.336C106.302 115.361 106.352 115.485 106.377 115.683C106.402 115.882 106.352 116.155 106.251 116.403C106.051 116.924 105.725 117.247 105.549 117.247Z" fill="#896A52"/>
<path d="M106.301 119.48C106.276 119.48 106.276 119.48 106.251 119.48C106.151 119.455 106.101 119.331 106.076 119.133C106.051 118.934 106.101 118.661 106.201 118.413C106.402 117.892 106.703 117.569 106.904 117.569C106.929 117.569 106.929 117.569 106.954 117.569C107.054 117.594 107.104 117.718 107.129 117.917C107.154 118.115 107.104 118.388 107.004 118.636C106.803 119.158 106.477 119.48 106.301 119.48Z" fill="#896A52"/>
<path d="M104.044 120.225C104.019 120.225 104.019 120.225 103.994 120.225C103.894 120.2 103.843 120.076 103.818 119.877C103.793 119.679 103.843 119.406 103.944 119.158C104.144 118.637 104.446 118.314 104.646 118.314C104.671 118.314 104.671 118.314 104.696 118.314C104.797 118.339 104.847 118.463 104.872 118.661C104.897 118.86 104.847 119.133 104.747 119.381C104.546 119.902 104.22 120.225 104.044 120.225Z" fill="#896A52"/>
<path d="M119.872 115.361L120.524 111.564C120.599 111.142 120.976 110.869 121.402 110.894C120.424 110.794 119.521 111.464 119.345 112.432L119.044 114.145C118.869 115.113 119.521 116.056 120.474 116.254C120.073 116.18 119.797 115.783 119.872 115.361Z" fill="#2D2C2C"/>
<path d="M121.603 110.943C122.004 111.042 122.28 111.439 122.205 111.836L121.553 115.633C121.477 116.055 121.101 116.328 120.675 116.303C121.653 116.403 122.556 115.733 122.732 114.765L123.033 113.052C123.208 112.084 122.556 111.141 121.603 110.943Z" fill="#4C4B4A"/>
<path d="M121.578 115.659L122.23 111.862C122.305 111.44 122.029 111.043 121.628 110.968C121.603 110.968 121.553 110.943 121.528 110.943C121.478 110.943 121.453 110.943 121.402 110.918C120.976 110.869 120.6 111.167 120.524 111.589L119.872 115.386C119.797 115.808 120.073 116.205 120.474 116.279C120.499 116.279 120.55 116.304 120.575 116.304C120.625 116.304 120.65 116.304 120.7 116.329C121.126 116.354 121.503 116.056 121.578 115.659Z" fill="#3A3836"/>
<path d="M164.17 79.2017C164.17 79.2017 172.448 92.9754 164.17 101.637C157.924 108.189 165.173 121.789 175.207 114.393C185.241 106.997 185.441 87.4411 184.237 83.7185C183.033 79.9958 164.17 79.2017 164.17 79.2017Z" fill="#FF9F36"/>
<path d="M167.833 112.134C167.833 112.134 168.485 114.244 171.169 113.673C173.853 113.102 177.766 109.702 178.694 106.947C179.622 104.193 168.861 109.404 167.833 112.134Z" fill="#FFAF45"/>
</g>
<defs>
<clipPath id="clip0_3887_84432">
<rect width="157" height="153" fill="white" transform="translate(46 8)"/>
</clipPath>
</defs>
</svg>
