<svg width="340" height="44" viewBox="0 0 340 44" fill="none" xmlns="http://www.w3.org/2000/svg">
<g clip-path="url(#clip0_3888_86386)">
<path d="M11.5356 14.6396V17.2398C11.5356 17.7937 11.3181 18.3249 10.931 18.7166C10.5439 19.1082 10.0188 19.3283 9.47134 19.3283C8.92386 19.3283 8.39882 19.1082 8.01169 18.7166C7.62456 18.3249 7.40702 17.7937 7.40702 17.2398V14.6396H1.69993C1.45767 14.6632 1.21325 14.6292 0.986265 14.5403C0.759281 14.4514 0.556013 14.3101 0.392562 14.1277C0.131111 13.8041 -0.0118671 13.3991 -0.0122001 12.9811C-0.0127324 12.7757 0.0172743 12.5714 0.0768357 12.3751C0.138018 12.1765 0.238547 11.9925 0.372304 11.8345C0.513832 11.6635 0.694465 11.53 0.898514 11.4455C1.14919 11.3438 1.41777 11.295 1.68778 11.3022H17.2306C17.5005 11.2962 17.7689 11.345 18.0199 11.4455C18.2227 11.5322 18.4028 11.6654 18.5461 11.8345C18.6771 11.9938 18.7761 12.1774 18.8375 12.3751C18.8984 12.5712 18.9298 12.7755 18.9306 12.9811C18.9299 13.399 18.787 13.8039 18.5258 14.1277C18.3632 14.3101 18.1606 14.4514 17.9343 14.5403C17.708 14.6291 17.4642 14.6632 17.2225 14.6396H11.5356ZM3.82493 9.86897C3.32794 9.88074 2.83143 9.82846 2.34749 9.71337C2.00918 9.63639 1.7017 9.458 1.46514 9.2015C1.23904 8.93089 1.09185 8.60193 1.04012 8.25147C0.959653 7.75756 0.92307 7.25735 0.930828 6.75683V3.54231C0.924041 3.04454 0.960619 2.54713 1.04012 2.05585C1.09195 1.70174 1.23899 1.36885 1.46514 1.09354C1.70279 0.838426 2.00982 0.660302 2.34749 0.581676C2.83165 0.468225 3.32812 0.417317 3.82493 0.430166H15.1178C15.6146 0.417537 16.1109 0.468442 16.5951 0.581676C16.9312 0.661278 17.2368 0.839314 17.4735 1.09354C17.6996 1.36885 17.8467 1.70174 17.8985 2.05585C17.9796 2.54698 18.0174 3.04441 18.0118 3.54231V8.36613C18.0118 8.76471 17.8553 9.14696 17.5768 9.4288C17.2982 9.71063 16.9203 9.86897 16.5263 9.86897H3.82493ZM4.95819 6.14259C4.93784 6.29463 4.96933 6.44916 5.04732 6.58074C5.16654 6.66065 5.31034 6.69411 5.45209 6.67492H13.3732C13.5321 6.67492 13.6845 6.61108 13.7968 6.49742C13.9092 6.38376 13.9722 6.22961 13.9722 6.06888V4.13607C13.9877 3.99174 13.9519 3.84655 13.8711 3.72658C13.7498 3.65193 13.6074 3.62023 13.4663 3.63649H5.45209C5.31085 3.61647 5.16721 3.64844 5.04732 3.72658C4.97382 3.84941 4.94243 3.99337 4.95819 4.13607V6.14259Z" fill="white"/>
<path d="M23.8201 11.1998C23.3533 11.2091 22.8903 11.114 22.4641 10.9213C22.088 10.7495 21.7526 10.4981 21.4805 10.1842C21.2161 9.87614 21.014 9.51859 20.8856 9.13181C20.7497 8.7369 20.6813 8.32148 20.6832 7.90333V7.49384C20.6542 6.69971 20.9381 5.92644 21.4724 5.344C22.0121 4.78436 22.7947 4.51137 23.8201 4.52502H26.9772V3.82888C26.9772 3.5709 26.8072 3.41939 26.4713 3.41939H22.1404C21.9429 3.43648 21.7443 3.40219 21.5636 3.31976C21.383 3.23734 21.2262 3.10952 21.1082 2.94847C20.9021 2.67056 20.7887 2.33356 20.7844 1.98616C20.7849 1.62554 20.8982 1.27435 21.1082 0.982913C21.2262 0.821866 21.383 0.694049 21.5636 0.611623C21.7443 0.529197 21.9429 0.494891 22.1404 0.511987H28.1308C29.1535 0.511987 29.8916 0.750857 30.3449 1.2286C30.5743 1.4783 30.7525 1.77153 30.8692 2.09134C30.9859 2.41114 31.0388 2.75118 31.0249 3.0918V6.28584C31.0249 6.5302 30.9288 6.76455 30.758 6.93734C30.5873 7.11012 30.3557 7.2072 30.1141 7.2072H25.3986C25.3251 7.20247 25.2514 7.21273 25.1819 7.23734C25.1124 7.26196 25.0484 7.30045 24.9938 7.35052C24.9069 7.44466 24.8604 7.5698 24.8644 7.69859V7.82144C24.8615 7.88347 24.8714 7.94543 24.8937 8.00328C24.9161 8.06114 24.9502 8.11359 24.9938 8.15722C25.1062 8.25384 25.2514 8.30232 25.3986 8.29236H30.438C30.6437 8.28835 30.8475 8.33323 31.033 8.42339C31.1911 8.50854 31.3292 8.62728 31.4377 8.77146C31.5422 8.9148 31.6241 9.07365 31.6805 9.24238C31.7333 9.412 31.7607 9.58869 31.7616 9.76653C31.7595 10.1136 31.6536 10.4519 31.458 10.737C31.3398 10.8975 31.1826 11.0243 31.0018 11.1054C30.821 11.1865 30.6227 11.219 30.4258 11.1998H23.8201ZM23.2129 15.438C22.9764 15.4536 22.7392 15.4219 22.5149 15.3446C22.2905 15.2673 22.0835 15.146 21.9056 14.9876C21.7541 14.8355 21.6356 14.6532 21.5575 14.4523C21.4795 14.2514 21.4436 14.0362 21.4522 13.8205C21.4436 13.6048 21.4795 13.3897 21.5575 13.1887C21.6356 12.9878 21.7541 12.8055 21.9056 12.6535C22.0835 12.495 22.2905 12.3737 22.5149 12.2964C22.7392 12.2191 22.9764 12.1874 23.2129 12.203H35.7606C36.2769 12.1922 36.7929 12.2403 37.2987 12.3463C37.6471 12.4181 37.9651 12.5969 38.2094 12.8582C38.4389 13.1354 38.5887 13.4712 38.6425 13.8287C38.7246 14.3335 38.7624 14.8446 38.7558 15.3561V17.1579C38.7584 17.4285 38.7081 17.6969 38.6076 17.9477C38.5071 18.1985 38.3584 18.4266 38.1702 18.6189C37.9821 18.8112 37.758 18.9639 37.5111 19.068C37.2643 19.1722 36.9994 19.2258 36.7319 19.2258C36.4628 19.2285 36.1957 19.1769 35.9465 19.074C35.6973 18.971 35.4709 18.8188 35.2806 18.6262C35.0902 18.4337 34.9397 18.2046 34.838 17.9525C34.7362 17.7003 34.6853 17.4302 34.688 17.1579V15.9294C34.688 15.7991 34.6368 15.6741 34.5457 15.5819C34.4546 15.4898 34.331 15.438 34.2022 15.438H23.2129ZM34.6069 6.83866H33.1903C32.9216 6.84681 32.6547 6.79362 32.4091 6.68305C32.2064 6.58681 32.0268 6.44708 31.8829 6.27355C31.7422 6.10672 31.6387 5.91119 31.5793 5.70027C31.5203 5.49818 31.4903 5.28856 31.4903 5.07784C31.4906 4.8658 31.5206 4.65485 31.5793 4.45131C31.6375 4.24527 31.7382 4.05406 31.8748 3.8903C32.0197 3.71779 32.199 3.57824 32.401 3.48081C32.6538 3.3607 32.9316 3.30449 33.2105 3.31701H34.6272V1.98616C34.6083 1.70781 34.6533 1.42882 34.7586 1.17096C34.864 0.913107 35.0267 0.683367 35.2343 0.499702C35.627 0.171672 36.1216 -0.00529208 36.6308 0.000120582C36.8859 0.000699298 37.1391 0.0450085 37.3796 0.131161C37.6162 0.217988 37.8356 0.346962 38.0273 0.511987C38.2195 0.682067 38.374 0.891404 38.4805 1.12623C38.6003 1.39645 38.6597 1.69006 38.6546 1.98616V9.44712C38.6546 9.99014 38.4414 10.5109 38.0618 10.8949C37.6823 11.2789 37.1675 11.4946 36.6308 11.4946C36.094 11.4946 35.5793 11.2789 35.1998 10.8949C34.8202 10.5109 34.6069 9.99014 34.6069 9.44712V6.83866Z" fill="white"/>
<path d="M52.0116 14.6396V17.2398C52.0116 17.7937 51.7942 18.3249 51.4071 18.7166C51.0199 19.1082 50.4949 19.3283 49.9474 19.3283C49.3999 19.3283 48.8749 19.1082 48.4878 18.7166C48.1006 18.3249 47.8831 17.7937 47.8831 17.2398V14.6396H42.176C41.9337 14.6632 41.6893 14.6292 41.4623 14.5403C41.2354 14.4514 41.0321 14.3101 40.8686 14.1277C40.6072 13.8041 40.4642 13.3991 40.4639 12.9811C40.4633 12.7757 40.4933 12.5714 40.5529 12.3751C40.6141 12.1765 40.7146 11.9925 40.8484 11.8345C40.9899 11.6635 41.1705 11.53 41.3746 11.4455C41.6253 11.3438 41.8938 11.295 42.1639 11.3022H57.7067C57.9766 11.2962 58.2449 11.345 58.4959 11.4455C58.6988 11.5322 58.8789 11.6654 59.0222 11.8345C59.1532 11.9938 59.2522 12.1774 59.3136 12.3751C59.3745 12.5712 59.4059 12.7755 59.4067 12.9811C59.406 13.399 59.2631 13.8039 59.0019 14.1277C58.8393 14.3101 58.6367 14.4514 58.4104 14.5403C58.184 14.6291 57.9402 14.6632 57.6986 14.6396H52.0116ZM44.301 9.86897C43.804 9.88074 43.3075 9.82846 42.8236 9.71337C42.4853 9.63639 42.1778 9.458 41.9412 9.2015C41.7151 8.93089 41.5679 8.60193 41.5162 8.25147C41.4357 7.75756 41.3991 7.25735 41.4069 6.75683V3.54231C41.4001 3.04454 41.4367 2.54713 41.5162 2.05585C41.568 1.70174 41.7151 1.36885 41.9412 1.09354C42.1789 0.838426 42.4859 0.660302 42.8236 0.581676C43.3077 0.468225 43.8042 0.417317 44.301 0.430166H55.5938C56.0906 0.417537 56.587 0.468442 57.0712 0.581676C57.4073 0.661278 57.7129 0.839314 57.9496 1.09354C58.1757 1.36885 58.3228 1.70174 58.3746 2.05585C58.4557 2.54698 58.4935 3.04441 58.4878 3.54231V8.00578C58.4878 8.25045 58.4403 8.49274 58.3477 8.71879C58.2552 8.94484 58.1195 9.15024 57.9485 9.32326C57.7775 9.49627 57.5745 9.63351 57.351 9.72714C57.1276 9.82078 56.8881 9.86897 56.6462 9.86897H44.301ZM45.4343 6.14259C45.4139 6.29463 45.4454 6.44916 45.5234 6.58074C45.6426 6.66065 45.7864 6.69411 45.9282 6.67492H53.7927C53.9659 6.67493 54.132 6.6056 54.2548 6.48208C54.3777 6.35856 54.4473 6.19087 54.4483 6.01564V4.13607C54.4638 3.99174 54.4279 3.84655 54.3471 3.72658C54.2258 3.65193 54.0834 3.62023 53.9424 3.63649H45.9282C45.7869 3.61647 45.6433 3.64844 45.5234 3.72658C45.4499 3.84941 45.4185 3.99337 45.4343 4.13607V6.14259Z" fill="white"/>
<path d="M64.2966 11.1998C63.8299 11.2091 63.3668 11.114 62.9406 10.9213C62.5645 10.7495 62.2292 10.4981 61.9571 10.1842C61.6927 9.87614 61.4905 9.51859 61.3621 9.13181C61.2263 8.7369 61.1578 8.32148 61.1597 7.90333V7.49384C61.1307 6.69971 61.4146 5.92644 61.949 5.344C62.4887 4.78436 63.2712 4.51137 64.2966 4.52502H67.4538V3.82888C67.4538 3.5709 67.2838 3.41939 66.9478 3.41939H62.6169C62.4195 3.43648 62.2209 3.40219 62.0402 3.31976C61.8596 3.23734 61.7028 3.10952 61.5848 2.94847C61.3787 2.67056 61.2653 2.33356 61.2609 1.98616C61.2614 1.62554 61.3748 1.27435 61.5848 0.982913C61.7028 0.821866 61.8596 0.694049 62.0402 0.611623C62.2209 0.529197 62.4195 0.494891 62.6169 0.511987H68.6073C69.63 0.511987 70.3681 0.750857 70.8214 1.2286C71.0509 1.4783 71.2291 1.77153 71.3458 2.09134C71.4625 2.41114 71.5154 2.75118 71.5014 3.0918V5.78216C71.5014 5.96965 71.4648 6.15528 71.3938 6.32845C71.3228 6.50161 71.2186 6.65889 71.0874 6.79127C70.9561 6.92365 70.8004 7.02853 70.629 7.0999C70.4577 7.17127 70.2741 7.20774 70.0888 7.2072H65.8752C65.8017 7.20247 65.728 7.21273 65.6585 7.23734C65.5889 7.26196 65.525 7.30045 65.4704 7.35052C65.3834 7.44466 65.3369 7.5698 65.341 7.69859V7.82144C65.338 7.88347 65.348 7.94543 65.3703 8.00328C65.3926 8.06114 65.4267 8.11359 65.4704 8.15722C65.5828 8.25384 65.728 8.30232 65.8752 8.29236H71.3193C71.525 8.28835 71.7288 8.33323 71.9143 8.42339C72.0724 8.50854 72.2105 8.62728 72.319 8.77146C72.4236 8.9148 72.5054 9.07365 72.5618 9.24238C72.6147 9.412 72.642 9.58869 72.6429 9.76653C72.6408 10.1136 72.535 10.4519 72.3393 10.737C72.2211 10.8975 72.064 11.0243 71.8832 11.1054C71.7023 11.1865 71.504 11.219 71.3071 11.1998H64.2966ZM63.6895 15.438C63.453 15.4536 63.2158 15.4219 62.9914 15.3446C62.7671 15.2673 62.56 15.146 62.3821 14.9876C62.2307 14.8355 62.1121 14.6532 62.0341 14.4523C61.956 14.2514 61.9202 14.0362 61.9287 13.8205C61.9202 13.6048 61.956 13.3897 62.0341 13.1887C62.1121 12.9878 62.2307 12.8055 62.3821 12.6535C62.56 12.495 62.7671 12.3737 62.9914 12.2964C63.2158 12.2191 63.453 12.1874 63.6895 12.203H76.2371C76.7535 12.1922 77.2695 12.2403 77.7752 12.3463C78.1236 12.4181 78.4416 12.5969 78.6859 12.8582C78.9155 13.1354 79.0653 13.4712 79.1191 13.8287C79.2011 14.3335 79.239 14.8446 79.2323 15.3561V17.1579C79.235 17.4285 79.1847 17.6969 79.0842 17.9477C78.9837 18.1985 78.835 18.4266 78.6468 18.6189C78.4586 18.8112 78.2346 18.9639 77.9877 19.068C77.7408 19.1722 77.476 19.2258 77.2085 19.2258C76.9393 19.2285 76.6723 19.1769 76.4231 19.074C76.1739 18.971 75.9475 18.8188 75.7571 18.6262C75.5668 18.4337 75.4163 18.2046 75.3145 17.9525C75.2128 17.7003 75.1618 17.4302 75.1645 17.1579V15.9294C75.1645 15.7991 75.1133 15.6741 75.0222 15.5819C74.9311 15.4898 74.8076 15.438 74.6787 15.438H63.6895ZM75.0835 6.83866H73.6668C73.3982 6.84681 73.1312 6.79362 72.8857 6.68305C72.683 6.58681 72.5034 6.44708 72.3595 6.27355C72.2188 6.10672 72.1152 5.91119 72.0559 5.70027C71.9969 5.49818 71.9669 5.28856 71.9669 5.07784C71.9672 4.8658 71.9972 4.65485 72.0559 4.45131C72.1141 4.24527 72.2148 4.05406 72.3514 3.8903C72.4963 3.71779 72.6756 3.57824 72.8776 3.48081C73.1303 3.3607 73.4081 3.30449 73.6871 3.31701H75.1038V1.98616C75.0849 1.70781 75.1299 1.42882 75.2352 1.17096C75.3405 0.913107 75.5033 0.683367 75.7109 0.499702C76.1035 0.171672 76.5981 -0.00529208 77.1073 0.000120582C77.3624 0.000699298 77.6157 0.0450085 77.8562 0.131161C78.0928 0.217988 78.3121 0.346962 78.5038 0.511987C78.6961 0.682067 78.8505 0.891404 78.9571 1.12623C79.0769 1.39645 79.1363 1.69006 79.1311 1.98616V9.44712C79.1311 9.99014 78.9179 10.5109 78.5384 10.8949C78.1589 11.2789 77.6441 11.4946 77.1073 11.4946C76.5706 11.4946 76.0559 11.2789 75.6763 10.8949C75.2968 10.5109 75.0835 9.99014 75.0835 9.44712V6.83866Z" fill="white"/>
<path d="M86.7809 15.0081C87.4297 14.9468 88.0726 14.8331 88.7035 14.6683C89.2695 14.5232 89.8091 14.2882 90.3023 13.9721C90.7848 13.6497 91.1979 13.2318 91.5166 12.7436C91.8843 12.161 92.1448 11.5159 92.2856 10.8395H87.0237C86.7551 10.8477 86.4881 10.7945 86.2425 10.6839C86.0411 10.5856 85.8619 10.4462 85.7163 10.2744C85.5749 10.1112 85.4712 9.91814 85.4128 9.70931C85.3538 9.50722 85.3238 9.2976 85.3237 9.08688C85.3235 8.87882 85.3535 8.67187 85.4128 8.47264C85.472 8.2695 85.5726 8.08118 85.7082 7.91982C85.8504 7.7445 86.0305 7.60443 86.2344 7.51033C86.4833 7.40168 86.7528 7.34995 87.0237 7.35882H92.5082V4.79949C92.511 4.73218 92.5007 4.66499 92.4778 4.60175C92.4549 4.53851 92.4199 4.48046 92.3747 4.43094C92.3261 4.38199 92.2677 4.34394 92.2036 4.31925C92.1394 4.29456 92.0708 4.28378 92.0023 4.28762H87.2059C86.9363 4.29728 86.6683 4.2411 86.4247 4.12382C86.2241 4.0241 86.0453 3.88488 85.8986 3.71433C85.7579 3.5475 85.6543 3.35197 85.595 3.14104C85.536 2.93896 85.5059 2.72934 85.5058 2.51862C85.5062 2.30657 85.5362 2.09563 85.595 1.89208C85.6532 1.68605 85.7539 1.49484 85.8904 1.33108C86.0353 1.15857 86.2146 1.01902 86.4166 0.921588C86.6693 0.801477 86.9471 0.74527 87.2261 0.757793H93.2975C94.4443 0.757793 95.2606 1.01714 95.7463 1.53583C96.2647 2.14874 96.5261 2.94213 96.4749 3.7471V8.35389C96.5165 9.92891 96.2793 11.4988 95.7747 12.9893C95.3709 14.1432 94.7055 15.1852 93.8318 16.0319C92.99 16.8173 91.9843 17.4009 90.8892 17.7395C89.6938 18.1134 88.456 18.3308 87.2059 18.3865C86.9629 18.4002 86.7194 18.3726 86.4854 18.3046C86.2571 18.238 86.0439 18.1267 85.858 17.977C85.6743 17.8232 85.5264 17.6302 85.4249 17.4119C85.3119 17.1659 85.2566 16.8968 85.263 16.6256C85.2504 16.225 85.3796 15.8329 85.6273 15.52C85.776 15.361 85.9548 15.2338 86.1529 15.1459C86.351 15.058 86.5646 15.0112 86.7809 15.0081ZM101.352 19.2259C100.816 19.2259 100.301 19.0102 99.9212 18.6262C99.5417 18.2423 99.3285 17.7215 99.3285 17.1785V2.02722C99.3089 1.74457 99.3533 1.46111 99.4586 1.19852C99.5638 0.935921 99.727 0.701133 99.9357 0.512095C100.332 0.174397 100.835 -0.00736622 101.352 0.00022874C101.87 -0.00663041 102.373 0.175044 102.769 0.512095C102.978 0.701133 103.141 0.935921 103.246 1.19852C103.351 1.46111 103.396 1.74457 103.376 2.02722V17.1785C103.376 17.7215 103.163 18.2423 102.783 18.6262C102.404 19.0102 101.889 19.2259 101.352 19.2259Z" fill="white"/>
<path d="M107.93 16.1751C108.389 16.0821 108.799 15.823 109.083 15.4462C109.372 15.0317 109.514 14.5314 109.488 14.0253V12.7968H106.938C106.695 12.8198 106.449 12.7855 106.221 12.6967C105.993 12.6079 105.788 12.467 105.623 12.2849C105.356 11.9562 105.213 11.5429 105.218 11.1179C105.218 10.9098 105.248 10.7028 105.307 10.5036C105.367 10.2993 105.471 10.1107 105.611 9.9508C105.758 9.7813 105.942 9.64824 106.149 9.56178C106.406 9.45723 106.682 9.40841 106.958 9.41846H117.158C117.435 9.40972 117.711 9.4585 117.968 9.56178C118.171 9.64845 118.351 9.78163 118.494 9.9508C118.627 10.1134 118.726 10.3014 118.786 10.5036C118.846 10.7027 118.877 10.9096 118.879 11.1179C118.881 11.5424 118.738 11.9547 118.474 12.2849C118.311 12.4673 118.109 12.6086 117.882 12.6975C117.656 12.7864 117.412 12.8204 117.17 12.7968H113.475V14.0253C113.488 14.7798 113.361 15.53 113.099 16.2365C112.871 16.8491 112.519 17.407 112.066 17.8745C111.627 18.3219 111.104 18.6768 110.528 18.9187C109.927 19.1765 109.289 19.3328 108.638 19.3814C108.381 19.4097 108.12 19.3916 107.869 19.3282C107.64 19.2738 107.421 19.181 107.221 19.0538C107.035 18.9325 106.876 18.7719 106.756 18.5829C106.634 18.3931 106.564 18.1741 106.554 17.9482C106.497 16.9654 106.958 16.3839 107.93 16.1751ZM109.448 8.39473C108.854 8.40772 108.263 8.30626 107.707 8.09579C107.237 7.9188 106.811 7.63917 106.46 7.27681C106.128 6.92542 105.873 6.50674 105.712 6.04833C105.539 5.55274 105.454 5.03008 105.461 4.50454V4.4636C105.456 3.94088 105.541 3.42126 105.712 2.928C105.872 2.46933 106.127 2.05053 106.46 1.69953C106.813 1.3385 107.238 1.05908 107.707 0.88054C108.264 0.673463 108.854 0.573469 109.448 0.585705H114.183C114.773 0.573457 115.359 0.673476 115.912 0.88054C116.379 1.0631 116.803 1.34201 117.158 1.69953C117.495 2.04904 117.753 2.46811 117.915 2.928C118.088 3.42101 118.174 3.94064 118.17 4.4636V4.50454C118.176 5.03032 118.09 5.55297 117.915 6.04833C117.753 6.50795 117.495 6.9269 117.158 7.27681C116.805 7.63566 116.38 7.91476 115.912 8.09579C115.36 8.30628 114.773 8.40776 114.183 8.39473H109.448ZM109.448 4.52502C109.443 4.65082 109.466 4.77611 109.517 4.89117C109.567 5.00622 109.643 5.10793 109.739 5.1884C110.027 5.38804 110.375 5.47932 110.723 5.44638H112.929C113.272 5.47957 113.617 5.38814 113.9 5.1884C113.993 5.10578 114.066 5.00347 114.115 4.88879C114.164 4.77411 114.187 4.64989 114.183 4.52502V4.44312C114.186 4.31658 114.163 4.19084 114.114 4.07432C114.065 3.95779 113.992 3.85317 113.9 3.76746C113.619 3.56282 113.273 3.46826 112.929 3.50129H110.723C110.374 3.46858 110.025 3.56298 109.739 3.76746C109.644 3.85155 109.569 3.95567 109.519 4.07244C109.469 4.18921 109.444 4.31576 109.448 4.44312V4.52502ZM119.607 17.0965H116.167C115.926 17.1206 115.682 17.0897 115.455 17.0061C115.227 16.9224 115.021 16.7882 114.851 16.6132C114.582 16.2989 114.438 15.8947 114.446 15.479C114.444 15.0693 114.588 14.6725 114.851 14.361C115.023 14.1863 115.232 14.0526 115.461 13.9698C115.691 13.8869 115.936 13.8569 116.179 13.8819H119.619V1.98616C119.6 1.70781 119.645 1.42882 119.751 1.17096C119.856 0.913107 120.019 0.683367 120.226 0.499702C120.619 0.171672 121.114 -0.00529208 121.623 0.000120582C121.878 0.000699298 122.131 0.0450085 122.372 0.131161C122.608 0.217988 122.828 0.346962 123.019 0.511987C123.212 0.682067 123.366 0.891404 123.473 1.12623C123.592 1.39645 123.652 1.69006 123.647 1.98616V17.6124C123.647 18.1554 123.433 18.6762 123.054 19.0602C122.674 19.4442 122.16 19.6599 121.623 19.6599C121.086 19.6599 120.571 19.4442 120.192 19.0602C119.812 18.6762 119.599 18.1554 119.599 17.6124L119.607 17.0965Z" fill="white"/>
<path d="M125.557 15.1101C126.269 14.6332 126.893 14.033 127.399 13.337C127.904 12.6205 128.3 11.8308 128.573 10.9947C128.888 10.017 129.098 9.008 129.2 7.98493C129.328 6.72658 129.389 5.46212 129.382 4.19711V2.60009C129.363 2.32175 129.408 2.04275 129.514 1.7849C129.619 1.52704 129.782 1.2973 129.989 1.11363C130.382 0.785603 130.877 0.608639 131.386 0.614052C131.641 0.61463 131.894 0.65894 132.135 0.745092C132.37 0.831457 132.585 0.963632 132.77 1.13412C132.957 1.31192 133.108 1.52467 133.215 1.76064C133.331 2.01773 133.39 2.29712 133.389 2.57963V4.15618C133.396 5.51823 133.315 6.87927 133.147 8.23062C133.949 8.51625 134.701 8.93108 135.373 9.4591C136.02 9.99066 136.551 10.6532 136.931 11.4042C137.365 12.2854 137.652 13.2332 137.781 14.2092C137.867 14.8075 137.917 15.4106 137.931 16.0151C137.939 16.2762 137.896 16.5364 137.803 16.7802C137.711 17.024 137.571 17.2465 137.391 17.4344C137.212 17.6224 136.997 17.7719 136.759 17.8742C136.522 17.9765 136.266 18.0294 136.008 18.0298C135.502 18.0277 135.016 17.8243 134.657 17.4635C134.297 17.1027 134.092 16.6134 134.085 16.1011C134.053 14.0891 133.484 12.6982 132.377 11.9283C131.5 14.7429 130.057 16.6948 128.046 17.7841C127.797 17.9158 127.532 18.0148 127.257 18.0789C126.992 18.1415 126.719 18.1622 126.448 18.1403C126.205 18.1238 125.967 18.0613 125.747 17.9561C125.547 17.8626 125.37 17.7222 125.233 17.5466C125.094 17.3799 124.987 17.1882 124.918 16.9815C124.843 16.7717 124.813 16.5486 124.829 16.3263C124.843 16.0938 124.908 15.8674 125.019 15.6629C125.152 15.4377 125.337 15.2481 125.557 15.1101ZM139.906 9.3772H137.356C137.087 9.38536 136.82 9.33217 136.575 9.22159C136.372 9.12536 136.193 8.98563 136.049 8.8121C135.908 8.64527 135.804 8.44974 135.745 8.23881C135.686 8.03672 135.656 7.8271 135.656 7.61638C135.651 7.39651 135.679 7.17715 135.737 6.96529C135.795 6.75925 135.896 6.56805 136.032 6.40429C136.177 6.23178 136.357 6.09223 136.559 5.99479C136.805 5.8779 137.076 5.82177 137.348 5.83099H139.918V1.98176C139.899 1.70341 139.944 1.42441 140.05 1.16656C140.155 0.9087 140.318 0.678972 140.525 0.495308C140.918 0.167277 141.413 -0.00968661 141.922 -0.00427395C142.177 -0.00369523 142.43 0.0406015 142.67 0.126754C142.907 0.213581 143.126 0.342567 143.318 0.507592C143.51 0.677673 143.665 0.887009 143.772 1.12183C143.891 1.39205 143.951 1.68565 143.946 1.98176V17.2722C143.946 17.5282 143.896 17.7817 143.799 18.0181C143.702 18.2546 143.56 18.4695 143.381 18.6505C143.202 18.8315 142.99 18.9751 142.756 19.073C142.522 19.171 142.272 19.2214 142.019 19.2214H141.841C141.331 19.2203 140.841 19.0145 140.481 18.6491C140.121 18.2836 139.918 17.7885 139.918 17.2722L139.906 9.3772Z" fill="white"/>
<path d="M152.838 10.5647C152.341 10.5765 151.844 10.5242 151.361 10.4091C151.022 10.3322 150.715 10.1538 150.478 9.89728C150.252 9.62667 150.105 9.2977 150.053 8.94725C149.973 8.45333 149.936 7.95312 149.944 7.4526V3.66479C149.937 3.16702 149.974 2.66961 150.053 2.17833C150.105 1.82422 150.252 1.49133 150.478 1.21602C150.716 0.960907 151.023 0.782782 151.361 0.704156C151.845 0.590705 152.341 0.539797 152.838 0.552646H158.302C158.799 0.540017 159.295 0.590922 159.78 0.704156C160.116 0.783759 160.421 0.961794 160.658 1.21602C160.877 1.49361 161.017 1.82631 161.063 2.17833C161.144 2.66946 161.182 3.1669 161.176 3.66479V8.77526C161.176 9.24986 160.99 9.70503 160.658 10.0406C160.326 10.3762 159.876 10.5647 159.407 10.5647H152.838ZM161.075 13.2265C161.079 13.2673 161.079 13.3084 161.075 13.3493C161.071 13.3901 161.071 13.4313 161.075 13.4721C161.849 13.4618 162.621 13.5583 163.37 13.7588C164.138 13.9609 164.865 14.3007 165.515 14.762C166.189 15.2458 166.764 15.8578 167.207 16.5638V16.5843C167.367 16.8487 167.453 17.1516 167.458 17.4614C167.463 17.7712 167.386 18.0767 167.235 18.3462C167.084 18.6157 166.864 18.8394 166.599 18.994C166.333 19.1486 166.032 19.2286 165.726 19.2255H165.086C164.778 19.2198 164.478 19.1334 164.213 18.9747C163.948 18.8161 163.729 18.5907 163.576 18.3205C163.511 18.21 163.443 18.1076 163.37 18.0052C163.098 17.6452 162.761 17.3396 162.378 17.1043C161.976 16.8638 161.539 16.6884 161.083 16.5843C160.592 16.4732 160.087 16.4386 159.585 16.4819C159.089 16.9902 158.531 17.4332 157.926 17.8005C157.298 18.1874 156.634 18.5098 155.942 18.7628C155.273 19.0117 154.582 19.1968 153.878 19.3156C153.237 19.4327 152.583 19.4575 151.935 19.3893C151.699 19.3627 151.47 19.2963 151.255 19.1928C151.05 19.0917 150.864 18.9528 150.709 18.7833C150.555 18.6188 150.431 18.4273 150.345 18.2182C150.255 18.0024 150.217 17.7678 150.235 17.5343C150.243 17.1111 150.413 16.7076 150.709 16.4082C150.98 16.1298 151.347 15.9683 151.733 15.9578H152.138C152.274 15.9547 152.409 15.9382 152.542 15.9086C152.999 15.8513 153.448 15.7512 153.886 15.6097C154.331 15.4716 154.758 15.2835 155.161 15.0487C155.553 14.8204 155.911 14.5378 156.226 14.2092C156.533 13.8845 156.773 13.5018 156.934 13.0831C157.093 12.5434 157.42 12.0697 157.865 11.7318C158.277 11.4776 158.762 11.3696 159.241 11.4247C159.717 11.4306 160.178 11.5914 160.557 11.8833C160.739 12.0524 160.88 12.2613 160.97 12.4941C161.059 12.7269 161.095 12.9774 161.075 13.2265ZM153.789 7.02263C153.772 7.17192 153.803 7.32276 153.878 7.4526C153.936 7.49586 154.001 7.52717 154.07 7.54474C154.14 7.56231 154.212 7.56579 154.283 7.55498H156.691C156.868 7.55498 157.038 7.48379 157.163 7.35708C157.289 7.23037 157.359 7.05851 157.359 6.87931V4.07429C157.373 3.93003 157.338 3.7852 157.258 3.66479C157.142 3.57617 156.997 3.53652 156.853 3.55424H154.283C154.212 3.54337 154.139 3.54758 154.069 3.56661C153.999 3.58564 153.934 3.61907 153.878 3.66479C153.805 3.78785 153.774 3.93162 153.789 4.07429V7.02263ZM163.2 2.02682C163.18 1.74529 163.223 1.4629 163.326 1.2006C163.429 0.938308 163.59 0.702842 163.795 0.511694C164.187 0.17291 164.688 -0.00914298 165.203 -0.00017185C165.716 -0.00576126 166.213 0.179308 166.6 0.519892C166.807 0.708625 166.969 0.942171 167.074 1.2031C167.179 1.46403 167.224 1.7456 167.207 2.02682V4.52473H167.834C168.1 4.5146 168.364 4.57086 168.603 4.68853C168.793 4.78753 168.959 4.9273 169.089 5.09802C169.211 5.26634 169.301 5.45676 169.352 5.65902C169.404 5.86372 169.432 6.07414 169.433 6.28555C169.432 6.49562 169.405 6.70472 169.352 6.90798C169.3 7.11394 169.211 7.30835 169.089 7.48127C168.96 7.65859 168.789 7.79958 168.591 7.89076C168.354 7.99973 168.095 8.05293 167.834 8.04637H167.207V10.401C167.207 10.9404 166.997 11.4581 166.621 11.8415C166.246 12.2249 165.737 12.443 165.203 12.4484C164.667 12.4484 164.152 12.2327 163.772 11.8487C163.393 11.4648 163.18 10.944 163.18 10.401L163.2 2.02682Z" fill="white"/>
<path d="M175.828 10.4422C175.034 10.4498 174.242 10.3604 173.469 10.1761C172.814 10.0273 172.195 9.749 171.647 9.35708C171.139 8.97995 170.733 8.48018 170.465 7.90338C170.166 7.23244 170.021 6.50167 170.04 5.76584V4.9878C170.021 4.2507 170.167 3.51873 170.465 2.84615C170.734 2.27001 171.14 1.77048 171.647 1.39246C172.196 1.00203 172.815 0.723826 173.469 0.573471C174.242 0.389142 175.034 0.299764 175.828 0.30729C176.621 0.299974 177.412 0.389351 178.184 0.573471C178.838 0.723826 179.457 1.00203 180.006 1.39246C180.514 1.77035 180.921 2.26982 181.192 2.84615C181.483 3.52036 181.622 4.25226 181.596 4.9878V5.76584C181.622 6.5001 181.484 7.23081 181.192 7.90338C180.922 8.48045 180.515 8.9802 180.006 9.35708C179.458 9.749 178.839 10.0273 178.184 10.1761C177.412 10.3602 176.621 10.4496 175.828 10.4422ZM171.457 16.4208C172.199 16.2172 172.841 15.7432 173.258 15.09C173.633 14.4361 173.835 13.6958 173.845 12.9401C173.834 12.6796 173.886 12.4203 173.997 12.1848C174.108 11.9492 174.274 11.7447 174.481 11.5888C174.884 11.3141 175.363 11.1778 175.849 11.1998C176.326 11.2016 176.791 11.3596 177.172 11.6502C177.366 11.8136 177.517 12.0217 177.615 12.2569C177.712 12.4921 177.752 12.7475 177.731 13.0016C177.731 13.1121 177.731 13.2145 177.731 13.3169C177.731 13.4193 177.731 13.5257 177.702 13.6363C178.328 13.6908 178.936 13.8718 179.492 14.1686C180.043 14.488 180.495 14.9558 180.799 15.52C181.279 14.7493 181.519 13.8504 181.487 12.9401C181.475 12.6571 181.533 12.3754 181.657 12.1212C181.767 11.9072 181.924 11.7211 182.114 11.5765C182.304 11.4323 182.52 11.3279 182.75 11.2694C182.992 11.2078 183.241 11.1775 183.491 11.1793C183.968 11.1811 184.433 11.3391 184.814 11.6298C185.008 11.7932 185.159 12.0012 185.257 12.2364C185.354 12.4716 185.394 12.727 185.373 12.9811C185.373 13.2485 185.353 13.5155 185.312 13.7796C185.849 13.9103 186.361 14.1273 186.83 14.4225C187.285 14.7163 187.677 15.0992 187.983 15.5486C188.306 16.0373 188.545 16.5771 188.692 17.1456V17.1661C188.755 17.4125 188.76 17.6703 188.708 17.9191C188.655 18.168 188.546 18.401 188.389 18.5997C188.232 18.7984 188.031 18.9573 187.802 19.0639C187.574 19.1704 187.324 19.2217 187.073 19.2136H186.737C186.363 19.2083 186.001 19.0776 185.708 18.8419C185.415 18.6063 185.207 18.279 185.118 17.9114C185.097 17.8336 185.073 17.7599 185.049 17.6862C184.898 17.2722 184.613 16.9226 184.239 16.6952C183.702 17.5372 183.003 18.2614 182.183 18.8246C181.47 19.3394 180.629 19.6441 179.755 19.705C179.314 19.7496 178.87 19.6521 178.488 19.4265C178.333 19.3378 178.2 19.216 178.097 19.0695C177.994 18.923 177.925 18.7556 177.893 18.5789C177.866 18.4604 177.848 18.3399 177.84 18.2185C177.833 18.1055 177.844 17.9921 177.873 17.8827C177.851 17.5631 177.732 17.258 177.533 17.0089C177.334 16.7598 177.064 16.5788 176.759 16.4904C176.268 17.3265 175.601 18.0424 174.804 18.5871C174.063 19.1114 173.19 19.4137 172.287 19.4593C171.836 19.5037 171.383 19.3957 171 19.1521C170.842 19.0566 170.706 18.9289 170.601 18.7774C170.495 18.6258 170.421 18.4536 170.384 18.2717C170.294 17.8807 170.345 17.47 170.526 17.1129C170.738 16.7703 171.071 16.5227 171.457 16.4208ZM175.828 7.51437C176.296 7.53519 176.758 7.40153 177.144 7.13354C177.318 6.99119 177.456 6.80778 177.544 6.59934C177.632 6.3909 177.668 6.16378 177.65 5.93782V4.79124C177.666 4.5667 177.629 4.34143 177.541 4.13465C177.453 3.92787 177.317 3.74572 177.144 3.60371C176.762 3.32392 176.3 3.17992 175.828 3.19422C175.357 3.17867 174.894 3.32279 174.513 3.60371C174.34 3.74526 174.203 3.92734 174.115 4.13424C174.027 4.34113 173.99 4.56662 174.007 4.79124V5.93782C173.988 6.16385 174.024 6.39121 174.112 6.59977C174.2 6.80833 174.338 6.99167 174.513 7.13354C174.898 7.40262 175.361 7.5364 175.828 7.51437ZM183.903 2.02716C183.883 1.74369 183.928 1.45934 184.035 1.19646C184.142 0.93357 184.307 0.699297 184.519 0.512037C184.92 0.175092 185.426 -0.00636822 185.948 0.00017075C186.205 0.00145007 186.461 0.0457265 186.704 0.131211C186.947 0.217353 187.171 0.34938 187.364 0.520235C187.556 0.698829 187.71 0.914696 187.817 1.15494C187.936 1.42977 187.996 1.72719 187.992 2.02716V8.51762C187.994 8.78822 187.944 9.05667 187.843 9.30745C187.743 9.55822 187.594 9.78635 187.406 9.97865C187.218 10.171 186.994 10.3236 186.747 10.4278C186.5 10.5319 186.235 10.5856 185.968 10.5856C185.699 10.5883 185.432 10.5367 185.182 10.4337C184.933 10.3308 184.707 10.1786 184.516 9.98598C184.326 9.79341 184.176 9.56435 184.074 9.31222C183.972 9.06009 183.921 8.78995 183.924 8.51762L183.903 2.02716Z" fill="white"/>
<path d="M191.331 15.2126C191.888 15.128 192.432 14.9725 192.95 14.7499C193.437 14.5384 193.867 14.2127 194.205 13.7998C194.588 13.3036 194.863 12.7316 195.014 12.1209C195.23 11.258 195.329 10.3695 195.31 9.4797V4.72959C195.313 4.66229 195.302 4.59508 195.279 4.53184C195.256 4.4686 195.221 4.41056 195.176 4.36105C195.128 4.31209 195.069 4.27403 195.005 4.24934C194.941 4.22465 194.872 4.21388 194.804 4.21772H191.707C191.439 4.22587 191.172 4.17269 190.926 4.06211C190.725 3.96385 190.546 3.82442 190.4 3.65262C190.261 3.49273 190.157 3.30412 190.097 3.0998C190.037 2.90057 190.007 2.69361 190.007 2.48556C190.007 2.27751 190.037 2.07056 190.097 1.87132C190.156 1.66818 190.256 1.47986 190.392 1.3185C190.534 1.14318 190.714 1.00311 190.918 0.909012C191.167 0.800362 191.437 0.748629 191.707 0.757502H195.978C196.461 0.749498 196.943 0.797589 197.415 0.900827C197.765 0.976545 198.092 1.13826 198.366 1.37174C198.616 1.60193 198.794 1.90069 198.88 2.23168C198.991 2.65919 199.042 3.10018 199.034 3.54206V7.55508H200.45V1.71981C200.434 1.47843 200.472 1.23646 200.559 1.01131C200.646 0.786157 200.782 0.583411 200.956 0.417628C201.294 0.125351 201.726 -0.0306614 202.171 -0.0205321C202.398 -0.0204355 202.623 0.0168987 202.838 0.0900265C203.05 0.165035 203.245 0.280426 203.413 0.429912C203.582 0.581127 203.72 0.764866 203.818 0.970433C203.924 1.20528 203.977 1.46148 203.972 1.71981V17.4239C203.972 17.8963 203.786 18.3494 203.456 18.6834C203.126 19.0175 202.678 19.2052 202.211 19.2052C201.744 19.2052 201.296 19.0175 200.966 18.6834C200.636 18.3494 200.45 17.8963 200.45 17.4239V10.872H198.973C198.898 12.0726 198.624 13.2519 198.163 14.3609C197.79 15.2338 197.251 16.0241 196.577 16.6868C195.955 17.2807 195.217 17.7368 194.411 18.0258C193.602 18.3196 192.759 18.5028 191.902 18.5704C191.404 18.6213 190.903 18.5093 190.473 18.251C190.267 18.1219 190.099 17.9406 189.983 17.7251C189.868 17.5096 189.811 17.2674 189.817 17.0226C189.774 16.5946 189.893 16.1659 190.149 15.8227C190.456 15.4797 190.877 15.2626 191.331 15.2126ZM204.951 1.74028C204.935 1.4951 204.976 1.24951 205.071 1.02332C205.166 0.79713 205.312 0.59667 205.498 0.438098C205.853 0.149379 206.297 -0.00549899 206.752 -6.24303e-05C206.98 3.41367e-05 207.205 0.0373809 207.42 0.110509C207.632 0.185517 207.827 0.300896 207.995 0.450382C208.164 0.601597 208.302 0.785348 208.4 0.990916C208.506 1.22576 208.559 1.48195 208.554 1.74028V17.4443C208.554 17.9168 208.368 18.3698 208.038 18.7039C207.708 19.038 207.26 19.2256 206.793 19.2256H206.712C206.245 19.2256 205.797 19.038 205.467 18.7039C205.137 18.3698 204.951 17.9168 204.951 17.4443V1.74028Z" fill="white"/>
<path d="M228.083 7.24815H225.25V9.226C225.25 9.57027 225.115 9.90045 224.874 10.1439C224.633 10.3873 224.307 10.5241 223.967 10.5241H217.175C216.678 10.5359 216.181 10.4836 215.697 10.3685C215.359 10.2915 215.052 10.1131 214.815 9.85662C214.589 9.586 214.442 9.25705 214.39 8.90659C214.31 8.41268 214.273 7.91246 214.281 7.41194V3.66509C214.274 3.16731 214.311 2.6699 214.39 2.17863C214.442 1.82452 214.589 1.49162 214.815 1.21631C215.053 0.961199 215.36 0.783074 215.697 0.704449C216.182 0.590997 216.678 0.540089 217.175 0.552938H222.356C222.853 0.540309 223.349 0.591214 223.833 0.704449C224.169 0.784051 224.475 0.962086 224.712 1.21631C224.938 1.49162 225.085 1.82452 225.137 2.17863C225.218 2.66976 225.255 3.16719 225.25 3.66509V4.05411H228.083V1.98616C228.064 1.70781 228.109 1.42882 228.215 1.17096C228.32 0.913107 228.483 0.683367 228.69 0.499702C229.083 0.171672 229.578 -0.00529208 230.087 0.000120582C230.342 0.000699298 230.595 0.0450085 230.836 0.131161C231.072 0.217988 231.292 0.346962 231.483 0.511987C231.675 0.682067 231.83 0.891404 231.936 1.12623C232.056 1.39645 232.116 1.69006 232.111 1.98616V9.03763C232.111 9.58065 231.897 10.1014 231.518 10.4854C231.138 10.8694 230.624 11.0851 230.087 11.0851C229.55 11.0851 229.035 10.8694 228.656 10.4854C228.276 10.1014 228.063 9.58065 228.063 9.03763L228.083 7.24815ZM216.689 15.1104C216.453 15.126 216.215 15.0943 215.991 15.017C215.767 14.9397 215.56 14.8184 215.382 14.66C215.23 14.5079 215.112 14.3256 215.034 14.1247C214.956 13.9238 214.92 13.7086 214.928 13.4929C214.92 13.2772 214.956 13.0621 215.034 12.8611C215.112 12.6602 215.23 12.4779 215.382 12.3259C215.56 12.1682 215.767 12.0476 215.991 11.971C216.216 11.8944 216.453 11.8633 216.689 11.8795H229.237C229.753 11.8687 230.269 11.9168 230.775 12.0228C231.123 12.0946 231.441 12.2734 231.686 12.5347C231.915 12.812 232.065 13.1477 232.119 13.5052C232.201 14.01 232.239 14.5211 232.232 15.0326V17.162C232.235 17.4326 232.184 17.701 232.084 17.9518C231.983 18.2026 231.835 18.4307 231.646 18.623C231.458 18.8153 231.234 18.9679 230.987 19.0721C230.74 19.1763 230.476 19.2299 230.208 19.2299C229.939 19.2326 229.672 19.181 229.423 19.0781C229.173 18.9751 228.947 18.8229 228.757 18.6303C228.566 18.4377 228.416 18.2087 228.314 17.9566C228.212 17.7044 228.161 17.4343 228.164 17.162V15.6059C228.164 15.4756 228.113 15.3506 228.022 15.2584C227.931 15.1663 227.807 15.1145 227.678 15.1145L216.689 15.1104ZM218.106 7.00245C218.093 7.14496 218.124 7.28795 218.195 7.41194C218.252 7.45519 218.318 7.48651 218.387 7.50408C218.457 7.52165 218.529 7.52513 218.6 7.51432H221.514V4.03363C221.528 3.88937 221.493 3.74454 221.413 3.62413C221.297 3.53551 221.152 3.49586 221.008 3.51358H218.579C218.508 3.50271 218.435 3.50692 218.365 3.52595C218.296 3.54498 218.231 3.57841 218.175 3.62413C218.102 3.74719 218.07 3.89096 218.086 4.03363L218.106 7.00245Z" fill="white"/>
<path d="M248.321 10.8926H245.67V13.3291C245.684 14.1422 245.547 14.9506 245.265 15.7124C245.019 16.3676 244.632 16.9592 244.132 17.4445C243.627 17.9184 243.026 18.2749 242.371 18.4887C241.632 18.7291 240.86 18.8467 240.084 18.8368C239.308 18.847 238.536 18.7294 237.797 18.4887C237.139 18.2731 236.535 17.917 236.025 17.4445C235.518 16.963 235.128 16.3704 234.883 15.7124C234.6 14.9512 234.462 14.1423 234.478 13.3291V5.8354C234.463 5.02088 234.6 4.21076 234.883 3.44806C235.129 2.79173 235.519 2.20072 236.025 1.72C236.535 1.24748 237.139 0.891385 237.797 0.675794C238.536 0.435099 239.308 0.317539 240.084 0.327722C240.86 0.317829 241.632 0.435383 242.371 0.675794C243.026 0.889653 243.627 1.24606 244.132 1.72C244.631 2.20454 245.018 2.79462 245.265 3.44806C245.546 4.21129 245.684 5.02103 245.67 5.8354V7.39147H248.321V1.98616C248.302 1.70781 248.347 1.42882 248.453 1.17096C248.558 0.913107 248.721 0.683367 248.928 0.499702C249.321 0.171672 249.816 -0.00529208 250.325 0.000120582C250.58 0.000699298 250.833 0.0450085 251.074 0.131161C251.31 0.217988 251.53 0.346962 251.721 0.511987C251.913 0.682067 252.068 0.891404 252.174 1.12623C252.294 1.39645 252.354 1.69006 252.349 1.98616V17.2029C252.349 17.7459 252.135 18.2667 251.756 18.6507C251.376 19.0347 250.862 19.2504 250.325 19.2504C249.788 19.2504 249.273 19.0347 248.894 18.6507C248.514 18.2667 248.301 17.7459 248.301 17.2029L248.321 10.8926ZM238.445 13.4315C238.399 13.9854 238.561 14.5364 238.898 14.9753C239.048 15.1411 239.232 15.272 239.437 15.3589C239.641 15.4459 239.862 15.4868 240.084 15.479C240.306 15.4868 240.526 15.4458 240.73 15.3588C240.934 15.2719 241.117 15.141 241.266 14.9753C241.605 14.537 241.768 13.9859 241.724 13.4315V5.73712C241.767 5.18152 241.604 4.62949 241.266 4.18924C241.116 4.02494 240.933 3.89526 240.729 3.80905C240.525 3.72284 240.305 3.68212 240.084 3.68966C239.863 3.68206 239.642 3.72274 239.438 3.80894C239.233 3.89513 239.049 4.02483 238.898 4.18924C238.562 4.63007 238.4 5.18205 238.445 5.73712V13.4315Z" fill="white"/>
<path d="M257.712 18.3454C257.221 18.3585 256.731 18.3034 256.255 18.1816C255.913 18.0949 255.604 17.91 255.364 17.6492C255.134 17.3759 254.976 17.0474 254.907 16.6951C254.811 16.2278 254.768 15.7512 254.777 15.2742V2.70274C254.749 2.41688 254.785 2.12827 254.884 1.8587C254.982 1.58913 255.139 1.34566 255.344 1.14667C255.759 0.819218 256.276 0.652239 256.801 0.675756C257.312 0.650024 257.814 0.821212 258.206 1.15486C258.399 1.35916 258.547 1.60296 258.64 1.86992C258.733 2.13687 258.768 2.42082 258.744 2.70274V5.83536H262.184V2.70274C262.157 2.41869 262.192 2.13204 262.286 1.86312C262.381 1.5942 262.533 1.3496 262.731 1.14667C263.13 0.819373 263.634 0.651796 264.148 0.675756C264.665 0.649679 265.173 0.820602 265.572 1.15486C265.766 1.35916 265.914 1.60296 266.007 1.86992C266.1 2.13687 266.135 2.42082 266.111 2.70274V7.28906H268.559V1.96566C268.541 1.68731 268.586 1.4083 268.691 1.15044C268.796 0.892587 268.959 0.662859 269.167 0.479195C269.559 0.151164 270.054 -0.0257999 270.563 -0.0203872C270.818 -0.0198085 271.071 0.0245007 271.312 0.110653C271.548 0.19748 271.768 0.326454 271.959 0.491479C272.152 0.661559 272.306 0.870896 272.413 1.10572C272.533 1.37594 272.592 1.66955 272.587 1.96566V17.2029C272.587 17.7459 272.374 18.2667 271.994 18.6507C271.615 19.0346 271.1 19.2503 270.563 19.2503C270.026 19.2503 269.512 19.0346 269.132 18.6507C268.752 18.2667 268.539 17.7459 268.539 17.2029V10.8066H266.09V17.3585C266.09 17.6191 265.988 17.8691 265.806 18.0534C265.624 18.2377 265.377 18.3413 265.119 18.3413L257.712 18.3454ZM262.184 14.967V9.17273H258.744V14.4347C258.744 14.6681 258.78 14.8114 258.853 14.8729C258.993 14.9509 259.152 14.9838 259.311 14.967H262.184Z" fill="white"/>
<path d="M279.043 14.1277C279.026 14.2529 279.035 14.3804 279.07 14.5018C279.105 14.6232 279.164 14.7357 279.245 14.8321C279.461 14.9729 279.718 15.035 279.974 15.0081H285.944C286.221 14.9994 286.496 15.0482 286.754 15.1515C286.958 15.2391 287.141 15.372 287.288 15.5405C287.425 15.6971 287.529 15.8813 287.591 16.081C287.652 16.2772 287.684 16.4815 287.685 16.6871C287.684 17.1074 287.541 17.5149 287.28 17.8418C287.116 18.0269 286.912 18.1707 286.683 18.2617C286.455 18.3527 286.209 18.3884 285.964 18.366H278.496C277.951 18.3766 277.407 18.3147 276.877 18.1817C276.471 18.0815 276.098 17.877 275.793 17.5879C275.503 17.2874 275.294 16.9166 275.186 16.511C275.045 15.977 274.981 15.4254 274.995 14.873V11.1466C274.98 10.5942 275.044 10.0425 275.186 9.50866C275.295 9.10746 275.504 8.74109 275.793 8.44398C276.097 8.15571 276.471 7.95373 276.877 7.8584C277.408 7.73412 277.952 7.67636 278.496 7.68641H282.119V4.71759C282.118 4.58143 282.083 4.44772 282.018 4.32857C281.967 4.26009 281.899 4.2068 281.82 4.17436C281.742 4.14192 281.656 4.13153 281.573 4.14429H276.918C276.648 4.1515 276.379 4.10274 276.129 4.00098C275.925 3.91651 275.744 3.78298 275.602 3.61196C275.466 3.45 275.363 3.26204 275.299 3.05914C275.232 2.86144 275.198 2.65389 275.198 2.4449C275.197 2.23685 275.227 2.0299 275.287 1.83066C275.347 1.62634 275.451 1.43773 275.59 1.27784C275.739 1.10413 275.922 0.96452 276.129 0.868352C276.378 0.759701 276.647 0.707968 276.918 0.716841H282.645C283.226 0.704167 283.806 0.759137 284.374 0.880648C284.773 0.964028 285.146 1.147 285.458 1.41298C285.735 1.6721 285.931 2.00616 286.025 2.37529C286.141 2.85759 286.196 3.35308 286.187 3.84947V9.68474C286.187 10.0377 286.048 10.3762 285.802 10.6258C285.555 10.8754 285.22 11.0156 284.871 11.0156H279.994C279.739 10.9898 279.483 11.0502 279.266 11.1876C279.185 11.2849 279.125 11.3982 279.091 11.5202C279.056 11.6422 279.046 11.7702 279.063 11.896L279.043 14.1277ZM290.781 19.2259C290.244 19.2259 289.729 19.0102 289.35 18.6262C288.97 18.2423 288.757 17.7215 288.757 17.1785V2.02722C288.738 1.74457 288.782 1.46111 288.887 1.19852C288.992 0.935921 289.156 0.701133 289.364 0.512095C289.76 0.174397 290.263 -0.00736622 290.781 0.00022874C291.299 -0.00663041 291.801 0.175044 292.198 0.512095C292.406 0.701133 292.569 0.935921 292.675 1.19852C292.78 1.46111 292.824 1.74457 292.805 2.02722V17.1785C292.805 17.7215 292.592 18.2423 292.212 18.6262C291.832 19.0102 291.318 19.2259 290.781 19.2259Z" fill="white"/>
<path d="M296.468 7.71914C297.869 7.74781 298.897 7.48574 299.552 6.94111C299.876 6.67171 300.133 6.32985 300.304 5.94253C300.475 5.55521 300.554 5.13304 300.536 4.70937V4.25894C300.536 3.97229 300.386 3.82896 300.091 3.82896H296.61C296.369 3.83454 296.129 3.78557 295.909 3.68564C295.726 3.60018 295.565 3.47424 295.436 3.3171C295.313 3.16559 295.22 2.9919 295.161 2.80523C295.102 2.62003 295.071 2.42658 295.072 2.23194C295.072 2.04467 295.099 1.85843 295.153 1.67913C295.204 1.49179 295.294 1.31743 295.416 1.16726C295.544 1.01012 295.706 0.884179 295.889 0.79872C296.116 0.697384 296.362 0.648421 296.61 0.655395H301.467C301.91 0.644918 302.353 0.695893 302.782 0.806905C303.096 0.890949 303.384 1.0528 303.62 1.27782C303.838 1.50621 303.991 1.7888 304.065 2.0968C304.16 2.48239 304.205 2.87883 304.199 3.27615V4.15657H305.514V1.7815C305.499 1.54012 305.536 1.29815 305.623 1.073C305.711 0.847845 305.846 0.645099 306.02 0.479316C306.358 0.187039 306.79 0.0310265 307.235 0.0411558C307.678 0.0366149 308.109 0.191948 308.449 0.479316C308.629 0.641707 308.769 0.843363 308.861 1.06899C308.952 1.29461 308.991 1.53827 308.975 1.7815V9.03771C308.975 9.50254 308.793 9.94832 308.468 10.277C308.143 10.6057 307.702 10.7903 307.243 10.7903C307.016 10.7903 306.79 10.745 306.581 10.6568C306.371 10.5687 306.18 10.4396 306.019 10.2768C305.859 10.114 305.732 9.92072 305.645 9.7081C305.558 9.49549 305.514 9.26768 305.514 9.03771V7.33013H303.713C303.26 8.49463 302.394 9.44651 301.285 10C299.976 10.6334 298.538 10.9463 297.087 10.9132H296.731C296.606 10.9142 296.481 10.9004 296.359 10.8722C295.926 10.8227 295.521 10.6315 295.205 10.3276C295.054 10.1719 294.941 9.98287 294.874 9.77542C294.807 9.56797 294.789 9.3477 294.821 9.13189C294.824 8.93416 294.868 8.73927 294.949 8.55953C295.031 8.37979 295.148 8.21912 295.294 8.08769C295.623 7.81549 296.044 7.68334 296.468 7.71914ZM296.326 16.4209C297.089 16.22 297.766 15.7746 298.257 15.1514C298.73 14.5507 298.997 13.8104 299.018 13.0426C299.007 12.782 299.059 12.5227 299.17 12.2872C299.281 12.0517 299.447 11.8471 299.654 11.6912C300.057 11.4165 300.536 11.2802 301.022 11.3022C301.499 11.304 301.964 11.462 302.345 11.7527C302.539 11.9164 302.691 12.1252 302.789 12.3612C302.886 12.5971 302.925 12.8533 302.904 13.1081C302.904 13.2186 302.904 13.3292 302.904 13.4439C302.904 13.5585 302.904 13.6732 302.875 13.7837C303.478 13.8383 304.061 14.0306 304.58 14.3463C305.099 14.6619 305.54 15.0927 305.871 15.606C306.445 14.882 306.747 13.9748 306.721 13.0466C306.709 12.7636 306.767 12.4819 306.891 12.2277C307.001 12.0137 307.157 11.8276 307.348 11.683C307.538 11.5388 307.754 11.4344 307.984 11.3759C308.226 11.3143 308.475 11.284 308.724 11.2858C309.202 11.2876 309.666 11.4456 310.048 11.7363C310.242 11.903 310.393 12.1149 310.488 12.3539C310.584 12.5929 310.62 12.8517 310.594 13.1081C310.595 13.3754 310.575 13.6424 310.534 13.9066C311.079 14.0336 311.601 14.2479 312.08 14.5413C312.544 14.8262 312.947 15.2021 313.266 15.6469C313.6 16.1194 313.847 16.6494 313.994 17.2112V17.2317C314.052 17.4704 314.056 17.7193 314.004 17.9595C313.952 18.1997 313.847 18.4248 313.696 18.6176C313.546 18.8103 313.353 18.9657 313.134 19.0719C312.915 19.178 312.675 19.2321 312.432 19.23H311.983C311.631 19.2252 311.289 19.1066 311.009 18.8914C310.729 18.6762 310.524 18.3758 310.424 18.0343C310.397 17.9465 310.364 17.8603 310.327 17.7763C310.14 17.3702 309.818 17.0438 309.416 16.8549C309.135 17.2602 308.82 17.6397 308.473 17.9892C308.137 18.3315 307.764 18.6337 307.36 18.8901C306.974 19.1379 306.559 19.3373 306.126 19.4839C305.718 19.6252 305.293 19.7053 304.863 19.7214C304.421 19.7656 303.977 19.6651 303.596 19.4347C303.442 19.3424 303.309 19.218 303.207 19.0697C303.104 18.9214 303.034 18.7527 303.001 18.5748C302.944 18.3048 302.944 18.0258 303.001 17.7558C302.928 17.4872 302.784 17.244 302.584 17.0526C302.385 16.8612 302.137 16.7291 301.868 16.6707C301.341 17.4883 300.638 18.1744 299.811 18.6772C299.015 19.1709 298.106 19.4461 297.172 19.4757C296.721 19.5041 296.272 19.3927 295.885 19.1563C295.728 19.064 295.591 18.9389 295.485 18.7892C295.379 18.6395 295.306 18.4687 295.27 18.2882C295.181 17.8903 295.231 17.4736 295.412 17.1088C295.508 16.9355 295.639 16.7847 295.796 16.6661C295.954 16.5476 296.135 16.464 296.326 16.4209ZM309.825 1.74055C309.809 1.4965 309.849 1.25195 309.941 1.02604C310.034 0.800121 310.177 0.59898 310.359 0.438364C310.711 0.148697 311.153 -0.00642635 311.606 0.000204075C312.055 -0.00218311 312.491 0.152617 312.841 0.438364C313.026 0.596936 313.172 0.797396 313.267 1.02359C313.362 1.24978 313.403 1.49536 313.387 1.74055V9.03771C313.387 9.50254 313.205 9.94832 312.88 10.277C312.555 10.6057 312.114 10.7903 311.655 10.7903H311.554C311.326 10.7903 311.101 10.745 310.891 10.6568C310.681 10.5687 310.491 10.4396 310.33 10.2768C310.169 10.114 310.042 9.92072 309.956 9.7081C309.869 9.49549 309.825 9.26768 309.825 9.03771V1.74055Z" fill="white"/>
<path d="M318.649 18.4068C318.106 18.4198 317.563 18.3717 317.03 18.2635C316.673 18.1955 316.344 18.02 316.087 17.7598C315.848 17.4865 315.69 17.1498 315.634 16.7893C315.543 16.2689 315.503 15.741 315.512 15.2128V3.8903C315.503 3.36207 315.543 2.83416 315.634 2.31377C315.691 1.95234 315.848 1.61463 316.087 1.33917C316.345 1.08289 316.674 0.91159 317.03 0.847774C317.564 0.748822 318.106 0.704915 318.649 0.716733H325.085C325.34 0.706673 325.594 0.76308 325.821 0.88054C326.005 0.979881 326.164 1.11985 326.287 1.29003C326.402 1.45712 326.484 1.64469 326.53 1.84284C326.577 2.03716 326.602 2.23647 326.603 2.43661C326.602 2.64354 326.578 2.84972 326.53 3.05085C326.485 3.25069 326.399 3.43893 326.279 3.60367C326.149 3.77234 325.987 3.91182 325.801 4.01316C325.58 4.12945 325.334 4.18588 325.085 4.17695H320.045C319.9 4.16225 319.754 4.2064 319.641 4.2998C319.543 4.43589 319.5 4.60391 319.519 4.77072V14.3938C319.5 14.5606 319.543 14.7286 319.641 14.8647C319.754 14.9581 319.9 15.0023 320.045 14.9876H326.016C326.271 14.9775 326.525 15.0339 326.752 15.1514C326.936 15.2507 327.095 15.3907 327.218 15.5609C327.333 15.7279 327.415 15.9155 327.461 16.1137C327.508 16.308 327.533 16.5073 327.534 16.7074C327.534 16.9104 327.509 17.1125 327.461 17.3094C327.415 17.5064 327.329 17.6918 327.21 17.854C327.084 18.0256 326.92 18.1657 326.732 18.2635C326.509 18.373 326.263 18.4264 326.016 18.4191L318.649 18.4068ZM328.707 1.98616C328.688 1.70781 328.733 1.42882 328.839 1.17096C328.944 0.913108 329.107 0.683367 329.314 0.499702C329.707 0.171672 330.202 -0.00529208 330.711 0.000120582C330.966 0.000699298 331.219 0.0450086 331.46 0.131161C331.694 0.216193 331.909 0.345429 332.095 0.511987C332.284 0.683609 332.435 0.892705 332.54 1.12623C332.66 1.39645 332.72 1.69006 332.714 1.98616V7.16625H333.382C333.648 7.15612 333.912 7.21238 334.151 7.33005C334.341 7.42825 334.507 7.56816 334.637 7.73954C334.758 7.91333 334.847 8.10745 334.9 8.31283C334.952 8.51752 334.98 8.72795 334.981 8.93936C334.98 9.14943 334.953 9.35853 334.9 9.56178C334.848 9.76775 334.759 9.96216 334.637 10.1351C334.505 10.3095 334.335 10.4498 334.139 10.5446C333.904 10.6603 333.644 10.7165 333.382 10.7084H332.714V17.2029C332.709 17.7424 332.494 18.2579 332.115 18.6375C331.736 19.017 331.224 19.2299 330.691 19.2299C330.161 19.2246 329.654 19.0093 329.28 18.6303C328.905 18.2513 328.692 17.7389 328.687 17.2029L328.707 1.98616Z" fill="white"/>
<path d="M335.689 17.2604C335.674 16.9818 335.716 16.7029 335.814 16.442C335.911 16.181 336.062 15.9436 336.256 15.7452C336.476 15.5488 336.732 15.3987 337.01 15.3038C337.288 15.2089 337.582 15.171 337.875 15.1924C338.165 15.1746 338.455 15.215 338.73 15.3113C339.004 15.4076 339.257 15.5579 339.474 15.7534C339.664 15.9527 339.812 16.1891 339.91 16.4481C340.007 16.7071 340.052 16.9834 340.04 17.2604C340.053 17.5368 340.01 17.813 339.912 18.0716C339.815 18.3302 339.665 18.5656 339.474 18.7632C339.258 18.9603 339.005 19.1117 338.731 19.2088C338.456 19.3058 338.165 19.3464 337.875 19.3283C337.582 19.3497 337.288 19.3119 337.01 19.2169C336.732 19.122 336.476 18.9719 336.256 18.7755C336.062 18.5771 335.911 18.3397 335.814 18.0788C335.716 17.8178 335.674 17.539 335.689 17.2604ZM337.855 13.8206C337.307 13.8206 336.782 13.6006 336.395 13.2089C336.008 12.8173 335.79 12.2861 335.79 11.7322V2.17055C335.785 1.87086 335.843 1.57343 335.96 1.29833C336.068 1.05702 336.224 0.84088 336.418 0.663606C336.609 0.491951 336.832 0.359809 337.073 0.274595C337.325 0.187973 337.589 0.143702 337.855 0.143555C338.112 0.144834 338.368 0.18911 338.612 0.274595C338.856 0.36158 339.082 0.493455 339.28 0.663606C339.477 0.839411 339.636 1.05577 339.745 1.29833C339.864 1.57316 339.923 1.87057 339.919 2.17055V11.7322C339.919 12.2861 339.702 12.8173 339.314 13.2089C338.927 13.6006 338.402 13.8206 337.855 13.8206Z" fill="white"/>
<path d="M106.278 25.1632C106.501 25.1569 106.723 25.2017 106.926 25.2943C107.084 25.3792 107.222 25.498 107.331 25.6423C107.437 25.7831 107.517 25.9428 107.565 26.1132C107.61 26.2843 107.633 26.4604 107.634 26.6374C107.633 26.8062 107.61 26.9742 107.565 27.137C107.52 27.304 107.437 27.4582 107.322 27.5874C107.199 27.7239 107.05 27.8351 106.885 27.915C106.69 28.0097 106.475 28.056 106.258 28.0501H101.138C100.773 28.0501 100.591 28.2058 100.591 28.5211V29.0943H105.469C105.669 29.089 105.868 29.134 106.047 29.2254C106.204 29.3093 106.342 29.425 106.452 29.5653C106.553 29.7007 106.628 29.8532 106.675 30.0157C106.719 30.1688 106.742 30.3272 106.744 30.4866C106.742 30.646 106.719 30.8044 106.675 30.9575C106.63 31.1169 106.554 31.2657 106.452 31.3957C106.342 31.5331 106.204 31.6448 106.047 31.7233C105.873 31.8163 105.678 31.8628 105.481 31.8584H100.603V32.4112C100.591 32.4853 100.597 32.5613 100.62 32.6327C100.643 32.704 100.684 32.7686 100.737 32.8207C100.857 32.8983 100.999 32.9342 101.142 32.9231H107.922C108.124 32.9017 108.328 32.9304 108.517 33.0067C108.706 33.083 108.874 33.2047 109.006 33.3613C109.205 33.6313 109.314 33.9582 109.318 34.2949C109.317 34.6517 109.203 34.9988 108.994 35.2859C108.868 35.4479 108.704 35.5752 108.516 35.656C108.329 35.7369 108.124 35.7687 107.922 35.7486H99.4013C98.9518 35.758 98.503 35.7098 98.0655 35.6053C97.7486 35.5297 97.4586 35.3667 97.2278 35.1344C97.0062 34.8962 96.8523 34.602 96.7825 34.2826C96.6857 33.864 96.6408 33.4348 96.6489 33.005V27.9273C96.6408 27.4961 96.6857 27.0656 96.7825 26.6456C96.8522 26.3274 97.0061 26.0344 97.2278 25.7979C97.4586 25.5656 97.7486 25.4026 98.0655 25.327C98.503 25.2225 98.9518 25.1743 99.4013 25.1837L106.278 25.1632ZM108.019 38.2465C108.801 38.2191 109.584 38.2976 110.346 38.4799C111.12 38.6605 111.857 38.9765 112.524 39.4136C113.206 39.865 113.786 40.4583 114.224 41.1539C114.382 41.416 114.467 41.716 114.472 42.0229C114.477 42.3297 114.401 42.6324 114.252 42.8995C114.102 43.1666 113.885 43.3886 113.623 43.5424C113.36 43.6963 113.062 43.7765 112.758 43.7747H112.083C111.79 43.7778 111.502 43.704 111.247 43.5604C110.991 43.4168 110.777 43.2084 110.625 42.9557C110.552 42.8369 110.472 42.7223 110.387 42.6076C110.109 42.2595 109.768 41.9677 109.383 41.7477C108.977 41.5183 108.537 41.3591 108.079 41.2768C107.581 41.189 107.071 41.1794 106.57 41.2481C106.066 41.7262 105.506 42.1389 104.902 42.4766C104.258 42.8438 103.581 43.1455 102.878 43.3775C102.189 43.6048 101.482 43.7719 100.765 43.877C100.105 43.9796 99.4346 43.9975 98.7698 43.9303C98.5351 43.9042 98.3065 43.8377 98.0939 43.7337C97.8883 43.6326 97.7029 43.4938 97.5474 43.3242C97.3905 43.1619 97.2667 42.9699 97.1832 42.7591C97.0937 42.5431 97.0549 42.309 97.0698 42.0753C97.0759 41.6473 97.2473 41.2386 97.5474 40.9369C97.8196 40.6643 98.1846 40.5075 98.5674 40.4987H98.9722C99.126 40.4987 99.2636 40.4987 99.377 40.4782C99.8413 40.437 100.302 40.3576 100.753 40.2407C101.2 40.1308 101.634 39.9729 102.048 39.7698C102.418 39.5922 102.763 39.3649 103.072 39.0942C103.425 38.7938 103.702 38.4136 103.882 37.9844C104.064 37.4654 104.388 37.0095 104.817 36.67C105.222 36.4149 105.7 36.3066 106.173 36.3628C106.649 36.3682 107.11 36.529 107.488 36.8215C107.668 36.9917 107.807 37.2012 107.895 37.4339C107.983 37.6666 108.017 37.9166 107.994 38.1646L108.019 38.2465ZM110.447 31.8789H108.889C108.648 31.9029 108.405 31.8698 108.179 31.7824C107.952 31.695 107.749 31.5556 107.586 31.3752C107.323 31.0568 107.18 30.6553 107.181 30.2409C107.187 29.8302 107.329 29.4335 107.586 29.1148C107.749 28.9307 107.954 28.7883 108.183 28.6994C108.411 28.6104 108.657 28.5774 108.901 28.603H110.459V26.5555C110.441 26.2771 110.486 25.9981 110.591 25.7403C110.696 25.4824 110.859 25.2527 111.067 25.069C111.459 24.741 111.954 24.564 112.463 24.5695C112.718 24.57 112.971 24.6143 113.212 24.7005C113.448 24.7873 113.668 24.9163 113.859 25.0813C114.053 25.2512 114.209 25.4606 114.317 25.6956C114.435 25.9661 114.493 26.2597 114.487 26.5555V35.1548C114.487 35.6979 114.274 36.2186 113.894 36.6026C113.515 36.9866 113 37.2023 112.463 37.2023C111.926 37.2023 111.411 36.9866 111.032 36.6026C110.652 36.2186 110.439 35.6979 110.439 35.1548L110.447 31.8789Z" fill="white"/>
<path d="M119.696 34.2951C119.233 34.3052 118.77 34.2529 118.32 34.1395C117.994 34.0598 117.697 33.8896 117.462 33.6481C117.237 33.3942 117.086 33.0825 117.025 32.7472C116.937 32.2996 116.896 31.8439 116.903 31.3877V26.9447C116.879 26.6695 116.917 26.3924 117.015 26.1346C117.114 25.8769 117.269 25.6454 117.47 25.4582C117.868 25.1446 118.362 24.9822 118.866 24.9996C119.335 24.9799 119.795 25.1327 120.162 25.4295C120.342 25.6031 120.483 25.8132 120.578 26.0461C120.672 26.279 120.716 26.5294 120.708 26.7809H124.371C124.361 26.5263 124.406 26.2725 124.503 26.0372C124.599 25.8018 124.745 25.5903 124.93 25.4173C125.311 25.1298 125.778 24.9851 126.253 25.0078C126.756 24.9855 127.249 25.1485 127.642 25.4664C127.834 25.6588 127.981 25.892 128.074 26.149C128.166 26.406 128.201 26.6805 128.176 26.9529V32.8987C128.176 33.0829 128.141 33.2655 128.072 33.4359C128.002 33.6063 127.9 33.7611 127.772 33.8916C127.643 34.0221 127.49 34.1256 127.322 34.1963C127.154 34.2669 126.974 34.3033 126.792 34.3033L119.696 34.2951ZM133.276 35.2164C133.446 35.2008 133.618 35.2281 133.776 35.296C133.933 35.3639 134.071 35.4702 134.178 35.6054C134.351 35.8356 134.446 36.1154 134.45 36.404C134.449 36.7014 134.349 36.9898 134.166 37.2229C134.059 37.3543 133.922 37.4576 133.767 37.5239C133.612 37.5902 133.444 37.6176 133.276 37.6038H122.307C122.023 37.6038 121.882 37.7266 121.882 37.9723V38.3818H133.195C133.359 38.3645 133.525 38.3858 133.679 38.444C133.834 38.5023 133.973 38.5959 134.085 38.7176C134.257 38.9365 134.35 39.208 134.348 39.4874C134.348 39.7591 134.255 40.0224 134.085 40.2327C133.973 40.3551 133.834 40.4495 133.68 40.5085C133.525 40.5675 133.359 40.5894 133.195 40.5726H121.882V41.023C121.882 41.1745 121.914 41.2728 121.983 41.3179C122.081 41.3748 122.194 41.4005 122.307 41.3916H133.6C133.764 41.376 133.93 41.4023 134.082 41.4681C134.234 41.5339 134.367 41.6371 134.47 41.7683C134.637 41.9976 134.729 42.2739 134.733 42.5586C134.735 42.8545 134.639 43.1426 134.462 43.3776C134.361 43.5083 134.229 43.6116 134.078 43.678C133.928 43.7445 133.763 43.7721 133.6 43.7584H120.141C119.279 43.7584 118.668 43.5742 118.312 43.2056C117.908 42.7064 117.715 42.0666 117.773 41.4243V37.5751C117.717 36.9293 117.91 36.2864 118.312 35.7815C118.668 35.4089 119.279 35.2205 120.141 35.2205L133.276 35.2164ZM124.371 30.9905V29.8971C124.371 29.7979 124.332 29.7027 124.263 29.6322C124.194 29.5616 124.101 29.5215 124.003 29.5204H121.08C120.982 29.5204 120.887 29.5601 120.817 29.6307C120.747 29.7014 120.708 29.7972 120.708 29.8971V30.8717C120.708 31.1051 120.74 31.2484 120.809 31.2812C120.947 31.3508 121.101 31.3792 121.254 31.3631H123.999C124.097 31.3631 124.191 31.324 124.261 31.2542C124.33 31.1844 124.37 31.0897 124.371 30.9905ZM130.159 26.5966C130.139 26.3147 130.183 26.0318 130.286 25.7693C130.39 25.5069 130.552 25.2717 130.758 25.0815C131.149 24.7433 131.649 24.5613 132.163 24.5696C132.675 24.564 133.172 24.7491 133.559 25.0897C133.766 25.2784 133.928 25.5119 134.033 25.7729C134.138 26.0338 134.184 26.3154 134.166 26.5966V27.907H134.794C135.058 27.8967 135.321 27.9485 135.563 28.0585C135.755 28.1536 135.921 28.294 136.048 28.468C136.17 28.6383 136.259 28.8299 136.312 29.0331C136.364 29.2336 136.391 29.4399 136.393 29.6473C136.391 29.8574 136.364 30.0665 136.312 30.2698C136.262 30.4741 136.173 30.6663 136.048 30.8348C135.919 31.0096 135.749 31.1501 135.555 31.2443C135.316 31.3532 135.056 31.4064 134.794 31.3999H134.166V32.5875C134.166 33.127 133.956 33.6447 133.581 34.0281C133.206 34.4115 132.696 34.6296 132.163 34.6349C131.626 34.6349 131.111 34.4192 130.732 34.0353C130.352 33.6513 130.139 33.1305 130.139 32.5875L130.159 26.5966Z" fill="white"/>
<path d="M141.574 39.5774C142.33 39.4916 143.074 39.3199 143.792 39.0655C144.455 38.8296 145.057 38.4446 145.553 37.9394C146.082 37.369 146.479 36.6863 146.714 35.9411C147.024 34.9316 147.168 33.8774 147.139 32.8207V29.4015C147.144 29.2664 147.098 29.1345 147.01 29.0329C146.96 28.9839 146.901 28.9458 146.836 28.9211C146.772 28.8964 146.702 28.8857 146.633 28.8896H142.019C141.751 28.8997 141.484 28.8435 141.242 28.7258C141.041 28.6261 140.862 28.4869 140.716 28.3163C140.575 28.1495 140.471 27.954 140.412 27.743C140.352 27.5411 140.32 27.3315 140.319 27.1206C140.321 26.9084 140.352 26.6974 140.412 26.4941C140.47 26.289 140.57 26.0981 140.704 25.9331C140.849 25.7613 141.028 25.6218 141.23 25.5236C141.476 25.4067 141.747 25.3505 142.019 25.3598H147.969C149.116 25.3598 149.932 25.6191 150.418 26.1378C150.936 26.7507 151.198 27.5441 151.146 28.3491V32.8535C151.185 34.418 150.952 35.9771 150.458 37.4603C150.06 38.6197 149.407 39.6726 148.548 40.5397C147.726 41.3423 146.737 41.9482 145.654 42.3128C144.476 42.7058 143.25 42.9331 142.011 42.9884C141.769 43.0022 141.527 42.9745 141.294 42.9065C141.066 42.8409 140.852 42.7295 140.667 42.5789C140.483 42.4247 140.334 42.2319 140.23 42.0138C140.117 41.7678 140.062 41.4988 140.068 41.2276C140.053 40.8291 140.183 40.4389 140.432 40.1302C140.729 39.8055 141.138 39.6078 141.574 39.5774ZM153.595 26.5555C153.576 26.2771 153.621 25.9981 153.727 25.7403C153.832 25.4824 153.995 25.2527 154.202 25.069C154.595 24.741 155.09 24.564 155.599 24.5695C155.854 24.57 156.107 24.6143 156.347 24.7005C156.582 24.7855 156.8 24.9147 156.987 25.0813C157.174 25.2541 157.326 25.4629 157.432 25.6956C157.551 25.9661 157.609 26.2597 157.602 26.5555V31.7356H158.27C158.536 31.7255 158.8 31.7817 159.039 31.8994C159.229 31.9976 159.395 32.1375 159.525 32.3089C159.647 32.4817 159.736 32.6762 159.788 32.8822C159.84 33.0869 159.867 33.2973 159.869 33.5087C159.868 33.7188 159.84 33.9279 159.788 34.1311C159.738 34.3377 159.649 34.5324 159.525 34.7044C159.394 34.8778 159.225 35.0179 159.031 35.1139C158.794 35.2303 158.533 35.2865 158.27 35.2777H157.594V41.7722C157.589 42.3082 157.376 42.8207 157.002 43.1996C156.627 43.5786 156.12 43.7939 155.591 43.7992C155.057 43.7993 154.546 43.5864 154.167 43.2068C153.788 42.8272 153.572 42.3117 153.567 41.7722L153.595 26.5555Z" fill="white"/>
<path d="M171.566 39.1063V41.809C171.566 42.3629 171.349 42.8941 170.962 43.2857C170.574 43.6774 170.049 43.8974 169.502 43.8974C168.954 43.8974 168.429 43.6774 168.042 43.2857C167.655 42.8941 167.438 42.3629 167.438 41.809V39.1063H161.731C161.488 39.1298 161.243 39.0944 161.016 39.0033C160.79 38.9122 160.588 38.7678 160.427 38.5822C160.167 38.2546 160.025 37.8476 160.022 37.4274C160.024 37.2192 160.055 37.0122 160.116 36.8132C160.174 36.6131 160.273 36.4276 160.407 36.2685C160.554 36.1033 160.733 35.9709 160.933 35.8795C161.182 35.7709 161.452 35.7191 161.722 35.728H164.697C165.141 35.0143 165.475 34.2371 165.689 33.4226C165.964 32.3645 166.093 31.2732 166.074 30.1794V29.0779C166.076 28.949 166.038 28.8228 165.964 28.7175C165.924 28.6672 165.873 28.6273 165.814 28.6009C165.756 28.5746 165.692 28.5626 165.628 28.566H162.451C162.173 28.5744 161.897 28.5213 161.642 28.4104C161.431 28.3177 161.244 28.1777 161.095 28.0009C160.952 27.832 160.843 27.6376 160.771 27.4276C160.697 27.2287 160.659 27.0178 160.658 26.8052C160.658 26.5962 160.692 26.3886 160.759 26.1909C160.828 25.9825 160.939 25.7903 161.083 25.6258C161.239 25.4518 161.429 25.3124 161.642 25.2163C161.897 25.1068 162.174 25.0551 162.451 25.0648H174.918C175.42 25.0537 175.921 25.1115 176.407 25.2368C176.765 25.333 177.094 25.5157 177.367 25.7692C177.616 26.0215 177.795 26.3367 177.885 26.6823C177.992 27.1104 178.042 27.5511 178.034 27.9927V30.204C178.04 31.2144 177.966 32.2236 177.812 33.2219C177.684 34.0773 177.474 34.9181 177.184 35.7321H177.285C177.563 35.7202 177.84 35.772 178.095 35.8836C178.295 35.975 178.474 36.1074 178.621 36.2726C178.756 36.4315 178.857 36.6169 178.917 36.8173C178.976 37.0165 179.006 37.2235 179.006 37.4315C179.004 37.8517 178.861 38.2588 178.601 38.5863C178.44 38.772 178.237 38.9163 178.01 39.0074C177.782 39.0985 177.537 39.1338 177.294 39.1104L171.566 39.1063ZM170.008 30.1999C170.016 31.2165 169.925 32.2314 169.737 33.2301C169.573 34.0942 169.301 34.9336 168.927 35.728H173.177C173.503 34.983 173.731 34.1984 173.857 33.3939C174.022 32.3307 174.099 31.2555 174.088 30.1794V29.0779C174.093 28.9428 174.047 28.8109 173.958 28.7093C173.909 28.6603 173.85 28.6222 173.785 28.5975C173.72 28.5728 173.651 28.5621 173.582 28.566H170L170.008 30.1999Z" fill="white"/>
<path d="M197.512 33.1728C197.789 33.1609 198.066 33.2127 198.321 33.3244C198.521 33.4157 198.701 33.5482 198.847 33.7134C198.982 33.8722 199.083 34.0577 199.143 34.258C199.202 34.4572 199.232 34.6642 199.232 34.8722C199.23 35.2924 199.088 35.6996 198.827 36.027C198.666 36.2127 198.463 36.357 198.236 36.4482C198.009 36.5393 197.763 36.5746 197.52 36.5512H181.977C181.734 36.5774 181.488 36.5447 181.26 36.4557C181.032 36.3666 180.828 36.2239 180.666 36.0393C180.405 35.7117 180.263 35.3047 180.261 34.8845C180.262 34.6763 180.293 34.4693 180.354 34.2703C180.412 34.0702 180.512 33.8847 180.645 33.7257C180.792 33.5605 180.971 33.428 181.171 33.3366C181.42 33.228 181.69 33.1763 181.961 33.1851L197.512 33.1728ZM183.993 31.9444C183.516 31.9542 183.04 31.9019 182.576 31.7888C182.238 31.7106 181.93 31.5374 181.686 31.2892C181.457 31.031 181.3 30.7158 181.232 30.376C181.134 29.916 181.09 29.446 181.099 28.9755V26.7438C181.074 26.4595 181.117 26.1733 181.225 25.9095C181.333 25.6457 181.502 25.4122 181.718 25.2287C182.14 24.9098 182.656 24.7439 183.183 24.7578C183.705 24.7428 184.216 24.9089 184.632 25.2287C184.842 25.4163 185.005 25.6513 185.108 25.9145C185.212 26.1777 185.252 26.4618 185.227 26.7438V28.2589C185.227 28.4923 185.26 28.6357 185.328 28.6684C185.466 28.738 185.621 28.7664 185.774 28.7503H196.763C197.004 28.7257 197.247 28.7559 197.474 28.8388C197.702 28.9217 197.908 29.0552 198.078 29.2294C198.329 29.5385 198.465 29.9268 198.463 30.3269C198.466 30.7355 198.322 31.1313 198.058 31.4407C197.889 31.6145 197.685 31.7481 197.458 31.8317C197.232 31.9153 196.99 31.9468 196.751 31.9239L183.993 31.9444ZM184.175 43.7992C183.698 43.809 183.222 43.7567 182.758 43.6436C182.421 43.5655 182.112 43.3922 181.868 43.144C181.639 42.8858 181.483 42.5706 181.414 42.2308C181.316 41.7708 181.272 41.3008 181.281 40.8304V39.3767C181.256 39.0916 181.301 38.8049 181.41 38.541C181.519 38.2771 181.69 38.0439 181.908 37.8615C182.336 37.5437 182.855 37.3781 183.385 37.3906C183.907 37.3756 184.419 37.5418 184.835 37.8615C185.044 38.0492 185.207 38.2841 185.311 38.5473C185.414 38.8105 185.455 39.0946 185.43 39.3767V40.1138C185.43 40.3472 185.462 40.4905 185.531 40.5437C185.668 40.6133 185.823 40.6417 185.976 40.6256H196.905C197.145 40.601 197.388 40.6312 197.616 40.7141C197.844 40.797 198.05 40.9305 198.22 41.1047C198.471 41.4138 198.607 41.8021 198.605 42.2022C198.607 42.6108 198.464 43.0066 198.2 43.316C198.031 43.4898 197.826 43.6234 197.6 43.707C197.374 43.7906 197.132 43.8221 196.892 43.7992H184.175Z" fill="white"/>
<path d="M211.577 32.268V31.0804H207.874C206.821 31.0804 206.077 30.8757 205.639 30.4662C205.202 30.0567 204.982 29.3264 204.98 28.2754V26.7808C204.973 26.4713 205.032 26.164 205.154 25.8799C205.257 25.6339 205.412 25.4133 205.607 25.2329C205.799 25.0629 206.024 24.9347 206.267 24.8561C206.528 24.7714 206.802 24.7299 207.076 24.7333C207.601 24.7233 208.111 24.9051 208.513 25.2452C208.724 25.4373 208.887 25.6756 208.993 25.9418C209.098 26.2079 209.142 26.4949 209.12 26.7808V27.4769C209.12 27.6939 209.153 27.8332 209.222 27.8864C209.359 27.956 209.514 27.9844 209.667 27.9683H220.656C220.897 27.9436 221.14 27.9739 221.368 28.0568C221.595 28.1397 221.802 28.2732 221.972 28.4474C222.223 28.7565 222.359 29.1448 222.356 29.5448C222.362 29.9455 222.218 30.3334 221.951 30.63C221.777 30.7945 221.571 30.9198 221.345 30.9974C221.12 31.0751 220.881 31.1034 220.644 31.0804H215.665V32.268H221.393C221.635 32.2421 221.879 32.273 222.107 32.3582C222.335 32.4434 222.541 32.5807 222.708 32.7594C222.966 33.0692 223.109 33.4601 223.113 33.865C223.114 34.2771 222.971 34.6762 222.708 34.9911C222.541 35.1678 222.337 35.3039 222.11 35.389C221.884 35.4742 221.641 35.5061 221.401 35.4825H205.858C205.618 35.5064 205.376 35.4746 205.15 35.3894C204.924 35.3042 204.721 35.168 204.555 34.9911C204.292 34.676 204.149 34.277 204.15 33.865C204.148 33.4626 204.284 33.072 204.534 32.7594C204.702 32.5807 204.907 32.4434 205.135 32.3582C205.364 32.273 205.608 32.2421 205.85 32.268H211.577ZM208.845 43.8566C207.441 43.8566 206.417 43.5167 205.728 42.8411C205.388 42.4902 205.122 42.072 204.948 41.6127C204.774 41.1533 204.695 40.6626 204.717 40.1712C204.711 39.6574 204.798 39.1469 204.972 38.6642C205.134 38.2171 205.397 37.8145 205.741 37.489C206.11 37.1443 206.548 36.8821 207.024 36.7192C207.611 36.5241 208.227 36.4313 208.845 36.4448H218.397C219.016 36.4313 219.631 36.5241 220.219 36.7192C220.696 36.8821 221.135 37.1443 221.506 37.489C221.848 37.8156 222.112 38.2178 222.275 38.6642C222.446 39.1477 222.531 39.6578 222.526 40.1712C222.548 40.6626 222.469 41.1533 222.295 41.6127C222.121 42.072 221.855 42.4902 221.514 42.8411C220.838 43.5167 219.802 43.8566 218.397 43.8566H208.845ZM217.386 40.9287C217.671 40.9594 217.958 40.8868 218.195 40.724C218.267 40.6522 218.323 40.5658 218.359 40.4705C218.395 40.3752 218.411 40.2731 218.406 40.1712C218.412 40.0721 218.397 39.9728 218.361 39.8806C218.324 39.7885 218.268 39.7058 218.195 39.6388C217.952 39.4912 217.668 39.4266 217.386 39.4546H209.857C209.575 39.4257 209.291 39.4904 209.048 39.6388C208.975 39.7056 208.917 39.7881 208.88 39.8803C208.843 39.9724 208.827 40.0718 208.833 40.1712C208.828 40.2734 208.845 40.3756 208.882 40.4708C208.919 40.5661 208.975 40.6524 209.048 40.724C209.285 40.8868 209.572 40.9594 209.857 40.9287H217.386Z" fill="white"/>
<path d="M235.924 39.5161V41.8093C235.924 42.3631 235.706 42.8943 235.319 43.286C234.932 43.6776 234.407 43.8977 233.859 43.8977C233.312 43.8977 232.787 43.6776 232.4 43.286C232.013 42.8943 231.795 42.3631 231.795 41.8093V39.5161H226.088C225.846 39.5397 225.603 39.5057 225.376 39.4168C225.15 39.3279 224.947 39.1866 224.785 39.0042C224.523 38.6805 224.381 38.2755 224.38 37.8577C224.381 37.6521 224.412 37.4477 224.473 37.2516C224.534 37.0539 224.633 36.8703 224.764 36.7111C224.907 36.541 225.087 36.4077 225.291 36.3221C225.541 36.2203 225.81 36.1715 226.08 36.1787H241.623C241.9 36.1687 242.175 36.2175 242.432 36.3221C242.636 36.4077 242.816 36.541 242.958 36.7111C243.091 36.8701 243.191 37.0537 243.254 37.2516C243.313 37.448 243.344 37.6523 243.343 37.8577C243.343 38.2756 243.2 38.6806 242.938 39.0042C242.775 39.1867 242.571 39.328 242.344 39.4168C242.117 39.5057 241.873 39.5397 241.631 39.5161H235.924ZM238.251 26.699V26.658C238.242 26.3682 238.302 26.0804 238.425 25.8186C238.529 25.596 238.685 25.4021 238.878 25.2535C239.077 25.1073 239.301 25.0003 239.538 24.9382C239.791 24.8684 240.053 24.8339 240.315 24.8358C240.572 24.8353 240.828 24.8697 241.076 24.9382C241.312 25.0012 241.535 25.1081 241.732 25.2535C241.923 25.3999 242.079 25.5873 242.189 25.8022C242.317 26.0627 242.38 26.351 242.372 26.6416V33.6358C242.372 33.9312 242.256 34.2145 242.049 34.4234C241.843 34.6323 241.563 34.7496 241.271 34.7496H228.225C227.725 34.7608 227.226 34.7086 226.74 34.594C226.394 34.5159 226.08 34.3348 225.837 34.0739C225.607 33.7957 225.457 33.4584 225.404 33.0993C225.32 32.6031 225.282 32.0999 225.291 31.5965V26.6416C225.282 26.3518 225.342 26.0641 225.465 25.8022C225.57 25.5772 225.731 25.3829 225.93 25.2371C226.132 25.0915 226.358 24.9846 226.598 24.9218C226.851 24.852 227.113 24.8176 227.375 24.8194C227.629 24.8191 227.881 24.8563 228.124 24.93C228.362 25.004 228.585 25.119 228.784 25.2698C228.981 25.4236 229.143 25.6193 229.257 25.8431C229.385 26.1037 229.447 26.3919 229.439 26.6826L238.251 26.699ZM238.251 31.1502V30.1715C238.252 30.1213 238.242 30.0715 238.224 30.0251C238.205 29.9786 238.177 29.9364 238.142 29.901C238.107 29.8655 238.065 29.8375 238.019 29.8185C237.973 29.7996 237.924 29.7901 237.875 29.7906H229.824C229.724 29.7906 229.628 29.8308 229.558 29.9022C229.487 29.9736 229.448 30.0705 229.448 30.1715V30.8963C229.437 31.0642 229.484 31.2307 229.581 31.3672C229.646 31.43 229.724 31.4773 229.81 31.5057C229.895 31.534 229.986 31.5427 230.075 31.531H237.875C237.975 31.531 238.07 31.4909 238.141 31.4194C238.211 31.348 238.251 31.2512 238.251 31.1502Z" fill="white"/>
</g>
<defs>
<clipPath id="clip0_3888_86386">
<rect width="340" height="44" fill="white"/>
</clipPath>
</defs>
</svg>
