<svg width="340" height="42" viewBox="0 0 340 42" fill="none" xmlns="http://www.w3.org/2000/svg">
<g clip-path="url(#clip0_3888_86361)">
<path d="M2.35751 17.306C1.95931 17.3102 1.56156 17.2782 1.16918 17.2102C0.901408 17.1685 0.651981 17.0485 0.45234 16.8652C0.253873 16.6745 0.119867 16.4266 0.0690041 16.1561C-0.00355193 15.7605 -0.035662 15.3585 -0.02683 14.9564V2.26158C-0.0482995 2.03492 -0.0153471 1.80642 0.0693316 1.59508C0.15401 1.38374 0.287974 1.19566 0.460014 1.04652C0.789758 0.793879 1.19463 0.658937 1.61002 0.663227C2.02691 0.64906 2.43502 0.785083 2.76003 1.04652C2.9258 1.19827 3.05451 1.38604 3.13625 1.59537C3.218 1.8047 3.2506 2.03001 3.23153 2.25392V5.41613H4.38153V2.29224C4.36038 2.06905 4.38972 1.84395 4.46735 1.63362C4.54499 1.4233 4.66896 1.23313 4.83005 1.07719C5.14616 0.818519 5.54489 0.682437 5.9532 0.693897C6.34302 0.68199 6.72273 0.819055 7.01505 1.07719C7.17017 1.23523 7.28922 1.42499 7.36399 1.63341C7.43877 1.84184 7.4675 2.06399 7.44822 2.28458V5.40845H8.59823V2.26158C8.57681 2.03736 8.60716 1.81121 8.68691 1.60056C8.76666 1.3899 8.89367 1.20036 9.05822 1.04652C9.39041 0.784647 9.80464 0.648855 10.2274 0.663227C10.6327 0.648527 11.029 0.785159 11.3391 1.04652C11.4956 1.20388 11.616 1.39335 11.6922 1.60181C11.7683 1.81027 11.7982 2.03276 11.7799 2.25392V16.0028C11.7799 16.1733 11.7463 16.342 11.6809 16.4995C11.6156 16.6569 11.5198 16.7999 11.3991 16.9202C11.2784 17.0406 11.1351 17.1359 10.9774 17.2008C10.8198 17.2657 10.6509 17.2989 10.4804 17.2983L2.35751 17.306ZM4.40835 14.3355V8.26019H3.25834V13.9138C3.24341 14.0365 3.26616 14.1608 3.32352 14.2703C3.433 14.3277 3.55735 14.3504 3.68005 14.3355H4.40835ZM8.62504 14.3355V8.26019H7.47504V14.3355H8.62504ZM13.0526 1.99327C13.046 1.71712 13.0983 1.44275 13.2059 1.18835C13.2996 0.967159 13.4394 0.768516 13.6161 0.605734C13.7898 0.444465 13.9965 0.322842 14.2218 0.249271C14.4503 0.17262 14.6899 0.133784 14.931 0.134286C15.1693 0.133576 15.4057 0.176438 15.6286 0.260769C15.8477 0.338528 16.0496 0.458319 16.2228 0.613408C16.4014 0.774052 16.5449 0.969772 16.6445 1.18835C16.7598 1.44068 16.8161 1.71593 16.8093 1.99327V6.86115H17.1926C17.4568 6.85034 17.7197 6.90291 17.9593 7.01447C18.1505 7.10577 18.3203 7.23638 18.4576 7.39777C18.5843 7.55659 18.6781 7.73899 18.7336 7.93438C18.7907 8.12338 18.8204 8.31958 18.8218 8.517C18.8202 8.71566 18.7904 8.91308 18.7336 9.10345C18.6758 9.30023 18.5779 9.48292 18.4461 9.64006C18.3043 9.79984 18.1324 9.93009 17.9401 10.0234C17.7127 10.1308 17.4632 10.1833 17.2118 10.1767H16.8284V16.2519C16.8284 16.7501 16.6305 17.2278 16.2783 17.58C15.926 17.9322 15.4483 18.1301 14.9501 18.1301C14.7034 18.1301 14.4592 18.0815 14.2313 17.9871C14.0034 17.8927 13.7964 17.7544 13.6219 17.58C13.4475 17.4056 13.3091 17.1986 13.2147 16.9707C13.1203 16.7428 13.0718 16.4986 13.0718 16.2519L13.0526 1.99327Z" fill="white"/>
<path d="M35.2284 9.17973C35.4647 9.17364 35.6997 9.21672 35.9184 9.30622C36.0989 9.37815 36.2593 9.49254 36.3861 9.63969C36.5049 9.77691 36.5938 9.93752 36.6468 10.1112C36.6972 10.2817 36.7229 10.4585 36.7234 10.6363C36.7253 11.0016 36.6037 11.3568 36.3784 11.6443C36.2356 11.8044 36.057 11.9285 35.8572 12.0064C35.6573 12.0844 35.4419 12.114 35.2284 12.0928H20.2783C20.0648 12.114 19.8494 12.0844 19.6495 12.0064C19.4497 11.9285 19.271 11.8044 19.1283 11.6443C18.903 11.3568 18.7814 11.0016 18.7833 10.6363C18.7818 10.4583 18.8077 10.2812 18.86 10.1112C18.9116 9.93775 18.9991 9.77712 19.1168 9.63969C19.2458 9.49335 19.4073 9.37917 19.5883 9.30622C19.8071 9.21672 20.042 9.17364 20.2783 9.17973H35.2284ZM22.1183 8.43231C21.7245 8.44253 21.3329 8.37073 20.9683 8.22148C20.6594 8.09282 20.3792 7.90388 20.1441 7.66571C19.9216 7.43376 19.7516 7.15662 19.6458 6.85312C19.5378 6.53466 19.4834 6.20048 19.4848 5.86421V5.73005C19.4675 5.41189 19.5164 5.09359 19.6286 4.79535C19.7408 4.49711 19.9137 4.22543 20.1364 3.99755C20.4062 3.76445 20.7197 3.58745 21.0587 3.47689C21.3977 3.36633 21.7553 3.32442 22.1106 3.35361H31.7899V2.97031C31.7989 2.87442 31.7716 2.77863 31.7132 2.702C31.6299 2.64237 31.5277 2.61512 31.4257 2.62535H20.6923C20.5341 2.63581 20.3756 2.6082 20.2302 2.54485C20.0848 2.4815 19.9567 2.38423 19.8566 2.26121C19.6813 2.04384 19.5841 1.77386 19.5806 1.49462C19.5813 1.36415 19.6033 1.23468 19.6458 1.11132C19.6903 0.972562 19.7591 0.842792 19.8489 0.728022C19.9407 0.610216 20.0589 0.515671 20.194 0.452047C20.3489 0.376343 20.52 0.339507 20.6923 0.344724H33.4574C34.3122 0.344724 34.9026 0.505709 35.2284 0.823846C35.4012 1.0113 35.5339 1.2321 35.6183 1.47268C35.7027 1.71327 35.737 1.96856 35.7191 2.22288V4.561C35.7191 4.78769 35.629 5.0051 35.4687 5.1654C35.3084 5.3257 35.091 5.41576 34.8642 5.41576H23.9775C23.9228 5.40961 23.8674 5.41608 23.8155 5.43468C23.7637 5.45329 23.7168 5.48353 23.6785 5.52308C23.6227 5.58955 23.5927 5.67393 23.5941 5.76072C23.5913 5.85709 23.621 5.95159 23.6785 6.02902C23.7155 6.07068 23.762 6.10286 23.814 6.12287C23.866 6.14288 23.9221 6.15013 23.9775 6.14402H35.0942C35.2573 6.12741 35.4218 6.1541 35.5712 6.2214C35.7206 6.28869 35.8496 6.39422 35.9452 6.52732C36.1019 6.76232 36.1859 7.03829 36.1867 7.32074C36.1839 7.59454 36.0998 7.86133 35.9452 8.08734C35.8499 8.22073 35.7209 8.32647 35.5714 8.3938C35.422 8.46113 35.2573 8.48764 35.0942 8.47064L22.1183 8.43231ZM22.4825 18.1297C22.031 18.1399 21.5801 18.0923 21.1408 17.9879C20.8204 17.9145 20.5278 17.7509 20.2975 17.5165C20.0804 17.2761 19.9309 16.9825 19.8643 16.6655C19.7752 16.2331 19.7341 15.7922 19.7416 15.3508V14.3351C19.7133 14.075 19.7532 13.8121 19.8574 13.5722C19.9616 13.3323 20.1265 13.1236 20.3358 12.9667C20.753 12.7011 21.2406 12.5675 21.735 12.5834C22.2223 12.5692 22.7015 12.7101 23.1035 12.9859C23.3048 13.1468 23.4623 13.3557 23.5614 13.5936C23.6606 13.8314 23.6982 14.0904 23.6708 14.3466V14.864C23.6708 15.0289 23.6938 15.1362 23.7475 15.1822C23.8534 15.2379 23.9736 15.2606 24.0925 15.2473H34.5192C34.7459 15.2242 34.9749 15.2509 35.1902 15.3258C35.4054 15.4006 35.6016 15.5217 35.7651 15.6805C36.0099 15.958 36.146 16.3147 36.1484 16.6847C36.1516 17.0627 36.0151 17.4285 35.7651 17.7119C35.6029 17.8689 35.4084 17.9886 35.1953 18.0628C34.9821 18.1369 34.7553 18.1637 34.5307 18.1412L22.4825 18.1297Z" fill="white"/>
<path d="M50.792 13.8369V16.2708C50.792 16.7893 50.5861 17.2865 50.2195 17.6531C49.8528 18.0197 49.3555 18.2256 48.837 18.2256C48.3185 18.2256 47.8213 18.0197 47.4546 17.6531C47.088 17.2865 46.882 16.7893 46.882 16.2708V13.8369H41.477C41.2475 13.859 41.0161 13.8272 40.8011 13.744C40.5862 13.6608 40.3936 13.5285 40.2388 13.3578C39.9906 13.0552 39.8552 12.6759 39.8555 12.2845C39.8548 12.0935 39.8832 11.9035 39.9398 11.7211C39.9969 11.5336 40.0921 11.3601 40.2196 11.2113C40.3514 11.0442 40.5227 10.9125 40.718 10.828C40.9613 10.7301 41.2225 10.6844 41.4847 10.6938H55.9862C56.2483 10.6857 56.5092 10.7313 56.7529 10.828C56.947 10.9146 57.1178 11.046 57.2513 11.2113C57.3763 11.3612 57.4701 11.5345 57.5273 11.7211C57.5851 11.9033 57.6148 12.0933 57.6154 12.2845C57.6154 12.6758 57.48 13.055 57.2321 13.3578C57.0781 13.5285 56.8862 13.6607 56.6718 13.7439C56.4575 13.8271 56.2266 13.859 55.9978 13.8369H50.792ZM55.1046 0.555617C55.3428 0.549904 55.579 0.599776 55.7946 0.701272C55.9762 0.790638 56.1339 0.92204 56.2546 1.08457C56.3686 1.23752 56.4531 1.41041 56.5037 1.59436C56.5533 1.77158 56.5792 1.95461 56.5804 2.13864C56.5789 2.3239 56.5531 2.50817 56.5037 2.68675C56.452 2.86898 56.3633 3.0386 56.2431 3.18504C56.1169 3.33723 55.9602 3.46127 55.7831 3.54917C55.5716 3.65035 55.3388 3.69901 55.1046 3.691H45.2528C45.1039 3.67404 44.9539 3.71222 44.8312 3.79832C44.7858 3.85566 44.7522 3.92144 44.7325 3.99184C44.7127 4.06225 44.7072 4.13587 44.7162 4.20844V5.68414C44.6991 5.83422 44.7403 5.98512 44.8312 6.10577C44.9518 6.19663 45.1027 6.23778 45.2528 6.22075H55.4112C55.6494 6.21504 55.8857 6.26491 56.1013 6.36641C56.2804 6.45102 56.4378 6.5756 56.5613 6.73055C56.6774 6.87901 56.7646 7.04806 56.8181 7.22883C56.875 7.40472 56.9047 7.58826 56.9063 7.77312C56.9045 7.9592 56.8748 8.14397 56.8181 8.32123C56.7612 8.50524 56.6702 8.67688 56.5497 8.82719C56.4261 8.9869 56.2692 9.11771 56.0898 9.21048C55.8783 9.31166 55.6455 9.36031 55.4112 9.3523H43.9112C43.4207 9.36219 42.931 9.30806 42.4545 9.19131C42.0963 9.10221 41.7683 8.91969 41.5038 8.66237C41.2567 8.39662 41.079 8.07408 40.9863 7.72329C40.8693 7.2599 40.8151 6.78289 40.8253 6.30508V3.60284C40.816 3.13138 40.8702 2.66082 40.9863 2.2038C41.079 1.85301 41.2567 1.53047 41.5038 1.26472C41.7675 1.00713 42.096 0.825679 42.4545 0.739604C42.9304 0.619516 43.4204 0.564081 43.9112 0.574789L55.1046 0.555617Z" fill="white"/>
<path d="M67.1795 10.5214V14.3735H70.3229C70.5529 14.3498 70.7852 14.3801 71.0015 14.462C71.2178 14.5438 71.412 14.6749 71.5687 14.845C71.8075 15.1471 71.936 15.5216 71.9329 15.9067C71.9352 16.3019 71.7996 16.6855 71.5495 16.9914C71.3935 17.1589 71.201 17.2881 70.9869 17.3692C70.7729 17.4503 70.543 17.4811 70.3152 17.459H60.6743C60.4448 17.4797 60.2136 17.4484 59.998 17.3674C59.7823 17.2865 59.5876 17.1579 59.4284 16.9914C59.1754 16.6871 59.0394 16.3024 59.0451 15.9067C59.0442 15.5188 59.1799 15.1429 59.4284 14.845C59.5874 14.6747 59.7837 14.5436 60.0018 14.4618C60.22 14.38 60.454 14.3498 60.6858 14.3735H63.465V10.5214H62.5641C61.6441 10.5214 60.958 10.3335 60.5133 9.95791C60.0686 9.58228 59.8425 8.92302 59.8425 7.9916V2.68293C59.8183 2.42063 59.8549 2.15629 59.9492 1.91037C60.0436 1.66445 60.1933 1.44353 60.3868 1.26472C60.772 0.963384 61.2511 0.807329 61.74 0.823934C62.2276 0.807247 62.7055 0.963361 63.0893 1.26472C63.2832 1.44335 63.4335 1.66413 63.5285 1.91002C63.6236 2.15591 63.6608 2.42035 63.6375 2.68293V6.86087C63.6375 7.07935 63.6681 7.21733 63.7333 7.27483C63.8611 7.34764 64.009 7.37722 64.155 7.35915H69.2342C69.4659 7.33567 69.6999 7.36796 69.9166 7.4533C70.1334 7.53865 70.3266 7.67458 70.48 7.84977C70.7264 8.16375 70.8613 8.55078 70.8634 8.94985C70.8679 9.3512 70.7324 9.74158 70.48 10.0537C70.324 10.2212 70.1314 10.3505 69.9174 10.4315C69.7033 10.5126 69.4735 10.5434 69.2457 10.5214H67.1795ZM74.5396 18.1298C74.0312 18.1298 73.5437 17.9279 73.1843 17.5685C72.8248 17.2091 72.6229 16.7216 72.6229 16.2133V2.03132C72.6043 1.76674 72.6464 1.50142 72.7461 1.25562C72.8457 1.00983 73.0003 0.79007 73.1979 0.613125C73.5728 0.29703 74.0492 0.126894 74.5396 0.134003C75.0298 0.127583 75.506 0.297635 75.8812 0.613125C76.0788 0.79007 76.2333 1.00983 76.333 1.25562C76.4326 1.50142 76.4748 1.76674 76.4562 2.03132V16.2133C76.4562 16.7216 76.2543 17.2091 75.8949 17.5685C75.5354 17.9279 75.0479 18.1298 74.5396 18.1298Z" fill="white"/>
<path d="M84.4298 -0.000203279C84.6913 -0.0158866 84.9533 0.0211591 85.2003 0.108734C85.4472 0.196309 85.6741 0.33262 85.8673 0.509577C86.0468 0.699846 86.1867 0.923885 86.2788 1.16866C86.3709 1.41344 86.4135 1.67408 86.404 1.93544H89.3173C89.5174 1.92287 89.718 1.95217 89.9061 2.02147C90.0942 2.09077 90.2658 2.19855 90.4099 2.33791C90.667 2.61248 90.8048 2.9777 90.7932 3.35365C90.7968 3.72593 90.6599 4.08589 90.4099 4.36172C90.2793 4.50078 90.1221 4.61214 89.9475 4.68918C89.773 4.76622 89.5847 4.80737 89.394 4.81018C89.5937 5.35628 89.6911 5.93447 89.6815 6.51585V7.32078C89.6815 8.62399 89.3748 9.62056 88.7692 10.3412C88.1279 11.0705 87.2621 11.5654 86.3082 11.7479V14.3735H89.4707C89.7007 14.3498 89.9331 14.3801 90.1493 14.4619C90.3656 14.5438 90.5598 14.6749 90.7166 14.8449C90.9553 15.147 91.0838 15.5216 91.0807 15.9066C91.0831 16.3018 90.9475 16.6854 90.6974 16.9914C90.5413 17.1588 90.3488 17.2881 90.1347 17.3692C89.9207 17.4503 89.6909 17.481 89.463 17.459H79.8221C79.5927 17.4796 79.3615 17.4483 79.1458 17.3674C78.9301 17.2864 78.7355 17.1579 78.5763 16.9914C78.3232 16.6871 78.1873 16.3024 78.1929 15.9066C78.1921 15.5187 78.3278 15.1428 78.5763 14.8449C78.7353 14.6747 78.9315 14.5436 79.1496 14.4618C79.3678 14.38 79.6018 14.3498 79.8336 14.3735H82.5169V11.7479C81.5555 11.5683 80.6814 11.0733 80.0329 10.3412C79.4273 9.63333 79.1244 8.62655 79.1244 7.32078V6.51585C79.1148 5.93447 79.2122 5.35628 79.4119 4.81018C79.2226 4.80572 79.036 4.76379 78.863 4.68682C78.6899 4.60984 78.5338 4.49935 78.4037 4.36172C78.1513 4.08733 78.0141 3.72641 78.0204 3.35365C78.0138 3.16739 78.0444 2.98169 78.1102 2.80732C78.176 2.63294 78.2757 2.47339 78.4037 2.33791C78.5474 2.19796 78.719 2.08979 78.9072 2.02045C79.0954 1.95111 79.2961 1.92215 79.4962 1.93544H82.4288C82.4184 1.67398 82.4606 1.4131 82.5528 1.16821C82.645 0.923307 82.7853 0.699351 82.9655 0.509577C83.1619 0.329242 83.3931 0.190987 83.6449 0.103318C83.8967 0.0156487 84.1638 -0.0195766 84.4298 -0.000203279ZM82.7431 7.41661C82.7181 7.6537 82.7503 7.89333 82.837 8.11542C82.9237 8.3375 83.0624 8.53556 83.2414 8.69298C83.5837 8.9498 84.002 9.08473 84.4298 9.07628C84.8576 9.08473 85.2759 8.9498 85.6182 8.69298C85.7965 8.53497 85.9346 8.33683 86.0212 8.1149C86.1079 7.89297 86.1406 7.65363 86.1165 7.41661V6.32421C86.1406 6.08776 86.1079 5.84897 86.0212 5.62765C85.9346 5.40634 85.7964 5.20888 85.6182 5.05166C85.2759 4.79484 84.8576 4.65991 84.4298 4.66836C84.002 4.65991 83.5837 4.79484 83.2414 5.05166C83.0624 5.20828 82.9237 5.40565 82.837 5.62713C82.7503 5.8486 82.7181 6.08768 82.7431 6.32421V7.41661ZM93.7065 18.1298C93.1982 18.1298 92.7107 17.9279 92.3513 17.5684C91.9918 17.209 91.7898 16.7216 91.7898 16.2133V2.03127C91.7712 1.76669 91.8134 1.50137 91.9131 1.25557C92.0127 1.00978 92.1672 0.79002 92.3648 0.613075C92.7397 0.29698 93.2162 0.126844 93.7065 0.133953C94.1967 0.127533 94.6729 0.297585 95.0482 0.613075C95.2458 0.79002 95.4004 1.00978 95.5 1.25557C95.5997 1.50137 95.6418 1.76669 95.6232 2.03127V16.2133C95.6232 16.7216 95.4213 17.209 95.0618 17.5684C94.7024 17.9279 94.2148 18.1298 93.7065 18.1298Z" fill="white"/>
<path d="M104.996 3.85189V4.61849C104.996 4.76159 104.996 4.89575 104.996 5.02096C104.996 5.14745 104.996 5.27777 104.969 5.40426C106.4 5.52947 107.461 6.03413 108.151 6.91827C108.542 7.44474 108.815 8.05041 108.948 8.69294C109.007 8.95413 109.006 9.22519 108.945 9.48599C108.885 9.74679 108.767 9.99063 108.599 10.1994C108.432 10.4082 108.219 10.5766 107.978 10.692C107.736 10.8075 107.472 10.867 107.204 10.8662C106.813 10.8648 106.433 10.735 106.123 10.4968C105.812 10.2586 105.589 9.92517 105.486 9.5477C105.432 9.35626 105.355 9.17217 105.256 8.99958C105.139 8.7782 104.972 8.58633 104.77 8.43832C104.567 8.2903 104.334 8.18997 104.087 8.14483C103.826 8.58275 103.511 8.98586 103.148 9.34456C102.797 9.68858 102.404 9.98731 101.979 10.2338C101.563 10.4761 101.119 10.6666 100.656 10.8011C100.208 10.9334 99.7439 11.0069 99.2764 11.0196C98.8322 11.0548 98.3915 10.9175 98.0459 10.6363C97.8749 10.4921 97.7381 10.3118 97.6452 10.1082C97.5524 9.90475 97.506 9.68318 97.5093 9.45954C97.492 9.1213 97.5907 8.78731 97.7891 8.51279C98.0087 8.23259 98.3292 8.04958 98.6822 8.00301C99.075 7.9487 99.4533 7.81748 99.7953 7.61689C100.137 7.41629 100.436 7.15024 100.676 6.83395C101.142 6.18797 101.384 5.40728 101.366 4.61083V3.84423H99.0655C98.8548 3.84961 98.6463 3.80077 98.4599 3.70241C98.2939 3.61094 98.1479 3.48712 98.0305 3.33828C97.9146 3.19069 97.8239 3.0249 97.7622 2.84766C97.699 2.67581 97.6665 2.49416 97.6664 2.31104C97.6669 2.13325 97.6927 1.95643 97.743 1.78592C97.7922 1.60145 97.8769 1.42829 97.9923 1.27613C98.1113 1.11939 98.2613 0.988903 98.4331 0.892835C98.6262 0.785716 98.8447 0.732747 99.0655 0.739518H107.633C107.854 0.733684 108.072 0.786594 108.266 0.892835C108.437 0.989953 108.587 1.12027 108.706 1.27613C108.821 1.42908 108.905 1.60197 108.956 1.78592C109.004 1.95684 109.03 2.1334 109.032 2.31104C109.03 2.49398 108.998 2.67532 108.936 2.84766C108.873 3.02422 108.783 3.18977 108.668 3.33828C108.549 3.48723 108.402 3.61102 108.235 3.70241C108.05 3.80078 107.843 3.84964 107.633 3.84423L104.996 3.85189ZM101.603 18.1297C101.154 18.1409 100.705 18.0893 100.269 17.9764C99.9539 17.8945 99.6665 17.729 99.4374 17.4973C99.2187 17.2536 99.0691 16.9558 99.0042 16.6349C98.9159 16.2062 98.8747 15.7692 98.8815 15.3317V13.4727C98.8597 13.2042 98.9011 12.9344 99.0023 12.6848C99.1034 12.4352 99.2616 12.2128 99.4642 12.0353C99.8614 11.7267 100.353 11.5642 100.856 11.5753C101.35 11.561 101.833 11.7242 102.217 12.0353C102.412 12.2174 102.563 12.4413 102.659 12.6902C102.756 12.9391 102.794 13.2067 102.772 13.4727V14.6801C102.772 14.8985 102.803 15.0327 102.868 15.0825C102.999 15.1476 103.145 15.1742 103.29 15.1592H113.698C113.926 15.1366 114.156 15.1655 114.372 15.2438C114.587 15.322 114.783 15.4477 114.943 15.6115C115.181 15.8991 115.31 16.2615 115.308 16.6349C115.309 17.0183 115.173 17.3896 114.924 17.6813C114.764 17.8428 114.571 17.9668 114.357 18.0443C114.144 18.1219 113.916 18.1511 113.69 18.1297H101.603ZM110.995 7.05243H109.902C109.653 7.06048 109.404 7.01472 109.174 6.91827C108.994 6.83856 108.833 6.72089 108.703 6.57331C108.579 6.42958 108.491 6.25892 108.446 6.07503C108.394 5.8878 108.368 5.69434 108.369 5.50008C108.368 5.30957 108.394 5.11983 108.446 4.93663C108.494 4.75509 108.578 4.58541 108.695 4.43834C108.818 4.28162 108.979 4.15892 109.163 4.08187C109.397 3.98628 109.649 3.94059 109.902 3.94772H110.995V1.9929C110.977 1.73289 111.019 1.47222 111.119 1.23143C111.219 0.990635 111.373 0.776312 111.57 0.605361C111.941 0.295756 112.41 0.128584 112.892 0.133913C113.134 0.133908 113.375 0.176726 113.602 0.260396C113.826 0.338865 114.034 0.458452 114.215 0.613035C114.397 0.772235 114.543 0.968181 114.644 1.18798C114.76 1.44031 114.816 1.71556 114.809 1.9929V11.9011C114.808 12.3742 114.619 12.8275 114.285 13.1617C113.95 13.4958 113.496 13.6835 113.023 13.6835H112.777C112.305 13.6835 111.851 13.4957 111.517 13.1614C111.183 12.8272 110.995 12.3738 110.995 11.9011V7.05243Z" fill="white"/>
<path d="M132.826 14.5271C133.089 14.5195 133.351 14.5692 133.593 14.6727C133.791 14.7614 133.967 14.8922 134.11 15.056C134.242 15.2057 134.34 15.3822 134.398 15.5735C134.455 15.7598 134.485 15.9535 134.486 16.1484C134.485 16.3502 134.452 16.5507 134.39 16.7425C134.325 16.933 134.224 17.1088 134.091 17.26C133.952 17.4177 133.779 17.5421 133.585 17.6241C133.341 17.7208 133.08 17.7665 132.818 17.7583H118.175C117.919 17.765 117.665 17.7194 117.427 17.6241C117.232 17.5432 117.057 17.4186 116.917 17.26C116.784 17.1097 116.684 16.9336 116.622 16.7425C116.558 16.5511 116.525 16.3504 116.526 16.1484C116.526 15.9537 116.555 15.76 116.611 15.5735C116.668 15.3822 116.766 15.2057 116.898 15.056C117.041 14.8922 117.217 14.7614 117.416 14.6727C117.658 14.5695 117.919 14.5198 118.182 14.5271H132.826ZM117.109 5.69208C117.108 5.03703 117.228 4.3874 117.462 3.77559C117.692 3.17275 118.041 2.62258 118.489 2.15807C118.953 1.67718 119.51 1.29516 120.126 1.035C120.815 0.746227 121.556 0.602703 122.303 0.613384H128.724C129.47 0.602348 130.21 0.745896 130.898 1.035C131.516 1.29593 132.077 1.67775 132.546 2.15807C133 2.61914 133.353 3.17013 133.581 3.77559C133.818 4.38665 133.939 5.03662 133.938 5.69208V6.1712C133.94 6.82669 133.819 7.47673 133.581 8.08769C133.352 8.69381 132.999 9.24585 132.546 9.70903C132.076 10.1869 131.515 10.5672 130.898 10.8283C130.21 11.1174 129.47 11.2609 128.724 11.2499H122.303C121.556 11.2606 120.815 11.117 120.126 10.8283C119.511 10.5681 118.955 10.1876 118.489 9.70903C118.042 9.24249 117.693 8.69123 117.462 8.08769C117.227 7.47597 117.108 6.82627 117.109 6.1712V5.69208ZM129.951 5.65375C129.956 5.39341 129.903 5.13526 129.794 4.89839C129.686 4.66153 129.526 4.45201 129.326 4.28537C128.881 3.90915 128.31 3.71358 127.727 3.73726H123.3C122.72 3.71249 122.151 3.90831 121.709 4.28537C121.512 4.45384 121.355 4.66398 121.249 4.90061C121.143 5.13725 121.09 5.39449 121.096 5.65375V6.20952C121.09 6.46934 121.143 6.72716 121.249 6.96442C121.355 7.20168 121.512 7.4125 121.709 7.58173C122.152 7.95741 122.72 8.15184 123.3 8.12601H127.727C128.31 8.15075 128.88 7.95657 129.326 7.58173C129.526 7.41432 129.686 7.20412 129.794 6.96663C129.902 6.72914 129.956 6.47041 129.951 6.20952V5.65375Z" fill="white"/>
<path d="M142.716 14.642V11.9398H140.205C138.927 11.9398 137.971 11.6433 137.338 11.0505C137.016 10.7332 136.765 10.3511 136.602 9.92948C136.438 9.50791 136.367 9.05648 136.391 8.60507V8.24095C136.367 7.78849 136.44 7.33615 136.603 6.91347C136.766 6.49078 137.016 6.10724 137.338 5.78785C137.969 5.18735 138.925 4.8871 140.205 4.8871H148.638V4.31215C148.641 4.17821 148.607 4.04605 148.543 3.92885C148.494 3.86475 148.43 3.81487 148.356 3.78451C148.281 3.75414 148.2 3.74442 148.121 3.75636H138.097C137.892 3.76579 137.688 3.72858 137.5 3.64757C137.312 3.56655 137.145 3.44385 137.012 3.28874C136.761 2.99082 136.625 2.61277 136.629 2.22317C136.628 1.83752 136.763 1.46401 137.012 1.16911C137.144 1.01101 137.31 0.885488 137.498 0.802371C137.686 0.719254 137.891 0.680791 138.097 0.689983H149.194C149.752 0.674466 150.309 0.749552 150.843 0.912302C151.232 1.03082 151.587 1.24114 151.878 1.52557C152.135 1.79099 152.322 2.11639 152.422 2.47231C152.537 2.87736 152.593 3.29699 152.587 3.71803V6.62343C152.587 6.9284 152.466 7.22088 152.25 7.43653C152.034 7.65217 151.742 7.77333 151.437 7.77333H141.171C140.734 7.77333 140.519 7.95347 140.519 8.30994V8.40576C140.519 8.76223 140.734 8.94238 141.171 8.94238H151.559C151.793 8.93578 152.025 8.98162 152.238 9.07654C152.414 9.15735 152.571 9.27498 152.698 9.4215C152.818 9.56049 152.907 9.72395 152.959 9.90062C153.008 10.0752 153.034 10.2557 153.035 10.4372C153.036 10.8048 152.915 11.1622 152.69 11.453C152.552 11.6146 152.378 11.7407 152.181 11.8208C151.984 11.9008 151.771 11.9324 151.559 11.9129H146.653V14.6152H152.058C152.313 14.6096 152.568 14.6552 152.805 14.7493C152.996 14.8291 153.167 14.951 153.304 15.1058C153.43 15.2504 153.524 15.4203 153.58 15.6041C153.638 15.7863 153.667 15.9763 153.668 16.1675C153.667 16.5587 153.532 16.9377 153.285 17.2408C153.13 17.4115 152.939 17.5437 152.724 17.6269C152.51 17.7101 152.279 17.742 152.05 17.7199H137.33C137.101 17.742 136.869 17.7102 136.654 17.627C136.439 17.5438 136.247 17.4115 136.092 17.2408C135.844 16.9379 135.709 16.5588 135.709 16.1675C135.708 15.9765 135.736 15.7865 135.793 15.6041C135.848 15.4194 135.944 15.2493 136.073 15.1058C136.208 14.9493 136.379 14.8271 136.571 14.7493C136.814 14.6515 137.076 14.6058 137.338 14.6152L142.716 14.642Z" fill="white"/>
<path d="M165.122 5.3662C165.122 6.16091 165.099 6.92111 165.053 7.64682C165.007 8.37508 164.942 9.07269 164.854 9.73579C165.396 9.96576 165.897 10.283 166.337 10.6749C166.781 11.0791 167.139 11.5678 167.391 12.1122C167.69 12.7659 167.888 13.4612 167.978 14.1744C168.029 14.5494 168.061 14.9268 168.074 15.3051C168.081 15.5242 168.045 15.7426 167.967 15.9473C167.888 16.1521 167.77 16.339 167.618 16.497C167.466 16.655 167.284 16.7809 167.082 16.8672C166.88 16.9535 166.664 16.9984 166.444 16.9993C166.017 16.9983 165.607 16.8294 165.303 16.529C164.999 16.2285 164.825 15.8207 164.819 15.3933C164.814 15.1546 164.793 14.9165 164.758 14.6803C164.684 14.1252 164.459 13.6011 164.106 13.1663C163.824 14.0082 163.424 14.8058 162.918 15.5351C162.471 16.1686 161.871 16.6789 161.173 17.0184C160.956 17.1211 160.727 17.1958 160.491 17.2408C160.264 17.2839 160.031 17.293 159.801 17.2676C159.586 17.2429 159.377 17.1847 159.18 17.0951C158.991 17.0089 158.831 16.869 158.72 16.6926C158.494 16.3546 158.399 15.9459 158.452 15.5428C158.477 15.3276 158.548 15.1204 158.661 14.9352C158.773 14.75 158.924 14.5912 159.104 14.4695C159.583 14.1309 160.003 13.7166 160.349 13.243C160.711 12.7138 160.983 12.1284 161.154 11.5105C161.381 10.6827 161.531 9.83591 161.603 8.9807C161.699 7.98796 161.748 6.79207 161.748 5.38536H159.87C159.659 5.39074 159.451 5.34191 159.264 5.24354C159.096 5.14804 158.949 5.01732 158.835 4.86025C158.717 4.704 158.627 4.52908 158.567 4.34279C158.504 4.1641 158.472 3.9763 158.471 3.78702C158.471 3.59911 158.497 3.41209 158.548 3.23123C158.596 3.04406 158.681 2.86823 158.797 2.71378C158.913 2.55439 159.064 2.42336 159.238 2.33048C159.433 2.22953 159.65 2.17943 159.87 2.18483H161.672V1.91652C161.64 1.43265 161.798 0.955365 162.113 0.58648C162.284 0.420474 162.489 0.292645 162.714 0.211394C162.939 0.130143 163.178 0.097302 163.416 0.11502C163.659 0.097613 163.903 0.13125 164.132 0.213769C164.361 0.296288 164.57 0.42586 164.746 0.594142C165.065 0.958284 165.228 1.4334 165.199 1.91652V2.18483H166.789C167.009 2.18025 167.226 2.2303 167.422 2.33048C167.595 2.42432 167.746 2.55519 167.863 2.71378C167.978 2.86903 168.062 3.04459 168.112 3.23123C168.161 3.41247 168.187 3.59925 168.189 3.78702C168.186 3.97613 168.153 4.16363 168.093 4.34279C168.031 4.52844 167.941 4.70312 167.824 4.86025C167.709 5.01749 167.561 5.1482 167.391 5.24354C167.206 5.34192 166.999 5.39077 166.789 5.38536L165.122 5.3662ZM168.821 9.83162H167.537C167.283 9.84032 167.03 9.79186 166.797 9.6898C166.607 9.59663 166.438 9.4663 166.299 9.3065C166.162 9.15415 166.062 8.9735 166.004 8.77755C165.948 8.58702 165.92 8.38959 165.919 8.1911C165.919 7.99636 165.947 7.80265 166.004 7.61616C166.06 7.42398 166.156 7.24533 166.283 7.09104C166.416 6.92519 166.587 6.79373 166.782 6.70775C167.017 6.60473 167.272 6.55499 167.529 6.56209H168.813V1.76321C168.797 1.53768 168.831 1.31128 168.914 1.10089C168.997 0.890509 169.126 0.701564 169.293 0.548148C169.611 0.271901 170.021 0.124307 170.443 0.134192C170.863 0.132017 171.27 0.278663 171.593 0.548148C171.767 0.69656 171.904 0.883856 171.992 1.09492C172.081 1.30598 172.119 1.5349 172.102 1.76321V16.501C172.102 16.933 171.931 17.3474 171.625 17.6529C171.32 17.9584 170.905 18.13 170.473 18.13H170.435C170.003 18.13 169.588 17.9584 169.283 17.6529C168.977 17.3474 168.806 16.933 168.806 16.501L168.821 9.83162ZM173.038 1.76321C173.022 1.53423 173.061 1.30482 173.151 1.09366C173.241 0.882511 173.379 0.695589 173.555 0.548148C173.891 0.27538 174.311 0.128897 174.744 0.134192C174.959 0.133661 175.173 0.169958 175.376 0.241515C175.577 0.308756 175.762 0.415632 175.921 0.55581C176.082 0.697973 176.212 0.871428 176.304 1.0656C176.405 1.28396 176.455 1.5226 176.449 1.76321V16.501C176.449 16.933 176.278 17.3474 175.972 17.6529C175.667 17.9584 175.252 18.13 174.82 18.13H174.667C174.235 18.13 173.82 17.9584 173.515 17.6529C173.209 17.3474 173.038 16.933 173.038 16.501V1.76321Z" fill="white"/>
<path d="M194.16 14.527C194.423 14.5195 194.685 14.5692 194.927 14.6727C195.125 14.7613 195.301 14.8921 195.444 15.056C195.578 15.2087 195.676 15.3894 195.732 15.5849C195.789 15.7739 195.818 15.9701 195.82 16.1675C195.819 16.3693 195.786 16.5697 195.724 16.7616C195.659 16.952 195.558 17.1279 195.425 17.2791C195.286 17.4368 195.113 17.5612 194.919 17.6432C194.675 17.7399 194.414 17.7856 194.152 17.7774H179.509C179.253 17.7841 178.999 17.7385 178.761 17.6432C178.566 17.5623 178.391 17.4377 178.251 17.2791C178.118 17.1288 178.018 16.9526 177.956 16.7616C177.892 16.5702 177.859 16.3695 177.86 16.1675C177.86 15.9703 177.889 15.7741 177.945 15.5849C178 15.3894 178.098 15.2087 178.232 15.056C178.375 14.8921 178.551 14.7613 178.75 14.6727C178.992 14.5694 179.253 14.5197 179.516 14.527H194.16ZM188.793 2.45313C188.775 3.04952 188.685 3.64154 188.525 4.2163C189.344 4.24484 190.153 4.40667 190.921 4.69542C191.715 4.99307 192.444 5.44217 193.067 6.01779C193.738 6.64968 194.28 7.4044 194.666 8.24092C194.75 8.41724 194.831 8.60122 194.9 8.78904C195.008 9.08512 195.044 9.40307 195.003 9.71583C194.963 10.0286 194.847 10.3269 194.666 10.5854C194.486 10.844 194.245 11.0551 193.966 11.2008C193.686 11.3465 193.375 11.4225 193.06 11.4223C192.664 11.4228 192.278 11.3027 191.953 11.0781C191.627 10.8535 191.378 10.5349 191.239 10.1651C191.173 9.99653 191.099 9.83149 191.016 9.67062C190.766 9.17612 190.424 8.73383 190.008 8.36741C189.608 8.01638 189.143 7.74572 188.64 7.57015C188.116 7.38971 187.564 7.30531 187.011 7.32101C186.577 7.9196 186.082 8.4719 185.535 8.96919C185.002 9.45567 184.42 9.88595 183.798 10.2532C183.206 10.6044 182.576 10.8873 181.92 11.0965C181.3 11.2971 180.655 11.4069 180.003 11.4223C179.562 11.4417 179.128 11.3061 178.777 11.039C178.605 10.9072 178.464 10.7408 178.362 10.5505C178.259 10.3603 178.198 10.1506 178.182 9.93509C178.12 9.51067 178.223 9.07851 178.47 8.72771C178.732 8.36998 179.125 8.12921 179.562 8.05694C180.203 7.91031 180.819 7.67145 181.391 7.34783C181.985 7.01357 182.526 6.59096 182.993 6.09446C183.475 5.57199 183.875 4.98024 184.182 4.33896C184.509 3.64291 184.723 2.89877 184.814 2.135C184.831 1.87005 184.906 1.61199 185.033 1.37893C185.16 1.14586 185.336 0.943416 185.55 0.785781C185.967 0.494662 186.473 0.359024 186.98 0.402483C187.485 0.428292 187.963 0.639891 188.322 0.996602C188.492 1.19223 188.62 1.42083 188.698 1.66814C188.775 1.91546 188.801 2.17616 188.774 2.43397L188.793 2.45313Z" fill="white"/>
<path d="M213.614 7.97263C213.807 7.95374 214.002 7.97837 214.185 8.0447C214.367 8.11103 214.532 8.21737 214.668 8.35593C214.868 8.59421 214.977 8.89581 214.975 9.20685C214.983 9.52786 214.869 9.84003 214.657 10.0808C214.518 10.2095 214.353 10.3075 214.173 10.3682C213.993 10.429 213.803 10.4512 213.614 10.4334H198.377C198.189 10.4526 197.999 10.431 197.821 10.3701C197.642 10.3093 197.479 10.2106 197.342 10.0808C197.134 9.83794 197.024 9.52622 197.035 9.20685C197.031 8.89552 197.14 8.59334 197.342 8.35593C197.474 8.218 197.636 8.11185 197.815 8.04546C197.994 7.97907 198.186 7.95417 198.377 7.97263H213.614ZM199.948 18.13C199.622 18.1545 199.294 18.109 198.987 17.9966C198.679 17.8843 198.399 17.7076 198.166 17.4784C197.767 17.0385 197.555 16.4617 197.572 15.8686V15.7536C197.554 15.4713 197.597 15.1884 197.697 14.924C197.798 14.6596 197.954 14.4197 198.154 14.2204C198.661 13.817 199.302 13.6211 199.948 13.6723H210.241V13.3273C210.246 13.2863 210.243 13.2446 210.231 13.205C210.219 13.1654 210.199 13.1287 210.172 13.0973C210.088 13.0492 209.992 13.0291 209.896 13.0398H198.779C198.636 13.0507 198.492 13.028 198.358 12.9734C198.225 12.9189 198.107 12.834 198.012 12.7255C197.848 12.5359 197.757 12.294 197.756 12.0433C197.758 11.7948 197.838 11.5534 197.986 11.3533C198.08 11.2385 198.201 11.1487 198.338 11.0918C198.475 11.035 198.624 11.0129 198.771 11.0275H212.112C212.901 11.0275 213.446 11.1693 213.741 11.4491C213.897 11.6184 214.017 11.8181 214.093 12.0357C214.169 12.2533 214.199 12.4842 214.182 12.714V14.2894C214.182 14.4374 214.152 14.5839 214.096 14.7206C214.039 14.8573 213.956 14.9816 213.851 15.0862C213.747 15.1909 213.623 15.2739 213.486 15.3305C213.349 15.3871 213.203 15.4163 213.055 15.4163H202.037C201.987 15.41 201.936 15.4166 201.889 15.4354C201.843 15.4541 201.801 15.4845 201.769 15.5236C201.719 15.5854 201.692 15.6626 201.692 15.7421C201.692 15.9452 201.807 16.0487 202.037 16.0487H213.384C213.53 16.0317 213.679 16.054 213.813 16.1133C213.948 16.1726 214.065 16.2667 214.151 16.386C214.295 16.5975 214.372 16.8471 214.373 17.1028C214.365 17.3414 214.293 17.5734 214.162 17.7736C214.077 17.8943 213.961 17.9899 213.826 18.0506C213.691 18.1112 213.543 18.1347 213.396 18.1185L199.948 18.13ZM200.082 7.41686C199.756 7.44131 199.428 7.39583 199.121 7.28346C198.813 7.17109 198.534 6.99442 198.3 6.76525C197.902 6.32538 197.689 5.74856 197.706 5.15539V5.04041C197.688 4.76268 197.731 4.4844 197.831 4.22493C197.932 3.96545 198.088 3.731 198.288 3.53787C198.801 3.14605 199.44 2.95764 200.082 3.00893H210.049V2.68313C210.054 2.6421 210.051 2.60042 210.039 2.5608C210.027 2.52118 210.007 2.48451 209.98 2.45315C209.897 2.40507 209.8 2.38493 209.704 2.39565H198.875C198.73 2.40642 198.585 2.38247 198.452 2.3258C198.319 2.26912 198.201 2.18136 198.108 2.06985C197.946 1.87635 197.855 1.63262 197.851 1.37992C197.854 1.12923 197.935 0.885552 198.081 0.682313C198.173 0.563765 198.293 0.470545 198.43 0.411509C198.568 0.352472 198.718 0.32958 198.867 0.345009H211.92C212.71 0.345009 213.254 0.486832 213.549 0.766639C213.705 0.935933 213.825 1.1356 213.901 1.35321C213.977 1.57083 214.007 1.80172 213.99 2.03152V3.88668C213.99 4.11642 213.899 4.33676 213.736 4.49922C213.574 4.66167 213.353 4.75293 213.123 4.75293H202.152C202.103 4.74695 202.053 4.7525 202.007 4.76913C201.96 4.78577 201.918 4.81303 201.884 4.84876C201.834 4.90739 201.806 4.98232 201.807 5.05957C201.807 5.25121 201.922 5.34704 202.152 5.34704H213.442C213.588 5.33003 213.736 5.35232 213.871 5.41161C214.006 5.4709 214.122 5.56504 214.208 5.68434C214.354 5.89506 214.431 6.14512 214.431 6.40111C214.423 6.63976 214.35 6.87174 214.22 7.07188C214.135 7.19258 214.018 7.28823 213.884 7.3489C213.749 7.40956 213.6 7.43303 213.453 7.41686H200.082Z" fill="white"/>
<path d="M229.044 13.8369V16.2708C229.044 16.7893 228.838 17.2865 228.471 17.6531C228.104 18.0197 227.607 18.2256 227.089 18.2256C226.57 18.2256 226.073 18.0197 225.706 17.6531C225.339 17.2865 225.134 16.7893 225.134 16.2708V13.8369H219.728C219.499 13.859 219.268 13.8272 219.053 13.744C218.838 13.6608 218.645 13.5285 218.49 13.3578C218.242 13.0552 218.107 12.6759 218.107 12.2845C218.106 12.0935 218.135 11.9035 218.191 11.7211C218.248 11.5336 218.344 11.3601 218.471 11.2113C218.603 11.0442 218.774 10.9125 218.969 10.828C219.213 10.7301 219.474 10.6844 219.736 10.6938H234.238C234.5 10.6857 234.761 10.7313 235.004 10.828C235.198 10.9146 235.369 11.046 235.503 11.2113C235.628 11.3612 235.722 11.5345 235.779 11.7211C235.837 11.9033 235.866 12.0933 235.867 12.2845C235.867 12.6758 235.731 13.055 235.484 13.3578C235.33 13.5285 235.138 13.6607 234.923 13.7439C234.709 13.8271 234.478 13.859 234.249 13.8369H229.044ZM233.356 0.555617C233.594 0.549904 233.831 0.599776 234.046 0.701272C234.228 0.790638 234.385 0.92204 234.506 1.08457C234.62 1.23752 234.705 1.41041 234.755 1.59436C234.805 1.77158 234.831 1.95461 234.832 2.13864C234.83 2.3239 234.805 2.50817 234.755 2.68675C234.704 2.86898 234.615 3.0386 234.495 3.18504C234.368 3.33723 234.212 3.46127 234.035 3.54917C233.823 3.65035 233.59 3.69901 233.356 3.691H223.504C223.355 3.67404 223.205 3.71222 223.083 3.79832C223.037 3.85566 223.004 3.92144 222.984 3.99184C222.964 4.06225 222.959 4.13587 222.968 4.20844V5.68414C222.951 5.83422 222.992 5.98512 223.083 6.10577C223.203 6.19663 223.354 6.23778 223.504 6.22075H233.663C233.901 6.21504 234.137 6.26491 234.353 6.36641C234.532 6.45102 234.689 6.5756 234.813 6.73055C234.929 6.87901 235.016 7.04806 235.07 7.22883C235.126 7.40472 235.156 7.58826 235.158 7.77312C235.156 7.9592 235.126 8.14397 235.07 8.32123C235.013 8.50524 234.922 8.67688 234.801 8.82719C234.678 8.9869 234.521 9.11771 234.341 9.21048C234.13 9.31166 233.897 9.36031 233.663 9.3523H222.143C221.653 9.36219 221.163 9.30806 220.687 9.19131C220.329 9.10221 220.001 8.91969 219.736 8.66237C219.489 8.39662 219.311 8.07408 219.219 7.72329C219.102 7.2599 219.047 6.78289 219.058 6.30508V3.60284C219.048 3.13138 219.103 2.66082 219.219 2.2038C219.311 1.85301 219.489 1.53047 219.736 1.26472C220 1.00713 220.328 0.825679 220.687 0.739604C221.163 0.619516 221.653 0.564081 222.143 0.574789L233.356 0.555617Z" fill="white"/>
<path d="M253.615 8.18339C253.872 8.17704 254.127 8.22674 254.362 8.32904C254.552 8.41424 254.722 8.53829 254.861 8.69317C254.988 8.84012 255.082 9.01266 255.137 9.19913C255.194 9.38544 255.224 9.57915 255.225 9.77408C255.223 10.1685 255.088 10.5507 254.842 10.8588C254.689 11.0321 254.498 11.1667 254.283 11.2513C254.069 11.336 253.837 11.3683 253.607 11.3456H238.887C238.657 11.368 238.425 11.3355 238.21 11.2509C237.994 11.1663 237.802 11.0319 237.649 10.8588C237.402 10.5508 237.267 10.1685 237.266 9.77408C237.265 9.57933 237.294 9.38562 237.35 9.19913C237.404 9.01175 237.5 8.8389 237.63 8.69317C237.767 8.5366 237.937 8.41225 238.128 8.32904C238.369 8.22321 238.632 8.17342 238.895 8.18339H253.615ZM240.811 7.0335C240.36 7.04372 239.909 6.99605 239.47 6.89167C239.149 6.81825 238.857 6.65466 238.626 6.42022C238.409 6.17985 238.26 5.88624 238.193 5.5693C238.104 5.1369 238.063 4.696 238.071 4.25459V2.16562C238.047 1.89986 238.088 1.63236 238.189 1.38558C238.291 1.1388 238.45 0.919946 238.653 0.74741C239.055 0.449425 239.545 0.294274 240.045 0.306621C240.538 0.291896 241.021 0.44756 241.413 0.74741C241.613 0.922294 241.769 1.14195 241.867 1.38844C241.966 1.63492 242.005 1.90123 241.981 2.16562V3.58382C241.981 3.8023 242.011 3.93645 242.077 3.98628C242.207 4.0514 242.353 4.07799 242.498 4.06294H252.906C253.134 4.04035 253.364 4.06926 253.58 4.14754C253.796 4.22582 253.991 4.35146 254.152 4.51523C254.397 4.80022 254.532 5.16287 254.535 5.53863C254.536 5.92206 254.4 6.29334 254.152 6.58504C253.992 6.74653 253.798 6.87053 253.585 6.94809C253.371 7.02564 253.143 7.05482 252.917 7.0335H240.811ZM240.984 18.13C240.533 18.1402 240.082 18.0925 239.642 17.9881C239.322 17.9147 239.029 17.7511 238.799 17.5167C238.582 17.2763 238.432 16.9827 238.366 16.6658C238.277 16.2334 238.236 15.7925 238.243 15.3511V13.9903C238.219 13.7234 238.261 13.4547 238.364 13.2075C238.468 12.9604 238.63 12.7422 238.837 12.5721C239.242 12.2746 239.734 12.1196 240.236 12.1314C240.73 12.1166 241.213 12.2723 241.605 12.5721C241.805 12.747 241.96 12.9667 242.059 13.2132C242.158 13.4597 242.196 13.726 242.172 13.9903V14.6803C242.172 14.8988 242.203 15.0329 242.268 15.0827C242.399 15.1479 242.545 15.1744 242.69 15.1594H253.021C253.249 15.1368 253.479 15.1657 253.695 15.244C253.911 15.3223 254.106 15.4479 254.267 15.6117C254.505 15.8994 254.634 16.2618 254.631 16.6351C254.632 17.0185 254.496 17.3898 254.247 17.6815C254.088 17.843 253.894 17.967 253.681 18.0446C253.467 18.1221 253.239 18.1513 253.013 18.13H240.984Z" fill="white"/>
<path d="M264.387 13.7985C264.427 13.9241 264.459 14.0522 264.483 14.1818C264.508 14.3235 264.52 14.4672 264.521 14.6111V14.7644C264.521 14.9829 264.552 15.117 264.617 15.1477C264.747 15.2128 264.894 15.2394 265.038 15.2244H275.446C275.673 15.2012 275.902 15.228 276.117 15.3028C276.332 15.3776 276.528 15.4987 276.692 15.6575C276.93 15.9378 277.059 16.2942 277.056 16.6617C277.059 17.0397 276.923 17.4055 276.673 17.689C276.511 17.8459 276.316 17.9657 276.103 18.0398C275.89 18.114 275.663 18.1407 275.438 18.1183H263.371C262.921 18.1295 262.472 18.0779 262.037 17.965C261.722 17.883 261.434 17.7175 261.205 17.4858C260.986 17.2421 260.837 16.9444 260.772 16.6234C260.684 16.1948 260.642 15.7578 260.649 15.3202V14.5919C260.626 14.3262 260.667 14.0587 260.768 13.8119C260.869 13.5651 261.028 13.3463 261.232 13.1737C261.634 12.8757 262.123 12.7206 262.623 12.7329C262.947 12.7265 263.268 12.792 263.563 12.9246V11.5064H260.745C260.519 11.5275 260.292 11.5009 260.077 11.4282C259.863 11.3556 259.666 11.2386 259.499 11.0848C259.242 10.8026 259.105 10.4315 259.116 10.0499C259.111 9.67501 259.248 9.3121 259.499 9.03412C259.667 8.8788 259.866 8.76088 260.083 8.6882C260.299 8.61551 260.529 8.58971 260.757 8.61249H267.101C267.198 8.25293 267.275 7.88822 267.331 7.52009H261.351C261.129 7.54078 260.906 7.51385 260.696 7.44113C260.485 7.36841 260.293 7.25158 260.132 7.09846C259.877 6.81481 259.74 6.44473 259.748 6.06356C259.755 5.708 259.891 5.36705 260.132 5.10532C260.29 4.94598 260.481 4.82375 260.692 4.74751C260.902 4.67127 261.128 4.64291 261.351 4.66452H267.446V3.87876C267.453 3.82435 267.448 3.76913 267.433 3.71643C267.418 3.66373 267.392 3.61465 267.358 3.57213C267.258 3.51034 267.141 3.48337 267.024 3.49546H261.504C261.277 3.51537 261.048 3.48821 260.832 3.41567C260.615 3.34312 260.416 3.22675 260.247 3.07384C259.986 2.78597 259.849 2.40768 259.863 2.01977C259.862 1.65131 259.999 1.2957 260.247 1.02319C260.413 0.861941 260.612 0.73894 260.831 0.662796C261.049 0.586652 261.281 0.559211 261.512 0.582401H268.661C269.517 0.582401 270.127 0.758719 270.49 1.11135C270.68 1.31011 270.827 1.54631 270.922 1.80498C271.016 2.06365 271.055 2.33912 271.038 2.61388V5.58444C271.04 6.15246 271.001 6.71991 270.923 7.28245C270.862 7.73895 270.766 8.19005 270.635 8.63165C270.836 8.63037 271.035 8.67056 271.22 8.7497C271.404 8.82884 271.571 8.94524 271.709 9.09161C271.926 9.36311 272.041 9.70218 272.034 10.0499C272.043 10.431 271.905 10.8009 271.651 11.0848C271.487 11.2389 271.292 11.3562 271.079 11.4289C270.867 11.5016 270.641 11.5281 270.417 11.5064H267.331V12.8978C267.331 13.1336 267.237 13.3598 267.07 13.5266C266.904 13.6933 266.677 13.787 266.441 13.787L264.387 13.7985ZM272.686 2.03127C272.668 1.76602 272.711 1.50014 272.812 1.25421C272.913 1.00828 273.069 0.78891 273.269 0.613071C273.649 0.29768 274.128 0.127828 274.622 0.133949C274.866 0.134236 275.109 0.177032 275.339 0.260432C275.571 0.343734 275.784 0.474236 275.964 0.64373C276.147 0.809354 276.293 1.0118 276.393 1.23784C276.508 1.49304 276.564 1.77068 276.558 2.05044V11.9587C276.56 12.2136 276.512 12.4664 276.416 12.7024C276.319 12.9384 276.177 13.1528 275.996 13.3331C275.816 13.5133 275.602 13.6558 275.366 13.7522C275.13 13.8486 274.877 13.8969 274.622 13.8943C274.369 13.8943 274.118 13.8441 273.884 13.7466C273.65 13.6491 273.438 13.5062 273.26 13.3262C273.082 13.1462 272.941 12.9327 272.846 12.698C272.75 12.4632 272.703 12.212 272.705 11.9587L272.686 2.03127Z" fill="white"/>
<path d="M294.594 14.5269C294.857 14.5194 295.119 14.5691 295.361 14.6726C295.559 14.7613 295.736 14.8921 295.878 15.0559C296.012 15.2087 296.11 15.3894 296.166 15.5849C296.223 15.7738 296.252 15.97 296.254 16.1675C296.253 16.3693 296.22 16.5697 296.158 16.7616C296.093 16.952 295.992 17.1278 295.859 17.279C295.72 17.4367 295.547 17.5611 295.353 17.6432C295.109 17.7398 294.848 17.7855 294.586 17.7773H279.943C279.687 17.7841 279.433 17.7384 279.195 17.6432C279 17.5622 278.825 17.4377 278.685 17.279C278.552 17.1288 278.452 16.9526 278.39 16.7616C278.326 16.5701 278.294 16.3694 278.294 16.1675C278.295 15.9702 278.323 15.774 278.379 15.5849C278.434 15.3894 278.532 15.2087 278.666 15.0559C278.809 14.8921 278.986 14.7613 279.184 14.6726C279.426 14.5693 279.687 14.5196 279.95 14.5269H294.594ZM289.227 3.98626C289.227 4.24307 289.193 4.48455 289.158 4.71452C289.127 4.94118 289.079 5.16533 289.016 5.3853H289.208C290.009 5.38595 290.805 5.51537 291.566 5.76859C292.322 6.01689 293.025 6.40715 293.636 6.91849C294.267 7.45848 294.779 8.12428 295.138 8.87331C295.211 9.01129 295.272 9.15695 295.334 9.30643C295.433 9.56747 295.468 9.84881 295.434 10.1262C295.401 10.4035 295.3 10.6686 295.141 10.8984C294.983 11.1282 294.77 11.3158 294.522 11.4452C294.275 11.5745 293.999 11.6416 293.72 11.6407H293.337C293.006 11.6462 292.682 11.5543 292.404 11.3763C292.125 11.1984 291.906 10.9424 291.773 10.6403C291.536 10.0435 291.138 9.52446 290.623 9.14162C289.797 8.54327 288.797 8.23587 287.778 8.2677C287.714 8.26377 287.65 8.26377 287.587 8.2677C287.521 8.2677 287.452 8.26769 287.376 8.29452C286.939 8.78314 286.453 9.2262 285.927 9.61691C285.403 10.0094 284.845 10.3533 284.259 10.6441C283.691 10.9268 283.098 11.1577 282.488 11.3341C281.919 11.4998 281.335 11.6052 280.744 11.6484C280.264 11.7091 279.778 11.5978 279.372 11.3341C279.188 11.2168 279.032 11.0606 278.914 10.8765C278.797 10.6924 278.722 10.4849 278.693 10.2685C278.626 9.869 278.711 9.45891 278.931 9.11862C279.047 8.94044 279.201 8.79023 279.382 8.67886C279.563 8.56749 279.766 8.49774 279.977 8.47467C280.63 8.3734 281.268 8.19055 281.875 7.9304C282.465 7.67917 283.02 7.35048 283.523 6.95298C283.994 6.57621 284.399 6.12267 284.719 5.61144C285.029 5.11548 285.217 4.55334 285.267 3.97093H280.667C280.413 3.97963 280.16 3.93117 279.927 3.82911C279.737 3.73594 279.568 3.6056 279.429 3.44581C279.297 3.29615 279.199 3.1196 279.142 2.92836C279.086 2.74187 279.057 2.54815 279.057 2.35341C279.057 2.15867 279.086 1.96495 279.142 1.77846C279.198 1.58628 279.294 1.40763 279.422 1.25335C279.555 1.08749 279.725 0.956033 279.92 0.870049C280.161 0.764222 280.423 0.714423 280.686 0.724394H293.95C294.207 0.718046 294.462 0.767753 294.697 0.870049C294.891 0.95801 295.061 1.08914 295.196 1.25335C295.321 1.40875 295.415 1.58713 295.472 1.77846C295.529 1.96477 295.559 2.15848 295.56 2.35341C295.559 2.54834 295.529 2.74205 295.472 2.92836C295.414 3.1196 295.316 3.29615 295.184 3.44581C295.044 3.60747 294.872 3.73803 294.678 3.82911C294.449 3.92901 294.2 3.97741 293.95 3.97093L289.227 3.98626Z" fill="white"/>
<path d="M299.175 7.35912C300.526 7.38468 301.519 7.12915 302.153 6.59253C302.462 6.33664 302.708 6.01373 302.872 5.6484C303.037 5.28307 303.116 4.88495 303.104 4.48439V4.13943C303.104 3.87112 302.962 3.75613 302.682 3.75613H299.309C299.08 3.76134 298.854 3.71551 298.646 3.62197C298.472 3.54198 298.319 3.4241 298.197 3.27701C298.081 3.13519 297.992 2.97262 297.936 2.79788C297.88 2.62453 297.852 2.44345 297.852 2.26127C297.852 2.08598 297.878 1.91165 297.929 1.74382C297.978 1.5664 298.063 1.40082 298.178 1.25703C298.297 1.10427 298.451 0.982075 298.626 0.900568C298.841 0.806083 299.074 0.760268 299.309 0.766412H303.966C304.976 0.766412 305.672 0.97084 306.056 1.37969C306.478 1.91057 306.683 2.58163 306.631 3.25785V4.52272C306.647 5.38245 306.48 6.23581 306.14 7.02566C305.826 7.73036 305.353 8.35332 304.76 8.84632C304.119 9.36131 303.383 9.74549 302.594 9.97705C301.677 10.245 300.724 10.3742 299.769 10.3604H299.431C299.313 10.3611 299.194 10.3482 299.079 10.322C298.67 10.2751 298.287 10.0977 297.986 9.81606C297.84 9.67114 297.729 9.49435 297.663 9.29951C297.596 9.10467 297.576 8.89708 297.603 8.693C297.607 8.50816 297.649 8.32617 297.726 8.15812C297.804 7.99007 297.914 7.8395 298.051 7.7156C298.364 7.4538 298.768 7.32574 299.175 7.35912ZM301.398 18.1298C300.927 18.1418 300.457 18.0942 299.999 17.988C299.679 17.9144 299.388 17.7476 299.163 17.5088C298.96 17.2497 298.828 16.9418 298.78 16.6158C298.704 16.1535 298.669 15.6852 298.676 15.2167V13.856C298.67 13.3914 298.704 12.927 298.78 12.4685C298.825 12.1395 298.957 11.8285 299.163 11.5677C299.387 11.3276 299.678 11.1607 299.999 11.0886C300.457 10.9809 300.927 10.9319 301.398 10.943H312.457C312.928 10.9322 313.398 10.9811 313.856 11.0886C314.176 11.1607 314.466 11.3277 314.688 11.5677C314.904 11.8246 315.043 12.1366 315.091 12.4685C315.17 12.9267 315.205 13.3912 315.198 13.856V16.5851C315.198 16.9917 315.036 17.3817 314.749 17.6692C314.461 17.9568 314.071 18.1183 313.665 18.1183L301.398 18.1298ZM302.433 14.9868C302.433 15.1899 302.456 15.3164 302.51 15.3701C302.609 15.425 302.723 15.4477 302.835 15.4352H310.939C311.002 15.4357 311.065 15.4237 311.124 15.3998C311.182 15.376 311.236 15.3408 311.281 15.2962C311.325 15.2517 311.361 15.1987 311.385 15.1403C311.41 15.0819 311.422 15.0193 311.422 14.9561V14.0745C311.437 13.9501 311.406 13.8246 311.334 13.7219C311.238 13.6518 311.119 13.6203 311 13.6337H302.855C302.797 13.6261 302.739 13.6299 302.683 13.6451C302.627 13.6602 302.574 13.6863 302.529 13.7219C302.464 13.8272 302.436 13.9516 302.452 14.0745L302.433 14.9868ZM311.825 6.74586H310.924V8.61251C310.924 8.82576 310.882 9.0369 310.8 9.23386C310.718 9.43083 310.599 9.60973 310.448 9.76034C310.297 9.91094 310.117 10.0303 309.92 10.1115C309.723 10.1928 309.512 10.2344 309.299 10.2339H309.21C308.78 10.2339 308.368 10.063 308.064 9.75898C307.76 9.45492 307.589 9.04252 307.589 8.61251V1.76299C307.572 1.53574 307.609 1.30778 307.695 1.09698C307.782 0.886175 307.916 0.698247 308.087 0.547929C308.409 0.277562 308.817 0.130796 309.237 0.133973C309.657 0.131798 310.065 0.278444 310.387 0.547929C310.561 0.696341 310.698 0.883637 310.787 1.0947C310.875 1.30576 310.913 1.53468 310.897 1.76299V3.79446H311.798V1.76299C311.782 1.53509 311.82 1.30664 311.907 1.09575C311.995 0.884858 312.131 0.697303 312.304 0.547929C312.636 0.274537 313.054 0.127853 313.485 0.133973C313.904 0.135664 314.31 0.281852 314.635 0.547929C314.81 0.69537 314.949 0.882292 315.039 1.09345C315.129 1.3046 315.168 1.53401 315.152 1.76299V8.61251C315.152 8.82576 315.11 9.0369 315.028 9.23386C314.947 9.43083 314.827 9.60973 314.676 9.76034C314.525 9.91094 314.346 10.0303 314.148 10.1115C313.951 10.1928 313.74 10.2344 313.527 10.2339H313.4C312.97 10.2339 312.558 10.063 312.254 9.75898C311.95 9.45492 311.779 9.04252 311.779 8.61251L311.825 6.74586Z" fill="white"/>
<path d="M319.837 10.1763C319.398 10.1867 318.959 10.139 318.533 10.0345C318.222 9.95837 317.938 9.7948 317.717 9.56306C317.508 9.31985 317.367 9.02658 317.307 8.71214C317.223 8.2919 317.185 7.86408 317.192 7.43576V2.35707C317.167 2.10001 317.203 1.8408 317.296 1.59997C317.389 1.35914 317.537 1.1433 317.728 0.969535C318.105 0.674576 318.573 0.521267 319.051 0.536407C319.515 0.511189 319.971 0.666382 320.323 0.969535C320.495 1.15474 320.626 1.374 320.707 1.61307C320.788 1.85214 320.818 2.10565 320.795 2.35707V2.6637H324.417V2.35707C324.392 2.10251 324.422 1.84545 324.506 1.60382C324.591 1.3622 324.726 1.14181 324.904 0.958036C325.27 0.663556 325.731 0.513524 326.2 0.536407C326.675 0.516186 327.141 0.670214 327.511 0.969535C327.694 1.14809 327.835 1.36539 327.923 1.60549C328.011 1.8456 328.045 2.1024 328.021 2.35707V8.87313C328.021 9.04359 327.987 9.21236 327.922 9.3698C327.856 9.52723 327.761 9.67022 327.64 9.79057C327.519 9.91093 327.376 10.0063 327.218 10.0712C327.061 10.136 326.892 10.1692 326.721 10.1687L319.837 10.1763ZM327.925 12.7061C327.929 12.7315 327.929 12.7574 327.925 12.7828C327.923 12.8083 327.923 12.8339 327.925 12.8594C328.663 12.8352 329.401 12.9126 330.118 13.0894C330.855 13.2637 331.555 13.566 332.188 13.9825C332.837 14.4129 333.389 14.9743 333.809 15.6307V15.6498C333.962 15.8972 334.046 16.1811 334.052 16.472C334.058 16.7628 333.985 17.0498 333.842 17.3032C333.7 17.5565 333.491 17.7669 333.239 17.9123C332.987 18.0577 332.701 18.1328 332.41 18.1298H331.812C331.534 18.1328 331.259 18.0639 331.015 17.9295C330.772 17.7952 330.567 17.6001 330.42 17.3632C330.348 17.2382 330.266 17.119 330.175 17.0067C329.908 16.6765 329.583 16.3974 329.217 16.1826C328.828 15.9575 328.402 15.8018 327.959 15.7227C327.483 15.6329 326.995 15.6199 326.514 15.6843C326.034 16.1465 325.5 16.5493 324.923 16.884C324.323 17.2334 323.69 17.5247 323.034 17.7541C322.393 17.9805 321.732 18.1448 321.059 18.2448C320.448 18.3396 319.827 18.355 319.212 18.2908C318.988 18.2671 318.771 18.2062 318.568 18.1106C318.374 18.0138 318.199 17.8841 318.05 17.7273C317.905 17.5741 317.788 17.3963 317.705 17.2022C317.622 16.9982 317.587 16.778 317.602 16.5582C317.609 16.1621 317.77 15.7844 318.05 15.5042C318.307 15.2435 318.654 15.0924 319.02 15.0826H319.403C319.553 15.0826 319.683 15.0634 319.787 15.0519C320.221 14.9981 320.65 14.9123 321.071 14.7951C321.497 14.677 321.908 14.5125 322.298 14.3045C322.671 14.1081 323.016 13.8604 323.321 13.5685C323.616 13.2912 323.849 12.954 324.003 12.5796C324.174 12.0794 324.487 11.6398 324.904 11.3147C325.287 11.0755 325.74 10.974 326.188 11.0273C326.64 11.0322 327.077 11.1843 327.434 11.4604C327.605 11.6174 327.738 11.8111 327.823 12.0269C327.908 12.2426 327.943 12.4749 327.925 12.7061ZM324.417 7.33994V5.32763H320.795V6.86082C320.795 7.0793 320.826 7.21345 320.891 7.26328C321.02 7.33076 321.167 7.35749 321.312 7.33994H324.417ZM330.187 2.03126C330.168 1.76602 330.211 1.50014 330.313 1.25421C330.414 1.00828 330.57 0.78891 330.769 0.613071C331.149 0.29768 331.629 0.127828 332.123 0.133949C332.367 0.134236 332.61 0.177032 332.839 0.260432C333.072 0.343734 333.285 0.474236 333.464 0.64373C333.648 0.809354 333.794 1.0118 333.893 1.23784C334.008 1.49304 334.065 1.77068 334.058 2.05044V9.85053C334.061 10.1054 334.013 10.3583 333.916 10.5943C333.82 10.8303 333.677 11.0447 333.497 11.225C333.317 11.4052 333.102 11.5477 332.866 11.6441C332.63 11.7404 332.377 11.7888 332.123 11.7862C331.869 11.7862 331.618 11.736 331.385 11.6385C331.151 11.541 330.939 11.3981 330.76 11.2181C330.582 11.0381 330.441 10.8246 330.346 10.5898C330.251 10.3551 330.203 10.1038 330.206 9.85053L330.187 2.03126Z" fill="white"/>
<path d="M337.01 18.2067C337.222 18.0967 337.397 17.9276 337.516 17.7199C337.642 17.4941 337.705 17.2387 337.7 16.9802C337.219 16.9541 336.764 16.757 336.416 16.4244C336.251 16.2515 336.123 16.0467 336.041 15.8225C335.958 15.5983 335.923 15.3596 335.936 15.1212C335.923 14.8634 335.965 14.6058 336.061 14.3662C336.157 14.1266 336.304 13.9107 336.492 13.7336C336.9 13.3794 337.429 13.1967 337.968 13.2238C338.24 13.2114 338.511 13.2553 338.765 13.353C339.019 13.4506 339.25 13.5998 339.444 13.7911C339.627 13.9793 339.771 14.2026 339.867 14.4475C339.962 14.6925 340.007 14.9542 339.999 15.217V15.3895C340.043 16.3351 339.824 17.2743 339.367 18.1032C338.997 18.7412 338.423 19.2365 337.738 19.5099C337.576 19.572 337.409 19.6207 337.24 19.6556C337.081 19.6842 336.919 19.6842 336.76 19.6556C336.588 19.6288 336.424 19.5633 336.281 19.4639C336.201 19.4024 336.14 19.3191 336.106 19.2239C336.072 19.1287 336.067 19.0257 336.09 18.9273C336.097 18.7835 336.155 18.6469 336.253 18.5417C336.351 18.4365 336.483 18.3694 336.626 18.3524C336.688 18.3257 336.752 18.3064 336.818 18.2949C336.885 18.2737 336.95 18.244 337.01 18.2067Z" fill="white"/>
<path d="M112.471 28.594C112.454 27.8326 112.584 27.0751 112.854 26.3632C113.096 25.7495 113.468 25.1961 113.947 24.7418C114.43 24.2995 115.002 23.9662 115.626 23.7644C116.325 23.5391 117.057 23.4291 117.791 23.4386C118.52 23.4302 119.245 23.5402 119.938 23.7644C120.563 23.9679 121.138 24.301 121.625 24.7418C122.108 25.1919 122.481 25.7465 122.717 26.3632C122.984 27.0762 123.114 27.8329 123.101 28.594V35.6083C123.113 36.3706 122.983 37.1285 122.717 37.8429C122.48 38.4579 122.107 39.0111 121.625 39.4604C121.138 39.9013 120.563 40.2343 119.938 40.4379C119.245 40.662 118.52 40.7721 117.791 40.7637C117.057 40.7732 116.325 40.6632 115.626 40.4379C115.002 40.2361 114.43 39.9027 113.947 39.4604C113.469 39.007 113.096 38.455 112.854 37.8429C112.584 37.1295 112.454 36.3709 112.471 35.6083V28.594ZM116.227 35.7041C116.184 36.2256 116.342 36.7438 116.668 37.153C116.813 37.3067 116.988 37.4279 117.183 37.5085C117.378 37.5891 117.588 37.6273 117.799 37.6206C118.01 37.6271 118.22 37.5887 118.415 37.5081C118.61 37.4275 118.785 37.3065 118.93 37.153C119.254 36.7429 119.412 36.2254 119.371 35.7041V28.4981C119.413 27.9779 119.255 27.4613 118.93 27.0531C118.786 26.8983 118.611 26.7762 118.416 26.6948C118.221 26.6135 118.01 26.5749 117.799 26.5816C117.588 26.5747 117.377 26.6131 117.182 26.6945C116.987 26.7758 116.812 26.8981 116.668 27.0531C116.342 27.4606 116.184 27.9778 116.227 28.4981V35.7041ZM125.044 24.991C125.026 24.7309 125.068 24.4703 125.168 24.2295C125.268 23.9887 125.422 23.7744 125.619 23.6034C125.99 23.2938 126.459 23.1266 126.942 23.132C127.184 23.132 127.424 23.1748 127.651 23.2584C127.873 23.3352 128.077 23.4551 128.253 23.6111C128.431 23.7717 128.575 23.9674 128.674 24.186C128.79 24.4384 128.846 24.7136 128.839 24.991V29.8588H129.472C129.723 29.8494 129.973 29.902 130.2 30.0122C130.381 30.1032 130.538 30.2343 130.66 30.3954C130.776 30.5573 130.86 30.7393 130.909 30.9321C130.959 31.1223 130.985 31.318 130.986 31.5147C130.984 31.7126 130.959 31.9095 130.909 32.1011C130.859 32.2934 130.774 32.4751 130.66 32.6377C130.534 32.8002 130.373 32.9314 130.188 33.021C129.965 33.1293 129.719 33.182 129.472 33.1744H128.839V39.2305C128.839 39.7387 128.637 40.2262 128.278 40.5856C127.918 40.945 127.431 41.1469 126.922 41.1469C126.417 41.1419 125.935 40.9378 125.579 40.5789C125.224 40.22 125.025 39.7354 125.025 39.2305L125.044 24.991Z" fill="white"/>
<path d="M142.045 36.9306C142.286 36.9227 142.525 36.9726 142.743 37.0763C142.92 37.1648 143.072 37.2967 143.184 37.4596C143.296 37.6143 143.374 37.7905 143.414 37.977C143.459 38.1589 143.482 38.3455 143.483 38.5328C143.483 38.7265 143.459 38.9195 143.414 39.1078C143.371 39.2984 143.291 39.4784 143.176 39.6367C143.055 39.7961 142.901 39.9269 142.724 40.02C142.515 40.1289 142.281 40.1817 142.045 40.1733H134.685C134.204 40.1844 133.723 40.1302 133.255 40.0124C132.915 39.9213 132.605 39.743 132.355 39.4949C132.12 39.2351 131.959 38.9176 131.887 38.575C131.788 38.118 131.743 37.651 131.753 37.1836V25.7613C131.746 25.4758 131.801 25.1921 131.914 24.9296C132.013 24.7042 132.161 24.5038 132.347 24.3431C132.527 24.1886 132.739 24.0749 132.968 24.0097C133.208 23.9371 133.457 23.9009 133.708 23.9024C134.197 23.8859 134.676 24.0465 135.057 24.3546C135.25 24.5317 135.4 24.7505 135.495 24.9944C135.59 25.2382 135.627 25.5006 135.605 25.7613V36.3979C135.586 36.5517 135.627 36.707 135.72 36.831C135.851 36.9149 136.007 36.9515 136.161 36.9345L142.045 36.9306ZM146.626 41.1469C146.121 41.1419 145.639 40.9377 145.283 40.5789C144.928 40.22 144.729 39.7354 144.729 39.2304V25.0484C144.71 24.7838 144.752 24.5185 144.852 24.2727C144.952 24.0269 145.106 23.8072 145.304 23.6302C145.679 23.3141 146.155 23.144 146.645 23.1511C147.136 23.1447 147.612 23.3147 147.987 23.6302C148.185 23.8072 148.339 24.0269 148.439 24.2727C148.538 24.5185 148.581 24.7838 148.562 25.0484V39.2304C148.562 39.7354 148.363 40.22 148.007 40.5789C147.652 40.9377 147.17 41.1419 146.665 41.1469H146.626Z" fill="white"/>
<path d="M154.024 37.3524C155.084 37.294 156.087 36.8559 156.85 36.1181C157.544 35.3233 157.958 34.323 158.03 33.2702H154.274C154.019 33.2789 153.767 33.2305 153.534 33.1284C153.344 33.0353 153.174 32.9049 153.035 32.7451C152.903 32.5955 152.805 32.4189 152.748 32.2277C152.692 32.0412 152.663 31.8475 152.664 31.6527C152.663 31.458 152.692 31.2643 152.748 31.0778C152.804 30.8876 152.899 30.7114 153.028 30.5603C153.162 30.396 153.333 30.2649 153.526 30.177C153.767 30.0712 154.029 30.0214 154.293 30.0314H158.126V27.5591C158.129 27.4961 158.119 27.4332 158.097 27.374C158.076 27.3148 158.042 27.2605 158 27.2141C157.954 27.1683 157.898 27.1327 157.838 27.1096C157.777 27.0865 157.712 27.0764 157.647 27.08H154.427C154.173 27.0887 153.92 27.0402 153.687 26.9382C153.497 26.845 153.328 26.7147 153.189 26.5549C153.057 26.4052 152.958 26.2287 152.901 26.0374C152.845 25.8509 152.817 25.6572 152.817 25.4625C152.817 25.2677 152.845 25.074 152.901 24.8875C152.957 24.6974 153.053 24.5211 153.181 24.3701C153.316 24.2058 153.486 24.0746 153.679 23.9868C153.915 23.8838 154.17 23.834 154.427 23.8411H158.682C159.139 23.8336 159.596 23.8786 160.043 23.9753C160.374 24.0478 160.683 24.199 160.944 24.4161C161.177 24.6454 161.337 24.9389 161.404 25.2593C161.509 25.6595 161.558 26.0723 161.549 26.4859V32.197C161.58 33.4732 161.385 34.7447 160.974 35.9533C160.643 36.9035 160.114 37.7724 159.422 38.5023C158.791 39.1525 158.026 39.6563 157.179 39.9779C156.332 40.2976 155.439 40.4788 154.534 40.5146C154.059 40.5492 153.585 40.4396 153.173 40.2003C152.976 40.0826 152.815 39.9133 152.707 39.7107C152.599 39.508 152.548 39.2797 152.56 39.0504C152.533 38.647 152.648 38.2469 152.886 37.9196C153.026 37.7513 153.199 37.614 153.395 37.5163C153.591 37.4187 153.806 37.3628 154.024 37.3524ZM162.592 24.761C162.576 24.5331 162.614 24.3047 162.702 24.0938C162.789 23.8829 162.925 23.6954 163.098 23.546C163.43 23.2726 163.848 23.1259 164.279 23.132C164.705 23.1293 165.118 23.2757 165.448 23.546C165.624 23.6934 165.762 23.8803 165.852 24.0915C165.942 24.3026 165.981 24.5321 165.965 24.761V30.1655H166.924V24.761C166.908 24.5321 166.947 24.3026 167.037 24.0915C167.127 23.8803 167.265 23.6934 167.441 23.546C167.777 23.2732 168.197 23.1267 168.63 23.132C168.845 23.1315 169.059 23.1678 169.262 23.2393C169.462 23.3072 169.647 23.4141 169.806 23.5536C169.967 23.6958 170.098 23.8693 170.19 24.0634C170.291 24.2818 170.341 24.5204 170.335 24.761V39.4413C170.335 39.8886 170.158 40.3176 169.841 40.6339C169.525 40.9502 169.096 41.1278 168.649 41.1278H168.61C168.163 41.1278 167.734 40.9502 167.418 40.6339C167.101 40.3176 166.924 39.8886 166.924 39.4413V33.3086H165.965V39.4413C165.965 39.8886 165.788 40.3176 165.471 40.6339C165.155 40.9502 164.726 41.1278 164.279 41.1278C163.831 41.1278 163.402 40.9502 163.086 40.6339C162.77 40.3176 162.592 39.8886 162.592 39.4413V24.761Z" fill="white"/>
<path d="M174.533 38.8278C174.853 38.7835 175.154 38.6508 175.403 38.4445C175.54 38.3237 175.646 38.1721 175.713 38.0021C175.78 37.8322 175.805 37.6488 175.787 37.4671V37.1413H173.372C173.145 37.1632 172.916 37.1343 172.702 37.0568C172.488 36.9792 172.293 36.8549 172.133 36.6929C171.884 36.4017 171.747 36.0301 171.75 35.6465C171.749 35.4554 171.778 35.2654 171.834 35.083C171.891 34.8956 171.987 34.722 172.114 34.5732C172.248 34.4131 172.419 34.2882 172.613 34.2091C172.85 34.1138 173.104 34.0682 173.36 34.0749H188.08C188.336 34.0694 188.59 34.115 188.828 34.2091C189.02 34.2902 189.19 34.4149 189.326 34.5732C189.451 34.7231 189.545 34.8964 189.602 35.083C189.66 35.2653 189.69 35.4553 189.69 35.6465C189.692 36.03 189.556 36.4015 189.307 36.6929C189.147 36.8544 188.954 36.9784 188.74 37.0559C188.527 37.1335 188.299 37.1626 188.073 37.1413H186.501V39.261C186.501 39.5165 186.45 39.7695 186.352 40.0055C186.255 40.2415 186.111 40.4559 185.93 40.6364C185.749 40.8169 185.535 40.96 185.298 41.0574C185.062 41.1549 184.809 41.2048 184.553 41.2043C184.298 41.2043 184.045 41.154 183.81 41.0563C183.574 40.9587 183.36 40.8155 183.179 40.6351C182.999 40.4546 182.856 40.2404 182.758 40.0046C182.66 39.7689 182.61 39.5162 182.61 39.261V37.1413H179.543V37.4671C179.556 38.0591 179.434 38.6462 179.187 39.1843C178.965 39.6547 178.649 40.0748 178.259 40.4185C177.87 40.75 177.425 41.0096 176.944 41.1851C176.452 41.3695 175.935 41.4818 175.411 41.5186C174.934 41.5802 174.449 41.4974 174.019 41.2809C173.835 41.1874 173.677 41.05 173.559 40.8809C173.441 40.7118 173.366 40.5161 173.341 40.3112C173.301 40.1293 173.303 39.9408 173.348 39.76C173.392 39.5792 173.478 39.4111 173.598 39.2686C173.843 39.0095 174.177 38.8522 174.533 38.8278ZM182.602 27.6164C182.564 27.9136 182.506 28.2081 182.43 28.498C183.257 28.4452 184.087 28.4941 184.902 28.6436C185.655 28.7749 186.375 29.0551 187.018 29.4677C187.645 29.8764 188.169 30.4232 188.552 31.066C188.692 31.3132 188.764 31.5929 188.762 31.8769C188.759 32.161 188.682 32.4394 188.538 32.6842C188.394 32.9289 188.188 33.1314 187.941 33.2713C187.693 33.4111 187.414 33.4834 187.13 33.4808H186.704C186.41 33.4881 186.118 33.4192 185.858 33.2809C185.599 33.1425 185.379 32.9394 185.22 32.6912C185.126 32.5344 185.016 32.388 184.891 32.2543C184.571 31.918 184.187 31.6506 183.76 31.4685C183.297 31.2718 182.805 31.1552 182.303 31.1235C181.762 31.0852 181.218 31.1174 180.686 31.2194C180.248 31.616 179.765 31.9607 179.248 32.2466C178.722 32.5336 178.17 32.7709 177.6 32.9557C177.027 33.1397 176.439 33.2769 175.844 33.3658C175.264 33.4555 174.679 33.5003 174.092 33.5C173.618 33.5189 173.15 33.3845 172.758 33.1167C172.588 32.9948 172.446 32.8375 172.342 32.6555C172.238 32.4736 172.175 32.2713 172.156 32.0626C172.11 31.6628 172.223 31.2607 172.471 30.9434C172.6 30.7792 172.765 30.6464 172.953 30.5548C173.14 30.4632 173.347 30.4152 173.556 30.4144C174.163 30.4055 174.769 30.3414 175.365 30.2228C175.897 30.1202 176.413 29.9462 176.898 29.7053C177.333 29.4939 177.723 29.2012 178.048 28.8429C178.361 28.485 178.584 28.0581 178.7 27.5972H174.138C173.909 27.6193 173.677 27.5875 173.462 27.5043C173.247 27.4211 173.055 27.2889 172.9 27.1181C172.652 26.8152 172.517 26.4361 172.517 26.0449C172.516 25.8538 172.544 25.6638 172.601 25.4814C172.657 25.2968 172.752 25.1266 172.881 24.9831C173.016 24.8266 173.187 24.7044 173.379 24.6267C173.623 24.5288 173.884 24.4831 174.146 24.4925H178.727C178.73 24.2479 178.785 24.0068 178.889 23.7853C178.992 23.5638 179.142 23.3671 179.329 23.2084C179.746 22.8988 180.258 22.7431 180.778 22.7677C181.292 22.7433 181.798 22.9037 182.204 23.2199C182.389 23.3773 182.538 23.5721 182.643 23.7914C182.747 24.0107 182.804 24.2497 182.809 24.4925H187.409C187.665 24.4869 187.919 24.5325 188.157 24.6267C188.348 24.7064 188.518 24.8283 188.655 24.9831C188.782 25.1277 188.876 25.2976 188.931 25.4814C188.989 25.6637 189.019 25.8537 189.019 26.0449C189.019 26.436 188.883 26.815 188.636 27.1181C188.482 27.2888 188.29 27.421 188.076 27.5043C187.861 27.5875 187.631 27.6193 187.402 27.5972L182.602 27.6164Z" fill="white"/>
<path d="M192.646 30.3573C194 30.3828 194.993 30.1273 195.624 29.5907C195.933 29.3348 196.179 29.0119 196.343 28.6466C196.508 28.2812 196.587 27.8831 196.575 27.4826V27.1376C196.575 26.8693 196.433 26.7351 196.153 26.7351H192.78C192.552 26.7403 192.325 26.6945 192.117 26.601C191.943 26.521 191.79 26.4031 191.668 26.256C191.552 26.1142 191.464 25.9516 191.408 25.7769C191.352 25.6035 191.323 25.4225 191.323 25.2403C191.324 25.065 191.349 24.8907 191.4 24.7228C191.449 24.5454 191.534 24.3798 191.649 24.236C191.768 24.0833 191.922 23.9611 192.098 23.8796C192.312 23.7851 192.545 23.7393 192.78 23.7454H197.438C198.447 23.7454 199.143 23.9498 199.527 24.3587C199.949 24.8896 200.154 25.5606 200.102 26.2368V27.5017C200.118 28.3615 199.951 29.2148 199.611 30.0047C199.297 30.7094 198.825 31.3323 198.231 31.8253C197.592 32.3471 196.856 32.7379 196.065 32.9752C195.148 33.2431 194.196 33.3723 193.24 33.3585H192.903C192.784 33.3594 192.666 33.3466 192.55 33.3202C192.141 33.2732 191.758 33.0958 191.457 32.8142C191.311 32.6693 191.201 32.4925 191.134 32.2977C191.068 32.1028 191.047 31.8952 191.074 31.6912C191.079 31.5063 191.121 31.3243 191.198 31.1563C191.275 30.9882 191.385 30.8377 191.523 30.7138C191.836 30.452 192.239 30.3239 192.646 30.3573ZM194.869 41.128C194.399 41.14 193.928 41.0923 193.47 40.9861C193.15 40.9125 192.859 40.7458 192.634 40.507C192.429 40.2488 192.297 39.9404 192.251 39.6139C192.175 39.1516 192.14 38.6834 192.147 38.2149V36.8542C192.141 36.3895 192.176 35.9252 192.251 35.4667C192.295 35.1372 192.427 34.8258 192.634 34.5659C192.858 34.3258 193.15 34.1588 193.47 34.0868C193.928 33.979 194.399 33.9301 194.869 33.9411H205.928C206.399 33.9304 206.869 33.9793 207.328 34.0868C207.647 34.1589 207.937 34.3259 208.159 34.5659C208.375 34.8227 208.514 35.1347 208.562 35.4667C208.641 35.9248 208.677 36.3893 208.669 36.8542V38.9048C208.669 39.1968 208.612 39.4859 208.5 39.7556C208.388 40.0253 208.225 40.2704 208.018 40.4768C207.812 40.6833 207.566 40.847 207.297 40.9587C207.027 41.0705 206.738 41.128 206.446 41.128H194.869ZM195.904 37.9849C195.904 38.1881 195.927 38.3145 195.981 38.3682C196.08 38.4231 196.194 38.4459 196.307 38.4334H204.51C204.612 38.4334 204.709 38.393 204.781 38.3211C204.853 38.2492 204.893 38.1517 204.893 38.0501V37.0688C204.908 36.9444 204.877 36.8189 204.805 36.7162C204.709 36.6461 204.59 36.6146 204.472 36.628H196.307C196.249 36.6204 196.191 36.6243 196.135 36.6394C196.079 36.6545 196.027 36.6806 195.981 36.7162C195.916 36.8215 195.889 36.946 195.904 37.0688V37.9849ZM205.296 29.744H204.395V31.5647C204.395 32.0069 204.219 32.431 203.907 32.7437C203.594 33.0564 203.17 33.232 202.728 33.232C202.285 33.232 201.861 33.0564 201.548 32.7437C201.236 32.431 201.06 32.0069 201.06 31.5647V24.7611C201.044 24.5339 201.08 24.3059 201.167 24.0951C201.253 23.8843 201.387 23.6964 201.558 23.5461C201.885 23.2714 202.301 23.1243 202.728 23.1321C203.148 23.13 203.555 23.2766 203.878 23.5461C204.052 23.6945 204.189 23.8818 204.277 24.0929C204.366 24.3039 204.404 24.5328 204.387 24.7611V26.7926H205.288V24.7611C205.272 24.5332 205.31 24.3048 205.398 24.0939C205.486 23.883 205.621 23.6955 205.794 23.5461C206.126 23.2727 206.545 23.126 206.975 23.1321C207.394 23.1338 207.801 23.28 208.125 23.5461C208.301 23.6935 208.439 23.8804 208.529 24.0916C208.619 24.3028 208.658 24.5322 208.642 24.7611V31.5647C208.642 32.0069 208.467 32.431 208.154 32.7437C207.841 33.0564 207.417 33.232 206.975 33.232H206.937C206.494 33.232 206.07 33.0564 205.757 32.7437C205.445 32.431 205.269 32.0069 205.269 31.5647L205.296 29.744Z" fill="white"/>
<path d="M213.307 33.1744C212.868 33.1847 212.43 33.137 212.004 33.0326C211.692 32.9564 211.409 32.7929 211.187 32.5611C210.978 32.3189 210.836 32.0252 210.777 31.7102C210.694 31.29 210.656 30.8621 210.662 30.4338V25.3551C210.638 25.0981 210.674 24.8389 210.767 24.598C210.86 24.3572 211.008 24.1414 211.199 23.9676C211.575 23.6726 212.043 23.5193 212.521 23.5345C212.986 23.51 213.441 23.6651 213.794 23.9676C213.966 24.1528 214.096 24.3721 214.178 24.6111C214.259 24.8502 214.289 25.1037 214.266 25.3551V25.6618H217.888V25.3551C217.863 25.1006 217.893 24.8435 217.977 24.6019C218.061 24.3602 218.197 24.1399 218.375 23.9561C218.741 23.6616 219.202 23.5116 219.671 23.5345C220.146 23.5142 220.612 23.6683 220.982 23.9676C221.165 24.1461 221.306 24.3634 221.394 24.6035C221.482 24.8436 221.515 25.1005 221.491 25.3551V31.3921C221.49 31.8675 221.301 32.3232 220.965 32.6594C220.629 32.9956 220.173 33.1849 219.697 33.1859L213.307 33.1744ZM221.396 35.7042C221.399 35.7296 221.399 35.7554 221.396 35.7808C221.394 35.8063 221.394 35.832 221.396 35.8575C222.134 35.8332 222.871 35.9106 223.588 36.0875C224.325 36.2617 225.026 36.564 225.658 36.9805C226.308 37.411 226.86 37.9724 227.28 38.6287V38.6479C227.433 38.8953 227.517 39.1792 227.523 39.47C227.528 39.7608 227.456 40.0479 227.313 40.3013C227.17 40.5546 226.962 40.7649 226.71 40.9103C226.458 41.0557 226.172 41.1308 225.881 41.1278H225.283C225.004 41.1309 224.73 41.0619 224.486 40.9276C224.242 40.7933 224.037 40.5982 223.891 40.3612C223.818 40.2368 223.736 40.1177 223.646 40.0048C223.379 39.6746 223.054 39.3954 222.688 39.1807C222.298 38.9555 221.873 38.7999 221.43 38.7207C220.954 38.631 220.466 38.6181 219.985 38.6824C219.505 39.1446 218.971 39.5474 218.394 39.8821C217.793 40.2314 217.16 40.5228 216.504 40.7522C215.864 40.979 215.202 41.1433 214.53 41.2428C213.919 41.3376 213.298 41.353 212.682 41.2888C212.459 41.2652 212.242 41.2043 212.038 41.1087C211.844 41.0128 211.669 40.883 211.521 40.7254C211.376 40.5721 211.259 40.3943 211.176 40.2002C211.091 39.9968 211.055 39.7761 211.072 39.5563C211.08 39.1602 211.241 38.7824 211.521 38.5022C211.777 38.2416 212.125 38.0905 212.491 38.0806H212.874C213.024 38.0806 213.154 38.0614 213.257 38.0499C213.691 37.9962 214.12 37.9103 214.542 37.7931C214.967 37.675 215.379 37.5105 215.768 37.3025C216.142 37.1062 216.487 36.8585 216.792 36.5666C217.087 36.2892 217.32 35.9521 217.474 35.5777C217.645 35.0774 217.958 34.6378 218.375 34.3128C218.758 34.0735 219.211 33.9721 219.659 34.0253C220.11 34.0303 220.548 34.1823 220.905 34.4584C221.076 34.6155 221.208 34.8091 221.293 35.0249C221.378 35.2407 221.413 35.4729 221.396 35.7042ZM217.888 30.062V28.6017C217.888 28.5285 217.859 28.4583 217.807 28.4065C217.756 28.3548 217.685 28.3257 217.612 28.3257H214.545C214.472 28.3257 214.402 28.3548 214.35 28.4065C214.298 28.4583 214.269 28.5285 214.269 28.6017V29.8589C214.269 30.0773 214.3 30.2115 214.365 30.2613C214.495 30.3288 214.642 30.3555 214.787 30.338H217.616C217.688 30.337 217.758 30.3075 217.809 30.2558C217.86 30.2042 217.888 30.1345 217.888 30.062ZM223.657 25.0293C223.639 24.7641 223.682 24.4982 223.783 24.2523C223.884 24.0063 224.041 23.787 224.24 23.6111C224.62 23.2957 225.099 23.1259 225.593 23.132C225.838 23.1323 226.08 23.1751 226.31 23.2585C226.541 23.3361 226.753 23.46 226.935 23.6226C227.118 23.7882 227.265 23.9907 227.364 24.2167C227.478 24.4723 227.534 24.7497 227.529 25.0293V32.8294C227.532 33.0843 227.483 33.3372 227.387 33.5732C227.29 33.8092 227.148 34.0236 226.968 34.2038C226.788 34.3841 226.573 34.5266 226.337 34.623C226.101 34.7193 225.848 34.7676 225.593 34.7651C225.34 34.7651 225.089 34.7149 224.855 34.6174C224.621 34.5199 224.409 34.377 224.231 34.197C224.053 34.017 223.912 33.8035 223.817 33.5687C223.722 33.334 223.674 33.0827 223.676 32.8294L223.657 25.0293Z" fill="white"/>
</g>
<defs>
<clipPath id="clip0_3888_86361">
<rect width="340" height="41.5648" fill="white"/>
</clipPath>
</defs>
</svg>
