<svg width="250" height="168" viewBox="0 0 250 168" fill="none" xmlns="http://www.w3.org/2000/svg">
<path d="M225 41C227.761 41 230 38.7614 230 36C230 33.2386 227.761 31 225 31C222.239 31 220 33.2386 220 36C220 38.7614 222.239 41 225 41Z" fill="#57BEB7"/>
<path d="M59 16C60.1046 16 61 15.1046 61 14C61 12.8954 60.1046 12 59 12C57.8954 12 57 12.8954 57 14C57 15.1046 57.8954 16 59 16Z" fill="#ECCD52"/>
<path d="M211 63C212.105 63 213 62.1046 213 61C213 59.8954 212.105 59 211 59C209.895 59 209 59.8954 209 61C209 62.1046 209.895 63 211 63Z" fill="#ECCD52"/>
<path d="M33.5 58C35.9853 58 38 55.9853 38 53.5C38 51.0147 35.9853 49 33.5 49C31.0147 49 29 51.0147 29 53.5C29 55.9853 31.0147 58 33.5 58Z" fill="#DC4C7C"/>
<path d="M62.1427 86.5395C60.7045 172.447 121.545 165.062 166.066 160.762C210.618 156.462 212.525 131.316 202.708 118.821C196.831 111.312 203.584 95.0462 203.584 95.0462C203.584 95.0462 192.891 94.049 188.577 101.714C184.262 109.38 188.764 112.932 182.511 114.77C170.006 118.416 166.004 106.295 168.943 86.2902C173.101 58.1217 168.005 3 116.043 3C98.3471 3 63.362 14.7473 62.1427 86.5395Z" fill="#E0DEE9"/>
<path d="M119.763 48.1506C120.045 55.6289 125.797 61.5182 132.582 61.2377C139.366 60.9884 144.65 54.6942 144.368 47.1846C144.087 39.7063 138.334 33.8171 131.55 34.0975C124.734 34.3779 119.451 40.6722 119.763 48.1506Z" fill="white"/>
<path d="M126.423 47.6209C123.453 50.8303 123.671 55.8471 126.892 58.8072C130.112 61.7674 135.146 61.5493 138.116 58.3398C141.086 55.1304 140.867 50.1136 137.647 47.1535C134.395 44.1933 129.393 44.4114 126.423 47.6209Z" fill="#060405"/>
<path d="M97.0653 42.6665C96.3775 44.4426 96.0336 46.4368 96.0961 48.4934C96.3775 56.0029 102.13 61.861 108.915 61.6117C115.511 61.3624 120.67 55.4109 120.701 48.1818L97.0653 42.6665Z" fill="white"/>
<path d="M103.193 49.0229C100.41 52.0143 100.629 56.6883 103.631 59.4615C106.632 62.2347 111.322 62.0166 114.104 59.0252C116.887 56.0339 116.668 51.3599 113.667 48.5867C110.634 45.8446 105.975 46.0316 103.193 49.0229Z" fill="#060405"/>
<path d="M131.175 53.9464C130.8 54.3515 130.831 54.9747 131.238 55.3486C131.644 55.7225 132.269 55.6914 132.644 55.2863C133.02 54.8812 132.988 54.258 132.582 53.8841C132.175 53.5102 131.55 53.5413 131.175 53.9464Z" fill="#F3F2EF"/>
<path d="M108.571 54.881C108.195 55.2861 108.227 55.9092 108.633 56.2832C109.039 56.6571 109.665 56.6259 110.04 56.2208C110.415 55.8158 110.384 55.1926 109.977 54.8187C109.571 54.4447 108.946 54.4759 108.571 54.881Z" fill="#F3F2EF"/>
<path d="M120.107 33.8481C120.107 33.8481 126.642 18.1124 143.994 28.8937C143.994 28.8625 129.612 20.5117 120.107 33.8481Z" fill="#BBB6CB"/>
<path d="M88.1235 65.6313L146.807 65.7871C146.807 65.7871 148.871 84.1403 130.268 82.3019C111.634 80.4946 125.078 65.9429 88.1235 65.6313Z" fill="#060001"/>
<path d="M145.494 74.7612C141.899 73.7641 131.55 71.8322 120.389 78.4381C122.39 80.3389 125.078 81.8034 130.237 82.3331C139.554 83.2367 143.681 79.0925 145.494 74.7612Z" fill="#C75C50"/>
<path d="M110.509 69.2767C112.51 70.2427 113.979 71.3645 115.198 72.5174H116.793L117.074 65.7245L110.54 65.6934L110.509 69.2767Z" fill="white"/>
<path d="M124.484 72.5486L124.516 65.7558L117.981 65.7246L118.2 72.5174L124.484 72.5486Z" fill="white"/>
<path d="M68.5205 100.25C68.5205 100.25 70.5214 89.8423 76.618 86.1654C83.6213 81.9588 80.0571 84.14 80.0571 84.14C80.0571 84.14 71.772 89.1879 68.5205 100.25Z" fill="#BBB6CB"/>
<path d="M135.114 92.9897C135.114 92.9897 128.424 94.1738 129.612 98.0688C130.8 101.964 153.154 102.618 156.28 105.08C159.407 107.541 158.688 109.536 158.688 109.536C158.688 109.536 160.595 108.663 160.595 104.207C160.595 99.7514 135.114 92.9897 135.114 92.9897Z" fill="#BBB6CB"/>
<path d="M159 109.536C159 109.536 165.785 101.995 149.402 101.216C125.86 100.063 126.704 91.7434 127.829 86.789C129.205 80.8686 139.616 77.5656 153.623 81.2425C167.629 84.9505 171.975 92.2108 171.975 100.967C171.975 105.703 169.099 107.728 169.099 107.728" fill="#E0DEE9"/>
<path d="M159 109.536C159 109.536 165.785 101.995 149.402 101.216C125.86 100.063 126.704 91.7434 127.829 86.789C129.205 80.8686 139.616 77.5656 153.623 81.2425C167.629 84.9505 171.975 92.2108 171.975 100.967C171.975 105.703 169.099 107.728 169.099 107.728" stroke="#BBB6CB" stroke-miterlimit="10"/>
<path d="M112.635 96.9155C112.635 96.9155 113.854 97.4764 113.792 100.218C113.729 102.992 110.697 106.482 103.975 107.198C97.2842 107.915 85.3098 106.887 83.4652 107.915C81.6206 108.943 81.6519 109.535 81.6519 109.535C81.6519 109.535 73.9921 106.326 80.9641 101.87C87.9048 97.4452 112.635 96.9155 112.635 96.9155Z" fill="#BBB6CB"/>
<path d="M81.4953 109.442C81.4953 109.442 69.9587 104.581 93.5322 104.082C117.106 103.615 114.511 91.4004 112.666 86.6641C110.821 81.9278 100.879 77.4408 86.8728 81.1177C72.8663 84.8257 68.7394 99.2527 68.5205 100.842" fill="#E0DEE9"/>
<path d="M81.4953 109.442C81.4953 109.442 69.9587 104.581 93.5322 104.082C117.106 103.615 114.511 91.4004 112.666 86.6641C110.821 81.9278 100.879 77.4408 86.8728 81.1177C72.8663 84.8257 68.7394 99.2527 68.5205 100.842" stroke="#BBB6CB" stroke-miterlimit="10"/>
<path d="M85.8413 85.3241C85.8413 84.8879 86.4979 84.7632 86.9043 84.5763C89.4055 83.2987 100.004 78.8429 110.321 88.3155C110.321 88.3155 115.105 94.1424 102.755 90.4343C90.9374 86.8198 85.8413 88.7205 85.8413 85.3241Z" fill="#F3F2EF"/>
<path d="M148.933 84.2648C148.964 80.5568 137.053 80.401 132.582 83.8597C129.143 86.5395 129.799 89.6866 130.8 90.7772C133.488 93.5816 148.902 89.4373 148.933 84.2648Z" fill="#F3F2EF"/>
<path d="M225 155.527L223.874 165H25.1568L24 155.527H225Z" fill="#493A38"/>
<path d="M180.198 119.476L225 155.528H24L68.8021 119.476H180.198Z" fill="#685B5A"/>
<path d="M88.3116 120.41H70.2719L66.1763 123.869H85.5603L88.3116 120.41Z" fill="#DDD3CA"/>
<path d="M106.32 120.41H88.3113L85.5601 123.869H104.975L106.32 120.41Z" fill="#33302E"/>
<path d="M124.36 120.41H106.32L104.976 123.869H124.36V120.41Z" fill="#DDD3CA"/>
<path d="M142.399 120.41H124.359V123.869H143.743L142.399 120.41Z" fill="#33302E"/>
<path d="M160.408 120.41H142.399L143.744 123.869H163.128L160.408 120.41Z" fill="#DDD3CA"/>
<path d="M178.447 120.41H160.408L163.128 123.869H182.512L178.447 120.41Z" fill="#33302E"/>
<path d="M85.5601 123.869H66.176L61.4238 127.889H82.4024L85.5601 123.869Z" fill="#33302E"/>
<path d="M104.975 123.869H85.5601L82.4023 127.889H103.381L104.975 123.869Z" fill="#DDD3CA"/>
<path d="M124.359 123.869H104.975L103.381 127.889H124.328L124.359 123.869Z" fill="#33302E"/>
<path d="M143.743 123.869H124.359L124.328 127.889H145.307L143.743 123.869Z" fill="#DDD3CA"/>
<path d="M163.128 123.869H143.744L145.307 127.889H166.254L163.128 123.869Z" fill="#33302E"/>
<path d="M182.511 123.869H163.127L166.254 127.889H187.232L182.511 123.869Z" fill="#DDD3CA"/>
<path d="M82.4025 127.889H61.424L55.8276 132.594H78.6508L82.4025 127.889Z" fill="#DDD3CA"/>
<path d="M103.381 127.889H82.4026L78.6509 132.594H101.505L103.381 127.889Z" fill="#33302E"/>
<path d="M124.328 127.889H103.381L101.505 132.594H124.328V127.889Z" fill="#DDD3CA"/>
<path d="M145.307 127.889H124.328V132.594H147.151L145.307 127.889Z" fill="#33302E"/>
<path d="M166.254 127.889H145.307L147.151 132.594H169.974L166.254 127.889Z" fill="#DDD3CA"/>
<path d="M187.232 127.889H166.254L169.974 132.594H192.798L187.232 127.889Z" fill="#33302E"/>
<path d="M78.6505 132.594H55.8273L49.1367 138.265H74.1796L78.6505 132.594Z" fill="#33302E"/>
<path d="M101.505 132.594H78.6505L74.1797 138.265H99.2539L101.505 132.594Z" fill="#DDD3CA"/>
<path d="M124.328 132.594H101.505L99.2539 138.265H124.297L124.328 132.594Z" fill="#33302E"/>
<path d="M147.151 132.594H124.328L124.297 138.265H149.371L147.151 132.594Z" fill="#DDD3CA"/>
<path d="M169.974 132.594H147.151L149.371 138.265H174.414L169.974 132.594Z" fill="#33302E"/>
<path d="M192.798 132.594H169.975L174.414 138.265H199.457L192.798 132.594Z" fill="#DDD3CA"/>
<path d="M74.18 138.265H49.1371L41.0083 145.12H68.7712L74.18 138.265Z" fill="#DDD3CA"/>
<path d="M99.254 138.265H74.1798L68.771 145.12H96.5339L99.254 138.265Z" fill="#33302E"/>
<path d="M124.297 138.265H99.2542L96.5342 145.12H124.266L124.297 138.265Z" fill="#DDD3CA"/>
<path d="M149.371 138.265H124.297L124.266 145.12H152.029L149.371 138.265Z" fill="#33302E"/>
<path d="M174.414 138.265H149.371L152.029 145.12H179.792L174.414 138.265Z" fill="#DDD3CA"/>
<path d="M199.457 138.265H174.414L179.792 145.12H207.555L199.457 138.265Z" fill="#33302E"/>
<path d="M68.7711 145.12H41.0081L30.9097 153.627H62.0179L68.7711 145.12Z" fill="#33302E"/>
<path d="M96.5342 145.12H68.7712L62.0181 153.627H93.1263L96.5342 145.12Z" fill="#DDD3CA"/>
<path d="M124.265 145.12H96.5338L93.126 153.627H124.265V145.12Z" fill="#33302E"/>
<path d="M152.029 145.12H124.266V153.627H155.374L152.029 145.12Z" fill="#DDD3CA"/>
<path d="M179.792 145.12H152.029L155.374 153.627H186.482L179.792 145.12Z" fill="#33302E"/>
<path d="M207.554 145.12H179.792L186.482 153.627H217.59L207.554 145.12Z" fill="#DDD3CA"/>
<path d="M79.1505 123.651C79.1505 123.651 79.1505 123.62 79.1505 123.651C79.1505 122.093 76.7432 120.877 73.7418 120.877C70.7716 120.877 68.333 122.124 68.333 123.62V123.651C67.7077 124.087 67.3325 124.585 67.3325 125.146C67.3325 126.673 70.2089 127.608 73.7418 127.608C77.2747 127.608 80.151 126.673 80.151 125.146C80.151 124.585 79.7758 124.087 79.1505 123.651Z" fill="#8D4224"/>
<path d="M80.0572 124.648C79.9321 126.112 77.1183 127.016 73.648 127.016C70.4902 127.016 67.8953 126.268 67.3325 125.022C67.3325 125.053 67.3325 125.084 67.3325 125.115C67.3325 126.642 70.2089 127.577 73.7418 127.577C77.2747 127.577 80.151 126.642 80.151 125.115C80.151 124.96 80.1197 124.804 80.0572 124.648Z" fill="#AF5A40"/>
<path d="M78.1814 121.937C78.1814 123.121 76.2117 123.869 73.773 123.869C71.3344 123.869 69.3647 123.121 69.3647 121.937C69.3647 120.753 71.3344 119.756 73.773 119.756C76.1804 119.787 78.1814 120.753 78.1814 121.937Z" fill="#8D4224"/>
<path d="M73.7418 122.965C71.6158 122.965 69.865 122.405 69.4273 121.47C69.3648 121.626 69.3335 121.781 69.3335 121.937C69.3335 123.121 71.3032 123.869 73.7418 123.869C76.1804 123.869 78.1501 123.121 78.1501 121.937C78.1501 121.781 78.1188 121.626 78.0563 121.47C77.6186 122.405 75.8678 122.965 73.7418 122.965Z" fill="#812E0D"/>
<path d="M76.837 120.13C76.5244 119.538 76.118 118.697 75.8366 117.98C75.3363 116.702 75.7115 114.396 75.7115 114.396H71.7722C71.7722 114.396 72.1474 116.702 71.6471 117.98C71.3657 118.697 70.9593 119.538 70.6779 120.13C70.4278 120.379 70.2715 120.66 70.2715 120.909C70.2715 121.407 71.5221 122.155 73.7731 122.155C75.9616 122.155 77.2747 121.501 77.2747 120.909C77.2435 120.628 77.0872 120.379 76.837 120.13Z" fill="#812E0D"/>
<path d="M75.6801 114.615L74.6484 114.396H71.772C71.772 114.396 72.1159 116.547 71.6782 117.855C71.9283 117.855 72.1785 117.824 72.4598 117.793C73.898 117.606 74.8985 117.201 75.5863 116.733C75.555 115.892 75.6488 115.02 75.6801 114.615Z" fill="#6C2105"/>
<path d="M77.2435 114.24C77.2435 114.832 75.9304 115.487 73.7419 115.487C71.4908 115.487 70.2402 114.739 70.2402 114.24C70.2402 113.368 71.8035 112.433 73.7419 112.433C75.3364 112.464 77.2435 113.274 77.2435 114.24Z" fill="#8D4224"/>
<path d="M73.7419 115.051C71.7722 115.051 70.5529 114.459 70.3028 113.991C70.2715 114.085 70.2402 114.178 70.2402 114.24C70.2402 114.739 71.4908 115.487 73.7419 115.487C75.9304 115.487 77.2435 114.833 77.2435 114.24C77.2435 114.147 77.2122 114.085 77.2122 113.991C76.9621 114.521 75.7115 115.051 73.7419 115.051Z" fill="#812E0D"/>
<path d="M76.1179 113.025V112.994C75.4301 112.651 74.5547 112.464 73.7731 112.464C72.8664 112.464 72.0535 112.682 71.4282 112.963C71.4282 112.994 71.4282 113.025 71.4282 113.025C71.4282 113.493 72.4912 113.835 73.7731 113.835C75.0549 113.867 76.1179 113.493 76.1179 113.025Z" fill="#6C2105"/>
<path d="M73.7417 113.088C75.503 113.088 76.9307 111.665 76.9307 109.909C76.9307 108.154 75.503 106.731 73.7417 106.731C71.9805 106.731 70.5527 108.154 70.5527 109.909C70.5527 111.665 71.9805 113.088 73.7417 113.088Z" fill="#A84E26"/>
<path d="M75.4442 108.577C75.676 108.371 75.6586 107.975 75.4055 107.692C75.1523 107.41 74.7592 107.349 74.5275 107.555C74.2958 107.761 74.3131 108.158 74.5663 108.44C74.8194 108.722 75.2125 108.784 75.4442 108.577Z" fill="#FFC5B2"/>
<path d="M74.5546 112.589C72.7725 112.589 71.3656 111.155 71.3656 109.411C71.3656 108.445 71.8033 107.603 72.4599 107.011C71.3344 107.51 70.5527 108.632 70.5527 109.909C70.5527 111.685 71.9909 113.087 73.7417 113.087C74.5546 113.087 75.2737 112.776 75.8365 112.308C75.4613 112.495 75.0236 112.589 74.5546 112.589Z" fill="#812E0D"/>
<path d="M77.4624 124.773C77.4624 124.773 78.838 124.71 79.4946 123.9C79.4008 123.807 79.2757 123.713 79.1507 123.651V123.62C79.1507 123.402 79.0882 123.184 78.9944 122.997C78.8068 123.62 78.4003 124.43 77.4624 124.773Z" fill="#812E0D"/>
<path d="M70.084 124.773C69.1148 124.43 68.7083 123.588 68.5207 122.934C68.4269 123.152 68.3644 123.37 68.3644 123.62V123.651C68.2393 123.713 68.1456 123.807 68.0518 123.9C68.6771 124.71 70.084 124.773 70.084 124.773Z" fill="#812E0D"/>
<path d="M169.157 140.172C169.157 140.139 169.157 140.139 169.157 140.172C169.157 138.333 166.272 136.828 162.682 136.828C159.092 136.828 156.207 138.299 156.207 140.139V140.172C155.435 140.674 154.999 141.309 154.999 141.944C154.999 143.783 158.455 144.92 162.682 144.92C166.91 144.92 170.365 143.783 170.365 141.944C170.365 141.275 169.929 140.674 169.157 140.172Z" fill="#8D4224"/>
<path d="M170.231 141.376C170.097 143.148 166.708 144.218 162.548 144.218C158.757 144.218 155.636 143.315 154.999 141.844C154.999 141.878 154.999 141.911 154.999 141.944C154.999 143.784 158.455 144.92 162.682 144.92C166.91 144.92 170.365 143.784 170.365 141.944C170.365 141.744 170.332 141.543 170.231 141.376Z" fill="#AF5A40"/>
<path d="M167.983 138.133C167.983 139.57 165.601 140.473 162.682 140.473C159.763 140.473 157.381 139.57 157.381 138.133C157.381 136.695 159.763 135.524 162.682 135.524C165.601 135.524 167.983 136.695 167.983 138.133Z" fill="#8D4224"/>
<path d="M162.682 139.336C160.132 139.336 158.018 138.667 157.515 137.563C157.448 137.731 157.381 137.931 157.381 138.132C157.381 139.57 159.763 140.473 162.682 140.473C165.601 140.473 167.983 139.57 167.983 138.132C167.983 137.931 167.949 137.764 167.849 137.563C167.345 138.667 165.232 139.336 162.682 139.336Z" fill="#812E0D"/>
<path d="M166.373 135.959C166.004 135.257 165.534 134.221 165.198 133.385C164.595 131.846 165.031 129.104 165.031 129.104H160.334C160.334 129.104 160.77 131.846 160.166 133.385C159.83 134.254 159.361 135.224 158.992 135.959C158.69 136.26 158.488 136.595 158.488 136.896C158.488 137.464 159.998 138.4 162.682 138.4C165.299 138.4 166.876 137.598 166.876 136.896C166.876 136.528 166.675 136.227 166.373 135.959Z" fill="#812E0D"/>
<path d="M164.997 129.338L163.756 129.071H160.334C160.334 129.071 160.736 131.679 160.233 133.217C160.535 133.184 160.837 133.184 161.172 133.117C162.883 132.883 164.091 132.381 164.93 131.846C164.829 130.843 164.93 129.806 164.997 129.338Z" fill="#6C2105"/>
<path d="M166.876 128.903C166.876 129.606 165.299 130.408 162.682 130.408C159.998 130.408 158.488 129.505 158.488 128.903C158.488 127.867 160.367 126.73 162.682 126.73C164.561 126.73 166.876 127.7 166.876 128.903Z" fill="#8D4224"/>
<path d="M162.682 129.873C160.3 129.873 158.857 129.171 158.555 128.603C158.522 128.703 158.488 128.803 158.488 128.903C158.488 129.472 159.998 130.408 162.682 130.408C165.299 130.408 166.876 129.606 166.876 128.903C166.876 128.803 166.842 128.703 166.809 128.603C166.507 129.238 165.031 129.873 162.682 129.873Z" fill="#812E0D"/>
<path d="M165.534 127.432C165.534 127.399 165.534 127.399 165.534 127.365C164.728 126.964 163.655 126.73 162.715 126.73C161.642 126.73 160.669 126.964 159.931 127.332C159.931 127.365 159.931 127.399 159.931 127.432C159.931 127.967 161.206 128.402 162.749 128.402C164.259 128.435 165.534 127.967 165.534 127.432Z" fill="#6C2105"/>
<path d="M162.682 127.499C164.794 127.499 166.507 125.792 166.507 123.687C166.507 121.582 164.794 119.875 162.682 119.875C160.569 119.875 158.857 121.582 158.857 123.687C158.857 125.792 160.569 127.499 162.682 127.499Z" fill="#A84E26"/>
<path d="M164.687 122.083C164.963 121.836 164.947 121.369 164.651 121.039C164.354 120.708 163.89 120.64 163.614 120.886C163.337 121.132 163.354 121.599 163.65 121.93C163.946 122.26 164.41 122.329 164.687 122.083Z" fill="#FFC5B2"/>
<path d="M163.655 126.897C161.541 126.897 159.83 125.192 159.83 123.085C159.83 121.948 160.333 120.912 161.138 120.209C159.796 120.811 158.857 122.149 158.857 123.687C158.857 125.794 160.568 127.499 162.682 127.499C163.655 127.499 164.527 127.131 165.198 126.563C164.728 126.797 164.192 126.897 163.655 126.897Z" fill="#812E0D"/>
<path d="M167.111 141.509C167.111 141.509 168.788 141.442 169.56 140.473C169.426 140.372 169.292 140.272 169.157 140.172V140.138C169.157 139.871 169.09 139.637 168.99 139.369C168.755 140.138 168.252 141.108 167.111 141.509Z" fill="#812E0D"/>
<path d="M158.287 141.509C157.113 141.108 156.61 140.105 156.408 139.302C156.274 139.57 156.207 139.837 156.207 140.105V140.138C156.073 140.239 155.939 140.339 155.838 140.439C156.61 141.442 158.287 141.509 158.287 141.509Z" fill="#812E0D"/>
<path d="M88.316 147.263C88.316 145.063 84.8688 143.287 80.6082 143.287C76.3476 143.287 72.9004 145.063 72.9004 147.225V147.263C71.9708 147.881 71.4673 148.614 71.4673 149.386C71.4673 151.548 75.573 152.938 80.6469 152.938C85.7209 152.938 89.8266 151.587 89.8266 149.386C89.7879 148.614 89.2456 147.881 88.316 147.263Z" fill="#8D4224"/>
<path d="M89.6326 148.73C89.4777 150.853 85.4495 152.127 80.4529 152.127C75.9599 152.127 72.2029 151.046 71.4282 149.27C71.4282 149.309 71.4282 149.348 71.4282 149.386C71.4282 151.548 75.5339 152.938 80.6079 152.938C85.6818 152.938 89.7875 151.587 89.7875 149.386C89.7875 149.155 89.7101 148.923 89.6326 148.73Z" fill="#AF5A40"/>
<path d="M86.9211 144.83C86.9211 146.529 84.0936 147.61 80.569 147.61C77.0443 147.61 74.2168 146.529 74.2168 144.83C74.2168 143.132 77.0443 141.742 80.569 141.742C84.0936 141.742 86.9211 143.132 86.9211 144.83Z" fill="#8D4224"/>
<path d="M80.608 146.297C77.5869 146.297 75.0692 145.487 74.4108 144.174C74.2946 144.406 74.2559 144.599 74.2559 144.831C74.2559 146.529 77.0833 147.61 80.608 147.61C84.1327 147.61 86.9602 146.529 86.9602 144.831C86.9602 144.599 86.9215 144.367 86.8053 144.174C86.1468 145.487 83.6292 146.297 80.608 146.297Z" fill="#812E0D"/>
<path d="M85.0234 142.244C84.5973 141.395 84.0163 140.198 83.5903 139.156C82.8931 137.342 83.3966 134.022 83.3966 134.022H77.7804C77.7804 134.022 78.2839 137.303 77.5867 139.156C77.1994 140.16 76.6184 141.357 76.1923 142.206C75.805 142.553 75.6113 142.939 75.6113 143.325C75.6113 144.02 77.393 145.101 80.6078 145.101C83.7452 145.101 85.6044 144.175 85.6044 143.325C85.6044 142.939 85.372 142.592 85.0234 142.244Z" fill="#812E0D"/>
<path d="M83.3578 134.37L81.8859 134.061H77.7803C77.7803 134.061 78.2838 137.149 77.6641 139.002C78.0127 138.964 78.4 138.964 78.7873 138.886C80.8402 138.616 82.2733 138.037 83.2803 137.381C83.1641 136.146 83.319 134.91 83.3578 134.37Z" fill="#6C2105"/>
<path d="M85.6044 133.829C85.6044 134.678 83.7452 135.604 80.6078 135.604C77.393 135.604 75.6113 134.523 75.6113 133.829C75.6113 132.593 77.8578 131.242 80.6078 131.242C82.8543 131.242 85.6044 132.4 85.6044 133.829Z" fill="#8D4224"/>
<path d="M80.6078 134.987C77.7804 134.987 76.0374 134.138 75.6888 133.443C75.6501 133.559 75.6113 133.713 75.6113 133.829C75.6113 134.524 77.393 135.605 80.6078 135.605C83.7452 135.605 85.6044 134.678 85.6044 133.829C85.6044 133.713 85.5656 133.597 85.5269 133.481C85.1783 134.215 83.3966 134.987 80.6078 134.987Z" fill="#812E0D"/>
<path d="M83.9781 132.091C83.9781 132.053 83.9781 132.053 83.9781 132.014C83.0098 131.551 81.7316 131.242 80.6084 131.242C79.3302 131.242 78.1682 131.551 77.2773 131.976C77.2773 132.014 77.2773 132.053 77.2773 132.091C77.2773 132.748 78.7879 133.25 80.6471 133.25C82.4675 133.25 83.9781 132.709 83.9781 132.091Z" fill="#6C2105"/>
<path d="M80.6081 132.169C83.1322 132.169 85.1785 130.129 85.1785 127.614C85.1785 125.098 83.1322 123.059 80.6081 123.059C78.0839 123.059 76.0376 125.098 76.0376 127.614C76.0376 130.129 78.0839 132.169 80.6081 132.169Z" fill="#A84E26"/>
<path d="M83.0366 125.694C83.3556 125.41 83.3253 124.857 82.9689 124.46C82.6125 124.062 82.065 123.97 81.746 124.255C81.427 124.539 81.4574 125.091 81.8137 125.489C82.1701 125.886 82.7176 125.978 83.0366 125.694Z" fill="#FFC5B2"/>
<path d="M81.77 131.435C79.2524 131.435 77.1996 129.389 77.1996 126.88C77.1996 125.49 77.8193 124.294 78.7489 123.444C77.1608 124.178 76.0376 125.761 76.0376 127.613C76.0376 130.123 78.0904 132.169 80.6081 132.169C81.77 132.169 82.8158 131.744 83.6292 131.049C83.0482 131.319 82.4285 131.435 81.77 131.435Z" fill="#812E0D"/>
<path d="M85.9141 148.884C85.9141 148.884 87.8894 148.807 88.819 147.648C88.6641 147.533 88.5092 147.378 88.3542 147.262V147.224C88.3542 146.915 88.2768 146.606 88.1606 146.336C87.8507 147.262 87.2697 148.42 85.9141 148.884Z" fill="#812E0D"/>
<path d="M75.3406 148.884C73.9463 148.382 73.3653 147.186 73.0942 146.259C72.9392 146.568 72.8618 146.877 72.8618 147.224V147.263C72.7068 147.379 72.5519 147.495 72.397 147.61C73.3266 148.807 75.3406 148.884 75.3406 148.884Z" fill="#812E0D"/>
<path d="M180.495 123.713C180.495 123.713 180.526 123.713 180.495 123.713C180.495 122.186 178.119 120.971 175.148 120.971C172.178 120.971 169.802 122.186 169.802 123.682V123.713C169.177 124.149 168.802 124.648 168.802 125.178C168.802 126.673 171.647 127.608 175.148 127.608C178.65 127.608 181.495 126.673 181.495 125.178C181.495 124.648 181.151 124.149 180.495 123.713Z" fill="#8D4224"/>
<path d="M181.401 124.71C181.276 126.175 178.494 127.079 175.086 127.079C171.959 127.079 169.396 126.331 168.864 125.116C168.864 125.147 168.864 125.178 168.864 125.209C168.864 126.705 171.709 127.639 175.211 127.639C178.713 127.639 181.558 126.705 181.558 125.209C181.495 125.022 181.464 124.866 181.401 124.71Z" fill="#6C2105"/>
<path d="M179.557 122.031C179.557 123.215 177.587 123.963 175.18 123.963C172.772 123.963 170.803 123.215 170.803 122.031C170.803 120.847 172.772 119.881 175.18 119.881C177.587 119.881 179.557 120.847 179.557 122.031Z" fill="#8D4224"/>
<path d="M175.18 123.028C173.085 123.028 171.334 122.467 170.928 121.563C170.865 121.719 170.834 121.875 170.834 122.031C170.834 123.215 172.804 123.963 175.211 123.963C177.618 123.963 179.588 123.215 179.588 122.031C179.588 121.875 179.557 121.719 179.494 121.563C179.025 122.498 177.274 123.028 175.18 123.028Z" fill="#812E0D"/>
<path d="M178.838 124.835C178.838 124.835 180.214 124.773 180.839 123.963C180.745 123.869 180.62 123.776 180.495 123.713V123.682C180.495 123.464 180.432 123.246 180.339 123.059C180.182 123.713 179.776 124.492 178.838 124.835Z" fill="#812E0D"/>
<path d="M171.553 124.835C170.584 124.492 170.178 123.682 169.99 123.028C169.896 123.246 169.834 123.464 169.834 123.713V123.745C169.709 123.807 169.615 123.9 169.521 123.994C170.178 124.773 171.553 124.835 171.553 124.835Z" fill="#812E0D"/>
<path d="M171.396 107.136V120.909V120.971C171.49 121.781 173.116 122.436 175.148 122.436C177.18 122.436 178.837 121.781 178.9 120.971V107.136H171.396Z" fill="#812E0D"/>
<path d="M178.931 107.292L177.837 106.949H171.396V117.949C171.928 116.297 173.366 111.966 174.554 110.065C175.492 108.507 177.587 107.977 178.931 107.759V107.292Z" fill="#6C2105"/>
<path d="M170.365 106.077C170.365 106.077 170.709 106.98 170.928 107.136C171.116 107.292 172.773 107.448 175.18 107.448C177.556 107.448 179.151 107.354 179.338 107.261C179.526 107.167 179.776 106.077 179.776 106.077H170.365Z" fill="#812E0D"/>
<path d="M175.18 106.98C177.431 106.98 179.026 106.918 179.557 106.825C179.682 106.482 179.776 106.077 179.776 106.077H170.396C170.396 106.077 170.522 106.388 170.678 106.669C171.053 106.825 172.773 106.98 175.18 106.98Z" fill="#6C2105"/>
<path d="M169.927 105.392C169.927 105.392 170.334 106.295 170.553 106.451C170.771 106.607 172.585 106.763 175.18 106.763C177.775 106.763 179.525 106.669 179.713 106.576C179.901 106.482 180.182 105.392 180.182 105.392H169.927Z" fill="#812E0D"/>
<path d="M171.24 103.802L171.428 103.46C171.49 103.366 171.584 103.304 171.678 103.304H172.647C172.772 103.304 172.866 103.366 172.897 103.491L173.085 103.989C173.147 104.176 172.991 104.394 172.804 104.363L171.428 104.207C171.272 104.176 171.147 103.958 171.24 103.802Z" fill="#6C2105"/>
<path d="M176.68 103.802L176.868 103.46C176.93 103.366 177.024 103.304 177.118 103.304H178.087C178.212 103.304 178.306 103.366 178.337 103.491L178.525 103.989C178.587 104.176 178.431 104.394 178.244 104.363L176.868 104.207C176.68 104.176 176.587 103.958 176.68 103.802Z" fill="#812E0D"/>
<path d="M170.177 105.952C171.115 106.015 173.273 106.139 175.492 106.139C177.493 106.139 179.119 106.046 179.963 106.015C180.057 105.703 180.151 105.392 180.151 105.392H169.896C169.927 105.392 170.052 105.672 170.177 105.952Z" fill="#6C2105"/>
<path d="M173.835 102.275H176.462C176.618 102.275 176.774 102.4 176.806 102.556L177.056 103.802C177.087 103.958 177.243 104.083 177.4 104.083H178.056C178.244 104.083 178.4 103.927 178.4 103.74V102.867C178.4 102.68 178.556 102.525 178.744 102.525C179.213 102.494 180.088 102.494 180.276 102.68C180.495 102.899 180.495 104.675 180.495 105.423C180.495 105.609 180.338 105.765 180.182 105.765C179.494 105.796 177.712 105.921 175.43 105.921C173.054 105.921 170.772 105.765 169.959 105.703C169.771 105.703 169.646 105.547 169.646 105.36V103.272C169.646 103.086 169.771 102.93 169.959 102.93L170.928 102.836C171.115 102.805 171.272 102.961 171.303 103.148L171.366 103.74C171.397 103.927 171.522 104.051 171.709 104.051H172.804C172.96 104.051 173.085 103.958 173.148 103.802L173.523 102.556C173.523 102.4 173.679 102.275 173.835 102.275Z" fill="#A84E26"/>
<path d="M174.429 102.275H173.804C173.648 102.275 173.523 102.369 173.46 102.525L173.085 103.771C173.054 103.927 172.898 104.02 172.741 104.02H171.647C171.459 104.02 171.303 103.896 171.303 103.709L171.241 103.117C171.209 102.93 171.053 102.805 170.865 102.805L169.896 102.899C169.709 102.899 169.583 103.054 169.583 103.241V105.329C169.583 105.516 169.709 105.672 169.896 105.672C170.584 105.734 172.366 105.828 174.336 105.89C174.336 104.519 174.398 103.086 174.429 102.275Z" fill="#812E0D"/>
<path d="M113.87 100.346C112.532 100.346 111.195 101.381 111.316 101.533C111.438 101.685 112.35 101.777 113.87 101.777C115.39 101.777 116.302 101.685 116.424 101.533C116.546 101.381 115.208 100.346 113.87 100.346Z" fill="#6D321B"/>
<path d="M113.87 100.346C112.532 100.346 111.195 101.381 111.316 101.533C111.408 101.655 112.046 101.716 113.11 101.746C113.292 101.229 113.627 100.741 113.931 100.346C113.901 100.346 113.901 100.346 113.87 100.346Z" fill="#843F29"/>
<path d="M119.099 123.697C119.099 122.205 116.758 120.987 113.87 120.987C110.982 120.987 108.641 122.205 108.641 123.666V123.697C108.033 124.123 107.668 124.61 107.668 125.158C107.668 126.65 110.435 127.563 113.87 127.563C117.306 127.563 120.072 126.65 120.072 125.158C120.072 124.61 119.738 124.123 119.099 123.697Z" fill="#6D321B"/>
<path d="M119.981 124.67C119.86 126.101 117.123 126.984 113.779 126.984C110.739 126.984 108.185 126.253 107.668 125.036C107.668 125.066 107.668 125.097 107.668 125.127C107.668 126.619 110.435 127.532 113.87 127.532C117.306 127.532 120.072 126.619 120.072 125.127C120.072 125.005 120.042 124.823 119.981 124.67Z" fill="#602918"/>
<path d="M118.157 122.052C118.157 123.209 116.241 123.94 113.87 123.94C111.498 123.94 109.583 123.209 109.583 122.052C109.583 120.895 111.498 119.952 113.87 119.952C116.241 119.952 118.157 120.865 118.157 122.052Z" fill="#6D321B"/>
<path d="M113.87 123.026C111.833 123.026 110.1 122.478 109.674 121.565C109.613 121.717 109.583 121.869 109.583 122.022C109.583 123.178 111.498 123.909 113.87 123.909C116.241 123.909 118.157 123.178 118.157 122.022C118.157 121.869 118.126 121.717 118.065 121.565C117.64 122.478 115.937 123.026 113.87 123.026Z" fill="#67290F"/>
<path d="M117.458 124.792C117.458 124.792 118.795 124.732 119.434 123.94C119.343 123.849 119.221 123.757 119.099 123.696V123.666C119.099 123.453 119.038 123.24 118.947 123.057C118.795 123.696 118.4 124.488 117.458 124.792Z" fill="#67290F"/>
<path d="M110.313 124.792C109.371 124.457 108.975 123.635 108.793 122.996C108.702 123.209 108.641 123.422 108.641 123.666V123.696C108.519 123.757 108.428 123.849 108.337 123.94C108.975 124.762 110.313 124.792 110.313 124.792Z" fill="#67290F"/>
<path d="M116.88 120.287C116.789 120.105 116.698 119.891 116.576 119.678C116.15 118.826 115.938 117.852 115.938 116.908C115.938 115.142 115.938 113.163 115.938 112.311C115.968 110.606 116.758 108.81 116.758 108.81H114.509H113.749H113.262H111.012C111.012 108.81 111.803 110.606 111.833 112.311C111.833 113.163 111.833 115.112 111.833 116.878C111.833 117.882 111.59 118.887 111.164 119.77C111.073 119.952 110.982 120.135 110.921 120.287C110.678 120.531 110.526 120.805 110.526 121.048C110.526 121.535 111.742 122.266 113.901 122.266C116.029 122.266 117.275 121.627 117.275 121.048C117.245 120.774 117.123 120.5 116.88 120.287Z" fill="#67290F"/>
<path d="M114.509 108.779H113.748H113.262H111.012C111.012 108.779 111.803 110.575 111.833 112.28C111.833 112.98 111.833 114.441 111.833 115.933C112.259 114.715 112.836 113.376 113.505 112.402C114.205 111.366 115.238 110.697 116.272 110.24C116.515 109.388 116.758 108.779 116.758 108.779H114.509Z" fill="#491C0B"/>
<path d="M117.914 108.353C117.914 109.418 116.09 109.632 113.87 109.632C111.651 109.632 109.827 109.449 109.827 108.353C109.827 107.592 110.8 107.227 113.87 107.227C117.002 107.227 117.914 107.561 117.914 108.353Z" fill="#6D321B"/>
<path d="M117.579 107.714C117.093 107.379 115.968 107.227 113.87 107.227C111.772 107.227 110.648 107.409 110.161 107.744C110.313 108.536 111.164 108.779 113.809 108.779C116.546 108.779 117.427 108.444 117.579 107.714Z" fill="#67290F"/>
<path d="M117.61 107.226C117.61 108.048 115.846 108.14 113.779 108.14C111.712 108.14 110.161 108.14 110.161 107.226C110.161 106.709 111.043 106.313 113.901 106.313C116.789 106.313 117.61 106.709 117.61 107.226Z" fill="#6D321B"/>
<path d="M113.901 106.313C112.077 106.313 111.043 106.496 110.557 106.739C110.739 107.044 111.347 107.348 113.901 107.348C115.999 107.348 116.698 106.922 116.941 106.617C116.364 106.435 115.421 106.313 113.901 106.313Z" fill="#67290F"/>
<path d="M110.617 102.082C110.617 102.082 111.104 105.309 111.073 106.252C111.073 106.526 111.286 106.77 111.56 106.831C112.046 106.922 112.867 107.044 113.901 107.013C114.904 106.983 115.694 106.892 116.151 106.8C116.424 106.739 116.637 106.496 116.637 106.191C116.637 105.917 117.154 102.082 117.154 102.082H110.617Z" fill="#67290F"/>
<path d="M113.201 102.082H110.617C110.617 102.082 111.104 105.309 111.073 106.252C111.073 106.526 111.286 106.77 111.56 106.831C111.985 106.922 112.715 107.013 113.566 107.013L113.201 102.082Z" fill="#491C0B"/>
<path d="M110.86 102.082L110.647 102.173C110.678 102.356 110.739 102.721 110.799 103.178C111.408 103.391 112.32 103.604 113.597 103.543C114.934 103.482 116.15 103.178 117.062 102.873C117.123 102.386 117.184 102.051 117.184 102.051H110.86V102.082Z" fill="#491C0B"/>
<path d="M113.87 100.346C113.536 100.346 113.201 100.407 112.897 100.498C113.049 100.681 113.445 100.802 113.87 100.802C114.296 100.802 114.691 100.681 114.843 100.498C114.539 100.407 114.205 100.346 113.87 100.346Z" fill="#67290F"/>
<path d="M116.424 101.532C116.454 101.502 116.363 101.35 116.181 101.198C116.029 101.258 115.938 101.319 115.664 101.35C115.086 101.38 115.117 101.198 114.539 101.198C113.931 101.228 113.536 101.38 112.897 101.38C112.289 101.35 112.32 101.198 111.712 101.137C111.468 101.319 111.316 101.472 111.377 101.532C111.499 101.685 112.411 101.776 113.931 101.776C115.39 101.776 116.302 101.685 116.424 101.532Z" fill="#67290F"/>
<path d="M111.499 101.381C111.499 101.381 111.195 101.35 110.739 101.472C110.252 101.624 109.826 101.868 110.191 102.233C110.556 102.599 111.195 102.385 111.499 102.385C111.803 102.385 112.259 102.72 112.897 102.751C113.536 102.781 113.84 102.385 114.448 102.385C115.056 102.385 115.025 102.842 115.846 102.751C116.667 102.659 116.698 102.385 117.123 102.294C117.518 102.203 118.218 101.685 117.123 101.472C116.029 101.259 116.272 101.563 115.664 101.594C115.086 101.624 115.117 101.442 114.539 101.442C113.931 101.472 113.536 101.624 112.897 101.624C112.198 101.624 112.32 101.442 111.499 101.381Z" fill="#6D321B"/>
<path d="M113.87 100.559C114.457 100.559 114.934 100.082 114.934 99.4937C114.934 98.9053 114.457 98.4282 113.87 98.4282C113.282 98.4282 112.806 98.9053 112.806 99.4937C112.806 100.082 113.282 100.559 113.87 100.559Z" fill="#67290F"/>
<path d="M114.144 99.0974C114.312 99.0974 114.448 98.9884 114.448 98.8539C114.448 98.7194 114.312 98.6104 114.144 98.6104C113.976 98.6104 113.84 98.7194 113.84 98.8539C113.84 98.9884 113.976 99.0974 114.144 99.0974Z" fill="#602918"/>
<path d="M138.43 119.78C138.43 119.78 138.43 119.75 138.43 119.78C138.43 118.219 136.151 116.988 133.332 116.988C130.513 116.988 128.234 118.219 128.234 119.75V119.78C127.634 120.201 127.274 120.711 127.274 121.282C127.274 122.813 129.973 123.744 133.332 123.744C136.691 123.744 139.39 122.783 139.39 121.282C139.36 120.711 139.03 120.201 138.43 119.78Z" fill="#6D321B"/>
<path d="M139.27 120.772C139.15 122.243 136.511 123.144 133.212 123.144C130.243 123.144 127.754 122.394 127.274 121.162C127.274 121.192 127.274 121.222 127.274 121.252C127.274 122.784 129.973 123.715 133.332 123.715C136.691 123.715 139.39 122.754 139.39 121.252C139.36 121.102 139.33 120.952 139.27 120.772Z" fill="#602918"/>
<path d="M137.501 118.069C137.501 119.27 135.641 120.021 133.332 120.021C131.023 120.021 129.164 119.27 129.164 118.069C129.164 116.868 131.023 115.907 133.332 115.907C135.641 115.907 137.501 116.868 137.501 118.069Z" fill="#6D321B"/>
<path d="M133.332 119.089C131.323 119.089 129.673 118.519 129.254 117.588C129.194 117.738 129.164 117.888 129.164 118.068C129.164 119.27 131.023 120.02 133.332 120.02C135.641 120.02 137.501 119.27 137.501 118.068C137.501 117.918 137.471 117.738 137.411 117.588C136.991 118.519 135.311 119.089 133.332 119.089Z" fill="#67290F"/>
<path d="M136.811 120.892C136.811 120.892 138.131 120.832 138.73 120.021C138.64 119.931 138.52 119.841 138.4 119.75V119.72C138.4 119.51 138.34 119.3 138.251 119.09C138.101 119.75 137.711 120.561 136.811 120.892Z" fill="#67290F"/>
<path d="M129.853 120.891C128.954 120.561 128.564 119.72 128.384 119.06C128.294 119.27 128.234 119.51 128.234 119.75V119.78C128.114 119.87 128.024 119.93 127.934 120.02C128.534 120.861 129.853 120.891 129.853 120.891Z" fill="#67290F"/>
<path d="M136.241 116.268C136.151 116.088 136.061 115.878 135.941 115.638C135.522 114.737 135.312 113.776 135.312 112.785C135.312 110.953 135.312 108.941 135.312 108.04C135.342 106.269 136.091 104.437 136.091 104.437H133.872H133.182H132.703H130.483C130.483 104.437 131.263 106.269 131.263 108.04C131.263 108.911 131.263 110.893 131.263 112.725C131.263 113.746 131.023 114.767 130.603 115.698C130.513 115.878 130.423 116.058 130.363 116.238C130.124 116.479 129.974 116.749 129.974 117.019C129.974 117.5 131.143 118.28 133.272 118.28C135.342 118.28 136.571 117.62 136.571 117.019C136.631 116.749 136.481 116.479 136.241 116.268Z" fill="#67290F"/>
<path d="M133.932 104.437H133.182H132.703H130.483C130.483 104.437 131.263 106.269 131.263 108.04C131.263 108.761 131.263 110.263 131.263 111.794C131.683 110.533 132.223 109.182 132.883 108.161C133.572 107.11 134.562 106.389 135.582 105.938C135.791 105.068 136.061 104.437 136.061 104.437H133.932Z" fill="#491C0B"/>
<path d="M137.261 104.016C137.261 105.097 135.492 105.338 133.332 105.338C131.143 105.338 129.404 105.127 129.404 104.016C129.404 103.236 130.333 102.845 133.332 102.845C136.361 102.845 137.261 103.176 137.261 104.016Z" fill="#6D321B"/>
<path d="M136.931 103.356C136.451 102.995 135.372 102.845 133.332 102.845C131.293 102.845 130.213 103.025 129.704 103.386C129.854 104.197 130.663 104.467 133.272 104.467C135.911 104.437 136.781 104.076 136.931 103.356Z" fill="#67290F"/>
<path d="M136.961 102.844C136.961 103.685 135.252 103.775 133.242 103.775C131.233 103.775 129.704 103.775 129.704 102.844C129.704 102.334 130.573 101.914 133.332 101.914C136.151 101.914 136.961 102.304 136.961 102.844Z" fill="#6D321B"/>
<path d="M133.332 101.914C131.533 101.914 130.543 102.094 130.063 102.364C130.243 102.664 130.843 102.995 133.302 102.995C135.342 102.995 136.031 102.574 136.271 102.244C135.731 102.004 134.832 101.914 133.332 101.914Z" fill="#67290F"/>
<path d="M130.153 97.5298C130.153 97.5298 130.633 100.833 130.573 101.824C130.573 102.124 130.783 102.364 131.053 102.425C131.533 102.515 132.343 102.635 133.332 102.605C134.292 102.575 135.072 102.485 135.521 102.394C135.791 102.334 136.001 102.064 136.001 101.764C136.001 101.464 136.511 97.5298 136.511 97.5298H130.153Z" fill="#67290F"/>
<path d="M132.672 97.5298H130.153C130.153 97.5298 130.633 100.833 130.573 101.824C130.573 102.124 130.783 102.364 131.053 102.425C131.473 102.515 132.163 102.605 133.002 102.605L132.672 97.5298Z" fill="#491C0B"/>
<path d="M130.393 97.5298L130.183 97.6199C130.213 97.8 130.273 98.1904 130.333 98.6709C130.933 98.9111 131.803 99.0913 133.032 99.0613C134.322 99.0012 135.521 98.7009 136.391 98.3706C136.451 97.8901 136.511 97.5298 136.511 97.5298H130.393Z" fill="#491C0B"/>
<path d="M133.333 98.311C135.453 98.311 137.171 97.8539 137.171 97.29C137.171 96.7262 135.453 96.269 133.333 96.269C131.213 96.269 129.494 96.7262 129.494 97.29C129.494 97.8539 131.213 98.311 133.333 98.311Z" fill="#6D321B"/>
<path d="M133.332 97.7998C131.533 97.7998 130.003 97.4695 129.583 97.019C129.523 97.1091 129.463 97.1692 129.463 97.2593C129.463 97.8298 131.173 98.2803 133.302 98.2803C135.431 98.2803 137.141 97.8298 137.141 97.2593C137.141 97.1692 137.111 97.1091 137.021 97.019C136.661 97.4695 135.131 97.7998 133.332 97.7998Z" fill="#67290F"/>
<path d="M134.712 95.668H131.923V96.4487C131.923 96.4788 131.923 96.5088 131.923 96.5388C131.923 96.5688 131.923 96.5989 131.923 96.6289C132.013 96.8691 132.583 97.0493 133.272 97.0493C133.572 97.0493 133.842 97.0193 134.052 96.9592C134.382 96.8992 134.622 96.749 134.652 96.5688C134.652 96.5388 134.652 96.5388 134.652 96.5088C134.652 96.5088 134.652 96.5088 134.652 96.4788V96.4487V95.668H134.712Z" fill="#67290F"/>
<path d="M133.302 96.0283C134.064 96.0283 134.682 95.8804 134.682 95.698C134.682 95.5156 134.064 95.3677 133.302 95.3677C132.54 95.3677 131.923 95.5156 131.923 95.698C131.923 95.8804 132.54 96.0283 133.302 96.0283Z" fill="#6D321B"/>
<path d="M134.621 92.4556C134.591 91.8249 134.022 91.4346 133.302 91.4346C132.582 91.4346 132.012 91.855 131.982 92.4556V94.6477V95.0381V95.4284C131.982 95.4585 131.982 95.4885 131.982 95.5185C131.982 95.5486 131.982 95.5786 131.982 95.5786C132.072 95.7888 132.612 95.969 133.272 95.969C133.542 95.969 133.812 95.9389 134.022 95.8789C134.322 95.8188 134.561 95.6987 134.591 95.5185C134.591 95.4885 134.591 95.4885 134.591 95.4585C134.591 95.4585 134.591 95.4585 134.591 95.4284V95.3984V95.0381V94.6777L134.621 92.4556Z" fill="#67290F"/>
<path d="M131.982 92.4548V94.6469V95.0373V95.4277C131.982 95.4577 131.982 95.4878 131.982 95.5178C131.982 95.5478 131.982 95.5778 131.982 95.5778C132.042 95.758 132.402 95.9082 132.882 95.9382C132.882 94.9773 132.882 93.1755 132.882 92.4248C132.882 92.0644 133.002 91.7341 133.152 91.4639C132.522 91.4939 132.012 91.8843 131.982 92.4548Z" fill="#6D321B"/>
<path d="M133.974 91.9312C134.021 91.8435 133.964 91.7216 133.848 91.6587C133.731 91.5959 133.598 91.616 133.551 91.7036C133.504 91.7913 133.56 91.9132 133.677 91.9761C133.794 92.0389 133.927 92.0188 133.974 91.9312Z" fill="#6D321B"/>
<path d="M133.302 91.4346C133.152 91.4346 133.002 91.4646 132.853 91.4946C132.913 91.6147 133.092 91.7349 133.302 91.7349C133.512 91.7349 133.722 91.6448 133.752 91.5247C133.632 91.4646 133.482 91.4346 133.302 91.4346Z" fill="#491C0B"/>
<path d="M133.302 91.6743C133.518 91.6743 133.692 91.4861 133.692 91.2539C133.692 91.0217 133.518 90.8335 133.302 90.8335C133.087 90.8335 132.913 91.0217 132.913 91.2539C132.913 91.4861 133.087 91.6743 133.302 91.6743Z" fill="#6D321B"/>
<path d="M141.399 128.294C141.399 128.263 141.399 128.263 141.399 128.294C141.399 126.736 138.992 125.521 135.99 125.521C133.02 125.521 130.582 126.767 130.582 128.263V128.294C129.956 128.73 129.581 129.229 129.581 129.789C129.581 131.316 132.457 132.251 135.99 132.251C139.523 132.251 142.4 131.316 142.4 129.789C142.4 129.229 142.056 128.699 141.399 128.294Z" fill="#8D4224"/>
<path d="M142.306 129.291C142.181 130.756 139.367 131.659 135.896 131.659C132.739 131.659 130.144 130.911 129.581 129.665C129.581 129.696 129.581 129.727 129.581 129.758C129.581 131.285 132.457 132.22 135.99 132.22C139.523 132.22 142.4 131.285 142.4 129.758C142.4 129.603 142.368 129.447 142.306 129.291Z" fill="#AF5A40"/>
<path d="M140.43 126.58C140.43 127.764 138.46 128.512 136.022 128.512C133.583 128.512 131.613 127.764 131.613 126.58C131.613 125.396 133.583 124.399 136.022 124.399C138.46 124.399 140.43 125.396 140.43 126.58Z" fill="#8D4224"/>
<path d="M136.022 127.608C133.896 127.608 132.145 127.048 131.707 126.113C131.645 126.269 131.613 126.424 131.613 126.58C131.613 127.764 133.583 128.512 136.022 128.512C138.46 128.512 140.43 127.764 140.43 126.58C140.43 126.424 140.399 126.269 140.336 126.113C139.898 127.048 138.116 127.608 136.022 127.608Z" fill="#812E0D"/>
<path d="M139.086 124.773C138.773 124.181 138.366 123.34 138.085 122.623C137.585 121.345 137.96 119.04 137.96 119.04H134.052C134.052 119.04 134.427 121.345 133.927 122.623C133.646 123.34 133.239 124.181 132.958 124.773C132.708 125.022 132.551 125.303 132.551 125.552C132.551 126.051 133.802 126.798 136.053 126.798C138.241 126.798 139.555 126.144 139.555 125.552C139.492 125.272 139.336 124.991 139.086 124.773Z" fill="#812E0D"/>
<path d="M137.929 119.258L136.897 119.04H134.052C134.052 119.04 134.396 121.19 133.958 122.498C134.208 122.498 134.458 122.467 134.74 122.436C136.178 122.249 137.178 121.844 137.866 121.377C137.804 120.535 137.897 119.663 137.929 119.258Z" fill="#6C2105"/>
<path d="M139.492 118.883C139.492 119.475 138.179 120.13 135.99 120.13C133.739 120.13 132.489 119.382 132.489 118.883C132.489 118.011 134.052 117.076 135.99 117.076C137.585 117.076 139.492 117.886 139.492 118.883Z" fill="#8D4224"/>
<path d="M136.022 119.694C134.052 119.694 132.833 119.102 132.583 118.634C132.551 118.728 132.52 118.821 132.52 118.884C132.52 119.382 133.771 120.13 136.022 120.13C138.21 120.13 139.523 119.476 139.523 118.884C139.523 118.79 139.492 118.728 139.492 118.634C139.211 119.164 137.96 119.694 136.022 119.694Z" fill="#812E0D"/>
<path d="M138.366 117.668V117.637C137.679 117.294 136.803 117.107 136.022 117.107C135.115 117.107 134.302 117.326 133.677 117.606C133.677 117.637 133.677 117.668 133.677 117.668C133.677 118.136 134.74 118.478 136.022 118.478C137.303 118.51 138.366 118.136 138.366 117.668Z" fill="#6C2105"/>
<path d="M136.021 117.731C137.783 117.731 139.21 116.308 139.21 114.552C139.21 112.797 137.783 111.374 136.021 111.374C134.26 111.374 132.833 112.797 132.833 114.552C132.833 116.308 134.26 117.731 136.021 117.731Z" fill="#A84E26"/>
<path d="M137.698 113.224C137.929 113.018 137.912 112.622 137.659 112.339C137.406 112.057 137.013 111.995 136.781 112.202C136.549 112.408 136.567 112.805 136.82 113.087C137.073 113.369 137.466 113.431 137.698 113.224Z" fill="#FFC5B2"/>
<path d="M136.803 117.232C135.021 117.232 133.614 115.799 133.614 114.054C133.614 113.088 134.052 112.246 134.708 111.654C133.583 112.153 132.801 113.275 132.801 114.552C132.801 116.328 134.239 117.73 135.99 117.73C136.803 117.73 137.522 117.419 138.085 116.951C137.71 117.138 137.272 117.232 136.803 117.232Z" fill="#812E0D"/>
<path d="M139.711 129.416C139.711 129.416 141.087 129.353 141.743 128.543C141.649 128.45 141.524 128.356 141.399 128.294V128.263C141.399 128.045 141.337 127.827 141.243 127.64C141.087 128.263 140.649 129.073 139.711 129.416Z" fill="#812E0D"/>
<path d="M132.332 129.416C131.363 129.073 130.957 128.232 130.769 127.577C130.675 127.795 130.613 128.013 130.613 128.263V128.294C130.488 128.356 130.394 128.45 130.3 128.543C130.926 129.353 132.332 129.416 132.332 129.416Z" fill="#812E0D"/>
</svg>
