<svg width="340" height="50" viewBox="0 0 340 50" fill="none" xmlns="http://www.w3.org/2000/svg">
<g clip-path="url(#clip0_3888_86411)">
<path d="M0.488311 17.5976C0.90527 17.0805 1.27574 16.5274 1.59527 15.9449C1.93593 15.2746 2.18171 14.5601 2.32549 13.822C2.53768 12.7638 2.6744 11.6919 2.73471 10.6143C2.81842 9.32632 2.86029 7.68139 2.86029 5.67953V3.09108C2.83583 2.79094 2.8741 2.48899 2.97258 2.20445C3.07107 1.91991 3.22761 1.65904 3.43233 1.43838C3.82791 1.07806 4.34899 0.887484 4.88345 0.907651C5.42284 0.89203 5.94633 1.09128 6.33911 1.46166C6.54581 1.67688 6.70519 1.93306 6.80692 2.21371C6.90865 2.49436 6.9505 2.79325 6.92978 3.09108V5.6516C6.92978 7.74657 6.86004 9.56997 6.72051 11.1218C7.15883 11.4083 7.56155 11.7458 7.92035 12.1274C8.30656 12.5494 8.63791 13.0187 8.90639 13.524C9.04699 12.5283 9.13705 11.5261 9.17617 10.5212C9.22888 9.33873 9.2552 7.88778 9.2552 6.16835V3.11435C9.23074 2.81422 9.26901 2.51226 9.3675 2.22772C9.46598 1.94318 9.62253 1.68231 9.82724 1.46166C10.2228 1.10133 10.7439 0.910756 11.2784 0.930923C11.8178 0.915302 12.3412 1.11455 12.734 1.48493C12.9407 1.70015 13.1001 1.95634 13.2018 2.23698C13.3036 2.51763 13.3454 2.81652 13.3247 3.11435V6.14042C13.3247 6.97841 13.3246 7.79311 13.2688 8.57523C13.213 9.35736 13.1712 10.1209 13.0921 10.8704C13.6121 11.2972 14.0706 11.7938 14.4548 12.3462C14.8944 12.9869 15.2463 13.6837 15.5013 14.4179C15.8078 15.3122 16.0214 16.2357 16.1385 17.1739C16.2082 17.6767 16.2548 18.2168 16.278 18.7894C16.2899 19.0424 16.2507 19.2952 16.1629 19.5327C16.075 19.7702 15.9402 19.9876 15.7666 20.1718C15.593 20.356 15.384 20.5034 15.1522 20.605C14.9204 20.7066 14.6707 20.7605 14.4177 20.7633C13.9299 20.7634 13.4615 20.5717 13.1135 20.2295C12.7655 19.8873 12.5659 19.4219 12.5573 18.9337C12.5573 18.6854 12.5434 18.448 12.5154 18.2214C12.4606 17.5476 12.3231 16.8831 12.1061 16.2428C11.8346 17.2339 11.4524 18.1912 10.9667 19.0967C10.6244 19.777 10.1216 20.3634 9.50171 20.8052C9.08035 21.1056 8.58841 21.2917 8.07387 21.3453C7.56391 21.3876 7.05566 21.2455 6.64137 20.9449C6.44212 20.8163 6.28139 20.6362 6.17628 20.4235C6.07369 20.2134 6.02124 19.9823 6.02288 19.7484C6.02418 19.5013 6.07152 19.2566 6.16243 19.0268C6.25901 18.7806 6.40096 18.5548 6.58096 18.3611L6.67396 18.268L6.76695 18.1795C6.76321 17.7046 6.68473 17.2333 6.53441 16.7829C6.40413 16.4038 6.21587 16.0473 5.97633 15.7261C5.75804 16.5427 5.45407 17.3339 5.06944 18.0864C4.75495 18.694 4.35559 19.2536 3.88345 19.7484C3.68428 19.9621 3.45376 20.1442 3.19979 20.2885C2.93035 20.4405 2.64059 20.5534 2.33934 20.6237C2.0342 20.6955 1.71751 20.7034 1.40917 20.6469C1.0917 20.5875 0.795243 20.4463 0.548831 20.2373C0.367129 20.0887 0.223535 19.8987 0.130187 19.6832C0.0367452 19.4624 -0.0106393 19.2248 -0.00924755 18.9849C-0.00981393 18.7339 0.0341826 18.4849 0.120876 18.2494C0.201021 18.0108 0.325721 17.7896 0.488311 17.5976ZM16.9524 2.46723C16.9302 2.1516 16.9808 1.83509 17.1001 1.5421C17.2194 1.24911 17.4044 0.987447 17.6407 0.777284C18.0846 0.40131 18.6498 0.199495 19.2312 0.209327C19.5246 0.207336 19.816 0.257789 20.0917 0.358307C20.3617 0.454961 20.611 0.60186 20.8264 0.791264C21.0436 0.982787 21.2139 1.22171 21.3241 1.48959C21.4547 1.79857 21.5182 2.13183 21.5102 2.46723V8.35178H21.9753C22.2879 8.34369 22.5981 8.4074 22.8822 8.53801C23.1157 8.6465 23.3222 8.80551 23.4868 9.00356C23.6431 9.19545 23.7586 9.41721 23.8263 9.65531C23.8938 9.88672 23.9283 10.1265 23.9286 10.3676C23.9282 10.6072 23.8938 10.8454 23.8263 11.0752C23.7572 11.3147 23.6384 11.5368 23.4775 11.727C23.3048 11.9223 23.0943 12.0807 22.8589 12.1926C22.5822 12.3203 22.2799 12.3824 21.9753 12.3741H21.5102V19.7577C21.5102 20.0571 21.4512 20.3535 21.3366 20.63C21.222 20.9065 21.0541 21.1577 20.8425 21.3691C20.6308 21.5806 20.3795 21.7482 20.103 21.8623C19.8266 21.9764 19.5303 22.0349 19.2312 22.0343C18.6276 22.0343 18.0487 21.7946 17.6215 21.3678C17.1943 20.941 16.9536 20.3619 16.9524 19.7577V2.46723Z" fill="white"/>
<path d="M44.0203 8.35178C44.2891 8.343 44.5562 8.39554 44.8016 8.50542C44.9961 8.597 45.1701 8.72683 45.3133 8.88718C45.4431 9.04179 45.5411 9.22055 45.6016 9.41322C45.6647 9.60548 45.6962 9.80676 45.6947 10.0091C45.6961 10.4195 45.562 10.8188 45.3133 11.1451C45.1552 11.3289 44.9551 11.4719 44.73 11.5619C44.5049 11.6518 44.2615 11.6861 44.0203 11.6618H25.6029C25.3625 11.6861 25.1198 11.6519 24.8954 11.5619C24.6711 11.4719 24.4718 11.3289 24.3147 11.1451C24.0643 10.8194 23.9287 10.42 23.9287 10.0091C23.9293 9.80693 23.9607 9.60598 24.0217 9.41322C24.0839 9.22028 24.1834 9.04153 24.3147 8.88718C24.457 8.72586 24.6312 8.59586 24.8263 8.50542C25.0701 8.39545 25.3357 8.34288 25.6029 8.35178H44.0203ZM27.5005 22.0622C27.0545 22.0717 26.6112 21.9893 26.1983 21.8201C25.84 21.6749 25.5213 21.4467 25.2681 21.1544C25.0259 20.8731 24.844 20.5451 24.7333 20.1907C24.6148 19.8174 24.5551 19.4278 24.5565 19.0361V18.971C24.5272 18.2308 24.7761 17.5066 25.2541 16.9412C25.7192 16.4166 26.4634 16.1528 27.4866 16.1497H39.9276V15.6842C39.9276 15.4374 39.7648 15.3118 39.4392 15.3118H26.1146C25.9288 15.325 25.7426 15.2939 25.5712 15.2211C25.3997 15.1482 25.2481 15.0357 25.1286 14.8927C24.9148 14.649 24.7945 14.3371 24.789 14.0129C24.7947 13.687 24.9058 13.3718 25.1054 13.1143C25.225 12.9645 25.3796 12.8466 25.5557 12.7711C25.7318 12.6956 25.9237 12.6648 26.1146 12.6814H42.1134C43.1087 12.6814 43.7878 12.8676 44.1599 13.2307C44.3578 13.4478 44.5094 13.7031 44.6053 13.9809C44.7013 14.2586 44.7396 14.5531 44.718 14.8462V17.4533C44.7186 17.6002 44.6902 17.7457 44.6343 17.8816C44.5784 18.0174 44.4962 18.1408 44.3924 18.2447C44.2887 18.3486 44.1653 18.4309 44.0296 18.4868C43.8939 18.5427 43.7486 18.5712 43.6018 18.5706H29.9981C29.9338 18.5639 29.8689 18.5722 29.8084 18.5948C29.7478 18.6174 29.6934 18.6537 29.6493 18.7009C29.5854 18.7939 29.5528 18.9048 29.5562 19.0175C29.552 19.1246 29.5849 19.2298 29.6493 19.3155C29.6953 19.3593 29.7503 19.3925 29.8106 19.4126C29.8709 19.4327 29.935 19.4393 29.9981 19.4319H43.6482C43.8316 19.4157 44.0161 19.4455 44.185 19.5187C44.3539 19.5918 44.5019 19.706 44.6157 19.8508C44.8072 20.1231 44.9081 20.4489 44.904 20.7819C44.8933 21.0924 44.7968 21.3938 44.625 21.6525C44.5196 21.8115 44.373 21.9387 44.201 22.0207C44.029 22.1027 43.8379 22.1364 43.6482 22.1181L27.5005 22.0622ZM28.1284 7.33223C27.6203 7.34067 27.113 7.28909 26.6169 7.17859C26.2538 7.08949 25.9183 6.91198 25.6402 6.66184C25.3718 6.40902 25.1787 6.08674 25.0821 5.73074C24.9541 5.248 24.8945 4.74963 24.9053 4.2503V2.67208C24.8963 2.32315 24.9647 1.97656 25.1054 1.65718C25.2255 1.38243 25.4087 1.13996 25.6402 0.949539C25.8679 0.757354 26.1321 0.613262 26.4168 0.525901C26.7182 0.433059 27.0317 0.385986 27.347 0.386242C27.9435 0.374381 28.525 0.57388 28.9888 0.949539C29.2277 1.16448 29.4137 1.4318 29.5323 1.73061C29.6509 2.02942 29.6988 2.35163 29.6724 2.67208V3.46352C29.6497 3.62791 29.6913 3.79474 29.7887 3.92907C29.9478 4.00535 30.1249 4.03597 30.3003 4.01752H42.9972C43.2633 3.98821 43.5325 4.01807 43.7858 4.10498C44.039 4.1919 44.27 4.33373 44.4621 4.52032C44.7395 4.84929 44.8883 5.26776 44.8808 5.69815C44.8937 6.12519 44.744 6.5412 44.4621 6.86202C44.2631 7.03641 44.0302 7.16778 43.7781 7.24789C43.526 7.328 43.2602 7.35512 42.9972 7.32757L28.1284 7.33223Z" fill="white"/>
<path d="M54.2291 0.144358C54.8732 0.108184 55.5055 0.32918 55.9871 0.758887C56.2056 0.988828 56.3749 1.26108 56.4844 1.55891C56.594 1.85673 56.6417 2.17381 56.6243 2.49072V2.70488H59.8799C60.1235 2.68738 60.3678 2.72662 60.5938 2.81951C60.8197 2.91239 61.0211 3.05642 61.1821 3.24027C61.4796 3.59925 61.6367 4.05426 61.624 4.52053C61.6302 4.9898 61.4648 5.44516 61.1589 5.80079C60.9971 5.98086 60.7967 6.12209 60.5729 6.21398C60.349 6.30586 60.1075 6.34602 59.866 6.3315H59.8194C59.9445 6.64615 60.0455 6.96987 60.1217 7.29985C60.2031 7.66344 60.2421 8.03527 60.2379 8.40786V15.6425C60.2595 16.5536 60.1014 17.4601 59.7728 18.3101C59.4944 19.0171 59.0623 19.6532 58.5078 20.1723C57.9574 20.6689 57.3073 21.042 56.6011 21.2663C55.8299 21.5121 55.0244 21.6331 54.2151 21.6248C53.4104 21.6335 52.6096 21.5124 51.8432 21.2663C51.1421 21.0396 50.497 20.6668 49.9503 20.1723C49.3941 19.6537 48.9604 19.0175 48.6806 18.3101C48.3543 17.4595 48.1963 16.5535 48.2156 15.6425V8.40786C48.2074 7.69626 48.3418 6.99023 48.6108 6.3315C48.37 6.34599 48.1291 6.3058 47.906 6.21389C47.6829 6.12198 47.4835 5.98076 47.3226 5.80079C47.0171 5.44494 46.8517 4.98973 46.8575 4.52053C46.8459 4.05601 46.9992 3.6024 47.29 3.24027C47.4477 3.0561 47.6466 2.91166 47.8704 2.81865C48.0942 2.72564 48.3367 2.68667 48.5783 2.70488H51.8339V2.47211C51.8149 2.15465 51.8622 1.83673 51.9727 1.53856C52.0832 1.24039 52.2545 0.968528 52.4757 0.740275C52.7145 0.530529 52.9924 0.369926 53.2932 0.267679C53.5941 0.165431 53.912 0.123529 54.2291 0.144358ZM54.2291 17.8352C54.4521 17.8356 54.6728 17.7894 54.877 17.6996C55.0812 17.6099 55.2644 17.4785 55.4151 17.3138C55.7939 16.8542 55.9776 16.2641 55.9267 15.6704V8.22163C55.956 7.93416 55.9271 7.64373 55.8415 7.36773C55.756 7.09174 55.6157 6.8359 55.429 6.61551C55.1045 6.3104 54.6742 6.14347 54.2291 6.14996C53.7925 6.14534 53.3716 6.31252 53.0571 6.61551C52.8686 6.83496 52.7269 7.09057 52.6406 7.36674C52.5542 7.6429 52.525 7.93379 52.5548 8.22163V15.6704C52.5038 16.2626 52.6838 16.8516 53.0571 17.3138C53.2043 17.479 53.3849 17.6109 53.587 17.7008C53.789 17.7907 54.0079 17.8366 54.2291 17.8352ZM63.0657 2.47211C63.044 2.15565 63.0957 1.83845 63.2167 1.5453C63.3377 1.25214 63.5248 0.990965 63.7633 0.782159C64.2134 0.407431 64.7824 0.206015 65.3678 0.214202C65.6612 0.212607 65.9525 0.26302 66.2283 0.363153C66.4983 0.459807 66.7477 0.606734 66.9632 0.796139C67.1805 0.990615 67.3547 1.22849 67.4747 1.49446C67.6107 1.80204 67.6775 2.13582 67.6701 2.47211V8.35666H68.4281C68.7333 8.34683 69.0364 8.41068 69.3117 8.54286C69.5308 8.65343 69.7218 8.81267 69.8699 9.00841C70.0112 9.20443 70.1138 9.42566 70.1722 9.66019C70.2345 9.89247 70.2657 10.132 70.2652 10.3725C70.2657 10.6114 70.2344 10.8494 70.1722 11.0801C70.1138 11.3146 70.0112 11.5359 69.8699 11.7319C69.7194 11.929 69.525 12.0883 69.3024 12.1974C69.0292 12.3255 68.7297 12.3877 68.4281 12.379H67.6608V19.7347C67.6614 20.0394 67.6015 20.3413 67.4846 20.6227C67.3676 20.9041 67.196 21.1594 66.9796 21.3739C66.7632 21.5883 66.5065 21.7575 66.2242 21.8717C65.9419 21.9859 65.6398 22.0428 65.3354 22.0391C64.7267 22.0331 64.1446 21.7884 63.7141 21.3575C63.2837 20.9266 63.0392 20.344 63.0331 19.7347L63.0657 2.47211Z" fill="white"/>
<path d="M74.7392 21.1312C74.1152 21.1469 73.4913 21.0938 72.8789 20.9729C72.471 20.8918 72.0958 20.6927 71.7998 20.4003C71.5236 20.0881 71.3414 19.7039 71.2744 19.2923C71.1708 18.7007 71.1241 18.1005 71.1348 17.4999V4.63217C71.1241 4.03008 71.1708 3.42835 71.2744 2.83515C71.3413 2.42486 71.5235 2.04212 71.7998 1.73177C72.0947 1.44052 72.471 1.24574 72.8789 1.17314C73.4921 1.05847 74.1156 1.00853 74.7392 1.02416H82.134C82.4283 1.01351 82.7207 1.07589 82.9852 1.20573C83.1943 1.32128 83.3766 1.47996 83.52 1.67128C83.651 1.86339 83.7456 2.07801 83.799 2.30442C83.8495 2.52437 83.876 2.74915 83.8781 2.97481C83.8769 3.20976 83.8505 3.44389 83.799 3.67314C83.7448 3.90173 83.6451 4.11705 83.506 4.30628C83.3579 4.49672 83.1729 4.6551 82.9619 4.77182C82.705 4.89956 82.4207 4.96193 82.134 4.9534H76.3344C76.1665 4.93899 75.9996 4.99077 75.8693 5.09772C75.7575 5.25061 75.7076 5.44024 75.7298 5.62845V16.5689C75.708 16.7599 75.7577 16.9523 75.8693 17.1089C76.0015 17.212 76.1674 17.2619 76.3344 17.2485H83.1944C83.4887 17.2385 83.781 17.3008 84.0456 17.4301C84.2547 17.5457 84.437 17.7043 84.5804 17.8957C84.7121 18.0874 84.8068 18.3022 84.8595 18.5288C84.9102 18.7503 84.9367 18.9766 84.9385 19.2039C84.938 19.4342 84.9115 19.6638 84.8595 19.8882C84.8033 20.1118 84.7036 20.3222 84.5664 20.5074C84.4218 20.7011 84.2359 20.8601 84.0223 20.9729C83.7639 21.0953 83.4801 21.1544 83.1944 21.1452L74.7392 21.1312ZM86.2965 2.47201C86.2748 2.15556 86.3265 1.83836 86.4475 1.5452C86.5685 1.25205 86.7556 0.99087 86.9941 0.782064C87.4442 0.407336 88.0134 0.20592 88.5987 0.214107C88.8921 0.212512 89.1833 0.262925 89.4591 0.363058C89.7291 0.459713 89.9785 0.606639 90.194 0.796044C90.4113 0.99052 90.5855 1.2284 90.7055 1.49437C90.8415 1.80194 90.9083 2.13572 90.9009 2.47201V8.35656H91.6822C91.9874 8.34673 92.2905 8.41059 92.5658 8.54276C92.7849 8.65333 92.9759 8.81257 93.124 9.00831C93.2653 9.20434 93.3678 9.42556 93.4263 9.66009C93.4886 9.89237 93.5198 10.1319 93.5193 10.3724C93.5198 10.6113 93.4885 10.8493 93.4263 11.08C93.3678 11.3145 93.2653 11.5358 93.124 11.7318C92.9735 11.9289 92.7791 12.0882 92.5565 12.1973C92.2832 12.3254 91.9838 12.3876 91.6822 12.3789H90.9149V19.7346C90.9155 20.0393 90.8556 20.3412 90.7386 20.6226C90.6217 20.904 90.4501 21.1593 90.2337 21.3738C90.0173 21.5882 89.7606 21.7574 89.4783 21.8716C89.196 21.9858 88.8939 22.0427 88.5894 22.039C87.9807 22.033 87.3987 21.7883 86.9682 21.3574C86.5378 20.9265 86.2932 20.3439 86.2872 19.7346L86.2965 2.47201Z" fill="white"/>
<path d="M93.854 18.4313C93.8381 18.1148 93.8877 17.7984 93.9998 17.5019C94.1118 17.2055 94.2839 16.9355 94.5052 16.7088C95.0117 16.267 95.6717 16.0428 96.3422 16.0849C96.6755 16.0631 97.0097 16.1084 97.3252 16.2179C97.6407 16.3274 97.9311 16.4991 98.1793 16.7227C98.3999 16.947 98.5717 17.2146 98.6838 17.5087C98.7958 17.8028 98.8458 18.1169 98.8305 18.4313C98.8507 18.7485 98.8043 19.0663 98.6946 19.3646C98.5848 19.6628 98.4141 19.9348 98.1933 20.1631C97.9451 20.3868 97.6547 20.5584 97.3392 20.668C97.0237 20.7775 96.6894 20.8227 96.3562 20.8009C95.6857 20.843 95.0257 20.6189 94.5191 20.1771C94.2938 19.9479 94.1183 19.6744 94.0039 19.3739C93.8894 19.0734 93.8383 18.7525 93.854 18.4313Z" fill="white"/>
<path d="M100.644 18.4313C100.628 18.1148 100.678 17.7984 100.79 17.502C100.902 17.2056 101.074 16.9355 101.295 16.7088C101.802 16.267 102.462 16.0429 103.132 16.085C103.469 16.06 103.808 16.1036 104.128 16.2132C104.447 16.3229 104.742 16.4962 104.993 16.7228C105.212 16.9477 105.383 17.2154 105.495 17.5093C105.607 17.8033 105.658 18.1171 105.644 18.4313C105.658 18.7463 105.608 19.061 105.496 19.3557C105.384 19.6504 105.213 19.9189 104.993 20.1445C104.742 20.3711 104.447 20.5444 104.128 20.6541C103.808 20.7637 103.469 20.8073 103.132 20.7823C102.462 20.8244 101.802 20.6003 101.295 20.1585C101.075 19.9303 100.903 19.6593 100.791 19.3623C100.679 19.0653 100.629 18.7485 100.644 18.4313Z" fill="white"/>
<path d="M107.435 18.4313C107.419 18.1148 107.468 17.7984 107.58 17.502C107.692 17.2056 107.864 16.9355 108.086 16.7088C108.592 16.267 109.252 16.0429 109.923 16.085C110.26 16.06 110.598 16.1036 110.918 16.2132C111.238 16.3229 111.532 16.4962 111.783 16.7228C112.003 16.9477 112.174 17.2154 112.286 17.5093C112.398 17.8033 112.448 18.1171 112.434 18.4313C112.449 18.7463 112.398 19.061 112.286 19.3557C112.174 19.6504 112.003 19.9189 111.783 20.1445C111.532 20.3711 111.238 20.5444 110.918 20.6541C110.598 20.7637 110.26 20.8073 109.923 20.7823C109.252 20.8244 108.592 20.6003 108.086 20.1585C107.865 19.9303 107.694 19.6593 107.582 19.3623C107.47 19.0653 107.42 18.7485 107.435 18.4313Z" fill="white"/>
<path d="M120.294 17.2674C121.163 17.17 122.018 16.9748 122.843 16.6855C123.607 16.421 124.299 15.9827 124.866 15.4052C125.474 14.7586 125.93 13.9839 126.201 13.138C126.557 11.9887 126.722 10.7887 126.689 9.58588V5.70319C126.694 5.54831 126.641 5.39715 126.54 5.27955C126.483 5.22437 126.415 5.18176 126.341 5.1545C126.266 5.12723 126.187 5.11591 126.108 5.12125H120.806C120.497 5.13152 120.19 5.066 119.913 4.93039C119.681 4.81868 119.475 4.66016 119.308 4.46484C119.147 4.2746 119.028 4.05249 118.959 3.81306C118.89 3.58185 118.854 3.34204 118.852 3.10076C118.854 2.861 118.89 2.62277 118.959 2.39314C119.024 2.15913 119.139 1.9417 119.294 1.75534C119.459 1.55751 119.665 1.39855 119.899 1.28979C120.182 1.15529 120.493 1.08986 120.806 1.0989H127.642C128.957 1.0989 129.887 1.39532 130.433 1.98811C131.029 2.68275 131.33 3.58356 131.27 4.4974V9.61845C131.315 11.3971 131.047 13.1698 130.479 14.8559C130.022 16.1754 129.271 17.3739 128.284 18.3615C127.339 19.2722 126.203 19.9608 124.959 20.3773C123.606 20.8247 122.197 21.0817 120.773 21.1408C120.495 21.1588 120.217 21.1273 119.95 21.0477C119.686 20.9769 119.44 20.8498 119.229 20.6753C119.017 20.5022 118.845 20.2845 118.727 20.0375C118.596 19.7563 118.533 19.4488 118.541 19.1389C118.525 18.6875 118.674 18.2457 118.959 17.8959C119.305 17.5199 119.784 17.2943 120.294 17.2674ZM134.107 2.46762C134.085 2.15116 134.137 1.83396 134.258 1.54081C134.379 1.24765 134.566 0.986476 134.805 0.777669C135.255 0.402941 135.824 0.201526 136.409 0.209713C136.703 0.208117 136.994 0.258559 137.27 0.358692C137.54 0.455347 137.789 0.602245 138.005 0.791649C138.222 0.986126 138.396 1.224 138.516 1.48997C138.652 1.79755 138.719 2.13133 138.711 2.46762V8.35217H139.479C139.784 8.34234 140.087 8.40622 140.362 8.5384C140.581 8.64897 140.772 8.80821 140.921 9.00395C141.062 9.19997 141.164 9.42117 141.223 9.6557C141.283 9.88842 141.314 10.1277 141.316 10.368C141.314 10.6068 141.283 10.8445 141.223 11.0756C141.164 11.3101 141.062 11.5314 140.921 11.7274C140.77 11.9245 140.576 12.0839 140.353 12.1929C140.08 12.3206 139.78 12.3827 139.479 12.3745H138.711V19.7302C138.712 20.033 138.653 20.3329 138.537 20.6128C138.422 20.8927 138.252 21.147 138.038 21.3611C137.825 21.5752 137.571 21.7449 137.291 21.8605C137.011 21.9761 136.712 22.0353 136.409 22.0347C135.796 22.0347 135.209 21.7926 134.773 21.3611C134.338 20.9296 134.09 20.3435 134.084 19.7302L134.107 2.46762Z" fill="white"/>
<path d="M161.445 9.60893C161.732 9.60153 162.017 9.65382 162.282 9.76254C162.5 9.85438 162.695 9.99261 162.854 10.1676C162.997 10.3345 163.103 10.5296 163.166 10.7402C163.226 10.9474 163.258 11.1621 163.259 11.378C163.262 11.819 163.114 12.2479 162.84 12.5931C162.664 12.7835 162.447 12.9306 162.205 13.0227C161.963 13.1148 161.703 13.1494 161.445 13.1238H143.307C143.049 13.1494 142.789 13.1148 142.547 13.0227C142.304 12.9306 142.087 12.7835 141.911 12.5931C141.637 12.2479 141.489 11.819 141.493 11.378C141.494 11.1621 141.525 10.9474 141.586 10.7402C141.648 10.5285 141.756 10.3331 141.902 10.1676C142.058 9.99167 142.252 9.85321 142.469 9.76254C142.735 9.65382 143.02 9.60153 143.307 9.60893H161.445ZM154.562 2.39291C154.562 2.44412 154.562 2.48602 154.562 2.53723C154.557 2.58366 154.557 2.63046 154.562 2.67689C155.457 2.64334 156.353 2.72945 157.226 2.93294C158.088 3.1282 158.908 3.47839 159.645 3.96647C160.399 4.47526 161.047 5.12684 161.552 5.88453V5.91246C161.737 6.19612 161.842 6.52508 161.854 6.86388C161.867 7.20268 161.787 7.53844 161.623 7.83498C161.458 8.13153 161.216 8.3776 160.923 8.54664C160.629 8.71567 160.295 8.80128 159.957 8.79421H159.054C158.743 8.78983 158.438 8.70844 158.167 8.55735C157.895 8.40625 157.664 8.19012 157.496 7.92827C157.381 7.75279 157.25 7.58768 157.106 7.43479C156.754 7.05803 156.332 6.7543 155.864 6.54094C155.371 6.31825 154.844 6.17977 154.306 6.13126C153.719 6.07701 153.127 6.10366 152.548 6.21042C152.012 6.67797 151.424 7.08107 150.794 7.41152C150.124 7.76547 149.424 8.0584 148.702 8.28675C147.961 8.51208 147.201 8.66794 146.432 8.7523C145.668 8.84654 144.898 8.87149 144.13 8.82681C143.552 8.82793 142.997 8.60033 142.586 8.19364C142.429 8.02512 142.308 7.82733 142.228 7.61162C142.148 7.3959 142.112 7.16654 142.121 6.93668C142.139 6.4453 142.338 5.97797 142.679 5.62382C142.884 5.41628 143.131 5.25556 143.404 5.15271C143.677 5.04985 143.969 5.00728 144.26 5.02791C144.848 5.02576 145.434 4.95231 146.004 4.80911C146.592 4.66647 147.162 4.45553 147.702 4.1806C148.209 3.92511 148.672 3.59037 149.074 3.18898C149.443 2.83222 149.708 2.38162 149.841 1.88545C149.899 1.5713 150.022 1.2728 150.203 1.00905C150.383 0.745302 150.616 0.522127 150.887 0.353803C151.412 0.0419909 152.027 -0.0811893 152.632 0.0046413C153.188 0.051736 153.71 0.290291 154.11 0.679693C154.305 0.915745 154.447 1.19078 154.526 1.48631C154.606 1.78184 154.621 2.091 154.571 2.39291H154.562ZM145.748 22.0624C145.177 22.077 144.607 22.0191 144.051 21.8901C143.667 21.8017 143.316 21.6045 143.041 21.3221C142.79 21.0154 142.629 20.6446 142.576 20.2514C142.48 19.6887 142.436 19.1183 142.446 18.5475V17.756C142.437 17.196 142.48 16.6364 142.576 16.0847C142.629 15.6873 142.79 15.3121 143.041 15C143.311 14.7112 143.664 14.5129 144.051 14.432C144.608 14.3072 145.178 14.2509 145.748 14.2644H158.98C159.55 14.2509 160.121 14.3072 160.678 14.432C161.065 14.514 161.419 14.7121 161.691 15C161.939 15.3142 162.1 15.6884 162.156 16.0847C162.248 16.6369 162.29 17.1963 162.282 17.756V20.3678C162.282 20.5907 162.238 20.8114 162.153 21.0173C162.067 21.2232 161.942 21.4103 161.784 21.5677C161.627 21.7251 161.44 21.8498 161.234 21.9347C161.028 22.0196 160.807 22.063 160.584 22.0624H145.748ZM147.074 18.3147C147.062 18.489 147.099 18.6632 147.181 18.8175C147.25 18.9199 147.399 18.9711 147.646 18.9711H157.259C157.37 18.9711 157.477 18.927 157.555 18.8484C157.634 18.7698 157.678 18.6632 157.678 18.5521V17.9888C157.689 17.8252 157.648 17.6623 157.561 17.5232C157.5 17.465 157.426 17.4214 157.346 17.3956C157.265 17.3698 157.18 17.3626 157.096 17.3743H147.632C147.399 17.3743 147.25 17.4208 147.167 17.5232C147.087 17.665 147.05 17.8266 147.06 17.9888L147.074 18.3147Z" fill="white"/>
<path d="M177.058 12.6349H175.43V15.8285C175.43 17.6907 175.004 19.1014 174.151 20.0604C173.3 20.9915 172.044 21.4803 170.384 21.4803C168.723 21.4803 167.454 21.0148 166.57 20.0604C165.687 19.106 165.245 17.7047 165.245 15.8285V6.40117C165.245 4.53897 165.687 3.10974 166.57 2.16002C167.454 1.2103 168.723 0.740101 170.384 0.740101C172.044 0.740101 173.3 1.20564 174.151 2.16002C175.002 3.1144 175.43 4.52035 175.43 6.40117V8.88721H177.058V2.18795C177.039 1.91224 177.083 1.63588 177.186 1.37952C177.289 1.12317 177.449 0.893449 177.653 0.707509C178.042 0.376748 178.538 0.199594 179.048 0.209368C179.558 0.202141 180.053 0.378986 180.444 0.707509C180.651 0.891471 180.813 1.12063 180.918 1.3773C181.023 1.63398 181.067 1.91132 181.048 2.18795V20.0604C181.049 20.3234 180.998 20.584 180.897 20.8272C180.797 21.0703 180.65 21.2913 180.464 21.4773C180.278 21.6633 180.057 21.8107 179.814 21.9111C179.571 22.0115 179.311 22.0629 179.048 22.0622C178.518 22.0622 178.009 21.8513 177.634 21.4759C177.259 21.1005 177.049 20.5913 177.049 20.0604L177.058 12.6349ZM170.384 17.9235C170.629 17.9182 170.865 17.8258 171.049 17.6628C171.173 17.5207 171.265 17.3536 171.318 17.1729C171.372 16.9922 171.387 16.8021 171.361 16.6153V5.60973C171.384 5.42449 171.368 5.23641 171.315 5.0576C171.261 4.87878 171.17 4.71321 171.049 4.57156C170.867 4.40546 170.63 4.31117 170.384 4.3062C170.139 4.31145 169.904 4.40577 169.723 4.57156C169.601 4.71283 169.51 4.87823 169.455 5.05706C169.401 5.23589 169.384 5.42416 169.407 5.60973V16.6153C169.382 16.8024 169.397 16.9928 169.452 17.1735C169.506 17.3542 169.599 17.5211 169.723 17.6628C169.906 17.8255 170.14 17.9179 170.384 17.9235ZM182.15 2.18795C182.132 1.91004 182.178 1.63153 182.285 1.37455C182.392 1.11757 182.558 0.889191 182.769 0.707509C183.17 0.376368 183.677 0.199696 184.197 0.209368C184.458 0.208726 184.717 0.251176 184.964 0.335047C185.209 0.418352 185.435 0.549719 185.629 0.721461C185.824 0.892682 185.982 1.10175 186.094 1.33599C186.215 1.60336 186.274 1.89461 186.267 2.18795V20.0604C186.267 20.3234 186.216 20.584 186.115 20.8272C186.015 21.0703 185.868 21.2913 185.682 21.4773C185.496 21.6633 185.276 21.8107 185.033 21.9111C184.79 22.0115 184.529 22.0629 184.267 22.0622H184.15C183.62 22.0622 183.111 21.8513 182.736 21.4759C182.361 21.1005 182.15 20.5913 182.15 20.0604V2.18795Z" fill="white"/>
<path d="M197.173 21.066C196.608 21.0797 196.045 21.0154 195.498 20.8751C195.107 20.7771 194.752 20.5687 194.475 20.2745C194.213 19.9628 194.033 19.5896 193.954 19.1898C193.843 18.6587 193.792 18.1169 193.801 17.5743V3.28197C193.769 2.95703 193.811 2.6291 193.924 2.32274C194.037 2.01638 194.217 1.73953 194.452 1.51289C194.928 1.13894 195.522 0.947446 196.126 0.972861C196.715 0.947854 197.292 1.14374 197.745 1.52221C197.967 1.75436 198.137 2.03165 198.243 2.33527C198.349 2.63889 198.388 2.96174 198.359 3.28197V6.83877H202.544V3.28197C202.512 2.959 202.552 2.63292 202.66 2.32709C202.769 2.02125 202.944 1.74322 203.172 1.51289C203.631 1.13989 204.21 0.947801 204.8 0.972861C205.396 0.945153 205.982 1.14102 206.442 1.52221C206.664 1.75436 206.834 2.03165 206.94 2.33527C207.046 2.63889 207.085 2.96174 207.056 3.28197V18.0539C207.056 18.8519 206.739 19.6173 206.176 20.1821C205.613 20.7468 204.849 21.0647 204.051 21.066H197.173ZM202.544 17.2252V10.633H198.359V16.6153C198.359 16.8807 198.4 17.0483 198.489 17.1181C198.647 17.2071 198.829 17.2445 199.01 17.2252H202.544ZM213.334 22.0622C212.051 22.0622 209.614 21.0241 209.614 19.7345V2.50917C209.591 2.18851 209.642 1.86693 209.763 1.56915C209.884 1.27136 210.072 1.00527 210.311 0.79129C210.765 0.405876 211.344 0.199024 211.939 0.209353C212.534 0.199024 213.113 0.405876 213.567 0.79129C213.807 1.00527 213.994 1.27136 214.115 1.56915C214.236 1.86693 214.287 2.18851 214.265 2.50917V19.7345C214.265 21.0241 214.618 22.0622 213.334 22.0622Z" fill="white"/>
<path d="M229.635 17.1975V19.8046C229.635 21.1174 229.97 22.1789 228.659 22.1789C227.347 22.1789 224.891 21.1174 224.891 19.8046V17.1975H218.334C218.056 17.2254 217.776 17.1873 217.515 17.0862C217.255 16.985 217.022 16.8238 216.836 16.6156C216.535 16.2478 216.371 15.7873 216.371 15.312C216.372 15.0798 216.408 14.849 216.478 14.6277C216.549 14.4018 216.663 14.1917 216.813 14.0085C216.978 13.8165 217.185 13.6652 217.418 13.5662C217.713 13.4491 218.03 13.3951 218.348 13.4079H236.207C236.525 13.3951 236.841 13.4491 237.137 13.5662C237.37 13.6652 237.577 13.8165 237.742 14.0085C237.893 14.1913 238.009 14.4015 238.081 14.6277C238.15 14.8492 238.184 15.08 238.184 15.312C238.184 15.7873 238.02 16.248 237.718 16.6156C237.531 16.8236 237.298 16.9846 237.037 17.0857C236.776 17.1868 236.495 17.2251 236.216 17.1975H229.635ZM229.542 2.76546C229.542 3.0122 229.505 3.23102 229.473 3.47311C229.44 3.71519 229.403 3.93865 229.356 4.16211C230.352 4.17584 231.338 4.35196 232.277 4.68352C233.227 5.01601 234.104 5.52985 234.858 6.19656C235.66 6.91831 236.311 7.79169 236.774 8.7664C236.849 8.91538 236.918 9.07056 236.984 9.23195C237.122 9.5924 237.171 9.98134 237.125 10.3649C237.08 10.7485 236.941 11.115 236.721 11.4327C236.501 11.7503 236.208 12.0093 235.865 12.1873C235.523 12.3652 235.142 12.4566 234.756 12.4535C234.286 12.4504 233.827 12.3088 233.436 12.0464C233.046 11.7839 232.741 11.4123 232.561 10.9778C232.492 10.8195 232.418 10.6643 232.337 10.5122C232.043 9.96012 231.649 9.46759 231.175 9.0597C230.709 8.66345 230.173 8.36002 229.593 8.16582C228.98 7.95802 228.334 7.86185 227.687 7.88184C227.158 8.58336 226.555 9.22497 225.887 9.79525C225.223 10.3617 224.497 10.8521 223.724 11.2571C222.967 11.6587 222.167 11.9712 221.338 12.1882C220.55 12.4017 219.737 12.5113 218.92 12.5141C218.39 12.5317 217.869 12.3675 217.445 12.0485C217.24 11.8896 217.072 11.6877 216.953 11.4568C216.834 11.226 216.767 10.9719 216.757 10.7124C216.7 10.1955 216.837 9.67578 217.143 9.25522C217.469 8.83014 217.948 8.54946 218.478 8.4731C219.239 8.33431 219.978 8.0964 220.678 7.76546C221.373 7.43819 222.015 7.00991 222.585 6.49452C223.155 5.97517 223.637 5.36671 224.012 4.69284C224.406 3.98124 224.666 3.2033 224.78 2.39769C224.808 2.07728 224.903 1.76623 225.057 1.48418C225.212 1.20213 225.423 0.95519 225.677 0.758945C226.173 0.405492 226.778 0.24043 227.384 0.293395C227.995 0.325185 228.573 0.584179 229.003 1.01965C229.209 1.25811 229.363 1.53684 229.456 1.83817C229.549 2.1395 229.578 2.45686 229.542 2.77012V2.76546Z" fill="white"/>
<path d="M241.681 17.2674C242.55 17.17 243.405 16.9748 244.23 16.6855C244.994 16.421 245.687 15.9827 246.253 15.4053C246.861 14.7586 247.317 13.9839 247.588 13.138C247.944 11.9887 248.109 10.7887 248.076 9.58589V5.70319C248.081 5.54831 248.028 5.39715 247.927 5.27955C247.87 5.22437 247.802 5.18176 247.728 5.1545C247.653 5.12723 247.574 5.11591 247.495 5.12125H242.193C241.884 5.13152 241.577 5.066 241.3 4.93039C241.068 4.81868 240.862 4.66016 240.695 4.46484C240.534 4.2746 240.416 4.05249 240.346 3.81306C240.277 3.58185 240.241 3.34204 240.239 3.10076C240.242 2.861 240.278 2.62278 240.346 2.39314C240.411 2.15913 240.526 1.9417 240.681 1.75534C240.846 1.55751 241.053 1.39855 241.286 1.28979C241.569 1.15529 241.88 1.08986 242.193 1.0989H249.03C250.344 1.0989 251.274 1.39532 251.82 1.98811C252.416 2.68276 252.717 3.58356 252.657 4.49741V9.61845C252.702 11.3971 252.434 13.1698 251.867 14.8559C251.409 16.1754 250.658 17.3739 249.671 18.3615C248.726 19.2722 247.59 19.9608 246.346 20.3773C244.993 20.8247 243.584 21.0817 242.16 21.1408C241.883 21.1588 241.604 21.1273 241.337 21.0477C241.073 20.9769 240.827 20.8499 240.616 20.6753C240.404 20.5022 240.232 20.2845 240.114 20.0375C239.984 19.7563 239.92 19.4488 239.928 19.1389C239.912 18.6875 240.061 18.2457 240.346 17.8959C240.692 17.5199 241.171 17.2943 241.681 17.2674ZM255.494 2.46762C255.473 2.15116 255.524 1.83396 255.645 1.54081C255.766 1.24765 255.953 0.986476 256.192 0.777669C256.642 0.402941 257.211 0.201526 257.796 0.209713C258.09 0.208117 258.381 0.258559 258.657 0.358692C258.927 0.455347 259.176 0.602245 259.392 0.79165C259.609 0.986126 259.783 1.224 259.903 1.48997C260.039 1.79755 260.106 2.13133 260.099 2.46762V8.35217H260.866C261.171 8.34234 261.474 8.40622 261.75 8.5384C261.969 8.64897 262.16 8.80821 262.308 9.00395C262.449 9.19997 262.552 9.42117 262.61 9.6557C262.67 9.88842 262.701 10.1277 262.703 10.368C262.701 10.6068 262.67 10.8445 262.61 11.0756C262.552 11.3102 262.449 11.5314 262.308 11.7274C262.157 11.9245 261.963 12.0839 261.74 12.193C261.467 12.3206 261.168 12.3827 260.866 12.3745H260.099V19.7302C260.099 21.0058 260.466 22.0347 259.192 22.0347C257.922 22.0347 255.471 21.0058 255.471 19.7302L255.494 2.46762Z" fill="white"/>
<path d="M271.54 10.9404C270.655 11.0076 269.775 10.764 269.052 10.2514C268.506 9.79511 268.235 8.99902 268.238 7.86308V2.93756C268.209 2.61788 268.253 2.29579 268.369 1.99626C268.484 1.69674 268.667 1.42781 268.903 1.21037C269.37 0.847774 269.949 0.660061 270.54 0.679661C271.128 0.658674 271.705 0.846655 272.168 1.21037C272.4 1.4302 272.579 1.69987 272.691 1.99905C272.804 2.29823 272.848 2.61912 272.819 2.93756V6.77835C272.819 7.03905 272.856 7.20665 272.935 7.27649C273.09 7.3643 273.269 7.40017 273.447 7.37889H280.167C280.438 7.34802 280.713 7.38073 280.97 7.47445C281.227 7.56817 281.458 7.72035 281.646 7.91895C281.918 8.27898 282.06 8.72017 282.051 9.17128C282.065 9.6268 281.917 10.0725 281.632 10.4283C281.442 10.619 281.212 10.7645 280.958 10.8539C280.705 10.9434 280.434 10.9745 280.167 10.945L271.54 10.9404ZM273.679 22.0623C273.19 22.0727 272.704 21.9824 272.251 21.797C271.837 21.6201 270.098 21.3873 269.819 21.0986C269.537 20.8091 269.32 20.4632 269.182 20.0837C269.033 19.6991 268.958 19.2903 268.958 18.878V18.594C268.941 18.2135 269.01 17.8341 269.159 17.4836C269.308 17.1331 269.533 16.8205 269.819 16.5689C270.524 16.0323 271.4 15.7694 272.284 15.8286H283.492V15.1955C283.501 15.0942 283.477 14.9929 283.423 14.9068C283.381 14.873 283.332 14.8481 283.28 14.8336C283.228 14.8192 283.174 14.8156 283.12 14.8231H270.516C270.328 14.8423 270.138 14.814 269.963 14.7408C269.789 14.6676 269.635 14.5518 269.517 14.404C269.321 14.133 269.215 13.8073 269.214 13.4729C269.217 13.1367 269.328 12.8103 269.53 12.5418C269.646 12.3933 269.796 12.2759 269.969 12.2003C270.141 12.1247 270.329 12.0933 270.516 12.1089H285.353C286.39 12.1089 287.129 12.2904 287.562 12.6443C287.994 12.9981 288.213 13.6499 288.213 14.581V17.351C288.213 17.4822 288.187 17.6121 288.137 17.7333C288.086 17.8545 288.013 17.9645 287.92 18.0571C287.827 18.1497 287.717 18.223 287.595 18.2727C287.474 18.3225 287.344 18.3479 287.213 18.3472H274.377C274.308 18.3423 274.238 18.3512 274.173 18.3736C274.107 18.396 274.047 18.4314 273.995 18.4776C273.953 18.5182 273.919 18.5674 273.896 18.622C273.874 18.6765 273.863 18.7352 273.865 18.7942V18.8594C273.863 18.9183 273.874 18.977 273.896 19.0316C273.919 19.0861 273.953 19.1353 273.995 19.1759C274.047 19.2213 274.108 19.2558 274.173 19.2774C274.239 19.299 274.308 19.3072 274.377 19.3016H287.018C287.214 19.2838 287.411 19.3149 287.592 19.3921C287.773 19.4693 287.932 19.5901 288.055 19.7439C288.259 20.0287 288.368 20.3709 288.366 20.7216C288.366 21.0661 289.659 21.378 289.459 21.6527C289.335 21.8059 289.173 21.9254 288.991 22.0002C288.808 22.0751 288.609 22.1028 288.413 22.0809L273.679 22.0623ZM283.446 2.50927C283.423 2.18942 283.473 1.86852 283.592 1.57089C283.711 1.27326 283.897 1.0067 284.134 0.791388C284.582 0.405012 285.157 0.197784 285.748 0.209452C286.337 0.203097 286.908 0.413473 287.353 0.80068C287.59 1.01454 287.776 1.27926 287.897 1.5751C288.017 1.87094 288.07 2.19028 288.05 2.50927V3.93385H288.771C289.075 3.92212 289.377 3.98108 289.655 4.1061C289.876 4.21258 290.068 4.37256 290.213 4.57165C290.352 4.76532 290.455 4.98313 290.515 5.21411C290.575 5.44202 290.607 5.67666 290.608 5.91243C290.606 6.15124 290.575 6.3889 290.515 6.62005C290.458 6.8509 290.356 7.0679 290.213 7.25787C290.065 7.45761 289.87 7.61757 289.645 7.72342C289.37 7.84563 289.072 7.9045 288.771 7.89567H288.05V9.11075C288.05 9.7241 287.808 10.3127 287.377 10.7485C286.946 11.1844 286.361 11.4324 285.748 11.4385C285.135 11.4324 284.55 11.1844 284.119 10.7485C283.688 10.3127 283.446 9.7241 283.446 9.11075V2.50927Z" fill="white"/>
<path d="M293.096 10.8521C293.09 9.9921 293.248 9.13884 293.561 8.33809C293.872 7.54244 294.335 6.81506 294.924 6.19658C295.54 5.56175 296.275 5.0554 297.087 4.70681C297.991 4.32536 298.966 4.13669 299.947 4.15281H303.365C304.347 4.13669 305.321 4.32536 306.226 4.70681C307.044 5.05658 307.786 5.5626 308.412 6.19658C309.003 6.81484 309.469 7.54212 309.784 8.33809C310.095 9.13943 310.253 9.99229 310.249 10.8521V11.3642C310.254 12.224 310.096 13.0771 309.784 13.8781C309.471 14.6753 309.005 15.403 308.412 16.0197C307.792 16.6556 307.052 17.162 306.235 17.5094C305.331 17.8925 304.356 18.0827 303.375 18.0681H299.956C298.975 18.0827 298 17.8925 297.096 17.5094C296.282 17.1642 295.546 16.6574 294.933 16.0197C294.344 15.4023 293.883 14.6746 293.575 13.8781C293.261 13.0776 293.103 12.2242 293.11 11.3642L293.096 10.8521ZM305.421 10.7822C305.422 10.4051 305.343 10.0322 305.189 9.6882C305.035 9.34893 304.813 9.04475 304.537 8.79435C304.249 8.53366 303.914 8.32849 303.551 8.18914C303.146 8.0358 302.715 7.95998 302.282 7.96566H301.049C300.617 7.95957 300.188 8.03541 299.784 8.18914C299.422 8.32516 299.091 8.53076 298.808 8.79435C298.537 9.04674 298.318 9.35058 298.166 9.6882C298.011 10.0322 297.932 10.4051 297.933 10.7822V11.4573C297.931 11.8315 298.01 12.2017 298.166 12.542C298.319 12.8763 298.538 13.1769 298.808 13.4266C299.091 13.6902 299.422 13.8958 299.784 14.0318C300.188 14.1839 300.618 14.2582 301.049 14.2506H302.282C302.715 14.2577 303.146 14.1835 303.551 14.0318C303.914 13.8924 304.249 13.6873 304.537 13.4266C304.812 13.1787 305.033 12.8778 305.189 12.542C305.344 12.2017 305.424 11.8315 305.421 11.4573V10.7822Z" fill="white"/>
<path d="M314.211 18.431C314.195 18.1144 314.245 17.798 314.357 17.5016C314.469 17.2052 314.641 16.9351 314.862 16.7084C315.116 16.4868 315.411 16.3176 315.73 16.2105C316.049 16.1034 316.387 16.0606 316.722 16.0846C317.056 16.0628 317.39 16.108 317.705 16.2176C318.021 16.3271 318.311 16.4987 318.559 16.7224C318.779 16.9473 318.95 17.215 319.062 17.509C319.174 17.8029 319.225 18.1167 319.211 18.431C319.225 18.7459 319.175 19.0606 319.063 19.3553C318.951 19.65 318.78 19.9185 318.559 20.1442C318.311 20.3678 318.021 20.5395 317.705 20.649C317.39 20.7585 317.056 20.8038 316.722 20.782C316.387 20.8059 316.049 20.7631 315.73 20.6561C315.411 20.549 315.116 20.3798 314.862 20.1581C314.642 19.9299 314.47 19.659 314.358 19.3619C314.246 19.0649 314.196 18.7481 314.211 18.431Z" fill="white"/>
<path d="M321.001 18.431C320.986 18.1144 321.035 17.798 321.147 17.5016C321.259 17.2052 321.431 16.9351 321.653 16.7084C321.906 16.4868 322.201 16.3176 322.52 16.2105C322.84 16.1034 323.177 16.0606 323.513 16.0846C323.846 16.0628 324.18 16.108 324.496 16.2176C324.811 16.3271 325.102 16.4987 325.35 16.7224C325.57 16.9473 325.741 17.215 325.853 17.509C325.965 17.8029 326.015 18.1167 326.001 18.431C326.016 18.7459 325.965 19.0606 325.853 19.3553C325.741 19.65 325.57 19.9185 325.35 20.1442C325.102 20.3678 324.811 20.5395 324.496 20.649C324.18 20.7585 323.846 20.8038 323.513 20.782C323.177 20.8059 322.84 20.7631 322.52 20.6561C322.201 20.549 321.906 20.3798 321.653 20.1581C321.432 19.9299 321.261 19.659 321.149 19.3619C321.037 19.0649 320.987 18.7481 321.001 18.431Z" fill="white"/>
<path d="M327.791 18.4313C327.776 18.1148 327.825 17.7984 327.937 17.5019C328.049 17.2055 328.221 16.9355 328.443 16.7088C328.949 16.267 329.609 16.0428 330.28 16.0849C330.613 16.0631 330.947 16.1084 331.263 16.2179C331.578 16.3274 331.869 16.4991 332.117 16.7227C332.336 16.9476 332.508 17.2154 332.62 17.5093C332.732 17.8032 332.782 18.117 332.768 18.4313C332.787 18.7483 332.74 19.0659 332.63 19.364C332.521 19.6621 332.351 19.9342 332.131 20.1631C331.883 20.3868 331.592 20.5584 331.277 20.668C330.961 20.7775 330.627 20.8227 330.294 20.8009C329.623 20.843 328.963 20.6189 328.457 20.1771C328.231 19.9479 328.056 19.6744 327.941 19.3739C327.827 19.0734 327.776 18.7525 327.791 18.4313Z" fill="white"/>
<path d="M335.023 18.4312C335.008 18.1146 335.057 17.7982 335.169 17.5018C335.281 17.2054 335.453 16.9354 335.675 16.7086C335.928 16.487 336.223 16.3178 336.542 16.2107C336.862 16.1037 337.199 16.0609 337.535 16.0848C337.868 16.063 338.202 16.1082 338.518 16.2178C338.833 16.3273 339.124 16.4989 339.372 16.7226C339.592 16.9475 339.763 17.2153 339.875 17.5092C339.987 17.8031 340.037 18.1169 340.023 18.4312C340.038 18.7462 339.987 19.0608 339.875 19.3555C339.763 19.6502 339.592 19.9188 339.372 20.1444C339.124 20.368 338.833 20.5397 338.518 20.6492C338.202 20.7588 337.868 20.804 337.535 20.7822C337.199 20.8061 336.862 20.7633 336.542 20.6563C336.223 20.5492 335.928 20.38 335.675 20.1584C335.454 19.9301 335.283 19.6592 335.171 19.3621C335.059 19.0651 335.009 18.7483 335.023 18.4312ZM335.14 14.9861V2.67698C335.133 2.33576 335.201 1.99722 335.34 1.68536C335.46 1.41053 335.638 1.16455 335.861 0.963761C336.08 0.759454 336.337 0.601156 336.619 0.498211C336.905 0.396847 337.208 0.346427 337.512 0.349232C337.809 0.348392 338.105 0.398787 338.386 0.498211C338.668 0.604413 338.929 0.762282 339.153 0.963761C339.38 1.16392 339.563 1.40981 339.688 1.68536C339.823 1.99812 339.89 2.33626 339.884 2.67698V14.9861H335.14Z" fill="white"/>
<path d="M33.765 45.7682V41.6946H29.7885C29.2144 41.7074 28.641 41.6479 28.0817 41.5177C27.6835 41.4293 27.3217 41.2214 27.0446 40.9218C26.7798 40.6072 26.6075 40.2253 26.5469 39.8184C26.4505 39.2526 26.4069 38.6791 26.4167 38.1052V30.6564C26.4063 30.3269 26.475 29.9997 26.6167 29.7021C26.7382 29.4463 26.9221 29.2254 27.1515 29.0596C27.3829 28.8924 27.643 28.7694 27.9189 28.6965C28.2103 28.6194 28.5105 28.5803 28.8119 28.5801C29.1035 28.5813 29.3933 28.6252 29.6722 28.7104C29.945 28.793 30.2015 28.9222 30.4304 29.0922C30.6561 29.2682 30.8415 29.4904 30.9745 29.744C31.1212 30.0401 31.1931 30.3679 31.1838 30.6983V31.5875H41.0668V30.6564C41.0565 30.3269 41.1251 29.9997 41.2669 29.7021C41.3863 29.449 41.5649 29.2286 41.7877 29.0596C42.0153 28.8919 42.2726 28.7687 42.5459 28.6965C42.8373 28.6194 43.1374 28.5803 43.4388 28.5801C43.734 28.5818 44.0277 28.6209 44.3131 28.6965C44.5846 28.7696 44.8401 28.8928 45.0666 29.0596C45.2912 29.2304 45.4741 29.4501 45.6014 29.7021C45.7486 29.9981 45.8206 30.3259 45.8108 30.6564V40.0559C45.8108 40.4946 45.6369 40.9155 45.3274 41.2262C45.0179 41.5368 44.598 41.712 44.1597 41.7132H38.5088V45.7682H45.0666C45.3765 45.7586 45.6851 45.8125 45.9735 45.9265C46.2038 46.0255 46.4101 46.1732 46.5781 46.3594C46.7318 46.5355 46.8474 46.7416 46.9176 46.9646C46.9892 47.1795 47.0284 47.4039 47.0339 47.6304C47.0343 48.1057 46.8699 48.5664 46.5688 48.9339C46.3814 49.1419 46.1479 49.303 45.887 49.404C45.626 49.5051 45.345 49.5434 45.0666 49.5158H27.2074C26.9296 49.5438 26.6491 49.5056 26.3888 49.4045C26.1286 49.3034 25.8959 49.1421 25.7097 48.9339C25.409 48.5662 25.2446 48.1056 25.2446 47.6304C25.2453 47.3981 25.2814 47.1674 25.3516 46.946C25.4201 46.7232 25.5342 46.5171 25.6866 46.3408C25.8546 46.1545 26.0607 46.0068 26.2911 45.9078C26.5795 45.7939 26.8882 45.74 27.1981 45.7495L33.765 45.7682ZM41.0668 37.3417V35.7775C41.0656 35.6178 41.0013 35.465 40.8881 35.3525C40.7748 35.24 40.6218 35.1769 40.4623 35.1769H31.7884C31.6288 35.1769 31.4757 35.24 31.3625 35.3525C31.2492 35.465 31.185 35.6178 31.1838 35.7775V37.2486C31.1697 37.4353 31.2243 37.6208 31.3373 37.77C31.414 37.8379 31.5043 37.8888 31.6021 37.9193C31.6999 37.9498 31.803 37.9592 31.9047 37.9469H40.4623C40.5421 37.9469 40.6211 37.9311 40.6947 37.9004C40.7684 37.8697 40.8352 37.8247 40.8914 37.768C40.9476 37.7113 40.9921 37.6441 41.0222 37.5701C41.0523 37.4961 41.0674 37.4169 41.0668 37.3371V37.3417Z" fill="white"/>
<path d="M68.2744 45.596C68.5936 45.5871 68.9109 45.6475 69.2046 45.7729C69.4459 45.8792 69.6605 46.0383 69.8325 46.2384C69.9958 46.4216 70.1151 46.6398 70.1813 46.8762C70.2487 47.1061 70.2832 47.3443 70.2836 47.5839C70.2851 47.8307 70.2458 48.0761 70.1673 48.3101C70.0906 48.5398 69.9688 48.7519 69.8092 48.934C69.6407 49.1338 69.4292 49.2929 69.1906 49.3995C68.9022 49.5135 68.5936 49.5673 68.2837 49.5578H50.5175C50.2076 49.5673 49.899 49.5135 49.6106 49.3995C49.3734 49.2929 49.1634 49.1337 48.9967 48.934C48.8356 48.7522 48.7122 48.5401 48.6339 48.3101C48.5554 48.0761 48.5161 47.8307 48.5176 47.5839C48.5197 47.3441 48.5557 47.1059 48.6246 46.8762C48.6908 46.6398 48.8101 46.4216 48.9734 46.2384C49.1454 46.0383 49.3599 45.8792 49.6013 45.7729C49.8948 45.6467 50.2122 45.5864 50.5315 45.596H68.2744ZM66.8791 28.8874C67.1687 28.8794 67.456 28.9417 67.7163 29.069C67.9331 29.183 68.1233 29.3416 68.2744 29.5345C68.4154 29.7238 68.5182 29.9389 68.5768 30.1677C68.6364 30.3878 68.6676 30.6146 68.6698 30.8427C68.6673 31.0692 68.6361 31.2945 68.5768 31.5131C68.516 31.7428 68.41 31.958 68.2651 32.1462C68.113 32.3382 67.923 32.4966 67.707 32.6118C67.4486 32.7342 67.1648 32.7932 66.8791 32.784H55.1126C54.9321 32.7664 54.7511 32.8125 54.601 32.9144C54.5455 32.9848 54.5047 33.0654 54.4807 33.1518C54.4568 33.2381 54.4502 33.3283 54.4614 33.4172V36.9973C54.4419 37.1809 54.4917 37.3652 54.601 37.514C54.7484 37.6219 54.9312 37.6701 55.1126 37.649H67.2512C67.5418 37.6416 67.8297 37.7073 68.0884 37.8399C68.3081 37.9495 68.4992 38.1089 68.6465 38.3055C68.7872 38.4901 68.8942 38.6981 68.9627 38.92C69.0304 39.1354 69.065 39.3599 69.0651 39.5857C69.0639 39.813 69.0293 40.0389 68.9627 40.2561C68.893 40.485 68.7827 40.6994 68.6372 40.8893C68.4818 41.0779 68.2925 41.2358 68.0791 41.3548C67.8223 41.4825 67.5379 41.5449 67.2512 41.5364H53.4615C52.8664 41.5484 52.2723 41.4826 51.6942 41.3408C51.2595 41.2366 50.862 41.0143 50.5454 40.6984C50.2425 40.378 50.0263 39.9853 49.9175 39.5578C49.7718 38.9972 49.7045 38.419 49.7176 37.8399V32.5746C49.7052 32.0031 49.7725 31.4328 49.9175 30.88C50.0273 30.4514 50.2433 30.0575 50.5454 29.7347C50.8637 29.422 51.2607 29.2016 51.6942 29.0969C52.2723 28.9551 52.8664 28.8894 53.4615 28.9014L66.8791 28.8874Z" fill="white"/>
<path d="M77.2041 45.4328C77.8437 45.3381 78.4687 45.1629 79.0644 44.9114C79.624 44.6691 80.1181 44.2973 80.5061 43.8266C80.9455 43.2638 81.2623 42.6152 81.4363 41.9225C81.6817 40.9395 81.7943 39.928 81.7712 38.9151V33.5194C81.7763 33.3645 81.7232 33.2133 81.6224 33.0957C81.5654 33.0405 81.4974 32.9979 81.4229 32.9707C81.3484 32.9434 81.2689 32.9321 81.1898 32.9374H77.6319C77.3247 32.9471 77.0194 32.8866 76.739 32.7605C76.5066 32.6502 76.3005 32.4915 76.1344 32.295C75.9733 32.1155 75.8541 31.9024 75.7856 31.6711C75.716 31.4449 75.68 31.2096 75.6786 30.9728C75.68 30.7361 75.716 30.5008 75.7856 30.2745C75.8537 30.0431 75.9676 29.8278 76.1204 29.6413C76.2859 29.4442 76.4922 29.2853 76.7251 29.1758C77.0106 29.0507 77.3203 28.9903 77.6319 28.9989H82.5386C83.0934 28.9898 83.6473 29.0445 84.1896 29.1618C84.5919 29.2488 84.9671 29.4326 85.2826 29.6972C85.5694 29.9602 85.7758 30.2992 85.8779 30.6749C86.0032 31.1612 86.061 31.6625 86.0499 32.1646V36.727H87.6777V30.0929C87.6601 29.8193 87.7031 29.5451 87.8036 29.29C87.9041 29.0348 88.0596 28.8051 88.2591 28.6171C88.6455 28.2816 89.1429 28.1023 89.6543 28.1143C89.9155 28.1152 90.1749 28.1592 90.4218 28.2447C90.6669 28.328 90.893 28.4594 91.0868 28.6311C91.2818 28.8023 91.44 29.0114 91.5519 29.2456C91.6722 29.5115 91.731 29.8011 91.724 30.0929V47.9514C91.724 48.2171 91.6717 48.4802 91.57 48.7257C91.4682 48.9711 91.3191 49.1941 91.1312 49.3818C90.9433 49.5694 90.7201 49.7182 90.4747 49.8194C90.2293 49.9207 89.9663 49.9725 89.7009 49.9719C89.4354 49.9725 89.1725 49.9207 88.9271 49.8194C88.6816 49.7182 88.4586 49.5694 88.2706 49.3818C88.0827 49.1941 87.9336 48.9711 87.8319 48.7257C87.7302 48.4802 87.6777 48.2171 87.6777 47.9514V40.5026H85.9802C85.8927 41.8674 85.5784 43.2079 85.05 44.4691C84.6213 45.4628 84.0001 46.3616 83.2223 47.1134C82.5053 47.7855 81.6585 48.3035 80.734 48.6358C79.8051 48.9705 78.8351 49.1773 77.8505 49.2503C77.2805 49.3095 76.7067 49.1838 76.2134 48.8918C75.9781 48.7435 75.7849 48.5372 75.6522 48.2926C75.5194 48.0481 75.4517 47.7735 75.4554 47.4952C75.4067 47.0079 75.5446 46.5204 75.8413 46.1311C76.1942 45.7384 76.6795 45.4898 77.2041 45.4328ZM92.8542 30.1162C92.836 29.8382 92.8834 29.5598 92.9925 29.3034C93.1015 29.0471 93.2692 28.82 93.4821 28.6404C93.8891 28.3091 94.3992 28.1312 94.9238 28.1376C95.185 28.1385 95.4443 28.1825 95.6912 28.268C95.9364 28.3513 96.1624 28.4826 96.3563 28.6544C96.5512 28.8256 96.7095 29.0347 96.8213 29.2689C96.9416 29.5348 97.0004 29.8244 96.9934 30.1162V47.9235C96.9934 48.4729 96.7754 48.9999 96.3873 49.3884C95.9991 49.7769 95.4727 49.9952 94.9238 49.9952C94.3749 49.9952 93.8485 49.7769 93.4604 49.3884C93.0723 48.9999 92.8542 48.4729 92.8542 47.9235V30.1162Z" fill="white"/>
<path d="M105.9 40.0094C104.989 40.0191 104.08 39.9191 103.193 39.7114C102.441 39.5404 101.731 39.2241 101.1 38.7803C100.516 38.3507 100.048 37.7829 99.7374 37.1276C99.3935 36.3648 99.2266 35.534 99.2491 34.6975V33.8083C99.2266 32.9717 99.3935 32.1409 99.7374 31.3781C100.048 30.7229 100.516 30.155 101.1 29.7254C101.729 29.2797 102.441 28.9633 103.193 28.7943C104.079 28.581 104.988 28.4778 105.9 28.487C106.813 28.4781 107.723 28.5813 108.611 28.7943C109.363 28.9633 110.075 29.2797 110.704 29.7254C111.287 30.1552 111.753 30.7231 112.062 31.3781C112.398 32.1427 112.557 32.9735 112.527 33.8083V34.6975C112.557 35.5322 112.398 36.363 112.062 37.1276C111.753 37.7826 111.287 38.3506 110.704 38.7803C110.074 39.2241 109.363 39.5404 108.611 39.7114C107.723 39.9191 106.812 40.0191 105.9 40.0094ZM103.621 49.9954C103.05 50.01 102.48 49.9521 101.923 49.8232C101.537 49.7337 101.185 49.5311 100.914 49.2412C100.663 48.9291 100.502 48.5539 100.449 48.1565C100.352 47.597 100.309 47.0296 100.319 46.4619V44.5764C100.31 44.0103 100.353 43.4445 100.449 42.8865C100.501 42.486 100.662 42.1075 100.914 41.7924C101.185 41.5025 101.537 41.2999 101.923 41.2105C102.479 41.0796 103.05 41.0202 103.621 41.0336H116.643C117.214 41.0202 117.785 41.0796 118.341 41.2105C118.728 41.3009 119.081 41.5033 119.355 41.7924C119.603 42.1097 119.764 42.4871 119.82 42.8865C119.911 43.445 119.954 44.0105 119.945 44.5764V48.3846C119.945 48.8118 119.776 49.2215 119.474 49.5236C119.172 49.8257 118.763 49.9954 118.336 49.9954H103.621ZM105.9 36.6854C106.437 36.7097 106.968 36.5577 107.411 36.2524C107.612 36.0896 107.77 35.8802 107.871 35.6425C107.972 35.4048 108.014 35.1459 107.993 34.8883V33.5848C108.011 33.3302 107.968 33.0749 107.867 32.8407C107.766 32.6064 107.609 32.4001 107.411 32.2394C106.971 31.9266 106.439 31.7709 105.9 31.7971C105.361 31.7709 104.828 31.9266 104.388 32.2394C104.19 32.4001 104.034 32.6064 103.933 32.8407C103.831 33.0749 103.788 33.3302 103.807 33.5848V34.8883C103.786 35.1459 103.827 35.4048 103.929 35.6425C104.03 35.8802 104.188 36.0896 104.388 36.2524C104.832 36.5577 105.362 36.7097 105.9 36.6854ZM104.877 46.0895C104.854 46.2703 104.891 46.4537 104.984 46.6109C105.121 46.7009 105.286 46.7373 105.449 46.7133H114.82C114.98 46.7133 115.134 46.6495 115.248 46.536C115.361 46.4225 115.425 46.2686 115.425 46.1081V44.8976C115.425 44.6369 115.388 44.4693 115.308 44.3995C115.17 44.3127 115.006 44.275 114.843 44.2924H105.449C105.286 44.2693 105.12 44.3075 104.984 44.3995C104.892 44.5485 104.855 44.7243 104.877 44.8976V46.0895ZM115.178 30.4423C115.156 30.1198 115.209 29.7965 115.333 29.4977C115.456 29.1989 115.647 28.9327 115.89 28.7198C116.349 28.3371 116.929 28.1307 117.527 28.1379C117.825 28.1386 118.121 28.1906 118.401 28.2915C118.68 28.3957 118.937 28.5539 119.155 28.757C119.377 28.959 119.556 29.2046 119.68 29.4787C119.815 29.7898 119.882 30.1264 119.876 30.4656V37.8492C119.874 38.4684 119.63 39.0622 119.195 39.5021C118.759 39.9421 118.169 40.1929 117.55 40.2003C116.928 40.199 116.331 39.9509 115.891 39.5103C115.451 39.0697 115.203 38.4724 115.202 37.8492L115.178 30.4423Z" fill="white"/>
<path d="M142.084 36.7041C142.324 36.6776 142.567 36.708 142.793 36.7929C143.019 36.8778 143.222 37.0148 143.386 37.1929C143.629 37.5072 143.76 37.894 143.758 38.2916C143.764 38.6928 143.629 39.0834 143.376 39.395C143.21 39.5652 143.007 39.6955 142.783 39.7761C142.559 39.8568 142.32 39.8856 142.084 39.8605H123.666C123.43 39.8859 123.192 39.8572 122.968 39.7765C122.745 39.6959 122.543 39.5654 122.378 39.395C122.124 39.0839 121.987 38.6933 121.992 38.2916C121.99 37.894 122.121 37.5072 122.364 37.1929C122.527 37.0148 122.73 36.8778 122.957 36.7929C123.183 36.708 123.426 36.6776 123.666 36.7041H142.084ZM125.573 49.9955C125.127 50.0059 124.683 49.9235 124.271 49.7534C123.916 49.6081 123.598 49.3855 123.341 49.1017C123.099 48.832 122.917 48.5148 122.806 48.1706C122.687 47.8037 122.627 47.4203 122.629 47.0346V46.9601C122.596 46.2294 122.846 45.5141 123.327 44.9629C123.792 44.4446 124.536 44.187 125.559 44.1901H138V43.7478C138 43.5011 137.837 43.3754 137.535 43.3754H124.21C124.026 43.3878 123.841 43.3577 123.67 43.2875C123.499 43.2173 123.347 43.1088 123.224 42.9704C123.009 42.7296 122.888 42.4185 122.885 42.0951C122.889 41.7748 123.001 41.4651 123.201 41.2153C123.322 41.0675 123.477 40.9516 123.653 40.8777C123.829 40.8039 124.02 40.7743 124.21 40.7916H140.209C141.2 40.7916 141.883 40.9778 142.256 41.341C142.454 41.5588 142.606 41.8148 142.702 42.0934C142.798 42.372 142.836 42.6672 142.814 42.9611V45.354C142.814 45.6816 142.684 45.9959 142.453 46.228C142.222 46.4601 141.909 46.5911 141.581 46.5923H128.094C128.032 46.5851 127.969 46.5904 127.909 46.608C127.849 46.6256 127.793 46.6551 127.745 46.6948C127.68 46.7764 127.647 46.8791 127.652 46.9834C127.648 47.0933 127.681 47.2015 127.745 47.2907C127.791 47.3345 127.846 47.3677 127.906 47.3878C127.967 47.4079 128.031 47.4145 128.094 47.4071H141.744C141.926 47.3897 142.11 47.4176 142.278 47.4882C142.447 47.5589 142.596 47.6701 142.711 47.8121C142.899 48.072 143 48.385 143 48.7059C142.991 49.0139 142.894 49.3129 142.721 49.5672C142.612 49.7215 142.464 49.8439 142.293 49.9217C142.121 49.9994 141.931 50.0298 141.744 50.0095L125.573 49.9955ZM143.014 32.1231C143.019 32.6265 142.932 33.1265 142.758 33.5989C142.592 34.0482 142.326 34.4541 141.981 34.786C141.601 35.1375 141.153 35.4069 140.665 35.5774C140.059 35.786 139.422 35.8853 138.781 35.8707H126.968C126.336 35.8825 125.706 35.7833 125.108 35.5774C124.621 35.4075 124.174 35.138 123.796 34.786C123.45 34.4543 123.183 34.0485 123.015 33.5989C122.841 33.1265 122.754 32.6265 122.759 32.1231C122.754 31.6211 122.84 31.1224 123.015 30.6519C123.179 30.209 123.438 29.8071 123.773 29.4741C124.148 29.1151 124.595 28.8405 125.085 28.6687C125.683 28.4629 126.313 28.3636 126.945 28.3754H138.758C139.398 28.3609 140.036 28.4602 140.642 28.6687C141.133 28.8404 141.581 29.115 141.958 29.4741C142.3 29.8066 142.565 30.2102 142.735 30.6566C142.917 31.1241 143.011 31.6213 143.014 32.1231ZM138.247 32.1231C138.251 32.0267 138.236 31.9304 138.203 31.84C138.169 31.7495 138.118 31.6669 138.051 31.597C137.84 31.4407 137.578 31.3693 137.316 31.3968H128.424C128.164 31.3686 127.903 31.4401 127.694 31.597C127.626 31.666 127.573 31.7484 127.539 31.839C127.504 31.9295 127.489 32.0263 127.494 32.1231C127.489 32.2191 127.505 32.3151 127.539 32.4048C127.574 32.4946 127.626 32.5762 127.694 32.6445C127.903 32.8014 128.164 32.8729 128.424 32.8447H137.307C137.568 32.8722 137.831 32.8008 138.042 32.6445C138.11 32.5761 138.163 32.4946 138.198 32.4049C138.233 32.3153 138.25 32.2194 138.247 32.1231Z" fill="white"/>
<path d="M154.199 33.0029H151.083C150.771 33.013 150.462 32.9542 150.176 32.8306C149.943 32.7211 149.737 32.5623 149.571 32.3651C149.416 32.1742 149.298 31.9564 149.222 31.7226C149.146 31.4929 149.107 31.2524 149.106 31.0103C149.108 30.7706 149.144 30.5323 149.213 30.3027C149.279 30.0663 149.399 29.8481 149.562 29.6649C149.732 29.4686 149.941 29.31 150.176 29.1994C150.459 29.0649 150.77 28.9994 151.083 29.0085H161.849C162.17 28.9957 162.49 29.0612 162.78 29.1994C163.011 29.3071 163.214 29.4664 163.375 29.6649C163.524 29.8544 163.634 30.071 163.701 30.3027C163.768 30.5325 163.802 30.7708 163.803 31.0103C163.802 31.2514 163.768 31.4912 163.701 31.7226C163.632 31.9575 163.516 32.176 163.361 32.3651C163.196 32.5623 162.989 32.7211 162.756 32.8306C162.478 32.9524 162.176 33.0112 161.873 33.0029H158.757V35.5262C158.757 36.0662 158.757 36.5876 158.71 37.0811C158.664 37.5746 158.631 38.0634 158.571 38.529C159.382 38.8085 160.147 39.2087 160.84 39.7161C161.535 40.2342 162.109 40.8965 162.524 41.6575C163.013 42.5714 163.351 43.5588 163.524 44.5811C163.635 45.1889 163.708 45.8031 163.742 46.42C163.759 46.7127 163.715 47.0057 163.615 47.281C163.514 47.5564 163.359 47.8083 163.158 48.0214C162.957 48.2344 162.714 48.4042 162.445 48.5203C162.176 48.6364 161.887 48.6964 161.594 48.6966C161.039 48.6936 160.507 48.4773 160.107 48.0926C159.707 47.7079 159.47 47.1841 159.445 46.6295C159.419 46.0325 159.317 45.4412 159.143 44.8697C158.886 43.9711 158.331 43.1865 157.571 42.6444C157.065 44.0194 156.299 45.284 155.315 46.3688C154.418 47.3448 153.324 48.1191 152.106 48.6407C151.852 48.7481 151.581 48.8066 151.306 48.813C151.024 48.8222 150.742 48.7908 150.469 48.7198C150.204 48.6547 149.952 48.5444 149.725 48.394C149.506 48.257 149.332 48.0598 149.222 47.826C149.007 47.4021 148.949 46.9152 149.06 46.4526C149.116 46.2099 149.221 45.9813 149.369 45.7811C149.517 45.5809 149.705 45.4133 149.92 45.2887C150.632 44.8492 151.279 44.3117 151.841 43.6919C152.392 43.0676 152.843 42.3607 153.176 41.5969C153.553 40.7261 153.818 39.811 153.966 38.8735C154.148 37.7234 154.233 36.5601 154.222 35.3958L154.199 33.0029ZM168.244 49.9954C167.628 49.9954 167.036 49.7502 166.6 49.3137C166.164 48.8771 165.919 48.285 165.919 47.6677V30.4424C165.897 30.1211 165.948 29.7989 166.069 29.5004C166.19 29.2019 166.377 28.935 166.617 28.7198C167.072 28.3367 167.65 28.1301 168.244 28.1379C168.839 28.1301 169.417 28.3367 169.872 28.7198C170.112 28.935 170.299 29.2019 170.42 29.5004C170.541 29.7989 170.592 30.1211 170.57 30.4424V47.6677C170.57 48.285 170.325 48.8771 169.889 49.3137C169.453 49.7502 168.861 49.9954 168.244 49.9954Z" fill="white"/>
<path d="M176.328 48.9712C175.811 48.984 175.294 48.9261 174.793 48.7989C174.429 48.7063 174.098 48.5126 173.839 48.2403C173.601 47.9522 173.441 47.6075 173.374 47.2393C173.273 46.7463 173.227 46.2436 173.235 45.7403V31.0755C173.206 30.7757 173.244 30.4733 173.344 30.1894C173.444 29.9056 173.606 29.6471 173.816 29.4321C174.249 29.081 174.795 28.902 175.351 28.9293C175.892 28.9014 176.423 29.0869 176.83 29.4461C177.028 29.6652 177.179 29.9231 177.273 30.2036C177.366 30.4841 177.401 30.781 177.374 31.0755V34.7254H179.467V31.0755C179.438 30.7776 179.473 30.477 179.569 30.1936C179.666 29.9103 179.821 29.6507 180.025 29.4321C180.44 29.0821 180.972 28.9024 181.513 28.9293C182.062 28.8988 182.601 29.0842 183.016 29.4461C183.214 29.6652 183.365 29.9231 183.458 30.2036C183.552 30.4841 183.587 30.781 183.56 31.0755V47.095C183.56 47.5889 183.364 48.0626 183.015 48.4118C182.666 48.761 182.193 48.9572 181.699 48.9572L176.328 48.9712ZM179.444 45.1118V38.7524C179.444 38.7037 179.435 38.6554 179.417 38.6102C179.399 38.565 179.372 38.5239 179.338 38.4893C179.304 38.4547 179.263 38.4271 179.218 38.4084C179.173 38.3896 179.125 38.3799 179.076 38.3799H177.723C177.625 38.3812 177.532 38.421 177.463 38.4907C177.394 38.5604 177.355 38.6544 177.355 38.7524V44.9256C177.334 45.0886 177.372 45.254 177.462 45.3911C177.616 45.4695 177.789 45.5003 177.96 45.4796H179.081C179.175 45.4748 179.264 45.4339 179.329 45.3655C179.394 45.297 179.43 45.2062 179.43 45.1118H179.444ZM190.071 40.3865H188.931V47.9749C188.931 48.2406 188.879 48.5038 188.777 48.7492C188.676 48.9946 188.526 49.2176 188.339 49.4053C188.151 49.5929 187.928 49.7417 187.682 49.8429C187.437 49.9442 187.174 49.996 186.908 49.9954C186.643 49.996 186.38 49.9442 186.135 49.8429C185.889 49.7417 185.666 49.5929 185.478 49.4053C185.29 49.2176 185.141 48.9946 185.039 48.7492C184.938 48.5038 184.885 48.2406 184.885 47.9749V30.1164C184.866 29.8405 184.911 29.564 185.016 29.3081C185.121 29.0523 185.283 28.8239 185.49 28.6407C185.881 28.313 186.375 28.1348 186.885 28.1379C187.395 28.1372 187.888 28.3151 188.28 28.6407C188.489 28.8225 188.654 29.0504 188.76 29.3065C188.867 29.5625 188.913 29.8397 188.894 30.1164V36.569H190.034V30.1164C190.016 29.8384 190.063 29.56 190.172 29.3037C190.281 29.0473 190.449 28.8202 190.662 28.6407C191.069 28.3093 191.579 28.1314 192.103 28.1379C192.365 28.1387 192.624 28.1828 192.871 28.2682C193.116 28.3515 193.342 28.4829 193.536 28.6546C193.731 28.8258 193.889 29.0349 194.001 29.2691C194.121 29.535 194.18 29.8247 194.173 30.1164V47.9749C194.173 48.2406 194.121 48.5038 194.019 48.7492C193.917 48.9946 193.768 49.2176 193.58 49.4053C193.392 49.5929 193.169 49.7417 192.924 49.8429C192.678 49.9442 192.415 49.996 192.15 49.9954H192.057C191.791 49.996 191.528 49.9442 191.283 49.8429C191.037 49.7417 190.814 49.5929 190.627 49.4053C190.439 49.2176 190.289 48.9946 190.188 48.7492C190.086 48.5038 190.034 48.2406 190.034 47.9749L190.071 40.3865Z" fill="white"/>
<path d="M202.986 28.0775C203.631 28.0413 204.263 28.2623 204.744 28.692C204.963 28.9219 205.132 29.1942 205.242 29.492C205.351 29.7898 205.399 30.1069 205.381 30.4238V30.638H208.637C208.88 30.6213 209.124 30.6605 209.35 30.7525C209.575 30.8445 209.777 30.9868 209.939 31.1687C210.234 31.5296 210.39 31.9833 210.381 32.449C210.389 32.9185 210.224 33.3745 209.916 33.7292C209.755 33.9107 209.555 34.0532 209.331 34.1459C209.107 34.2386 208.865 34.2793 208.623 34.2646H208.577C208.702 34.5793 208.803 34.903 208.879 35.233C208.96 35.5965 208.999 35.9684 208.995 36.341V43.5756C209.017 44.4868 208.859 45.3932 208.53 46.2432C208.252 46.9502 207.82 47.5863 207.265 48.1054C206.715 48.602 206.065 48.9751 205.358 49.1994C204.587 49.4448 203.782 49.5658 202.972 49.5579C202.168 49.5666 201.367 49.4455 200.6 49.1994C199.899 48.9738 199.254 48.6008 198.708 48.1054C198.151 47.5868 197.718 46.9506 197.438 46.2432C197.109 45.3932 196.951 44.4868 196.973 43.5756V36.341C196.962 35.6292 197.097 34.9227 197.368 34.2646C197.127 34.2792 196.885 34.2386 196.662 34.1458C196.439 34.0531 196.24 33.9106 196.08 33.7292C195.773 33.3743 195.607 32.9185 195.615 32.449C195.605 31.9847 195.758 31.5316 196.047 31.1687C196.206 30.9863 196.405 30.8433 196.629 30.7512C196.852 30.6591 197.094 30.6203 197.336 30.638H200.591V30.4052C200.572 30.0878 200.619 29.7698 200.73 29.4717C200.84 29.1735 201.012 28.9016 201.233 28.6734C201.472 28.4636 201.75 28.303 202.05 28.2008C202.351 28.0985 202.669 28.0566 202.986 28.0775ZM202.986 45.7683C203.209 45.7687 203.43 45.7225 203.634 45.6327C203.838 45.543 204.022 45.4116 204.172 45.2469C204.551 44.7873 204.735 44.1972 204.684 43.6035V36.1315C204.713 35.844 204.684 35.5536 204.599 35.2776C204.513 35.0016 204.373 34.7457 204.186 34.5253C203.861 34.2206 203.431 34.0538 202.986 34.0598C202.55 34.0557 202.129 34.2228 201.814 34.5253C201.626 34.7448 201.484 35.0004 201.398 35.2766C201.311 35.5527 201.282 35.8436 201.312 36.1315V43.6035C201.261 44.1957 201.441 44.7847 201.814 45.2469C201.962 45.4121 202.142 45.5441 202.344 45.634C202.546 45.7239 202.765 45.7697 202.986 45.7683ZM211.8 30.4052C211.778 30.0887 211.829 29.7714 211.95 29.4782C212.071 29.185 212.258 28.9238 212.497 28.7153C212.947 28.3392 213.516 28.1362 214.102 28.1426C214.395 28.1426 214.687 28.1946 214.962 28.2963C215.231 28.3931 215.48 28.5383 215.697 28.7246C215.912 28.921 216.086 29.1584 216.209 29.4229C216.344 29.7323 216.411 30.0675 216.404 30.4052V36.2898H217.171C217.477 36.2799 217.78 36.3438 218.055 36.476C218.274 36.5865 218.465 36.7458 218.613 36.9415C218.754 37.1376 218.857 37.3588 218.916 37.5933C218.976 37.826 219.007 38.0652 219.008 38.3056C219.007 38.5444 218.975 38.7821 218.916 39.0132C218.857 39.2477 218.754 39.469 218.613 39.665C218.463 39.8621 218.268 40.0215 218.046 40.1305C217.772 40.2582 217.473 40.3203 217.171 40.3121H216.404V47.6678C216.398 48.2811 216.15 48.8672 215.715 49.2987C215.279 49.7302 214.691 49.9723 214.079 49.9723C213.47 49.9662 212.888 49.7215 212.457 49.2906C212.027 48.8597 211.782 48.2771 211.776 47.6678L211.8 30.4052Z" fill="white"/>
<path d="M239.007 37.9141C239.318 37.9055 239.628 37.9659 239.914 38.0911C240.144 38.1949 240.35 38.3455 240.518 38.5333C240.674 38.7115 240.79 38.9211 240.858 39.1478C240.926 39.3744 240.96 39.6096 240.96 39.8462C240.959 40.3254 240.795 40.79 240.495 41.1637C240.309 41.374 240.076 41.5372 239.815 41.6399C239.554 41.7427 239.272 41.7821 238.993 41.7549H221.134C220.855 41.7825 220.574 41.7432 220.313 41.6404C220.053 41.5376 219.821 41.3742 219.636 41.1637C219.337 40.7898 219.173 40.3254 219.171 39.8462C219.172 39.6094 219.208 39.3741 219.278 39.1478C219.344 38.9214 219.458 38.7118 219.613 38.5333C219.781 38.3455 219.987 38.1949 220.217 38.0911C220.503 37.9659 220.813 37.9055 221.124 37.9141H239.007ZM223.473 36.5175C222.925 36.5299 222.378 36.472 221.845 36.3452C221.457 36.2549 221.102 36.0563 220.822 35.7726C220.558 35.4816 220.378 35.1244 220.301 34.7391C220.189 34.2145 220.137 33.6787 220.148 33.1423V30.6097C220.118 30.2864 220.168 29.9609 220.292 29.6609C220.416 29.3609 220.61 29.0955 220.859 28.8871C221.344 28.5232 221.937 28.333 222.543 28.3471C223.143 28.3314 223.731 28.522 224.208 28.8871C224.449 29.1002 224.637 29.3673 224.755 29.6666C224.874 29.9659 224.921 30.289 224.891 30.6097V32.3275C224.891 32.5929 224.929 32.7559 225.008 32.821C225.166 32.8985 225.344 32.9292 225.519 32.9095H238.146C238.423 32.882 238.703 32.9172 238.964 33.0122C239.226 33.1073 239.463 33.2599 239.658 33.4588C239.947 33.8099 240.103 34.2516 240.1 34.7065C240.103 35.171 239.938 35.621 239.635 35.9728C239.44 36.1696 239.205 36.3206 238.945 36.4148C238.685 36.509 238.407 36.5441 238.132 36.5175H223.473ZM223.682 49.9951C223.134 50.0076 222.587 49.9497 222.054 49.8229C221.667 49.7322 221.313 49.5355 221.031 49.2549C220.768 48.9614 220.589 48.603 220.51 48.2168C220.398 47.6921 220.346 47.1563 220.357 46.6199V44.9672C220.329 44.6431 220.38 44.3171 220.505 44.0171C220.631 43.7171 220.827 43.452 221.078 43.2447C221.571 42.8872 222.167 42.7008 222.775 42.714C223.374 42.6974 223.961 42.8845 224.44 43.2447C224.681 43.458 224.869 43.7251 224.987 44.0243C225.106 44.3235 225.153 44.6465 225.124 44.9672V45.8052C225.124 46.0706 225.161 46.2335 225.24 46.294C225.398 46.3755 225.576 46.4079 225.752 46.3871H238.286C238.563 46.3597 238.842 46.3948 239.104 46.4899C239.365 46.585 239.602 46.7376 239.797 46.9365C240.095 47.2843 240.26 47.7263 240.262 48.1842C240.266 48.6487 240.1 49.0987 239.797 49.4505C239.603 49.6472 239.367 49.7982 239.108 49.8924C238.848 49.9867 238.57 50.0217 238.295 49.9951H223.682Z" fill="white"/>
<path d="M248.82 45.4328C249.46 45.3381 250.085 45.1629 250.681 44.9114C251.24 44.6691 251.734 44.2973 252.122 43.8266C252.562 43.2638 252.879 42.6152 253.053 41.9225C253.298 40.9395 253.411 39.928 253.387 38.9151V33.5194C253.392 33.3645 253.339 33.2133 253.239 33.0957C253.182 33.0405 253.114 32.9979 253.039 32.9707C252.965 32.9434 252.885 32.9321 252.806 32.9374H249.248C248.941 32.9471 248.636 32.8866 248.355 32.7605C248.123 32.6502 247.917 32.4915 247.751 32.295C247.589 32.1155 247.47 31.9024 247.402 31.6711C247.332 31.4449 247.296 31.2096 247.295 30.9728C247.296 30.7361 247.332 30.5008 247.402 30.2745C247.47 30.0431 247.584 29.8278 247.737 29.6413C247.902 29.4442 248.108 29.2853 248.341 29.1758C248.627 29.0507 248.937 28.9903 249.248 28.9989H254.155C254.71 28.9898 255.263 29.0445 255.806 29.1618C256.208 29.2488 256.583 29.4326 256.899 29.6972C257.186 29.9602 257.392 30.2992 257.494 30.6749C257.619 31.1612 257.677 31.6625 257.666 32.1646V36.727H259.294V30.0929C259.276 29.8193 259.319 29.5451 259.42 29.29C259.52 29.0348 259.676 28.8051 259.875 28.6171C260.262 28.2816 260.759 28.1023 261.271 28.1143C261.532 28.1152 261.791 28.1592 262.038 28.2447C262.283 28.328 262.509 28.4594 262.703 28.6311C262.898 28.8023 263.056 29.0114 263.168 29.2456C263.288 29.5115 263.347 29.8011 263.34 30.0929V47.9514C263.34 48.2171 263.288 48.4802 263.186 48.7257C263.084 48.9711 262.935 49.1941 262.747 49.3817C262.559 49.5694 262.336 49.7182 262.091 49.8194C261.845 49.9207 261.583 49.9725 261.317 49.9719C261.052 49.9725 260.789 49.9207 260.543 49.8194C260.298 49.7182 260.075 49.5694 259.887 49.3817C259.699 49.1941 259.55 48.9711 259.448 48.7257C259.346 48.4802 259.294 48.2171 259.294 47.9514V40.5026H257.596C257.509 41.8674 257.195 43.2079 256.666 44.4691C256.238 45.4628 255.616 46.3616 254.838 47.1134C254.122 47.7855 253.275 48.3035 252.35 48.6358C251.421 48.9705 250.451 49.1773 249.467 49.2503C248.897 49.3095 248.323 49.1838 247.83 48.8918C247.594 48.7435 247.401 48.5372 247.268 48.2926C247.136 48.0481 247.068 47.7735 247.072 47.4952C247.023 47.0079 247.161 46.5204 247.458 46.1311C247.81 45.7384 248.296 45.4898 248.82 45.4328ZM264.47 30.1162C264.452 29.8382 264.5 29.5598 264.609 29.3034C264.718 29.0471 264.885 28.82 265.098 28.6404C265.505 28.3091 266.015 28.1312 266.54 28.1376C266.801 28.1385 267.061 28.1825 267.307 28.268C267.553 28.3513 267.779 28.4826 267.972 28.6544C268.167 28.8256 268.326 29.0347 268.438 29.2689C268.558 29.5348 268.617 29.8244 268.61 30.1162V47.9747C268.61 48.2404 268.557 48.5035 268.455 48.749C268.354 48.9944 268.205 49.2173 268.017 49.405C267.829 49.5927 267.606 49.7414 267.36 49.8427C267.115 49.944 266.852 49.9958 266.587 49.9952H266.494C266.228 49.9958 265.965 49.944 265.72 49.8427C265.474 49.7414 265.251 49.5927 265.063 49.405C264.875 49.2173 264.726 48.9944 264.624 48.749C264.523 48.5035 264.47 48.2404 264.47 47.9747V30.1162Z" fill="white"/>
<path d="M270.958 34.8232C270.94 33.895 271.106 32.9724 271.447 32.109C271.751 31.3578 272.216 30.6824 272.809 30.1305C273.409 29.5838 274.117 29.1712 274.888 28.92C275.752 28.6408 276.655 28.504 277.563 28.515C278.47 28.504 279.373 28.6408 280.237 28.92C281.009 29.172 281.721 29.5791 282.33 30.1165C282.931 30.6637 283.4 31.3402 283.702 32.0951C284.042 32.9636 284.208 33.8906 284.19 34.8232V43.245C284.207 44.1776 284.041 45.1045 283.702 45.9731C283.401 46.7253 282.937 47.4011 282.344 47.9517C281.737 48.4928 281.024 48.9004 280.251 49.1481C279.39 49.4254 278.49 49.5622 277.586 49.5532C276.678 49.5642 275.775 49.4274 274.912 49.1481C274.14 48.8962 273.428 48.4891 272.819 47.9517C272.218 47.4045 271.749 46.728 271.447 45.9731C271.107 45.1045 270.941 44.1776 270.958 43.245V34.8232ZM275.563 43.3381C275.513 43.9845 275.718 44.6249 276.135 45.1211C276.318 45.3147 276.54 45.4674 276.786 45.5692C277.032 45.6711 277.296 45.7199 277.563 45.7124C277.831 45.7193 278.097 45.6702 278.346 45.5685C278.594 45.4667 278.818 45.3143 279.004 45.1211C279.426 44.6273 279.636 43.9861 279.586 43.3381V34.7254C279.634 34.0763 279.425 33.4342 279.004 32.9377C278.822 32.7406 278.598 32.5863 278.348 32.4857C278.099 32.3851 277.831 32.3407 277.563 32.3558C277.295 32.3555 277.031 32.4099 276.785 32.5155C276.54 32.6212 276.319 32.776 276.135 32.9703C275.721 33.4575 275.516 34.0879 275.563 34.7254V43.3381ZM289.167 49.9954C288.55 49.9954 287.958 49.7502 287.522 49.3137C287.086 48.8771 286.841 48.285 286.841 47.6677V30.4424C286.819 30.1211 286.87 29.7989 286.991 29.5004C287.112 29.2019 287.299 28.935 287.539 28.7198C287.994 28.3367 288.572 28.1301 289.167 28.1379C289.761 28.1301 290.339 28.3367 290.794 28.7198C291.034 28.935 291.221 29.2019 291.342 29.5004C291.463 29.7989 291.514 30.1211 291.492 30.4424V47.6677C291.492 48.285 291.247 48.8771 290.811 49.3137C290.375 49.7502 289.783 49.9954 289.167 49.9954Z" fill="white"/>
<path d="M297.887 49.1152C297.261 49.1309 296.636 49.0668 296.026 48.9244C295.607 48.8338 295.225 48.616 294.933 48.3005C294.656 47.957 294.474 47.5456 294.408 47.1087C294.306 46.5028 294.259 45.8888 294.268 45.2745V32.7325C294.259 32.1166 294.306 31.5012 294.408 30.8936C294.475 30.4584 294.656 30.0488 294.933 29.7065C295.225 29.391 295.607 29.1732 296.026 29.0826C296.636 28.9402 297.261 28.8761 297.887 28.8918H303.328C303.954 28.8761 304.579 28.9402 305.188 29.0826C305.609 29.1731 305.993 29.3909 306.286 29.7065C306.561 30.0492 306.741 30.4588 306.807 30.8936C306.909 31.5012 306.955 32.1166 306.946 32.7325V36.7642H310.132V30.4048C310.11 30.0883 310.162 29.771 310.283 29.4778C310.404 29.1846 310.591 28.9234 310.83 28.7149C311.279 28.3388 311.848 28.1358 312.434 28.1422C312.728 28.1422 313.019 28.1942 313.295 28.2959C313.566 28.3947 313.817 28.5396 314.039 28.7242C314.261 28.9174 314.44 29.1553 314.564 29.4225C314.7 29.7319 314.767 30.0671 314.76 30.4048V47.686C314.76 48.3033 314.515 48.8954 314.079 49.332C313.643 49.7685 313.051 50.0137 312.434 50.0137C311.818 50.0137 311.226 49.7685 310.79 49.332C310.354 48.8954 310.109 48.3033 310.109 47.686V40.7633H306.923V46.7875C306.923 47.4048 306.678 47.9969 306.242 48.4334C305.806 48.87 305.214 49.1152 304.598 49.1152H297.887ZM298.817 44.618C298.801 44.8281 298.855 45.0376 298.97 45.2139C299.051 45.2913 299.148 45.3495 299.254 45.3841C299.361 45.4188 299.473 45.429 299.584 45.4141H301.584C301.697 45.4141 301.81 45.3917 301.914 45.3481C302.019 45.3045 302.114 45.2407 302.194 45.1602C302.274 45.0797 302.337 44.9842 302.38 44.8792C302.423 44.7742 302.445 44.6617 302.444 44.5482V33.375C302.454 33.1834 302.414 32.9926 302.328 32.821C302.249 32.6767 302.082 32.6115 301.817 32.6115H299.421C299.156 32.6115 298.993 32.6767 298.919 32.821C298.845 32.996 298.81 33.1851 298.817 33.375V44.618Z" fill="white"/>
</g>
<defs>
<clipPath id="clip0_3888_86411">
<rect width="340" height="50" fill="white"/>
</clipPath>
</defs>
</svg>
