<svg width="250" height="190" viewBox="0 0 250 190" fill="none" xmlns="http://www.w3.org/2000/svg">
<path d="M38 75.609C39.3217 75.5526 40.6322 75.4963 41.9539 75.4512C43.2756 75.4061 44.5861 75.361 45.9077 75.3272C47.2294 75.2934 48.5399 75.2483 49.8616 75.2145L53.8155 75.1243L53.3563 75.5075C53.6139 73.9522 53.8939 72.4081 54.1627 70.8528L54.9804 66.198L55.8204 61.5546L56.6717 56.9111C56.7389 56.5166 57.1197 56.2687 57.5006 56.3363C57.8142 56.3926 58.0494 56.6519 58.083 56.9562V56.9674L58.4974 60.7431L58.9007 64.5187L59.3039 68.2944L59.6959 72.0813L60.0767 75.8682L60.4464 79.6551C60.6928 82.1797 60.928 84.7043 61.152 87.2289L60.0319 87.0937L61.1856 84.0844C61.5664 83.0813 61.9585 82.0783 62.3505 81.0752L63.5266 78.0772C63.9186 77.0741 64.3218 76.0823 64.7139 75.0792L64.7251 75.068C64.7699 74.944 64.8931 74.8764 65.0051 74.8764L67.2452 74.944L69.4854 75.0229C70.2358 75.0454 70.9863 75.068 71.7255 75.1018L73.9657 75.1919L71.7255 75.2821C70.9751 75.3159 70.2246 75.3385 69.4854 75.361L67.2452 75.4399L65.0051 75.5075L65.2963 75.3047C64.9491 76.319 64.6131 77.3446 64.2658 78.359L63.2242 81.4133C62.8769 82.4277 62.5297 83.4533 62.1713 84.4564L61.1072 87.4994C61.0064 87.8037 60.6704 87.9615 60.368 87.8601C60.1551 87.7812 60.0095 87.6009 59.9871 87.3867V87.3642C59.6735 84.8508 59.3823 82.3262 59.0911 79.8129L58.6654 76.0372L58.251 72.2616L57.8366 68.486L57.4334 64.7103L57.0413 60.9121L56.6605 57.1252L58.0718 57.1816L57.1533 61.8138L56.2125 66.446L55.2492 71.0669C54.9244 72.611 54.6108 74.1551 54.2747 75.6879V75.7104C54.2299 75.9358 54.0283 76.0823 53.8155 76.0711L49.8616 75.9809C48.5399 75.9471 47.2294 75.9133 45.9077 75.8682C44.5861 75.8344 43.2756 75.7893 41.9539 75.7442C40.6322 75.7217 39.3217 75.6653 38 75.609Z" fill="#29BC13"/>
<path d="M163.023 75.6088C164.345 75.5524 165.655 75.4961 166.977 75.451C168.299 75.4059 169.609 75.3608 170.931 75.327C172.252 75.2932 173.563 75.2481 174.885 75.2143L178.838 75.1242L178.39 75.451C178.659 74.5268 178.928 73.6026 179.208 72.6784L180.037 69.9059C180.317 68.9817 180.597 68.0575 180.877 67.1446L181.728 64.3833C181.84 64.0114 182.232 63.8085 182.602 63.9212C182.86 64.0001 183.039 64.2255 183.084 64.4735V64.4847L183.509 67.1108C183.655 67.9899 183.789 68.8577 183.924 69.7368C184.204 71.4838 184.461 73.242 184.719 74.9889C184.976 76.7359 185.223 78.4941 185.469 80.241C185.716 81.9992 185.951 83.7461 186.164 85.5044L185.066 85.3466L186.007 83.4193C186.321 82.7769 186.634 82.1345 186.948 81.492L187.9 79.576C188.214 78.9336 188.538 78.2912 188.863 77.66C189.199 77.0289 189.479 76.3639 189.782 75.7215L190.666 73.7717L192.436 69.8721C192.492 69.7481 192.627 69.703 192.75 69.7594C192.806 69.7819 192.851 69.8383 192.873 69.8833L194.945 75.1242L194.788 75.0227C195.494 75.0453 196.188 75.0678 196.894 75.1016L199 75.1918L196.894 75.2819C196.188 75.3158 195.494 75.3383 194.788 75.3608C194.721 75.3608 194.665 75.327 194.643 75.2707V75.2594L192.436 70.0749L192.873 70.0862L191.171 74.0196L190.319 75.992C190.039 76.6457 189.748 77.2994 189.479 77.9643C189.21 78.6293 188.93 79.283 188.65 79.948L187.81 81.9203C187.53 82.5853 187.25 83.239 186.97 83.8927L186.119 85.865C185.996 86.158 185.649 86.2933 185.357 86.1693C185.178 86.0904 185.055 85.9326 185.021 85.741L185.01 85.7072C184.696 83.9603 184.405 82.2133 184.114 80.4777C183.823 78.7307 183.543 76.9838 183.263 75.2369C182.994 73.4899 182.714 71.743 182.456 69.9848C182.322 69.1057 182.199 68.2378 182.064 67.3587L181.683 64.7327L183.039 64.8454L182.12 67.5842C181.807 68.4971 181.504 69.41 181.179 70.3229L180.227 73.0504C179.914 73.9633 179.6 74.8762 179.264 75.7779L179.253 75.8004C179.186 75.992 179.006 76.1047 178.816 76.1047L174.862 76.0145C173.54 75.9807 172.23 75.9469 170.908 75.9018C169.587 75.868 168.276 75.8229 166.954 75.7779C165.655 75.7215 164.345 75.6651 163.023 75.6088Z" fill="#29BC13"/>
<path d="M96.7707 140.325C98.1148 147.211 98.7981 163.204 90.8007 166.394C89.8934 166.754 88.9526 166.878 88.0117 166.799C88.8406 167.306 89.759 167.633 90.7671 167.712C100.926 168.512 108.722 148.169 108.957 144.393L96.7707 140.325Z" fill="#7D659F"/>
<path d="M90.8004 166.405C98.7977 163.215 98.1145 147.222 96.7704 140.336L90.8116 138.341L80.1372 139.783C80.2716 143.92 80.8765 162.437 88.0002 166.81C88.9522 166.889 89.8819 166.765 90.8004 166.405Z" fill="#8F73B0"/>
<path d="M172.42 90.1593C171.323 61.0023 158.263 41.6958 147.835 29.997C143.254 24.8463 139.076 20 134.047 20C130.384 20 128.312 21.8258 126.509 23.9898C123.966 27.0216 121.95 28.3628 116.685 28.4755C112.362 28.5769 110.861 27.0103 108.352 24.0011C107.008 22.3781 105.384 20.6875 102.819 20.6762C96.6921 20.6537 91.2037 26.6496 88.0003 31.5411C83.0383 39.1374 71.2887 59.2216 71.3111 81.233C71.3223 86.8683 70.7744 92.1362 70.7744 97.8253C70.7968 98.3663 70.7744 98.4597 70.7744 99.2735C69.5871 114.872 71.6135 128.829 75.937 135.208C88.8067 154.21 123.159 154.48 155.944 144.957C156.616 144.765 157.266 144.517 157.904 144.235C160.996 142.849 163.493 140.482 164.983 137.507C168.982 129.527 173.294 113.613 172.42 90.1593Z" fill="#8F73B0"/>
<path d="M149.526 142.793L135.01 147.132L132.03 150.04C133.811 155.168 139.344 169.313 146.401 169.966C147.308 170.045 148.249 169.966 149.212 169.73C154.275 164.973 156.056 153.455 149.526 142.793Z" fill="#8F73B0"/>
<path d="M161.892 139.107L149.526 142.804C156.056 153.455 154.275 164.973 149.224 169.741C157.322 167.791 166.215 155.055 161.892 139.107Z" fill="#7D659F"/>
<path d="M145.864 142.793C143.467 144.066 135.144 149.465 134.036 149.769C136.701 149.127 153.29 145.723 155.944 144.957C156.616 144.765 157.266 144.517 157.904 144.235C160.996 142.849 163.494 140.482 164.983 137.507C168.982 129.527 173.294 113.613 172.421 90.1593C171.323 61.0023 158.263 41.6958 147.835 29.997C143.254 24.8463 139.076 20 134.047 20C133.778 20 133.509 20.0113 133.251 20.0338C136.668 21.7244 139.804 25.3986 143.153 29.2306C153.57 41.1323 166.607 60.7656 167.694 90.4185C168.567 114.278 162.396 123.182 158.408 131.308C156.919 134.329 150.075 140.674 146.984 142.072L145.864 142.793Z" fill="#7D659F"/>
<path d="M104.768 92.5938C112.865 92.5938 119.43 85.9885 119.43 77.8406C119.43 69.6926 112.865 63.0874 104.768 63.0874C96.6703 63.0874 90.106 69.6926 90.106 77.8406C90.106 85.9885 96.6703 92.5938 104.768 92.5938Z" fill="white"/>
<path d="M108.901 82.8787C112.916 82.8787 116.17 79.6038 116.17 75.5641C116.17 71.5244 112.916 68.2495 108.901 68.2495C104.886 68.2495 101.632 71.5244 101.632 75.5641C101.632 79.6038 104.886 82.8787 108.901 82.8787Z" fill="#040000"/>
<path d="M131.213 92.0864C139.23 92.0864 145.729 85.5467 145.729 77.4797C145.729 69.4127 139.23 62.873 131.213 62.873C123.196 62.873 116.697 69.4127 116.697 77.4797C116.697 85.5467 123.196 92.0864 131.213 92.0864Z" fill="white"/>
<path d="M127.662 82.4617C131.677 82.4617 134.932 79.1869 134.932 75.1471C134.932 71.1074 131.677 67.8325 127.662 67.8325C123.648 67.8325 120.393 71.1074 120.393 75.1471C120.393 79.1869 123.648 82.4617 127.662 82.4617Z" fill="#040000"/>
<path d="M106.762 74.0875C107.108 74.0875 107.389 73.8049 107.389 73.4563C107.389 73.1078 107.108 72.8252 106.762 72.8252C106.415 72.8252 106.134 73.1078 106.134 73.4563C106.134 73.8049 106.415 74.0875 106.762 74.0875Z" fill="white"/>
<path d="M125.904 73.4449C126.25 73.4449 126.531 73.1623 126.531 72.8138C126.531 72.4652 126.25 72.1826 125.904 72.1826C125.557 72.1826 125.276 72.4652 125.276 72.8138C125.276 73.1623 125.557 73.4449 125.904 73.4449Z" fill="white"/>
<path d="M106.157 95.4116C108.576 92.9208 127.45 92.6616 129.947 94.8481C131.952 96.6063 127.102 103.571 118.131 103.808C107.949 104.079 104.824 96.7866 106.157 95.4116Z" fill="#222222"/>
<path d="M118.131 103.808C121.838 103.706 124.829 102.455 126.934 100.9C124.963 99.5136 122.073 98.488 118.142 98.5894C114.434 98.6909 111.444 99.9419 109.338 101.497C111.309 102.872 114.188 103.909 118.131 103.808Z" fill="#D05E53"/>
<path d="M112.956 93.6643C113.18 94.8026 114.322 96.6172 115.767 96.5158C117.01 96.4256 117.727 95.5916 118.007 94.9153C118.086 94.7237 118.354 94.6899 118.489 94.859C119.06 95.5578 119.743 96.2903 120.919 96.1326C121.759 96.0199 122.476 94.4871 122.823 93.4502C119.676 93.2811 116.058 93.36 112.956 93.6643Z" fill="white"/>
<path d="M88.1011 120.207C88.1011 120.207 122.991 127.995 119.508 112.295C116.26 97.6769 90.7669 114.808 90.7669 114.808" fill="#7D659F"/>
<path d="M106.303 119.181L86.0292 101.847C84.9315 100.911 84.7971 99.2431 85.7267 98.1386L95.8522 86.1467C96.7819 85.0422 98.4396 84.9069 99.5373 85.8424L119.811 103.177C120.908 104.112 121.043 105.78 120.113 106.885L109.988 118.876C109.047 119.992 107.4 120.127 106.303 119.181Z" fill="white"/>
<path d="M119.072 106.907L109.831 117.851C108.935 118.921 107.344 119.045 106.28 118.144L87.0485 101.7C85.9845 100.798 85.8612 99.1979 86.7573 98.1272L95.998 87.1835C96.894 86.1128 98.4845 85.9888 99.5486 86.8904L118.78 103.334C119.833 104.236 119.968 105.836 119.072 106.907Z" fill="#DFCCD2"/>
<path d="M103.39 102.602C103.637 102.309 103.894 101.959 104.152 101.576C106.583 97.9356 105.709 94.3178 105.25 93.619C105.082 93.3598 104.813 93.2133 104.499 93.202C104.04 93.1907 103.57 93.4725 103.2 93.9797C102.909 94.3741 102.73 94.994 102.517 95.7266C102.248 96.6621 101.934 97.7328 101.307 98.6119C100.534 99.7051 99.067 100.629 98.7421 100.787C98.3165 100.99 97.8013 101.114 97.6333 100.967C97.5549 100.9 97.4765 100.81 97.3869 100.731C97.2076 100.539 97.0172 100.336 96.7932 100.302C96.446 100.246 96.2108 100.269 95.7739 101.069C95.7627 101.08 95.7627 101.091 95.7627 101.103C95.7515 101.182 95.6171 101.88 96.0428 102.027C96.1548 102.072 96.2892 102.106 96.4012 102.128C96.6028 102.185 96.838 102.241 96.9164 102.32C96.95 102.342 97.0284 102.489 97.0956 102.613C97.3981 103.131 97.9133 103.999 98.5741 104.225L98.6413 104.247C99.4702 104.518 101.251 105.138 103.39 102.602ZM98.6749 103.965C98.1037 103.774 97.5997 102.928 97.342 102.466C97.2188 102.252 97.1628 102.162 97.1068 102.106C96.9836 101.993 96.7372 101.937 96.4908 101.869C96.3788 101.835 96.2556 101.801 96.1436 101.768C95.9868 101.711 95.998 101.351 96.0316 101.17C96.4012 100.494 96.5468 100.517 96.7596 100.55C96.894 100.573 97.0508 100.742 97.2076 100.9C97.286 100.99 97.3757 101.08 97.4653 101.159C97.8013 101.452 98.5517 101.159 98.8542 101.012C99.2126 100.855 100.713 99.908 101.531 98.7584C102.181 97.8455 102.494 96.7522 102.774 95.7942C102.976 95.0954 103.155 94.4868 103.413 94.1374C103.726 93.7092 104.119 93.4612 104.499 93.4725C104.723 93.4725 104.914 93.5852 105.037 93.7655C105.295 94.16 106.459 97.6539 103.939 101.43C101.576 104.968 99.5934 104.281 98.7421 103.988L98.6749 103.965Z" fill="#760517"/>
<path d="M102.651 100.866C102.943 100.517 103.234 100.111 103.514 99.6151C104.892 97.1919 104.992 95.0731 104.992 94.9829C104.992 94.9153 104.936 94.8477 104.869 94.8477C104.802 94.8477 104.735 94.904 104.735 94.9716C104.735 94.9942 104.634 97.1243 103.29 99.4911C101.296 102.996 98.8879 102.354 98.7759 102.331C98.7087 102.309 98.6303 102.354 98.6079 102.421C98.5855 102.489 98.6303 102.568 98.6975 102.591C98.7199 102.579 100.747 103.132 102.651 100.866Z" fill="#760517"/>
<path d="M113.684 100.314C113.023 100.066 112.082 100.404 111.522 100.607C111.388 100.652 111.231 100.708 111.198 100.708C111.086 100.708 110.873 100.607 110.682 100.528C110.57 100.472 110.447 100.427 110.335 100.382C109.91 100.224 109.573 100.844 109.54 100.911C109.529 100.923 109.529 100.934 109.529 100.945C109.349 101.847 109.529 102.016 109.82 102.196C110.022 102.309 110.29 102.275 110.548 102.241C110.66 102.23 110.783 102.207 110.884 102.207C111.108 102.207 111.422 102.636 111.623 103.064C111.78 103.391 112.329 105.048 112.228 106.377C112.15 107.459 111.713 108.474 111.332 109.375C111.041 110.074 110.783 110.672 110.75 111.156C110.716 111.776 110.906 112.306 111.265 112.588C111.511 112.779 111.814 112.847 112.105 112.757C112.474 112.644 113.315 112.103 114.155 111.111C115.118 109.973 116.07 108.248 116.294 105.915C116.731 101.464 114.636 100.675 113.74 100.336L113.684 100.314ZM116.048 105.893C115.599 110.424 112.497 112.373 112.049 112.509C111.836 112.576 111.623 112.531 111.444 112.385C111.153 112.159 111.007 111.708 111.03 111.179C111.052 110.739 111.298 110.164 111.59 109.488C111.982 108.564 112.418 107.527 112.508 106.4C112.609 104.991 112.038 103.301 111.87 102.951C111.724 102.647 111.332 101.937 110.884 101.948C110.761 101.948 110.638 101.971 110.514 101.982C110.302 102.004 110.078 102.038 109.954 101.971C109.764 101.858 109.63 101.79 109.786 101.024C109.876 100.866 110.1 100.573 110.257 100.629C110.358 100.675 110.481 100.72 110.593 100.776C110.828 100.889 111.052 100.99 111.22 100.99C111.287 100.99 111.399 100.956 111.634 100.866C112.127 100.686 113.046 100.359 113.617 100.573L113.684 100.596C114.502 100.9 116.462 101.633 116.048 105.893Z" fill="#760517"/>
<path d="M112.553 101.711C112.519 101.779 112.553 101.858 112.62 101.88C112.721 101.926 114.983 102.974 114.311 106.952C113.852 109.635 112.586 111.348 112.575 111.359C112.53 111.415 112.542 111.506 112.598 111.539C112.654 111.584 112.732 111.573 112.777 111.517C112.777 111.517 112.777 111.517 112.777 111.506C112.833 111.438 114.098 109.725 114.569 106.986C115.286 102.793 112.754 101.633 112.732 101.621C112.665 101.61 112.586 101.644 112.553 101.711Z" fill="#760517"/>
<path d="M89.6808 99.1417C90.4088 98.9501 91.0361 98.7923 91.4393 98.5218C91.6185 98.3978 91.7753 98.2626 91.8985 98.116C92.1225 97.8455 92.2569 97.5412 92.2569 97.2482C92.2569 96.9326 92.1225 96.6509 91.8761 96.4705C91.5065 96.2113 90.3192 95.7943 88.7063 95.8281L88.4823 96.0986C90.2408 96.0197 91.4953 96.5269 91.7193 96.6847C91.8985 96.8199 91.9993 97.0115 91.9881 97.2369C91.9881 97.6089 91.7305 98.0033 91.2825 98.2964C90.924 98.5443 90.308 98.7021 89.6136 98.8824C88.6503 99.1304 87.5638 99.4121 86.623 100.032C86.4885 100.122 86.3541 100.224 86.2197 100.336C86.2421 100.427 86.2645 100.528 86.2981 100.618C86.4549 100.494 86.6118 100.37 86.7686 100.257C87.6646 99.6601 88.7399 99.3783 89.6808 99.1417Z" fill="#760517"/>
<path d="M90.4984 96.9438C90.5432 96.9438 90.5768 96.9213 90.5992 96.8988C90.6216 96.8762 90.6328 96.8424 90.6328 96.8086C90.6328 96.741 90.5768 96.6733 90.4984 96.6733C90.4312 96.6733 89.1655 96.6846 87.4629 97.282L87.1157 97.699C88.9975 96.9664 90.4872 96.9438 90.4984 96.9438Z" fill="#760517"/>
<path d="M91.8647 92.8079C91.9543 92.8304 92.0328 92.8529 92.0776 92.898C92.1336 92.9769 92.0664 93.2925 91.9207 93.5404C91.6295 94.0251 91.5063 94.69 91.8311 94.9718C91.8535 94.9944 91.8871 95.0056 91.9095 95.0169C91.8647 95.4339 91.9207 95.8509 92.0888 96.2905C92.5368 97.4964 93.5897 98.4319 95.001 98.8714C96.2443 99.2659 97.5211 99.1532 98.3276 98.5897C98.4508 98.4995 98.5628 98.3981 98.6636 98.2854C99.0668 97.812 99.2685 97.0794 99.2461 96.1778C99.2013 94.5999 98.4732 92.8755 97.6219 92.3458C96.7931 91.8273 95.9642 91.6244 95.1802 91.7597C95.1466 91.7372 95.113 91.7146 95.057 91.6921C94.5641 91.5117 93.6793 91.6132 93.0744 92.1091L93.0184 92.1542C92.772 92.3458 92.772 92.3458 92.6488 92.2894C92.6152 92.2781 92.5704 92.1429 92.548 92.0753C92.5032 91.9288 92.4584 91.7822 92.324 91.7484C92.2456 91.7259 92.156 91.7484 92.0776 91.816L91.4951 92.5148C91.5063 92.5486 91.5175 92.5937 91.5399 92.6275C91.6183 92.7402 91.7527 92.7853 91.8647 92.8079ZM95.225 92.0415C95.953 91.9288 96.7035 92.1203 97.4763 92.5937C98.2492 93.0783 98.9324 94.7351 98.9772 96.2116C98.9996 97.2372 98.7196 98.0149 98.1708 98.3981C97.4315 98.9165 96.2443 99.0067 95.0682 98.646C93.7577 98.2403 92.7384 97.3274 92.324 96.2228C92.1784 95.8171 92.1224 95.4226 92.1672 95.0507C92.1672 95.0394 92.1672 95.0282 92.1672 95.0169C92.4024 94.8704 92.6376 94.4646 92.7608 94.228C93.0744 94.3745 93.7801 94.6675 94.0153 94.3068C94.1945 94.0476 94.0489 93.6982 93.9145 93.4503C94.2617 93.4954 94.7321 93.5179 94.9002 93.3376C94.9002 93.3376 94.9002 93.3376 94.9002 93.3263C94.945 93.2699 94.9674 93.2023 94.9562 93.1234C94.9338 92.9206 94.7097 92.6839 94.5417 92.5374C94.8554 92.3908 95.1466 92.2218 95.225 92.0415ZM92.1112 92.1429C92.156 92.1091 92.2008 92.0753 92.2456 92.0415C92.2456 92.0415 92.2568 92.0415 92.2568 92.0302C92.2792 92.064 92.2904 92.1316 92.3128 92.1654C92.3576 92.312 92.4136 92.4697 92.548 92.5374C92.8168 92.6613 92.8952 92.5937 93.1864 92.357L93.2312 92.3119C93.7689 91.8837 94.5417 91.7935 94.9674 91.94H94.9786C94.9002 92.0415 94.5865 92.2218 94.2617 92.357C94.2169 92.3796 94.1833 92.4134 94.1833 92.4585C94.1721 92.5036 94.1945 92.5486 94.2393 92.5824C94.5305 92.8079 94.7321 93.0558 94.7209 93.1234C94.6537 93.2023 94.1497 93.1911 93.6793 93.1009C93.6345 93.0896 93.5785 93.1122 93.5561 93.146C93.5561 93.146 93.5449 93.1572 93.5449 93.1685C93.5113 93.2136 93.5225 93.2812 93.5561 93.315C93.6681 93.4616 93.9705 93.9124 93.8249 94.1152C93.7129 94.273 93.1528 94.0814 92.7944 93.8898C92.7608 93.8786 92.7272 93.8673 92.6936 93.8786C92.66 93.8898 92.6264 93.9124 92.6152 93.9462C92.4136 94.3632 92.1224 94.7577 92.0216 94.7577C91.8423 94.5999 91.8983 94.0927 92.1672 93.6644C92.268 93.4954 92.5032 92.9769 92.3016 92.7177C92.212 92.605 92.0776 92.5712 91.9544 92.5374C91.8759 92.5148 91.7975 92.4923 91.7639 92.4585C91.7751 92.4021 91.988 92.2443 92.1112 92.1429Z" fill="#760517"/>
<path d="M111.578 98.2852C111.567 98.2852 111.556 98.2965 111.545 98.3078C111.309 98.1613 110.85 98.1275 110.581 98.1275C110.57 97.7781 110.514 97.0117 110.088 96.9553C109.775 96.9102 109.528 97.2033 109.383 97.4287C109.271 97.1018 109.08 96.6623 108.845 96.5947C108.778 96.5721 108.7 96.5834 108.632 96.6285C108.464 96.7299 108.352 97.0455 108.296 97.2709C108.027 97.0568 107.736 96.8764 107.546 96.8877C107.12 96.2904 106.952 95.524 107.031 94.6111C107.053 94.318 107.199 93.9686 107.423 93.6193L107.221 93.4502C106.963 93.8447 106.807 94.2391 106.773 94.5885C106.683 95.5691 106.874 96.3918 107.344 97.0568C107.333 97.0906 107.333 97.1357 107.333 97.192C107.4 97.7217 107.882 98.4656 108.588 98.7924L108.644 98.815C108.924 98.9502 108.924 98.9502 108.935 99.0855C108.935 99.1193 108.834 99.2207 108.789 99.2658C108.688 99.3672 108.576 99.4799 108.599 99.6152C108.61 99.6941 108.677 99.7617 108.778 99.8068C108.823 99.8293 108.879 99.8519 108.924 99.8744C109.192 100.01 109.439 100.122 109.596 100.055C109.652 100.032 109.708 99.9871 109.73 99.9307C109.786 99.8068 109.764 99.6715 109.73 99.5588C109.708 99.4687 109.696 99.3785 109.719 99.3334C109.752 99.2432 110.077 99.1643 110.357 99.1869C110.816 99.2207 111.332 99.108 111.567 98.8262C111.623 98.7699 111.657 98.691 111.679 98.6234C111.69 98.5896 111.69 98.5557 111.69 98.5332C111.993 98.4205 112.273 98.2402 112.53 98.0035L112.329 97.8344C112.093 98.026 111.847 98.1838 111.578 98.2852ZM111.433 98.5445C111.377 98.7812 110.895 98.9502 110.391 98.9164C110.223 98.9051 109.73 98.9277 109.54 99.1418C109.517 99.1644 109.506 99.1869 109.495 99.2094C109.439 99.3447 109.461 99.4799 109.484 99.6039C109.495 99.6828 109.517 99.7617 109.506 99.8068C109.428 99.818 109.192 99.7053 109.047 99.6377C108.991 99.6152 108.946 99.5926 108.901 99.5701H108.89C108.912 99.5363 108.957 99.4912 108.991 99.4574C109.103 99.356 109.226 99.232 109.215 99.0742C109.204 98.7812 109.114 98.7361 108.767 98.5783L108.711 98.5557C108.095 98.2627 107.658 97.609 107.602 97.1582V97.1469C107.725 97.1807 108.027 97.3723 108.296 97.609C108.33 97.6428 108.386 97.6541 108.431 97.6316C108.475 97.6203 108.509 97.5752 108.52 97.5301C108.576 97.2033 108.711 96.8652 108.789 96.8539C108.89 96.8877 109.103 97.3385 109.237 97.8006C109.248 97.857 109.293 97.8908 109.349 97.9021C109.405 97.9021 109.461 97.8795 109.484 97.8232C109.562 97.6541 109.831 97.1807 110.077 97.2145C110.268 97.2371 110.346 97.8344 110.335 98.2514C110.335 98.2852 110.346 98.3191 110.368 98.3529C110.391 98.3754 110.424 98.398 110.458 98.398C110.906 98.3754 111.388 98.4543 111.433 98.5445Z" fill="#760517"/>
<path d="M103.11 113.884C103.514 113.41 103.715 112.678 103.693 111.776C103.648 110.198 102.92 108.474 102.069 107.944C101.24 107.425 100.411 107.223 99.6268 107.358C99.5932 107.335 99.5596 107.313 99.5036 107.29C99.0108 107.11 98.1259 107.211 97.5211 107.707L97.4651 107.752C97.2187 107.944 97.2187 107.944 97.0955 107.888C97.0619 107.876 97.0171 107.741 96.9947 107.673C96.9499 107.527 96.9051 107.38 96.7706 107.347C96.6922 107.324 96.6026 107.347 96.5242 107.414C96.4794 107.448 96.4458 107.482 96.401 107.516C96.1658 107.707 95.953 107.865 95.9306 108.045C95.9194 108.113 95.9418 108.169 95.9866 108.226C96.0762 108.327 96.1994 108.372 96.3226 108.395C96.4122 108.417 96.4906 108.44 96.5354 108.485C96.5914 108.564 96.5242 108.879 96.3786 109.127C96.3114 109.251 96.2442 109.375 96.1994 109.511L96.4122 109.691C96.457 109.544 96.513 109.398 96.6026 109.263C96.7034 109.094 96.9387 108.575 96.737 108.316C96.6474 108.203 96.513 108.169 96.3898 108.136C96.3114 108.113 96.233 108.09 96.1994 108.057C96.233 107.978 96.4346 107.82 96.5578 107.718C96.6026 107.685 96.6474 107.651 96.6922 107.617C96.6922 107.617 96.7034 107.617 96.7034 107.606C96.7258 107.64 96.737 107.707 96.7594 107.741C96.8042 107.888 96.8603 108.045 96.9947 108.113C97.2635 108.237 97.3419 108.169 97.6331 107.933L97.6779 107.888C98.2155 107.459 98.9884 107.369 99.414 107.516H99.4252C99.3468 107.617 99.0332 107.797 98.7084 107.933C98.6636 107.955 98.63 107.989 98.63 108.034C98.6188 108.079 98.6412 108.124 98.686 108.158C98.9772 108.383 99.1788 108.631 99.1676 108.699C99.1004 108.778 98.5964 108.767 98.1259 108.676C98.0811 108.665 98.0251 108.688 98.0027 108.722C98.0027 108.722 97.9915 108.733 97.9915 108.744C97.9579 108.789 97.9691 108.857 98.0027 108.891C98.1147 109.037 98.4172 109.488 98.2715 109.691C98.1707 109.849 97.5995 109.657 97.2411 109.465C97.2075 109.454 97.1739 109.443 97.1403 109.454C97.1067 109.465 97.0731 109.488 97.0619 109.522C96.9835 109.691 96.8827 109.849 96.793 109.984L96.9947 110.153C97.0955 110.018 97.1739 109.871 97.2299 109.758C97.5435 109.905 98.2491 110.198 98.4844 109.837C98.6636 109.578 98.518 109.229 98.3836 108.981C98.7308 109.026 99.2012 109.048 99.3692 108.868C99.3692 108.868 99.3692 108.868 99.3692 108.857C99.414 108.8 99.4364 108.733 99.4252 108.654C99.4028 108.451 99.1788 108.214 99.0108 108.068C99.3132 107.921 99.6044 107.741 99.694 107.561C100.422 107.448 101.173 107.64 101.945 108.113C102.718 108.598 103.402 110.254 103.446 111.731C103.469 112.756 103.189 113.534 102.64 113.917C102.416 114.075 102.136 114.199 101.845 114.278L102.08 114.481C102.337 114.402 102.584 114.278 102.785 114.131C102.897 114.098 103.009 113.996 103.11 113.884Z" fill="#760517"/>
<path d="M94.6429 107.302C95.5726 106.197 95.2589 103.988 94.3741 102.624C93.8476 101.824 93.198 101.463 92.5708 101.599C92.5596 101.587 92.5036 101.565 92.4252 101.542C92.6044 101.238 92.9964 100.427 92.4812 99.7165C92.4476 99.6714 92.3916 99.6489 92.3355 99.6714L91.5963 99.8743C91.5515 99.8856 91.5179 99.9194 91.5067 99.9645C91.4955 100.01 91.5067 100.055 91.5291 100.088C91.5403 100.1 92.1115 100.776 91.8203 101.441C91.4507 101.43 90.9691 101.509 90.4314 101.835C89.8378 102.185 89.4234 102.827 89.2441 103.571L89.4682 103.763C89.6138 103.041 89.9946 102.399 90.5658 102.061C91.2827 101.644 91.8651 101.678 92.1787 101.745C91.5403 102.072 91.2043 102.703 91.1931 103.571C91.1819 104.236 91.3947 105.002 91.7195 105.679L92.3355 106.208C91.8315 105.431 91.4731 104.405 91.4843 103.571C91.4843 103.177 91.5739 102.703 91.8763 102.343C92.0219 102.174 92.2123 102.027 92.4812 101.926C93.254 101.621 93.8925 102.421 94.1277 102.782C94.9901 104.089 95.2589 106.253 94.3517 107.2C94.1837 107.381 93.9821 107.448 93.7468 107.414L94.0605 107.685C94.2397 107.64 94.4077 107.55 94.5533 107.403C94.5869 107.369 94.6093 107.335 94.6429 107.302ZM92.1563 101.475C92.1339 101.475 92.1227 101.463 92.1003 101.463C92.3019 100.889 92.0331 100.348 91.8539 100.077L92.3131 99.9532C92.694 100.573 92.2683 101.306 92.1563 101.475Z" fill="#760517"/>
<path d="M98.227 86.8231C97.2301 87.9276 97.611 90.2155 98.5854 91.5905C99.1455 92.3682 99.7951 92.7063 100.422 92.5485C100.434 92.5485 100.49 92.5823 100.568 92.6049C100.4 92.9204 100.042 93.7432 100.579 94.4307C100.613 94.4758 100.669 94.487 100.725 94.4758L101.453 94.2391C101.475 94.2278 101.498 94.2166 101.509 94.194C101.52 94.1827 101.531 94.1602 101.531 94.1377C101.542 94.0926 101.531 94.0475 101.498 94.0137C101.486 94.0024 100.893 93.3487 101.162 92.6725C101.531 92.6725 102.002 92.5711 102.539 92.2217C102.73 92.0977 102.898 91.9512 103.043 91.7708C103.357 91.3989 103.57 90.9255 103.671 90.4071L103.447 90.2155C103.335 90.9594 102.976 91.6356 102.405 91.9963C101.71 92.4471 101.128 92.4358 100.803 92.3682C100.982 92.2667 101.139 92.1315 101.274 91.985C101.576 91.6243 101.733 91.1284 101.71 90.5085C101.688 89.7083 101.363 88.7954 100.893 88.0403L99.5375 86.8794C99.3247 86.6991 99.1007 86.5638 98.8543 86.4624C98.8207 86.4737 98.7871 86.4849 98.7647 86.4962C98.563 86.5526 98.3838 86.654 98.227 86.8231ZM101.184 94.0362L100.736 94.1827C100.333 93.5741 100.736 92.8303 100.837 92.6612C100.859 92.6612 100.87 92.6612 100.893 92.6725C100.702 93.2473 101.005 93.7883 101.184 94.0362ZM101.43 90.5311C101.442 91.1059 101.296 91.861 100.501 92.2104C99.7391 92.5485 99.0783 91.7708 98.8207 91.4215C97.9134 90.1479 97.5662 87.9839 98.4398 87.0147C98.6638 86.7667 98.9439 86.7104 99.2687 86.8343C100.277 87.2175 101.386 89.111 101.43 90.5311Z" fill="#760517"/>
<path d="M110.313 114.549C109.775 113.095 108.05 111.889 105.877 112.43C105.675 112.452 105.485 112.531 105.306 112.689C104.309 113.591 104.343 115.563 104.97 117.006L105.563 117.513C105.519 117.445 105.474 117.377 105.44 117.321C104.667 115.957 104.522 113.782 105.496 112.903C105.743 112.678 106.023 112.655 106.336 112.802C107.3 113.275 108.218 115.281 108.117 116.69C108.072 117.265 107.848 118.009 107.02 118.279C106.829 118.347 106.65 118.335 106.482 118.29C107.535 119.012 108.98 118.843 109.82 117.84L109.932 117.704C110.525 116.87 110.705 115.631 110.313 114.549ZM108.946 118.268C108.207 118.64 107.636 118.572 107.322 118.482C107.568 118.369 107.781 118.223 107.938 118.02C108.207 117.693 108.375 117.254 108.408 116.724C108.52 115.214 107.568 113.162 106.516 112.587C108.263 112.407 109.607 113.433 110.055 114.639C110.581 116.036 110.066 117.693 108.946 118.268Z" fill="#760517"/>
<path d="M109.372 109.319C109.405 109.285 109.428 109.251 109.461 109.218C110.391 108.113 110.077 105.904 109.192 104.54C108.666 103.74 108.016 103.379 107.389 103.515C107.378 103.503 107.322 103.481 107.243 103.458C107.423 103.154 107.815 102.343 107.299 101.633C107.266 101.587 107.21 101.565 107.154 101.587L106.415 101.79C106.37 101.802 106.336 101.835 106.325 101.88C106.314 101.926 106.325 101.971 106.347 102.004C106.359 102.016 106.93 102.692 106.639 103.357C106.269 103.346 105.787 103.425 105.25 103.751C104.062 104.461 103.603 106.299 104.253 107.775C104.88 109.195 106.672 110.288 108.812 109.612C109.013 109.59 109.204 109.488 109.372 109.319ZM106.672 102.004L107.131 101.88C107.512 102.5 107.087 103.233 106.975 103.402C106.952 103.402 106.941 103.391 106.919 103.391C107.131 102.816 106.851 102.264 106.672 102.004ZM104.499 107.674C103.906 106.31 104.309 104.619 105.395 103.977C106.112 103.56 106.695 103.594 107.008 103.661C106.37 103.988 106.034 104.619 106.023 105.487C106.011 106.997 107.075 108.992 108.162 109.499C106.426 109.804 105.015 108.857 104.499 107.674ZM106.303 105.498C106.303 105.104 106.392 104.631 106.695 104.27C106.84 104.101 107.031 103.954 107.299 103.853C108.072 103.549 108.711 104.349 108.946 104.709C109.808 106.017 110.077 108.181 109.17 109.127C108.935 109.364 108.655 109.409 108.33 109.274C107.333 108.857 106.291 106.918 106.303 105.498Z" fill="#760517"/>
<path opacity="0.3" d="M118.052 108.958L102.685 84.9521C102.685 84.9521 97.0618 86.7442 96.8266 89.3139C96.7594 89.9901 97.7115 91.8497 99.134 94.194C95.7625 95.2873 86.6787 102.095 86.6787 102.095L101.598 98.0711C105.63 104.191 110.749 111.156 110.749 111.156L118.052 108.958Z" fill="#282021"/>
<path d="M109.73 110.322L98.2157 86.192C97.5884 84.8846 98.1373 83.3067 99.4366 82.6869L113.527 75.8682C114.826 75.237 116.395 75.7893 117.011 77.0967L128.536 101.227C129.163 102.534 128.615 104.112 127.315 104.732L113.225 111.551C111.914 112.182 110.357 111.63 109.73 110.322Z" fill="white"/>
<path d="M126.363 104.326L113.494 110.548C112.239 111.156 110.738 110.626 110.133 109.364L99.2015 86.4736C98.5967 85.2113 99.1231 83.701 100.378 83.0924L113.236 76.8711C114.491 76.2625 115.992 76.7922 116.596 78.0545L127.528 100.945C128.144 102.207 127.618 103.718 126.363 104.326Z" fill="#DFCCD2"/>
<path d="M113.785 93.9802C114.132 93.8111 114.502 93.6082 114.894 93.3603C118.59 91.0273 119.251 87.3643 119.116 86.5303C119.06 86.226 118.881 85.9781 118.59 85.8428C118.176 85.6512 117.627 85.7076 117.089 86.0231C116.663 86.2598 116.249 86.767 115.767 87.3418C115.14 88.0857 114.423 88.9309 113.505 89.4832C112.351 90.1707 110.637 90.4074 110.279 90.4187C109.809 90.4187 109.282 90.3398 109.193 90.1369C109.148 90.0355 109.103 89.9228 109.069 89.8213C108.98 89.5734 108.89 89.3142 108.7 89.1902C108.409 88.9986 108.185 88.9197 107.456 89.4832C107.445 89.4945 107.434 89.5057 107.434 89.517C107.389 89.5846 106.986 90.1707 107.322 90.475C107.412 90.5539 107.512 90.6441 107.613 90.723C107.781 90.8582 107.96 91.0047 108.005 91.1062C108.016 91.14 108.039 91.309 108.05 91.4443C108.117 92.0416 108.241 93.0447 108.756 93.5181L108.812 93.5631C109.417 94.1267 110.794 95.4228 113.785 93.9802ZM108.924 93.2927C108.476 92.8756 108.364 91.9064 108.308 91.3767C108.274 91.1287 108.263 91.016 108.229 90.9484C108.162 90.7906 107.96 90.6441 107.759 90.475C107.669 90.3961 107.568 90.3172 107.479 90.2383C107.356 90.1256 107.512 89.7988 107.613 89.641C108.229 89.1676 108.353 89.2465 108.532 89.3705C108.644 89.4494 108.722 89.6635 108.801 89.8777C108.845 89.9904 108.879 90.1144 108.935 90.2271C109.125 90.6328 109.932 90.6666 110.268 90.6666C110.66 90.6666 112.407 90.4187 113.628 89.6973C114.591 89.1226 115.319 88.266 115.958 87.4996C116.428 86.9473 116.831 86.4627 117.212 86.2486C117.672 85.9781 118.131 85.9217 118.467 86.0795C118.668 86.1809 118.803 86.35 118.848 86.5754C118.926 87.0488 118.579 90.7117 114.748 93.1349C111.153 95.4002 109.618 93.9689 108.969 93.349L108.924 93.2927Z" fill="#760517"/>
<path d="M113.796 92.0977C114.2 91.9061 114.636 91.6469 115.096 91.3088C117.336 89.6633 118.277 87.7586 118.321 87.6797C118.355 87.612 118.321 87.5331 118.265 87.4993C118.198 87.4655 118.12 87.4993 118.086 87.5557C118.075 87.5782 117.123 89.483 114.939 91.0946C111.702 93.4727 109.753 91.9061 109.674 91.8385C109.618 91.7934 109.54 91.7934 109.484 91.8498C109.439 91.9061 109.439 91.985 109.495 92.0414C109.518 92.0526 111.142 93.3826 113.796 92.0977Z" fill="#760517"/>
<path d="M124.101 96.0991C123.597 95.6032 122.6 95.5243 122.006 95.4905C121.861 95.4792 121.704 95.468 121.67 95.4567C121.57 95.4116 121.413 95.2313 121.278 95.0735C121.2 94.9833 121.11 94.8819 121.021 94.7917C120.696 94.4761 120.136 94.8932 120.08 94.9495C120.069 94.9608 120.057 94.9721 120.057 94.9833C119.531 95.7385 119.621 95.9639 119.822 96.2456C119.957 96.426 120.214 96.5049 120.472 96.5837C120.584 96.6176 120.696 96.6514 120.797 96.6965C121.009 96.7866 121.11 97.3051 121.133 97.7784C121.144 98.1391 120.976 99.8748 120.349 101.058C119.845 102.016 119.038 102.771 118.321 103.436C117.772 103.955 117.291 104.394 117.078 104.823C116.798 105.375 116.753 105.927 116.966 106.344C117.112 106.626 117.358 106.806 117.672 106.84C118.052 106.885 119.049 106.739 120.214 106.175C121.547 105.533 123.115 104.338 124.269 102.309C126.464 98.4208 124.874 96.843 124.191 96.1667L124.101 96.0991ZM124.011 102.163C121.771 106.119 118.153 106.626 117.683 106.569C117.459 106.547 117.28 106.412 117.179 106.209C117.011 105.882 117.044 105.42 117.291 104.935C117.492 104.541 117.952 104.112 118.478 103.617C119.206 102.94 120.035 102.163 120.561 101.171C121.222 99.9198 121.39 98.1504 121.379 97.7559C121.368 97.4178 121.301 96.6176 120.886 96.4372C120.774 96.3921 120.651 96.3583 120.539 96.3132C120.326 96.2456 120.113 96.1893 120.035 96.0653C119.901 95.885 119.822 95.761 120.259 95.1298C120.405 95.0171 120.718 94.8481 120.841 94.9608C120.92 95.0397 121.009 95.1298 121.088 95.2313C121.256 95.4229 121.424 95.6145 121.581 95.6821C121.648 95.7159 121.76 95.7159 122.006 95.7385C122.533 95.7723 123.507 95.8512 123.933 96.2794L123.989 96.3358C124.605 96.9782 126.106 98.4547 124.011 102.163Z" fill="#760517"/>
<path d="M122.51 96.9216C122.454 96.9666 122.454 97.0568 122.499 97.1132C122.566 97.1921 124.213 99.0855 121.984 102.444C120.483 104.71 118.635 105.746 118.612 105.758C118.545 105.792 118.523 105.87 118.556 105.938C118.59 105.994 118.668 106.028 118.724 105.994C118.724 105.994 118.724 105.994 118.736 105.994C118.814 105.949 120.662 104.912 122.197 102.591C124.538 99.0517 122.701 96.9554 122.678 96.9441C122.645 96.8765 122.566 96.8765 122.51 96.9216Z" fill="#760517"/>
<path d="M102.651 85.2115C103.391 85.3354 104.029 85.4481 104.511 85.358C104.724 85.3242 104.925 85.2565 105.093 85.1776C105.407 85.0199 105.653 84.7944 105.776 84.524C105.911 84.2309 105.9 83.9266 105.743 83.6561C105.519 83.2616 104.589 82.4051 103.111 81.7739L102.797 81.9317C104.432 82.5854 105.373 83.5547 105.519 83.7914C105.631 83.983 105.642 84.2084 105.541 84.4112C105.384 84.7494 104.992 84.9973 104.466 85.0988C104.04 85.1776 103.413 85.0762 102.696 84.9522C101.722 84.7832 100.602 84.5916 99.504 84.7719C99.3472 84.7944 99.1792 84.8395 99.0111 84.8846C98.9887 84.9748 98.9775 85.0762 98.9775 85.1664C99.168 85.11 99.3584 85.0649 99.5488 85.0311C100.602 84.8621 101.688 85.0424 102.651 85.2115Z" fill="#760517"/>
<path d="M104.287 83.5433C104.32 83.5546 104.365 83.5546 104.399 83.5433C104.421 83.5321 104.444 83.5095 104.466 83.4757C104.5 83.4081 104.466 83.3292 104.399 83.3066C104.332 83.2841 103.167 82.7769 101.375 82.6191L100.882 82.8558C102.898 82.946 104.264 83.5321 104.287 83.5433Z" fill="#760517"/>
<path d="M107.199 80.3204C107.266 80.3767 107.333 80.4331 107.356 80.4894C107.378 80.5796 107.188 80.8501 106.953 81.0191C106.493 81.346 106.113 81.8982 106.292 82.2927C106.303 82.3265 106.325 82.3491 106.348 82.3716C106.146 82.7323 106.023 83.1493 106.001 83.6001C105.922 84.8849 106.516 86.1698 107.613 87.1503C108.588 88.0181 109.798 88.4464 110.761 88.2548C110.906 88.2323 111.052 88.1759 111.187 88.1083C111.747 87.8378 112.228 87.2517 112.575 86.4177C113.18 84.9638 113.203 83.0929 112.643 82.2476C112.094 81.4361 111.422 80.9177 110.649 80.7036C110.638 80.6697 110.604 80.6359 110.57 80.5909C110.19 80.2189 109.35 79.9597 108.588 80.1513L108.521 80.1626C108.218 80.2415 108.218 80.2415 108.129 80.14C108.106 80.1175 108.117 79.971 108.129 79.9034C108.14 79.7568 108.162 79.599 108.05 79.5089C107.983 79.4525 107.905 79.4413 107.793 79.4751L106.975 79.8695C106.964 79.9034 106.964 79.9484 106.975 79.9822C107.009 80.1626 107.109 80.2527 107.199 80.3204ZM110.593 80.9966C111.299 81.1882 111.915 81.6728 112.43 82.428C112.945 83.1831 112.9 84.9751 112.34 86.3388C111.948 87.2968 111.377 87.8829 110.727 88.0069C109.842 88.1759 108.722 87.7702 107.793 86.9587C106.762 86.0458 106.191 84.806 106.269 83.6226C106.292 83.1944 106.404 82.8112 106.594 82.4843C106.605 82.473 106.605 82.4618 106.605 82.4505C106.874 82.4167 107.255 82.1462 107.468 81.9771C107.692 82.2476 108.218 82.7999 108.588 82.5632C108.857 82.3941 108.868 82.0222 108.834 81.7405C109.126 81.9208 109.551 82.1462 109.775 82.0448C109.775 82.0448 109.775 82.0448 109.786 82.0448C109.854 82.0109 109.898 81.9546 109.921 81.887C109.988 81.6954 109.876 81.3911 109.775 81.1769C110.1 81.1657 110.447 81.1206 110.593 80.9966ZM107.692 79.8132C107.748 79.8019 107.804 79.7906 107.849 79.7681H107.86C107.86 79.8132 107.86 79.8695 107.849 79.9146C107.837 80.0611 107.815 80.2415 107.916 80.3542C108.117 80.5796 108.207 80.5458 108.577 80.4556L108.644 80.4443C109.305 80.2753 110.055 80.5007 110.38 80.8163C110.38 80.8163 110.38 80.8163 110.391 80.8275C110.279 80.8839 109.921 80.929 109.562 80.9177C109.518 80.9177 109.473 80.9402 109.45 80.9853C109.428 81.0304 109.428 81.0755 109.45 81.1206C109.63 81.4474 109.708 81.763 109.674 81.8193C109.574 81.8644 109.126 81.6503 108.734 81.3685C108.689 81.346 108.644 81.3347 108.599 81.3573C108.588 81.3573 108.588 81.3685 108.577 81.3685C108.532 81.4023 108.51 81.4587 108.521 81.515C108.566 81.6954 108.655 82.2251 108.442 82.3603C108.286 82.4618 107.849 82.056 107.591 81.7292C107.569 81.6954 107.535 81.6841 107.501 81.6841C107.468 81.6841 107.434 81.6954 107.401 81.7179C107.042 82.0109 106.628 82.2589 106.538 82.2138C106.437 81.9884 106.695 81.5601 107.109 81.2671C107.266 81.1544 107.692 80.7712 107.613 80.4556C107.58 80.3091 107.468 80.2189 107.367 80.14C107.311 80.095 107.244 80.0386 107.221 79.9935C107.289 79.9146 107.535 79.8583 107.692 79.8132Z" fill="#760517"/>
<path d="M122.992 93.3829C122.981 93.3829 122.97 93.3829 122.959 93.3829C122.802 93.1575 122.387 92.9321 122.152 92.8194C122.287 92.5038 122.544 91.7712 122.175 91.5571C121.906 91.388 121.57 91.5458 121.334 91.7036C121.368 91.3542 121.368 90.8808 121.178 90.723C121.122 90.678 121.043 90.6554 120.976 90.6667C120.774 90.6892 120.55 90.9372 120.405 91.1175C120.248 90.8245 120.058 90.5314 119.878 90.4525C119.733 89.7312 119.878 88.9648 120.326 88.1646C120.472 87.9054 120.741 87.6462 121.088 87.4208L120.976 87.1841C120.584 87.4433 120.27 87.7363 120.102 88.0406C119.621 88.8972 119.464 89.7312 119.632 90.5202C119.61 90.554 119.587 90.5878 119.576 90.6441C119.419 91.1513 119.565 92.0304 120.08 92.6165L120.125 92.6616C120.326 92.8983 120.326 92.8983 120.282 93.0335C120.27 93.0673 120.136 93.1124 120.08 93.1349C119.946 93.1913 119.8 93.2364 119.766 93.3829C119.744 93.4618 119.778 93.552 119.845 93.6308C119.878 93.6759 119.912 93.7097 119.946 93.7548C120.147 93.9915 120.315 94.1831 120.494 94.1944C120.562 94.1944 120.618 94.1831 120.662 94.138C120.763 94.0479 120.797 93.9126 120.819 93.7999C120.842 93.7097 120.853 93.6196 120.898 93.5858C120.965 93.5181 121.29 93.5745 121.547 93.7097C121.951 93.9239 122.466 94.0366 122.791 93.8788C122.858 93.845 122.925 93.7999 122.97 93.7323C122.992 93.7097 123.003 93.6759 123.015 93.6534C123.339 93.6759 123.664 93.6308 124 93.5181L123.888 93.2815C123.575 93.3716 123.283 93.4054 122.992 93.3829ZM122.757 93.5632C122.6 93.7548 122.107 93.7097 121.659 93.4731C121.502 93.3942 121.054 93.2026 120.786 93.3378C120.763 93.3491 120.741 93.3604 120.718 93.3829C120.606 93.4731 120.584 93.6196 120.55 93.7436C120.539 93.8224 120.517 93.9013 120.483 93.9352C120.405 93.9126 120.237 93.7097 120.136 93.5858C120.102 93.5407 120.058 93.4956 120.024 93.4618C120.024 93.4618 120.024 93.4505 120.013 93.4505C120.046 93.428 120.114 93.4054 120.147 93.3942C120.293 93.3378 120.45 93.2815 120.506 93.1349C120.618 92.8532 120.55 92.7856 120.304 92.5038L120.259 92.4587C119.811 91.9403 119.677 91.1626 119.811 90.7343V90.723C119.912 90.8019 120.114 91.1062 120.259 91.4331C120.282 91.4782 120.315 91.5007 120.371 91.512C120.416 91.512 120.461 91.4894 120.494 91.4556C120.685 91.1851 120.942 90.9372 121.01 90.9372C121.088 91.0048 121.099 91.512 121.032 91.9853C121.021 92.0417 121.054 92.0981 121.099 92.1206C121.144 92.1431 121.211 92.1431 121.245 92.0981C121.379 91.9741 121.816 91.6585 122.029 91.7825C122.186 91.8839 122.029 92.4587 121.85 92.8306C121.839 92.8645 121.839 92.8983 121.85 92.9321C121.861 92.9659 121.883 92.9884 121.917 93.011C122.354 93.2026 122.757 93.4731 122.757 93.5632Z" fill="#760517"/>
<path d="M108.957 104.169C109.517 103.898 109.999 103.312 110.346 102.478C110.951 101.024 110.973 99.1535 110.413 98.3082C109.864 97.4967 109.192 96.9783 108.42 96.7641C108.408 96.7303 108.375 96.6965 108.341 96.6514C107.96 96.2795 107.12 96.0203 106.359 96.2119L106.291 96.2231C105.989 96.302 105.989 96.302 105.899 96.2006C105.877 96.178 105.888 96.0315 105.899 95.9639C105.911 95.8174 105.933 95.6596 105.821 95.5694C105.754 95.5131 105.675 95.5018 105.563 95.5356C105.507 95.5469 105.463 95.5582 105.407 95.5807C105.115 95.6596 104.858 95.716 104.768 95.8737C104.735 95.9301 104.723 95.9977 104.746 96.0541C104.779 96.1893 104.891 96.2682 104.981 96.3471C105.048 96.4035 105.115 96.4598 105.138 96.5162C105.16 96.6063 104.97 96.8768 104.735 97.0459C104.623 97.1248 104.511 97.2149 104.421 97.3164L104.544 97.5756C104.634 97.4629 104.757 97.3502 104.891 97.26C105.048 97.1473 105.474 96.7641 105.395 96.4485C105.362 96.302 105.25 96.2119 105.149 96.133C105.093 96.0879 105.026 96.0315 105.003 95.9864C105.059 95.9301 105.317 95.8625 105.474 95.8287C105.53 95.8174 105.586 95.8061 105.631 95.7836H105.642C105.642 95.8287 105.642 95.885 105.631 95.9301C105.619 96.0766 105.597 96.2569 105.698 96.3696C105.899 96.5951 105.989 96.5612 106.359 96.4711L106.426 96.4598C107.087 96.2908 107.837 96.5162 108.162 96.8317C108.162 96.8317 108.162 96.8317 108.173 96.843C108.061 96.8994 107.703 96.9444 107.344 96.9332C107.299 96.9332 107.255 96.9557 107.232 97.0008C107.21 97.0459 107.21 97.091 107.232 97.136C107.412 97.4629 107.49 97.7785 107.456 97.8348C107.356 97.8799 106.907 97.6658 106.515 97.384C106.471 97.3615 106.426 97.3502 106.381 97.3727C106.37 97.3727 106.37 97.384 106.359 97.384C106.314 97.4178 106.291 97.4742 106.303 97.5305C106.347 97.7108 106.437 98.2406 106.224 98.3758C106.067 98.4772 105.631 98.0715 105.373 97.7447C105.351 97.7108 105.317 97.6996 105.283 97.6996C105.25 97.6996 105.216 97.7108 105.183 97.7334C105.037 97.8461 104.891 97.9588 104.757 98.049L104.869 98.2856C105.015 98.1955 105.149 98.094 105.25 98.0152C105.474 98.2856 106 98.8379 106.37 98.6012C106.639 98.4322 106.65 98.0602 106.616 97.7785C106.907 97.9588 107.333 98.1842 107.557 98.0828C107.557 98.0828 107.557 98.0828 107.568 98.0828C107.636 98.049 107.68 97.9926 107.703 97.925C107.77 97.7334 107.658 97.4291 107.557 97.2149C107.893 97.2037 108.229 97.1699 108.375 97.0346C109.08 97.2262 109.696 97.7108 110.212 98.466C110.727 99.2211 110.682 101.013 110.122 102.377C109.73 103.335 109.159 103.921 108.509 104.045C108.24 104.101 107.938 104.09 107.636 104.045L107.77 104.327C108.039 104.36 108.308 104.349 108.554 104.304C108.677 104.282 108.823 104.237 108.957 104.169Z" fill="#760517"/>
<path d="M103.883 94.7014C105.183 94.0702 105.788 91.9288 105.519 90.3172C105.362 89.3704 104.914 88.7731 104.287 88.6491C104.275 88.6378 104.242 88.5928 104.175 88.5364C104.466 88.3335 105.149 87.7475 104.959 86.8909C104.948 86.8346 104.903 86.8007 104.847 86.7895L104.096 86.6768C104.051 86.6655 104.007 86.688 103.973 86.7218C103.939 86.7557 103.928 86.8007 103.951 86.8458C103.951 86.8571 104.197 87.7137 103.671 88.1983C103.335 88.0405 102.864 87.9165 102.237 87.9954C101.542 88.0743 100.915 88.4913 100.445 89.0887L100.568 89.3592C100.994 88.7618 101.599 88.3335 102.259 88.2546C103.077 88.1645 103.603 88.435 103.861 88.6266C103.144 88.6717 102.584 89.0999 102.226 89.8889C101.946 90.4975 101.834 91.2751 101.845 92.0303L102.192 92.7629C102.047 91.8499 102.136 90.768 102.483 90.0016C102.64 89.6409 102.909 89.2464 103.335 89.0436C103.536 88.9421 103.771 88.8858 104.051 88.9083C104.88 88.9421 105.138 89.9339 105.205 90.3622C105.463 91.9063 104.836 94.0026 103.626 94.4873C103.402 94.5774 103.189 94.5661 102.987 94.4422L103.167 94.8141C103.346 94.8479 103.536 94.8366 103.727 94.7577C103.805 94.7352 103.839 94.7239 103.883 94.7014ZM103.962 88.3561C103.951 88.3448 103.928 88.3335 103.917 88.3223C104.343 87.8827 104.309 87.2741 104.253 86.9585L104.724 87.0262C104.824 87.7587 104.141 88.2546 103.962 88.3561Z" fill="#760517"/>
<path d="M115.432 77.4574C114.076 78.0548 113.494 80.3089 113.83 81.9544C114.02 82.8899 114.491 83.4759 115.118 83.5774C115.129 83.5886 115.163 83.6337 115.23 83.6901C114.95 83.9042 114.289 84.5128 114.502 85.3581C114.513 85.4145 114.558 85.4483 114.614 85.4595L115.376 85.5497C115.398 85.5497 115.42 85.5497 115.443 85.5384C115.465 85.5272 115.476 85.5159 115.488 85.5046C115.521 85.4708 115.521 85.4257 115.51 85.3807C115.51 85.3694 115.23 84.5241 115.745 84.0169C116.081 84.1634 116.552 84.2649 117.179 84.1747C117.403 84.1409 117.616 84.0733 117.817 83.9718C118.254 83.7577 118.646 83.4083 118.937 82.98L118.803 82.7095C118.4 83.352 117.795 83.814 117.123 83.9155C116.305 84.0395 115.779 83.7915 115.51 83.5999C115.723 83.5774 115.913 83.521 116.092 83.4421C116.518 83.2393 116.865 82.8448 117.089 82.2812C117.392 81.5487 117.459 80.5681 117.347 79.689L116.574 78.0773C116.451 77.8294 116.305 77.604 116.115 77.4236C116.081 77.4236 116.048 77.4124 116.014 77.4124C115.857 77.3447 115.644 77.3673 115.432 77.4574ZM115.219 85.2567L114.748 85.2003C114.625 84.479 115.297 83.9606 115.465 83.8479C115.476 83.8591 115.499 83.8704 115.51 83.8704C115.107 84.3438 115.163 84.9524 115.219 85.2567ZM116.865 82.1573C116.653 82.687 116.205 83.3181 115.331 83.3181C114.491 83.3069 114.211 82.3263 114.121 81.9093C113.808 80.3765 114.356 78.2577 115.555 77.7279C115.857 77.5927 116.137 77.649 116.384 77.9083C117.157 78.6521 117.403 80.8499 116.865 82.1573Z" fill="#760517"/>
<path d="M115.274 107.73C115.375 106.186 114.289 104.372 112.082 103.977C111.892 103.909 111.679 103.91 111.455 103.988C110.189 104.405 109.416 106.22 109.405 107.798L109.741 108.508C109.73 108.418 109.719 108.35 109.708 108.283C109.551 106.727 110.29 104.676 111.545 104.27C111.858 104.169 112.127 104.259 112.351 104.529C113.046 105.363 113.079 107.561 112.407 108.812C112.138 109.319 111.634 109.905 110.772 109.815C110.57 109.793 110.402 109.714 110.268 109.612C110.929 110.706 112.329 111.134 113.494 110.57L113.65 110.492C114.524 109.939 115.196 108.88 115.274 107.73ZM112.519 110.57C111.69 110.616 111.197 110.311 110.951 110.097C111.22 110.097 111.477 110.041 111.701 109.928C112.082 109.748 112.407 109.41 112.653 108.936C113.359 107.606 113.326 105.341 112.597 104.383C114.266 104.935 115.084 106.423 115.006 107.708C114.916 109.195 113.774 110.503 112.519 110.57Z" fill="#760517"/>
<path d="M116.518 102.568C116.563 102.557 116.596 102.535 116.641 102.512C117.941 101.881 118.545 99.7394 118.277 98.1277C118.12 97.181 117.672 96.5836 117.044 96.4597C117.033 96.4484 117 96.4033 116.932 96.347C117.224 96.1441 117.907 95.558 117.717 94.7014C117.705 94.6451 117.661 94.6113 117.605 94.6L116.854 94.4873C116.809 94.476 116.764 94.4986 116.731 94.5324C116.697 94.5662 116.686 94.6113 116.708 94.6564C116.708 94.6676 116.955 95.5242 116.428 96.0088C116.092 95.851 115.622 95.7271 114.995 95.806C113.617 95.9637 112.463 97.4627 112.452 99.0744C112.452 100.63 113.639 102.365 115.868 102.613C116.092 102.67 116.305 102.658 116.518 102.568ZM117.022 94.7803L117.492 94.848C117.593 95.5693 116.899 96.0652 116.731 96.1779C116.72 96.1666 116.697 96.1553 116.686 96.1441C117.1 95.7045 117.067 95.0959 117.022 94.7803ZM112.732 99.0744C112.732 97.5867 113.796 96.2117 115.04 96.0652C115.857 95.975 116.384 96.2455 116.641 96.4371C115.924 96.4822 115.364 96.9105 115.006 97.6994C114.379 99.0744 114.558 101.34 115.342 102.241C113.639 101.802 112.732 100.371 112.732 99.0744ZM115.264 97.8234C115.42 97.4627 115.689 97.0683 116.115 96.8654C116.316 96.764 116.552 96.7076 116.832 96.7301C117.661 96.764 117.918 97.7558 117.985 98.1841C118.243 99.7281 117.616 101.824 116.406 102.309C116.104 102.433 115.824 102.365 115.577 102.106C114.849 101.306 114.681 99.1195 115.264 97.8234Z" fill="#760517"/>
<path opacity="0.3" d="M120.415 109.24L120.247 80.6806C120.247 80.6806 114.546 79.159 112.978 81.199C112.25 82.1457 112.217 87.7585 112.396 93.529C110.704 91.9173 102.909 96.0424 102.909 96.0424L112.541 97.609C112.765 102.771 113.079 107.144 113.079 107.144L120.415 109.24Z" fill="#282021"/>
<path d="M112.665 105.893L115.801 79.3057C115.969 77.8631 117.268 76.8375 118.702 77.0065L134.226 78.8662C135.66 79.0352 136.679 80.3426 136.511 81.7852L133.375 108.373C133.207 109.815 131.908 110.841 130.474 110.672L114.95 108.812C113.516 108.643 112.497 107.336 112.665 105.893Z" fill="white"/>
<path d="M129.891 109.804L115.722 108.113C114.345 107.944 113.359 106.693 113.516 105.296L116.495 80.0835C116.663 78.6972 117.907 77.7054 119.296 77.8632L133.464 79.5538C134.842 79.7228 135.828 80.9739 135.671 82.3714L132.692 107.584C132.524 108.981 131.28 109.973 129.891 109.804Z" fill="#DFCCD2"/>
<path d="M124.795 94.2842C125.176 94.3293 125.602 94.3518 126.072 94.3631C130.429 94.3857 132.949 91.6582 133.274 90.8805C133.397 90.5987 133.364 90.2832 133.196 90.0239C132.949 89.6295 132.456 89.3928 131.829 89.359C131.348 89.3364 130.732 89.528 130.004 89.7534C129.074 90.0465 128.021 90.3733 126.946 90.3395C125.613 90.2944 124.033 89.5731 123.731 89.3815C123.328 89.1336 122.936 88.7729 122.969 88.5475C122.981 88.4461 123.014 88.3221 123.037 88.2094C123.093 87.9501 123.16 87.6909 123.07 87.4768C122.925 87.1612 122.779 86.9696 121.872 87.0485C121.861 87.0485 121.849 87.0485 121.838 87.0598C121.76 87.0936 121.121 87.3641 121.233 87.8036C121.267 87.9163 121.3 88.0516 121.345 88.1643C121.413 88.3672 121.491 88.5926 121.48 88.694C121.469 88.7278 121.401 88.8743 121.345 89.0096C121.088 89.5506 120.651 90.4522 120.83 91.1397L120.852 91.2073C121.032 92.0526 121.502 93.8897 124.795 94.2842ZM121.054 91.0834C120.897 90.4973 121.323 89.6069 121.547 89.1336C121.659 88.9082 121.704 88.8067 121.715 88.7391C121.737 88.57 121.659 88.3333 121.569 88.0854C121.536 87.9727 121.491 87.8487 121.457 87.736C121.413 87.5782 121.715 87.3866 121.894 87.3077C122.667 87.2401 122.723 87.3753 122.813 87.5782C122.869 87.7022 122.813 87.9276 122.768 88.1417C122.745 88.2657 122.712 88.3897 122.701 88.5024C122.645 88.9532 123.305 89.4153 123.585 89.5844C123.91 89.7873 125.523 90.5311 126.934 90.5762C128.055 90.61 129.13 90.2719 130.082 89.9789C130.776 89.7647 131.37 89.5731 131.807 89.5957C132.344 89.6182 132.759 89.8211 132.961 90.1366C133.084 90.3282 133.106 90.5537 133.017 90.7565C132.837 91.1961 130.586 94.1039 126.061 94.0813C121.816 94.0588 121.289 92.0188 121.065 91.1397L121.054 91.0834Z" fill="#760517"/>
<path d="M125.814 92.7063C126.262 92.7626 126.766 92.7739 127.326 92.7401C130.093 92.5597 131.907 91.4665 131.986 91.4214C132.053 91.3876 132.064 91.2974 132.031 91.2411C131.997 91.1735 131.907 91.1622 131.851 91.196C131.829 91.2073 130.003 92.3005 127.315 92.4808C123.316 92.7401 122.51 90.3732 122.476 90.2718C122.454 90.2042 122.376 90.1591 122.308 90.1816C122.241 90.2042 122.196 90.2831 122.219 90.3507C122.23 90.362 122.891 92.3569 125.814 92.7063Z" fill="#760517"/>
<path d="M132.378 101.644C132.221 100.956 131.415 100.359 130.944 99.9984C130.832 99.9083 130.698 99.8181 130.676 99.7843C130.62 99.6941 130.575 99.4574 130.541 99.2433C130.519 99.1193 130.496 98.9841 130.474 98.8714C130.373 98.4318 129.668 98.4882 129.589 98.4882C129.578 98.4882 129.567 98.4882 129.555 98.4995C128.715 98.8488 128.659 99.0855 128.682 99.4349C128.693 99.6603 128.872 99.8745 129.04 100.066C129.119 100.156 129.197 100.246 129.253 100.337C129.376 100.528 129.197 101.024 128.951 101.43C128.771 101.745 127.707 103.109 126.542 103.774C125.602 104.304 124.526 104.507 123.563 104.687C122.824 104.822 122.185 104.946 121.771 105.183C121.233 105.498 120.908 105.949 120.875 106.4C120.852 106.716 120.964 106.997 121.2 107.2C121.502 107.448 122.409 107.854 123.697 108.012C125.165 108.192 127.125 108.034 129.186 106.93C133.117 104.834 132.602 102.636 132.389 101.7L132.378 101.644ZM129.063 106.704C125.064 108.835 121.737 107.313 121.368 107.009C121.2 106.862 121.11 106.659 121.132 106.434C121.166 106.062 121.446 105.69 121.905 105.42C122.286 105.194 122.902 105.081 123.619 104.946C124.594 104.766 125.702 104.563 126.677 104.011C127.898 103.312 128.984 101.903 129.186 101.565C129.354 101.272 129.724 100.562 129.477 100.19C129.41 100.089 129.331 99.9984 129.242 99.897C129.096 99.7279 128.951 99.5589 128.939 99.4124C128.928 99.187 128.917 99.0404 129.623 98.7474C129.813 98.7361 130.172 98.7587 130.205 98.9277C130.228 99.0404 130.25 99.1644 130.272 99.2884C130.317 99.5476 130.351 99.7956 130.452 99.9308C130.496 99.9872 130.586 100.055 130.776 100.201C131.202 100.517 131.975 101.103 132.12 101.7L132.132 101.768C132.333 102.658 132.815 104.71 129.063 106.704Z" fill="#760517"/>
<path d="M130.597 101.475C130.53 101.486 130.474 101.554 130.485 101.633C130.507 101.734 130.877 104.225 127.214 105.848C124.739 106.952 122.622 106.828 122.6 106.828C122.533 106.828 122.465 106.885 122.465 106.952C122.465 107.02 122.51 107.088 122.577 107.088C122.577 107.088 122.577 107.088 122.589 107.088C122.678 107.099 124.795 107.212 127.326 106.085C131.191 104.36 130.754 101.61 130.754 101.576C130.731 101.509 130.664 101.464 130.597 101.475Z" fill="#760517"/>
<path d="M120.068 80.8724C120.629 81.3796 121.11 81.8191 121.558 81.9994C121.76 82.0783 121.961 82.1347 122.152 82.1572C122.499 82.2023 122.824 82.1347 123.07 81.9769C123.339 81.8078 123.485 81.5373 123.496 81.233C123.518 80.7822 123.194 79.5537 122.275 78.2238L121.928 78.1787C122.969 79.6101 123.238 80.94 123.227 81.2218C123.216 81.4472 123.104 81.6388 122.913 81.7628C122.6 81.9656 122.141 81.9656 121.648 81.7628C121.245 81.5937 120.774 81.1767 120.236 80.6808C119.497 80.0045 118.668 79.2494 117.638 78.8099C117.481 78.7422 117.324 78.6859 117.167 78.6408C117.1 78.7084 117.044 78.7873 116.977 78.8662C117.167 78.9226 117.358 78.9902 117.526 79.0578C118.534 79.4748 119.352 80.2187 120.068 80.8724Z" fill="#760517"/>
<path d="M122.342 80.3538C122.364 80.3877 122.398 80.4102 122.432 80.4102C122.465 80.4102 122.488 80.4102 122.521 80.3877C122.577 80.3426 122.6 80.2637 122.555 80.2073C122.521 80.151 121.804 79.0915 120.371 77.9983L119.833 77.9307C121.491 79.1028 122.331 80.3313 122.342 80.3538Z" fill="#760517"/>
<path d="M126.52 79.2044C126.554 79.2833 126.576 79.3735 126.554 79.4298C126.52 79.52 126.218 79.6439 125.938 79.6552C125.378 79.6778 124.762 79.937 124.706 80.3765C124.706 80.4104 124.706 80.4442 124.706 80.4667C124.336 80.6583 124.022 80.9401 123.753 81.312C123.003 82.3489 122.813 83.7577 123.227 85.1778C123.585 86.4401 124.381 87.4545 125.299 87.8151C125.434 87.8715 125.579 87.9053 125.736 87.9278C126.352 88.0067 127.069 87.77 127.808 87.2516C129.096 86.3499 130.116 84.7833 130.082 83.769C130.048 82.7884 129.757 81.9882 129.219 81.3909C129.219 81.3571 129.219 81.312 129.208 81.2556C129.085 80.7372 128.514 80.061 127.763 79.8243L127.707 79.8017C127.405 79.7003 127.405 79.7003 127.383 79.5651C127.371 79.5312 127.461 79.4185 127.506 79.3622C127.595 79.2495 127.696 79.1255 127.651 78.9903C127.629 78.9114 127.562 78.855 127.45 78.8212L126.554 78.7085C126.52 78.731 126.509 78.7648 126.486 78.8099C126.442 78.9677 126.486 79.0917 126.52 79.2044ZM129.029 81.605C129.522 82.146 129.791 82.8899 129.813 83.8028C129.835 84.7157 128.85 86.2147 127.651 87.06C126.811 87.6573 126.016 87.8377 125.4 87.601C124.56 87.2629 123.832 86.3161 123.485 85.1327C123.104 83.8141 123.283 82.4503 123.977 81.4923C124.224 81.1429 124.526 80.8837 124.862 80.7147C124.874 80.7034 124.885 80.7034 124.896 80.6921C125.142 80.8161 125.613 80.7823 125.882 80.7597C125.926 81.1091 126.083 81.853 126.509 81.8643C126.822 81.8643 127.035 81.56 127.158 81.3007C127.315 81.6163 127.551 82.0333 127.786 82.0671C127.786 82.0671 127.786 82.0671 127.797 82.0671C127.864 82.0784 127.931 82.0559 127.999 82.0108C128.155 81.8868 128.223 81.56 128.256 81.3345C128.514 81.4811 128.827 81.6276 129.029 81.605ZM127.214 79.0466C127.271 79.0692 127.315 79.0804 127.371 79.103H127.383C127.36 79.1368 127.327 79.1931 127.293 79.2269C127.203 79.3509 127.091 79.4862 127.114 79.6327C127.158 79.9257 127.259 79.9595 127.618 80.0722L127.674 80.0948C128.323 80.3089 128.839 80.9063 128.939 81.3458V81.3571C128.816 81.3458 128.491 81.188 128.189 80.9851C128.155 80.9626 128.099 80.9513 128.055 80.9739C128.01 80.9964 127.987 81.0415 127.976 81.0866C127.954 81.4472 127.853 81.7628 127.797 81.7966C127.685 81.7854 127.427 81.3571 127.237 80.9063C127.215 80.8612 127.181 80.8274 127.136 80.8274C127.125 80.8274 127.125 80.8274 127.114 80.8274C127.058 80.8274 127.013 80.8724 126.99 80.9175C126.934 81.0979 126.722 81.5938 126.475 81.5938C126.285 81.5825 126.128 81.019 126.094 80.602C126.094 80.5681 126.072 80.5343 126.05 80.5118C126.027 80.4892 125.982 80.478 125.949 80.4892C125.49 80.5456 125.008 80.5231 124.952 80.4442C124.986 80.1962 125.434 79.9821 125.938 79.9595C126.128 79.9483 126.699 79.8581 126.8 79.5538C126.845 79.4185 126.8 79.2833 126.755 79.1593C126.733 79.0804 126.71 79.0128 126.71 78.9564C126.811 78.9114 127.058 78.9903 127.214 79.0466Z" fill="#760517"/>
<path d="M132.893 98.7588C132.882 98.7476 132.871 98.7476 132.86 98.7476C132.849 98.4658 132.624 98.0601 132.479 97.8346C132.759 97.643 133.364 97.1584 133.173 96.7752C133.039 96.4935 132.658 96.4371 132.389 96.4484C132.602 96.1666 132.86 95.7721 132.781 95.5355C132.759 95.4678 132.703 95.4115 132.636 95.3777C132.456 95.2988 132.132 95.3777 131.919 95.4453C131.941 95.1072 131.941 94.7578 131.818 94.6C132.076 93.9125 132.613 93.349 133.42 92.9094C133.677 92.7629 134.047 92.6953 134.461 92.684L134.495 92.4248C134.025 92.4361 133.61 92.515 133.308 92.6728C132.445 93.1348 131.874 93.7547 131.583 94.5098C131.549 94.5211 131.504 94.5437 131.471 94.5775C131.068 94.9156 130.72 95.7383 130.844 96.516L130.855 96.5836C130.9 96.8992 130.9 96.8992 130.788 96.9781C130.754 97.0006 130.62 96.9668 130.552 96.9555C130.407 96.9217 130.261 96.8992 130.16 96.9894C130.104 97.0457 130.082 97.1359 130.093 97.2373C130.104 97.2937 130.104 97.3387 130.116 97.3951C130.16 97.6994 130.194 97.9586 130.34 98.0601C130.396 98.0939 130.452 98.1164 130.519 98.1051C130.653 98.0826 130.754 97.9812 130.832 97.9023C130.9 97.8347 130.956 97.7783 131.012 97.767C131.101 97.7558 131.348 97.9699 131.493 98.2178C131.717 98.6236 132.098 98.9842 132.456 99.0293C132.535 99.0406 132.613 99.0293 132.692 99.0068C132.725 98.9955 132.748 98.9842 132.77 98.9617C133.028 99.1533 133.33 99.2885 133.666 99.3787L133.7 99.1082C133.386 99.0519 133.117 98.9279 132.893 98.7588ZM132.591 98.7814C132.356 98.8603 131.964 98.556 131.717 98.1164C131.628 97.9586 131.348 97.5642 131.056 97.5303C131.023 97.5303 131 97.5303 130.967 97.5303C130.821 97.5529 130.72 97.6543 130.631 97.7445C130.575 97.8008 130.519 97.8572 130.474 97.8685C130.429 97.8008 130.384 97.5416 130.362 97.3838C130.351 97.3275 130.351 97.2711 130.34 97.2148V97.2035C130.384 97.2035 130.44 97.2148 130.485 97.226C130.631 97.2599 130.799 97.2937 130.922 97.2035C131.157 97.0232 131.146 96.9217 131.09 96.5611L131.079 96.4935C130.978 95.8172 131.28 95.0846 131.616 94.7916C131.616 94.7916 131.616 94.7916 131.628 94.7916C131.672 94.9156 131.672 95.2762 131.628 95.6256C131.616 95.6707 131.639 95.7158 131.684 95.7496C131.717 95.7834 131.773 95.7834 131.818 95.7609C132.12 95.6369 132.468 95.558 132.535 95.6031C132.568 95.7045 132.311 96.1328 131.997 96.5047C131.964 96.5498 131.952 96.6062 131.986 96.6512C132.008 96.6963 132.064 96.7301 132.12 96.7189C132.3 96.6851 132.837 96.6512 132.949 96.8767C133.028 97.0457 132.591 97.4402 132.232 97.6656C132.199 97.6881 132.176 97.7107 132.176 97.7558C132.165 97.7896 132.176 97.8234 132.199 97.8572C132.445 98.2517 132.636 98.6912 132.591 98.7814Z" fill="#760517"/>
<path d="M115.286 100.28C115.902 100.359 116.618 100.123 117.358 99.6042C118.646 98.7025 119.665 97.1359 119.632 96.1216C119.598 95.141 119.307 94.3408 118.769 93.7435C118.769 93.7096 118.769 93.6646 118.758 93.6082C118.635 93.0898 118.063 92.4135 117.313 92.1769L117.257 92.1543C116.955 92.0529 116.955 92.0529 116.932 91.9176C116.921 91.8838 117.011 91.7711 117.055 91.7148C117.145 91.6021 117.246 91.4781 117.201 91.3428C117.179 91.2639 117.111 91.2076 116.999 91.1738C116.943 91.1625 116.899 91.14 116.843 91.1287C116.551 91.0273 116.305 90.9484 116.148 91.0273C116.092 91.0611 116.047 91.1061 116.036 91.1625C115.991 91.2977 116.036 91.4217 116.081 91.5344C116.114 91.6133 116.137 91.7035 116.114 91.7598C116.081 91.85 115.778 91.974 115.498 91.9853C115.364 91.9965 115.218 92.0078 115.084 92.0416L115.05 92.3234C115.185 92.2783 115.353 92.2557 115.51 92.2445C115.7 92.2332 116.271 92.143 116.372 91.8387C116.417 91.7035 116.372 91.5682 116.327 91.4443C116.305 91.3654 116.282 91.2977 116.282 91.2414C116.361 91.2301 116.607 91.309 116.764 91.3541C116.82 91.3766 116.865 91.3879 116.921 91.4104H116.932C116.91 91.4443 116.876 91.5006 116.843 91.5344C116.753 91.6584 116.641 91.7937 116.663 91.9402C116.708 92.2332 116.809 92.267 117.167 92.3797L117.223 92.4023C117.873 92.6164 118.388 93.2137 118.489 93.6533V93.6646C118.366 93.6533 118.041 93.4955 117.739 93.2926C117.705 93.2701 117.649 93.2588 117.604 93.2814C117.559 93.3039 117.537 93.349 117.526 93.3941C117.503 93.7547 117.403 94.0703 117.347 94.1041C117.235 94.0929 116.977 93.6646 116.787 93.2137C116.764 93.1687 116.731 93.1349 116.686 93.1349C116.675 93.1349 116.675 93.1349 116.663 93.1349C116.607 93.1349 116.562 93.1799 116.54 93.225C116.484 93.4053 116.271 93.9013 116.025 93.9013C115.834 93.9013 115.678 93.3265 115.644 92.9094C115.644 92.8756 115.622 92.8418 115.599 92.8193C115.577 92.7967 115.532 92.7855 115.498 92.7967C115.319 92.8193 115.129 92.8305 114.972 92.8305L114.938 93.101C115.106 93.101 115.274 93.0898 115.398 93.0785C115.442 93.4279 115.599 94.1717 116.025 94.183C116.338 94.183 116.551 93.8787 116.675 93.6195C116.831 93.9351 117.067 94.3521 117.302 94.3859C117.302 94.3859 117.302 94.3859 117.313 94.3859C117.38 94.3972 117.447 94.3746 117.515 94.3295C117.671 94.2056 117.739 93.8787 117.772 93.6533C118.063 93.8336 118.366 93.9801 118.567 93.9463C119.06 94.4873 119.329 95.2312 119.351 96.1441C119.374 97.057 118.388 98.556 117.19 99.4013C116.35 99.9986 115.554 100.179 114.938 99.9423C114.681 99.8408 114.434 99.6718 114.199 99.4689L114.166 99.7845C114.378 99.9536 114.602 100.1 114.838 100.19C114.994 100.224 115.14 100.269 115.286 100.28Z" fill="#760517"/>
<path d="M116.058 89.5506C117.492 89.7196 119.15 88.2432 119.777 86.7329C120.147 85.8538 120.091 85.1099 119.631 84.6591C119.631 84.6478 119.62 84.5915 119.598 84.5013C119.956 84.4901 120.841 84.3661 121.132 83.5321C121.155 83.4757 121.132 83.4193 121.099 83.3855L120.528 82.8784C120.494 82.8445 120.449 82.8333 120.404 82.8558C120.36 82.8671 120.326 82.9009 120.315 82.946C120.315 82.9573 120.068 83.8138 119.363 83.9378C119.172 83.6222 118.836 83.2728 118.265 82.9911C117.638 82.6868 116.876 82.698 116.17 82.946L116.137 83.239C116.82 82.9572 117.559 82.9347 118.153 83.2277C118.892 83.5884 119.195 84.0956 119.307 84.4112C118.679 84.0618 117.974 84.1181 117.257 84.5915C116.697 84.9521 116.182 85.5495 115.801 86.1919L115.7 87.0034C116.07 86.1468 116.719 85.2903 117.414 84.8282C117.739 84.614 118.175 84.4224 118.646 84.4788C118.87 84.5013 119.094 84.5915 119.329 84.7493C120.012 85.2339 119.699 86.2032 119.531 86.5977C118.926 88.0403 117.279 89.4717 115.991 89.2237C115.745 89.1786 115.577 89.0434 115.476 88.8405L115.431 89.2463C115.566 89.3702 115.734 89.4604 115.935 89.5055C115.969 89.5393 116.014 89.5393 116.058 89.5506ZM119.508 84.2421C119.497 84.2308 119.497 84.2083 119.486 84.197C120.079 84.0505 120.371 83.5208 120.494 83.2277L120.852 83.5433C120.55 84.197 119.71 84.2421 119.508 84.2421Z" fill="#760517"/>
<path d="M134.999 81.2329C133.532 81.0075 131.852 82.5966 131.258 84.1632C130.922 85.0649 131 85.7975 131.482 86.2258C131.482 86.237 131.493 86.2934 131.516 86.3723C131.157 86.4061 130.284 86.5526 130.015 87.3979C130.004 87.4542 130.015 87.5106 130.06 87.5444L130.653 88.029C130.676 88.0403 130.698 88.0516 130.72 88.0629C130.743 88.0629 130.765 88.0629 130.776 88.0516C130.821 88.0403 130.855 88.0065 130.866 87.9614C130.866 87.9502 131.079 87.0823 131.785 86.9358C131.986 87.2401 132.333 87.5895 132.916 87.8375C133.117 87.9276 133.341 87.984 133.565 88.0178C134.047 88.0741 134.562 87.9952 135.044 87.7924L135.078 87.4881C134.394 87.8036 133.644 87.8713 133.017 87.6008C132.266 87.2626 131.953 86.7667 131.829 86.4737C132.02 86.5751 132.21 86.6315 132.412 86.654C132.882 86.7104 133.375 86.5639 133.879 86.2145C134.529 85.7524 135.111 84.9747 135.481 84.1632L135.694 82.3825C135.727 82.112 135.716 81.8415 135.66 81.5823C135.638 81.5597 135.604 81.5372 135.582 81.5259C135.414 81.3569 135.223 81.2667 134.999 81.2329ZM130.664 87.7022L130.295 87.3979C130.575 86.7217 131.415 86.654 131.616 86.6428C131.628 86.654 131.628 86.6766 131.639 86.6879C131.045 86.8569 130.765 87.4092 130.664 87.7022ZM133.7 85.9665C133.229 86.2934 132.524 86.5977 131.785 86.113C131.079 85.6622 131.359 84.6704 131.516 84.2647C132.076 82.7995 133.666 81.3118 134.954 81.5147C135.279 81.5597 135.481 81.7626 135.559 82.112C135.806 83.1714 134.854 85.1438 133.7 85.9665Z" fill="#760517"/>
<path d="M118.724 106.693C119.632 105.442 119.676 103.323 118.019 101.802C117.884 101.644 117.716 101.531 117.481 101.475C116.193 101.137 114.569 102.252 113.718 103.582L113.628 104.36C113.662 104.281 113.695 104.213 113.718 104.157C114.412 102.748 116.137 101.43 117.403 101.756C117.716 101.835 117.907 102.061 117.951 102.41C118.097 103.481 116.943 105.363 115.723 106.062C115.23 106.344 114.49 106.569 113.807 106.017C113.65 105.893 113.55 105.735 113.494 105.577C113.471 106.862 114.423 107.967 115.711 108.124L115.879 108.147C116.921 108.158 118.041 107.628 118.724 106.693ZM114.894 107.606C114.177 107.2 113.908 106.67 113.818 106.355C114.042 106.501 114.289 106.592 114.546 106.625C114.961 106.67 115.42 106.569 115.879 106.298C117.19 105.555 118.366 103.627 118.265 102.421C119.385 103.785 119.284 105.487 118.523 106.524C117.638 107.73 115.98 108.226 114.894 107.606Z" fill="#760517"/>
<path d="M122.532 103.008C122.577 103.019 122.622 103.019 122.667 103.03C124.101 103.199 125.758 101.723 126.385 100.213C126.755 99.3337 126.699 98.5898 126.24 98.139C126.24 98.1277 126.229 98.0714 126.206 97.9812C126.565 97.97 127.45 97.846 127.741 97.012C127.763 96.9556 127.741 96.8993 127.707 96.8654L127.136 96.3583C127.102 96.3245 127.058 96.3132 127.013 96.3357C126.968 96.347 126.934 96.3808 126.923 96.4259C126.923 96.4372 126.677 97.2937 125.971 97.4177C125.781 97.1021 125.445 96.7527 124.873 96.471C123.63 95.8624 121.849 96.4935 120.987 97.8573C120.158 99.1646 120.236 101.272 121.984 102.692C122.118 102.861 122.297 102.963 122.532 103.008ZM127.102 96.7077L127.461 97.0232C127.158 97.6882 126.318 97.7333 126.117 97.7333C126.105 97.722 126.105 97.6995 126.094 97.6882C126.677 97.5304 126.979 97.0007 127.102 96.7077ZM121.2 98.0263C121.995 96.7753 123.619 96.1779 124.75 96.7302C125.489 97.0909 125.792 97.598 125.904 97.9136C125.277 97.5642 124.571 97.6206 123.854 98.0939C122.588 98.9167 121.536 100.923 121.715 102.106C120.505 100.81 120.505 99.1083 121.2 98.0263ZM124 98.3306C124.325 98.1165 124.761 97.9249 125.232 97.9812C125.456 98.0038 125.68 98.0939 125.915 98.2517C126.598 98.7364 126.285 99.7056 126.117 100.1C125.512 101.543 123.865 102.974 122.577 102.726C122.252 102.659 122.062 102.456 121.995 102.106C121.793 101.047 122.824 99.1083 124 98.3306Z" fill="#760517"/>
<path opacity="0.3" d="M129.466 84.5464C127.931 85.1888 123.026 94.4758 119.766 100.934C119.565 100.201 118.926 98.1613 117.694 97.192C116.171 96.0086 112.586 97.0004 112.586 97.0004L113.202 97.4061L118.243 103.988C117.313 105.882 116.72 107.11 116.72 107.11L122.04 112.588L136.03 87.7473C136.03 87.7473 131.841 83.5659 129.466 84.5464Z" fill="#282021"/>
<path d="M116.977 105.803L132.86 84.3211C133.722 83.1602 135.357 82.9122 136.522 83.7801L149.067 93.1685C150.221 94.0363 150.467 95.6818 149.605 96.8539L133.722 118.336C132.86 119.497 131.224 119.744 130.059 118.877L117.515 109.488C116.35 108.62 116.114 106.975 116.977 105.803Z" fill="white"/>
<path d="M129.981 117.84L118.534 109.263C117.414 108.429 117.19 106.84 118.018 105.724L133.083 85.3466C133.912 84.2196 135.492 83.9942 136.601 84.8282L148.048 93.3938C149.168 94.2278 149.392 95.817 148.563 96.9328L133.498 117.321C132.669 118.437 131.09 118.674 129.981 117.84Z" fill="#DFCCD2"/>
<path d="M133.24 101.824C133.554 102.061 133.901 102.286 134.304 102.523C138.068 104.732 141.607 103.616 142.268 103.109C142.515 102.917 142.638 102.647 142.627 102.32C142.604 101.858 142.302 101.407 141.775 101.069C141.372 100.81 140.734 100.663 140.006 100.494C139.054 100.28 137.978 100.032 137.071 99.4686C135.94 98.7586 134.92 97.3497 134.752 97.0342C134.528 96.6172 134.36 96.11 134.495 95.9297C134.562 95.8395 134.64 95.7606 134.719 95.6704C134.898 95.4788 135.088 95.276 135.111 95.0506C135.144 94.7012 135.111 94.4645 134.282 94.0813C134.271 94.0813 134.26 94.07 134.248 94.07C134.17 94.0587 133.476 93.9798 133.352 94.4081C133.319 94.5208 133.296 94.6561 133.274 94.7801C133.229 94.9829 133.184 95.2196 133.117 95.3098C133.095 95.3436 132.96 95.4337 132.837 95.5126C132.344 95.8508 131.515 96.4143 131.336 97.1018L131.314 97.1694C131.079 98.0034 130.586 99.8293 133.24 101.824ZM131.583 97.1694C131.739 96.5833 132.546 96.0311 132.983 95.7268C133.184 95.5915 133.274 95.5239 133.319 95.4676C133.42 95.3323 133.464 95.0844 133.52 94.8364C133.543 94.7124 133.565 94.5885 133.599 94.487C133.644 94.3292 134.002 94.318 134.181 94.3292C134.876 94.6561 134.864 94.8026 134.842 95.028C134.831 95.1633 134.674 95.3323 134.528 95.5014C134.45 95.5915 134.36 95.6817 134.282 95.7831C134.013 96.1438 134.36 96.8764 134.517 97.1694C134.696 97.5188 135.727 98.9614 136.925 99.7053C137.877 100.303 138.975 100.551 139.95 100.765C140.655 100.923 141.271 101.058 141.641 101.306C142.089 101.599 142.358 101.971 142.369 102.354C142.38 102.579 142.291 102.782 142.111 102.917C141.731 103.21 138.348 104.597 134.439 102.309C130.776 100.156 131.325 98.1274 131.56 97.2596L131.583 97.1694Z" fill="#760517"/>
<path d="M134.898 100.956C135.256 101.227 135.693 101.497 136.197 101.745C138.684 102.974 140.801 102.94 140.89 102.929C140.958 102.929 141.025 102.861 141.014 102.793C141.014 102.726 140.947 102.658 140.879 102.669C140.857 102.669 138.729 102.703 136.309 101.508C132.714 99.7277 133.184 97.2707 133.207 97.158C133.218 97.0904 133.173 97.0115 133.106 97.0003C133.039 96.989 132.96 97.0341 132.949 97.1017C132.949 97.1355 132.546 99.198 134.898 100.956Z" fill="#760517"/>
<path d="M136.164 112.002C136.365 111.325 135.973 110.401 135.727 109.849C135.671 109.714 135.604 109.567 135.604 109.533C135.592 109.421 135.682 109.195 135.749 109.004C135.794 108.88 135.839 108.767 135.872 108.643C136.007 108.215 135.368 107.91 135.29 107.877C135.279 107.877 135.268 107.865 135.256 107.865C134.349 107.741 134.192 107.933 134.036 108.248C133.935 108.451 133.991 108.722 134.036 108.981C134.058 109.094 134.08 109.206 134.092 109.319C134.114 109.545 133.7 109.883 133.296 110.119C132.983 110.3 131.381 110.953 130.048 110.942C128.973 110.931 127.931 110.559 127.013 110.232C126.307 109.984 125.691 109.759 125.209 109.77C124.593 109.77 124.078 109.995 123.82 110.379C123.641 110.638 123.608 110.942 123.708 111.235C123.843 111.607 124.437 112.407 125.478 113.185C126.665 114.075 128.435 114.921 130.765 115C135.212 115.146 135.85 112.993 136.13 112.069L136.164 112.002ZM130.787 114.74C126.273 114.583 124.134 111.596 123.966 111.145C123.888 110.942 123.921 110.717 124.044 110.525C124.257 110.221 124.683 110.04 125.221 110.029C125.657 110.029 126.251 110.232 126.934 110.48C127.875 110.818 128.928 111.19 130.048 111.201C131.459 111.213 133.095 110.536 133.431 110.345C133.722 110.176 134.394 109.747 134.36 109.297C134.349 109.173 134.327 109.049 134.304 108.925C134.26 108.711 134.215 108.485 134.282 108.361C134.383 108.158 134.439 108.023 135.212 108.125C135.38 108.203 135.682 108.406 135.626 108.564C135.592 108.677 135.548 108.789 135.503 108.902C135.413 109.15 135.324 109.376 135.335 109.545C135.346 109.612 135.38 109.725 135.48 109.95C135.693 110.435 136.074 111.337 135.906 111.923L135.884 111.99C135.637 112.858 135.032 114.876 130.787 114.74Z" fill="#760517"/>
<path d="M134.707 110.964C134.64 110.942 134.562 110.976 134.539 111.043C134.506 111.145 133.599 113.489 129.611 113.061C126.923 112.779 125.142 111.607 125.131 111.596C125.075 111.551 124.985 111.573 124.952 111.629C124.918 111.686 124.929 111.765 124.985 111.81C124.985 111.81 124.985 111.81 124.996 111.81C125.075 111.855 126.844 113.027 129.6 113.32C133.8 113.76 134.786 111.156 134.797 111.122C134.808 111.066 134.775 110.987 134.707 110.964Z" fill="#760517"/>
<path d="M135.783 87.8261C136.018 88.5474 136.219 89.1673 136.511 89.5505C136.645 89.7195 136.791 89.866 136.948 89.9788C137.228 90.1929 137.541 90.2943 137.832 90.2831C138.146 90.2718 138.415 90.114 138.572 89.8435C138.807 89.4603 139.143 88.2318 139.008 86.6201L138.728 86.406C138.919 88.1755 138.493 89.4603 138.348 89.697C138.236 89.8886 138.045 89.99 137.81 90.0126C137.44 90.0351 137.037 89.7984 136.712 89.3814C136.444 89.032 136.253 88.4347 136.029 87.7359C135.727 86.7892 135.379 85.7072 134.696 84.8056C134.595 84.6703 134.483 84.5463 134.371 84.4224C134.282 84.4449 134.192 84.4787 134.103 84.5238C134.237 84.6703 134.371 84.8168 134.483 84.9746C135.144 85.8425 135.48 86.9019 135.783 87.8261Z" fill="#760517"/>
<path d="M138.012 88.5134C138.012 88.5585 138.034 88.5923 138.068 88.6148C138.09 88.6374 138.124 88.6374 138.157 88.6374C138.224 88.6374 138.28 88.5698 138.28 88.4909C138.28 88.4232 138.18 87.1497 137.474 85.4816L137.037 85.1548C137.888 87.0032 138.012 88.4909 138.012 88.5134Z" fill="#760517"/>
<path d="M142.201 89.6181C142.178 89.7082 142.167 89.7984 142.122 89.8322C142.055 89.8998 141.73 89.8547 141.473 89.7195C140.98 89.4603 140.308 89.3814 140.05 89.7195C140.028 89.742 140.017 89.7759 140.005 89.8097C139.591 89.7984 139.177 89.8773 138.751 90.0689C137.586 90.5986 136.724 91.7144 136.376 93.157C136.063 94.4306 136.253 95.7042 136.869 96.4819C136.959 96.5946 137.071 96.7073 137.194 96.7974C137.698 97.1694 138.426 97.3272 139.322 97.2483C140.89 97.1017 142.548 96.2677 143.018 95.3773C143.478 94.5095 143.623 93.6755 143.444 92.8865C143.466 92.8527 143.489 92.8189 143.5 92.7626C143.646 92.2554 143.489 91.3763 142.962 90.7902L142.918 90.7451C142.705 90.5084 142.705 90.5084 142.75 90.3845C142.761 90.3507 142.895 90.2943 142.951 90.2718C143.086 90.2154 143.231 90.1591 143.265 90.0238C143.287 89.9449 143.254 89.8547 143.175 89.7759L142.447 89.2349C142.414 89.2461 142.369 89.2574 142.346 89.2912C142.246 89.3588 142.223 89.4941 142.201 89.6181ZM143.186 92.9429C143.343 93.6642 143.209 94.4306 142.783 95.2421C142.358 96.0536 140.756 96.8425 139.3 96.9778C138.28 97.0679 137.485 96.8312 137.082 96.3128C136.522 95.6027 136.354 94.4193 136.645 93.2134C136.97 91.8722 137.799 90.7902 138.874 90.3056C139.266 90.1252 139.647 90.0463 140.028 90.0689C140.039 90.0689 140.05 90.0689 140.061 90.0576C140.218 90.283 140.633 90.4972 140.879 90.6099C140.745 90.9367 140.509 91.658 140.879 91.8835C141.148 92.0412 141.484 91.8835 141.719 91.7257C141.697 92.0751 141.697 92.5597 141.887 92.7062C141.887 92.7062 141.887 92.7062 141.898 92.7062C141.954 92.7513 142.022 92.7626 142.1 92.7513C142.29 92.7175 142.514 92.4695 142.66 92.2892C142.806 92.5935 142.996 92.8753 143.186 92.9429ZM142.873 89.8097C142.906 89.8548 142.951 89.8886 142.985 89.9336C142.985 89.9336 142.985 89.9449 142.996 89.9449C142.962 89.9675 142.895 89.99 142.862 90.0013C142.716 90.0576 142.559 90.1252 142.503 90.2718C142.402 90.5535 142.47 90.6211 142.716 90.9029L142.761 90.948C143.22 91.4552 143.366 92.2328 143.242 92.6611V92.6724C143.142 92.5935 142.94 92.3005 142.783 91.9736C142.761 91.9285 142.716 91.906 142.671 91.906C142.626 91.906 142.582 91.9285 142.548 91.9623C142.346 92.2667 142.111 92.4921 142.033 92.4808C141.943 92.4132 141.932 91.9173 141.988 91.4326C141.999 91.3875 141.977 91.3425 141.932 91.3087C141.921 91.3087 141.921 91.2974 141.91 91.2974C141.865 91.2748 141.798 91.2748 141.764 91.3199C141.63 91.4439 141.204 91.7708 140.991 91.6468C140.834 91.5453 140.98 90.9705 141.148 90.5873C141.159 90.5535 141.159 90.5197 141.148 90.4859C141.137 90.4521 141.114 90.4295 141.081 90.407C140.655 90.2267 140.241 89.9675 140.241 89.866C140.386 89.6744 140.89 89.7082 141.338 89.9336C141.506 90.0238 142.044 90.2267 142.29 90.0125C142.402 89.9111 142.425 89.7759 142.447 89.6519C142.458 89.573 142.481 89.4941 142.514 89.4603C142.593 89.4941 142.772 89.697 142.873 89.8097Z" fill="#760517"/>
<path d="M138.045 109.759C138.045 109.747 138.034 109.736 138.023 109.725C138.157 109.477 138.157 109.015 138.146 108.744C138.493 108.722 139.244 108.609 139.277 108.181C139.3 107.865 138.997 107.64 138.762 107.493C139.087 107.358 139.501 107.133 139.557 106.896C139.569 106.817 139.557 106.75 139.513 106.682C139.401 106.524 139.076 106.434 138.852 106.389C139.042 106.107 139.21 105.803 139.188 105.611C139.759 105.149 140.498 104.924 141.406 104.946C141.697 104.957 142.055 105.07 142.414 105.273L142.57 105.059C142.156 104.834 141.753 104.687 141.406 104.676C140.431 104.653 139.625 104.901 138.997 105.408C138.964 105.397 138.919 105.397 138.863 105.408C138.348 105.51 137.642 106.039 137.362 106.772L137.34 106.828C137.228 107.121 137.228 107.121 137.093 107.144C137.06 107.144 136.959 107.054 136.903 107.009C136.791 106.907 136.679 106.806 136.544 106.84C136.466 106.862 136.399 106.919 136.365 107.031C136.343 107.076 136.332 107.133 136.309 107.178C136.197 107.46 136.096 107.708 136.175 107.865C136.197 107.922 136.242 107.967 136.309 107.989C136.432 108.034 136.567 108.001 136.679 107.967C136.768 107.944 136.847 107.922 136.903 107.944C136.992 107.978 137.093 108.294 137.093 108.575C137.093 109.037 137.239 109.545 137.53 109.759C137.597 109.804 137.664 109.838 137.743 109.86C137.777 109.871 137.81 109.86 137.833 109.86C137.967 110.153 138.157 110.424 138.404 110.672L138.561 110.458C138.325 110.266 138.157 110.018 138.045 109.759ZM137.765 109.624C137.53 109.578 137.328 109.105 137.34 108.609C137.34 108.429 137.295 107.944 137.06 107.764C137.037 107.741 137.015 107.73 136.981 107.719C136.847 107.662 136.712 107.708 136.589 107.741C136.511 107.764 136.444 107.786 136.388 107.775C136.376 107.696 136.477 107.448 136.533 107.302C136.556 107.245 136.578 107.2 136.589 107.144V107.133C136.623 107.155 136.668 107.2 136.701 107.223C136.813 107.324 136.948 107.437 137.093 107.426C137.384 107.392 137.418 107.302 137.564 106.952L137.586 106.896C137.833 106.254 138.46 105.78 138.897 105.69H138.908C138.885 105.814 138.706 106.13 138.493 106.423C138.46 106.456 138.46 106.513 138.482 106.558C138.505 106.603 138.538 106.637 138.583 106.637C138.908 106.682 139.255 106.795 139.277 106.862C139.255 106.964 138.818 107.212 138.359 107.369C138.303 107.392 138.269 107.437 138.269 107.493C138.269 107.55 138.303 107.595 138.359 107.617C138.527 107.685 139.009 107.922 138.997 108.17C138.986 108.361 138.404 108.485 137.989 108.496C137.956 108.496 137.922 108.519 137.9 108.542C137.877 108.564 137.866 108.609 137.866 108.643C137.911 109.094 137.855 109.578 137.765 109.624Z" fill="#760517"/>
<path d="M122.028 102.264C122.532 102.636 123.261 102.794 124.157 102.715C125.725 102.568 127.382 101.734 127.853 100.844C128.312 99.9758 128.458 99.1418 128.278 98.3529C128.301 98.3191 128.323 98.2853 128.334 98.2289C128.48 97.7217 128.323 96.8426 127.797 96.2566L127.752 96.2115C127.539 95.9748 127.539 95.9748 127.584 95.8508C127.595 95.817 127.73 95.7606 127.786 95.7381C127.92 95.6818 128.066 95.6254 128.099 95.4902C128.122 95.4113 128.088 95.3211 128.01 95.2422C127.976 95.2084 127.942 95.1633 127.898 95.1182C127.696 94.8928 127.517 94.6899 127.349 94.6899C127.282 94.6899 127.226 94.7125 127.181 94.7576C127.08 94.8477 127.058 94.983 127.035 95.107C127.013 95.1971 127.002 95.2873 126.957 95.3211C126.89 95.3887 126.565 95.3436 126.307 95.2084C126.184 95.1408 126.049 95.0957 125.915 95.0506L125.747 95.276C125.893 95.3098 126.038 95.3662 126.184 95.4338C126.352 95.524 126.89 95.7268 127.136 95.5127C127.248 95.4113 127.27 95.276 127.293 95.152C127.304 95.0731 127.326 94.9942 127.36 94.9604C127.438 94.983 127.606 95.1858 127.718 95.2985C127.752 95.3436 127.797 95.3774 127.83 95.4225C127.83 95.4225 127.83 95.4338 127.842 95.4338C127.808 95.4563 127.741 95.4789 127.707 95.4902C127.562 95.5465 127.405 95.6141 127.349 95.7606C127.248 96.0424 127.315 96.11 127.562 96.3918L127.606 96.4369C128.066 96.9441 128.211 97.7217 128.088 98.15V98.1613C127.987 98.0824 127.786 97.7894 127.629 97.4625C127.606 97.4174 127.562 97.3949 127.517 97.3949C127.472 97.3949 127.427 97.4174 127.394 97.4512C127.192 97.7555 126.957 97.981 126.878 97.9697C126.789 97.9021 126.778 97.4062 126.834 96.9215C126.845 96.8764 126.822 96.8314 126.778 96.7975C126.766 96.7975 126.766 96.7863 126.755 96.7863C126.71 96.7637 126.643 96.7637 126.61 96.8088C126.475 96.9328 126.049 97.2596 125.837 97.1357C125.68 97.0455 125.825 96.4594 125.993 96.0762C126.005 96.0424 126.005 96.0086 125.993 95.9748C125.982 95.941 125.949 95.9184 125.926 95.8959C125.758 95.8283 125.59 95.7381 125.456 95.6592L125.299 95.8734C125.445 95.9635 125.59 96.0311 125.713 96.0875C125.579 96.4143 125.344 97.1357 125.713 97.3611C125.982 97.5189 126.318 97.3611 126.554 97.2033C126.531 97.5527 126.531 98.0373 126.722 98.1838C126.722 98.1838 126.722 98.1838 126.733 98.1838C126.789 98.2289 126.856 98.2402 126.934 98.2289C127.125 98.1951 127.349 97.9471 127.494 97.7668C127.651 98.0598 127.853 98.3416 128.032 98.4205C128.189 99.1418 128.054 99.9082 127.629 100.72C127.203 101.531 125.601 102.32 124.145 102.455C123.126 102.546 122.331 102.309 121.928 101.79C121.76 101.576 121.614 101.306 121.524 101.013L121.334 101.272C121.435 101.531 121.558 101.768 121.726 101.959C121.793 102.061 121.905 102.162 122.028 102.264Z" fill="#760517"/>
<path d="M127.998 93.3375C129.152 94.2053 131.325 93.7433 132.613 92.7627C133.375 92.1879 133.688 91.5117 133.509 90.8918C133.52 90.8805 133.532 90.8242 133.554 90.7453C133.868 90.9143 134.696 91.2525 135.369 90.6777C135.413 90.6438 135.425 90.5875 135.413 90.5311L135.167 89.8098C135.156 89.7647 135.111 89.7309 135.077 89.7197C135.033 89.7084 134.988 89.7197 134.954 89.7535C134.943 89.7647 134.304 90.3846 133.632 90.1367C133.621 89.7647 133.509 89.2914 133.151 88.7617C132.759 88.1869 132.098 87.8149 131.347 87.6797L131.168 87.9164C131.896 88.0178 132.546 88.3559 132.927 88.9194C133.397 89.607 133.397 90.193 133.341 90.5199C132.972 89.9 132.333 89.607 131.471 89.652C130.81 89.6858 130.071 89.9451 129.41 90.317L128.928 90.9707C129.667 90.4184 130.653 89.9902 131.493 89.9451C131.885 89.9225 132.356 89.9789 132.736 90.2607C132.916 90.3959 133.072 90.5875 133.196 90.8354C133.554 91.5906 132.792 92.2781 132.456 92.5486C131.213 93.4953 129.085 93.9123 128.088 93.0557C127.898 92.898 127.819 92.6951 127.83 92.4697L127.584 92.7965C127.64 92.9769 127.741 93.1346 127.898 93.2699C127.931 93.2812 127.965 93.3037 127.998 93.3375ZM133.621 90.4635C133.621 90.441 133.621 90.4297 133.621 90.4072C134.204 90.5762 134.73 90.2606 134.976 90.069L135.133 90.5199C134.551 90.9482 133.8 90.565 133.621 90.4635Z" fill="#760517"/>
<path d="M148.54 95.6143C147.376 94.6788 145.135 95.2198 143.836 96.2792C143.097 96.8878 142.806 97.5753 143.007 98.1839C143.007 98.1952 142.985 98.2516 142.962 98.3305C142.638 98.1727 141.798 97.8684 141.159 98.4657C141.114 98.4995 141.103 98.5559 141.125 98.6122L141.405 99.3223C141.417 99.3448 141.428 99.3673 141.45 99.3786C141.461 99.3899 141.484 99.4012 141.506 99.4012C141.551 99.4124 141.596 99.3899 141.629 99.3673C141.641 99.3561 142.257 98.7137 142.94 98.9391C142.974 99.311 143.097 99.7731 143.466 100.292C143.601 100.472 143.758 100.63 143.948 100.765C144.34 101.058 144.822 101.238 145.348 101.306L145.527 101.069C144.777 101.002 144.094 100.686 143.69 100.134C143.198 99.4688 143.175 98.8827 143.22 98.5559C143.332 98.7362 143.478 98.8827 143.634 99.0067C144.015 99.2885 144.519 99.4124 145.124 99.3561C145.908 99.2885 146.804 98.894 147.521 98.3755L148.585 96.9442C148.753 96.7188 148.876 96.4821 148.955 96.2341C148.944 96.2003 148.932 96.1778 148.921 96.144C148.843 95.9411 148.731 95.7608 148.54 95.6143ZM141.585 99.0518L141.417 98.601C141.988 98.1614 142.761 98.5108 142.94 98.601C142.94 98.6235 142.94 98.6348 142.94 98.6573C142.335 98.5221 141.82 98.8489 141.585 99.0518ZM145.079 99.0743C144.508 99.1307 143.746 99.0292 143.343 98.2403C142.962 97.4964 143.69 96.7751 144.026 96.5046C145.236 95.5128 147.353 95.0169 148.372 95.8397C148.63 96.0425 148.708 96.3243 148.608 96.6624C148.283 97.6993 146.479 98.9391 145.079 99.0743Z" fill="#760517"/>
<path d="M121.838 109.533C123.249 108.902 124.336 107.087 123.652 104.946C123.619 104.743 123.518 104.551 123.35 104.394C122.398 103.458 120.438 103.616 119.049 104.337L118.578 104.969C118.646 104.912 118.713 104.867 118.758 104.833C120.057 103.965 122.208 103.684 123.148 104.597C123.384 104.822 123.428 105.115 123.294 105.442C122.88 106.445 120.964 107.493 119.553 107.482C118.982 107.482 118.231 107.302 117.906 106.49C117.828 106.298 117.828 106.118 117.862 105.949C117.212 107.054 117.481 108.485 118.522 109.274L118.657 109.375C119.542 109.905 120.785 110.006 121.838 109.533ZM118.052 108.406C117.626 107.685 117.66 107.11 117.738 106.783C117.862 107.02 118.03 107.223 118.231 107.38C118.567 107.64 119.015 107.764 119.553 107.775C121.054 107.786 123.036 106.704 123.529 105.611C123.82 107.358 122.891 108.778 121.715 109.296C120.371 109.894 118.69 109.488 118.052 108.406Z" fill="#760517"/>
<path d="M126.945 108.248C126.979 108.282 127.012 108.305 127.046 108.327C128.2 109.195 130.373 108.733 131.661 107.753C132.422 107.178 132.736 106.502 132.557 105.882C132.568 105.87 132.579 105.814 132.602 105.735C132.915 105.904 133.744 106.242 134.416 105.667C134.461 105.634 134.472 105.577 134.461 105.521L134.215 104.8C134.203 104.755 134.159 104.721 134.125 104.709C134.08 104.698 134.035 104.709 134.002 104.743C133.991 104.755 133.352 105.374 132.68 105.126C132.669 104.755 132.557 104.281 132.198 103.751C131.426 102.602 129.566 102.264 128.144 103.008C126.777 103.729 125.803 105.6 126.62 107.707C126.665 107.922 126.777 108.102 126.945 108.248ZM134.035 105.081L134.192 105.532C133.599 105.949 132.848 105.566 132.669 105.476C132.669 105.453 132.669 105.442 132.669 105.42C133.263 105.589 133.789 105.273 134.035 105.081ZM128.267 103.256C129.577 102.568 131.28 102.872 131.986 103.909C132.456 104.597 132.456 105.183 132.4 105.51C132.03 104.89 131.392 104.597 130.53 104.642C129.029 104.721 127.124 105.927 126.688 107.054C126.284 105.329 127.124 103.853 128.267 103.256ZM130.541 104.935C130.933 104.912 131.403 104.969 131.784 105.25C131.963 105.386 132.12 105.577 132.243 105.825C132.602 106.58 131.84 107.268 131.504 107.538C130.261 108.485 128.133 108.902 127.136 108.046C126.889 107.831 126.822 107.55 126.934 107.212C127.281 106.175 129.141 105.014 130.541 104.935Z" fill="#760517"/>
<path d="M87.25 120.263C87.25 120.263 122.264 119.993 119.508 105.735C115.174 83.3181 81.168 104.541 81.168 104.541" fill="#8F73B0"/>
<path d="M101.464 100.415C101.609 99.8181 101.99 99.1644 103.39 98.7587C104.992 98.3079 108.173 97.5189 110.772 98.77C114.087 100.37 115.543 102.624 114.11 103.143C112.676 103.661 110.368 101.576 107.479 101.655C104.958 101.723 100.982 102.388 101.464 100.415Z" fill="#BC9AEF"/>
<path d="M160.38 101.689C160.38 101.689 158.487 125.898 145.281 129.392C132.064 132.875 126.251 124.275 129.667 115.236C133.084 106.197 139.916 107.313 139.916 107.313" fill="#7D659F"/>
<path d="M161.343 97.5527C161.343 97.5527 159.45 119.136 146.244 122.247C133.038 125.357 127.214 117.682 130.63 109.624C134.046 101.565 140.879 102.568 140.879 102.568" fill="#8F73B0"/>
<path d="M143.61 118.638C144.017 116.995 142.295 115.148 139.762 114.512C137.229 113.875 134.846 114.691 134.438 116.334C134.031 117.976 135.753 119.824 138.286 120.46C140.819 121.096 143.202 120.28 143.61 118.638Z" fill="#BC9AEF"/>
<path d="M211 52C213.761 52 216 49.7614 216 47C216 44.2386 213.761 42 211 42C208.239 42 206 44.2386 206 47C206 49.7614 208.239 52 211 52Z" fill="#57BEB7"/>
<path d="M234 73C235.105 73 236 72.1046 236 71C236 69.8954 235.105 69 234 69C232.895 69 232 69.8954 232 71C232 72.1046 232.895 73 234 73Z" fill="#ECCD52"/>
<path d="M44 158C45.1046 158 46 157.105 46 156C46 154.895 45.1046 154 44 154C42.8954 154 42 154.895 42 156C42 157.105 42.8954 158 44 158Z" fill="#ECCD52"/>
<path d="M27.5 149C29.9853 149 32 146.985 32 144.5C32 142.015 29.9853 140 27.5 140C25.0147 140 23 142.015 23 144.5C23 146.985 25.0147 149 27.5 149Z" fill="#DC4C7C"/>
</svg>
