<svg width="250" height="171" viewBox="0 0 250 171" fill="none" xmlns="http://www.w3.org/2000/svg">
<path d="M225 42C227.761 42 230 39.7614 230 37C230 34.2386 227.761 32 225 32C222.239 32 220 34.2386 220 37C220 39.7614 222.239 42 225 42Z" fill="#57BEB7"/>
<path d="M59 17C60.1046 17 61 16.1046 61 15C61 13.8954 60.1046 13 59 13C57.8954 13 57 13.8954 57 15C57 16.1046 57.8954 17 59 17Z" fill="#ECCD52"/>
<path d="M211 64C212.105 64 213 63.1046 213 62C213 60.8954 212.105 60 211 60C209.895 60 209 60.8954 209 62C209 63.1046 209.895 64 211 64Z" fill="#ECCD52"/>
<path d="M33.5 59C35.9853 59 38 56.9853 38 54.5C38 52.0147 35.9853 50 33.5 50C31.0147 50 29 52.0147 29 54.5C29 56.9853 31.0147 59 33.5 59Z" fill="#DC4C7C"/>
<g clip-path="url(#clip0_3887_85286)">
<path d="M80.3855 75.0078C79.1068 76.6097 77.8281 78.4118 76.5094 80.4542C75.3905 82.1762 74.4715 83.8582 73.6323 85.42C76.1098 85.0195 78.5873 84.6591 81.0248 84.2586L86.3794 80.334L80.3855 75.0078Z" fill="#BDC15B"/>
<path d="M151.952 150.857C157.866 149.415 162.582 153.099 164.42 150.857C166.258 148.614 170.134 144.569 172.172 146.572C174.21 148.574 178.286 148.334 179.524 146.011C180.763 143.688 177.486 104.442 177.486 104.442H126.458L118.786 124.826L123.302 145.29L149.275 152.659L151.952 150.857Z" fill="#0E5AAD"/>
<path d="M172.172 124.225C171.772 106.645 168.775 122.984 169.055 129.592C169.295 135.158 169.415 143.047 168.576 146.892C169.934 146.011 171.253 145.651 172.172 146.572C172.652 147.052 173.251 147.413 173.93 147.653C173.131 147.252 172.572 141.686 172.172 124.225Z" fill="#0B4B84"/>
<path d="M157.627 113.573C155.869 113.853 134.85 127.669 134.051 131.474C133.331 134.878 131.613 144.289 131.573 147.693L149.275 152.698L148.556 153.94C151.913 153.139 158.226 150.896 160.504 151.337C159.864 149.374 159.145 144.609 159.625 133.156C160.464 114.534 159.385 113.292 157.627 113.573Z" fill="#0B4B84"/>
<path d="M179.524 146.051C180.004 145.09 179.764 138.042 179.325 130.032C178.965 137.161 178.286 143.688 177.087 144.649C176.048 145.49 175.209 146.692 174.609 147.853C176.527 148.254 178.685 147.613 179.524 146.051Z" fill="#1F73B2"/>
<path d="M178.166 113.373C177.846 109.368 177.606 106.244 177.526 105.043C176.328 104.883 175.049 104.683 173.73 104.482H151.393C141.123 107.085 124.94 111.25 124.94 111.25L129.615 120.181C129.615 120.181 141.243 132.876 161.023 123.945C169.335 120.221 174.729 116.456 178.166 113.373Z" fill="#0B4B84"/>
<path d="M167.057 109.889C167.057 109.889 161.303 128.671 158.506 136.48C155.789 144.129 157.467 152.739 153.191 155.822C148.916 158.906 135.649 166.315 123.262 161.429C112.952 157.344 119.745 143.007 134.89 144.569C134.89 144.569 137.327 125.347 142.242 119.42C147.157 113.453 167.057 109.889 167.057 109.889Z" fill="#D9E37A"/>
<path d="M144.999 104.282C144.999 104.282 139.245 123.064 136.448 130.873C133.731 138.522 135.409 147.132 131.134 150.215C126.858 153.299 113.591 160.708 101.204 155.822C90.8945 151.737 97.6876 137.4 112.832 138.962C112.832 138.962 115.27 119.74 120.185 113.813C125.14 107.886 144.999 104.282 144.999 104.282Z" fill="#C5C96E"/>
<path d="M142.243 119.38C139.885 122.263 138.087 128.27 136.848 133.676C137.527 133.717 138.247 133.717 138.966 133.676C147.717 133.476 155.709 130.232 161.703 126.788C164.3 118.699 167.017 109.849 167.017 109.849C167.017 109.849 147.158 113.453 142.243 119.38Z" fill="#C5C96E"/>
<path d="M169.455 42.2095C162.582 13.7762 136.368 -4.80553 110.554 1.08135C84.2612 7.04833 69.5162 33.0387 75.0705 62.1928C77.1884 73.3659 81.9036 77.2504 84.8606 86.7415C84.8606 86.7415 88.377 99.8369 89.8955 104.803C87.4979 108.087 86.4989 112.612 87.6178 117.137C89.4959 124.866 98.0072 133.116 110.874 124.265C117.228 127.99 123.701 131.634 137.087 128.35C151.273 124.906 154.63 120.261 159.225 114.614C161.263 114.734 165.898 115.295 167.976 114.774C179.325 112.011 186.237 100.237 183.4 88.4636C182.242 83.5778 179.524 79.4931 176.008 76.5296C175.169 68.1198 172.052 53.0621 172.052 53.0221C170.893 48.0963 169.894 43.9715 169.455 42.2095Z" fill="#D9E37A"/>
<path d="M120.824 39.967C114.83 40.2072 109.955 44.6524 108.916 50.3391C106.559 46.4145 102.203 43.8916 97.3281 44.0918C90.2553 44.4122 84.7409 50.3791 85.0606 57.5075C85.3803 64.5958 91.3342 70.1222 98.447 69.8019C104.561 69.5215 109.476 65.0363 110.515 59.2695C112.832 63.114 117.108 65.5969 121.903 65.3967C128.896 65.0763 134.33 59.1494 134.011 52.1412C133.731 45.093 127.817 39.6866 120.824 39.967Z" fill="white"/>
<path d="M118.746 62.1927C121.902 62.1927 124.461 59.6287 124.461 56.466C124.461 53.3032 121.902 50.7393 118.746 50.7393C115.591 50.7393 113.032 53.3032 113.032 56.466C113.032 59.6287 115.591 62.1927 118.746 62.1927Z" fill="#040000"/>
<path d="M99.6458 65.677C102.802 65.677 105.36 63.1131 105.36 59.9503C105.36 56.7876 102.802 54.2236 99.6458 54.2236C96.49 54.2236 93.9316 56.7876 93.9316 59.9503C93.9316 63.1131 96.49 65.677 99.6458 65.677Z" fill="#040000"/>
<path d="M126.818 67.8793C122.583 64.2751 101.084 69.9217 100.525 74.2067C100.085 77.7308 103.882 80.454 108.197 81.8156C111.314 82.8168 113.272 83.4975 117.028 82.4163C120.664 81.335 122.383 79.5329 124.62 77.01C127.538 73.7261 129.216 69.8816 126.818 67.8793Z" fill="#040000"/>
<path d="M96.7688 58.4685C97.0999 58.4685 97.3682 58.1995 97.3682 57.8678C97.3682 57.536 97.0999 57.2671 96.7688 57.2671C96.4378 57.2671 96.1694 57.536 96.1694 57.8678C96.1694 58.1995 96.4378 58.4685 96.7688 58.4685Z" fill="white"/>
<path d="M115.749 54.7038C116.08 54.7038 116.349 54.4349 116.349 54.1031C116.349 53.7714 116.08 53.5024 115.749 53.5024C115.418 53.5024 115.15 53.7714 115.15 54.1031C115.15 54.4349 115.418 54.7038 115.749 54.7038Z" fill="white"/>
<path d="M108.237 81.8157C111.354 82.8169 113.312 83.4977 117.068 82.4164C120.704 81.3351 122.423 79.533 124.66 77.0501C121.623 75.4883 117.987 74.2869 114.83 75.208C110.714 76.4094 107.398 78.8923 105.4 80.6944C106.279 81.0949 107.238 81.4953 108.237 81.8157Z" fill="#D05E53"/>
<path d="M146.398 65.2363C144.76 67.0785 132.452 82.016 130.175 83.778C130.175 83.778 121.823 82.2162 120.904 84.8993C120.065 87.3021 123.581 88.9441 123.581 88.9441C123.581 88.9441 117.507 93.2691 119.026 96.3928C120.345 99.116 125.1 95.9523 125.1 95.9523C125.1 95.9523 121.583 100.958 124.7 102.4C128.137 104.002 129.375 98.275 129.375 98.275C129.375 98.275 129.216 102.68 131.893 103.201C134.57 103.721 135.289 98.3951 135.289 98.3951C135.289 98.3951 136.688 102.2 138.846 100.357C140.964 98.5153 139.205 93.0689 139.205 93.0689C139.205 93.0689 150.274 83.6579 155.549 73.2057" fill="#B5B964"/>
<path d="M148.276 62.1929C146.438 63.8748 132.413 77.8111 129.975 79.3329C129.975 79.3329 121.823 76.9301 120.625 79.5332C119.546 81.8559 122.902 83.8582 122.902 83.8582C122.902 83.8582 116.429 87.5425 117.588 90.8264C118.627 93.6697 123.701 90.9865 123.701 90.9865C123.701 90.9865 119.705 95.5919 122.662 97.354C125.939 99.3163 127.737 93.7097 127.737 93.7097C127.737 93.7097 127.138 98.0748 129.775 98.8758C132.413 99.6767 133.651 94.4706 133.651 94.4706C133.651 94.4706 134.65 98.3952 136.968 96.7533C139.286 95.1114 138.047 89.5449 138.047 89.5449C138.047 89.5449 149.995 81.2952 156.348 71.4437" fill="#D9E37A"/>
<path d="M136.488 10.2117C136.208 12.0539 128.137 12.2541 123.661 11.6134C119.226 10.9726 112.792 10.3719 112.712 7.64872C112.592 4.44497 120.185 4.32483 124.66 4.96558C129.096 5.60633 136.768 8.36956 136.488 10.2117Z" fill="#F7FC8B"/>
<path d="M130.254 99.3962C130.015 99.3962 129.815 99.3562 129.575 99.2761C127.937 98.7955 127.377 97.1936 127.218 95.792C126.698 96.673 125.899 97.6342 124.9 97.9946C124.061 98.315 123.222 98.1948 122.342 97.6742C121.623 97.2337 121.184 96.633 121.064 95.8321C120.864 94.5506 121.583 93.0288 122.263 91.9876C121.144 92.388 119.625 92.7484 118.466 92.3079C117.787 92.0676 117.348 91.5871 117.108 90.8662C116.029 87.9028 120.305 84.7791 121.983 83.7379C120.984 82.977 119.226 81.255 120.145 79.2527C121.383 76.5295 128.336 78.3316 129.855 78.7721C131.933 77.3304 139.885 69.6014 144.2 65.4365C145.918 63.7946 147.157 62.5932 147.637 62.1527C147.837 61.9925 148.116 61.9925 148.316 62.1927C148.476 62.3929 148.476 62.6733 148.276 62.8735C147.797 63.314 146.518 64.5555 144.88 66.1573C140.084 70.8028 132.053 78.5719 130.175 79.7332C130.055 79.8133 129.935 79.8133 129.775 79.7733C126.778 78.8922 121.743 78.0913 120.984 79.6932C120.105 81.5754 123.022 83.3775 123.062 83.4175C123.222 83.4976 123.301 83.6578 123.301 83.818C123.301 83.9782 123.222 84.1384 123.062 84.2185C121.343 85.1796 117.108 88.2632 117.987 90.5859C118.147 91.0264 118.426 91.3068 118.826 91.4669C120.185 91.9876 122.622 90.9463 123.461 90.5058C123.661 90.3857 123.901 90.4658 124.061 90.626C124.221 90.7862 124.181 91.0665 124.061 91.2267C123.421 91.9475 121.823 94.2302 122.063 95.752C122.143 96.2325 122.422 96.633 122.902 96.9133C123.501 97.2737 124.061 97.3538 124.62 97.1536C126.019 96.633 127.018 94.3503 127.297 93.5494C127.377 93.3091 127.617 93.189 127.857 93.229C128.097 93.2691 128.256 93.5093 128.217 93.7496C128.217 93.7897 127.697 97.7143 129.895 98.395C130.254 98.5152 130.614 98.4751 130.934 98.2749C132.133 97.5941 132.932 95.1913 133.171 94.3103C133.211 94.11 133.411 93.9499 133.611 93.9499C133.811 93.9499 134.011 94.11 134.091 94.3103C134.25 94.8309 134.77 96.3126 135.569 96.5929C135.889 96.7131 136.248 96.633 136.648 96.3527C138.326 95.1513 137.887 91.0665 137.567 89.6248C137.527 89.4246 137.607 89.2243 137.767 89.1442C137.887 89.0641 149.715 80.8145 155.908 71.1632C156.068 70.963 156.348 70.8829 156.548 71.003C156.747 71.1632 156.827 71.4435 156.708 71.6438C150.913 80.6543 140.324 88.4234 138.526 89.7049C138.766 90.9463 139.405 95.5517 137.167 97.1135C136.328 97.7143 135.649 97.6342 135.209 97.474C134.49 97.1936 133.971 96.5128 133.611 95.8321C133.211 96.9534 132.452 98.4351 131.333 99.0758C131.014 99.2761 130.654 99.3962 130.254 99.3962Z" fill="#C8CC6B"/>
<path d="M112.433 163.872L106.639 151.497H72.3935L66.5994 163.872C66.1998 164.312 66 164.753 66 165.193C66 168.397 76.5093 171 89.4961 171C102.483 171 112.992 168.397 112.992 165.193C113.032 164.753 112.832 164.312 112.433 163.872Z" fill="#8C5300"/>
<path d="M94.4111 151.497L95.2503 170.84C105.48 170.199 113.032 167.916 113.032 165.193C113.032 164.753 112.832 164.312 112.433 163.872L106.639 151.497H94.4111Z" fill="#995904"/>
<path d="M85.7002 170.92C86.9389 170.96 88.2176 171 89.4963 171C91.4144 171 93.2925 170.96 95.0906 170.84L94.4513 151.497H86.4195L85.7002 170.92Z" fill="#A05B08"/>
<path d="M89.4962 157.304C98.9417 157.304 106.599 154.704 106.599 151.497C106.599 148.29 98.9417 145.69 89.4962 145.69C80.0507 145.69 72.3936 148.29 72.3936 151.497C72.3936 154.704 80.0507 157.304 89.4962 157.304Z" fill="#BC7104"/>
<path d="M91.2944 154.701L79.2666 152.658V124.465H91.2944V154.701Z" fill="#8C5300"/>
<path d="M99.7658 150.696L91.2944 154.701V124.465H99.7658V150.696Z" fill="#C67B02"/>
<path opacity="0.8" d="M91.2944 139.283L79.2666 137.48V112.451H91.2944V139.283Z" fill="#3A2100"/>
<path opacity="0.8" d="M99.7658 135.758L91.2944 139.283V112.451H99.7658V135.758Z" fill="#3A2100"/>
<path d="M69.0371 120.14V127.028C69.3967 130.272 78.4276 132.875 89.4963 132.875C100.565 132.875 109.596 130.272 109.956 127.028V120.14H69.0371Z" fill="#8C5300"/>
<path d="M89.4962 126.187C100.818 126.187 109.995 123.48 109.995 120.14C109.995 116.801 100.818 114.093 89.4962 114.093C78.1749 114.093 68.9971 116.801 68.9971 120.14C68.9971 123.48 78.1749 126.187 89.4962 126.187Z" fill="#C67B02"/>
<path d="M89.4962 114.093C78.1877 114.093 68.9971 116.776 68.9971 120.14V121.822C72.034 124.906 80.825 127.309 89.4962 127.309C98.1674 127.309 106.919 124.906 109.995 121.822V120.14C109.995 116.776 100.845 114.093 89.4962 114.093ZM89.4962 125.026C77.6683 125.026 70.1559 122.143 70.1559 120.14C70.1559 118.138 77.7082 115.255 89.4962 115.255C101.284 115.255 108.837 118.138 108.837 120.14C108.837 122.143 101.324 125.026 89.4962 125.026Z" fill="#C67B02"/>
<path d="M89.2164 90.706C97.7129 90.706 104.601 88.5723 104.601 85.9404C104.601 83.3084 97.7129 81.1748 89.2164 81.1748C80.7198 81.1748 73.832 83.3084 73.832 85.9404C73.832 88.5723 80.7198 90.706 89.2164 90.706Z" fill="#E0AD53"/>
<path opacity="0.7" d="M89.2164 90.1454C81.0247 90.1454 74.3515 88.1831 73.872 85.6602C73.872 85.7402 73.832 85.8604 73.832 85.9405C73.832 88.5836 80.705 90.7061 89.2164 90.7061C97.6878 90.7061 104.601 88.5836 104.601 85.9405C104.601 85.8604 104.601 85.7402 104.561 85.6602C104.081 88.1431 97.4081 90.1454 89.2164 90.1454Z" fill="#FFEED2"/>
<path d="M106.599 112.451C105.24 107.926 100.045 102.039 100.005 99.7165C99.8456 94.2701 104.361 95.7118 104.561 86.1807C104.161 88.7036 97.448 90.706 89.2164 90.706C81.3044 90.706 74.7911 88.8638 73.9519 86.461C74.7911 96.6329 78.4274 93.8296 78.2675 99.5964C78.1876 103.241 70.875 107.806 72.1937 116.456C72.6732 119.62 74.9909 122.143 78.0677 122.984C81.0647 123.785 84.9008 124.425 89.4162 124.425C93.9316 124.425 97.7677 123.705 100.765 122.904C104.121 121.983 106.679 119.179 106.998 115.695C107.078 114.374 106.878 113.292 106.599 112.451Z" fill="#E2AD42"/>
<path d="M100.005 99.7163C99.9254 97.1934 100.844 96.1522 101.883 94.8306C99.326 95.6716 95.4899 96.5526 90.1753 96.913C84.2214 97.3536 79.5461 95.992 76.4293 94.6304C77.4283 95.9519 78.3473 96.6728 78.2674 99.5962C78.2275 100.958 77.1885 102.44 75.9897 104.202C78.8668 102.84 83.3822 101.398 89.496 101.198C94.8905 100.998 98.7266 101.879 101.324 102.84C100.565 101.558 100.045 100.437 100.005 99.7163Z" fill="#D89F3A"/>
<path d="M89.2163 89.5043C97.0508 89.5043 103.402 87.9086 103.402 85.9401C103.402 83.9717 97.0508 82.376 89.2163 82.376C81.3819 82.376 75.0308 83.9717 75.0308 85.9401C75.0308 87.9086 81.3819 89.5043 89.2163 89.5043Z" fill="#CC9636"/>
<path d="M79.7531 120.832C80.5661 120.261 80.2901 118.462 79.1368 116.814C77.9834 115.167 76.3894 114.294 75.5765 114.866C74.7635 115.438 75.0395 117.236 76.1928 118.884C77.3462 120.532 78.9402 121.404 79.7531 120.832Z" fill="#FFC969"/>
<path d="M76.0299 90.9463C75.8701 91.0264 75.3321 91.1245 75.1323 91.1245C75.8916 91.3648 77.1887 91.8273 77.6283 93.1088C78.1078 94.4304 76.9578 95.1512 76.3983 95.4716C76.6781 95.4315 77.3939 95.3965 77.7136 95.5567C77.8335 95.5166 78.1478 95.3915 78.3476 95.3514C78.907 95.0711 79.5064 94.4304 79.0269 93.1088C78.5873 91.8273 77.6283 91.3067 76.8691 91.0664C76.5094 91.1065 76.1898 91.0264 76.0299 90.9463Z" fill="#B47C1A"/>
<path d="M78.3074 95.3514C78.1875 95.4315 78.0277 95.4715 77.9478 95.5115C78.3873 95.7118 78.7869 96.1523 79.0666 96.9933C79.666 98.6752 78.7469 99.2759 78.0676 99.4762C78.4672 99.5563 78.7869 99.5963 78.7869 99.5963C78.7869 99.5963 81.3843 99.5162 80.4652 96.9933C79.9058 95.4715 78.9867 95.2713 78.3074 95.3514Z" fill="#D89F3A"/>
<path d="M74.1538 87.0737C74.7132 87.7545 76.4694 89.6247 76.4694 90.2254C76.4694 90.5858 75.8392 90.8044 75.6394 90.9646C75.7993 90.9646 76.4206 91.0762 76.7403 91.1963C77.2198 91.1963 77.8281 90.9061 77.868 90.2654C77.868 89.8649 77.6682 89.4645 77.3885 89.024C76.949 88.8638 75.1784 88.0135 74.1538 87.0737Z" fill="#B47C1A"/>
<path d="M79.9057 75.5684C79.9057 75.5684 71.4742 84.9393 71.6341 87.4222C71.7939 89.8651 73.4323 91.2667 73.4323 91.2667C73.4323 91.2667 72.7529 92.6283 73.0327 93.9899C73.3124 95.3515 74.9907 96.1124 74.9907 96.1124C74.9907 96.1124 74.2314 98.0346 74.9907 98.7555C75.7499 99.4763 77.4282 99.6365 77.4282 99.6365C77.4282 99.6365 80.0255 99.5564 79.1065 97.0335C78.1874 94.5105 76.1894 95.6719 76.1894 95.6719C76.1894 95.6719 78.4272 95.4316 77.6679 93.189C76.8688 90.9463 74.5112 90.9864 74.5112 90.9864C74.5112 90.9864 76.4292 91.6672 76.4692 90.3056C76.5091 88.944 73.8718 87.1819 73.8718 86.0206C73.8718 84.0983 79.9057 75.5684 79.9057 75.5684Z" fill="#BDC15B"/>
</g>
<defs>
<clipPath id="clip0_3887_85286">
<rect width="118" height="171" fill="white" transform="translate(66)"/>
</clipPath>
</defs>
</svg>
