<svg width="263" height="50" viewBox="0 0 263 50" fill="none" xmlns="http://www.w3.org/2000/svg">
<g clip-path="url(#clip0_3914_86877)">
<path d="M68.6909 4.58312V5.0484C68.6918 5.43722 68.6685 5.82571 68.6211 6.21163C70.3612 6.29073 71.6455 6.81185 72.483 7.78431C72.8848 8.26204 73.1827 8.81825 73.3577 9.41748C73.4574 9.74388 73.4792 10.0891 73.4212 10.4255C73.3633 10.7618 73.2273 11.0798 73.0241 11.3541C72.8209 11.6283 72.5562 11.851 72.2513 12.0044C71.9465 12.1578 71.6099 12.2375 71.2686 12.2372C70.8165 12.2348 70.3761 12.0927 70.0079 11.8303C69.6397 11.5679 69.3617 11.1981 69.212 10.7715C69.1401 10.565 69.0348 10.3716 68.9003 10.1992C68.7159 9.96673 68.4775 9.78286 68.2058 9.66364C67.9341 9.54443 67.6374 9.49344 67.3415 9.51517C66.6993 10.4251 65.8406 11.1607 64.8429 11.6555C63.877 12.1429 62.8161 12.4128 61.7348 12.4465C61.2063 12.4922 60.6799 12.3378 60.2598 12.0138C60.0609 11.8664 59.8979 11.6761 59.7827 11.457C59.6675 11.2379 59.6031 10.9956 59.5945 10.7482C59.5447 10.2826 59.6654 9.81485 59.9341 9.43145C60.2007 9.09447 60.5877 8.87422 61.0136 8.81724C61.9521 8.70943 62.8157 8.2527 63.4331 7.53769C63.9988 6.83358 64.2957 5.95126 64.2706 5.0484V4.58312H61.4789C61.2242 4.58825 60.9725 4.52733 60.7484 4.4063C60.5422 4.29009 60.363 4.13151 60.2226 3.94101C60.0827 3.76299 59.9727 3.56341 59.8969 3.35009C59.8223 3.14089 59.783 2.92081 59.7806 2.69873C59.7838 2.48158 59.815 2.26575 59.8736 2.05663C59.9363 1.83522 60.0388 1.62706 60.1761 1.44241C60.3184 1.2502 60.501 1.09141 60.7111 0.977122C60.9489 0.857123 61.2127 0.797973 61.4789 0.804967H71.8781C72.1444 0.796985 72.4084 0.856189 72.6458 0.977122C72.8568 1.09013 73.0397 1.24915 73.1809 1.44241C73.32 1.62598 73.4226 1.83448 73.4833 2.05663C73.5442 2.26526 73.5755 2.4814 73.5764 2.69873C73.5763 2.92101 73.5369 3.14149 73.4601 3.35009C73.3862 3.56426 73.276 3.76415 73.1344 3.94101C72.9956 4.1313 72.818 4.2899 72.6133 4.4063C72.3874 4.52732 72.1343 4.58821 71.8781 4.58312H68.6909ZM65.62 22.0315C64.9041 22.0472 64.1914 21.9321 63.5169 21.6918C62.9604 21.4903 62.4529 21.1732 62.0279 20.7612C61.63 20.37 61.3275 19.8924 61.1439 19.3654C60.944 18.8008 60.8448 18.2055 60.8508 17.6066C60.8464 17.0123 60.9456 16.4219 61.1439 15.8617C61.3303 15.3361 61.6324 14.859 62.0279 14.4659C62.4536 14.0548 62.9609 13.7378 63.5169 13.5353C64.1902 13.2894 64.9034 13.1711 65.62 13.1863H76.0424C76.7517 13.173 77.4576 13.2864 78.127 13.5214C78.6834 13.7229 79.1909 14.04 79.6159 14.4519C80.0108 14.8474 80.3156 15.3236 80.5092 15.8478C80.7165 16.414 80.8189 17.013 80.8117 17.6159C80.8189 18.2187 80.7165 18.8179 80.5092 19.384C80.3201 19.9105 80.0148 20.3876 79.6159 20.7799C79.1918 21.1929 78.6841 21.5102 78.127 21.7104C77.4566 21.9403 76.751 22.0505 76.0424 22.0361L65.62 22.0315ZM74.8094 18.7977C74.9987 18.8235 75.1914 18.8017 75.3701 18.7342C75.5489 18.6668 75.708 18.5559 75.8331 18.4116C75.9956 18.1847 76.0849 17.9136 76.089 17.6345C76.0867 17.3609 75.997 17.0952 75.8331 16.8761C75.7027 16.7399 75.5421 16.6365 75.3642 16.5742C75.1863 16.5119 74.9962 16.4926 74.8094 16.5178H66.853C66.6662 16.493 66.4762 16.5125 66.2984 16.5748C66.1206 16.637 65.9599 16.7402 65.8293 16.8761C65.6674 17.0962 65.578 17.3613 65.5734 17.6345C65.5792 17.9133 65.6683 18.1839 65.8293 18.4116C65.9547 18.5556 66.1138 18.6663 66.2925 18.7337C66.4711 18.8011 66.6637 18.8231 66.853 18.7977H74.8094ZM75.9494 8.16588H74.6233C74.3204 8.17521 74.019 8.11964 73.7393 8.00298C73.5212 7.90734 73.3273 7.76433 73.1716 7.58427C73.0222 7.40885 72.9141 7.20212 72.8552 6.97937C72.7949 6.75158 72.7636 6.51707 72.7622 6.28143C72.7631 6.04882 72.7943 5.81732 72.8552 5.59281C72.9169 5.3739 73.0195 5.16863 73.1576 4.98791C73.3103 4.80033 73.5069 4.65333 73.73 4.55988C74.0131 4.44382 74.3174 4.3883 74.6233 4.39699H75.9494V2.37299C75.9277 2.05671 75.9794 1.73972 76.1004 1.44673C76.2215 1.15374 76.4087 0.892677 76.6473 0.683987C77.0986 0.31126 77.6673 0.110198 78.2526 0.116348C78.5459 0.116644 78.837 0.16703 79.1134 0.265272C79.3859 0.362809 79.6382 0.50944 79.8578 0.69796C80.0802 0.891037 80.2594 1.12886 80.3836 1.39589C80.5197 1.7033 80.5864 2.03689 80.579 2.37299V10.1945C80.579 10.7725 80.3497 11.3268 79.9415 11.7359C79.5333 12.145 78.9794 12.3755 78.4015 12.3767H78.113C77.5342 12.3767 76.9792 12.1468 76.5699 11.7376C76.1607 11.3283 75.9308 10.7733 75.9308 10.1945L75.9494 8.16588Z" fill="white"/>
<path d="M83.8592 8.49629C84.9666 8.23001 85.9264 7.54227 86.5346 6.5793C87.1116 5.64872 87.3954 4.32265 87.3954 2.63365V2.49404C87.3865 2.16033 87.455 1.82911 87.5955 1.52626C87.7199 1.26344 87.903 1.03261 88.1306 0.85156C88.3596 0.672968 88.6199 0.538837 88.8983 0.456075C89.1885 0.371742 89.4894 0.329427 89.7916 0.330438C90.3654 0.333817 90.9206 0.534263 91.3643 0.898134C91.5894 1.09574 91.766 1.34241 91.8806 1.61913C91.9951 1.89585 92.0446 2.19518 92.025 2.49404V2.63365C92.025 3.03846 92.025 3.41532 91.9785 3.77359C91.9503 4.13246 91.9037 4.48968 91.8389 4.84378C92.5954 4.92682 93.332 5.13928 94.0165 5.47191C94.6673 5.79293 95.2417 6.2499 95.7008 6.81194C96.1932 7.42844 96.55 8.14192 96.7477 8.90575C96.7477 8.94762 96.771 8.98951 96.7849 9.03138C96.8704 9.36227 96.8787 9.70833 96.8094 10.043C96.74 10.3776 96.5948 10.6918 96.3849 10.9615C96.175 11.2312 95.9061 11.4491 95.5987 11.5985C95.2913 11.7479 94.9538 11.8247 94.612 11.8231C94.1149 11.8199 93.6328 11.6519 93.2413 11.3454C92.8497 11.039 92.5709 10.6113 92.4484 10.1295C92.39 9.90052 92.3025 9.68001 92.1879 9.47339C92.0313 9.18466 91.8121 8.93457 91.5465 8.74137C91.2808 8.54817 90.9754 8.41672 90.6524 8.35668C90.0664 9.44798 89.2291 10.3842 88.2097 11.0879C87.2923 11.7277 86.2278 12.1248 85.1155 12.2419C84.5721 12.3159 84.0201 12.1956 83.5568 11.9022C83.1668 11.6761 82.8823 11.3047 82.7658 10.8693C82.6096 10.3843 82.6394 9.85853 82.8495 9.39432C82.9354 9.17582 83.0716 8.98061 83.247 8.82458C83.4224 8.66856 83.6322 8.55608 83.8592 8.49629ZM84.1151 17.4531C84.113 16.8507 84.2153 16.2524 84.4175 15.685C84.6122 15.1423 84.9181 14.6463 85.3155 14.2286C85.7396 13.7998 86.2504 13.4667 86.8138 13.2515C87.4909 13.0009 88.209 12.8794 88.9309 12.8933H99.2603C99.9737 12.8799 100.684 12.9982 101.354 13.2422C101.922 13.4503 102.438 13.7789 102.866 14.2054C103.271 14.619 103.581 15.116 103.774 15.6618C103.98 16.2363 104.082 16.8428 104.076 17.4531C104.082 18.0634 103.98 18.67 103.774 19.2445C103.582 19.7893 103.272 20.2851 102.866 20.6962C102.439 21.1258 101.923 21.4563 101.354 21.664C100.684 21.908 99.9737 22.0263 99.2603 22.013H88.9309C88.2085 22.0277 87.49 21.9045 86.8138 21.65C86.2487 21.4383 85.7371 21.1047 85.3155 20.6729C84.9184 20.2604 84.6125 19.7689 84.4175 19.2305C84.2151 18.6663 84.1127 18.0711 84.1151 17.4717V17.4531ZM88.8378 17.4531C88.8437 17.7657 88.9407 18.0697 89.117 18.3279C89.2407 18.4824 89.4017 18.6028 89.5849 18.6777C89.7681 18.7526 89.9674 18.7795 90.1639 18.7559H98.0273C98.2238 18.7795 98.4231 18.7526 98.6063 18.6777C98.7895 18.6028 98.9505 18.4824 99.0742 18.3279C99.2504 18.0697 99.3474 17.7657 99.3533 17.4531C99.3482 17.1419 99.251 16.8392 99.0742 16.583C98.9516 16.427 98.7909 16.3051 98.6075 16.2293C98.4241 16.1535 98.2242 16.1263 98.0273 16.1503H90.1639C89.9669 16.1263 89.767 16.1535 89.5837 16.2293C89.4003 16.3051 89.2395 16.427 89.117 16.583C88.9366 16.8444 88.8393 17.1542 88.8378 17.4717V17.4531ZM99.2137 6.63513H97.2595C97.0058 6.64793 96.7526 6.60066 96.5205 6.49717C96.2885 6.39368 96.0842 6.23689 95.9242 6.03955C95.6161 5.66341 95.4513 5.1903 95.4589 4.70417C95.4615 4.21832 95.6251 3.74705 95.9242 3.36413C96.0879 3.16171 96.2984 3.00219 96.5375 2.89924C96.7766 2.7963 97.0372 2.75301 97.2967 2.77321H99.251V2.35449C99.2293 2.03822 99.281 1.72117 99.402 1.42817C99.5231 1.13518 99.7103 0.87418 99.9489 0.665489C100.4 0.292762 100.969 0.0916431 101.554 0.0977932C101.847 0.0980894 102.139 0.148475 102.415 0.246718C102.687 0.344254 102.94 0.490885 103.159 0.679405C103.382 0.872483 103.561 1.11031 103.685 1.37734C103.821 1.68474 103.888 2.01839 103.881 2.35449V9.89216C103.881 10.4845 103.645 11.0526 103.226 11.4714C102.808 11.8903 102.24 12.1256 101.647 12.1256H101.484C100.892 12.1256 100.324 11.8903 99.9051 11.4714C99.4863 11.0526 99.251 10.4845 99.251 9.89216L99.2137 6.63513Z" fill="white"/>
<path d="M115.848 13.9122C115.055 13.9149 114.265 13.8132 113.498 13.6097C112.794 13.4261 112.131 13.1103 111.544 12.6792C110.988 12.272 110.531 11.7439 110.209 11.1344C109.859 10.4513 109.686 9.69144 109.706 8.9243V7.22598C109.703 6.93389 109.747 6.64318 109.836 6.36521C109.923 6.09528 110.044 5.83733 110.195 5.59747H110.171C109.93 5.61372 109.688 5.57623 109.463 5.48774C109.237 5.39924 109.034 5.26194 108.869 5.08566C108.577 4.77676 108.411 4.3703 108.403 3.94567C108.408 3.51245 108.561 3.09392 108.836 2.75922C108.99 2.56944 109.188 2.41958 109.412 2.32238C109.637 2.22519 109.881 2.1835 110.125 2.20083H113.498V2.15432C113.479 1.85587 113.527 1.557 113.638 1.27934C113.749 1.00169 113.921 0.752235 114.14 0.549091C114.613 0.160027 115.213 -0.0390698 115.825 -0.00929021C116.441 -0.0363904 117.046 0.16581 117.523 0.558349C117.744 0.758995 117.917 1.00645 118.029 1.28258C118.142 1.55871 118.192 1.85657 118.174 2.15432V2.20083H121.524C121.769 2.18071 122.015 2.22115 122.241 2.31852C122.467 2.41589 122.665 2.56723 122.818 2.75922C123.077 3.10066 123.219 3.51685 123.223 3.94567C123.226 4.35977 123.086 4.76228 122.827 5.08566C122.67 5.26595 122.471 5.40627 122.249 5.49523C122.027 5.58419 121.786 5.61925 121.548 5.59747H121.455C121.787 6.07572 121.965 6.64376 121.967 7.22598V8.9243C121.985 9.69078 121.814 10.45 121.469 11.1344C121.143 11.7431 120.685 12.2709 120.129 12.6792C119.542 13.1103 118.879 13.4261 118.174 13.6097C117.415 13.8115 116.633 13.9132 115.848 13.9122ZM113.87 21.9617C113.326 21.9756 112.783 21.913 112.256 21.7756C111.872 21.6761 111.522 21.4752 111.242 21.194C110.978 20.8977 110.798 20.5363 110.72 20.1471C110.609 19.6273 110.558 19.0965 110.567 18.5651V16.8435C110.54 16.5171 110.59 16.189 110.714 15.8858C110.838 15.5826 111.031 15.3129 111.279 15.0986C111.759 14.7233 112.354 14.526 112.963 14.5403C113.563 14.5221 114.149 14.7202 114.615 15.0986C114.853 15.319 115.037 15.5907 115.154 15.8931C115.271 16.1954 115.317 16.5205 115.29 16.8435V17.7741C115.29 18.0393 115.332 18.2021 115.406 18.2393C115.564 18.3184 115.742 18.3507 115.918 18.3324H128.108C128.385 18.3044 128.665 18.3388 128.926 18.433C129.188 18.5272 129.425 18.6789 129.621 18.8768C129.911 19.2271 130.067 19.6689 130.063 20.1238C130.066 20.5881 129.901 21.0378 129.597 21.3894C129.403 21.5869 129.168 21.7387 128.908 21.8336C128.648 21.9286 128.37 21.9644 128.094 21.9384L113.87 21.9617ZM115.848 10.5854C116.327 10.5859 116.792 10.4216 117.165 10.1201C117.362 9.96547 117.519 9.76529 117.622 9.53675C117.725 9.30822 117.771 9.05817 117.756 8.80798V7.2027C117.771 6.95183 117.725 6.7011 117.622 6.47182C117.519 6.24254 117.362 6.04154 117.165 5.88595C116.791 5.58605 116.327 5.42198 115.848 5.42066C115.371 5.42267 114.908 5.58672 114.536 5.88595C114.338 6.04131 114.18 6.24212 114.077 6.47136C113.973 6.70061 113.926 6.95149 113.94 7.2027V8.80798C113.926 9.05852 113.973 9.30871 114.077 9.53721C114.181 9.76571 114.338 9.96569 114.536 10.1201C114.907 10.421 115.37 10.5852 115.848 10.5854ZM124.688 2.41951C124.666 2.10049 124.715 1.78058 124.832 1.48285C124.949 1.18512 125.13 0.917042 125.363 0.697959C125.808 0.313187 126.38 0.10611 126.968 0.116347C127.555 0.109223 128.124 0.319754 128.564 0.707274C128.798 0.923871 128.981 1.18994 129.1 1.48615C129.218 1.78235 129.269 2.1012 129.248 2.41951V5.93247H129.97C130.275 5.92096 130.579 5.98489 130.854 6.11859C131.073 6.2291 131.264 6.38825 131.412 6.58388C131.553 6.77793 131.656 6.99756 131.714 7.23064C131.777 7.46279 131.808 7.70218 131.807 7.94255C131.808 8.1814 131.777 8.41924 131.714 8.64974C131.657 8.88445 131.554 9.10572 131.412 9.30116C131.261 9.49813 131.067 9.65741 130.844 9.76645C130.572 9.89866 130.272 9.96255 129.97 9.95257H129.295V14.2565C129.295 14.8612 129.055 15.4411 128.627 15.8687C128.199 16.2962 127.62 16.5364 127.015 16.5364C126.41 16.5364 125.83 16.2962 125.403 15.8687C124.975 15.4411 124.735 14.8612 124.735 14.2565L124.688 2.41951Z" fill="white"/>
<path d="M154.583 17.5645C154.902 17.5541 155.219 17.6128 155.513 17.7366C155.754 17.8445 155.968 18.0032 156.142 18.2019C156.303 18.3864 156.422 18.6039 156.491 18.8393C156.558 19.0706 156.593 19.3103 156.593 19.5512C156.594 19.7964 156.555 20.0401 156.477 20.2725C156.402 20.5043 156.28 20.7182 156.118 20.9006C155.948 21.0932 155.737 21.2444 155.499 21.3426C155.211 21.4582 154.903 21.5136 154.592 21.5054H136.818C136.508 21.5122 136.199 21.4569 135.911 21.3426C135.676 21.243 135.466 21.092 135.297 20.9006C135.136 20.717 135.012 20.5036 134.934 20.2725C134.858 20.0395 134.819 19.7962 134.817 19.5512C134.819 19.3101 134.855 19.0704 134.924 18.8393C134.993 18.6039 135.112 18.3864 135.273 18.2019C135.447 18.0032 135.661 17.8445 135.902 17.7366C136.196 17.6126 136.513 17.5538 136.832 17.5645H154.583ZM149.721 13.7025C150.112 12.7971 150.39 11.847 150.549 10.8736C150.758 9.5472 150.855 8.20548 150.837 6.8628V5.39712C150.843 5.24363 150.79 5.09375 150.688 4.97835C150.632 4.9226 150.564 4.87934 150.489 4.8513C150.415 4.82325 150.335 4.81107 150.256 4.81551H137.623C137.304 4.82467 136.986 4.76434 136.693 4.6387C136.45 4.53339 136.236 4.37426 136.064 4.17341C135.9 3.98156 135.774 3.76062 135.692 3.52205C135.607 3.296 135.563 3.05645 135.562 2.8148C135.565 2.57303 135.604 2.33307 135.678 2.1029C135.757 1.86693 135.884 1.64987 136.05 1.46545C136.234 1.27196 136.452 1.11419 136.693 1.00016C136.984 0.866753 137.303 0.803022 137.623 0.814036H151.838C152.415 0.801367 152.991 0.867128 153.55 1.00948C153.961 1.11873 154.34 1.32629 154.653 1.61432C154.94 1.901 155.146 2.25919 155.248 2.65191C155.372 3.1383 155.43 3.6391 155.42 4.14087V6.88608C155.442 8.52244 155.318 10.1575 155.048 11.7716C154.863 12.9406 154.511 14.0768 154.001 15.145C153.853 15.4481 153.644 15.7174 153.387 15.9359C153.135 16.1431 152.846 16.3009 152.536 16.4012C152.221 16.5102 151.891 16.5652 151.558 16.5641C151.222 16.5647 150.888 16.4933 150.581 16.3547C150.342 16.2611 150.128 16.1139 149.954 15.9243C149.781 15.7347 149.653 15.5079 149.581 15.2613C149.435 14.7422 149.484 14.1873 149.721 13.7025Z" fill="white"/>
<path d="M177.941 10.5387C178.21 10.5114 178.481 10.543 178.737 10.6314C178.992 10.7198 179.226 10.8628 179.42 11.0505C179.704 11.389 179.856 11.8186 179.848 12.2602C179.857 12.6992 179.705 13.1263 179.42 13.4607C179.224 13.6459 178.991 13.7863 178.735 13.8723C178.48 13.9582 178.209 13.9876 177.941 13.9585H160.004C159.737 13.987 159.466 13.9572 159.212 13.8712C158.957 13.7853 158.724 13.6453 158.529 13.4607C158.241 13.1279 158.087 12.7001 158.096 12.2602C158.088 11.8176 158.241 11.3872 158.529 11.0505C158.723 10.8634 158.955 10.7208 159.21 10.6324C159.465 10.5441 159.736 10.5121 160.004 10.5387H177.941ZM171.241 16.3315C172.151 16.2675 173.065 16.3192 173.962 16.4851C174.821 16.6373 175.646 16.9431 176.396 17.3877C177.147 17.8447 177.797 18.4513 178.304 19.1698C178.492 19.4377 178.602 19.7525 178.623 20.0793C178.643 20.4061 178.572 20.7322 178.418 21.0213C178.265 21.3104 178.034 21.5513 177.752 21.7173C177.469 21.8832 177.147 21.9678 176.819 21.9615H175.735C175.452 21.9637 175.173 21.8976 174.921 21.7688C174.669 21.64 174.452 21.4523 174.288 21.2217C173.892 20.6558 173.343 20.2138 172.706 19.9468C171.705 19.5439 170.606 19.4516 169.552 19.6816C168.967 20.2094 168.305 20.6441 167.588 20.9705C166.83 21.3226 166.038 21.5955 165.224 21.7847C164.415 21.9787 163.589 22.1001 162.758 22.1476C161.998 22.1962 161.234 22.1728 160.478 22.0778C159.917 22.0195 159.39 21.7775 158.98 21.3892C158.795 21.2004 158.656 20.9708 158.575 20.7187C158.494 20.4666 158.474 20.199 158.515 19.9375C158.527 19.696 158.596 19.4608 158.715 19.2507C158.835 19.0406 159.002 18.8614 159.203 18.7278C159.623 18.4471 160.132 18.3312 160.632 18.4021C161.281 18.4812 161.937 18.4812 162.586 18.4021C163.182 18.3329 163.768 18.1923 164.331 17.9833C164.819 17.8066 165.272 17.5469 165.671 17.2156C166.004 16.9479 166.257 16.5938 166.402 16.192C166.539 15.6001 166.904 15.0857 167.416 14.7588C167.935 14.4921 168.518 14.3761 169.1 14.4238C169.654 14.423 170.196 14.5848 170.659 14.8891C170.866 15.0523 171.027 15.2672 171.125 15.5123C171.223 15.7573 171.255 16.0238 171.217 16.285L171.241 16.3315ZM162.005 9.72442C161.549 9.73382 161.095 9.65482 160.669 9.49177C160.316 9.34816 159.998 9.129 159.739 8.84967C159.482 8.58325 159.284 8.26632 159.157 7.91909C159.022 7.55117 158.954 7.16185 158.957 6.76984V6.63023C158.938 6.25811 158.996 5.8861 159.129 5.53772C159.261 5.18934 159.464 4.87217 159.725 4.60623C160.364 4.06442 161.192 3.79691 162.028 3.86178H173.893V3.46624C173.899 3.41215 173.893 3.35745 173.877 3.30545C173.861 3.25345 173.835 3.20529 173.8 3.16385C173.699 3.09024 173.575 3.057 173.451 3.07076H160.376C160.19 3.08315 160.004 3.05026 159.834 2.97488C159.664 2.89951 159.515 2.78394 159.399 2.63807C159.194 2.38458 159.08 2.07033 159.073 1.74469C159.074 1.41043 159.18 1.08484 159.376 0.814114C159.489 0.657574 159.64 0.532626 159.815 0.451175C159.99 0.369723 160.183 0.334483 160.376 0.348825H176.01C177.019 0.348825 177.713 0.53958 178.094 0.916464C178.293 1.13871 178.446 1.39848 178.544 1.68051C178.641 1.96254 178.681 2.26118 178.662 2.55895V6.21146H164.354C164.291 6.20402 164.227 6.21061 164.167 6.23071C164.106 6.25082 164.051 6.28395 164.005 6.32778C163.945 6.40832 163.912 6.50627 163.912 6.60695C163.912 6.87216 164.061 7.00249 164.378 7.00249H177.917C178.109 6.98704 178.301 7.02181 178.475 7.10342C178.649 7.18503 178.798 7.31064 178.908 7.46778C179.094 7.74278 179.195 8.06652 179.197 8.39835C179.191 8.71373 179.094 9.0206 178.918 9.28236C178.808 9.44199 178.657 9.56935 178.481 9.65115C178.305 9.73295 178.111 9.76623 177.917 9.74765L162.005 9.72442Z" fill="white"/>
<path d="M201.438 8.67759C201.676 8.6478 201.918 8.67436 202.144 8.75517C202.371 8.83598 202.575 8.96879 202.74 9.14287C202.985 9.45434 203.117 9.84007 203.113 10.2363C203.119 10.6387 202.984 11.0305 202.731 11.3437C202.565 11.5138 202.362 11.644 202.138 11.7246C201.914 11.8052 201.674 11.8341 201.438 11.809H183.012C182.776 11.8344 182.537 11.8057 182.314 11.7251C182.091 11.6445 181.889 11.514 181.723 11.3437C181.469 11.0309 181.333 10.6392 181.337 10.2363C181.335 9.84042 181.466 9.4554 181.709 9.14287C181.876 8.96969 182.08 8.83751 182.306 8.75676C182.532 8.67601 182.774 8.64891 183.012 8.67759H201.438ZM184.92 21.9616C184.474 21.9692 184.031 21.887 183.617 21.7197C183.262 21.5728 182.944 21.3487 182.686 21.0636C182.445 20.7944 182.262 20.4773 182.151 20.133C182.032 19.7648 181.973 19.38 181.974 18.9931V18.9233C181.942 18.1915 182.192 17.4753 182.672 16.9225C183.138 16.4107 183.882 16.1548 184.906 16.1548H197.366V15.6895C197.366 15.4429 197.203 15.3173 196.901 15.3173H183.547C183.362 15.3301 183.177 15.2998 183.006 15.2288C182.834 15.1577 182.682 15.0478 182.561 14.9078C182.345 14.669 182.224 14.3595 182.221 14.0377C182.226 13.7161 182.337 13.4052 182.537 13.1537C182.659 13.0074 182.815 12.8929 182.991 12.82C183.167 12.747 183.358 12.7178 183.547 12.7349H199.553C200.549 12.7349 201.228 12.9164 201.6 13.2793C201.798 13.4974 201.949 13.7534 202.045 14.0317C202.141 14.31 202.18 14.6049 202.159 14.8985V17.4157C202.159 17.5618 202.13 17.7063 202.074 17.8413C202.018 17.9762 201.936 18.0988 201.833 18.202C201.73 18.3053 201.607 18.3872 201.472 18.4431C201.337 18.499 201.193 18.5278 201.047 18.5278H187.456C187.394 18.5205 187.331 18.5259 187.271 18.5435C187.211 18.561 187.155 18.5905 187.107 18.6301C187.041 18.7132 187.008 18.8175 187.014 18.9233C187.008 19.0319 187.041 19.1389 187.107 19.2257C187.153 19.2696 187.208 19.3027 187.268 19.3228C187.328 19.3429 187.392 19.3495 187.456 19.342H201.089C201.271 19.3247 201.454 19.3525 201.623 19.4231C201.792 19.4938 201.941 19.6049 202.056 19.7468C202.244 20.0086 202.345 20.3227 202.345 20.6448C202.336 20.9526 202.239 21.2514 202.066 21.5056C201.959 21.6633 201.812 21.7897 201.641 21.8715C201.469 21.9534 201.278 21.9877 201.089 21.9709L184.92 21.9616ZM202.368 4.0945C202.373 4.59761 202.286 5.09737 202.112 5.56943C201.95 6.02053 201.684 6.42705 201.335 6.75594C200.959 7.11654 200.51 7.39257 200.018 7.56554C199.42 7.77124 198.79 7.87045 198.157 7.85867H186.339C185.706 7.86969 185.076 7.77049 184.478 7.56554C183.99 7.39696 183.543 7.12747 183.166 6.77457C182.817 6.44473 182.549 6.0386 182.384 5.58806C182.212 5.1154 182.125 4.61599 182.128 4.11307C182.125 3.61316 182.212 3.11682 182.384 2.64745C182.554 2.19925 182.821 1.79409 183.166 1.46094C183.542 1.10413 183.989 0.829963 184.478 0.656002C185.077 0.455148 185.707 0.357604 186.339 0.367525H198.157C198.79 0.356601 199.419 0.454172 200.018 0.656002C200.509 0.828242 200.958 1.10258 201.335 1.46094C201.68 1.79306 201.946 2.19862 202.112 2.64745C202.284 3.11032 202.371 3.60063 202.368 4.0945ZM197.599 4.0945C197.603 3.99825 197.588 3.90212 197.554 3.81181C197.521 3.72151 197.47 3.63886 197.403 3.56872C197.191 3.41453 196.929 3.34485 196.668 3.37328H187.781C187.522 3.34467 187.261 3.41442 187.051 3.56872C186.983 3.63784 186.93 3.7202 186.896 3.81068C186.861 3.90115 186.846 3.9978 186.851 4.0945C186.846 4.19051 186.861 4.28646 186.896 4.37621C186.93 4.46597 186.983 4.54753 187.051 4.61562C187.26 4.77369 187.521 4.84531 187.781 4.81566H196.668C196.93 4.84556 197.193 4.77398 197.403 4.61562C197.47 4.54665 197.521 4.4648 197.555 4.37519C197.589 4.28558 197.604 4.19009 197.599 4.0945Z" fill="white"/>
<path d="M8.65439 38.7402V37.6933C8.64808 37.3718 8.7166 37.0532 8.85449 36.7627C8.97393 36.5098 9.15271 36.2896 9.37562 36.1206C9.59961 35.9564 9.85198 35.8349 10.1201 35.7624C10.408 35.6832 10.7055 35.6441 11.0041 35.646C11.2996 35.6449 11.5939 35.6841 11.8789 35.7624C12.1502 35.834 12.4058 35.9555 12.6326 36.1206C12.8556 36.2907 13.0357 36.5106 13.1584 36.7627C13.2925 37.0544 13.3593 37.3724 13.3538 37.6933V38.7402H19.9516C20.2393 38.7334 20.525 38.7889 20.7891 38.9031C21.0093 39.0015 21.2049 39.1477 21.3615 39.3311C21.5048 39.5064 21.6108 39.7091 21.6732 39.9267C21.736 40.1381 21.7673 40.3576 21.7663 40.5781C21.7665 40.7992 21.7319 41.0191 21.6639 41.2295C21.5961 41.4416 21.4887 41.639 21.3475 41.8111C21.1963 41.9921 21.0052 42.1354 20.7891 42.2299C20.525 42.344 20.2393 42.3996 19.9516 42.3927H1.80535C1.51769 42.3996 1.23196 42.344 0.967833 42.2299C0.751784 42.1354 0.560634 41.9921 0.40948 41.8111C0.269707 41.6387 0.163914 41.4413 0.0977301 41.2295C0.0282906 41.0193 -0.00780947 40.7995 -0.00927734 40.5781C-0.00806703 40.3577 0.0232332 40.1386 0.083772 39.9267C0.145875 39.708 0.253731 39.505 0.40018 39.3311C0.554011 39.1468 0.748251 39.0003 0.967833 38.9031C1.23196 38.7889 1.51769 38.7334 1.80535 38.7402H8.65439ZM13.0514 30.1091C13.0514 30.2161 13.0235 30.3185 13.0188 30.4115C13.0098 30.5067 12.9895 30.6004 12.9583 30.6907C13.8608 30.702 14.7576 30.8351 15.6244 31.0862C16.4596 31.3298 17.2466 31.7154 17.9509 32.2262C18.6836 32.7735 19.3137 33.4461 19.8121 34.213V34.2408C19.9941 34.5297 20.095 34.8623 20.1042 35.2036C20.1135 35.5449 20.0308 35.8824 19.8647 36.1808C19.6986 36.4791 19.4554 36.7273 19.1604 36.8993C18.8654 37.0713 18.5296 37.1607 18.1882 37.1582H17.4763C17.1771 37.1642 16.881 37.0979 16.6129 36.9651C16.3448 36.8323 16.1127 36.6368 15.9362 36.3951C15.4572 35.7045 14.8188 35.1396 14.075 34.7481C13.0499 34.2235 11.8913 34.0177 10.7482 34.1571C10.2005 34.6385 9.60854 35.0669 8.9801 35.4367C8.32864 35.8236 7.64342 36.1507 6.93285 36.4138C6.22207 36.6784 5.49062 36.8838 4.74598 37.0279C4.02644 37.1737 3.29317 37.2408 2.55911 37.228C2.27199 37.2446 1.98473 37.1978 1.71775 37.0908C1.45077 36.9839 1.21062 36.8194 1.01435 36.6092C0.700991 36.2544 0.534607 35.7935 0.549061 35.3204C0.570384 34.8326 0.768916 34.3693 1.10741 34.0175C1.31619 33.813 1.56361 33.6522 1.83522 33.5443C2.10684 33.4365 2.39721 33.3838 2.6894 33.3894C3.29281 33.3686 3.88932 33.254 4.4575 33.0497C5.05353 32.8458 5.62352 32.5725 6.15579 32.2355C6.66305 31.9198 7.12223 31.5328 7.51911 31.0862C7.875 30.6907 8.14019 30.2223 8.29614 29.7136C8.44441 29.0967 8.81778 28.5573 9.34304 28.2014C9.85068 27.8886 10.4494 27.7575 11.0413 27.8292C11.5993 27.8654 12.1303 28.0826 12.5535 28.448C12.764 28.6683 12.919 28.9356 13.0056 29.2277C13.0922 29.5198 13.1078 29.8283 13.0514 30.1277V30.1091ZM4.49008 49.8606C3.9419 49.8718 3.39457 49.8124 2.86156 49.6838C2.47397 49.5941 2.11931 49.3974 1.83792 49.1162C1.57503 48.8228 1.39514 48.4646 1.3168 48.0785C1.2043 47.5558 1.15277 47.0219 1.16325 46.4873V45.2543C1.13201 44.9355 1.18173 44.614 1.3078 44.3196C1.43387 44.0252 1.63221 43.7673 1.88445 43.5699C2.38413 43.2291 2.97805 43.0533 3.58276 43.0674C4.17904 43.0512 4.76419 43.231 5.2485 43.5792C5.48908 43.7826 5.67691 44.0412 5.79601 44.3328C5.9151 44.6245 5.96191 44.9406 5.93246 45.2543V45.8359C5.91352 45.9703 5.94683 46.1068 6.02553 46.2174C6.15248 46.2896 6.29931 46.319 6.44427 46.3012H19.1001C19.3762 46.272 19.6552 46.3049 19.9168 46.3974C20.1785 46.49 20.4161 46.64 20.6123 46.8363C20.9104 47.1781 21.0756 47.6158 21.0776 48.0693C21.0816 48.5309 20.9161 48.9779 20.6123 49.3255C20.4172 49.5206 20.1811 49.6697 19.9211 49.7623C19.6612 49.8548 19.384 49.8884 19.1095 49.8606H4.49008Z" fill="white"/>
<path d="M27.7311 31.7093C27.4629 31.7377 27.1916 31.7112 26.934 31.6312C26.6764 31.5512 26.4378 31.4194 26.2329 31.244C26.0784 31.0818 25.9576 30.8905 25.8778 30.6812C25.7979 30.4719 25.7604 30.2488 25.7676 30.0249C25.7639 29.5911 25.9311 29.1733 26.2329 28.8617C26.4374 28.6856 26.6759 28.5534 26.9336 28.4733C27.1914 28.3933 27.4628 28.3671 27.7311 28.3964H42.8763C43.6272 28.3411 44.3781 28.5026 45.0399 28.8617C45.5052 29.1595 45.7145 29.7458 45.7145 30.6158V32.7562C45.7207 33.4261 45.6709 34.0953 45.5657 34.7569C45.482 35.2562 45.3527 35.7468 45.1795 36.2226H45.226C45.4942 36.2152 45.7609 36.2661 46.0077 36.3715C46.2024 36.4647 46.3764 36.596 46.5195 36.7576C46.6492 36.9105 46.7473 37.0877 46.808 37.2788C46.8711 37.4709 46.9026 37.6721 46.901 37.8744C46.9034 38.2861 46.7693 38.687 46.5195 39.0143C46.3601 39.1963 46.1596 39.3377 45.9347 39.4267C45.7097 39.5157 45.4668 39.5498 45.226 39.5261H26.8005C26.5604 39.5498 26.3182 39.5157 26.094 39.4266C25.8698 39.3376 25.6701 39.1962 25.5117 39.0143C25.2603 38.6876 25.1244 38.2866 25.1255 37.8744C25.1265 37.6723 25.1578 37.4715 25.2186 37.2788C25.2789 37.0865 25.3788 36.9091 25.5117 36.7576C25.6538 36.5949 25.828 36.4635 26.0235 36.3715C26.2685 36.2656 26.5337 36.2147 26.8005 36.2226H30.8951C31.2734 35.7729 31.5553 35.2503 31.7233 34.6871C31.8718 34.1334 31.9454 33.5622 31.942 32.9888V32.2444C31.9456 32.1232 31.9183 32.0032 31.8629 31.8954C31.8238 31.844 31.7717 31.804 31.712 31.7795C31.6523 31.7549 31.5871 31.7467 31.5232 31.7558L27.7311 31.7093ZM44.8538 40.3869C45.0465 40.3678 45.241 40.3969 45.4197 40.4716C45.5983 40.5463 45.7556 40.6643 45.8774 40.815C46.0712 41.0745 46.1772 41.3891 46.1798 41.713C46.1796 42.0417 46.0699 42.3609 45.8681 42.6203C45.7452 42.7666 45.5888 42.8811 45.4122 42.954C45.2356 43.0269 45.0441 43.0561 44.8538 43.0391H31.2906C30.9649 43.0391 30.8098 43.1787 30.8253 43.4578V43.8998H44.784C44.9716 43.8789 45.1615 43.903 45.3379 43.9701C45.5143 44.0373 45.6721 44.1456 45.7983 44.2861C45.9848 44.529 46.0861 44.8266 46.0868 45.1329C46.0887 45.4367 45.9869 45.7322 45.7983 45.9704C45.6692 46.1062 45.5105 46.2105 45.3346 46.275C45.1587 46.3396 44.9703 46.3627 44.784 46.3426H30.8253V46.8079C30.8169 46.8689 30.823 46.9311 30.8433 46.9894C30.8635 47.0476 30.8972 47.1002 30.9416 47.1429C31.0544 47.2077 31.1842 47.2368 31.3138 47.2267H45.2725C45.456 47.2098 45.6409 47.2378 45.8111 47.3083C45.9813 47.3789 46.1319 47.4898 46.2496 47.6315C46.4447 47.8814 46.5511 48.1891 46.5521 48.5062C46.5582 48.8415 46.4518 49.1692 46.2496 49.4368C46.1341 49.582 45.9844 49.6963 45.8139 49.7693C45.6433 49.8424 45.4573 49.872 45.2725 49.8556H28.7315C27.7544 49.8556 27.0704 49.6509 26.6749 49.2367C26.2309 48.6834 26.0176 47.98 26.0793 47.2732V43.0158C26.0141 42.3 26.2275 41.5868 26.6749 41.0244C27.0704 40.6149 27.7544 40.4102 28.7315 40.4102L44.8538 40.3869ZM36.5018 32.6166C36.5148 33.3162 36.4413 34.0148 36.2831 34.6964C36.1468 35.2412 35.8873 35.7473 35.5247 36.176H40.6196C40.8089 35.7118 40.9462 35.2281 41.0291 34.7336C41.1138 34.2106 41.1558 33.6815 41.1547 33.1517V32.1513C41.1547 31.8256 40.9779 31.686 40.6196 31.686H36.5018V32.6166Z" fill="white"/>
<path d="M67.6994 45.5052C68.0187 45.4963 68.3362 45.5566 68.63 45.682C68.8707 45.7896 69.085 45.9484 69.2581 46.1473C69.4185 46.3289 69.5376 46.5432 69.6071 46.7754C69.6752 47.0018 69.7097 47.2369 69.7095 47.4733C69.7106 47.7185 69.6713 47.9621 69.5931 48.1945C69.5159 48.4253 69.3942 48.6387 69.2349 48.8227C69.065 49.0153 68.8533 49.1664 68.6161 49.2647C68.3207 49.3835 68.0036 49.4389 67.6855 49.4275H49.9114C49.6011 49.4352 49.2924 49.3798 49.0041 49.2647C48.7689 49.1651 48.559 49.0141 48.3899 48.8227C48.2289 48.6391 48.1056 48.4256 48.027 48.1945C47.9488 47.9621 47.9095 47.7185 47.9107 47.4733C47.912 47.2367 47.9481 47.0015 48.0177 46.7754C48.0872 46.5432 48.2063 46.3289 48.3666 46.1473C48.5397 45.9484 48.7541 45.7896 48.9948 45.682C49.2885 45.5563 49.606 45.496 49.9254 45.5052H67.6994ZM48.6225 34.8035C48.6207 34.0078 48.7674 33.2188 49.0553 32.4771C49.3321 31.7438 49.7547 31.0742 50.2976 30.5089C50.8643 29.9279 51.5414 29.466 52.289 29.1502C53.1237 28.7993 54.0219 28.625 54.9272 28.6384H62.7208C63.6276 28.6254 64.5273 28.7997 65.3637 29.1502C66.1122 29.4693 66.7917 29.9308 67.3644 30.5089C67.9115 31.0736 68.3388 31.743 68.6207 32.4771C68.9048 33.2197 69.0499 34.0083 69.0488 34.8035V35.3851C69.0499 36.1803 68.9048 36.9689 68.6207 37.7116C68.3399 38.4447 67.9124 39.1128 67.3644 39.6751C66.7931 40.256 66.1134 40.7192 65.3637 41.0383C64.5273 41.3889 63.6276 41.5632 62.7208 41.5502H54.904C53.9987 41.5636 53.1004 41.3893 52.2658 41.0383C51.5171 40.7223 50.8398 40.2587 50.2743 39.6751C49.7305 39.1122 49.3077 38.444 49.032 37.7116C48.7441 36.9698 48.5974 36.1808 48.5993 35.3851L48.6225 34.8035ZM64.2097 34.7569C64.2156 34.4407 64.151 34.1272 64.0206 33.8391C63.8902 33.551 63.6973 33.2955 63.456 33.0912C62.9125 32.6367 62.219 32.4011 61.5111 32.4305H56.1137C55.4097 32.3991 54.72 32.6352 54.1828 33.0912C53.9433 33.2966 53.7524 33.5526 53.6237 33.8406C53.495 34.1286 53.4316 34.4415 53.4383 34.7569V35.4316C53.432 35.747 53.4955 36.0598 53.6242 36.3478C53.7529 36.6357 53.9436 36.8917 54.1828 37.0973C54.7213 37.551 55.4101 37.7867 56.1137 37.7581H61.4878C62.1954 37.7852 62.8881 37.5499 63.4327 37.0973C63.6738 36.8928 63.8665 36.6373 63.9969 36.3493C64.1272 36.0612 64.192 35.7478 64.1865 35.4316L64.2097 34.7569Z" fill="white"/>
<path d="M79.7039 45.6451V42.388H76.6562C75.1053 42.388 73.9467 42.0267 73.1805 41.3039C72.7888 40.9201 72.4832 40.4573 72.2843 39.9463C72.0853 39.4352 71.9975 38.8877 72.0266 38.34V37.898C71.9987 37.3484 72.0871 36.7991 72.286 36.286C72.4848 35.7729 72.7896 35.3075 73.1805 34.9202C73.9498 34.1912 75.1084 33.8267 76.6562 33.8267H86.8926V33.1288C86.8974 32.9659 86.8572 32.8049 86.7763 32.6635C86.7018 32.5239 86.5297 32.4541 86.2645 32.4541H74.0739C73.8259 32.4664 73.5783 32.4211 73.3507 32.3218C73.1231 32.2225 72.9215 32.0719 72.7618 31.8818C72.4547 31.5233 72.2892 31.0649 72.2965 30.5929C72.2932 30.1244 72.4583 29.6704 72.7618 29.3134C72.9204 29.1213 73.1215 28.9687 73.3492 28.8678C73.5769 28.7668 73.8251 28.7203 74.0739 28.7318H87.544C88.2208 28.7136 88.8961 28.8032 89.5448 28.997C90.0172 29.1433 90.4478 29.4001 90.801 29.7461C91.1149 30.068 91.3436 30.4629 91.4664 30.8954C91.6022 31.3878 91.668 31.8969 91.6618 32.4076V35.8554C91.6618 36.2491 91.5054 36.6266 91.2271 36.9049C90.9487 37.1833 90.5712 37.3396 90.1775 37.3396H77.7962C77.2704 37.3396 77.0052 37.5583 77.0052 37.9911V38.1074C77.0052 38.5401 77.2704 38.7588 77.7962 38.7588H89.9402C90.2249 38.7513 90.5078 38.8069 90.7685 38.9216C90.9816 39.0209 91.1718 39.1636 91.3268 39.3404C91.4717 39.5094 91.578 39.7079 91.6386 39.922C91.6991 40.1339 91.7304 40.353 91.7316 40.5734C91.7331 41.0195 91.5857 41.4534 91.3129 41.8064C91.1437 42.0067 90.9279 42.1623 90.6846 42.2597C90.4412 42.357 90.1776 42.3931 89.917 42.3648H84.4266V45.6218H90.9871C91.2975 45.6136 91.6063 45.669 91.8945 45.7847C92.1256 45.8803 92.3323 46.0266 92.4993 46.2127C92.6532 46.3905 92.7688 46.5979 92.839 46.8222C92.9077 47.0437 92.9422 47.2743 92.9414 47.5062C92.941 47.9811 92.7766 48.4413 92.4761 48.809C92.2882 49.0163 92.0545 49.1769 91.7935 49.2779C91.5326 49.3788 91.2517 49.4175 90.9732 49.3907H73.1061C72.8283 49.4175 72.5481 49.3788 72.2879 49.2778C72.0277 49.1768 71.7948 49.0163 71.6079 48.809C71.3077 48.4411 71.1433 47.981 71.1426 47.5062C71.1433 47.2741 71.1794 47.0435 71.2496 46.8222C71.3181 46.5982 71.4322 46.3907 71.5846 46.2127C71.7525 46.0276 71.959 45.8815 72.1895 45.7847C72.485 45.6664 72.8019 45.6109 73.1201 45.6218L79.7039 45.6451Z" fill="white"/>
<path d="M101.131 39.5731C100.598 39.5856 100.066 39.5277 99.5486 39.4009C99.1737 39.3089 98.8321 39.1138 98.5622 38.8379C98.3026 38.5501 98.1285 38.1956 98.0596 37.8143C97.9586 37.3057 97.9118 36.7879 97.9201 36.2695V30.7326C97.8916 30.4206 97.9355 30.1063 98.0485 29.8141C98.1615 29.5219 98.3405 29.2598 98.5714 29.0482C99.0287 28.6909 99.5966 28.5049 100.177 28.5224C100.741 28.493 101.296 28.6812 101.726 29.0482C101.933 29.2739 102.09 29.5403 102.188 29.8304C102.286 30.1205 102.322 30.4278 102.294 30.7326H106.691C106.66 30.4232 106.698 30.1109 106.801 29.8176C106.904 29.5243 107.069 29.2569 107.286 29.0343C107.729 28.6779 108.287 28.4958 108.854 28.5224C109.432 28.4989 109.999 28.6857 110.45 29.0482C110.671 29.266 110.841 29.53 110.947 29.8213C111.053 30.1126 111.093 30.4239 111.064 30.7326V37.3397C111.064 37.932 110.829 38.5001 110.41 38.9189C109.991 39.3378 109.423 39.5731 108.831 39.5731H101.131ZM117.02 40.806C117.262 40.7786 117.507 40.812 117.733 40.9029C117.959 40.9939 118.158 41.1398 118.314 41.3272C118.548 41.6662 118.673 42.0689 118.672 42.4811C118.675 42.8943 118.544 43.2974 118.3 43.6304C118.146 43.8169 117.949 43.9626 117.726 44.0543C117.503 44.1461 117.26 44.1811 117.02 44.1562H111.088C110.995 44.4706 110.87 44.7746 110.716 45.0635C111.645 44.9721 112.583 44.9955 113.507 45.1333C114.396 45.261 115.26 45.5279 116.066 45.9242C116.839 46.3082 117.531 46.8374 118.104 47.483C118.287 47.6887 118.407 47.9428 118.449 48.2148C118.491 48.4869 118.453 48.7652 118.34 49.0163C118.228 49.2675 118.045 49.4808 117.814 49.6306C117.583 49.7804 117.314 49.8602 117.039 49.8606H115.336C115.137 49.8594 114.941 49.8175 114.76 49.7374C114.578 49.6574 114.414 49.541 114.28 49.3953C114.049 49.1516 113.793 48.9332 113.517 48.7439C113.052 48.4255 112.542 48.1778 112.004 48.0088C111.423 47.8283 110.821 47.7189 110.213 47.683C109.56 47.6465 108.906 47.6746 108.259 47.7668C107.689 48.1601 107.081 48.4953 106.444 48.7672C105.791 49.0468 105.12 49.2801 104.434 49.4651C103.75 49.6497 103.053 49.7849 102.35 49.8699C101.671 49.9559 100.986 49.9916 100.302 49.9769C99.769 49.9931 99.2479 49.8144 98.8367 49.4744C98.527 49.1899 98.3401 48.7961 98.3155 48.3763C98.2808 47.915 98.4259 47.4582 98.7203 47.1014C99.0652 46.7743 99.5246 46.5956 99.9999 46.6036C100.605 46.601 101.209 46.5496 101.805 46.45C102.424 46.3527 103.034 46.2065 103.629 46.0127C104.201 45.8265 104.747 45.5719 105.258 45.2542C105.734 44.9613 106.152 44.5827 106.491 44.1375H100.27C100.03 44.162 99.7873 44.1268 99.564 44.0351C99.3408 43.9434 99.1437 43.798 98.9902 43.6118C98.7476 43.2777 98.6173 42.8753 98.618 42.4625C98.6161 42.0495 98.7429 41.6462 98.9809 41.3086C99.135 41.1208 99.3337 40.9747 99.5589 40.8837C99.7841 40.7926 100.028 40.7596 100.27 40.7875L117.02 40.806ZM106.691 35.8042V34.292C106.691 34.1871 106.649 34.0865 106.575 34.0124C106.501 33.9382 106.4 33.8965 106.295 33.8965H102.689C102.584 33.8965 102.484 33.9382 102.41 34.0124C102.335 34.0865 102.294 34.1871 102.294 34.292V35.6181C102.294 35.8833 102.331 36.0462 102.41 36.0834C102.568 36.1624 102.746 36.1947 102.922 36.1764H106.295C106.396 36.1766 106.493 36.1381 106.567 36.0689C106.641 35.9997 106.685 35.905 106.691 35.8042ZM113.693 30.337C113.671 30.0146 113.724 29.6914 113.847 29.3928C113.971 29.0941 114.162 28.828 114.405 28.6155C114.865 28.233 115.445 28.0267 116.043 28.0339C116.341 28.0349 116.636 28.0852 116.918 28.1828C117.196 28.2887 117.452 28.4466 117.672 28.6481C117.893 28.8507 118.072 29.096 118.197 29.3692C118.333 29.6818 118.399 30.0198 118.393 30.3603V37.5025C118.393 37.81 118.332 38.1144 118.214 38.3982C118.095 38.682 117.922 38.9395 117.703 39.1558C117.485 39.3722 117.225 39.5431 116.941 39.6586C116.656 39.7741 116.351 39.832 116.043 39.8289C115.426 39.8289 114.834 39.5838 114.398 39.1475C113.962 38.7112 113.717 38.1195 113.717 37.5025L113.693 30.337Z" fill="white"/>
<path d="M137.028 40.4102H133.98V43.2019C133.998 44.1259 133.84 45.045 133.515 45.9099C133.233 46.6553 132.788 47.3279 132.212 47.8781C131.632 48.4166 130.941 48.8216 130.188 49.0645C129.339 49.338 128.451 49.4717 127.559 49.4601C126.667 49.4717 125.779 49.338 124.93 49.0645C124.175 48.8206 123.481 48.4158 122.897 47.8781C122.315 47.33 121.865 46.6571 121.58 45.9099C121.254 45.045 121.096 44.1259 121.115 43.2019V34.6872C121.096 33.7631 121.254 32.844 121.58 31.9791C121.865 31.232 122.315 30.5591 122.897 30.011C123.481 29.4732 124.175 29.0684 124.93 28.8245C125.779 28.551 126.667 28.4174 127.559 28.429C128.451 28.4174 129.339 28.551 130.188 28.8245C130.941 29.0675 131.632 29.4725 132.212 30.011C132.788 30.5612 133.233 31.2338 133.515 31.9791C133.84 32.844 133.998 33.7631 133.98 34.6872V36.4552H137.028V30.3134C137.006 29.9971 137.058 29.6801 137.179 29.3872C137.3 29.0942 137.487 28.8331 137.726 28.6244C138.177 28.2517 138.745 28.0506 139.331 28.0568C139.624 28.0574 139.915 28.1078 140.192 28.2056C140.464 28.3043 140.716 28.4509 140.936 28.6384C141.158 28.8315 141.338 29.0693 141.462 29.3363C141.598 29.6437 141.665 29.9773 141.657 30.3134V47.5803C141.657 48.1973 141.412 48.7891 140.976 49.2253C140.54 49.6616 139.948 49.9067 139.331 49.9067C138.714 49.9067 138.122 49.6616 137.686 49.2253C137.249 48.7891 137.004 48.1973 137.004 47.5803L137.028 40.4102ZM125.675 43.295C125.623 43.925 125.811 44.5512 126.2 45.0492C126.372 45.2374 126.582 45.3861 126.817 45.485C127.051 45.5838 127.305 45.6304 127.559 45.6215C127.814 45.6304 128.068 45.5839 128.303 45.4851C128.539 45.3863 128.75 45.2375 128.922 45.0492C129.31 44.5505 129.496 43.9244 129.443 43.295V34.5522C129.495 33.9215 129.309 33.2943 128.922 32.7934C128.749 32.6066 128.538 32.4592 128.302 32.3613C128.067 32.2633 127.814 32.2171 127.559 32.2258C127.305 32.2172 127.052 32.2635 126.818 32.3614C126.583 32.4594 126.373 32.6067 126.2 32.7934C125.812 33.2936 125.624 33.9209 125.675 34.5522V43.295Z" fill="white"/>
<path d="M147.753 48.8323C147.174 48.8444 146.596 48.785 146.031 48.6555C145.635 48.5711 145.271 48.3739 144.984 48.0878C144.718 47.7853 144.541 47.4149 144.473 47.0177C144.371 46.4653 144.324 45.9042 144.333 45.3426V31.0815C144.304 30.7648 144.347 30.4456 144.458 30.1476C144.569 29.8496 144.746 29.5804 144.975 29.3599C145.431 28.9916 146.004 28.8015 146.59 28.8248C147.165 28.7981 147.73 28.9891 148.172 29.3599C148.39 29.5864 148.558 29.8575 148.662 30.1546C148.767 30.4518 148.806 30.7679 148.776 31.0815V44.3423C148.776 44.6075 148.818 44.7703 148.907 44.8401C149.065 44.929 149.247 44.9664 149.428 44.9471H152.894C153.212 44.9407 153.528 44.996 153.825 45.11C154.065 45.2112 154.276 45.3712 154.439 45.5752C154.594 45.757 154.706 45.9719 154.765 46.2034C154.829 46.4384 154.86 46.6811 154.858 46.9246C154.859 47.1687 154.825 47.4117 154.755 47.6458C154.688 47.8711 154.577 48.0812 154.43 48.2646C154.265 48.4539 154.058 48.6007 153.825 48.6927C153.528 48.8067 153.212 48.862 152.894 48.8556L147.753 48.8323ZM155.733 30.0113C155.714 29.7327 155.761 29.4537 155.87 29.1967C155.979 28.9397 156.147 28.7119 156.361 28.5317C156.77 28.2044 157.279 28.0284 157.803 28.0338C158.064 28.0332 158.324 28.0757 158.571 28.1595C158.818 28.2456 159.046 28.3765 159.245 28.5457C159.442 28.7177 159.6 28.9284 159.711 29.1645C159.832 29.43 159.891 29.7196 159.883 30.0113V36.5719H161.116V30.0113C161.097 29.7327 161.145 29.4537 161.254 29.1967C161.363 28.9397 161.531 28.7119 161.744 28.5317C162.153 28.2037 162.663 28.0277 163.187 28.0338C163.448 28.0332 163.707 28.0757 163.954 28.1595C164.201 28.2456 164.43 28.3765 164.629 28.5457C164.826 28.7165 164.985 28.9275 165.094 29.1645C165.215 29.43 165.274 29.7196 165.266 30.0113V47.7947C165.267 48.0682 165.214 48.3392 165.109 48.5921C165.005 48.8449 164.852 49.0747 164.659 49.2684C164.466 49.462 164.236 49.6156 163.984 49.7204C163.731 49.8252 163.46 49.8792 163.187 49.8792C162.634 49.8792 162.103 49.6596 161.713 49.2686C161.322 48.8777 161.102 48.3475 161.102 47.7947V40.3873H159.869V47.7947C159.87 48.0682 159.816 48.3392 159.712 48.5921C159.608 48.8449 159.455 49.0747 159.261 49.2684C159.068 49.462 158.839 49.6156 158.586 49.7204C158.333 49.8252 158.063 49.8792 157.789 49.8792C157.236 49.8792 156.706 49.6596 156.315 49.2686C155.924 48.8777 155.705 48.3475 155.705 47.7947L155.733 30.0113Z" fill="white"/>
<path d="M186.86 37.8094C187.172 37.7993 187.481 37.8581 187.768 37.9815C188 38.0921 188.206 38.2507 188.372 38.4468C188.527 38.6273 188.643 38.838 188.712 39.0656C188.78 39.292 188.815 39.5272 188.814 39.7636C188.812 40.241 188.648 40.7037 188.349 41.0757C188.164 41.2867 187.931 41.4507 187.669 41.5542C187.408 41.6578 187.126 41.6979 186.846 41.6713H168.979C168.7 41.6979 168.419 41.6577 168.158 41.5542C167.898 41.4506 167.666 41.2866 167.481 41.0757C167.182 40.7035 167.018 40.2409 167.016 39.7636C167.017 39.5269 167.053 39.2918 167.123 39.0656C167.19 38.8383 167.304 38.6275 167.458 38.4468C167.625 38.2516 167.831 38.0932 168.063 37.9815C168.356 37.8553 168.674 37.7964 168.993 37.8094H186.86ZM171.32 36.4135C170.771 36.4246 170.224 36.3652 169.691 36.2367C169.303 36.147 168.949 35.9503 168.667 35.669C168.405 35.3769 168.226 35.0204 168.146 34.6361C168.034 34.1118 167.982 33.5763 167.993 33.0401V30.5043C167.964 30.1813 168.014 29.8561 168.138 29.5563C168.262 29.2566 168.456 28.9912 168.705 28.7827C169.19 28.4204 169.783 28.2319 170.389 28.2476C170.989 28.2306 171.577 28.4194 172.055 28.7827C172.296 28.996 172.483 29.2629 172.602 29.5619C172.721 29.861 172.768 30.1839 172.739 30.5043V32.2259C172.739 32.4911 172.776 32.654 172.855 32.6912C173.013 32.7702 173.191 32.8025 173.367 32.7842H185.999C186.277 32.7544 186.557 32.7883 186.819 32.8835C187.081 32.9787 187.318 33.1325 187.512 33.3333C187.809 33.6792 187.974 34.1195 187.977 34.5756C187.98 35.0399 187.815 35.4896 187.512 35.8412C187.318 36.0387 187.082 36.1905 186.822 36.2855C186.562 36.3805 186.284 36.4162 186.009 36.3902L171.32 36.4135ZM171.529 49.9069C170.981 49.918 170.433 49.8586 169.9 49.7301C169.513 49.6403 169.158 49.4437 168.877 49.1624C168.614 48.8691 168.434 48.5109 168.356 48.1248C168.243 47.6021 168.192 47.0681 168.202 46.5335V44.8817C168.174 44.5578 168.225 44.232 168.351 43.9322C168.476 43.6323 168.673 43.3674 168.923 43.1602C169.415 42.799 170.012 42.6109 170.622 42.6251C171.222 42.608 171.809 42.7969 172.287 43.1602C172.528 43.3734 172.716 43.6403 172.835 43.9394C172.953 44.2385 173 44.5612 172.971 44.8817V45.7193C172.971 45.9845 173.009 46.1473 173.088 46.1846C173.246 46.2636 173.423 46.2959 173.599 46.2776H186.139C186.416 46.2496 186.695 46.284 186.957 46.3782C187.219 46.4724 187.456 46.6241 187.651 46.822C187.948 47.17 188.113 47.6116 188.116 48.069C188.12 48.5333 187.954 48.983 187.651 49.3346C187.457 49.5321 187.222 49.6839 186.962 49.7789C186.702 49.8738 186.424 49.9096 186.148 49.8836L171.529 49.9069Z" fill="white"/>
<path d="M211.497 28.778C211.788 28.7692 212.075 28.8332 212.335 28.9641C212.553 29.0766 212.743 29.2355 212.893 29.4294C213.034 29.6169 213.137 29.8304 213.196 30.0576C213.255 30.2776 213.286 30.5043 213.289 30.7323C213.286 30.9602 213.255 31.1869 213.196 31.4069C213.136 31.6354 213.029 31.8491 212.884 32.035C212.733 32.2282 212.543 32.3869 212.325 32.5003C212.067 32.6243 211.783 32.6849 211.497 32.6771H199.725C199.545 32.6585 199.365 32.7029 199.214 32.8028C199.103 32.9455 199.053 33.126 199.074 33.3053V36.6786C199.054 36.8607 199.104 37.0436 199.214 37.1905C199.36 37.2999 199.543 37.3498 199.725 37.33H211.869C212.16 37.3212 212.448 37.3852 212.707 37.5162C212.925 37.6287 213.115 37.7875 213.265 37.9815C213.406 38.1676 213.513 38.3771 213.582 38.6003C213.649 38.814 213.684 39.0368 213.684 39.261C213.683 39.4897 213.649 39.717 213.582 39.9357C213.513 40.1634 213.403 40.3764 213.256 40.5638C213.105 40.757 212.915 40.9157 212.698 41.0291C212.44 41.1531 212.156 41.2137 211.869 41.2059H206.356V45.6727H212.916C213.227 45.6645 213.536 45.7199 213.824 45.8355C214.055 45.9312 214.261 46.0775 214.429 46.2636C214.582 46.4413 214.698 46.6488 214.768 46.8731C214.837 47.0946 214.871 47.3252 214.871 47.5571C214.87 48.032 214.706 48.4922 214.405 48.8599C214.217 49.0672 213.984 49.2278 213.723 49.3287C213.462 49.4297 213.181 49.4684 212.902 49.4415H195.035C194.757 49.4683 194.477 49.4297 194.217 49.3287C193.957 49.2277 193.724 49.0672 193.537 48.8599C193.237 48.492 193.073 48.0319 193.072 47.5571C193.072 47.325 193.109 47.0944 193.179 46.8731C193.247 46.6491 193.361 46.4416 193.514 46.2636C193.682 46.0785 193.888 45.9324 194.119 45.8355C194.414 45.7173 194.731 45.6618 195.049 45.6727H201.61V41.2059H198.074C197.478 41.2189 196.883 41.1516 196.306 41.0058C195.873 40.9026 195.477 40.6857 195.156 40.3777C194.851 40.0642 194.635 39.6758 194.528 39.2517C194.382 38.6899 194.315 38.1105 194.328 37.5301V32.4818C194.316 31.9091 194.383 31.3375 194.528 30.7834C194.637 30.3561 194.853 29.9637 195.156 29.6435C195.469 29.3206 195.863 29.0877 196.296 28.9688C196.875 28.8271 197.469 28.7614 198.064 28.7734L211.497 28.778Z" fill="white"/>
<path d="M228.69 44.4583H226.922C226.813 46.1674 226.348 47.4392 225.526 48.2736C224.704 49.1081 223.513 49.5268 221.952 49.5299C220.311 49.5299 219.052 49.0646 218.174 48.134C217.296 47.2034 216.857 45.7642 216.857 43.8162V34.301C216.857 32.3592 217.296 30.9214 218.174 29.9877C219.052 29.0541 220.311 28.5888 221.952 28.5919C223.165 28.5265 224.36 28.9035 225.316 29.6527C226.145 30.3553 226.661 31.4395 226.861 32.9098H228.722V30.0017C228.702 29.7294 228.745 29.4561 228.849 29.2034C228.952 28.9507 229.113 28.7254 229.318 28.5454C229.715 28.2326 230.208 28.0681 230.714 28.0801C231.219 28.0669 231.713 28.2316 232.11 28.5454C232.314 28.7259 232.474 28.9514 232.576 29.2041C232.679 29.4568 232.721 29.7298 232.701 30.0017V47.9247C232.701 48.186 232.65 48.4448 232.551 48.6864C232.451 48.928 232.305 49.1476 232.12 49.3326C231.936 49.5176 231.716 49.6643 231.475 49.7644C231.234 49.8645 230.975 49.9161 230.714 49.9161C230.186 49.9161 229.679 49.7063 229.306 49.3328C228.932 48.9593 228.722 48.4528 228.722 47.9247L228.69 44.4583ZM221.943 45.9472C222.196 45.9463 222.438 45.846 222.618 45.668C222.85 45.3804 222.959 45.0122 222.92 44.6444V33.4774C222.959 33.1096 222.85 32.7415 222.618 32.4538C222.438 32.2758 222.196 32.1755 221.943 32.1746C221.82 32.1751 221.698 32.2001 221.585 32.248C221.471 32.2959 221.369 32.3659 221.282 32.4538C221.053 32.7429 220.948 33.1109 220.989 33.4774V44.6444C220.948 45.0109 221.053 45.3789 221.282 45.668C221.369 45.756 221.471 45.8259 221.585 45.8738C221.698 45.9217 221.82 45.9467 221.943 45.9472ZM226.945 40.7127H228.69V36.6181H226.945V40.7127ZM233.785 30.011C233.766 29.7333 233.812 29.4549 233.919 29.1981C234.027 28.9412 234.192 28.713 234.403 28.5314C234.81 28.2008 235.322 28.0259 235.846 28.0382C236.354 28.0401 236.847 28.2157 237.242 28.536C237.455 28.7162 237.623 28.944 237.732 29.201C237.841 29.458 237.888 29.7371 237.87 30.0157V47.8921C237.87 48.1534 237.82 48.4123 237.72 48.6538C237.62 48.8954 237.474 49.115 237.29 49.3C237.105 49.485 236.886 49.6317 236.644 49.7319C236.403 49.832 236.144 49.8835 235.883 49.8835H235.767C235.239 49.8835 234.732 49.6737 234.359 49.3003C233.985 48.9268 233.775 48.4203 233.775 47.8921L233.785 30.011Z" fill="white"/>
<path d="M241.671 45.0867C242.54 44.9893 243.396 44.7942 244.221 44.5051C244.984 44.2371 245.676 43.7996 246.245 43.2255C246.854 42.5775 247.31 41.8017 247.58 40.9549C247.929 39.8066 248.086 38.6088 248.046 37.4094V33.5243C248.052 33.3708 247.998 33.2209 247.897 33.1055C247.84 33.0497 247.772 33.0065 247.698 32.9784C247.623 32.9504 247.544 32.9382 247.464 32.9427H242.16C241.851 32.9538 241.545 32.8899 241.266 32.7565C241.036 32.6432 240.83 32.485 240.662 32.2912C240.5 32.1017 240.381 31.8795 240.313 31.6398C240.243 31.4104 240.207 31.1722 240.206 30.9326C240.207 30.6929 240.243 30.4547 240.313 30.2253C240.379 29.9904 240.493 29.7718 240.648 29.5832C240.815 29.388 241.021 29.2296 241.253 29.1179C241.536 28.9856 241.847 28.9219 242.16 28.9319H249C250.321 28.9319 251.256 29.2249 251.791 29.8159C252.387 30.5123 252.688 31.4138 252.629 32.3284V37.4466C252.675 39.2244 252.407 40.9964 251.838 42.6811C251.38 43.9985 250.629 45.1949 249.642 46.1801C248.699 47.0937 247.561 47.7824 246.315 48.1948C244.961 48.6418 243.552 48.9001 242.127 48.9625C241.849 48.9782 241.571 48.9468 241.304 48.8695C241.04 48.7968 240.794 48.67 240.582 48.4972C240.371 48.3219 240.199 48.1029 240.08 47.8551C239.95 47.5756 239.886 47.27 239.894 46.9618C239.877 46.5091 240.026 46.0657 240.313 45.7148C240.665 45.3351 241.153 45.1095 241.671 45.0867ZM255.49 30.2905C255.469 29.9742 255.52 29.6572 255.641 29.3642C255.763 29.0712 255.95 28.8102 256.188 28.6015C256.64 28.2287 257.208 28.0277 257.794 28.0338C258.087 28.0345 258.378 28.0849 258.654 28.1828C258.925 28.2794 259.174 28.4261 259.389 28.6154C259.605 28.8117 259.779 29.049 259.901 29.3134C260.037 29.6208 260.104 29.9544 260.097 30.2905V36.1764H260.864C261.17 36.1649 261.474 36.2288 261.749 36.3625C261.968 36.473 262.159 36.6322 262.307 36.8278C262.448 37.0219 262.551 37.2415 262.609 37.4746C262.669 37.7072 262.701 37.9463 262.702 38.1865C262.701 38.4252 262.67 38.6627 262.609 38.8937C262.552 39.1284 262.449 39.3496 262.307 39.5451C262.156 39.7421 261.962 39.9013 261.739 40.0104C261.467 40.1426 261.167 40.2065 260.864 40.1965H260.097V47.5481C260.097 48.1611 259.855 48.7493 259.424 49.185C258.992 49.6206 258.407 49.8684 257.794 49.8745C257.177 49.8745 256.585 49.6294 256.149 49.1931C255.712 48.7568 255.467 48.1651 255.467 47.5481L255.49 30.2905Z" fill="white"/>
</g>
<defs>
<clipPath id="clip0_3914_86877">
<rect width="262.702" height="50" fill="white"/>
</clipPath>
</defs>
</svg>
