<svg width="250" height="190" viewBox="0 0 250 190" fill="none" xmlns="http://www.w3.org/2000/svg">
<g clip-path="url(#clip0_3852_83308)">
<g clip-path="url(#clip1_3852_83308)">
<path d="M99.6671 135.748C98.3993 135.431 97.1843 136.49 97.4484 137.709C98.1352 141.418 103.048 166.534 102.731 166.163L101.78 166.428C101.463 166.375 101.146 166.216 100.882 166.004C99.9841 165.262 96.7617 163.991 92.1658 163.885C84.9287 163.726 83.0797 173.264 82.6571 178.668C82.6043 179.675 83.4495 180.523 84.506 180.523L123.386 180.417C124.443 180.417 125.235 179.569 125.182 178.615L123.492 148.2C123.439 147.459 122.911 146.823 122.118 146.611L99.6671 135.748Z" fill="#6D8EAE"/>
<path d="M120.111 137.922C118.843 137.604 117.628 138.664 117.892 139.882C118.579 143.591 123.492 168.707 123.175 168.337L122.224 168.602C121.907 168.549 121.59 168.39 121.326 168.178C120.428 167.436 117.206 166.164 112.61 166.058C105.373 165.899 103.524 175.437 103.101 180.842C103.048 181.848 103.893 182.696 104.95 182.696H138.283C144.041 182.696 145.573 179.358 145.52 178.404L143.988 150.374C143.935 149.632 143.407 148.996 142.615 148.784L120.111 137.922Z" fill="#7DA1CC"/>
<path d="M101.728 69.4608C99.7205 68.56 92.3777 65.6457 83.5029 68.2421C75.6318 70.5206 71.1944 75.7663 69.7681 77.6738C68.1305 78.7866 63.1121 82.4427 60.8405 89.3841C57.8823 98.6039 62.1084 106.393 62.8479 107.665C61.6858 108.671 56.6673 113.334 55.9806 121.071C55.0825 130.926 62.0555 137.391 62.8479 138.132C64.0629 140.358 66.2288 143.484 69.7153 146.24C77.111 151.909 85.299 151.962 87.9931 151.856C90.5288 153.446 99.2979 158.374 110.233 156.307C115.04 155.406 118.738 153.446 121.168 151.856C122.594 153.287 126.767 157.102 133.318 157.95C143.196 159.274 150.169 152.757 151.12 151.856C152.441 152.28 162.425 155.247 171.775 148.995C179.593 143.802 181.495 135.695 181.865 133.999C183.08 132.781 190.845 124.78 189.947 112.91C189.366 104.856 185.14 99.3987 183.45 97.4911C183.503 96.5374 184.189 84.7742 174.945 77.6209C168.341 72.5341 160.999 73.011 159.15 73.1699C157.406 71.2094 146.683 59.6581 129.197 59.3932C114.248 59.0753 104.211 67.3413 101.728 69.4608Z" fill="#7DA1CC"/>
<path d="M189.948 112.91C189.367 104.856 185.141 99.3987 183.45 97.4912C183.503 96.5374 184.19 84.7742 174.945 77.6209C172.991 76.1373 170.983 75.0775 169.082 74.3887C169.398 74.6006 169.768 74.8656 170.085 75.1305C179.33 82.3368 178.643 94.047 178.59 95.0008C180.228 96.9083 184.454 102.366 185.088 110.42C185.933 122.289 178.22 130.29 177.005 131.509C176.636 133.258 174.681 141.312 166.916 146.504C157.618 152.704 147.581 149.737 146.261 149.366C145.31 150.267 138.337 156.784 128.458 155.459C126.926 155.247 125.553 154.876 124.338 154.453C126.451 155.936 129.515 157.42 133.318 157.95C143.197 159.274 150.17 152.757 151.121 151.856C152.441 152.28 162.425 155.247 171.776 148.995C179.594 143.802 181.496 135.695 181.865 133.999C183.08 132.781 190.846 124.78 189.948 112.91Z" fill="#6D8EAE"/>
<path d="M117.523 91.9289C110.655 91.6639 104.844 97.0156 104.58 103.904C104.316 110.792 109.651 116.621 116.519 116.886C123.386 117.151 129.197 111.799 129.461 104.911C129.778 98.0224 124.39 92.2468 117.523 91.9289Z" fill="#FDFDFD"/>
<path d="M114.406 94.312C110.391 94.153 106.957 97.2792 106.799 101.359C106.64 105.386 109.757 108.83 113.825 108.989C117.839 109.148 121.273 106.022 121.432 101.942C121.537 97.9151 118.42 94.4709 114.406 94.312Z" fill="#050203"/>
<path d="M94.7019 92.6154C88.2043 92.3504 82.7633 97.4372 82.4991 103.955C82.235 110.472 87.3063 115.93 93.8039 116.195C100.301 116.46 105.743 111.373 106.007 104.855C106.218 98.391 101.2 92.8803 94.7019 92.6154Z" fill="#FDFDFD"/>
<path d="M95.2827 94.3119C91.2679 94.1529 87.8342 97.3321 87.6757 101.359C87.5172 105.386 90.634 108.83 94.7016 108.989C98.7163 109.148 102.15 106.022 102.309 101.942C102.467 97.915 99.2974 94.4708 95.2827 94.3119Z" fill="#050203"/>
<path d="M110.285 97.8096C109.916 97.8096 109.651 98.0745 109.599 98.4454C109.546 98.8163 109.863 99.0813 110.232 99.1342C110.602 99.1872 110.866 98.8693 110.919 98.4984C110.919 98.0745 110.602 97.8096 110.285 97.8096Z" fill="#FDFDFD"/>
<path d="M97.6599 98.4458C97.2901 98.4458 97.026 98.7107 96.9731 99.0816C96.9731 99.4526 97.2373 99.7175 97.6071 99.7705C97.9768 99.7705 98.241 99.5055 98.2938 99.1346C98.3466 98.7637 98.0297 98.4458 97.6599 98.4458Z" fill="#FDFDFD"/>
<path d="M76.2126 81.4364C77.6389 82.2842 74.6807 86.4702 71.9337 91.0801C69.1339 95.69 65.7002 98.9752 64.2739 98.0744C62.8476 97.2266 64.0098 92.1399 66.7568 87.5299C69.5037 82.8671 74.7863 80.5356 76.2126 81.4364Z" fill="#9FC2E2"/>
<path d="M72.3566 116.726C72.3566 116.726 72.4622 119.693 76.8468 120.064C81.2313 120.435 87.6233 129.813 80.1748 135.377C72.7263 140.941 65.7005 131.35 64.6968 125.31" fill="#6D8EAE"/>
<path d="M72.0924 113.228C72.0924 113.228 72.198 116.195 76.5826 116.566C80.9672 116.937 87.3591 126.316 79.9106 131.88C72.4622 137.443 65.4363 129.336 64.4326 123.296" fill="#7DA1CC"/>
<path d="M72.0924 113.228C72.0924 113.228 72.198 116.195 76.5826 116.566C80.9672 116.937 87.3591 126.316 79.9106 131.88C72.4622 137.443 65.4363 129.336 64.4326 123.296" stroke="#6D8EAE" stroke-width="1.0916" stroke-miterlimit="10"/>
<path d="M101.887 117.945C106.799 118.103 115.04 114.924 117.629 118.951C120.217 122.978 115.727 126.793 111.501 127.058C107.275 127.376 91.5326 127.058 91.9024 121.495C92.2194 117.468 96.9209 117.839 101.887 117.945Z" fill="#060001"/>
<path d="M117.311 124.196C115.674 123.401 113.244 122.712 109.863 122.712C104.58 122.712 99.8259 124.779 97.4487 125.998C102.362 127.163 109.07 127.269 111.5 127.057C113.719 126.898 115.991 125.786 117.311 124.196Z" fill="#C75C50"/>
<path d="M101.887 117.945C100.619 117.892 99.4039 117.839 98.2417 117.892C98.3474 118.74 99.0869 120.117 103.102 119.905C107.169 119.693 108.279 118.104 108.596 117.256C106.218 117.574 103.788 118.051 101.887 117.945Z" fill="#FDFDFD"/>
<path d="M106.905 120.487C103.049 119.215 97.3967 118.155 91.0047 117.784C84.6128 117.413 78.9076 117.678 74.8928 118.526L69.4517 118.208L69.1348 123.719C68.9763 126.527 78.4322 129.6 90.2652 130.342C102.098 131.084 111.871 129.177 112.029 126.368L112.346 120.857L106.905 120.487Z" fill="#757575"/>
<path d="M111.997 120.826C112.154 118.285 102.838 115.64 91.1903 114.919C79.5425 114.197 69.9733 115.673 69.8169 118.214C69.6605 120.755 78.9761 123.4 90.6239 124.121C102.272 124.842 111.841 123.367 111.997 120.826Z" fill="#BFBFBF"/>
<path d="M72.1456 120.328C75.5264 119.163 82.1297 118.315 91.0045 118.845C99.8792 119.375 106.324 121.017 109.546 122.607C111.131 122.024 112.029 121.388 112.082 120.752C112.188 118.845 104.369 115.665 91.2686 114.871C78.1677 114.076 70.0325 116.248 69.8741 118.156C69.8212 118.792 70.6136 119.533 72.1456 120.328Z" fill="#3F3F3F"/>
<path d="M91.2155 114.341C79.3825 113.599 69.6097 115.294 69.4512 118.156C69.2927 120.964 78.7486 123.878 90.5816 124.62C102.415 125.362 112.187 123.666 112.346 120.805C112.557 117.997 103.101 115.082 91.2155 114.341ZM90.6344 124.09C77.5864 123.295 69.7153 120.116 69.821 118.209C69.9266 116.301 78.1146 114.129 91.2155 114.923C104.316 115.718 112.135 118.898 112.029 120.805C111.87 122.713 103.682 124.885 90.6344 124.09Z" fill="#BFBFBF"/>
<path d="M111.289 127.642L108.331 125.205L104.422 129.868C107.697 129.391 110.127 128.596 111.289 127.642Z" fill="#515151"/>
<path d="M139.816 129.285L139.921 127.642L108.331 125.205L108.226 126.954C108.226 126.954 130.096 131.828 138.019 130.133C139.287 129.868 139.868 129.55 139.816 129.285Z" fill="#757575"/>
<path d="M108.332 125.205C108.332 125.205 130.835 129.338 138.125 128.384C146.155 127.324 126.187 124.463 111.66 124.145C111.66 124.145 110.92 124.463 110.18 124.622C109.441 124.781 108.332 125.205 108.332 125.205Z" fill="#BFBFBF"/>
<path d="M75.7705 112.793C74.1708 111.415 71.3387 108.005 72.8076 105.391C74.6438 102.124 77.1525 105.779 75.4849 107.219C73.8174 108.658 68.0536 104.552 69.5293 99.2363" stroke="#6D2903" stroke-width="0.545802" stroke-linecap="round" stroke-linejoin="round"/>
<path d="M144.094 113.653C137.914 115.985 124.866 114.13 122.7 123.827C121.485 129.126 127.401 133.683 132.842 131.457C137.016 129.761 137.069 124.463 139.129 124.463" fill="#7DA1CC"/>
<path d="M144.094 113.653C137.914 115.985 124.866 114.13 122.7 123.827C121.485 129.126 127.401 133.683 132.842 131.457C137.016 129.761 137.069 124.463 139.129 124.463" stroke="#6D8EAE" stroke-width="1.0916" stroke-miterlimit="10"/>
<path d="M124.496 126.9C124.179 126.953 123.545 125.84 123.545 124.833C123.545 123.827 124.496 123.032 124.866 123.032C125.183 122.979 125.499 123.933 125.499 124.939C125.499 125.893 124.866 126.847 124.496 126.9Z" fill="#9FC2E2"/>
<path d="M62.5306 79.0004C53.1276 81.5968 44.4641 81.0669 47.6865 85.3059C50.9089 89.5449 47.9506 93.8898 53.603 94.2608C59.2554 94.6317 67.9189 89.7568 74.3636 91.5584C80.8612 93.307 88.4154 91.9823 89.736 88.4321C91.1095 84.935 96.0751 86.2597 95.3884 83.0804C94.7017 79.9012 88.7851 79.1064 83.7667 79.6362C78.8539 80.2191 70.3489 76.8279 62.5306 79.0004Z" fill="#FFF7D2"/>
<path d="M64.3274 84.828C63.2708 84.457 62.9539 83.0794 63.7463 82.2316C64.9613 80.9599 67.1271 79.5292 70.7193 79.8472C75.6321 80.2181 76.4245 83.3973 76.5302 84.775C76.583 85.1459 76.3189 85.5168 75.9491 85.5698C74.8926 85.7287 72.4626 85.9937 69.5571 85.8877C67.4441 85.7287 65.5952 85.2519 64.3274 84.828Z" fill="#FFCE33"/>
<path d="M77.7447 80.9077C76.6882 82.0734 78.6428 84.2459 78.2202 84.8287C77.7976 85.4116 80.6502 86.3124 83.4499 85.0937C86.2497 83.8749 87.8873 82.7092 90.3173 82.8152C92.6945 82.8682 94.068 81.5965 91.8493 81.0666C89.6834 80.5367 85.246 81.3316 82.6576 81.1196C80.0691 80.9077 78.3258 80.2718 77.7447 80.9077Z" fill="white"/>
<path d="M68.7646 80.9083C69.6099 79.6366 65.912 81.0143 65.8064 81.4382C65.7007 81.8621 66.4931 82.0741 67.3383 82.0211C68.1307 82.0211 68.6062 81.1733 68.7646 80.9083Z" fill="white"/>
<path d="M74.7868 91.3997C68.2892 89.6511 59.0446 94.367 53.3922 93.9961C47.7399 93.5722 51.1207 89.4922 47.8455 85.2532C46.9475 84.0874 47.4757 82.9217 48.2153 82.3389C46.8418 82.9747 46.5249 83.8755 47.687 85.4121C50.9094 89.6511 47.9512 93.9961 53.6035 94.367C59.2559 94.7909 67.9194 89.8631 74.3642 91.6646C79.4883 93.0423 85.2992 92.5124 88.1518 90.4989C85.1407 92.0885 79.5411 92.6714 74.7868 91.3997Z" fill="#C46D05"/>
<path d="M61.792 80.9614C62.0033 80.5375 61.6336 80.1136 61.1581 80.2196C58.3055 80.9084 51.9136 81.9152 51.174 82.1271C50.276 82.3921 48.4271 83.3458 49.7477 84.4586C51.0684 85.5713 55.8755 84.1407 58.1999 84.4586C59.7846 84.7235 61.1581 82.3921 61.792 80.9614Z" fill="white"/>
<path opacity="0.2" d="M95.5474 120.169C92.7476 119.904 90.3176 118.474 88.0989 119.745C85.8274 121.017 86.7783 122.395 90.1591 122.872C93.54 123.349 94.2267 122.607 97.185 123.19C100.143 123.772 103.63 123.984 103.102 122.872C102.573 121.706 101.2 121.6 99.0339 120.593C96.8681 119.533 96.4983 120.222 95.5474 120.169Z" fill="#FFC84D"/>
<path opacity="0.2" d="M82.2348 119.693C81.1783 119.481 80.4387 119.323 79.5935 120.329C78.7483 121.336 79.1181 122.449 80.3859 122.82C81.6537 123.191 81.9178 122.608 83.08 123.085C84.1894 123.562 85.51 123.72 85.3515 122.82C85.1402 121.919 84.612 121.813 83.8196 121.018C82.9744 120.223 82.6046 119.799 82.2348 119.693Z" fill="#FFC84D"/>
<path d="M89.4083 71.5837C86.722 68.8976 90.5277 68.0652 92.7663 67.9848L129.706 64.3872C132.184 65.1068 137.429 67.0737 138.581 69.1846C140.02 71.8231 137.621 76.8603 119.391 78.5394C101.161 80.2185 92.7663 74.9414 89.4083 71.5837Z" fill="#638AB9"/>
<path d="M91.6971 65.3806C92.2782 69.5002 94.8667 77.8814 111.137 77.1711C127.408 76.4608 132.796 75.4664 134.962 71.8677C137.127 68.2217 134.962 35.8332 134.962 35.8332C134.962 35.8332 148.432 33.1815 144.946 23.7586C141.459 14.3356 129.573 19.8757 129.573 19.8757C129.573 19.8757 132.584 7.04348 121.227 6.09645C109.869 5.14942 108.971 12.0627 108.971 12.0627C108.971 12.0627 108.707 3.30271 98.6173 6.00174C88.5276 8.70078 96.0817 20.8228 96.0817 20.8228C96.0817 20.8228 84.8297 15.5668 82.8224 25.5579C81.3432 32.9448 94.2856 35.5491 94.2856 35.5491L91.6971 65.3806Z" fill="#EAEAEA"/>
<path d="M108.971 12.0151C108.073 4.4862 101.893 5.14913 98.6175 6.00145C97.7723 6.23821 97.0327 6.52232 96.4517 6.90113C106.858 6.66437 108.971 12.0151 108.971 12.0151Z" fill="#D8D8D8"/>
<path d="M128.157 19.8292H129.574C130.367 14.952 130.419 6.85486 121.228 6.04988C118.164 5.81313 115.892 6.09724 114.149 6.7128C128.782 7.51778 128.157 19.8292 128.157 19.8292Z" fill="#D8D8D8"/>
<path d="M85.9923 20.8233C85.9923 20.8233 85.9394 20.7281 85.8338 20.5854C85.7809 20.633 85.7281 20.6806 85.6753 20.6806C85.8338 20.7281 85.9923 20.8233 85.9923 20.8233Z" fill="#D8D8D8"/>
<path d="M144.893 23.7116C142.199 16.4195 134.434 18.1241 131.106 19.2132C132.638 20.0182 133.958 21.4387 134.804 23.7116C138.29 33.1346 124.819 35.7862 124.819 35.7862C124.819 35.7862 126.985 68.1747 124.819 71.8208C122.865 75.1354 118.216 76.2245 105.062 76.9347C106.859 77.1715 108.813 77.2188 111.137 77.1241C127.408 76.4139 132.796 75.4195 134.962 71.8208C137.128 68.1747 134.962 35.7862 134.962 35.7862C134.962 35.7862 148.433 33.1346 144.893 23.7116Z" fill="#D8D8D8"/>
<path d="M101.206 35.5472C101.206 35.5472 95.7651 68.6933 96.9801 70.1138C98.1951 71.5343 99.6743 71.3449 100.097 70.1138C100.519 68.93 104.534 33.7478 101.206 35.5472Z" fill="#D8D8D8"/>
<path d="M109.077 36.3534C109.077 36.3534 105.908 69.6888 107.175 71.1094C108.496 72.4826 109.975 72.1511 110.292 70.92C110.609 69.6888 112.247 34.3646 109.077 36.3534Z" fill="#D8D8D8"/>
<path d="M117.265 36.3998C117.265 36.3998 116.526 69.8773 117.952 71.1558C119.378 72.4817 120.805 72.0555 121.016 70.8244C121.227 69.5932 120.276 34.2216 117.265 36.3998Z" fill="#D8D8D8"/>
<path d="M126.773 36.4003C126.773 36.4003 127.355 69.8778 128.834 71.1563C130.313 72.4348 131.739 71.9613 131.898 70.7302C132.056 69.4517 129.679 34.1748 126.773 36.4003Z" fill="#D8D8D8"/>
</g>
</g>
<path d="M211 52C213.761 52 216 49.7614 216 47C216 44.2386 213.761 42 211 42C208.239 42 206 44.2386 206 47C206 49.7614 208.239 52 211 52Z" fill="#57BEB7"/>
<path d="M234 73C235.105 73 236 72.1046 236 71C236 69.8954 235.105 69 234 69C232.895 69 232 69.8954 232 71C232 72.1046 232.895 73 234 73Z" fill="#ECCD52"/>
<path d="M44 158C45.1046 158 46 157.105 46 156C46 154.895 45.1046 154 44 154C42.8954 154 42 154.895 42 156C42 157.105 42.8954 158 44 158Z" fill="#ECCD52"/>
<path d="M27.5 149C29.9853 149 32 146.985 32 144.5C32 142.015 29.9853 140 27.5 140C25.0147 140 23 142.015 23 144.5C23 146.985 25.0147 149 27.5 149Z" fill="#DC4C7C"/>
<defs>
<clipPath id="clip0_3852_83308">
<rect width="184" height="190" fill="white" transform="translate(26)"/>
</clipPath>
<clipPath id="clip1_3852_83308">
<rect width="143" height="183.389" fill="white" transform="translate(47 -0.695312)"/>
</clipPath>
</defs>
</svg>
