<svg width="285" height="50" viewBox="0 0 285 50" fill="none" xmlns="http://www.w3.org/2000/svg">
<g clip-path="url(#clip0_3888_86343)">
<path d="M3.33718 12.1508C2.75868 12.1719 2.17989 12.1187 1.615 11.9925C1.22625 11.905 0.87316 11.7021 0.602187 11.4106C0.350911 11.0997 0.189531 10.7262 0.135463 10.3305C0.0384979 9.76944 -0.00521303 9.20053 0.00482417 8.63127V4.32494C-0.00405855 3.75881 0.0396462 3.19307 0.135463 2.63499C0.188453 2.23478 0.349812 1.85652 0.602187 1.54094C0.874424 1.25102 1.227 1.04845 1.615 0.958999C2.17327 0.830016 2.74569 0.77214 3.31855 0.786748H9.61932C10.1922 0.77214 10.7646 0.830016 11.3229 0.958999C11.7118 1.04943 12.0656 1.25177 12.3403 1.54094C12.5882 1.85917 12.749 2.23616 12.807 2.63499C12.8987 3.19352 12.9409 3.75903 12.933 4.32494V10.1303C12.933 10.6724 12.7172 11.1922 12.3329 11.5755C11.9487 11.9588 11.4275 12.1741 10.8841 12.1741L3.33718 12.1508ZM12.835 15.1769C12.835 15.2234 12.835 15.27 12.835 15.3166C12.8305 15.363 12.8305 15.4098 12.835 15.4562C13.7281 15.4416 14.6187 15.5513 15.4813 15.7821C16.3679 16.0109 17.2059 16.3973 17.955 16.9227C18.7324 17.4727 19.395 18.1684 19.9059 18.9711C20.0884 19.272 20.1873 19.616 20.1922 19.9677C20.1971 20.3193 20.108 20.6659 19.934 20.9718C19.76 21.2777 19.5073 21.5318 19.2021 21.7079C18.897 21.8841 18.5503 21.9759 18.1977 21.9739H17.4556C17.1004 21.9674 16.753 21.8686 16.4478 21.6874C16.1425 21.5061 15.8898 21.2487 15.7147 20.9404C15.6429 20.8175 15.5634 20.6994 15.4767 20.5866C15.1638 20.1761 14.7758 19.8286 14.3332 19.5624C13.8621 19.2877 13.35 19.0896 12.8164 18.9758C12.25 18.8494 11.6677 18.8102 11.0895 18.8594C10.5182 19.4383 9.87514 19.942 9.17589 20.3584C8.4521 20.7983 7.68601 21.1649 6.88899 21.4525C6.11693 21.7355 5.31999 21.9459 4.50866 22.081C3.76934 22.2117 3.01548 22.2399 2.26842 22.1648C1.99775 22.1351 1.73412 22.0595 1.48897 21.9413C1.25117 21.8253 1.03619 21.6676 0.854236 21.4758C0.67623 21.2898 0.535262 21.0718 0.438845 20.8333C0.335619 20.5877 0.290874 20.3216 0.308149 20.0558C0.320827 19.5755 0.516041 19.1178 0.854236 18.7756C1.16666 18.459 1.58988 18.2755 2.03506 18.2635H2.50178C2.65882 18.2602 2.81516 18.2415 2.96851 18.2076C3.49598 18.1425 4.01625 18.0287 4.52268 17.8678C5.03265 17.7081 5.52398 17.4943 5.98819 17.23C6.43924 16.9788 6.85248 16.6653 7.21568 16.2989C7.57098 15.9308 7.84871 15.4955 8.03244 15.0186C8.21753 14.4057 8.59355 13.8676 9.10593 13.4823C9.58146 13.1937 10.1396 13.0708 10.6927 13.1331C11.2415 13.1392 11.7736 13.3221 12.2096 13.6545C12.4204 13.8454 12.5847 14.0817 12.6898 14.3456C12.795 14.6094 12.8383 14.8938 12.8164 15.1769H12.835ZM4.43402 8.12381C4.42026 8.28636 4.45778 8.44914 4.54136 8.58936C4.6076 8.63853 4.68294 8.67412 4.76304 8.6941C4.84315 8.71407 4.92644 8.71804 5.00809 8.70575H7.88312C8.06179 8.70452 8.23271 8.63285 8.35862 8.50639C8.48452 8.37992 8.55518 8.20892 8.55517 8.03069V4.77185C8.57432 4.60768 8.53284 4.44217 8.43849 4.3063C8.30518 4.20554 8.1378 4.16045 7.97177 4.18059H5.00809C4.77472 4.18059 4.62071 4.2225 4.54136 4.3063C4.45531 4.44552 4.4176 4.60912 4.43402 4.77185V8.12381ZM15.2853 2.4441C15.2619 2.12352 15.3119 1.80184 15.4316 1.5034C15.5513 1.20496 15.7375 0.937589 15.9761 0.721564C16.4256 0.335187 17.0023 0.12796 17.5956 0.139627C18.1868 0.133273 18.7598 0.343677 19.2058 0.730884C19.4442 0.945453 19.631 1.21096 19.7523 1.5076C19.8735 1.80425 19.926 2.12439 19.9059 2.4441V5.28397H20.6293C20.9357 5.27245 21.2403 5.33639 21.516 5.47017C21.7345 5.58272 21.9258 5.74163 22.0762 5.93572C22.2186 6.12622 22.3217 6.343 22.3795 6.57352C22.4398 6.80624 22.4711 7.04548 22.4728 7.28583C22.4714 7.52466 22.4401 7.76236 22.3795 7.99344C22.3218 8.22828 22.2188 8.44967 22.0762 8.64522C21.9286 8.84564 21.7328 9.00575 21.5068 9.11077C21.2313 9.23458 20.9314 9.29504 20.6293 9.28768H19.9059V11.9646C19.8997 12.5779 19.6512 13.164 19.2142 13.5955C18.7772 14.027 18.1871 14.2691 17.5722 14.2691C16.9574 14.2691 16.3673 14.027 15.9303 13.5955C15.4934 13.164 15.2448 12.5779 15.2386 11.9646L15.2853 2.4441Z" fill="white"/>
<path d="M29.8467 11.9924C28.9309 12.0007 28.0173 11.8991 27.1257 11.6898C26.3709 11.5207 25.6571 11.2042 25.0255 10.7587C24.44 10.3299 23.9715 9.76172 23.6627 9.10596C23.3256 8.34132 23.166 7.51059 23.1959 6.67581V5.79126C23.1667 4.95502 23.3262 4.12294 23.6627 3.35644C23.9727 2.70143 24.4409 2.13352 25.0255 1.70375C25.6581 1.25988 26.3715 0.943586 27.1257 0.772648C28.0169 0.561176 28.9308 0.459537 29.8467 0.47003C30.7627 0.459537 31.6766 0.561176 32.5678 0.772648C33.322 0.943586 34.0354 1.25988 34.668 1.70375C35.2526 2.13352 35.7208 2.70143 36.0308 3.35644C36.3753 4.1211 36.5428 4.95325 36.5209 5.79126V6.67581C36.5435 7.51238 36.3759 8.34318 36.0308 9.10596C35.722 9.76172 35.2535 10.3299 34.668 10.7587C34.0364 11.2042 33.3226 11.5207 32.5678 11.6898C31.6762 11.8991 30.7626 12.0007 29.8467 11.9924ZM24.8061 18.7894C25.6624 18.5591 26.4025 18.0199 26.883 17.2764C27.315 16.533 27.5481 15.6913 27.5598 14.8322C27.5481 14.5361 27.6086 14.2416 27.7362 13.9739C27.8639 13.7063 28.0548 13.4736 28.2925 13.2959C28.7537 12.9739 29.3075 12.8104 29.8701 12.8304C30.4224 12.8317 30.9595 13.0114 31.401 13.3425C31.6226 13.5292 31.7961 13.766 31.9073 14.0333C32.0186 14.3005 32.0642 14.5904 32.0403 14.8788C32.0403 15.0045 32.0403 15.1209 32.0403 15.2372C32.0403 15.3536 32.0404 15.4747 32.0077 15.6004C32.7305 15.6624 33.4335 15.8682 34.0753 16.2056C34.7092 16.569 35.2294 17.1009 35.5781 17.7419C36.1339 16.8668 36.4105 15.8441 36.3715 14.8089C36.3604 14.4943 36.4294 14.1819 36.5722 13.9011C36.6963 13.6573 36.8752 13.4454 37.095 13.282C37.3151 13.118 37.5658 12.9993 37.8324 12.9328C38.1101 12.863 38.3954 12.8286 38.6818 12.8304C39.2328 12.831 39.7686 13.0108 40.208 13.3425C40.431 13.5282 40.606 13.7648 40.7181 14.0322C40.8302 14.2996 40.8762 14.59 40.8521 14.8788C40.8538 15.1905 40.8303 15.5019 40.782 15.8099C41.4015 15.9567 41.9927 16.2036 42.5323 16.5408C43.0568 16.8748 43.5091 17.3101 43.8625 17.8211C44.2361 18.3756 44.5123 18.9896 44.6792 19.6367C44.7513 19.9148 44.7578 20.2058 44.6984 20.4869C44.6389 20.768 44.5151 21.0315 44.3366 21.257C44.1581 21.4824 43.9297 21.6635 43.6693 21.7863C43.4089 21.909 43.1236 21.97 42.8357 21.9644H42.4389C42.0068 21.9581 41.5891 21.8089 41.2512 21.5401C40.9133 21.2713 40.6744 20.8982 40.572 20.4793C40.5503 20.3955 40.5223 20.3117 40.4881 20.2279C40.3159 19.7566 39.9863 19.3588 39.5546 19.1013C38.9349 20.0586 38.1286 20.8819 37.1836 21.5222C36.3608 22.1074 35.3915 22.4539 34.3833 22.5231C33.8766 22.5722 33.3674 22.4615 32.9272 22.2065C32.7498 22.1043 32.5964 21.9654 32.4773 21.7992C32.3582 21.633 32.2761 21.4433 32.2364 21.2428C32.2044 21.1084 32.1856 20.9712 32.1804 20.8332C32.1699 20.705 32.181 20.576 32.2131 20.4514C32.1893 20.0876 32.0531 19.7401 31.8233 19.4567C31.5934 19.1733 31.2812 18.9678 30.9296 18.8686C30.3711 19.8359 29.6043 20.6675 28.6846 21.3034C27.8278 21.8994 26.8202 22.2431 25.7769 22.295C25.2589 22.3413 24.7398 22.2188 24.2975 21.9458C24.1165 21.8361 23.9599 21.6908 23.8371 21.5187C23.7143 21.3466 23.628 21.1514 23.5834 20.9449C23.4821 20.5002 23.5398 20.0341 23.7466 19.6274C23.981 19.2285 24.3604 18.935 24.8061 18.808V18.7894ZM29.8467 8.66369C30.3861 8.68804 30.9188 8.53602 31.3636 8.23073C31.5656 8.06939 31.7248 7.8611 31.8274 7.6241C31.9299 7.3871 31.9726 7.12862 31.9517 6.87133V5.5678C31.9708 5.31252 31.9277 5.0564 31.8261 4.82131C31.7245 4.58623 31.5674 4.37914 31.3683 4.2177C30.9296 3.89668 30.3951 3.73266 29.8514 3.75215C29.3077 3.73266 28.7733 3.89668 28.3346 4.2177C28.1354 4.37914 27.9783 4.58623 27.8767 4.82131C27.7751 5.0564 27.7321 5.31252 27.7512 5.5678V6.87133C27.7297 7.12822 27.7717 7.38644 27.8734 7.62342C27.9751 7.86039 28.1334 8.06889 28.3346 8.23073C28.7758 8.54164 29.3068 8.70022 29.8467 8.68233V8.66369ZM39.1812 2.42534C39.1587 2.10314 39.211 1.78007 39.334 1.48132C39.4571 1.18256 39.6475 0.916152 39.8906 0.702804C40.3524 0.318649 40.9369 0.112201 41.5382 0.120868C41.8369 0.122319 42.1332 0.17265 42.4156 0.269847C42.6931 0.368818 42.9496 0.518841 43.1717 0.712124C43.3943 0.914899 43.5736 1.16031 43.6991 1.43372C43.8347 1.74648 43.9016 2.08463 43.8952 2.42534V9.80429C43.8952 10.1119 43.834 10.4166 43.7152 10.7005C43.5965 10.9844 43.4226 11.2421 43.2034 11.4585C42.9842 11.675 42.7242 11.846 42.4384 11.9616C42.1525 12.0772 41.8466 12.1351 41.5382 12.132C40.9193 12.132 40.3257 11.8868 39.888 11.4502C39.4504 11.0137 39.2046 10.4216 39.2046 9.80429L39.1812 2.42534Z" fill="white"/>
<path d="M65.8781 9.91624C66.1905 9.90615 66.5012 9.96497 66.7882 10.0885C67.0212 10.1991 67.228 10.3578 67.3949 10.554C67.5506 10.7337 67.6653 10.945 67.731 11.1732C67.803 11.399 67.8393 11.6346 67.8383 11.8716C67.8382 12.3496 67.6734 12.8131 67.3716 13.1844C67.1866 13.3958 66.9538 13.5601 66.6925 13.6637C66.4311 13.7673 66.1487 13.8073 65.8688 13.7803H47.9466C47.6667 13.8073 47.3843 13.7673 47.1229 13.6637C46.8615 13.5601 46.6288 13.3958 46.4438 13.1844C46.142 12.8131 45.9772 12.3496 45.9771 11.8716C45.9761 11.6346 46.0123 11.399 46.0844 11.1732C46.1501 10.945 46.2648 10.7337 46.4204 10.554C46.5874 10.3578 46.7942 10.1991 47.0272 10.0885C47.3142 9.96497 47.6249 9.90615 47.9373 9.91624H65.8781ZM50.2896 8.51959C49.7397 8.53074 49.1907 8.47128 48.6561 8.34268C48.2669 8.25385 47.9109 8.05695 47.6293 7.77472C47.3657 7.48046 47.1839 7.12257 47.1018 6.73656C46.9931 6.21298 46.943 5.67896 46.9524 5.14436V2.60714C46.9239 2.28435 46.9735 1.95943 47.0969 1.6597C47.2204 1.35997 47.4141 1.09416 47.6619 0.8846C48.151 0.52267 48.7474 0.33421 49.3561 0.349207C49.958 0.332145 50.5477 0.521085 51.027 0.8846C51.2688 1.09794 51.4569 1.36502 51.576 1.66425C51.6952 1.96347 51.7422 2.28647 51.7131 2.60714V4.32965C51.7131 4.59036 51.7505 4.75332 51.8298 4.8185C51.9886 4.89759 52.1666 4.92986 52.3431 4.91158H65.0147C65.2923 4.88355 65.5726 4.91794 65.8351 5.0122C66.0976 5.10646 66.3356 5.25822 66.5316 5.4563C66.821 5.80773 66.9779 6.24917 66.9749 6.70397C66.9757 7.16807 66.8102 7.61717 66.5082 7.97025C66.3137 8.16787 66.0775 8.31974 65.8167 8.41477C65.5559 8.5098 65.2771 8.5456 65.0007 8.51959H50.2896ZM50.4996 22.0205C49.9497 22.0317 49.4007 21.9722 48.8661 21.8436C48.4776 21.7529 48.1221 21.5563 47.8393 21.2757C47.5757 20.9814 47.3939 20.6235 47.3118 20.2375C47.2034 19.7139 47.1534 19.1799 47.1626 18.6453V16.9926C47.1345 16.6685 47.1856 16.3425 47.3116 16.0425C47.4376 15.7425 47.6347 15.4774 47.8859 15.2701C48.3788 14.9087 48.9779 14.7205 49.5895 14.7347C50.1914 14.7176 50.7811 14.9065 51.2604 15.2701C51.5022 15.4834 51.6902 15.7505 51.8094 16.0497C51.9286 16.3489 51.9755 16.6719 51.9465 16.9926V17.8306C51.9465 18.0959 51.9838 18.2542 52.0632 18.2961C52.2219 18.3752 52.4 18.4075 52.5765 18.3892H65.1547C65.4322 18.3612 65.7126 18.3956 65.9751 18.4899C66.2376 18.5841 66.4755 18.7359 66.6715 18.9339C66.9693 19.2821 67.1346 19.7239 67.1382 20.1816C67.1415 20.6462 66.9757 21.0961 66.6715 21.4479C66.477 21.6455 66.2408 21.7974 65.98 21.8924C65.7192 21.9875 65.4404 22.0233 65.164 21.9972L50.4996 22.0205Z" fill="white"/>
<path d="M73.7892 9.45077C74.6041 9.47012 75.4186 9.39514 76.2163 9.22732C76.9006 9.08896 77.5558 8.83382 78.1531 8.47313C78.6764 8.15365 79.1163 7.71488 79.4366 7.19287C79.7586 6.64278 79.9202 6.01396 79.9033 5.37721V5.12117C79.9033 4.78132 79.726 4.60908 79.3666 4.60908H74.0926C73.792 4.61612 73.4931 4.56061 73.2151 4.44612C72.9876 4.34786 72.785 4.19991 72.6224 4.01316C72.4711 3.84026 72.3553 3.63939 72.2817 3.42193C72.2144 3.20317 72.1798 2.97571 72.179 2.74688C72.1798 2.51805 72.2144 2.29058 72.2817 2.07183C72.3563 1.8534 72.4719 1.65114 72.6224 1.47591C72.7865 1.29199 72.9888 1.14586 73.2151 1.04761C73.4931 0.933116 73.792 0.877635 74.0926 0.884681H81.1635C82.4376 0.884681 83.3245 1.14538 83.8145 1.66214C84.3506 2.32924 84.6125 3.17464 84.5472 4.02714V5.50292C84.5468 5.5857 84.5389 5.66828 84.5238 5.74968H87.7909V2.39772C87.7691 2.08126 87.821 1.76406 87.9424 1.47091C88.0639 1.17775 88.2516 0.916577 88.491 0.70777C88.9437 0.334835 89.5142 0.133632 90.1013 0.139786C90.3955 0.140443 90.6873 0.190818 90.9646 0.288765C91.2375 0.387477 91.4904 0.534107 91.7114 0.721722C91.9345 0.914908 92.1142 1.15286 92.2388 1.42005C92.3753 1.72762 92.4423 2.06143 92.4349 2.39772V14.2785C92.4349 14.8959 92.189 15.488 91.7513 15.9245C91.3137 16.361 90.7202 16.6063 90.1013 16.6063C89.4824 16.6063 88.8887 16.361 88.4511 15.9245C88.0135 15.488 87.7677 14.8959 87.7677 14.2785V9.38096H83.3804C82.9248 10.0847 82.3482 10.7025 81.6769 11.2059C80.9782 11.7346 80.2083 12.1625 79.3899 12.4768C78.5107 12.8117 77.5938 13.0384 76.6596 13.1519C75.6534 13.2782 74.6369 13.3016 73.6259 13.2217C73.1169 13.1984 72.636 12.9819 72.2817 12.6165C72.0965 12.4183 71.9562 12.1827 71.87 11.9257C71.7839 11.6687 71.754 11.3963 71.7824 11.1268C71.785 10.8848 71.8417 10.6464 71.9483 10.429C72.0549 10.2115 72.2085 10.0205 72.3984 9.86978C72.798 9.57098 73.2906 9.42257 73.7892 9.45077ZM76.3329 22.0206C75.7871 22.0322 75.2423 21.9696 74.7134 21.8344C74.3284 21.7342 73.9771 21.5333 73.6959 21.2525C73.4311 20.9561 73.2507 20.5944 73.1732 20.205C73.062 19.6849 73.0103 19.1538 73.0192 18.6221V16.3642C72.992 16.0377 73.0425 15.7094 73.1666 15.406C73.2907 15.1026 73.4848 14.8328 73.7333 14.6184C74.2147 14.2428 74.8117 14.0454 75.4227 14.0597C76.0242 14.0423 76.6121 14.2405 77.0796 14.6184C77.3181 14.8389 77.503 15.1107 77.6203 15.4133C77.7376 15.7158 77.7841 16.041 77.7563 16.3642V17.8307C77.7563 18.096 77.7937 18.2543 77.873 18.2962C78.0318 18.3753 78.2099 18.4076 78.3865 18.3893H90.5912C90.8688 18.3613 91.1492 18.3957 91.4116 18.4899C91.6741 18.5842 91.9121 18.7359 92.1081 18.934C92.4059 19.2822 92.5712 19.724 92.5748 20.1817C92.5781 20.6463 92.4123 21.0962 92.1081 21.448C91.9136 21.6456 91.6773 21.7975 91.4165 21.8925C91.1558 21.9875 90.877 22.0233 90.6006 21.9973L76.3329 22.0206Z" fill="white"/>
<path d="M106.628 4.60908V5.07463C106.628 5.46365 106.605 5.85236 106.558 6.2385C108.3 6.31609 109.591 6.83905 110.431 7.8074C110.834 8.28687 111.131 8.84511 111.304 9.44614C111.404 9.77272 111.426 10.1181 111.368 10.4546C111.31 10.7912 111.173 11.1094 110.97 11.3838C110.766 11.6582 110.5 11.881 110.194 12.0345C109.889 12.1879 109.551 12.2677 109.209 12.2674C108.756 12.2654 108.314 12.1233 107.946 11.8607C107.577 11.598 107.299 11.2277 107.15 10.8009C107.077 10.595 106.971 10.4019 106.838 10.2283C106.653 9.99536 106.414 9.81118 106.141 9.69187C105.869 9.57256 105.571 9.52174 105.274 9.54389C104.63 10.4555 103.766 11.1918 102.763 11.6854C101.787 12.1682 100.716 12.432 99.6269 12.4582C99.0967 12.5039 98.5688 12.3494 98.1474 12.0253C97.9479 11.8778 97.7842 11.6873 97.6687 11.4681C97.5531 11.2489 97.4886 11.0065 97.4799 10.759C97.4286 10.2937 97.5481 9.82572 97.816 9.44148C98.0839 9.1025 98.4742 8.88185 98.9034 8.82695C99.8442 8.71732 100.71 8.26065 101.33 7.54669C101.898 6.84219 102.196 5.95935 102.17 5.05599V4.59044H99.3701C99.1147 4.59557 98.8622 4.53462 98.6374 4.41353C98.4297 4.29844 98.2498 4.13956 98.11 3.94798C97.9697 3.76985 97.8594 3.57019 97.7833 3.35675C97.7067 3.14793 97.6672 2.92734 97.6666 2.70497C97.6695 2.48767 97.7009 2.27168 97.76 2.06251C97.8209 1.84024 97.9238 1.63164 98.0633 1.44798C98.2049 1.25461 98.3884 1.0955 98.6001 0.982429C98.8386 0.862363 99.1031 0.80318 99.3701 0.810178H109.801C110.068 0.80318 110.333 0.862363 110.572 0.982429C110.783 1.0955 110.967 1.25461 111.108 1.44798C111.248 1.63164 111.351 1.84024 111.412 2.06251C111.471 2.27168 111.502 2.48767 111.505 2.70497C111.504 2.92734 111.465 3.14793 111.388 3.35675C111.312 3.57019 111.202 3.76985 111.062 3.94798C110.922 4.13837 110.744 4.29706 110.539 4.41353C110.312 4.53402 110.058 4.59491 109.801 4.59044L106.628 4.60908ZM103.547 22.0672C102.829 22.0829 102.114 21.9677 101.438 21.7273C100.879 21.5248 100.368 21.2076 99.9395 20.7962C99.5437 20.4029 99.2422 19.9255 99.0575 19.3996C98.8565 18.8364 98.7569 18.2422 98.7634 17.6445C98.7584 17.0499 98.8579 16.459 99.0575 15.8986C99.2439 15.3736 99.5452 14.8965 99.9395 14.502C100.369 14.0917 100.879 13.7747 101.438 13.5709C102.113 13.3249 102.828 13.2065 103.547 13.2217H114.002C114.713 13.2084 115.421 13.3219 116.093 13.5569C116.65 13.7573 117.158 14.0748 117.582 14.488C117.982 14.8815 118.289 15.3585 118.482 15.8847C118.688 16.4517 118.791 17.0508 118.786 17.6537C118.791 18.2567 118.688 18.8558 118.482 19.4229C118.291 19.9501 117.984 20.4275 117.582 20.8195C117.159 21.2337 116.651 21.5514 116.093 21.7506C115.42 21.9779 114.713 22.0881 114.002 22.0765L103.547 22.0672ZM112.765 18.8316C112.955 18.857 113.148 18.8349 113.327 18.7675C113.507 18.7001 113.666 18.5893 113.792 18.4452C113.955 18.2182 114.045 17.9469 114.049 17.6677C114.046 17.394 113.956 17.1281 113.792 16.9089C113.661 16.7729 113.5 16.6697 113.321 16.6074C113.143 16.5451 112.952 16.5256 112.765 16.5504H104.761C104.573 16.5256 104.383 16.5451 104.205 16.6074C104.026 16.6697 103.865 16.7729 103.734 16.9089C103.57 17.1281 103.48 17.394 103.477 17.6677C103.481 17.9469 103.571 18.2182 103.734 18.4452C103.86 18.5893 104.019 18.7001 104.199 18.7675C104.378 18.8349 104.571 18.857 104.761 18.8316H112.765ZM113.909 8.19381H112.578C112.275 8.20359 111.972 8.148 111.692 8.03085C111.473 7.93516 111.278 7.79204 111.122 7.61187C110.971 7.43757 110.862 7.23029 110.805 7.00664C110.744 6.77873 110.713 6.54409 110.712 6.30831C110.712 6.07557 110.744 5.84395 110.805 5.61931C110.865 5.39955 110.968 5.19385 111.108 5.0141C111.261 4.82641 111.459 4.6793 111.682 4.5858C111.966 4.4669 112.271 4.41127 112.578 4.42284H113.909V2.39772C113.887 2.08126 113.939 1.76406 114.06 1.47091C114.182 1.17775 114.369 0.916577 114.609 0.70777C115.061 0.334835 115.632 0.133632 116.219 0.139786C116.513 0.140443 116.805 0.190818 117.082 0.288765C117.355 0.387477 117.608 0.534107 117.829 0.721722C118.052 0.914908 118.232 1.15286 118.356 1.42005C118.493 1.72762 118.56 2.06143 118.553 2.39772V10.2236C118.553 10.8027 118.322 11.358 117.911 11.7675C117.501 12.177 116.944 12.407 116.364 12.407H116.098C115.517 12.407 114.96 12.177 114.55 11.7675C114.139 11.358 113.909 10.8027 113.909 10.2236V8.19381Z" fill="white"/>
<path d="M124.685 10.9636C124.112 10.977 123.54 10.9176 122.982 10.7867C122.593 10.6992 122.24 10.4963 121.969 10.2048C121.717 9.89451 121.555 9.52078 121.502 9.12475C121.405 8.56366 121.362 7.99474 121.371 7.42549V4.23648C121.363 3.67035 121.406 3.10461 121.502 2.54654C121.555 2.14632 121.717 1.76807 121.969 1.45248C122.241 1.16257 122.594 0.959995 122.982 0.870543C123.54 0.741561 124.112 0.683684 124.685 0.698292H130.986C131.559 0.683684 132.131 0.741561 132.69 0.870543C133.078 0.960972 133.432 1.16332 133.707 1.45248C133.963 1.76825 134.132 2.14545 134.197 2.54654C134.289 3.10507 134.331 3.67057 134.323 4.23648V8.84541C134.323 9.4072 134.099 9.94599 133.701 10.3432C133.303 10.7405 132.763 10.9636 132.199 10.9636H124.685ZM125.409 21.9972C124.93 22.0022 124.454 21.9153 124.008 21.7411C123.618 21.5827 123.265 21.3448 122.972 21.0428C122.694 20.7501 122.476 20.4051 122.333 20.0279C122.183 19.6468 122.107 19.2408 122.109 18.8314V18.5521C122.093 18.1765 122.16 17.8019 122.307 17.4557C122.454 17.1094 122.677 16.8001 122.958 16.5502C123.661 16.0096 124.537 15.7446 125.423 15.8054H136.694V15.2002C136.704 15.0974 136.679 14.9942 136.624 14.9069C136.537 14.8424 136.428 14.8141 136.321 14.8277H123.649C123.464 14.8442 123.277 14.8146 123.106 14.7414C122.935 14.6683 122.785 14.554 122.669 14.4087C122.468 14.131 122.362 13.7966 122.366 13.4544C122.366 13.1199 122.472 12.7941 122.669 12.5233C122.783 12.3756 122.933 12.2591 123.104 12.1842C123.275 12.1094 123.463 12.0787 123.649 12.0949H138.584C139.625 12.0949 140.362 12.2719 140.787 12.6303C141.212 12.9888 141.431 13.6219 141.431 14.5391V16.783C141.431 17.1757 141.275 17.5522 140.997 17.8298C140.718 18.1075 140.341 18.2635 139.947 18.2635H127.546C127.406 18.253 127.266 18.2981 127.159 18.3892C127.118 18.4309 127.085 18.4804 127.064 18.5347C127.042 18.5891 127.031 18.6472 127.033 18.7057V18.7756C127.032 18.8334 127.042 18.8908 127.064 18.9444C127.085 18.998 127.118 19.0467 127.159 19.0875C127.211 19.1343 127.272 19.17 127.339 19.1924C127.406 19.2148 127.476 19.2235 127.546 19.2179H140.232C140.426 19.2032 140.621 19.2383 140.799 19.3197C140.976 19.4012 141.129 19.5264 141.244 19.6834C141.454 19.9661 141.566 20.3094 141.562 20.6611C141.563 20.9958 141.457 21.322 141.259 21.5921C141.137 21.7444 140.98 21.8638 140.801 21.9395C140.621 22.0151 140.426 22.0446 140.232 22.0251L125.409 21.9972ZM125.759 7.00648C125.741 7.17609 125.777 7.34691 125.861 7.49533C125.996 7.59371 126.163 7.63551 126.328 7.61172H129.264C129.438 7.61172 129.606 7.54254 129.729 7.41943C129.852 7.29633 129.922 7.12937 129.922 6.95528V4.62753C129.941 4.46336 129.899 4.29785 129.805 4.16198C129.672 4.06122 129.504 4.01613 129.338 4.03627H126.328C126.246 4.0242 126.162 4.02914 126.082 4.05076C126.001 4.07239 125.926 4.11024 125.861 4.16198C125.779 4.30273 125.743 4.46547 125.759 4.62753V7.00648ZM136.633 2.4441C136.61 2.12352 136.66 1.80184 136.78 1.5034C136.899 1.20496 137.085 0.937589 137.324 0.721564C137.774 0.335187 138.35 0.12796 138.944 0.139627C139.535 0.133273 140.108 0.343677 140.554 0.730884C140.792 0.945453 140.979 1.21096 141.1 1.5076C141.221 1.80425 141.274 2.12439 141.254 2.4441V3.88732H141.977C142.282 3.8756 142.586 3.93456 142.864 4.05957C143.085 4.16766 143.278 4.32734 143.424 4.52512C143.564 4.71879 143.667 4.93661 143.727 5.16758C143.788 5.39549 143.819 5.63014 143.821 5.86591C143.819 6.10474 143.788 6.34244 143.727 6.57352C143.671 6.80584 143.568 7.02435 143.424 7.21598C143.275 7.41467 143.079 7.57439 142.855 7.68153C142.579 7.80534 142.279 7.8658 141.977 7.85844H141.254V9.06886C141.248 9.68217 140.999 10.2683 140.562 10.6998C140.125 11.1313 139.535 11.3734 138.92 11.3733C138.309 11.3673 137.725 11.1226 137.293 10.6917C136.861 10.2608 136.616 9.67816 136.61 9.06886L136.633 2.4441Z" fill="white"/>
<path d="M155.722 5.72636V5.86605C155.723 6.22414 155.7 6.58186 155.652 6.93681C157.426 6.91819 158.736 7.3682 159.582 8.28688C159.992 8.742 160.295 9.28282 160.469 9.86976C160.57 10.1918 160.594 10.5331 160.538 10.866C160.482 11.1989 160.349 11.5141 160.149 11.786C159.948 12.058 159.686 12.2791 159.385 12.4314C159.083 12.5838 158.749 12.6631 158.411 12.6631H158.177C157.758 12.6569 157.352 12.5185 157.016 12.2676C156.681 12.0166 156.434 11.6661 156.31 11.2664C156.237 11.0508 156.125 10.8504 155.979 10.6752C155.785 10.4555 155.539 10.2867 155.264 10.1836C154.989 10.0806 154.693 10.0463 154.402 10.0839C153.731 11.0057 152.83 11.736 151.788 12.2022C150.769 12.6628 149.663 12.9009 148.544 12.9005C148.019 12.9139 147.504 12.7499 147.083 12.4349C146.892 12.2906 146.738 12.1022 146.634 11.8858C146.531 11.6694 146.482 11.4314 146.491 11.1919C146.461 10.7317 146.608 10.2774 146.901 9.92097C147.189 9.6112 147.585 9.42435 148.007 9.39955C148.95 9.34458 149.839 8.94127 150.5 8.26827C151.083 7.60775 151.392 6.75034 151.363 5.87068V5.73102H148.33C148.076 5.7365 147.824 5.68061 147.597 5.56809C147.394 5.46541 147.215 5.32286 147.069 5.14909C146.93 4.97705 146.82 4.78368 146.743 4.57647C146.665 4.3728 146.625 4.1566 146.626 3.93867C146.629 3.7214 146.66 3.50545 146.719 3.29621C146.777 3.07999 146.881 2.87849 147.023 2.70495C147.17 2.52589 147.353 2.3786 147.559 2.27199C147.798 2.15193 148.062 2.09274 148.33 2.09974H151.293V2.0299C151.269 1.74659 151.309 1.46148 151.41 1.19558C151.511 0.929682 151.67 0.689785 151.877 0.493592C152.364 0.145409 152.959 -0.0195076 153.557 0.0280421C154.157 -0.0185185 154.755 0.146204 155.246 0.493592C155.457 0.686786 155.621 0.925848 155.725 1.19226C155.828 1.45866 155.869 1.74527 155.844 2.0299V2.09974H158.901C159.168 2.09274 159.432 2.15193 159.671 2.27199C159.877 2.3786 160.06 2.52589 160.208 2.70495C160.349 2.87849 160.453 3.07999 160.511 3.29621C160.57 3.50545 160.601 3.7214 160.604 3.93867C160.605 4.1566 160.565 4.3728 160.488 4.57647C160.41 4.78368 160.3 4.97705 160.161 5.14909C160.017 5.32274 159.839 5.46532 159.638 5.56809C159.409 5.68013 159.156 5.73597 158.901 5.73102L155.722 5.72636ZM151.242 22.0206C150.669 22.034 150.096 21.9745 149.538 21.8437C149.15 21.7561 148.796 21.5532 148.525 21.2617C148.266 20.9528 148.095 20.5796 148.031 20.1817C147.938 19.6201 147.896 19.0515 147.905 18.4824V17.2254C147.897 16.6595 147.939 16.094 148.031 15.5355C148.094 15.1331 148.265 14.7552 148.525 14.4415C148.798 14.1515 149.15 13.949 149.538 13.8595C150.097 13.7305 150.669 13.6727 151.242 13.6873H163.727C164.3 13.6727 164.872 13.7305 165.43 13.8595C165.818 13.949 166.171 14.1515 166.443 14.4415C166.704 14.7545 166.873 15.1329 166.933 15.5355C167.029 16.0936 167.073 16.6593 167.064 17.2254V20.191C167.064 20.6762 166.87 21.1416 166.526 21.4847C166.183 21.8278 165.716 22.0206 165.23 22.0206H151.242ZM152.502 18.11C152.493 18.2946 152.53 18.4786 152.609 18.6454C152.675 18.7711 152.829 18.8316 153.076 18.8316H161.846C162.014 18.8316 162.176 18.7649 162.295 18.6462C162.414 18.5274 162.48 18.3664 162.48 18.1984V17.5513C162.492 17.373 162.451 17.1952 162.364 17.0392C162.309 16.9705 162.237 16.9172 162.155 16.8846C162.073 16.852 161.984 16.8411 161.897 16.853H153.076C152.843 16.853 152.689 16.9135 152.609 17.0392C152.531 17.1981 152.494 17.3743 152.502 17.5513V18.11ZM162.303 2.46752C162.28 2.14694 162.33 1.82525 162.449 1.52681C162.569 1.22837 162.755 0.961032 162.994 0.745006C163.443 0.35863 164.02 0.151402 164.613 0.16307C165.205 0.156715 165.778 0.367091 166.224 0.754298C166.462 0.968867 166.649 1.2344 166.77 1.53105C166.891 1.8277 166.944 2.1478 166.924 2.46752V4.4461H167.647C167.954 4.43459 168.258 4.49855 168.534 4.63233C168.752 4.74488 168.944 4.90379 169.094 5.09788C169.236 5.28838 169.34 5.50516 169.397 5.73568C169.458 5.9684 169.489 6.20764 169.491 6.44799C169.489 6.68682 169.458 6.92452 169.397 7.1556C169.34 7.39044 169.237 7.61183 169.094 7.80738C168.946 8.00781 168.751 8.16792 168.525 8.27293C168.249 8.39674 167.949 8.4572 167.647 8.44984H166.924V10.7264C166.924 11.2956 166.697 11.8415 166.294 12.2439C165.89 12.6464 165.343 12.8726 164.772 12.8726H164.455C163.884 12.8713 163.338 12.6448 162.935 12.2426C162.531 11.8404 162.304 11.2952 162.303 10.7264V2.46752Z" fill="white"/>
<path d="M189.84 8.70569C190.079 8.67626 190.322 8.70302 190.549 8.78386C190.775 8.86469 190.98 8.99736 191.147 9.17124C191.39 9.48394 191.522 9.86918 191.52 10.2653C191.527 10.6666 191.392 11.0575 191.137 11.3686C190.971 11.5397 190.768 11.6706 190.543 11.7513C190.318 11.832 190.077 11.8603 189.84 11.8342H171.358C171.12 11.8603 170.88 11.832 170.655 11.7513C170.43 11.6706 170.226 11.5397 170.06 11.3686C169.808 11.0563 169.673 10.6662 169.677 10.2653C169.676 9.86918 169.807 9.48394 170.051 9.17124C170.217 8.99736 170.422 8.86469 170.649 8.78386C170.876 8.70302 171.118 8.67626 171.358 8.70569H189.84ZM173.271 21.9971C172.823 22.0062 172.378 21.9222 171.964 21.7504C171.607 21.6068 171.288 21.3838 171.031 21.0986C170.789 20.8286 170.607 20.5116 170.494 20.1675C170.375 19.7991 170.315 19.4141 170.317 19.0269V18.9571C170.284 18.225 170.535 17.5083 171.017 16.9552C171.484 16.4431 172.23 16.1871 173.257 16.1871H185.742V15.7215C185.742 15.4748 185.579 15.3491 185.252 15.3491H171.88C171.694 15.3613 171.508 15.3306 171.335 15.2596C171.163 15.1886 171.009 15.079 170.886 14.9394C170.674 14.6985 170.554 14.3897 170.55 14.0688C170.553 13.7475 170.663 13.4362 170.863 13.1843C170.986 13.0382 171.143 12.9239 171.32 12.8509C171.497 12.778 171.689 12.7486 171.88 12.7653H187.936C188.93 12.7653 189.616 12.9468 189.989 13.31C190.188 13.5282 190.339 13.7843 190.436 14.0628C190.532 14.3413 190.571 14.6363 190.549 14.9301V16.8854C190.549 17.3291 190.373 17.7547 190.059 18.0688C189.745 18.383 189.318 18.5601 188.874 18.5614H175.777C175.715 18.5541 175.652 18.5594 175.592 18.577C175.532 18.5946 175.476 18.6242 175.427 18.6638C175.361 18.7469 175.328 18.8512 175.334 18.9571C175.329 19.0657 175.362 19.1728 175.427 19.2597C175.473 19.3044 175.528 19.3381 175.589 19.3583C175.65 19.3785 175.714 19.3845 175.777 19.3761H189.476C189.659 19.3587 189.843 19.3866 190.012 19.4572C190.181 19.5279 190.331 19.6391 190.447 19.7811C190.635 20.043 190.736 20.3573 190.736 20.6796C190.727 20.9874 190.629 21.2862 190.456 21.5409C190.349 21.6987 190.202 21.8251 190.03 21.907C189.857 21.9889 189.666 22.0232 189.476 22.0064L173.271 21.9971ZM190.773 4.12004C190.778 4.62343 190.691 5.12351 190.517 5.59582C190.352 6.04632 190.085 6.45267 189.737 6.78297C189.357 7.13551 188.907 7.40507 188.416 7.57441C187.816 7.78022 187.184 7.87949 186.549 7.86771H174.695C174.052 7.88223 173.412 7.78293 172.804 7.57441C172.314 7.40507 171.864 7.13551 171.484 6.78297C171.135 6.45267 170.868 6.04632 170.704 5.59582C170.529 5.12351 170.442 4.62343 170.447 4.12004C170.442 3.61962 170.529 3.12244 170.704 2.65355C170.873 2.20552 171.139 1.8002 171.484 1.4664C171.863 1.10884 172.313 0.834459 172.804 0.660982C173.413 0.456392 174.053 0.358731 174.695 0.372344H186.549C187.184 0.361414 187.815 0.45904 188.416 0.660982C188.908 0.834459 189.358 1.10884 189.737 1.4664C190.081 1.8002 190.347 2.20552 190.517 2.65355C190.692 3.12244 190.779 3.61962 190.773 4.12004ZM185.989 4.12004C185.994 4.02374 185.978 3.92755 185.945 3.8372C185.911 3.74684 185.86 3.66415 185.793 3.59397C185.58 3.43969 185.318 3.36997 185.056 3.39841H176.141C175.881 3.36886 175.619 3.43875 175.409 3.59397C175.341 3.66313 175.288 3.74556 175.253 3.83609C175.219 3.92662 175.203 4.02329 175.208 4.12004C175.203 4.21611 175.218 4.31211 175.253 4.40191C175.288 4.49172 175.341 4.57333 175.409 4.64145C175.618 4.8005 175.88 4.87228 176.141 4.84163H185.037C185.3 4.87155 185.564 4.7999 185.775 4.64145C185.841 4.57244 185.893 4.49058 185.927 4.40092C185.96 4.31126 185.975 4.21569 185.971 4.12004H185.989Z" fill="white"/>
<path d="M210.049 17.1134V19.7205C210.049 20.3502 209.798 20.9541 209.352 21.3993C208.905 21.8446 208.3 22.0948 207.669 22.0948C207.037 22.0948 206.432 21.8446 205.986 21.3993C205.539 20.9541 205.288 20.3502 205.288 19.7205V17.1134H198.708C198.428 17.1402 198.146 17.1016 197.885 17.0006C197.623 16.8995 197.389 16.7389 197.2 16.5315C196.899 16.1635 196.734 15.7031 196.733 15.2279C196.733 14.9944 196.767 14.7621 196.836 14.5389C196.908 14.3139 197.024 14.1052 197.177 13.9244C197.338 13.7225 197.547 13.5628 197.784 13.4588C198.073 13.3432 198.382 13.2877 198.694 13.2959H216.616C216.927 13.2877 217.237 13.3432 217.526 13.4588C217.763 13.5628 217.971 13.7225 218.133 13.9244C218.284 14.1054 218.398 14.3141 218.469 14.5389C218.539 14.7619 218.575 14.9942 218.576 15.2279C218.575 15.703 218.41 16.1634 218.109 16.5315C217.922 16.7388 217.688 16.8994 217.427 17.0005C217.166 17.1016 216.885 17.1402 216.606 17.1134H210.049ZM209.956 2.68136C209.956 2.9281 209.918 3.14692 209.886 3.389C209.853 3.63109 209.816 3.85454 209.769 4.07801C210.766 4.09405 211.754 4.2701 212.695 4.59942C213.649 4.93191 214.528 5.44575 215.286 6.11246C216.092 6.83572 216.747 7.71062 217.213 8.68696C217.288 8.83593 217.353 8.98491 217.419 9.15251C217.559 9.51256 217.609 9.90141 217.563 10.2851C217.518 10.6687 217.379 11.0355 217.159 11.3533C216.939 11.6712 216.645 11.9304 216.301 12.1083C215.957 12.2863 215.575 12.3775 215.188 12.3741C214.716 12.371 214.255 12.2294 213.863 11.9669C213.472 11.7045 213.166 11.3328 212.985 10.8983C212.915 10.74 212.84 10.5911 212.761 10.4328C212.465 9.87931 212.07 9.38525 211.594 8.9756C211.127 8.57935 210.588 8.27592 210.007 8.08172C209.39 7.87779 208.743 7.78327 208.093 7.8024C207.561 8.50254 206.954 9.14258 206.283 9.71114C205.616 10.2764 204.89 10.7681 204.117 11.1776C203.355 11.5745 202.553 11.8868 201.723 12.1087C200.931 12.3223 200.115 12.4318 199.296 12.4346C198.764 12.4523 198.242 12.288 197.816 11.9691C197.61 11.8102 197.442 11.6082 197.322 11.3774C197.203 11.1466 197.136 10.8925 197.125 10.6329C197.067 10.1167 197.203 9.59718 197.508 9.17578C197.837 8.7514 198.32 8.47235 198.852 8.39832C199.615 8.25859 200.356 8.01908 201.055 7.68601C201.754 7.36261 202.399 6.9357 202.969 6.41973C203.545 5.90126 204.031 5.29082 204.406 4.6134C204.801 3.90314 205.062 3.12684 205.176 2.32288C205.204 2.00202 205.297 1.69031 205.452 1.40743C205.606 1.12456 205.817 0.876706 206.073 0.679502C206.571 0.324215 207.18 0.159023 207.79 0.213953C208.402 0.241128 208.981 0.499031 209.41 0.935549C209.616 1.17353 209.771 1.45137 209.865 1.75174C209.959 2.0521 209.99 2.36855 209.956 2.68136Z" fill="white"/>
<path d="M224.331 5.74937C224.305 4.91789 224.464 4.09101 224.797 3.32851C225.104 2.67906 225.565 2.11467 226.142 1.6851C226.76 1.24099 227.462 0.924446 228.204 0.754006C229.074 0.554861 229.964 0.45799 230.855 0.465368C232.312 0.41939 233.756 0.739581 235.056 1.39647C235.609 1.70004 236.086 2.12528 236.45 2.6399C236.814 3.15453 237.055 3.74504 237.156 4.36667H240.377V2.41136C240.355 2.09491 240.407 1.77774 240.528 1.48458C240.65 1.19143 240.837 0.930221 241.077 0.721414C241.529 0.348479 242.1 0.147304 242.687 0.153457C242.981 0.154115 243.273 0.20449 243.55 0.302437C243.823 0.401149 244.076 0.547779 244.297 0.735394C244.52 0.92858 244.7 1.16654 244.825 1.43372C244.961 1.74129 245.028 2.07507 245.021 2.41136V9.6367C245.021 10.2541 244.775 10.8461 244.337 11.2827C243.899 11.7192 243.306 11.9644 242.687 11.9644C242.068 11.9644 241.474 11.7192 241.037 11.2827C240.599 10.8461 240.353 10.2541 240.353 9.6367V7.99795H237.086C236.969 8.60789 236.716 9.18385 236.346 9.68338C235.976 10.1829 235.499 10.5933 234.949 10.8844C233.662 11.5117 232.24 11.8154 230.809 11.7689C229.906 11.7776 229.005 11.6791 228.125 11.4756C227.379 11.312 226.674 10.9949 226.058 10.5445C225.49 10.1154 225.037 9.55229 224.741 8.90578C224.411 8.14246 224.251 7.31617 224.275 6.48492L224.331 5.74937ZM227.761 21.997C227.29 22.0084 226.819 21.9568 226.361 21.8434C226.034 21.7671 225.737 21.5934 225.511 21.3453C225.298 21.0859 225.153 20.7768 225.091 20.4467C225.005 19.9989 224.966 19.5433 224.975 19.0873V14.4318C224.945 14.1661 224.976 13.8972 225.065 13.6449C225.154 13.3927 225.298 13.1636 225.488 12.9747C225.895 12.6844 226.389 12.5415 226.888 12.5697C227.375 12.5413 227.856 12.6902 228.242 12.9887C228.422 13.1718 228.561 13.391 228.649 13.6318C228.738 13.8726 228.774 14.1295 228.755 14.3853H231.276C231.248 14.1327 231.275 13.877 231.355 13.6359C231.436 13.3949 231.568 13.174 231.742 12.9887C232.145 12.6908 232.642 12.5471 233.142 12.5836C233.633 12.5508 234.118 12.7 234.505 13.0026C234.682 13.1959 234.815 13.4248 234.896 13.6737C234.976 13.9227 235.002 14.186 234.972 14.4458V20.2699C234.972 20.7247 234.791 21.1609 234.469 21.4829C234.147 21.8049 233.71 21.9865 233.254 21.9877L227.761 21.997ZM231.285 19.1106V17.2484H228.765V18.5752C228.739 18.7366 228.772 18.9015 228.858 19.0408C228.997 19.126 229.163 19.159 229.325 19.1339L231.285 19.1106ZM228.881 6.70374C228.862 6.95046 228.902 7.19819 228.998 7.42647C229.094 7.65476 229.242 7.85704 229.432 8.01659C229.845 8.32123 230.351 8.47417 230.865 8.44955C231.378 8.47417 231.884 8.32123 232.298 8.01659C232.487 7.85704 232.636 7.65476 232.732 7.42647C232.828 7.19819 232.868 6.95046 232.848 6.70374V5.5166C232.868 5.26919 232.828 5.02076 232.732 4.79173C232.636 4.5627 232.487 4.3596 232.298 4.19908C231.883 3.89815 231.377 3.7471 230.865 3.77079C230.352 3.7471 229.847 3.89815 229.432 4.19908C229.242 4.3596 229.093 4.5627 228.998 4.79173C228.902 5.02076 228.862 5.26919 228.881 5.5166V6.70374ZM236.395 18.9244C236.766 18.7949 237.113 18.6062 237.422 18.3657C237.723 18.1261 237.972 17.8284 238.155 17.4905C238.372 17.0967 238.529 16.6731 238.622 16.2335C238.741 15.6559 238.803 15.0681 238.808 14.4784C238.79 14.1988 238.838 13.9187 238.949 13.6613C239.06 13.4039 239.231 13.1766 239.448 12.9979C239.886 12.6831 240.415 12.5196 240.955 12.5324C241.487 12.5067 242.008 12.685 242.412 13.0305C242.605 13.2275 242.755 13.4636 242.85 13.723C242.945 13.9823 242.983 14.259 242.962 14.5343C242.962 14.8136 242.962 15.079 242.925 15.335C242.888 15.5911 242.878 15.8471 242.846 16.0939C243.399 16.1841 243.928 16.3854 244.402 16.6854C244.875 16.9855 245.282 17.3782 245.599 17.8397C245.978 18.428 246.228 19.0896 246.332 19.781C246.383 20.0524 246.372 20.3315 246.301 20.5983C246.23 20.8651 246.101 21.1128 245.922 21.3236C245.743 21.5343 245.52 21.7029 245.268 21.8169C245.016 21.931 244.742 21.9877 244.465 21.9831H244.255C243.803 21.9774 243.367 21.812 243.025 21.5163C242.683 21.2206 242.458 20.8136 242.388 20.3676C242.359 20.1646 242.29 19.9694 242.184 19.7935C242.078 19.6177 241.938 19.4646 241.772 19.3434C241.299 20.1831 240.629 20.8969 239.821 21.4244C239.097 21.8974 238.269 22.1896 237.408 22.2764C236.932 22.3409 236.448 22.2459 236.031 22.0063C235.861 21.9049 235.714 21.77 235.597 21.61C235.481 21.4499 235.399 21.268 235.355 21.0752C235.26 20.6526 235.288 20.212 235.434 19.8043C235.517 19.5978 235.645 19.412 235.808 19.26C235.97 19.108 236.165 18.9934 236.377 18.9244H236.395Z" fill="white"/>
<path d="M263.722 12.5233H260.647V15.3166C260.665 16.2412 260.507 17.1607 260.18 18.0261C259.896 18.771 259.449 19.4437 258.873 19.9954C258.291 20.5342 257.598 20.9394 256.843 21.1825C255.991 21.4536 255.1 21.5872 254.206 21.5783C253.311 21.5872 252.421 21.4536 251.569 21.1825C250.81 20.9374 250.113 20.5326 249.524 19.9954C248.944 19.4454 248.494 18.7725 248.208 18.0261C247.882 17.1607 247.723 16.2412 247.742 15.3166V6.79708C247.724 5.87105 247.882 4.95003 248.208 4.08292C248.495 3.33859 248.945 2.66741 249.524 2.11828C250.112 1.57955 250.809 1.17449 251.569 0.93114C252.42 0.657496 253.311 0.523857 254.206 0.535434C255.1 0.523857 255.991 0.657496 256.843 0.93114C257.599 1.17245 258.292 1.57788 258.873 2.11828C259.448 2.66781 259.894 3.33704 260.18 4.07826C260.506 4.94537 260.665 5.86639 260.647 6.79242V8.5615H263.704V2.41624C263.682 2.09979 263.734 1.78259 263.855 1.48944C263.977 1.19628 264.164 0.935103 264.404 0.726297C264.856 0.353361 265.427 0.152187 266.014 0.15834C266.308 0.158998 266.6 0.209373 266.877 0.307319C267.15 0.406032 267.403 0.552661 267.624 0.740277C267.847 0.933463 268.027 1.17142 268.151 1.4386C268.288 1.74617 268.355 2.07995 268.347 2.41624V19.6974C268.347 20.3148 268.102 20.9069 267.664 21.3434C267.226 21.7799 266.633 22.0252 266.014 22.0252C265.395 22.0252 264.801 21.7799 264.364 21.3434C263.926 20.9069 263.68 20.3148 263.68 19.6974L263.722 12.5233ZM252.334 15.4097C252.282 16.0395 252.468 16.6659 252.857 17.1648C253.03 17.3533 253.242 17.5022 253.478 17.601C253.714 17.6999 253.969 17.7465 254.224 17.7375C254.48 17.7464 254.734 17.6998 254.969 17.6009C255.204 17.502 255.415 17.3532 255.587 17.1648C255.978 16.6666 256.166 16.0401 256.115 15.4097V6.65739C256.165 6.02573 255.977 5.39815 255.587 4.89763C255.414 4.71084 255.203 4.56339 254.968 4.46538C254.733 4.36737 254.479 4.32107 254.224 4.32964C253.969 4.32101 253.715 4.36727 253.479 4.46527C253.243 4.56326 253.031 4.71072 252.857 4.89763C252.469 5.39881 252.283 6.02633 252.334 6.65739V15.4097Z" fill="white"/>
<path d="M270.233 12.1973C270.296 11.5639 270.478 10.948 270.77 10.3816C271.028 9.88292 271.372 9.43373 271.787 9.05483C272.177 8.69927 272.631 8.42257 273.127 8.24012C273.611 8.05645 274.125 7.96182 274.643 7.96081C274.97 7.96081 275.26 7.96078 275.507 7.99337C275.754 8.0179 275.999 8.0615 276.24 8.12374C276.5 8.19233 276.752 8.28912 276.991 8.41237L277.925 8.91518C278.205 9.08743 278.443 9.2364 278.639 9.38073C278.835 9.52505 279.007 9.63212 279.171 9.72989C279.334 9.82765 279.502 9.92074 279.661 9.99989C279.838 10.08 280.022 10.1424 280.211 10.1861C280.408 10.2359 280.612 10.2439 280.812 10.2094C281.011 10.1749 281.201 10.0987 281.369 9.98593C281.698 9.76798 281.934 9.43626 282.032 9.05483C282.075 8.8635 282.155 8.68263 282.269 8.52277C282.383 8.3629 282.528 8.22724 282.694 8.12374C283.003 7.94844 283.358 7.87204 283.712 7.90491C284.091 7.92521 284.448 8.09221 284.706 8.37046C284.839 8.53918 284.934 8.73488 284.984 8.9439C285.034 9.15293 285.038 9.37029 284.995 9.58091C284.932 10.2143 284.75 10.8302 284.459 11.3965C284.2 11.8945 283.855 12.3436 283.441 12.7234C283.051 13.078 282.596 13.3546 282.102 13.5381C281.617 13.7218 281.103 13.8164 280.585 13.8174C280.258 13.8174 279.969 13.8174 279.722 13.7802C279.474 13.7572 279.229 13.7152 278.989 13.6545C278.727 13.5845 278.473 13.4909 278.228 13.3751C277.914 13.2241 277.61 13.053 277.318 12.863C277.071 12.722 276.832 12.5665 276.604 12.3975C276.414 12.2578 276.237 12.1368 276.072 12.0344C275.904 11.9366 275.74 11.8481 275.577 11.769C275.403 11.6861 275.22 11.6236 275.031 11.5828C274.835 11.5334 274.631 11.5254 274.432 11.559C274.232 11.5927 274.042 11.6674 273.873 11.7783C273.546 11.9978 273.311 12.3289 273.211 12.7094C273.169 12.9018 273.088 13.0836 272.973 13.2438C272.859 13.4039 272.712 13.5389 272.543 13.6405C272.237 13.8176 271.883 13.8957 271.53 13.864C271.151 13.8446 270.794 13.6775 270.536 13.3984C270.402 13.2318 270.305 13.0382 270.253 12.8309C270.201 12.6236 270.194 12.4075 270.233 12.1973Z" fill="white"/>
<path d="M92.5046 32.5418V32.8211C92.5056 33.1792 92.4823 33.5369 92.4347 33.8918C94.2673 33.9198 95.6161 34.4164 96.4811 35.3816C96.9593 35.9356 97.2956 36.5969 97.4613 37.309C97.5391 37.6184 97.5454 37.9414 97.4796 38.2536C97.4139 38.5657 97.2779 38.8589 97.0819 39.111C96.8858 39.363 96.635 39.5673 96.3482 39.7084C96.0613 39.8495 95.7461 39.9237 95.4263 39.9254H95.1883C94.7538 39.9158 94.3331 39.7711 93.985 39.5116C93.6369 39.252 93.3789 38.8905 93.2468 38.4775C93.1665 38.245 93.0447 38.0289 92.8874 37.8397C92.6841 37.599 92.4212 37.4156 92.1247 37.3078C91.8283 37.2 91.5087 37.1715 91.1978 37.2252H91.1045C90.4238 38.1245 89.5285 38.8399 88.5001 39.3062C87.5016 39.7715 86.4187 40.0296 85.3171 40.065C84.7864 40.0951 84.2631 39.9294 83.8469 39.5995C83.6512 39.4479 83.4927 39.2538 83.3835 39.032C83.2743 38.8101 83.2174 38.5664 83.2169 38.3192C83.1755 37.8536 83.3084 37.3892 83.5902 37.0157C83.8648 36.6815 84.2573 36.4649 84.687 36.4105C85.6325 36.3165 86.5155 35.8967 87.184 35.2233C87.7807 34.5694 88.0987 33.7095 88.0708 32.8257V32.5464H85.0838C84.8268 32.5515 84.5729 32.4906 84.3463 32.3695C84.1432 32.2598 83.9652 32.1092 83.8235 31.9272C83.6815 31.7503 83.571 31.5503 83.4969 31.336C83.4202 31.1271 83.3807 30.9066 83.3802 30.6842C83.3811 30.4667 83.4125 30.2505 83.4735 30.0418C83.5344 29.8195 83.6374 29.6109 83.7769 29.4272C83.9186 29.2339 84.102 29.0747 84.3136 28.9617C84.5518 28.8407 84.8167 28.7814 85.0838 28.7894H95.8884C96.1554 28.7824 96.42 28.8416 96.6584 28.9617C96.8692 29.076 97.0524 29.2349 97.1952 29.4272C97.3329 29.612 97.4357 29.8202 97.4986 30.0418C97.5573 30.251 97.5887 30.4669 97.5919 30.6842C97.589 30.9064 97.5496 31.1265 97.4752 31.336C97.3991 31.5494 97.2888 31.7491 97.1485 31.9272C97.0052 32.1094 96.8257 32.26 96.6212 32.3695C96.3963 32.4906 96.1439 32.5515 95.8884 32.5464L92.5046 32.5418ZM87.9307 49.93C87.3834 49.9413 86.837 49.8787 86.3065 49.7438C85.9229 49.6435 85.5733 49.4425 85.2938 49.1619C85.0275 48.8659 84.8453 48.5042 84.7663 48.1144C84.6569 47.594 84.6069 47.0631 84.6171 46.5315V42.9468C84.5872 42.6274 84.6338 42.3056 84.7531 42.0077C84.8724 41.7099 85.0609 41.4445 85.3031 41.2335C85.7857 40.8777 86.3741 40.694 86.9739 40.7121C87.506 40.6956 88.0305 40.8418 88.4769 41.1311C88.6934 41.2885 88.8733 41.4906 89.0046 41.7235C89.1358 41.9565 89.2153 42.2149 89.2376 42.4812H99.7155C99.7384 42.2114 99.8216 41.9501 99.9589 41.7165C100.096 41.4829 100.284 41.2829 100.509 41.1311C100.971 40.8454 101.506 40.6998 102.049 40.7121C102.641 40.6914 103.221 40.8757 103.692 41.2335C103.929 41.448 104.112 41.7144 104.228 42.0117C104.344 42.309 104.389 42.6291 104.359 42.9468V48.4775C104.358 48.8632 104.204 49.2326 103.93 49.5049C103.656 49.7771 103.285 49.93 102.899 49.93H87.9307ZM99.6921 46.443V45.8471C99.6909 45.7442 99.6491 45.646 99.5757 45.5736C99.5023 45.5013 99.4033 45.4607 99.3002 45.4607H89.6716C89.5689 45.4607 89.4703 45.5014 89.3977 45.5739C89.325 45.6464 89.2843 45.7447 89.2843 45.8471V46.2522C89.2843 46.5129 89.3216 46.6805 89.401 46.741C89.5598 46.8201 89.7378 46.8524 89.9143 46.8341H99.3002C99.4038 46.8329 99.5028 46.7913 99.576 46.7182C99.6493 46.6452 99.6909 46.5464 99.6921 46.443ZM99.5288 30.3769C99.5052 30.0546 99.5569 29.7312 99.6801 29.4323C99.8032 29.1334 99.9943 28.8671 100.238 28.6544C100.701 28.2713 101.285 28.065 101.886 28.0725C102.183 28.0739 102.478 28.1243 102.759 28.2214C103.038 28.3194 103.296 28.4695 103.519 28.6637C103.74 28.8668 103.918 29.1122 104.042 29.3853C104.179 29.6978 104.248 30.0359 104.243 30.3769V37.7652C104.243 38.0425 104.188 38.3172 104.081 38.5733C103.975 38.8295 103.819 39.0622 103.622 39.2581C103.425 39.454 103.191 39.6092 102.934 39.7149C102.677 39.8207 102.402 39.8748 102.124 39.8742H101.657C101.096 39.8742 100.559 39.652 100.162 39.2565C99.7655 38.861 99.5429 38.3245 99.5429 37.7652L99.5288 30.3769Z" fill="white"/>
<path d="M110.263 39.6183C109.729 39.6298 109.195 39.5703 108.677 39.4413C108.3 39.3497 107.956 39.1565 107.682 38.8827C107.425 38.5937 107.252 38.2393 107.183 37.8585C107.082 37.3497 107.035 36.8316 107.043 36.3129V30.7728C107.014 30.4599 107.058 30.1445 107.171 29.8513C107.284 29.5581 107.464 29.2951 107.697 29.0829C108.155 28.7263 108.725 28.5418 109.307 28.5615C109.871 28.5305 110.426 28.7172 110.856 29.0829C111.065 29.3087 111.225 29.5758 111.323 29.867C111.422 30.1581 111.459 30.4667 111.43 30.7728V30.7961H115.654V30.7728C115.623 30.4636 115.66 30.1514 115.762 29.8579C115.865 29.5645 116.03 29.2968 116.247 29.0736C116.692 28.7159 117.253 28.5337 117.824 28.5615C118.402 28.5356 118.97 28.721 119.421 29.0829C119.643 29.3014 119.813 29.5663 119.921 29.8585C120.028 30.1506 120.069 30.4629 120.041 30.7728V37.7049C120.041 38.2123 119.839 38.699 119.479 39.0578C119.12 39.4167 118.632 39.6183 118.123 39.6183H110.263ZM111.267 49.9302C110.72 49.9415 110.173 49.8788 109.643 49.744C109.259 49.6436 108.909 49.4427 108.63 49.162C108.364 48.866 108.182 48.5044 108.103 48.1145C107.993 47.5942 107.943 47.0632 107.953 46.5317V42.9469C107.923 42.6276 107.97 42.3057 108.089 42.0079C108.209 41.71 108.397 41.4447 108.639 41.2337C109.122 40.8778 109.71 40.6942 110.31 40.7123C110.842 40.6958 111.367 40.842 111.813 41.1313C112.03 41.2887 112.209 41.4908 112.341 41.7237C112.472 41.9567 112.551 42.2151 112.574 42.4814H122.445C122.468 42.2116 122.551 41.9503 122.688 41.7167C122.826 41.4831 123.014 41.2831 123.238 41.1313C123.7 40.8455 124.235 40.6999 124.779 40.7123C125.37 40.6916 125.951 40.8758 126.421 41.2337C126.658 41.4481 126.842 41.7145 126.958 42.0119C127.073 42.3092 127.118 42.6293 127.089 42.9469V47.905C127.089 48.171 127.036 48.4343 126.934 48.68C126.832 48.9257 126.683 49.149 126.494 49.337C126.306 49.5251 126.082 49.6742 125.836 49.776C125.589 49.8778 125.325 49.9302 125.059 49.9302H111.267ZM115.654 36.243V33.9386H111.43V35.6611C111.43 35.9218 111.468 36.0894 111.547 36.1499C111.706 36.229 111.884 36.2613 112.06 36.243H115.654ZM122.422 46.5549V45.7402C122.422 45.6661 122.392 45.5951 122.34 45.5427C122.287 45.4903 122.216 45.4609 122.142 45.4609H112.896C112.859 45.4609 112.823 45.4682 112.789 45.4822C112.756 45.4963 112.725 45.517 112.699 45.543C112.674 45.569 112.654 45.5998 112.64 45.6337C112.627 45.6675 112.62 45.7038 112.62 45.7402V46.2523C112.62 46.513 112.658 46.6806 112.737 46.7412C112.896 46.8203 113.074 46.8525 113.25 46.8343H122.118C122.157 46.8375 122.196 46.8327 122.233 46.8201C122.269 46.8075 122.303 46.7874 122.332 46.7612C122.36 46.7349 122.383 46.703 122.398 46.6675C122.414 46.632 122.422 46.5937 122.422 46.5549ZM122.328 30.3771C122.305 30.057 122.355 29.7357 122.473 29.4374C122.592 29.1391 122.777 28.8715 123.014 28.6546C123.466 28.2694 124.044 28.0624 124.639 28.0726C125.23 28.0663 125.803 28.2767 126.249 28.6639C126.487 28.8785 126.674 29.144 126.795 29.4406C126.916 29.7373 126.969 30.0574 126.949 30.3771V32.0531H127.672C127.979 32.0416 128.283 32.1055 128.559 32.2393C128.778 32.3518 128.969 32.5108 129.119 32.7048C129.26 32.8962 129.363 33.1127 129.423 33.3426C129.483 33.5754 129.514 33.8146 129.516 34.055C129.514 34.2938 129.483 34.5315 129.423 34.7626C129.363 34.9967 129.26 35.2178 129.119 35.4143C128.971 35.616 128.773 35.7762 128.545 35.8799C128.271 36.0038 127.973 36.0643 127.672 36.0568H126.949V37.7095C126.943 38.3188 126.697 38.9014 126.265 39.3323C125.833 39.7632 125.249 40.0079 124.639 40.014C124.024 40.014 123.434 39.772 122.997 39.3404C122.56 38.9089 122.311 38.3228 122.305 37.7095L122.328 30.3771Z" fill="white"/>
<path d="M135.163 45.3444C136.67 45.1721 137.819 44.674 138.603 43.8407C139.446 42.8758 139.951 41.663 140.04 40.3863H135.466C135.157 40.3956 134.849 40.3351 134.566 40.2094C134.333 40.0977 134.127 39.9391 133.959 39.7438C133.798 39.5621 133.679 39.3476 133.609 39.1153C133.541 38.8888 133.506 38.6536 133.506 38.417C133.506 38.1805 133.541 37.9452 133.609 37.7187C133.677 37.4877 133.793 37.2736 133.95 37.0902C134.114 36.8909 134.321 36.7316 134.556 36.6247C134.843 36.5011 135.154 36.4423 135.466 36.4524H140.134V33.4263C140.137 33.3498 140.125 33.2734 140.098 33.2015C140.072 33.1296 140.032 33.0636 139.98 33.0073C139.923 32.9517 139.856 32.9084 139.782 32.8803C139.708 32.8523 139.629 32.84 139.55 32.8444H135.63C135.32 32.8537 135.012 32.7932 134.729 32.6675C134.497 32.5558 134.29 32.3973 134.122 32.2019C133.961 32.0202 133.842 31.8057 133.772 31.5734C133.704 31.3469 133.669 31.1116 133.669 30.8751C133.669 30.6386 133.704 30.4033 133.772 30.1768C133.84 29.9458 133.956 29.7318 134.113 29.5483C134.277 29.349 134.484 29.1897 134.72 29.0828C135.007 28.9592 135.317 28.9004 135.63 28.9105H140.81C141.367 28.9014 141.923 28.9561 142.467 29.0734C142.872 29.1575 143.249 29.3416 143.564 29.6088C143.852 29.8705 144.058 30.2102 144.157 30.5865C144.285 31.0725 144.345 31.5739 144.334 32.0762V39.0129C144.371 40.5629 144.134 42.1074 143.634 43.5753C143.23 44.7288 142.586 45.7839 141.744 46.6712C140.975 47.4596 140.043 48.0713 139.013 48.4636C137.982 48.8519 136.895 49.0719 135.793 49.1153C135.214 49.1557 134.637 49.021 134.136 48.7289C133.896 48.5864 133.699 48.3809 133.567 48.1347C133.436 47.8884 133.374 47.6109 133.39 47.3323C133.351 46.8345 133.492 46.3393 133.786 45.9356C133.964 45.7502 134.178 45.6022 134.414 45.5007C134.651 45.3991 134.905 45.346 135.163 45.3444ZM145.594 30.0511C145.575 29.7736 145.621 29.4956 145.728 29.2388C145.835 28.9819 146 28.7532 146.21 28.5706C146.616 28.2413 147.125 28.065 147.648 28.0725C148.166 28.0698 148.669 28.2458 149.071 28.5706C149.285 28.7509 149.454 28.9788 149.563 29.236C149.673 29.4931 149.72 29.7723 149.701 30.0511V36.6153H150.868V30.0511C150.85 29.7723 150.897 29.4931 151.007 29.236C151.116 28.9788 151.284 28.7509 151.498 28.5706C151.908 28.2424 152.42 28.0663 152.945 28.0725C153.207 28.0726 153.467 28.1151 153.715 28.1982C153.959 28.2835 154.184 28.4147 154.378 28.5846C154.573 28.7565 154.732 28.9654 154.845 29.1991C154.968 29.4661 155.028 29.7574 155.022 30.0511V47.8816C155.022 48.4249 154.806 48.9459 154.421 49.3301C154.036 49.7142 153.513 49.93 152.969 49.93H152.922C152.377 49.93 151.855 49.7142 151.47 49.3301C151.085 48.9459 150.868 48.4249 150.868 47.8816V40.4328H149.701V47.8816C149.701 48.1506 149.648 48.417 149.545 48.6655C149.442 48.9141 149.291 49.1399 149.1 49.3301C148.909 49.5203 148.683 49.6712 148.434 49.7741C148.185 49.8771 147.918 49.93 147.648 49.93C147.103 49.93 146.581 49.7142 146.196 49.3301C145.811 48.9459 145.594 48.4249 145.594 47.8816V30.0511Z" fill="white"/>
<path d="M157.893 37.0808C159.005 36.7566 159.965 36.0467 160.6 35.0789C161.222 34.1168 161.533 32.7589 161.533 31.0054V30.5864C161.525 30.2531 161.592 29.9222 161.729 29.618C161.856 29.3561 162.039 29.1255 162.266 28.943C162.495 28.7643 162.757 28.6301 163.036 28.5473C163.329 28.4629 163.632 28.4206 163.937 28.4216C164.511 28.4249 165.066 28.6255 165.51 28.9895C165.736 29.187 165.914 29.4337 166.029 29.7105C166.145 29.9874 166.196 30.287 166.177 30.5864V31.0054C166.177 31.4104 166.177 31.7922 166.13 32.1553C166.084 32.5184 166.051 32.8815 165.99 33.24C166.755 33.3212 167.501 33.5338 168.193 33.8685C168.858 34.1986 169.437 34.6764 169.887 35.2651C170.385 35.9286 170.742 36.6856 170.938 37.4905C170.98 37.6581 171.022 37.835 171.054 38.0165C171.112 38.3374 171.098 38.6669 171.013 38.9818C170.929 39.2966 170.776 39.5892 170.566 39.8388C170.356 40.0884 170.094 40.2888 169.797 40.4261C169.501 40.5633 169.178 40.6339 168.851 40.6329C168.329 40.6265 167.824 40.4405 167.423 40.1064C167.022 39.7723 166.748 39.3104 166.648 38.7987C166.403 37.6565 165.78 36.9799 164.782 36.7689C164.17 37.8957 163.302 38.8637 162.247 39.5948C161.32 40.241 160.254 40.6605 159.134 40.8192C158.847 40.8657 158.554 40.8578 158.271 40.7959C158.021 40.7423 157.784 40.6428 157.571 40.5026C157.373 40.3796 157.199 40.2219 157.057 40.037C156.924 39.8646 156.829 39.6664 156.777 39.4551C156.616 38.977 156.645 38.4558 156.857 37.9979C156.953 37.7795 157.095 37.5845 157.274 37.4262C157.453 37.2679 157.664 37.15 157.893 37.0808ZM161.906 49.93C161.359 49.9413 160.813 49.8786 160.282 49.7437C159.899 49.6434 159.549 49.4425 159.269 49.1618C159.003 48.8658 158.821 48.5041 158.742 48.1143C158.633 47.594 158.583 47.063 158.593 46.5314V44.1571C158.565 43.831 158.615 43.5029 158.738 43.1996C158.861 42.8962 159.055 42.6262 159.302 42.4113C159.786 42.0365 160.384 41.8392 160.996 41.8527C161.598 41.8352 162.186 42.0334 162.653 42.4113C162.891 42.6325 163.075 42.9044 163.192 43.2068C163.31 43.5091 163.357 43.8341 163.33 44.1571V45.74C163.33 46.0054 163.367 46.1637 163.447 46.2288C163.605 46.3079 163.784 46.3402 163.96 46.3219H176.17C176.447 46.2939 176.727 46.3283 176.99 46.4226C177.252 46.5168 177.49 46.6686 177.686 46.8666C177.984 47.2148 178.149 47.6566 178.153 48.1143C178.156 48.5788 177.99 49.0286 177.686 49.3806C177.494 49.5792 177.258 49.7318 176.998 49.8269C176.738 49.9221 176.459 49.9573 176.184 49.93H161.906ZM173.341 34.8927H171.381C171.126 34.9059 170.871 34.8588 170.637 34.7552C170.404 34.6517 170.198 34.4946 170.037 34.2968C169.73 33.9193 169.565 33.4467 169.57 32.9607C169.564 32.4769 169.72 32.005 170.013 31.6199C170.177 31.4164 170.388 31.2561 170.628 31.153C170.868 31.0499 171.13 31.0072 171.39 31.0287H173.35V30.3303C173.329 30.0139 173.381 29.6967 173.502 29.4035C173.623 29.1104 173.811 28.8492 174.051 28.6404C174.503 28.2675 175.074 28.0662 175.661 28.0724C175.955 28.0731 176.247 28.1234 176.524 28.2214C176.797 28.3201 177.05 28.4667 177.271 28.6543C177.493 28.8477 177.671 29.0857 177.794 29.3527C177.932 29.6599 178 29.9937 177.994 30.3303V42.2949C177.994 42.5884 177.936 42.879 177.824 43.1501C177.711 43.4212 177.546 43.6676 177.338 43.8751C177.13 44.0826 176.883 44.2472 176.611 44.3595C176.34 44.4718 176.048 44.5296 175.754 44.5296H175.586C175.292 44.5296 175.001 44.4717 174.729 44.3594C174.458 44.247 174.211 44.0824 174.004 43.8748C173.796 43.6672 173.631 43.4208 173.519 43.1497C173.407 42.8787 173.35 42.5882 173.35 42.2949L173.341 34.8927Z" fill="white"/>
<path d="M181.275 36.8714C182.104 36.5413 182.767 35.8966 183.119 35.079C183.593 33.8968 183.808 32.6267 183.749 31.3546V30.6563C183.723 30.3539 183.765 30.0496 183.871 29.7653C183.978 29.4811 184.146 29.224 184.365 29.0129C184.787 28.6608 185.323 28.4753 185.872 28.4915C186.434 28.4813 186.982 28.6655 187.422 29.0129C187.654 29.2157 187.836 29.47 187.952 29.7555C188.068 30.0409 188.115 30.3494 188.089 30.6563V31.3546C188.089 31.6805 188.089 31.9924 188.066 32.2857C188.043 32.579 188.024 32.8816 187.996 33.161C188.639 33.266 189.251 33.5073 189.792 33.8688C190.333 34.2302 190.79 34.7032 191.132 35.2559C191.588 36.0497 191.856 36.9365 191.917 37.849C191.942 38.1347 191.908 38.4227 191.816 38.6945C191.725 38.9663 191.577 39.216 191.383 39.4276C191.189 39.6392 190.952 39.8081 190.689 39.9235C190.426 40.0389 190.141 40.0982 189.854 40.0976C189.362 40.1012 188.885 39.9281 188.511 39.6102C188.136 39.2922 187.889 38.8506 187.814 38.3658C187.814 38.282 187.814 38.2075 187.772 38.1284C187.686 37.625 187.437 37.1637 187.063 36.8155C186.629 37.8033 185.959 38.6698 185.112 39.3388C184.322 39.9478 183.385 40.3381 182.395 40.4701C181.868 40.5568 181.327 40.458 180.865 40.1908C180.659 40.071 180.485 39.9058 180.354 39.7081C180.223 39.5104 180.139 39.2853 180.108 39.0502C179.922 37.9732 180.311 37.2469 181.275 36.8714ZM186.199 49.9999C185.48 50.016 184.763 49.9008 184.085 49.66C183.527 49.4574 183.018 49.1402 182.591 48.7289C182.195 48.3355 181.892 47.8582 181.705 47.3323C181.505 46.7689 181.407 46.1747 181.415 45.5772C181.409 44.9828 181.507 44.392 181.705 43.8314C181.893 43.306 182.196 42.8289 182.591 42.4347C183.019 42.0244 183.528 41.7073 184.085 41.5036C184.762 41.2573 185.479 41.1389 186.199 41.1545H197.027C197.737 41.1406 198.444 41.2542 199.113 41.4896C199.672 41.6912 200.181 42.0086 200.607 42.4207C201.004 42.8167 201.311 43.2929 201.508 43.8174C201.713 44.3844 201.816 44.9835 201.811 45.5865C201.816 46.1895 201.713 46.7885 201.508 47.3556C201.313 47.8808 201.005 48.3574 200.607 48.7522C200.179 49.1571 199.67 49.4666 199.113 49.66C198.442 49.8877 197.736 49.998 197.027 49.9859L186.199 49.9999ZM195.79 46.741C195.979 46.7661 196.171 46.7453 196.349 46.6804C196.528 46.6156 196.689 46.5086 196.817 46.3686C196.979 46.1446 197.069 45.8766 197.074 45.6004C197.071 45.3311 196.981 45.0699 196.817 44.8556C196.685 44.7222 196.523 44.6213 196.345 44.5607C196.167 44.5001 195.977 44.4815 195.79 44.5064H187.436C187.249 44.4808 187.059 44.499 186.881 44.5596C186.703 44.6203 186.541 44.7216 186.409 44.8556C186.244 45.0689 186.153 45.3307 186.152 45.6004C186.155 45.877 186.245 46.1456 186.409 46.3686C186.537 46.5092 186.697 46.6166 186.876 46.6815C187.055 46.7464 187.247 46.7669 187.436 46.741H195.79ZM197.587 36.3593H196.537V38.3239C196.537 38.8585 196.324 39.3713 195.945 39.7493C195.566 40.1273 195.052 40.3397 194.516 40.3397C194.251 40.3397 193.988 40.2876 193.744 40.1862C193.499 40.0848 193.276 39.9363 193.089 39.749C192.902 39.5618 192.753 39.3395 192.652 39.095C192.551 38.8504 192.499 38.5884 192.5 38.3239V30.0511C192.48 29.7757 192.524 29.4995 192.626 29.2431C192.729 28.9867 192.888 28.7568 193.093 28.5706C193.485 28.2428 193.981 28.0661 194.493 28.0725C195.004 28.0705 195.499 28.2468 195.893 28.5706C196.104 28.753 196.27 28.9815 196.377 29.2383C196.485 29.4951 196.532 29.7733 196.514 30.0511V32.8677H197.564V30.0511C197.545 29.7736 197.591 29.4956 197.698 29.2388C197.805 28.9819 197.97 28.7532 198.18 28.5706C198.586 28.2413 199.094 28.065 199.617 28.0725C200.135 28.0698 200.638 28.2458 201.041 28.5706C201.255 28.7509 201.423 28.9788 201.533 29.236C201.642 29.4931 201.69 29.7723 201.671 30.0511V38.3239C201.671 38.8585 201.458 39.3713 201.079 39.7493C200.7 40.1273 200.186 40.3397 199.65 40.3397H199.58C199.315 40.3397 199.052 40.2876 198.807 40.1862C198.562 40.0848 198.34 39.9363 198.153 39.749C197.965 39.5618 197.817 39.3395 197.716 39.095C197.615 38.8504 197.563 38.5884 197.564 38.3239L197.587 36.3593Z" fill="white"/>
</g>
<defs>
<clipPath id="clip0_3888_86343">
<rect width="285" height="50" fill="white"/>
</clipPath>
</defs>
</svg>
