<svg width="340" height="46" viewBox="0 0 340 46" fill="none" xmlns="http://www.w3.org/2000/svg">
<g clip-path="url(#clip0_3887_85081)">
<path d="M18.0637 16.175C18.355 16.1655 18.645 16.2195 18.9137 16.3333C19.1334 16.4325 19.3292 16.5785 19.4875 16.7612C19.635 16.9308 19.7438 17.1309 19.8063 17.3474C19.868 17.5601 19.8995 17.7806 19.8998 18.0021C19.9009 18.2276 19.865 18.4517 19.7935 18.6654C19.7253 18.8787 19.6138 19.0753 19.4663 19.2431C19.3121 19.4266 19.119 19.5729 18.9011 19.671C18.6378 19.7773 18.3557 19.8283 18.0722 19.8207H1.83618C1.55276 19.827 1.27098 19.7761 1.0074 19.671C0.791343 19.5717 0.599729 19.4256 0.446335 19.2431C0.299261 19.0743 0.186602 18.878 0.114802 18.6654C0.0454572 18.4512 0.00961026 18.2274 0.00854492 18.0021C0.0103834 17.7804 0.0432848 17.5599 0.106293 17.3474C0.168786 17.1309 0.277588 16.9308 0.425063 16.7612C0.583361 16.5785 0.779159 16.4325 0.99889 16.3333C1.26752 16.2192 1.55755 16.1652 1.84894 16.175H18.0637ZM5.41912 3.42336H14.4509V2.41779C14.4449 2.12208 14.5075 1.82904 14.6338 1.56198C14.7443 1.33028 14.9073 1.128 15.1097 0.971462C15.317 0.816994 15.5525 0.705034 15.8026 0.641965C16.0686 0.569323 16.343 0.533336 16.6186 0.534988C16.8885 0.533987 17.1573 0.569976 17.4176 0.641965C17.6664 0.705137 17.9004 0.817113 18.1062 0.971462C18.3115 1.12844 18.4786 1.33038 18.5949 1.56198C18.7261 1.82761 18.7918 2.12118 18.7863 2.41779V11.0957C18.7863 11.5497 18.6071 11.985 18.2883 12.306C17.9695 12.627 17.5371 12.8073 17.0862 12.8073H4.1483C3.62364 12.8191 3.09962 12.7644 2.58848 12.6447C2.22602 12.5622 1.89612 12.3731 1.64068 12.1013C1.39878 11.8105 1.24136 11.4581 1.18588 11.0829C1.09798 10.5643 1.05813 10.0385 1.06686 9.51247V2.40922C1.06078 2.11352 1.12344 1.82047 1.24969 1.55341C1.36075 1.31835 1.52881 1.11526 1.73843 0.962895C1.94928 0.809206 2.18725 0.697373 2.43968 0.633398C2.70565 0.560756 2.98024 0.524769 3.25581 0.526422C3.52212 0.525789 3.78701 0.564728 4.04204 0.641965C4.29154 0.719356 4.52597 0.839487 4.73489 0.997109C4.94304 1.15687 5.11293 1.36159 5.23214 1.59619C5.36333 1.86182 5.42892 2.1554 5.42338 2.452L5.41912 3.42336ZM14.4509 9.34986V6.761H5.41912V8.708C5.40629 8.87963 5.45621 9.05005 5.55942 9.18726C5.62955 9.24968 5.71203 9.29645 5.8014 9.32448C5.89077 9.3525 5.985 9.36115 6.07794 9.34986H14.4509Z" fill="white"/>
<path d="M25.7567 14.9554C25.7223 15.2058 25.788 15.4598 25.9394 15.6615C26.1622 15.7854 26.4173 15.8377 26.6705 15.8112H29.8582C30.1321 15.8023 30.4048 15.8534 30.6573 15.961C30.8615 16.0503 31.0431 16.1849 31.1885 16.3547C31.3211 16.5199 31.422 16.7086 31.486 16.911C31.5486 17.1162 31.5801 17.3296 31.5795 17.5443C31.575 17.9868 31.4256 18.4154 31.1545 18.7638C30.9967 18.9577 30.7941 19.1098 30.5644 19.2068C30.3347 19.3038 30.085 19.3427 29.837 19.3201H24.9492C24.4116 19.3307 23.8744 19.2833 23.3468 19.1789C22.9796 19.1179 22.6366 18.9549 22.3565 18.7082C22.1007 18.4432 21.9278 18.1084 21.8592 17.7454C21.7552 17.2287 21.7081 16.702 21.7189 16.1749V11.2968C21.7076 10.7726 21.7547 10.2487 21.8592 9.73497C21.9286 9.37474 22.1015 9.04296 22.3565 8.78075C22.6342 8.52877 22.9779 8.36242 23.3468 8.30149C23.8755 8.2064 24.4122 8.16338 24.9492 8.1731H26.0755V4.98521C26.0898 4.83132 26.044 4.67784 25.9479 4.55731C25.8232 4.47181 25.6735 4.4311 25.5229 4.44176H23.5678C23.3111 4.4652 23.0525 4.42785 22.8126 4.33275C22.5728 4.23765 22.3584 4.08742 22.1865 3.89403C21.9123 3.55238 21.7623 3.12662 21.7615 2.68736C21.7627 2.46974 21.7956 2.25348 21.8592 2.04549C21.9219 1.8342 22.0309 1.6397 22.178 1.47635C22.3351 1.2978 22.5257 1.15237 22.739 1.04844C23.0071 0.932744 23.2975 0.87866 23.589 0.890115H26.7555C27.3363 0.878809 27.9167 0.921805 28.4896 1.01851C28.8549 1.06751 29.2001 1.2154 29.4884 1.44641C29.7297 1.67335 29.8896 1.97425 29.9432 2.30223C30.0223 2.75849 30.0579 3.22129 30.0495 3.68436V10.5309C30.0501 10.6768 30.022 10.8214 29.9669 10.9563C29.9118 11.0913 29.8308 11.2139 29.7286 11.3173C29.6263 11.4207 29.5047 11.5027 29.3709 11.5586C29.237 11.6146 29.0936 11.6434 28.9486 11.6434H26.6917C26.4385 11.6147 26.1827 11.6671 25.9607 11.7932C25.8417 11.8916 25.778 12.127 25.778 12.4992L25.7567 14.9554ZM32.5571 11.0615H31.9833C31.7106 11.0711 31.4393 11.0199 31.1885 10.9117C30.991 10.815 30.8223 10.6674 30.6997 10.4838C30.575 10.3037 30.4883 10.0998 30.4447 9.88473C30.3927 9.64582 30.3671 9.40188 30.3683 9.15731C30.3676 8.91982 30.3932 8.68299 30.4447 8.45125C30.4874 8.23588 30.5742 8.03183 30.6997 7.85217C30.8245 7.67056 30.9926 7.52342 31.1885 7.42426C31.4373 7.30889 31.7096 7.25463 31.9833 7.26594H32.5571V1.9171C32.5404 1.66486 32.5793 1.412 32.6712 1.17673C32.763 0.941449 32.9055 0.729573 33.0884 0.556335C33.4438 0.252318 33.8972 0.0895132 34.3635 0.0984975C34.8285 0.0966942 35.2796 0.258637 35.6386 0.556335C35.83 0.724173 35.9804 0.934385 36.0777 1.17046C36.175 1.40653 36.2168 1.66208 36.1996 1.9171V18.3487C36.1996 18.8367 36.007 19.3047 35.6643 19.6498C35.3215 19.9949 34.8567 20.1887 34.372 20.1887C33.8876 20.1876 33.4234 19.9934 33.0809 19.6485C32.7384 19.3037 32.5455 18.8364 32.5444 18.3487L32.5571 11.0615ZM37.1899 1.94703C37.1726 1.69159 37.2147 1.43565 37.3128 1.19945C37.411 0.963245 37.5624 0.753309 37.7552 0.586318C38.1233 0.284251 38.5852 0.122142 39.06 0.128428C39.5318 0.125225 39.99 0.287094 40.3564 0.586318C40.5512 0.75202 40.7046 0.961469 40.8042 1.19783C40.9039 1.43419 40.947 1.69082 40.9301 1.94703V18.3787C40.9301 18.8667 40.7376 19.3347 40.3949 19.6797C40.0521 20.0248 39.5872 20.2187 39.1025 20.2187H39.0175C38.5331 20.2176 38.0689 20.0234 37.7264 19.6785C37.3839 19.3337 37.191 18.8663 37.1899 18.3787V1.94703Z" fill="white"/>
<path d="M49.0481 11.9385C48.2142 11.9459 47.3828 11.8452 46.5744 11.6389C45.8828 11.4624 45.2327 11.1497 44.6618 10.7189C44.1305 10.3041 43.7038 9.76906 43.4165 9.1571C43.1031 8.45117 42.9506 7.68357 42.9702 6.91059V5.47706C42.9511 4.69998 43.1036 3.92837 43.4165 3.21775C43.7003 2.60121 44.1275 2.06253 44.6618 1.64732C45.2307 1.2132 45.8815 0.900173 46.5744 0.727306C47.3824 0.518948 48.2141 0.418264 49.0481 0.427792C49.8835 0.417988 50.7165 0.518673 51.5259 0.727306C52.2188 0.900173 52.8696 1.2132 53.4385 1.64732C53.9717 2.06267 54.3975 2.6014 54.6797 3.21775C54.9853 3.93004 55.1305 4.70159 55.1047 5.47706V6.91059C55.131 7.68195 54.9858 8.44948 54.6797 9.1571C54.3944 9.76912 53.969 10.3043 53.4385 10.7189C52.8676 11.1497 52.2175 11.4624 51.5259 11.6389C50.7161 11.8455 49.8834 11.9462 49.0481 11.9385ZM47.1779 20.2185C46.6809 20.2289 46.1847 20.1713 45.7031 20.0473C45.3529 19.9541 45.0334 19.7696 44.7765 19.5124C44.5371 19.2388 44.3729 18.9069 44.3005 18.5496C44.1992 18.0716 44.1523 17.5835 44.1603 17.0947V14.9124C44.1355 14.6123 44.1815 14.3105 44.2945 14.0317C44.4075 13.7529 44.5844 13.5048 44.8106 13.3078C45.2493 12.9632 45.7928 12.7818 46.3491 12.7943C46.897 12.7775 47.4326 12.9598 47.858 13.3078C48.0752 13.5104 48.2436 13.7603 48.3504 14.0384C48.4572 14.3165 48.4995 14.6154 48.4743 14.9124V16.3673C48.458 16.5181 48.4957 16.6699 48.5805 16.7952C48.7251 16.8679 48.8873 16.8976 49.0481 16.8808H60.6088C60.8615 16.855 61.1168 16.8866 61.3559 16.9732C61.5949 17.0599 61.8117 17.1994 61.9901 17.3815C62.263 17.7005 62.4137 18.1072 62.4151 18.5282C62.4181 18.9552 62.2671 19.3688 61.9901 19.6922C61.813 19.8738 61.5978 20.0133 61.3604 20.1007C61.1229 20.188 60.869 20.221 60.6173 20.1971L47.1779 20.2185ZM49.0481 8.79334C49.5406 8.8158 50.0265 8.67282 50.4294 8.38685C50.6154 8.22808 50.7606 8.02665 50.8531 7.79952C50.9456 7.57239 50.9825 7.32619 50.9607 7.08171V5.30594C50.9821 5.0596 50.945 4.81167 50.8527 4.58254C50.7603 4.35342 50.6153 4.14961 50.4294 3.98795C50.031 3.69074 49.5435 3.53974 49.0481 3.56005C48.5528 3.54112 48.0658 3.69198 47.6667 3.98795C47.4817 4.15027 47.3371 4.35416 47.2448 4.58312C47.1525 4.81207 47.1151 5.0597 47.1355 5.30594V7.08171C47.1144 7.32613 47.1516 7.5721 47.244 7.7991C47.3364 8.02611 47.4814 8.22762 47.6667 8.38685C48.0702 8.67164 48.5558 8.8145 49.0481 8.79334ZM57.5273 2.2464C57.5067 1.94983 57.5547 1.65246 57.6675 1.37773C57.7804 1.103 57.955 0.858369 58.1776 0.663109C58.5961 0.309299 59.1273 0.119377 59.6737 0.128225C59.9458 0.12917 60.2157 0.175468 60.4727 0.265185C60.7257 0.355688 60.9594 0.493604 61.1613 0.671676C61.364 0.858055 61.5273 1.08365 61.6416 1.33495C61.7651 1.62243 61.826 1.93323 61.8201 2.2464V13.0938C61.8201 13.6613 61.5962 14.2055 61.1977 14.6067C60.7991 15.0079 60.2586 15.2334 59.695 15.2334C59.4142 15.2362 59.1354 15.1829 58.8752 15.0767C58.6149 14.9704 58.3781 14.8133 58.1785 14.6143C57.9789 14.4154 57.8205 14.1786 57.7124 13.9176C57.6042 13.6566 57.5486 13.3766 57.5486 13.0938L57.5273 2.2464Z" fill="white"/>
<path d="M81.8176 16.175C82.1089 16.1655 82.3989 16.2195 82.6676 16.3333C82.8873 16.4325 83.0831 16.5785 83.2414 16.7612C83.3889 16.9308 83.4977 17.1309 83.5602 17.3474C83.6219 17.5601 83.6534 17.7806 83.6537 18.0021C83.6548 18.2276 83.6189 18.4517 83.5474 18.6654C83.4792 18.8787 83.3677 19.0753 83.2202 19.2431C83.066 19.4266 82.8729 19.5729 82.655 19.671C82.3917 19.7773 82.1096 19.8283 81.8261 19.8207H65.5901C65.3067 19.827 65.0249 19.7761 64.7613 19.671C64.5452 19.5717 64.3536 19.4256 64.2002 19.2431C64.0532 19.0743 63.9405 18.878 63.8687 18.6654C63.7994 18.4512 63.7635 18.2274 63.7625 18.0021C63.7643 17.7804 63.7972 17.5599 63.8602 17.3474C63.9227 17.1309 64.0315 16.9308 64.179 16.7612C64.3373 16.5785 64.5331 16.4325 64.7528 16.3333C65.0214 16.2192 65.3115 16.1652 65.6028 16.175H81.8176ZM75.846 2.69589C75.8302 3.36207 75.7302 4.02355 75.5484 4.66431C76.4572 4.69362 77.3548 4.87436 78.2048 5.19919C79.0882 5.52621 79.8976 6.02817 80.585 6.67545C81.3305 7.37979 81.9337 8.22255 82.3616 9.15733C82.4551 9.35417 82.5402 9.55525 82.6209 9.76492C82.7422 10.0957 82.7823 10.4511 82.7377 10.8008C82.693 11.1506 82.5651 11.4843 82.3647 11.7735C82.1643 12.0626 81.8974 12.2988 81.5868 12.4616C81.2762 12.6245 80.931 12.7094 80.5808 12.7089C80.1422 12.708 79.7142 12.5734 79.3531 12.3229C78.992 12.0723 78.7147 11.7176 78.5576 11.3054C78.4868 11.1151 78.4044 10.9293 78.3111 10.7491C78.0341 10.198 77.6563 9.7044 77.1976 9.29424C76.752 8.90271 76.2353 8.60192 75.676 8.40849C75.096 8.20453 74.4836 8.11022 73.8696 8.13034C73.3897 8.7997 72.8413 9.4164 72.2333 9.97031C71.6425 10.512 70.9988 10.9923 70.3122 11.4038C69.6542 11.7934 68.9558 12.109 68.2295 12.3452C67.5417 12.5668 66.8262 12.6893 66.1044 12.7089C65.6151 12.7317 65.1336 12.5802 64.7443 12.281C64.5549 12.1344 64.3984 11.9493 64.2849 11.7377C64.1714 11.5261 64.1034 11.2927 64.0855 11.0529C64.0207 10.5793 64.1344 10.0984 64.4042 9.70501C64.6956 9.30599 65.1303 9.03729 65.6156 8.95617C66.3269 8.79122 67.011 8.52465 67.6473 8.16456C68.3069 7.79233 68.9049 7.31878 69.4196 6.76101C69.9572 6.18223 70.4018 5.52245 70.7372 4.8055C71.1036 4.0297 71.3405 3.19841 71.4385 2.34503C71.4579 2.04836 71.5414 1.75954 71.683 1.49867C71.8247 1.2378 72.0212 1.01113 72.2587 0.834507C72.7192 0.508803 73.2792 0.35726 73.8398 0.4066C74.4004 0.433391 74.9309 0.669937 75.3274 1.06988C75.5235 1.28837 75.6711 1.54635 75.7605 1.82671C75.8499 2.10706 75.8791 2.40333 75.846 2.69589Z" fill="white"/>
<path d="M92.7833 16.3245V13.2863H89.3407C88.1081 13.2863 87.2367 13.0182 86.7267 12.4819C86.2166 11.9456 85.9616 11.1012 85.9616 9.9487V4.10776C85.9616 2.95241 86.2166 2.10656 86.7267 1.57025C87.2367 1.03394 88.1081 0.767214 89.3407 0.770067H102.219C102.479 0.760998 102.738 0.81228 102.975 0.919876C103.17 1.01121 103.344 1.14232 103.485 1.30495C103.619 1.45972 103.716 1.64245 103.77 1.83983C103.828 2.03419 103.857 2.23609 103.855 2.43891C103.856 2.84911 103.721 3.24794 103.473 3.57288C103.32 3.75387 103.127 3.89508 102.908 3.98449C102.69 4.0739 102.453 4.10884 102.219 4.08635H90.9132C90.4882 4.08635 90.2757 4.27037 90.2757 4.64265V5.43426H102.091C102.329 5.40894 102.57 5.44246 102.792 5.53194C103.014 5.62143 103.212 5.7642 103.367 5.94778C103.604 6.2618 103.733 6.64455 103.736 7.03891C103.736 7.43848 103.601 7.82617 103.354 8.13866C103.198 8.3207 103 8.46178 102.778 8.54975C102.556 8.63772 102.316 8.66991 102.079 8.64356H90.2629V9.41382C90.2576 9.49265 90.2693 9.57172 90.2972 9.64558C90.325 9.71945 90.3684 9.78635 90.4244 9.84172C90.5641 9.93742 90.7319 9.98264 90.9005 9.97007H102.546C102.806 9.961 103.065 10.0123 103.303 10.1199C103.497 10.2112 103.671 10.3423 103.813 10.5049C103.944 10.6562 104.041 10.8344 104.098 11.027C104.155 11.2184 104.184 11.4175 104.183 11.6175C104.183 12.0277 104.049 12.4265 103.8 12.7515C103.646 12.9356 103.448 13.0788 103.226 13.1683C103.004 13.2579 102.763 13.2911 102.525 13.265H97.0846V16.3031H103.111C103.395 16.2934 103.678 16.3445 103.94 16.4529C104.152 16.5397 104.341 16.6744 104.493 16.8466C104.634 17.0079 104.74 17.1975 104.803 17.4028C104.866 17.608 104.897 17.8215 104.897 18.0362C104.896 18.4728 104.745 18.8958 104.472 19.2343C104.3 19.4249 104.086 19.5725 103.848 19.6654C103.61 19.7583 103.353 19.7938 103.099 19.7691H86.7777C86.524 19.7938 86.268 19.7582 86.0303 19.6654C85.7926 19.5725 85.5799 19.4248 85.4092 19.2343C85.1355 18.8956 84.9855 18.4727 84.9841 18.0362C84.9849 17.8213 85.0179 17.6078 85.0819 17.4028C85.1455 17.1985 85.2496 17.0092 85.3879 16.8466C85.5413 16.6763 85.7299 16.5419 85.9404 16.4529C86.2033 16.3453 86.4856 16.2943 86.7692 16.3031L92.7833 16.3245Z" fill="white"/>
<path d="M109.912 10.7618C109.39 10.7738 108.869 10.7191 108.36 10.5991C108.006 10.5187 107.685 10.3322 107.438 10.0643C107.209 9.77849 107.062 9.4352 107.013 9.07149C106.925 8.55577 106.885 8.03284 106.894 7.50962V3.95802C106.886 3.43766 106.926 2.91765 107.013 2.40472C107.061 2.03686 107.208 1.68922 107.438 1.39915C107.686 1.13268 108.007 0.946484 108.36 0.864265C108.869 0.745939 109.39 0.692744 109.912 0.705942H115.82C116.341 0.692515 116.863 0.745712 117.371 0.864265C117.726 0.946426 118.048 1.13256 118.298 1.39915C118.533 1.68787 118.688 2.03524 118.744 2.40472C118.828 2.91807 118.866 3.43786 118.859 3.95802V9.13569C118.859 9.5662 118.689 9.97914 118.387 10.284C118.085 10.5888 117.675 10.7606 117.248 10.7618H109.912ZM107.553 16.0892C107.55 15.5351 107.644 14.9849 107.829 14.4631C108.006 13.9727 108.281 13.5242 108.637 13.1452C109.024 12.7508 109.491 12.4445 110.005 12.2466C110.624 12.0161 111.28 11.9043 111.939 11.9171H121.388C122.039 11.9048 122.688 12.0136 123.3 12.238C123.819 12.4294 124.29 12.7316 124.681 13.1238C125.051 13.5041 125.334 13.9612 125.51 14.4631C125.698 14.9915 125.792 15.5493 125.787 16.1106C125.792 16.6718 125.698 17.2296 125.51 17.758C125.335 18.2591 125.052 18.715 124.681 19.0931C124.29 19.4868 123.819 19.7905 123.3 19.9831C122.688 20.2075 122.039 20.3163 121.388 20.3041H111.952C111.292 20.3176 110.636 20.2043 110.018 19.9703C109.502 19.7756 109.035 19.4688 108.649 19.0717C108.287 18.6923 108.007 18.2403 107.829 17.7452C107.64 17.2141 107.547 16.6533 107.553 16.0892ZM110.911 7.06035C110.898 7.20976 110.932 7.35938 111.008 7.48826C111.131 7.57868 111.283 7.6171 111.433 7.59523H114.256C114.409 7.5941 114.556 7.53184 114.665 7.42202C114.773 7.31221 114.834 7.16374 114.834 7.009V4.36452C114.851 4.21362 114.813 4.06149 114.727 3.93661C114.606 3.84316 114.454 3.80163 114.302 3.82106H111.433C111.358 3.8089 111.282 3.81295 111.209 3.83287C111.135 3.85279 111.067 3.88813 111.008 3.93661C110.93 4.06457 110.896 4.21494 110.911 4.36452V7.06035ZM111.867 16.0892C111.872 16.3754 111.96 16.6538 112.122 16.8894C112.234 17.0329 112.381 17.1449 112.548 17.2146C112.716 17.2843 112.898 17.3094 113.078 17.2873H120.261C120.441 17.3094 120.624 17.2843 120.791 17.2146C120.959 17.1449 121.106 17.0329 121.218 16.8894C121.379 16.6538 121.468 16.3754 121.472 16.0892C121.468 15.8016 121.379 15.5218 121.218 15.2847C121.105 15.1426 120.957 15.0319 120.79 14.963C120.623 14.8941 120.441 14.8693 120.261 14.891H113.078C112.899 14.8693 112.717 14.8941 112.549 14.963C112.382 15.0319 112.235 15.1426 112.122 15.2847C111.96 15.5218 111.872 15.8016 111.867 16.0892ZM121.281 2.2464C121.261 1.94983 121.309 1.65246 121.421 1.37773C121.534 1.103 121.709 0.858369 121.932 0.663109C122.35 0.309299 122.881 0.119377 123.428 0.128225C123.7 0.12917 123.97 0.175468 124.227 0.265185C124.48 0.355688 124.713 0.493604 124.915 0.671676C125.118 0.858055 125.281 1.08365 125.395 1.33495C125.519 1.62243 125.58 1.93323 125.574 2.2464V9.02871C125.574 9.59615 125.35 10.1403 124.952 10.5416C124.553 10.9428 124.013 11.1682 123.449 11.1682C123.168 11.1711 122.889 11.1178 122.629 11.0115C122.369 10.9053 122.132 10.7482 121.932 10.5492C121.733 10.3503 121.574 10.1134 121.466 9.85245C121.358 9.59147 121.303 9.31149 121.303 9.02871L121.281 2.2464Z" fill="white"/>
<path d="M130.249 16.0253V9.43552C130.221 9.15814 130.26 8.87807 130.362 8.61888C130.464 8.3597 130.627 8.12902 130.836 7.94641C131.254 7.64929 131.757 7.49892 132.268 7.5185C132.779 7.50509 133.28 7.66317 133.692 7.96783C133.903 8.14689 134.067 8.37481 134.171 8.63199C134.274 8.88918 134.314 9.16788 134.287 9.44409V16.0339H139.451C139.706 16.0069 139.963 16.0401 140.203 16.1307C140.443 16.2213 140.658 16.3669 140.833 16.5559C141.099 16.8938 141.242 17.314 141.236 17.7455C141.239 18.1853 141.088 18.6121 140.811 18.9522C140.638 19.1405 140.424 19.286 140.186 19.3773C139.948 19.4686 139.692 19.5033 139.438 19.4785H129.323C129.068 19.501 128.812 19.4654 128.572 19.3743C128.333 19.2831 128.118 19.1388 127.941 18.9522C127.663 18.6126 127.513 18.1855 127.516 17.7455C127.516 17.3112 127.666 16.8904 127.941 16.5559C128.119 16.3688 128.336 16.2246 128.577 16.1342C128.818 16.0438 129.075 16.0095 129.331 16.0339L130.249 16.0253ZM135.775 11.9602C136.009 11.1966 136.166 10.4109 136.242 9.61526C136.353 8.49629 136.403 7.37207 136.391 6.24763V4.9425C136.401 4.87273 136.395 4.80163 136.373 4.73476C136.35 4.66789 136.313 4.6071 136.264 4.55727C136.214 4.50743 136.154 4.46989 136.087 4.44763C136.021 4.42537 135.95 4.419 135.881 4.42903H129.718C129.44 4.43492 129.165 4.37942 128.911 4.26642C128.696 4.16475 128.505 4.01899 128.349 3.83852C128.202 3.66971 128.09 3.47344 128.018 3.26085C127.949 3.04665 127.913 2.82287 127.912 2.59758C127.912 2.37224 127.948 2.14842 128.018 1.93435C128.09 1.72176 128.202 1.52544 128.349 1.35663C128.505 1.17616 128.696 1.0304 128.911 0.928728C129.165 0.817203 129.441 0.763163 129.718 0.770404H137.305C137.81 0.75887 138.315 0.81646 138.805 0.941578C139.171 1.03321 139.507 1.21731 139.783 1.47646C140.037 1.72894 140.216 2.04742 140.301 2.39647C140.409 2.82998 140.459 3.2761 140.45 3.72297V6.24763C140.463 7.59122 140.397 8.93442 140.25 10.27C140.141 11.2243 139.93 12.1639 139.621 13.0727C139.537 13.3413 139.392 13.5861 139.196 13.7874C138.996 13.9731 138.762 14.1183 138.508 14.2153C138.237 14.3249 137.949 14.3829 137.658 14.3864C137.345 14.394 137.033 14.355 136.731 14.2709C136.508 14.211 136.303 14.0953 136.136 13.9345C135.968 13.7737 135.844 13.5729 135.775 13.3509C135.63 12.8998 135.623 12.4155 135.753 11.9602H135.775ZM142.023 2.20393C142.003 1.91307 142.05 1.62149 142.161 1.35204C142.271 1.08259 142.442 0.842554 142.66 0.65063C143.072 0.307849 143.592 0.122888 144.126 0.128544C144.394 0.128816 144.66 0.175154 144.913 0.265503C145.16 0.354343 145.387 0.489338 145.584 0.663428C145.781 0.843964 145.94 1.06217 146.052 1.30529C146.176 1.58799 146.237 1.89484 146.23 2.20393V7.61691H146.932C147.211 7.60633 147.488 7.66513 147.739 7.78809C147.94 7.88933 148.114 8.03576 148.249 8.21599C148.378 8.39664 148.471 8.59982 148.526 8.81507C148.582 9.02857 148.611 9.24873 148.611 9.46979C148.611 9.68945 148.583 9.90823 148.526 10.1202C148.473 10.3361 148.379 10.5395 148.249 10.7192C148.112 10.9004 147.934 11.0469 147.731 11.1471C147.481 11.2665 147.208 11.3252 146.932 11.3183H146.23V18.0793C146.23 18.6467 146.006 19.1909 145.608 19.5921C145.209 19.9934 144.669 20.2188 144.105 20.2188C143.545 20.2132 143.01 19.9853 142.616 19.5846C142.222 19.184 142.001 18.643 142.001 18.0793L142.023 2.20393Z" fill="white"/>
<path d="M153.158 7.29557C153.486 7.09637 153.774 6.83821 154.009 6.53393C154.223 6.23745 154.381 5.90384 154.476 5.54973C154.589 5.13048 154.656 4.69999 154.676 4.26601C154.706 3.77391 154.718 3.18768 154.718 2.50303V2.43883C154.695 2.16524 154.728 1.88972 154.816 1.62972C154.904 1.36972 155.044 1.13089 155.228 0.928311C155.576 0.608469 156.033 0.436682 156.503 0.449057C156.994 0.434942 157.471 0.605895 157.842 0.928311C158.039 1.12367 158.191 1.36037 158.286 1.62147C158.382 1.88256 158.419 2.16164 158.395 2.43883V2.50303C158.395 2.88815 158.395 3.25612 158.365 3.60273C158.335 3.94933 158.318 4.29166 158.289 4.62115C158.715 4.7222 159.123 4.88815 159.5 5.11325C159.858 5.32674 160.163 5.61938 160.392 5.96907C160.485 5.4751 160.535 4.974 160.541 4.47139C160.541 3.898 160.562 3.23048 160.562 2.46025V2.35327C160.539 2.07862 160.573 1.80208 160.663 1.54176C160.753 1.28143 160.897 1.04321 161.085 0.84275C161.442 0.518336 161.91 0.346444 162.39 0.363496C162.884 0.350685 163.365 0.521281 163.742 0.84275C163.941 1.0368 164.094 1.27301 164.191 1.53429C164.288 1.79556 164.326 2.07535 164.303 2.35327V2.46025C164.307 3.21814 164.264 3.97552 164.175 4.72813C164.618 4.89174 165.034 5.12267 165.408 5.41282C165.787 5.70575 166.099 6.078 166.322 6.50395C166.578 6.98541 166.754 7.50572 166.844 8.04441C166.878 8.24124 166.908 8.47235 166.925 8.67347C166.942 8.85184 166.921 9.03171 166.864 9.20156C166.808 9.37142 166.716 9.52746 166.596 9.65966C166.476 9.79186 166.33 9.89728 166.167 9.96915C166.004 10.041 165.828 10.0777 165.65 10.077H164.8C164.477 10.0727 164.168 9.94765 163.932 9.7261C163.697 9.50455 163.551 9.20247 163.525 8.87886C163.496 8.56733 163.402 8.26547 163.249 7.99306C162.933 8.73023 162.436 9.37394 161.804 9.86301C161.327 10.2271 160.762 10.4535 160.167 10.5177C159.955 10.5306 159.742 10.5306 159.53 10.5177C159.327 10.503 159.127 10.4628 158.935 10.3979C158.752 10.3343 158.586 10.2322 158.446 10.0984C158.301 9.95533 158.198 9.77466 158.148 9.57635C158.021 9.20637 158.036 8.80163 158.191 8.44238C158.179 8.25043 158.115 8.06541 158.006 7.90713C157.898 7.74886 157.748 7.62328 157.574 7.54379C157.347 8.10718 157.02 8.62463 156.61 9.07139C156.245 9.45831 155.813 9.77453 155.335 10.0043C155.084 10.1162 154.819 10.1952 154.548 10.2396C154.294 10.2735 154.037 10.2735 153.783 10.2396C153.548 10.2117 153.32 10.1345 153.116 10.0128C152.92 9.90188 152.76 9.7352 152.657 9.53357C152.449 9.15142 152.378 8.70838 152.457 8.27978C152.493 8.07331 152.575 7.87769 152.697 7.70734C152.818 7.53698 152.976 7.39624 153.158 7.29557ZM155.262 13.7142C155.095 13.7299 154.927 13.7028 154.773 13.6355C154.619 13.5682 154.485 13.4628 154.382 13.3291C154.206 13.0791 154.113 12.7797 154.115 12.4733C154.115 12.1659 154.212 11.8665 154.391 11.6175C154.49 11.4872 154.62 11.3833 154.768 11.3147C154.916 11.2461 155.078 11.2149 155.241 11.2238H169.543C170.478 11.2238 171.137 11.3821 171.52 11.703C171.902 12.024 172.093 12.6059 172.093 13.4489V15.7082C172.094 15.8553 172.066 16.0009 172.01 16.1369C171.955 16.2729 171.873 16.3966 171.77 16.5007C171.667 16.6049 171.544 16.6876 171.41 16.7439C171.275 16.8003 171.13 16.8294 170.984 16.8294H158.833C158.706 16.8199 158.58 16.8615 158.484 16.9449C158.409 17.0231 158.367 17.1272 158.365 17.2359V17.3C158.365 17.3534 158.375 17.4063 158.396 17.4556C158.416 17.5048 158.446 17.5494 158.484 17.5868C158.531 17.6297 158.586 17.6624 158.646 17.683C158.706 17.7036 158.769 17.7117 158.833 17.7066H171.052C171.223 17.6925 171.396 17.7211 171.553 17.7897C171.711 17.8584 171.85 17.965 171.957 18.1002C172.146 18.3579 172.246 18.6703 172.242 18.9903C172.239 19.2868 172.142 19.5745 171.966 19.8118C171.859 19.9503 171.719 20.0594 171.56 20.129C171.4 20.1986 171.225 20.2264 171.052 20.2098H156.856C156.42 20.2167 155.987 20.1367 155.581 19.9745C155.231 19.8281 154.913 19.6128 154.646 19.3412C154.393 19.0829 154.198 18.7738 154.072 18.434C153.943 18.0849 153.879 17.7152 153.881 17.3429V17.0861C153.865 16.7427 153.926 16.4002 154.058 16.0834C154.19 15.7666 154.391 15.4835 154.646 15.2547C155.277 14.7672 156.063 14.5282 156.856 14.5828H167.801V14.048C167.81 13.9535 167.787 13.8586 167.737 13.7784C167.658 13.7187 167.559 13.6926 167.461 13.7057L155.262 13.7142ZM167.928 5.73375H166.993C166.77 5.74807 166.547 5.71205 166.339 5.62839C166.132 5.54474 165.946 5.41556 165.794 5.25021C165.513 4.92937 165.362 4.51408 165.369 4.08627C165.358 3.66385 165.493 3.25059 165.752 2.91809C165.907 2.74801 166.099 2.61625 166.312 2.53312C166.526 2.44999 166.756 2.41772 166.985 2.43883H167.92V2.20352C167.899 1.91341 167.946 1.62249 168.055 1.35319C168.164 1.08389 168.333 0.843383 168.549 0.650213C168.955 0.306338 169.471 0.121022 170.002 0.128127C170.27 0.128399 170.536 0.174737 170.789 0.265086C171.035 0.353926 171.263 0.48892 171.46 0.66301C171.657 0.843547 171.816 1.06175 171.928 1.30487C172.052 1.58758 172.113 1.89442 172.106 2.20352V8.54508C172.106 9.10383 171.886 9.63978 171.494 10.0353C171.102 10.4308 170.57 10.6535 170.015 10.6547C169.459 10.6547 168.926 10.4324 168.533 10.0368C168.14 9.64117 167.92 9.10457 167.92 8.54508L167.928 5.73375Z" fill="white"/>
<path d="M182.294 4.27927V5.13509C182.294 5.28913 182.294 5.4389 182.294 5.56299C182.294 5.68709 182.294 5.84541 182.26 5.9909C183.849 6.13354 185.025 6.70408 185.787 7.70253C186.223 8.28773 186.525 8.96286 186.672 9.67946C186.737 9.97098 186.737 10.2737 186.671 10.565C186.604 10.8564 186.473 11.129 186.288 11.3625C186.103 11.596 185.867 11.7845 185.6 11.9139C185.332 12.0433 185.039 12.1103 184.742 12.1099C184.308 12.1078 183.886 11.9628 183.542 11.6971C183.197 11.4313 182.949 11.0593 182.834 10.638C182.777 10.4216 182.692 10.2142 182.579 10.0217C182.451 9.77714 182.269 9.56472 182.049 9.40026C181.828 9.2358 181.573 9.12353 181.303 9.07181C181.015 9.5603 180.665 10.0091 180.262 10.4069C179.88 10.7918 179.452 11.1268 178.987 11.4039C178.525 11.6713 178.033 11.8824 177.521 12.0329C177.023 12.18 176.509 12.2634 175.991 12.2811C175.499 12.3197 175.012 12.1665 174.631 11.8532C174.441 11.6915 174.29 11.4902 174.186 11.2632C174.083 11.0363 174.03 10.7893 174.031 10.5396C174.014 10.1602 174.125 9.78619 174.346 9.47835C174.588 9.16704 174.942 8.96413 175.332 8.91349C175.767 8.8533 176.187 8.70705 176.566 8.48307C176.946 8.25909 177.277 7.96184 177.542 7.6084C178.058 6.88696 178.327 6.01558 178.307 5.12652V4.27071H175.736C175.503 4.27543 175.273 4.2194 175.068 4.1081C174.88 4.00122 174.716 3.85538 174.588 3.68019C174.461 3.5159 174.361 3.3325 174.29 3.13674C174.223 2.94425 174.187 2.74186 174.184 2.53766C174.187 2.33793 174.215 2.13941 174.269 1.94715C174.326 1.74354 174.42 1.55215 174.546 1.38233C174.677 1.20718 174.844 1.06147 175.034 0.954427C175.249 0.835822 175.491 0.776742 175.736 0.783254H185.235C185.48 0.775695 185.722 0.834842 185.936 0.954427C186.128 1.06031 186.294 1.20622 186.425 1.38233C186.552 1.55115 186.646 1.74285 186.701 1.94715C186.757 2.13902 186.786 2.33779 186.786 2.53766C186.786 2.74206 186.75 2.94481 186.68 3.13674C186.612 3.33327 186.511 3.51695 186.382 3.68019C186.256 3.85519 186.094 4.00105 185.906 4.1081C185.7 4.21939 185.469 4.27539 185.235 4.27071L182.294 4.27927ZM178.511 20.2188C178.014 20.2292 177.518 20.1716 177.036 20.0476C176.686 19.9544 176.366 19.7699 176.11 19.5127C175.87 19.2392 175.706 18.9072 175.634 18.55C175.532 18.0719 175.485 17.5838 175.493 17.0951V15.0197C175.469 14.7196 175.515 14.4178 175.628 14.139C175.741 13.8602 175.917 13.6121 176.144 13.4151C176.582 13.0705 177.126 12.8891 177.682 12.9016C178.23 12.8848 178.766 13.0671 179.191 13.4151C179.408 13.6177 179.577 13.8676 179.683 14.1457C179.79 14.4238 179.833 14.7227 179.807 15.0197V16.3676C179.791 16.5185 179.829 16.6702 179.914 16.7955C180.058 16.8682 180.22 16.8979 180.381 16.8811H191.942C192.195 16.8553 192.45 16.8869 192.689 16.9736C192.928 17.0602 193.145 17.1997 193.323 17.3818C193.596 17.7009 193.747 18.1075 193.748 18.5285C193.751 18.9555 193.6 19.3691 193.323 19.6925C193.146 19.8741 192.931 20.0137 192.693 20.101C192.456 20.1884 192.202 20.2213 191.95 20.1974L178.511 20.2188ZM188.924 7.85228H187.713C187.436 7.86087 187.161 7.80982 186.905 7.70253C186.708 7.61167 186.531 7.48052 186.387 7.3174C186.25 7.15608 186.152 6.96596 186.098 6.7611C186.043 6.55162 186.014 6.33595 186.013 6.11924C186.014 5.90531 186.042 5.69242 186.098 5.48595C186.154 5.28462 186.248 5.0959 186.374 4.9297C186.513 4.75718 186.693 4.62195 186.897 4.53601C187.155 4.42725 187.433 4.37616 187.713 4.38625H188.924V2.20393C188.904 1.91307 188.952 1.62149 189.062 1.35204C189.173 1.08259 189.344 0.842554 189.562 0.65063C189.974 0.307849 190.493 0.122888 191.028 0.128544C191.296 0.128816 191.562 0.175154 191.814 0.265503C192.063 0.355203 192.294 0.490054 192.494 0.663428C192.698 0.840993 192.861 1.05971 192.975 1.30529C193.099 1.58799 193.16 1.89484 193.153 2.20393V13.1455C193.153 13.7129 192.929 14.2571 192.531 14.6584C192.132 15.0596 191.592 15.285 191.028 15.285C190.464 15.285 189.924 15.0596 189.525 14.6584C189.127 14.2571 188.903 13.7129 188.903 13.1455L188.924 7.85228Z" fill="white"/>
<path d="M213.193 9.77777C213.477 9.7681 213.759 9.81914 214.022 9.92753C214.234 10.0144 214.423 10.1491 214.575 10.3212C214.715 10.4801 214.82 10.6666 214.885 10.869C214.948 11.0695 214.98 11.2789 214.978 11.4894C214.977 11.9156 214.826 12.3276 214.553 12.6533C214.38 12.8416 214.166 12.9871 213.928 13.0784C213.69 13.1697 213.434 13.2043 213.181 13.1796H196.86C196.606 13.2046 196.351 13.1701 196.114 13.0788C195.876 12.9875 195.663 12.8418 195.491 12.6533C195.218 12.3274 195.068 11.9155 195.066 11.4894C195.066 11.2787 195.099 11.0693 195.164 10.869C195.228 10.6676 195.332 10.4814 195.47 10.3212C195.623 10.151 195.812 10.0166 196.022 9.92753C196.285 9.82 196.567 9.769 196.851 9.77777H213.193ZM200.421 8.62244C199.73 8.63409 199.041 8.5329 198.381 8.32288C197.844 8.1448 197.351 7.85298 196.936 7.46706C196.561 7.10832 196.271 6.66971 196.086 6.18334C195.888 5.64977 195.79 5.08396 195.797 4.51449C195.791 3.94089 195.889 3.37099 196.086 2.83285C196.268 2.33641 196.559 1.88745 196.936 1.51915C197.352 1.13408 197.845 0.842373 198.381 0.663331C199.039 0.446119 199.729 0.341979 200.421 0.355251H209.729C210.422 0.34124 211.112 0.445399 211.769 0.663331C212.306 0.84141 212.799 1.13323 213.215 1.51915C213.592 1.88772 213.882 2.33661 214.065 2.83285C214.26 3.37127 214.357 3.94115 214.349 4.51449C214.357 5.08369 214.261 5.64949 214.065 6.18334C213.88 6.66958 213.589 7.10814 213.215 7.46706C212.8 7.85384 212.307 8.14578 211.769 8.32288C211.11 8.5335 210.421 8.6347 209.729 8.62244H200.421ZM199.189 20.2187C198.688 20.2287 198.188 20.174 197.701 20.0561C197.348 19.9717 197.024 19.7911 196.766 19.5341C196.526 19.2643 196.362 18.9348 196.29 18.5798C196.187 18.099 196.14 17.608 196.15 17.1164V15.8969C196.119 15.6048 196.163 15.3096 196.279 15.0398C196.394 14.77 196.577 14.5346 196.808 14.3564C197.271 14.0588 197.812 13.9096 198.36 13.9284C198.903 13.9141 199.436 14.0746 199.881 14.3863C200.102 14.5711 200.274 14.8073 200.383 15.0743C200.491 15.3413 200.534 15.631 200.506 15.9182V16.3889C200.49 16.5397 200.528 16.6915 200.612 16.8168C200.757 16.8895 200.919 16.9192 201.08 16.9024H212.534C212.787 16.8767 213.043 16.9082 213.282 16.9949C213.521 17.0815 213.737 17.221 213.916 17.4031C214.189 17.7221 214.339 18.1288 214.341 18.5499C214.344 18.9769 214.193 19.3904 213.916 19.7138C213.739 19.8954 213.524 20.035 213.286 20.1223C213.049 20.2097 212.795 20.2426 212.543 20.2187H199.189ZM208.667 5.4987C209.04 5.53855 209.415 5.43962 209.721 5.22055C209.814 5.12919 209.888 5.01924 209.937 4.89769C209.986 4.77614 210.009 4.64563 210.006 4.51449C210.013 4.38296 209.991 4.25147 209.942 4.12942C209.892 4.00737 209.817 3.8978 209.721 3.80849C209.409 3.60381 209.037 3.51313 208.667 3.5517H201.484C201.115 3.51307 200.744 3.6038 200.434 3.80849C200.337 3.89758 200.261 4.00703 200.211 4.12905C200.161 4.25108 200.139 4.38266 200.145 4.51449C200.142 4.64591 200.166 4.77652 200.216 4.89805C200.266 5.01959 200.34 5.1294 200.434 5.22055C200.738 5.43969 201.112 5.53868 201.484 5.4987H208.667Z" fill="white"/>
<path d="M229.132 5.26334V5.39173C229.133 5.72086 229.111 6.04969 229.068 6.37594C230.683 6.35882 231.877 6.77242 232.651 7.61682C233.022 8.03646 233.296 8.53322 233.454 9.07172C233.546 9.36742 233.568 9.68075 233.517 9.9864C233.467 10.2921 233.346 10.5815 233.164 10.8314C232.982 11.0812 232.744 11.2845 232.47 11.4248C232.195 11.5651 231.892 11.6386 231.584 11.6392C231.174 11.649 230.771 11.5309 230.43 11.3011C230.089 11.0713 229.827 10.741 229.68 10.3554C229.613 10.1572 229.511 9.97304 229.378 9.81199C229.201 9.60977 228.978 9.45446 228.727 9.35969C228.477 9.26492 228.207 9.2336 227.942 9.26854C227.332 10.1166 226.511 10.7881 225.562 11.2155C224.634 11.639 223.626 11.8578 222.608 11.8574C222.13 11.8688 221.663 11.718 221.282 11.4295C221.106 11.2978 220.964 11.1249 220.869 10.9259C220.775 10.7269 220.729 10.5075 220.738 10.287C220.711 9.86392 220.844 9.44642 221.111 9.11878C221.373 8.83406 221.734 8.66232 222.119 8.63953C222.973 8.58256 223.775 8.20907 224.372 7.59118C224.904 6.98519 225.186 6.19632 225.158 5.38745V5.25905H222.395C222.164 5.26358 221.935 5.21223 221.728 5.1093C221.544 5.01348 221.381 4.88267 221.248 4.72417C221.121 4.56604 221.02 4.38831 220.95 4.19785C220.882 4.00999 220.846 3.81171 220.844 3.61162C220.846 3.41189 220.875 3.21337 220.929 3.02111C220.983 2.8227 221.077 2.63765 221.205 2.47766C221.34 2.31398 221.507 2.17878 221.694 2.07973C221.911 1.96938 222.152 1.91498 222.395 1.92141H225.094V1.85721C225.072 1.59681 225.108 1.33476 225.2 1.09036C225.292 0.845955 225.437 0.62543 225.625 0.4451C226.07 0.126413 226.611 -0.0250307 227.155 0.0171927C227.703 -0.0248024 228.249 0.126482 228.698 0.4451C228.89 0.623083 229.038 0.843002 229.132 1.08785C229.225 1.33269 229.262 1.59593 229.238 1.85721V1.92141H232.022C232.265 1.91407 232.506 1.96852 232.723 2.07973C232.911 2.17772 233.078 2.31307 233.212 2.47766C233.342 2.63658 233.436 2.82199 233.488 3.02111C233.544 3.21298 233.572 3.41175 233.573 3.61162C233.573 3.8119 233.537 4.01054 233.467 4.19785C233.398 4.38908 233.298 4.56708 233.17 4.72417C233.037 4.88262 232.876 5.01347 232.693 5.1093C232.485 5.21227 232.254 5.2636 232.022 5.25905L229.132 5.26334ZM225.051 20.2401C224.53 20.2521 224.008 20.1975 223.5 20.0775C223.147 19.9943 222.826 19.8083 222.578 19.5426C222.349 19.2568 222.202 18.9136 222.153 18.5499C222.067 18.0339 222.027 17.5112 222.034 16.988V15.8327C222.028 15.3124 222.068 14.7926 222.153 14.2794C222.201 13.9115 222.348 13.5639 222.578 13.2738C222.826 13.0081 223.147 12.8221 223.5 12.7389C224.009 12.6206 224.53 12.5674 225.051 12.5806H236.421C236.943 12.5672 237.464 12.6204 237.972 12.7389C238.327 12.8211 238.649 13.0072 238.899 13.2738C239.135 13.5625 239.289 13.9099 239.345 14.2794C239.429 14.7927 239.467 15.3125 239.46 15.8327V18.49C239.46 18.9541 239.277 19.3993 238.951 19.7275C238.625 20.0557 238.183 20.2401 237.722 20.2401H225.051ZM226.199 16.6457C226.191 16.8154 226.224 16.9844 226.297 17.1378C226.344 17.2041 226.409 17.2556 226.485 17.2859C226.56 17.3162 226.642 17.3242 226.722 17.3089H234.717C234.868 17.3089 235.012 17.2485 235.119 17.141C235.226 17.0335 235.286 16.8876 235.286 16.7355V16.1322C235.296 15.9683 235.259 15.8049 235.18 15.6615C235.13 15.598 235.065 15.5488 234.99 15.5188C234.916 15.4888 234.834 15.4789 234.755 15.4903H226.722C226.509 15.4903 226.373 15.546 226.297 15.6615C226.225 15.8074 226.191 15.9694 226.199 16.1322V16.6457ZM235.125 2.26799C235.104 1.97342 235.15 1.67803 235.259 1.40387C235.368 1.12971 235.537 0.883899 235.754 0.684753C236.163 0.329617 236.688 0.139145 237.229 0.149869C237.767 0.144028 238.289 0.33742 238.695 0.693319C238.912 0.890539 239.082 1.1346 239.193 1.40726C239.303 1.67993 239.351 1.97412 239.332 2.26799V4.08659H239.991C240.27 4.07601 240.548 4.1348 240.799 4.25777C240.999 4.35977 241.173 4.50607 241.309 4.68567C241.438 4.86077 241.532 5.06002 241.585 5.2719C241.642 5.4854 241.671 5.70556 241.67 5.92661C241.671 6.14628 241.642 6.36506 241.585 6.57704C241.533 6.79289 241.439 6.99638 241.309 7.17612C241.174 7.36034 240.996 7.5075 240.79 7.60403C240.539 7.71825 240.266 7.77384 239.991 7.76663H239.332V9.71358C239.332 10.2773 239.111 10.8183 238.718 11.2189C238.324 11.6196 237.788 11.8475 237.229 11.8531C236.665 11.8531 236.124 11.6277 235.726 11.2265C235.327 10.8252 235.103 10.281 235.103 9.71358L235.125 2.26799Z" fill="white"/>
<path d="M260.201 8.0103C260.419 7.98291 260.64 8.00734 260.847 8.08166C261.054 8.15598 261.24 8.27811 261.391 8.43821C261.615 8.72465 261.735 9.07939 261.731 9.44378C261.738 9.81266 261.614 10.1719 261.383 10.4579C261.231 10.6152 261.046 10.7355 260.841 10.8097C260.637 10.8838 260.418 10.9099 260.201 10.8858H243.37C243.155 10.9098 242.936 10.8837 242.732 10.8096C242.528 10.7354 242.344 10.6151 242.193 10.4579C241.96 10.1723 241.835 9.81313 241.84 9.44378C241.839 9.07972 241.958 8.72563 242.18 8.43821C242.332 8.27894 242.519 8.15738 242.725 8.08312C242.932 8.00886 243.153 7.98393 243.37 8.0103H260.201ZM245.113 20.2271C244.705 20.2344 244.3 20.1572 243.923 20.0003C243.599 19.8672 243.308 19.6625 243.073 19.4012C242.853 19.153 242.686 18.8616 242.584 18.5454C242.476 18.2066 242.421 17.8529 242.423 17.497V17.4328C242.393 16.7599 242.621 16.1012 243.06 15.5928C243.485 15.1221 244.165 14.8867 245.1 14.8867H256.47V14.4588C256.47 14.2278 256.321 14.1165 256.045 14.1165H243.868C243.699 14.1284 243.529 14.1005 243.373 14.0352C243.217 13.9698 243.078 13.8688 242.967 13.74C242.77 13.52 242.66 13.2356 242.656 12.9398C242.661 12.644 242.762 12.3581 242.945 12.1268C243.057 11.9923 243.199 11.887 243.359 11.8199C243.52 11.7528 243.694 11.726 243.868 11.7416H258.489C259.398 11.7416 260.019 11.9085 260.359 12.2423C260.539 12.4428 260.678 12.6782 260.765 12.9342C260.853 13.1901 260.888 13.4614 260.869 13.7314V15.8453C260.869 16.1691 260.741 16.4798 260.514 16.7092C260.287 16.9385 259.979 17.068 259.657 17.0691H247.417C247.36 17.0625 247.302 17.0674 247.248 17.0835C247.193 17.0997 247.142 17.1268 247.098 17.1632C247.038 17.2396 247.007 17.3355 247.013 17.4328C247.008 17.5327 247.038 17.6311 247.098 17.711C247.141 17.7497 247.191 17.7791 247.246 17.7975C247.301 17.8159 247.359 17.8229 247.417 17.8179H259.891C260.058 17.802 260.225 17.8276 260.379 17.8925C260.534 17.9575 260.67 18.0597 260.775 18.1902C260.948 18.43 261.041 18.7195 261.039 19.0161C261.03 19.299 260.942 19.5736 260.784 19.8077C260.686 19.9528 260.552 20.069 260.395 20.1442C260.238 20.2195 260.064 20.251 259.891 20.2356L245.113 20.2271ZM261.051 3.79543C261.056 4.25812 260.977 4.71773 260.818 5.15186C260.67 5.56672 260.426 5.94058 260.108 6.24305C259.763 6.56852 259.353 6.81645 258.905 6.97047C258.352 7.16213 257.769 7.2534 257.184 7.24005H246.388C245.81 7.25018 245.235 7.15896 244.688 6.97047C244.242 6.81543 243.834 6.56759 243.489 6.24305C243.171 5.93971 242.927 5.56621 242.775 5.15186C242.618 4.71718 242.539 4.25794 242.542 3.79543C242.538 3.33561 242.617 2.87895 242.775 2.44751C242.931 2.03532 243.175 1.66271 243.489 1.35633C243.832 1.02633 244.241 0.773935 244.688 0.616059C245.236 0.431342 245.811 0.341634 246.388 0.350758H257.184C257.768 0.338246 258.351 0.42801 258.905 0.616059C259.354 0.772902 259.764 1.02539 260.108 1.35633C260.423 1.66176 260.665 2.03474 260.818 2.44751C260.977 2.8757 261.056 3.32974 261.051 3.78686V3.79543ZM256.695 3.79543C256.699 3.70691 256.685 3.61851 256.654 3.53546C256.624 3.45241 256.577 3.3764 256.516 3.31189C256.322 3.17009 256.083 3.10601 255.845 3.13215H247.727C247.49 3.10585 247.252 3.17 247.06 3.31189C246.998 3.37547 246.949 3.45121 246.918 3.53441C246.887 3.61762 246.873 3.70651 246.877 3.79543C246.873 3.8837 246.887 3.97191 246.918 4.05441C246.95 4.13691 246.998 4.21191 247.06 4.27468C247.25 4.42006 247.489 4.48592 247.727 4.45865H255.845C256.084 4.48615 256.324 4.42032 256.516 4.27468C256.578 4.2101 256.625 4.13343 256.656 4.0495C256.687 3.96557 256.7 3.87616 256.695 3.78686V3.79543Z" fill="white"/>
<path d="M279.455 15.7468V18.571C279.455 19.1498 279.226 19.7048 278.82 20.1141C278.413 20.5234 277.862 20.7533 277.287 20.7533C276.713 20.7522 276.162 20.5219 275.756 20.1128C275.349 19.7038 275.121 19.1494 275.12 18.571V15.7468H269.127C268.873 15.7714 268.617 15.7359 268.379 15.643C268.142 15.5501 267.929 15.4024 267.758 15.2119C267.484 14.8732 267.334 14.4503 267.333 14.0138C267.334 13.7989 267.367 13.5854 267.431 13.3805C267.495 13.1739 267.599 12.982 267.737 12.8156C267.885 12.631 268.074 12.4844 268.289 12.3877C268.552 12.2802 268.835 12.2292 269.118 12.2379H285.448C285.731 12.2283 286.014 12.2793 286.276 12.3877C286.493 12.482 286.683 12.6291 286.829 12.8156C286.969 12.9807 287.075 13.1729 287.139 13.3805C287.202 13.5857 287.233 13.7991 287.233 14.0138C287.232 14.4504 287.082 14.8734 286.808 15.2119C286.636 15.4025 286.423 15.5502 286.184 15.6431C285.946 15.7359 285.689 15.7714 285.435 15.7468H279.455ZM279.37 2.48164C279.37 2.70843 279.336 2.90956 279.306 3.13207C279.276 3.35458 279.242 3.55997 279.2 3.76536C280.109 3.77972 281.011 3.94154 281.869 4.24462C282.737 4.55022 283.538 5.02251 284.228 5.63531C284.962 6.29943 285.557 7.10381 285.979 8.00165C286.047 8.13858 286.111 8.27551 286.17 8.42956C286.297 8.76087 286.341 9.11836 286.3 9.47091C286.258 9.82346 286.131 10.1604 285.93 10.4523C285.73 10.7443 285.461 10.9824 285.148 11.1459C284.835 11.3095 284.487 11.3935 284.134 11.3907C283.705 11.3873 283.286 11.2569 282.929 11.0158C282.572 10.7746 282.294 10.4333 282.128 10.0342C282.064 9.88872 281.996 9.75179 281.924 9.6063C281.658 9.09592 281.297 8.64135 280.862 8.26695C280.436 7.90275 279.946 7.6239 279.417 7.4454C278.856 7.25346 278.266 7.1664 277.674 7.18862C277.191 7.83205 276.639 8.4204 276.029 8.94308C275.421 9.4637 274.758 9.91565 274.053 10.2909C273.36 10.6565 272.628 10.9435 271.872 11.1468C271.151 11.3412 270.409 11.4419 269.662 11.4463C269.178 11.4626 268.702 11.3116 268.315 11.0184C268.127 10.8724 267.974 10.6867 267.865 10.4745C267.756 10.2624 267.695 10.0289 267.686 9.79033C267.634 9.31524 267.76 8.83771 268.039 8.45098C268.337 8.06117 268.775 7.80458 269.258 7.73635C269.954 7.6077 270.63 7.38758 271.269 7.08164C271.903 6.78231 272.491 6.39011 273.011 5.91775C273.533 5.43973 273.974 4.87888 274.316 4.25747C274.679 3.60628 274.917 2.89209 275.018 2.1522C275.043 1.85695 275.129 1.57019 275.27 1.31017C275.411 1.05015 275.605 0.822528 275.838 0.641673C276.29 0.314709 276.844 0.162779 277.398 0.213766C277.956 0.23978 278.484 0.476558 278.877 0.876991C279.064 1.09594 279.205 1.35145 279.289 1.62755C279.374 1.90366 279.402 2.19442 279.37 2.48164Z" fill="white"/>
<path d="M293.311 5.28469C293.284 4.52024 293.43 3.75966 293.736 3.05959C294.012 2.46199 294.431 1.94288 294.956 1.54907C295.521 1.14085 296.161 0.849924 296.839 0.693256C297.629 0.510196 298.438 0.421155 299.248 0.427956C300.575 0.385695 301.89 0.679998 303.074 1.28377C303.578 1.5623 304.012 1.95299 304.344 2.42609C304.675 2.8992 304.895 3.44224 304.986 4.01382H307.919V2.21658C307.899 1.92571 307.946 1.63419 308.057 1.36473C308.167 1.09528 308.339 0.855197 308.557 0.663273C308.969 0.320492 309.488 0.135583 310.023 0.141239C310.291 0.141512 310.557 0.187849 310.809 0.278199C311.058 0.367899 311.289 0.50275 311.489 0.676123C311.694 0.852506 311.857 1.07152 311.969 1.31798C312.094 1.60069 312.155 1.90748 312.148 2.21658V8.86627C312.148 9.43371 311.924 9.9779 311.525 10.3791C311.127 10.7804 310.586 11.0058 310.023 11.0058C309.459 11.0058 308.919 10.7804 308.52 10.3791C308.122 9.9779 307.898 9.43371 307.898 8.86627V7.36003H304.923C304.816 7.92015 304.586 8.44914 304.25 8.90821C303.914 9.36729 303.48 9.74482 302.98 10.0131C301.807 10.5897 300.511 10.8688 299.206 10.8261C298.384 10.8338 297.563 10.7433 296.762 10.5565C296.083 10.407 295.443 10.1154 294.883 9.70067C294.364 9.30767 293.95 8.78986 293.681 8.19448C293.381 7.49224 293.236 6.73319 293.256 5.96933L293.311 5.28469ZM296.435 20.2187C296.005 20.2299 295.576 20.1823 295.16 20.0774C294.861 20.0056 294.59 19.8463 294.382 19.6196C294.188 19.3806 294.057 19.0967 293.999 18.7937C293.923 18.3817 293.887 17.9632 293.893 17.5442V13.2652C293.866 13.0209 293.894 12.7737 293.975 12.5419C294.056 12.31 294.188 12.0995 294.361 11.9258C294.732 11.6602 295.181 11.529 295.636 11.5535C296.079 11.5267 296.518 11.6637 296.868 11.9387C297.032 12.107 297.159 12.3085 297.239 12.5298C297.32 12.7511 297.353 12.9873 297.336 13.2224H299.631C299.605 12.9902 299.629 12.755 299.703 12.5333C299.776 12.3116 299.897 12.1087 300.056 11.9387C300.423 11.6656 300.876 11.5336 301.331 11.5664C301.779 11.5364 302.222 11.6734 302.576 11.9515C302.736 12.1302 302.856 12.3407 302.929 12.5692C303.002 12.7977 303.027 13.0393 303.001 13.278V18.9092C303.001 19.2497 302.867 19.5762 302.628 19.817C302.389 20.0577 302.064 20.193 301.726 20.193L296.435 20.2187ZM299.644 17.2233V16.2049C299.644 16.113 299.607 16.0248 299.543 15.9598C299.478 15.8948 299.391 15.8583 299.299 15.8583H297.693C297.602 15.8583 297.514 15.8948 297.449 15.9598C297.385 16.0248 297.349 16.113 297.349 16.2049V17.0607C297.326 17.209 297.356 17.3603 297.434 17.4886C297.561 17.5662 297.711 17.5965 297.859 17.5742H299.321C299.41 17.5687 299.493 17.5285 299.553 17.4623C299.614 17.396 299.646 17.3088 299.644 17.219V17.2233ZM297.455 6.16615C297.438 6.39281 297.475 6.62019 297.562 6.82985C297.649 7.0395 297.784 7.22556 297.956 7.37288C298.333 7.65225 298.794 7.79272 299.261 7.7708C299.73 7.79267 300.192 7.65225 300.57 7.37288C300.742 7.22535 300.876 7.03917 300.962 6.82948C301.049 6.61979 301.085 6.3925 301.068 6.16615V5.07502C301.085 4.84804 301.049 4.62013 300.962 4.40976C300.876 4.19938 300.742 4.01247 300.57 3.86406C300.19 3.58807 299.729 3.44932 299.261 3.47037C298.795 3.44928 298.335 3.58808 297.956 3.86406C297.784 4.01226 297.649 4.19905 297.562 4.40939C297.475 4.61973 297.438 4.84773 297.455 5.07502V6.16615ZM304.298 17.3987C304.635 17.2806 304.951 17.1071 305.233 16.8852C305.508 16.6651 305.736 16.3915 305.904 16.0808C306.1 15.7179 306.243 15.3289 306.329 14.9254C306.439 14.3948 306.496 13.8543 306.499 13.3122C306.483 13.0548 306.527 12.7972 306.629 12.5606C306.731 12.324 306.888 12.1152 307.086 11.9515C307.483 11.6621 307.964 11.5118 308.454 11.5236C308.94 11.5006 309.415 11.6643 309.785 11.9814C309.96 12.163 310.096 12.3802 310.181 12.6186C310.267 12.8569 310.301 13.1109 310.282 13.3636C310.282 13.6203 310.282 13.8642 310.252 14.0996C310.223 14.3349 310.206 14.566 310.176 14.7971C310.68 14.8793 311.162 15.064 311.593 15.3399C312.025 15.6157 312.395 15.977 312.684 16.4017C313.032 16.9424 313.261 17.5525 313.355 18.1904C313.4 18.4395 313.39 18.6956 313.325 18.9403C313.26 19.1849 313.142 19.4121 312.98 19.6053C312.817 19.7985 312.614 19.953 312.385 20.0576C312.156 20.1621 311.906 20.2142 311.655 20.2101H311.459C311.048 20.204 310.651 20.0517 310.34 19.78C310.029 19.5084 309.823 19.1348 309.759 18.7253C309.702 18.3484 309.499 18.0098 309.194 17.7838C308.764 18.5555 308.156 19.2116 307.422 19.6966C306.761 20.1314 306.006 20.3999 305.22 20.4797C304.779 20.5416 304.331 20.4543 303.945 20.2315C303.791 20.1376 303.656 20.0135 303.551 19.8665C303.445 19.7195 303.369 19.5526 303.329 19.3757C303.242 18.987 303.268 18.5813 303.405 18.2075C303.483 18.0129 303.604 17.8388 303.759 17.698C303.913 17.5572 304.098 17.4534 304.298 17.3945V17.3987Z" fill="white"/>
<path d="M318.451 4.58724H315.625C315.34 4.59433 315.057 4.53883 314.796 4.42463C314.583 4.32431 314.394 4.17825 314.243 3.99672C314.101 3.82188 313.993 3.62152 313.925 3.40621C313.857 3.19609 313.821 2.97676 313.818 2.75578C313.82 2.53401 313.853 2.31359 313.916 2.10107C313.979 1.88458 314.087 1.68449 314.235 1.51484C314.392 1.33605 314.583 1.19057 314.796 1.08694C315.055 0.965704 315.339 0.907135 315.625 0.915815H325.464C325.757 0.902728 326.049 0.961424 326.314 1.08694C326.525 1.18624 326.711 1.33256 326.858 1.51484C326.994 1.68903 327.095 1.88812 327.156 2.10107C327.217 2.31377 327.249 2.5342 327.249 2.75578C327.249 2.97598 327.218 3.19503 327.156 3.40621C327.096 3.62317 326.99 3.82457 326.845 3.99672C326.696 4.18015 326.507 4.32656 326.293 4.42463C326.039 4.53843 325.763 4.59398 325.485 4.58724H322.638V6.89795C322.638 7.39432 322.638 7.87356 322.595 8.33142C322.553 8.78928 322.527 9.23002 322.468 9.65792C323.21 9.91485 323.909 10.2827 324.542 10.7491C325.177 11.2252 325.701 11.8339 326.081 12.5334C326.529 13.3727 326.838 14.2806 326.994 15.2207C327.098 15.779 327.165 16.3437 327.194 16.911C327.21 17.1804 327.17 17.4501 327.079 17.7036C326.987 17.9572 326.845 18.1893 326.661 18.3856C326.477 18.5819 326.256 18.7384 326.01 18.8454C325.764 18.9524 325.498 19.0076 325.23 19.0077C324.723 19.0038 324.237 18.8042 323.871 18.4499C323.506 18.0956 323.29 17.6137 323.267 17.1035C323.242 16.5548 323.15 16.0114 322.991 15.486C322.756 14.6612 322.249 13.9413 321.554 13.4449C321.091 14.7085 320.391 15.8707 319.493 16.8681C318.674 17.7666 317.674 18.4785 316.56 18.9563C316.328 19.0551 316.08 19.1088 315.829 19.1147C315.571 19.1231 315.313 19.0943 315.064 19.0291C314.822 18.9692 314.592 18.8679 314.384 18.7296C314.185 18.6026 314.026 18.4216 313.925 18.2075C313.725 17.8111 313.672 17.3559 313.776 16.9238C313.828 16.701 313.924 16.4912 314.06 16.3073C314.195 16.1233 314.366 15.9691 314.562 15.854C315.214 15.4514 315.805 14.9572 316.318 14.3863C316.823 13.8136 317.235 13.1636 317.537 12.4607C317.885 11.6614 318.128 10.8199 318.26 9.95749C318.426 8.90039 318.504 7.83116 318.494 6.76099L318.451 4.58724ZM331.13 20.2058C330.608 20.2058 330.107 19.9971 329.738 19.6256C329.369 19.254 329.162 18.7501 329.162 18.2246V2.23375C329.141 1.93835 329.188 1.64205 329.298 1.36759C329.409 1.09314 329.58 0.847851 329.799 0.650514C330.214 0.296263 330.743 0.106136 331.287 0.115631C331.831 0.105347 332.36 0.29557 332.775 0.650514C332.994 0.847851 333.165 1.09314 333.276 1.36759C333.386 1.64205 333.433 1.93835 333.412 2.23375V18.2246C333.413 18.4846 333.362 18.7422 333.264 18.9825C333.165 19.2229 333.021 19.4413 332.839 19.6253C332.656 19.8093 332.439 19.9553 332.201 20.0549C331.962 20.1546 331.707 20.2058 331.449 20.2058H331.13Z" fill="white"/>
<path d="M336.685 20.3044C336.922 20.1801 337.118 19.9899 337.25 19.7567C337.387 19.505 337.456 19.2218 337.45 18.9351C336.913 18.8938 336.409 18.6617 336.026 18.2804C335.845 18.0864 335.704 17.8576 335.613 17.6076C335.521 17.3575 335.481 17.0915 335.495 16.8255C335.481 16.5372 335.529 16.2493 335.635 15.9813C335.741 15.7133 335.904 15.4714 336.111 15.2722C336.565 14.8802 337.151 14.6781 337.748 14.7074C338.049 14.6932 338.35 14.7417 338.631 14.8499C338.913 14.9582 339.169 15.1238 339.384 15.3364C339.589 15.5469 339.749 15.7967 339.855 16.071C339.961 16.3453 340.01 16.6383 340.001 16.9325V17.1251C340.05 18.1794 339.807 19.2267 339.299 20.1503C338.886 20.8694 338.241 21.4249 337.471 21.7251C337.292 21.7941 337.107 21.8471 336.919 21.8834C336.743 21.9132 336.563 21.9132 336.387 21.8834C336.197 21.8502 336.016 21.7773 335.856 21.6694C335.768 21.5997 335.702 21.5066 335.664 21.4006C335.627 21.2947 335.619 21.1802 335.644 21.0704C335.653 20.9104 335.718 20.7588 335.826 20.6416C335.935 20.5245 336.081 20.4491 336.239 20.4285C336.307 20.3999 336.378 20.3784 336.451 20.3643C336.531 20.3534 336.61 20.3333 336.685 20.3044Z" fill="white"/>
<path d="M86.4079 35.0455V33.8045H82.5826C82.0809 33.8142 81.5795 33.7711 81.0865 33.6762C80.7407 33.6128 80.4196 33.4527 80.16 33.214C79.919 32.9678 79.7563 32.655 79.6924 32.3154C79.5983 31.8408 79.5557 31.3573 79.565 30.8734V29.0762C79.5559 28.588 79.5985 28.1003 79.6924 27.6213C79.7563 27.2779 79.9189 26.961 80.16 26.7098C80.422 26.4731 80.7418 26.3107 81.0865 26.2391C81.5788 26.1386 82.0805 26.0927 82.5826 26.1022H96.0772C96.3109 26.0767 96.5472 26.109 96.7657 26.1962C96.9842 26.2835 97.1783 26.423 97.331 26.6028C97.5671 26.9217 97.6939 27.3092 97.6924 27.7069C97.6955 28.1088 97.5654 28.5003 97.3225 28.8194C97.168 28.9942 96.9747 29.1298 96.7584 29.2153C96.542 29.3008 96.3086 29.3338 96.0772 29.3115H84.5165C84.3688 29.3013 84.2213 29.334 84.0915 29.4057C84.0418 29.458 84.0044 29.521 83.9823 29.5899C83.9603 29.6588 83.954 29.7319 83.964 29.8036V30.1459C83.964 30.3599 84.0065 30.4968 84.0915 30.5738C84.2208 30.6472 84.3684 30.6814 84.5165 30.6722H96.1411C96.3733 30.6489 96.6077 30.6823 96.8245 30.7694C97.0412 30.8565 97.234 30.9949 97.3864 31.1729C97.6265 31.4901 97.7564 31.878 97.7561 32.2769C97.759 32.6657 97.6285 33.0437 97.3864 33.3467C97.2285 33.516 97.0341 33.6465 96.8181 33.7281C96.6022 33.8097 96.3706 33.8403 96.1411 33.8174H90.7431V35.0583H96.7998C97.0493 35.0327 97.3014 35.0645 97.537 35.1512C97.7726 35.2379 97.9856 35.3773 98.1599 35.559C98.4328 35.878 98.5835 36.2847 98.585 36.7058C98.5844 37.1257 98.4335 37.5313 98.1599 37.8482C97.9866 38.0314 97.7738 38.1722 97.5381 38.2597C97.3023 38.3472 97.0497 38.3792 96.7998 38.3532H80.4362C80.1863 38.3789 79.9339 38.3467 79.6981 38.2592C79.4624 38.1717 79.2497 38.0312 79.0762 37.8482C78.8123 37.5271 78.6693 37.1226 78.6724 36.7058C78.6698 36.2877 78.8126 35.882 79.0762 35.559C79.2507 35.3776 79.4636 35.2383 79.6992 35.1516C79.9347 35.0649 80.1867 35.033 80.4362 35.0583L86.4079 35.0455ZM81.3076 42.7478C81.067 42.7647 80.8256 42.7325 80.5977 42.6531C80.3698 42.5736 80.1602 42.4487 79.9815 42.2856C79.8284 42.1303 79.7086 41.945 79.6297 41.741C79.5507 41.5371 79.5142 41.319 79.5225 41.1003C79.5133 40.8828 79.5494 40.6658 79.6284 40.4631C79.7075 40.2605 79.8278 40.0767 79.9815 39.9236C80.1638 39.7681 80.3747 39.6503 80.6023 39.5769C80.8298 39.5034 81.0694 39.4758 81.3076 39.4957H94.6535C95.1751 39.4823 95.6964 39.5354 96.2048 39.654C96.5579 39.735 96.8799 39.9179 97.1313 40.1804C97.3616 40.4652 97.5088 40.8089 97.5563 41.1731C97.64 41.6864 97.6784 42.2062 97.6711 42.7264V43.7748C97.6711 44.3422 97.4472 44.8864 97.0487 45.2876C96.6502 45.6889 96.1096 45.9143 95.546 45.9143C94.9823 45.9143 94.4419 45.6889 94.0433 45.2876C93.6448 44.8864 93.4208 44.3422 93.4208 43.7748V43.2399C93.4208 43.115 93.3716 42.9953 93.284 42.907C93.1963 42.8188 93.0774 42.7692 92.9534 42.7692L81.3076 42.7478Z" fill="white"/>
<path d="M100.009 41.5927C100.757 41.0944 101.411 40.4672 101.943 39.7399C102.474 38.9917 102.89 38.1664 103.175 37.2923C103.508 36.2712 103.729 35.2165 103.834 34.1471C103.969 32.8322 104.032 31.5109 104.025 30.189V28.5202C104.005 28.2293 104.053 27.9377 104.163 27.6683C104.274 27.3988 104.445 27.1588 104.663 26.9669C105.075 26.6241 105.595 26.4391 106.129 26.4448C106.397 26.4451 106.663 26.4914 106.915 26.5817C107.163 26.6719 107.392 26.81 107.587 26.9882C107.782 27.1752 107.941 27.3973 108.054 27.6429C108.175 27.9119 108.235 28.2039 108.233 28.4988V30.1462C108.241 31.5766 108.156 33.0061 107.978 34.4253C108.822 34.7211 109.612 35.1548 110.316 35.709C110.997 36.2633 111.554 36.9558 111.952 37.7415C112.408 38.6624 112.71 39.6528 112.845 40.6727C112.936 41.2978 112.99 41.928 113.006 42.5598C113.015 42.8328 112.969 43.1048 112.871 43.3596C112.773 43.6144 112.625 43.8469 112.437 44.0432C112.248 44.2395 112.022 44.3957 111.772 44.5025C111.523 44.6094 111.254 44.6647 110.983 44.6651C110.451 44.6618 109.942 44.4489 109.565 44.0721C109.188 43.6954 108.972 43.1847 108.964 42.6496C108.93 40.5472 108.332 39.0937 107.17 38.2893C106.252 41.2247 104.736 43.2644 102.623 44.4084C102.361 44.5473 102.082 44.6509 101.794 44.7164C101.515 44.7821 101.229 44.8038 100.944 44.7806C100.69 44.7633 100.442 44.698 100.213 44.5881C100.001 44.4893 99.8151 44.3429 99.6687 44.1601C99.5253 43.9846 99.4144 43.7846 99.3414 43.5696C99.2622 43.3507 99.2289 43.1176 99.2436 42.885C99.2629 42.6421 99.3323 42.406 99.4476 42.1918C99.5835 41.9491 99.7761 41.7435 100.009 41.5927ZM115.076 35.602H112.377C112.096 35.61 111.817 35.5545 111.561 35.4394C111.348 35.3388 111.16 35.1928 111.008 35.0115C110.861 34.8372 110.752 34.6328 110.69 34.4124C110.626 34.2014 110.593 33.9824 110.592 33.762C110.594 33.5403 110.627 33.3198 110.69 33.1073C110.751 32.893 110.855 32.6935 110.996 32.5211C111.149 32.3416 111.337 32.1959 111.548 32.0932C111.814 31.9686 112.105 31.9099 112.398 31.922H115.097V27.8997C115.077 27.6088 115.125 27.3173 115.235 27.0478C115.346 26.7784 115.517 26.5383 115.735 26.3464C116.147 26.0036 116.666 25.8187 117.201 25.8243C117.469 25.8246 117.735 25.8709 117.987 25.9613C118.236 26.051 118.467 26.1859 118.667 26.3592C118.872 26.5356 119.036 26.7546 119.148 27.0011C119.272 27.2838 119.333 27.5906 119.326 27.8997V43.8777C119.326 44.4172 119.114 44.9346 118.735 45.3165C118.357 45.6983 117.843 45.9134 117.307 45.9146H117.12C116.584 45.9146 116.069 45.7 115.69 45.318C115.31 44.936 115.097 44.4179 115.097 43.8777L115.076 35.602Z" fill="white"/>
<path d="M134.053 41.9989V37.9765H130.398C129.876 37.9886 129.355 37.9339 128.847 37.8139C128.496 37.7316 128.176 37.5505 127.924 37.2919C127.687 37.0124 127.533 36.6713 127.478 36.3077C127.392 35.7917 127.352 35.269 127.359 34.7458V29.6965C127.353 29.1763 127.393 28.6564 127.478 28.1432C127.533 27.7732 127.687 27.4253 127.924 27.1376C128.173 26.872 128.494 26.6859 128.847 26.6027C129.355 26.4844 129.876 26.4312 130.398 26.4444H142.044C142.566 26.431 143.087 26.4842 143.595 26.6027C143.95 26.6849 144.272 26.871 144.522 27.1376C144.758 27.4263 144.912 27.7738 144.968 28.1432C145.052 28.6566 145.09 29.1764 145.083 29.6965V36.2521C145.083 36.706 144.904 37.1413 144.585 37.4623C144.266 37.7833 143.834 37.9637 143.383 37.9637H138.389V41.986H144.382C144.672 41.9733 144.962 42.0244 145.232 42.1358C145.443 42.2226 145.632 42.3574 145.784 42.5295C145.925 42.6908 146.031 42.8804 146.094 43.0857C146.157 43.2909 146.188 43.5044 146.188 43.719C146.187 44.1556 146.037 44.5787 145.763 44.9172C145.591 45.1078 145.378 45.2555 145.139 45.3483C144.901 45.4412 144.644 45.4767 144.39 45.4521H128.069C127.815 45.4767 127.559 45.4412 127.322 45.3483C127.084 45.2554 126.871 45.1078 126.7 44.9172C126.427 44.5785 126.277 44.1556 126.275 43.719C126.276 43.5042 126.309 43.2907 126.373 43.0857C126.437 42.8814 126.541 42.6922 126.679 42.5295C126.833 42.3592 127.021 42.2248 127.232 42.1358C127.495 42.0283 127.777 41.9773 128.06 41.986L134.053 41.9989ZM131.609 33.9542C131.598 34.1297 131.648 34.3036 131.75 34.4463C131.818 34.5112 131.901 34.5601 131.99 34.5897C132.08 34.6193 132.175 34.6288 132.268 34.6175H139.804C139.939 34.6175 140.073 34.5905 140.199 34.5382C140.324 34.4859 140.437 34.4092 140.533 34.3126C140.628 34.216 140.704 34.1014 140.755 33.9753C140.807 33.8491 140.833 33.714 140.833 33.5776V30.4667C140.843 30.3028 140.806 30.1394 140.726 29.9961C140.677 29.9326 140.611 29.8834 140.537 29.8534C140.462 29.8233 140.381 29.8135 140.301 29.8249H132.12C131.907 29.8249 131.771 29.8805 131.694 29.9961C131.622 30.1419 131.589 30.304 131.597 30.4667L131.609 33.9542Z" fill="white"/>
<path d="M154.072 36.7146C153.239 36.7223 152.409 36.6289 151.599 36.4365C150.912 36.2793 150.262 35.9886 149.686 35.5807C149.151 35.1869 148.723 34.6646 148.441 34.0616C148.126 33.3605 147.974 32.5969 147.994 31.8279V31.0149C147.973 30.2446 148.126 29.4795 148.441 28.777C148.724 28.1747 149.152 27.6528 149.686 27.2579C150.262 26.8499 150.912 26.5592 151.599 26.4021C152.409 26.2076 153.239 26.1141 154.072 26.1239C154.906 26.1139 155.739 26.2073 156.55 26.4021C157.237 26.5592 157.887 26.8499 158.463 27.2579C158.995 27.6529 159.421 28.1749 159.704 28.777C160.011 29.4812 160.156 30.2462 160.129 31.0149V31.8279C160.156 32.5952 160.011 33.3588 159.704 34.0616C159.422 34.6643 158.996 35.1866 158.463 35.5807C157.887 35.9886 157.237 36.2793 156.55 36.4365C155.738 36.6291 154.906 36.7225 154.072 36.7146ZM151.99 45.8932C151.468 45.9053 150.946 45.8506 150.438 45.7306C150.085 45.6484 149.764 45.4622 149.516 45.1957C149.287 44.91 149.14 44.5667 149.091 44.203C149.003 43.6873 148.963 43.1644 148.972 42.6412V40.9295C148.964 40.4092 149.003 39.8892 149.091 39.3762C149.139 39.0084 149.286 38.6607 149.516 38.3706C149.764 38.1041 150.085 37.9179 150.438 37.8357C150.947 37.7174 151.468 37.6642 151.99 37.6774H163.912C164.433 37.664 164.954 37.7172 165.463 37.8357C165.817 37.9179 166.14 38.104 166.389 38.3706C166.618 38.6617 166.764 39.0089 166.814 39.3762C166.898 39.8896 166.936 40.4094 166.929 40.9295V44.0917C166.93 44.3309 166.883 44.5679 166.793 44.789C166.702 45.0101 166.569 45.2111 166.402 45.3805C166.234 45.5498 166.035 45.6841 165.815 45.7758C165.596 45.8674 165.36 45.9146 165.123 45.9146L151.99 45.8932ZM154.072 33.6551C154.563 33.6781 155.049 33.5383 155.453 33.2571C155.637 33.1089 155.782 32.9173 155.875 32.6994C155.967 32.4814 156.005 32.2438 155.985 32.0076V30.8095C156.003 30.5748 155.964 30.3391 155.871 30.123C155.779 29.9068 155.635 29.7165 155.453 29.5686C155.054 29.2732 154.567 29.1224 154.072 29.1407C153.577 29.1234 153.091 29.2741 152.691 29.5686C152.509 29.717 152.366 29.9073 152.274 30.1234C152.181 30.3395 152.142 30.5749 152.16 30.8095V32.0076C152.14 32.2437 152.178 32.4811 152.271 32.6989C152.363 32.9167 152.508 33.1084 152.691 33.2571C153.096 33.5372 153.581 33.6769 154.072 33.6551ZM153.137 42.2988C153.115 42.4651 153.15 42.6338 153.235 42.7781C153.36 42.8627 153.511 42.8977 153.66 42.8765H162.16C162.239 42.8765 162.316 42.861 162.388 42.8309C162.46 42.8008 162.526 42.7566 162.581 42.701C162.636 42.6454 162.68 42.5793 162.71 42.5067C162.74 42.434 162.755 42.3561 162.755 42.2774V41.2076C162.755 40.9637 162.721 40.8097 162.649 40.7455C162.522 40.6669 162.372 40.6337 162.224 40.6514H153.639C153.49 40.6293 153.339 40.6628 153.214 40.7455C153.13 40.8839 153.095 41.0469 153.116 41.2076L153.137 42.2988ZM162.551 27.9212C162.531 27.6246 162.579 27.3272 162.692 27.0525C162.804 26.7778 162.979 26.5331 163.202 26.3379C163.621 25.9847 164.152 25.7949 164.698 25.803C164.97 25.8039 165.24 25.8502 165.497 25.9399C165.751 26.029 165.984 26.1671 166.185 26.3464C166.388 26.5328 166.551 26.7584 166.666 27.0097C166.789 27.2972 166.85 27.608 166.844 27.9212V34.7035C166.844 35.2709 166.62 35.8151 166.222 36.2163C165.823 36.6176 165.283 36.843 164.719 36.843C164.154 36.8419 163.612 36.6168 163.21 36.2164C162.808 35.816 162.579 35.2725 162.573 34.7035L162.551 27.9212Z" fill="white"/>
<path d="M185.142 41.1005V43.8177C185.142 44.3965 184.913 44.9516 184.507 45.3608C184.1 45.7701 183.549 46 182.974 46C182.399 45.9989 181.849 45.7686 181.442 45.3596C181.036 44.9506 180.807 44.3962 180.806 43.8177V41.1005H174.813C174.56 41.1251 174.304 41.0896 174.066 40.9967C173.828 40.9038 173.616 40.7562 173.445 40.5656C173.171 40.2269 173.021 39.804 173.02 39.3675C173.021 39.1526 173.054 38.9391 173.118 38.7342C173.182 38.5276 173.286 38.3357 173.424 38.1693C173.572 37.9847 173.761 37.8381 173.976 37.7414C174.239 37.6339 174.521 37.5829 174.805 37.5916H191.126C191.417 37.5789 191.707 37.63 191.976 37.7414C192.193 37.8357 192.382 37.9828 192.528 38.1693C192.669 38.3344 192.775 38.5266 192.839 38.7342C192.901 38.9394 192.933 39.1528 192.932 39.3675C192.931 39.8041 192.781 40.2271 192.507 40.5656C192.336 40.7562 192.122 40.9039 191.884 40.9968C191.645 41.0896 191.389 41.1251 191.134 41.1005H185.142ZM192.431 31.3442C192.434 31.9676 192.326 32.5864 192.112 33.1714C191.905 33.7399 191.587 34.2609 191.177 34.7033C190.75 35.1585 190.233 35.5186 189.66 35.7602C189.003 36.0362 188.297 36.1717 187.585 36.1582H178.384C177.674 36.1714 176.969 36.0359 176.314 35.7602C175.737 35.5161 175.218 35.1515 174.792 34.6904C174.384 34.2431 174.066 33.7198 173.857 33.15C173.643 32.565 173.535 31.9461 173.538 31.3228V31.0447C173.535 30.4199 173.643 29.7997 173.857 29.2133C174.066 28.6434 174.384 28.1201 174.792 27.6727C175.219 27.213 175.738 26.8486 176.314 26.603C176.97 26.3308 177.674 26.1968 178.384 26.2093H187.585C188.296 26.1965 189.002 26.3304 189.66 26.603C190.235 26.8476 190.752 27.2122 191.177 27.6727C191.587 28.119 191.904 28.6426 192.112 29.2133C192.326 29.7997 192.434 30.4199 192.431 31.0447V31.3442ZM188.032 31.0661C188.034 30.878 187.997 30.6915 187.924 30.5184C187.851 30.3454 187.743 30.1894 187.607 30.0605C187.236 29.7474 186.758 29.5937 186.276 29.6326H179.701C179.22 29.593 178.744 29.7469 178.375 30.0605C178.239 30.1896 178.131 30.3456 178.058 30.5186C177.985 30.6916 177.948 30.878 177.95 31.0661V31.3228C177.948 31.509 177.985 31.6936 178.058 31.8646C178.131 32.0356 178.239 32.1893 178.375 32.3156C178.745 32.626 179.221 32.7794 179.701 32.7435H186.268C186.745 32.7758 187.217 32.6227 187.585 32.3156C187.726 32.1921 187.839 32.0394 187.916 31.8681C187.993 31.6968 188.033 31.5108 188.032 31.3228V31.0661Z" fill="white"/>
<path d="M206.393 41.4216V43.8179C206.393 44.3967 206.165 44.9517 205.758 45.361C205.352 45.7703 204.8 46.0002 204.225 46.0002C203.651 45.9991 203.1 45.7688 202.694 45.3597C202.288 44.9507 202.059 44.3963 202.058 43.8179V41.4216H196.065C195.811 41.4462 195.555 41.4107 195.317 41.3178C195.08 41.2249 194.867 41.0773 194.696 40.8867C194.423 40.548 194.273 40.1251 194.271 39.6886C194.272 39.4737 194.305 39.2602 194.369 39.0553C194.433 38.8487 194.537 38.6568 194.675 38.4904C194.823 38.3058 195.012 38.1592 195.228 38.0625C195.49 37.955 195.773 37.904 196.056 37.9127H212.377C212.668 37.9 212.958 37.9511 213.227 38.0625C213.444 38.1568 213.634 38.3039 213.78 38.4904C213.92 38.6555 214.026 38.8477 214.09 39.0553C214.153 39.2605 214.184 39.4739 214.184 39.6886C214.183 40.1252 214.033 40.5482 213.759 40.8867C213.587 41.0773 213.374 41.225 213.135 41.3179C212.897 41.4107 212.64 41.4462 212.386 41.4216H206.393ZM206.308 28.1564C206.308 28.3832 206.274 28.5844 206.244 28.8069C206.214 29.0294 206.18 29.2348 206.138 29.4402C207.047 29.4545 207.949 29.6163 208.807 29.9194C209.675 30.225 210.476 30.6973 211.166 31.3101C211.9 31.9742 212.495 32.7786 212.917 33.6765C213.059 33.9646 213.181 34.262 213.283 34.5665C213.373 34.8541 213.395 35.1592 213.346 35.4569C213.297 35.7545 213.179 36.0363 213.001 36.2792C212.823 36.522 212.591 36.7191 212.323 36.8543C212.055 36.9894 211.759 37.0589 211.459 37.0569H210.89C210.512 37.0588 210.142 36.9464 209.828 36.7343C209.515 36.5222 209.271 36.2202 209.13 35.8673C209.052 35.6665 208.961 35.4707 208.858 35.2811C208.592 34.7707 208.231 34.3162 207.796 33.9418C207.37 33.5775 206.88 33.2987 206.35 33.1202C205.79 32.9283 205.199 32.8412 204.608 32.8634C204.125 33.5069 203.573 34.0952 202.963 34.6179C202.355 35.1385 201.692 35.5905 200.987 35.9657C200.294 36.3313 199.562 36.6183 198.806 36.8216C198.085 37.016 197.343 37.1167 196.596 37.1211C196.112 37.1374 195.636 36.9864 195.249 36.6932C195.062 36.5466 194.909 36.3608 194.8 36.1488C194.692 35.9367 194.63 35.7035 194.62 35.4651C194.568 34.99 194.694 34.5125 194.972 34.1258C195.27 33.736 195.709 33.4794 196.192 33.4112C196.888 33.2825 197.564 33.0624 198.203 32.7564C198.837 32.4571 199.425 32.0649 199.945 31.5926C200.469 31.1157 200.909 30.5546 201.25 29.9323C201.613 29.2811 201.851 28.5669 201.951 27.827C201.977 27.5318 202.063 27.245 202.204 26.985C202.345 26.725 202.539 26.4973 202.772 26.3165C203.224 25.9895 203.777 25.8376 204.332 25.8886C204.89 25.9146 205.418 26.1514 205.811 26.5518C205.999 26.7704 206.14 27.0258 206.226 27.3019C206.311 27.578 206.339 27.8689 206.308 28.1564Z" fill="white"/>
<path d="M227.113 25.6532C227.403 25.6361 227.693 25.6772 227.966 25.7742C228.24 25.8712 228.492 26.0221 228.707 26.2181C228.906 26.431 229.062 26.6818 229.164 26.9558C229.266 27.2299 229.313 27.5216 229.302 27.8141H232.532C232.753 27.7965 232.974 27.8254 233.183 27.8991C233.391 27.9728 233.582 28.0896 233.744 28.242C233.885 28.3933 233.996 28.5714 234.069 28.7661C234.142 28.9607 234.176 29.1681 234.169 29.376C234.181 29.7879 234.037 30.1891 233.765 30.4971C233.621 30.6545 233.447 30.7806 233.254 30.8674C233.06 30.9543 232.85 31.0001 232.638 31.002C232.86 31.6116 232.968 32.2572 232.957 32.9062V33.8048C232.957 35.2597 232.621 36.3823 231.95 37.1725C231.238 37.988 230.276 38.542 229.217 38.7471V41.6783H232.745C232.999 41.6514 233.257 41.6845 233.497 41.7751C233.736 41.8657 233.952 42.0114 234.126 42.2004C234.4 42.5354 234.55 42.9559 234.551 43.39C234.553 43.8298 234.403 44.2566 234.126 44.5966C233.953 44.785 233.739 44.9304 233.501 45.0217C233.263 45.113 233.007 45.1477 232.753 45.123H222.034C221.779 45.1455 221.523 45.1098 221.284 45.0187C221.044 44.9276 220.829 44.7833 220.653 44.5966C220.375 44.2571 220.224 43.83 220.228 43.39C220.227 42.9557 220.377 42.5348 220.653 42.2004C220.83 42.0133 221.047 41.8691 221.288 41.7787C221.529 41.6883 221.787 41.654 222.043 41.6783H225.018V38.7471C223.952 38.5452 222.985 37.9911 222.268 37.1725C221.591 36.3794 221.253 35.2569 221.256 33.8048V32.9062C221.245 32.2572 221.353 31.6116 221.575 31.002C221.365 30.9974 221.158 30.9502 220.967 30.8635C220.776 30.7768 220.604 30.6522 220.461 30.4971C220.181 30.1928 220.029 29.791 220.036 29.376C220.024 28.9563 220.176 28.5486 220.461 28.242C220.623 28.0903 220.814 27.9739 221.022 27.9002C221.231 27.8266 221.452 27.7973 221.673 27.8141H224.924C224.914 27.5218 224.961 27.2302 225.063 26.9563C225.166 26.6824 225.32 26.4315 225.519 26.2181C225.734 26.0221 225.986 25.8712 226.26 25.7742C226.533 25.6772 226.823 25.6361 227.113 25.6532ZM225.243 33.9332C225.217 34.1971 225.253 34.4636 225.349 34.7106C225.445 34.9577 225.598 35.1781 225.795 35.3539C226.175 35.6406 226.639 35.7912 227.113 35.7818C227.587 35.7912 228.051 35.6406 228.431 35.3539C228.629 35.1788 228.782 34.9584 228.879 34.7112C228.975 34.464 229.011 34.1972 228.983 33.9332V32.7137C229.011 32.449 228.975 32.1815 228.879 31.9335C228.783 31.6856 228.629 31.4645 228.431 31.2887C228.051 31.002 227.587 30.8514 227.113 30.8608C226.639 30.8514 226.175 31.002 225.795 31.2887C225.598 31.4651 225.445 31.6863 225.349 31.9341C225.252 32.1819 225.216 32.4491 225.243 32.7137V33.9332ZM237.399 45.9146C236.835 45.9146 236.295 45.6892 235.896 45.2879C235.497 44.8867 235.274 44.3425 235.274 43.775V27.9425C235.253 27.6471 235.299 27.3508 235.41 27.0763C235.52 26.8019 235.692 26.5566 235.911 26.3592C236.326 26.005 236.855 25.8149 237.399 25.8244C237.943 25.8141 238.472 26.0043 238.886 26.3592C239.106 26.5566 239.277 26.8019 239.388 27.0763C239.498 27.3508 239.545 27.6471 239.524 27.9425V43.775C239.524 44.3425 239.3 44.8867 238.901 45.2879C238.503 45.6892 237.962 45.9146 237.399 45.9146Z" fill="white"/>
<path d="M247.281 40.844C247.368 41.0985 247.411 41.3663 247.408 41.6356V42.1491C247.388 42.3096 247.425 42.4722 247.514 42.6069C247.656 42.6891 247.82 42.7236 247.982 42.7053H259.543C259.794 42.6768 260.048 42.7051 260.287 42.788C260.526 42.8709 260.744 43.0064 260.924 43.1846C261.189 43.49 261.333 43.8831 261.328 44.2886C261.326 44.6993 261.175 45.095 260.903 45.4012C260.724 45.5793 260.508 45.7157 260.271 45.8007C260.033 45.8857 259.781 45.9173 259.53 45.8933H246.133C245.636 45.904 245.14 45.8464 244.658 45.7221C244.308 45.6289 243.988 45.4444 243.732 45.1872C243.49 44.9148 243.326 44.5824 243.256 44.2244C243.154 43.7464 243.107 43.2583 243.115 42.7695V41.6356C243.09 41.3379 243.135 41.0383 243.245 40.7611C243.356 40.4839 243.53 40.2367 243.753 40.0395C244.191 39.7014 244.731 39.5247 245.283 39.5389C245.603 39.5364 245.92 39.5944 246.218 39.71V37.5063H243.328C243.081 37.5309 242.831 37.5016 242.597 37.4204C242.362 37.3391 242.147 37.2079 241.968 37.0356C241.702 36.7273 241.558 36.3312 241.564 35.923C241.558 35.5083 241.701 35.1053 241.968 34.7891C242.143 34.61 242.357 34.4728 242.592 34.3877C242.828 34.3025 243.079 34.2716 243.328 34.297H254.081C254.33 34.271 254.581 34.3017 254.817 34.3868C255.052 34.472 255.266 34.6095 255.441 34.7891C255.708 35.1053 255.851 35.5083 255.845 35.923C255.853 36.3316 255.709 36.7284 255.441 37.0356C255.262 37.2093 255.048 37.3415 254.813 37.4228C254.578 37.5042 254.328 37.5327 254.081 37.5063H250.341V39.6159C250.341 39.9408 250.213 40.2526 249.985 40.4827C249.757 40.7129 249.448 40.8428 249.125 40.844H247.281ZM246.048 33.3342C245.446 33.3466 244.847 33.2554 244.276 33.0646C243.817 32.9157 243.396 32.6674 243.043 32.3372C242.721 32.0281 242.477 31.6469 242.329 31.2246C242.171 30.7681 242.092 30.2875 242.095 29.804C242.092 29.3191 242.171 28.8371 242.329 28.379C242.48 27.9557 242.724 27.5724 243.043 27.2579C243.394 26.9221 243.815 26.6693 244.276 26.5176C244.848 26.3306 245.447 26.2409 246.048 26.2523H250.978C251.577 26.2402 252.173 26.3298 252.742 26.5176C253.199 26.6713 253.617 26.924 253.966 27.2579C254.286 27.5715 254.529 27.9552 254.676 28.379C254.836 28.8366 254.915 29.3189 254.91 29.804C254.926 30.268 254.852 30.7307 254.69 31.1655C254.528 31.6003 254.282 31.9985 253.966 32.3372C253.334 33.0018 252.343 33.3342 250.991 33.3342H246.048ZM246.962 29.1407C246.724 29.1175 246.485 29.1731 246.282 29.299C246.214 29.3632 246.162 29.442 246.129 29.5294C246.095 29.6169 246.082 29.7107 246.09 29.804C246.085 29.8963 246.099 29.9887 246.132 30.0751C246.165 30.1614 246.216 30.2396 246.282 30.3046C246.478 30.4485 246.72 30.5141 246.962 30.4886H250.043C250.285 30.5149 250.527 30.4492 250.723 30.3046C250.789 30.2396 250.84 30.1614 250.873 30.0751C250.905 29.9887 250.92 29.8963 250.915 29.804C250.923 29.7107 250.909 29.6169 250.876 29.5294C250.843 29.442 250.791 29.3632 250.723 29.299C250.52 29.1725 250.281 29.1169 250.043 29.1407H246.962ZM256.546 41.1221H253.316C253.081 41.1439 252.844 41.1172 252.62 41.0436C252.395 40.9701 252.188 40.8511 252.011 40.6942C251.881 40.5563 251.779 40.3938 251.711 40.2161C251.643 40.0384 251.611 39.8489 251.616 39.6586C251.605 39.2727 251.742 38.8973 251.998 38.6103C252.176 38.4499 252.385 38.3289 252.612 38.2552C252.839 38.1815 253.079 38.1567 253.316 38.1824H256.546V27.8484C256.526 27.5575 256.574 27.266 256.684 26.9966C256.795 26.7271 256.966 26.487 257.184 26.2951C257.596 25.9523 258.115 25.7674 258.65 25.7731C258.918 25.7733 259.184 25.8196 259.436 25.91C259.685 25.9997 259.916 26.1346 260.116 26.308C260.319 26.4855 260.483 26.7042 260.597 26.9498C260.721 27.2325 260.782 27.5393 260.775 27.8484V41.1135C260.775 41.2838 260.708 41.447 260.588 41.5674C260.469 41.6878 260.307 41.7554 260.138 41.7554H257.184C257.015 41.7554 256.852 41.6878 256.733 41.5674C256.613 41.447 256.546 41.2838 256.546 41.1135V41.1221Z" fill="white"/>
</g>
<defs>
<clipPath id="clip0_3887_85081">
<rect width="340" height="46" fill="white"/>
</clipPath>
</defs>
</svg>
