<svg width="250" height="190" viewBox="0 0 250 190" fill="none" xmlns="http://www.w3.org/2000/svg">
<g clip-path="url(#clip0_3828_83183)">
<path d="M75.7469 138.912L50.3696 137.981L53.7858 160.649C53.7858 160.649 85.7243 166.233 106.492 153.093C127.261 139.952 75.7469 138.912 75.7469 138.912Z" fill="#709BD1"/>
<path d="M75.7469 138.912L50.3696 137.981L50.5865 139.459C60.1301 150.355 74.8793 156.323 93.4242 158.787C97.9791 157.473 102.426 155.611 106.492 153.093C127.261 139.897 75.7469 138.912 75.7469 138.912Z" fill="#3C6284"/>
<path d="M158.602 132.944L183.112 139.514L171.074 166.179C171.074 166.179 138.485 163.277 123.79 140.774C109.095 118.27 158.602 132.944 158.602 132.944Z" fill="#3C6284"/>
<path d="M161.205 31.7603C158.602 30.2273 155.891 28.8037 153.126 27.4896C140.058 22.1238 129.484 28.0371 114.572 28.0371C99.66 28.0371 91.3094 19.3862 78.187 24.752C75.4215 26.0113 72.7102 27.4349 70.1075 29.0227C58.1238 37.7832 59.2625 51.0881 51.6168 64.393C43.8626 77.9718 37.0845 84.3778 36 100.037C37.7352 141.102 68.318 154.79 113.921 154.79C159.524 154.79 197.319 141.102 199 100.037C197.916 84.3778 185.227 77.9718 177.473 64.393C169.881 51.0881 173.189 40.5208 161.205 31.7603Z" fill="#577EB7"/>
<path d="M161.205 31.7603C158.602 30.2273 155.891 28.8037 153.126 27.4896C140.058 22.1238 129.484 28.0371 114.572 28.0371C99.66 28.0371 91.3094 19.3862 78.187 24.752C75.4215 26.0113 72.7102 27.4349 70.1075 29.0227C58.1238 37.7832 59.2625 51.0881 51.6168 64.393C43.8626 77.9718 37.0845 84.3778 36 100.037C37.7352 141.102 68.318 154.79 113.921 154.79C159.524 154.79 197.319 141.102 199 100.037C197.916 84.3778 185.227 77.9718 177.473 64.393C169.881 51.0881 173.189 40.5208 161.205 31.7603Z" fill="#709BD1"/>
<path d="M103.022 29.4609C104.811 27.8731 114.301 32.308 124.766 29.7347C131.002 28.2016 130.351 34.3339 117.229 34.5529C104.106 34.7719 102.48 29.8989 103.022 29.4609Z" fill="#5A80A5"/>
<path d="M105.082 92.9193C114.127 92.9193 121.458 85.5162 121.458 76.384C121.458 67.2518 114.127 59.8486 105.082 59.8486C96.0383 59.8486 88.7065 67.2518 88.7065 76.384C88.7065 85.5162 96.0383 92.9193 105.082 92.9193Z" fill="white"/>
<path d="M108.987 89.3057C113.479 89.3057 117.12 85.6287 117.12 81.0928C117.12 76.5569 113.479 72.8799 108.987 72.8799C104.495 72.8799 100.853 76.5569 100.853 81.0928C100.853 85.6287 104.495 89.3057 108.987 89.3057Z" fill="#040000"/>
<path d="M134.635 90.9483C143.589 90.9483 150.848 83.6187 150.848 74.5772C150.848 65.5356 143.589 58.2061 134.635 58.2061C125.681 58.2061 118.422 65.5356 118.422 74.5772C118.422 83.6187 125.681 90.9483 134.635 90.9483Z" fill="white"/>
<path d="M132.249 88.4298C136.741 88.4298 140.383 84.7527 140.383 80.2168C140.383 75.681 136.741 72.0039 132.249 72.0039C127.757 72.0039 124.115 75.681 124.115 80.2168C124.115 84.7527 127.757 88.4298 132.249 88.4298Z" fill="#040000"/>
<path d="M160.384 40.3112C161.388 38.5567 159.426 35.5165 156.002 33.5207C152.579 31.5249 148.99 31.3293 147.987 33.0839C146.984 34.8384 148.946 37.8786 152.369 39.8744C155.793 41.8702 159.381 42.0658 160.384 40.3112Z" fill="#85BCF9"/>
<path d="M113.216 80.2165C113.605 80.2165 113.921 79.8979 113.921 79.5048C113.921 79.1116 113.605 78.793 113.216 78.793C112.827 78.793 112.511 79.1116 112.511 79.5048C112.511 79.8979 112.827 80.2165 113.216 80.2165Z" fill="white"/>
<path d="M128.128 80.2165C128.517 80.2165 128.833 79.8979 128.833 79.5048C128.833 79.1116 128.517 78.793 128.128 78.793C127.739 78.793 127.423 79.1116 127.423 79.5048C127.423 79.8979 127.739 80.2165 128.128 80.2165Z" fill="white"/>
<path d="M65.7694 160.922C64.2511 165.631 50.966 171.106 43.8626 159.444C36.7591 147.782 36.8676 140.5 41.6393 135.298C46.4111 130.097 53.8399 129.056 56.9308 133.491C60.0758 137.926 68.1011 153.64 65.7694 160.922Z" fill="#426391"/>
<path d="M167.17 137.981L167.007 136.886C167.007 136.886 156.542 143.511 148.462 151.56C149.276 155.447 150.794 158.02 151.879 159.772C152.529 160.594 153.072 161.525 153.776 162.236C163.374 165.521 171.074 166.233 171.074 166.233L179.913 146.632L167.17 137.981Z" fill="#5888BC"/>
<path d="M160.392 163.66C163.266 168.205 178.666 170.176 182.949 155.995C187.233 141.814 185.064 134.148 178.666 130.042C172.267 125.935 164.133 126.921 162.127 132.396C160.066 137.926 155.945 156.652 160.392 163.66Z" fill="#426391"/>
<path d="M111.861 93.9597C113.65 92.7551 115.656 93.9597 118.747 94.1239C121.838 94.2882 127.315 91.8243 129.646 93.6312C131.924 95.3832 131.924 105.732 120.753 106.991C109.583 108.25 107.577 100.804 109.312 96.6426C110.071 94.7262 110.83 94.6167 111.861 93.9597Z" fill="#040000"/>
<path d="M118.368 100.804C114.192 100.858 112.24 103.432 111.373 105.074C113.27 106.608 116.253 107.484 120.753 106.991C124.115 106.608 126.447 105.403 128.074 103.87C126.122 102.282 122.922 100.694 118.368 100.804Z" fill="#D05E53"/>
<path d="M166.736 93.1382C166.736 93.1382 166.79 93.2477 166.899 93.4667C166.899 93.3024 166.736 93.1382 166.736 93.1382Z" fill="#709BD1"/>
<path d="M178.449 59.0271C177.473 57.9868 175.846 58.0963 174.653 58.4249C174.328 58.4796 174.057 58.5891 173.785 58.6439C173.731 58.6439 173.623 58.6986 173.569 58.6986L173.352 58.7534L154.427 72.6606C151.933 65.7617 145.372 60.834 137.726 60.834C129.592 60.834 122.76 66.364 120.645 73.8652C118.313 66.6925 111.644 61.5458 103.781 61.5458C96.4066 61.5458 90.0623 66.0903 87.4053 72.5511L59.0456 57.6583C58.3949 57.3298 56.9309 56.618 55.3583 56.3443C53.9485 56.0705 52.4844 56.1252 51.5084 57.0013C49.3936 58.9176 50.5323 62.9146 50.8034 63.6811C50.9119 64.0644 51.183 64.3929 51.5084 64.5572C51.5626 64.5024 51.6168 64.3929 51.6168 64.3382C52.2675 63.2431 52.8098 62.0933 53.352 60.9982C53.2978 60.177 53.352 59.5199 53.5147 59.3009C53.6231 59.2462 53.84 59.2461 54.1112 59.2461C54.9788 59.3009 56.3886 59.7937 57.5816 60.396L86.3208 75.5625C86.0496 76.8218 85.887 78.1359 85.887 79.5047C85.887 89.415 93.858 97.4636 103.673 97.4636C111.806 97.4636 118.639 91.9336 120.754 84.4325C123.085 91.6051 129.755 96.7519 137.617 96.7519C147.432 96.7519 155.403 88.7032 155.403 78.7929C155.403 77.7526 155.295 76.7671 155.132 75.8363L174.653 61.491C174.707 61.491 174.762 61.4363 174.816 61.4363C175.141 61.3268 175.466 61.272 175.738 61.272C175.954 61.272 176.117 61.2173 176.226 61.2173C176.226 61.272 176.226 61.3268 176.226 61.3268C176.226 61.491 176.117 61.6553 176.009 61.8743C176.388 62.6956 176.822 63.5169 177.31 64.3382C177.419 64.5024 177.473 64.6667 177.581 64.7762C178.286 64.0097 179.1 62.8051 179.208 61.491C179.479 60.615 179.154 59.7389 178.449 59.0271ZM103.727 94.3975C95.5932 94.3975 89.032 87.7176 89.032 79.5595C89.032 71.4013 95.6474 64.7214 103.727 64.7214C111.806 64.7214 118.422 71.4013 118.422 79.5595C118.422 87.7176 111.861 94.3975 103.727 94.3975ZM137.726 93.6857C129.592 93.6857 123.031 87.0058 123.031 78.8477C123.031 70.6895 129.646 64.0097 137.726 64.0097C145.805 64.0097 152.421 70.6347 152.421 78.8477C152.421 87.0606 145.86 93.6857 137.726 93.6857Z" fill="#00294F"/>
<path d="M166.302 97.4637C165.923 97.3542 163.103 96.6971 157.952 97.1899C153.56 97.5732 154.481 100.092 154.156 101.187C153.831 102.501 158.386 101.57 158.657 102.227C158.657 102.282 158.657 102.282 158.657 102.337" fill="#709BD1"/>
<path d="M166.302 97.4637C165.923 97.3542 163.103 96.6971 157.952 97.1899C153.56 97.5732 154.481 100.092 154.156 101.187C153.831 102.501 158.386 101.57 158.657 102.227C158.657 102.282 158.657 102.282 158.657 102.337" stroke="#396696" stroke-width="1.9843" stroke-miterlimit="10" stroke-linecap="round"/>
<path d="M80.2476 103.979C80.6271 104.034 83.4468 104.637 87.9475 107.21C91.7975 109.4 89.9538 111.316 89.7369 112.411C89.52 113.726 85.7243 110.988 85.182 111.481C85.182 111.481 85.1278 111.535 85.1278 111.59" fill="#709BD1"/>
<path d="M80.2476 103.979C80.6271 104.034 83.4468 104.637 87.9475 107.21C91.7975 109.4 89.9538 111.316 89.7369 112.411C89.52 113.726 85.7243 110.988 85.182 111.481C85.182 111.481 85.1278 111.535 85.1278 111.59" stroke="#396696" stroke-width="1.9843" stroke-miterlimit="10" stroke-linecap="round"/>
<path d="M152.963 98.6139L152.855 99.1614L148.462 99.2162C148.462 99.2162 148.734 98.5591 148.734 98.5044C148.842 98.5591 152.963 98.6139 152.963 98.6139Z" fill="#FCC77A"/>
<path d="M131.273 99.5995C139.353 97.1356 151.011 97.8474 151.011 97.8474L152.963 98.6139C150.415 98.7235 149.005 98.833 149.005 98.833C152.312 98.6139 154.156 99.2162 154.373 99.271C155.078 99.5447 156.054 99.9828 156.379 100.585C157.247 102.392 157.355 103.815 157.355 103.815L140.437 110.933L120.374 104.253C120.374 104.308 123.248 102.063 131.273 99.5995Z" fill="#FFD8A4"/>
<path d="M148.191 98.8877C146.239 98.9424 144.233 99.0519 142.281 99.2162C140.329 99.3805 138.377 99.5995 136.424 99.928C134.472 100.202 132.52 100.585 130.622 101.187C130.134 101.352 129.646 101.461 129.213 101.625C128.779 101.79 128.291 101.954 127.857 102.173C127.423 102.392 126.935 102.611 126.501 102.83L125.254 103.596C126.827 102.392 128.725 101.68 130.622 101.078C132.52 100.476 134.472 100.092 136.424 99.7637C138.377 99.49 140.329 99.271 142.335 99.1067C144.233 98.9424 146.185 98.8877 148.191 98.8877Z" fill="#FCC77A"/>
<path d="M90.1165 96.9165L90.1707 97.464L94.5087 97.9021L94.2918 97.1903L90.1165 96.9165Z" fill="#FCC77A"/>
<path d="M112.132 98.2306C104.323 95.1096 92.6651 95.4382 92.6651 95.4382L90.1707 96.8617C92.7193 97.1355 94.0749 97.4093 94.0749 97.4093C90.8214 96.9165 88.9236 97.3545 88.7067 97.4093C87.9475 97.6283 86.9715 97.9568 86.5919 98.5591C85.5616 100.311 85.3447 101.68 85.3447 101.68L101.612 110.221L122.163 105.239C122.163 105.294 119.94 101.406 112.132 98.2306Z" fill="#FFD8A4"/>
<path d="M115.494 107.265L115.873 106.717C115.982 106.608 117.934 103.98 121.187 103.815C121.296 103.815 121.35 103.815 121.458 103.815C124.658 103.815 126.393 106.608 126.501 106.717L126.827 107.265L121.241 109.893L115.494 107.265Z" fill="#843A1A"/>
<path d="M116.307 107.046C116.307 107.046 118.151 104.527 121.242 104.363C124.278 104.199 126.013 107.046 126.013 107.046L121.242 109.291L116.307 107.046Z" fill="#592E16"/>
<path d="M126.556 106.389C126.556 106.389 124.061 107.703 120.537 107.703C117.012 107.703 115.385 106.389 115.385 106.389C115.385 106.389 104.161 98.7234 84.7482 101.297C84.3144 101.352 83.9348 101.571 83.6637 101.954L82.9045 102.939L87.2968 139.898C87.2968 139.898 103.347 141.759 115.656 145.154C115.656 145.154 118.042 146.742 121.35 146.687C124.658 146.632 126.989 145.154 126.989 145.154C139.298 141.704 154.698 139.898 154.698 139.898L159.091 102.885L157.952 101.79C157.681 101.571 157.355 101.406 157.03 101.352C137.455 98.6687 126.556 106.389 126.556 106.389Z" fill="#EF6E5B"/>
<path d="M82.8503 103.158L87.2426 141.869C87.2426 141.869 103.293 143.73 115.602 147.125L115.385 108.36C115.385 108.36 104.757 99.4352 82.8503 103.158Z" fill="#D64129"/>
<path d="M159.036 103.158L154.644 141.869C154.644 141.869 139.244 143.73 126.935 147.125L126.556 108.36C126.556 108.36 137.184 99.4352 159.036 103.158Z" fill="#D64129"/>
<path d="M115.385 108.36C115.385 108.36 117.012 109.674 120.537 109.674C124.061 109.674 126.556 108.36 126.556 108.36L126.935 147.125C126.935 147.125 124.603 148.603 121.296 148.658C117.988 148.713 115.602 147.125 115.602 147.125L115.385 108.36Z" fill="#BA2C28"/>
<path d="M94.8882 97.5737C96.8403 97.738 98.8466 97.957 100.799 98.2855C102.751 98.614 104.703 98.9426 106.601 99.4353C108.499 99.9281 110.397 100.476 112.24 101.242C114.084 102.009 115.873 102.885 117.392 104.199L116.199 103.323C115.765 103.049 115.331 102.83 114.897 102.556C114.463 102.282 114.03 102.118 113.542 101.899C113.108 101.68 112.62 101.516 112.186 101.352C110.342 100.64 108.444 100.092 106.547 99.5996C104.649 99.1068 102.697 98.7235 100.744 98.395C98.7924 98.0118 96.8403 97.738 94.8882 97.5737Z" fill="#FCC77A"/>
<path d="M91.5264 96.0406C93.9665 95.9858 96.3524 96.0406 98.7925 96.2048C101.178 96.4238 103.619 96.6976 106.004 97.1904C108.39 97.6831 110.722 98.3949 112.945 99.3805C115.114 100.421 117.229 101.79 118.639 103.815C117.934 102.83 117.012 102.009 116.036 101.297C115.06 100.585 113.975 99.9828 112.891 99.49C110.668 98.5044 108.336 97.8474 106.004 97.3546C103.619 96.8619 101.233 96.5333 98.8467 96.3143C96.3524 96.1501 93.9665 96.0406 91.5264 96.0406Z" fill="#FCC77A"/>
<path d="M158.711 102.228C158.44 102.775 155.024 102.447 154.807 109.181C154.59 116.244 163.7 120.077 177.473 119.365C191.246 118.599 194.987 105.129 194.987 105.129" fill="#709BD1"/>
<path d="M158.711 102.228C158.44 102.775 155.024 102.447 154.807 109.181C154.59 116.244 163.7 120.077 177.473 119.365C191.246 118.599 194.987 105.129 194.987 105.129" stroke="#396696" stroke-width="1.9843" stroke-miterlimit="10" stroke-linecap="round"/>
<path d="M83.7721 110.988C83.9348 111.59 90.1164 115.368 89.0862 122.048C87.9474 129.056 78.2954 131.082 64.9561 127.687C51.6168 124.293 50.4238 110.331 50.4238 110.331" fill="#709BD1"/>
<path d="M83.7721 110.988C83.9348 111.59 90.1164 115.368 89.0862 122.048C87.9474 129.056 78.2954 131.082 64.9561 127.687C51.6168 124.293 50.4238 110.331 50.4238 110.331" stroke="#396696" stroke-width="1.9843" stroke-miterlimit="10" stroke-linecap="round"/>
</g>
<path d="M221 52C223.761 52 226 49.7614 226 47C226 44.2386 223.761 42 221 42C218.239 42 216 44.2386 216 47C216 49.7614 218.239 52 221 52Z" fill="#57BEB7"/>
<path d="M42 27C43.1046 27 44 26.1046 44 25C44 23.8954 43.1046 23 42 23C40.8954 23 40 23.8954 40 25C40 26.1046 40.8954 27 42 27Z" fill="#ECCD52"/>
<path d="M214 74C215.105 74 216 73.1046 216 72C216 70.8954 215.105 70 214 70C212.895 70 212 70.8954 212 72C212 73.1046 212.895 74 214 74Z" fill="#ECCD52"/>
<path d="M16.5 69C18.9853 69 21 66.9853 21 64.5C21 62.0147 18.9853 60 16.5 60C14.0147 60 12 62.0147 12 64.5C12 66.9853 14.0147 69 16.5 69Z" fill="#DC4C7C"/>
<defs>
<clipPath id="clip0_3828_83183">
<rect width="163" height="144" fill="white" transform="translate(36 23)"/>
</clipPath>
</defs>
</svg>
