<svg width="250" height="168" viewBox="0 0 250 168" fill="none" xmlns="http://www.w3.org/2000/svg">
<g clip-path="url(#clip0_4161_85218)">
<path d="M89.6276 95.2685C89.6276 95.2685 78.9226 95.8982 68.4275 91.0704C48.2768 82.0446 31.6945 42.7929 52.0551 37.5453C70.9463 32.5076 74.9345 65.8821 79.3424 58.1157C83.7504 50.3493 80.3919 41.7433 89.4177 26.4205C96.7643 14.0362 107.889 3.75098 130.769 3.75098C150.289 3.75098 164.143 13.8263 172.119 27.2601C180.096 40.6938 180.725 63.7831 184.713 68.8208C191.011 76.7971 207.173 64.6227 207.803 80.7852C208.432 99.2566 185.133 103.035 169.601 93.3794C169.601 93.3794 169.81 98.6269 180.725 106.183C189.541 112.271 185.973 130.322 173.169 132.841C155.327 136.199 135.806 132.841 131.818 112.48" fill="#B189E0"/>
<path d="M115.236 57.4855C122.308 57.4855 128.04 51.753 128.04 44.6815C128.04 37.61 122.308 31.8774 115.236 31.8774C108.165 31.8774 102.432 37.61 102.432 44.6815C102.432 51.753 108.165 57.4855 115.236 57.4855Z" fill="white"/>
<path d="M117.755 51.3984C121.233 51.3984 124.052 48.5791 124.052 45.1013C124.052 41.6235 121.233 38.8042 117.755 38.8042C114.277 38.8042 111.458 41.6235 111.458 45.1013C111.458 48.5791 114.277 51.3984 117.755 51.3984Z" fill="#040000"/>
<path d="M138.325 58.116C145.281 58.116 150.919 52.4774 150.919 45.5219C150.919 38.5663 145.281 32.9277 138.325 32.9277C131.37 32.9277 125.731 38.5663 125.731 45.5219C125.731 52.4774 131.37 58.116 138.325 58.116Z" fill="white"/>
<path d="M134.338 51.8193C137.816 51.8193 140.635 49 140.635 45.5222C140.635 42.0444 137.816 39.2251 134.338 39.2251C130.86 39.2251 128.041 42.0444 128.041 45.5222C128.041 49 130.86 51.8193 134.338 51.8193Z" fill="#040000"/>
<path d="M121.325 44.8922C121.672 44.8922 121.954 44.6103 121.954 44.2625C121.954 43.9147 121.672 43.6328 121.325 43.6328C120.977 43.6328 120.695 43.9147 120.695 44.2625C120.695 44.6103 120.977 44.8922 121.325 44.8922Z" fill="white"/>
<path d="M131.186 44.2623C131.534 44.2623 131.816 43.9804 131.816 43.6326C131.816 43.2849 131.534 43.0029 131.186 43.0029C130.839 43.0029 130.557 43.2849 130.557 43.6326C130.557 43.9804 130.839 44.2623 131.186 44.2623Z" fill="white"/>
<path d="M125.522 56.646C131.609 56.646 133.708 59.3747 133.918 65.252C134.128 71.1293 128.671 70.4996 125.522 70.4996C122.374 70.4996 119.645 69.45 119.645 66.7213C119.645 64.2025 118.385 56.646 125.522 56.646Z" fill="#040000"/>
<path d="M126.782 63.3629C123.003 63.5728 121.744 67.1411 121.324 69.66C122.374 70.2897 123.843 70.4996 125.522 70.4996C127.621 70.4996 130.56 70.7095 132.449 69.2402C131.609 66.5114 130.14 63.153 126.782 63.3629Z" fill="#EF5E84"/>
<path d="M125.941 8.15892C128.46 11.5174 116.076 17.3946 106.001 26.0006C97.1848 33.5571 93.8263 37.1255 91.3075 35.4463C88.7887 33.767 96.3452 21.3828 105.791 15.0857C115.236 8.78863 124.262 6.0599 125.941 8.15892Z" fill="#C7A5F9"/>
<path d="M172.959 132.631C183.664 130.532 188.072 117.728 183.874 109.962C182.614 122.556 173.378 126.334 158.685 127.174C142.313 128.223 131.398 112.271 131.398 112.271C135.596 132.421 154.907 135.99 172.959 132.631Z" fill="#9B78CE"/>
<path d="M49.5361 48.0403C48.9063 50.7691 47.6469 52.6582 46.5974 52.4483C45.5479 52.2384 44.7083 49.9294 45.338 47.2007C45.9677 44.472 47.6469 42.5829 48.6964 42.7928C49.746 43.0027 50.1658 45.5215 49.5361 48.0403Z" fill="#C7A5F9"/>
<path d="M80.8111 94.6383C82.0705 92.1194 85.0091 82.4639 64.0189 76.3767C56.4624 74.2777 51.2148 71.3391 47.6465 68.6104C51.4247 76.3767 57.0921 83.7233 63.5991 88.3412L77.8724 94.2185C78.7121 94.4284 79.7616 94.4284 80.8111 94.6383Z" fill="#9B78CE"/>
<path d="M58.5621 144.805C59.3736 144.805 60.0314 143.866 60.0314 142.706C60.0314 141.547 59.3736 140.607 58.5621 140.607C57.7506 140.607 57.0928 141.547 57.0928 142.706C57.0928 143.866 57.7506 144.805 58.5621 144.805Z" fill="#494949"/>
<path d="M85.8489 152.781C85.2191 152.781 84.7993 152.362 84.7993 151.732V145.855L60.6605 138.508V143.126C60.6605 143.756 60.2407 144.175 59.611 144.175C58.9813 144.175 58.5615 143.756 58.5615 143.126V137.039C58.5615 136.619 58.7714 136.409 58.9813 136.199C59.1912 135.989 59.611 135.989 60.0308 135.989L86.2687 143.966C86.6885 144.175 87.1083 144.595 87.1083 145.015V151.522C86.8984 152.152 86.4786 152.781 85.8489 152.781Z" fill="#160A03"/>
<path d="M60.0308 145.435C60.8423 145.435 61.5002 144.495 61.5002 143.336C61.5002 142.177 60.8423 141.237 60.0308 141.237C59.2194 141.237 58.5615 142.177 58.5615 143.336C58.5615 144.495 59.2194 145.435 60.0308 145.435Z" fill="#494949"/>
<path d="M87.9473 144.805C88.7588 144.805 89.4167 143.866 89.4167 142.706C89.4167 141.547 88.7588 140.607 87.9473 140.607C87.1359 140.607 86.478 141.547 86.478 142.706C86.478 143.866 87.1359 144.805 87.9473 144.805Z" fill="#494949"/>
<path d="M61.2902 152.782C60.6605 152.782 60.2407 152.362 60.2407 151.732V145.225C60.2407 144.805 60.4506 144.385 61.0803 144.176L87.3181 136.199C87.738 136.199 87.9479 136.199 88.3677 136.409C88.5776 136.619 88.7875 137.039 88.7875 137.249V143.336C88.7875 143.966 88.3677 144.385 87.738 144.385C87.1082 144.385 86.6884 143.966 86.6884 143.336V138.718L62.3397 145.855V151.732C62.3397 152.152 61.71 152.782 61.2902 152.782Z" fill="#160A03"/>
<path d="M87.9474 143.336C87.9474 142.286 87.3177 141.237 86.4781 141.237C85.6385 141.237 85.0088 142.076 85.0088 143.336C85.0088 143.336 85.0088 143.336 85.0088 143.546L86.0583 143.966C86.4781 144.175 86.8979 144.595 86.8979 145.015V145.435C87.5276 145.015 87.9474 144.385 87.9474 143.336Z" fill="#494949"/>
<path d="M86.689 153.831C87.5005 153.831 88.1584 152.892 88.1584 151.732C88.1584 150.573 87.5005 149.633 86.689 149.633C85.8776 149.633 85.2197 150.573 85.2197 151.732C85.2197 152.892 85.8776 153.831 86.689 153.831Z" fill="#494949"/>
<path d="M60.4517 153.831C61.2632 153.831 61.9211 152.892 61.9211 151.732C61.9211 150.573 61.2632 149.633 60.4517 149.633C59.6403 149.633 58.9824 150.573 58.9824 151.732C58.9824 152.892 59.6403 153.831 60.4517 153.831Z" fill="#494949"/>
<path d="M86.2696 136.829C84.5903 133.891 79.5527 131.792 73.4655 131.792C67.5882 131.792 62.7605 133.681 60.8713 136.409H60.0317V138.718C60.0317 142.497 66.1189 145.645 73.4655 145.645C80.8121 145.645 86.8993 142.497 86.8993 138.718V136.619L86.2696 136.829Z" fill="#3F1D0B"/>
<path d="M73.2531 144.175C80.6724 144.175 86.6869 140.98 86.6869 137.039C86.6869 133.097 80.6724 129.902 73.2531 129.902C65.8338 129.902 59.8193 133.097 59.8193 137.039C59.8193 140.98 65.8338 144.175 73.2531 144.175Z" fill="#5B2F12"/>
<path d="M73.2547 143.546C80.3262 143.546 86.0588 140.632 86.0588 137.039C86.0588 133.445 80.3262 130.532 73.2547 130.532C66.1833 130.532 60.4507 133.445 60.4507 137.039C60.4507 140.632 66.1833 143.546 73.2547 143.546Z" fill="#210E05"/>
<path d="M100.752 96.5278L94.0349 101.146C91.3062 95.4783 82.4903 91.2803 72.205 91.2803C62.5495 91.2803 54.3633 94.8486 51.0049 100.096L45.7573 96.5278L56.2525 126.754H56.4624C57.7218 130.952 64.8585 134.31 73.2546 134.31C81.8606 134.31 88.7873 130.952 90.0468 126.754L100.752 96.5278Z" fill="#EF9D43"/>
<path d="M73.2548 119.196C71.1558 119.196 69.4765 118.357 68.2171 116.678C65.9082 113.319 66.5379 108.072 66.5379 107.862L68.2171 108.282C68.2171 108.282 67.5874 112.899 69.4765 115.418C70.3162 116.678 71.5756 117.097 73.2548 117.097C74.934 117.097 75.9835 116.468 76.6132 115.418C78.2925 112.899 77.2429 108.072 77.2429 108.072L78.9222 107.442C78.9222 107.652 80.1816 113.319 78.0826 116.678C77.033 118.357 75.3538 119.196 73.2548 119.196Z" fill="#5B2F12"/>
<path d="M74.0923 118.358H72.4131V143.966H74.0923V118.358Z" fill="#5B2F12"/>
<path d="M90.0458 111.851L84.7982 133.261L84.3784 134.94L82.6992 142.077C83.5388 141.657 84.3784 141.237 84.7982 140.607L85.8478 136.409L86.2676 134.94L91.9349 112.48L90.0458 111.851Z" fill="#5B2F12"/>
<path d="M90.0486 113.95C89.8387 113.95 89.8387 113.95 89.6288 113.95C88.9991 113.95 88.3694 113.53 87.9496 112.691C86.6902 110.382 88.3694 105.344 88.5793 104.505L90.2585 105.344C89.6288 107.233 88.9991 110.592 89.4189 111.641C89.4189 111.641 89.4189 111.851 89.6288 111.851C90.2585 111.851 91.0981 111.431 92.1476 110.382C93.8268 108.493 95.716 105.134 95.9259 101.566L97.815 101.776C97.6051 105.974 95.5061 110.172 93.407 112.271C92.3575 113.32 91.0981 113.95 90.0486 113.95Z" fill="#5B2F12"/>
<path d="M56.4629 111.851L61.7105 133.261L62.1303 134.94L63.8095 142.077C62.9699 141.657 62.1303 141.237 61.7105 140.607L60.661 136.409L60.2412 134.94L54.7837 112.48L56.4629 111.851Z" fill="#5B2F12"/>
<path d="M56.4621 113.95C55.4126 113.95 54.1532 113.32 52.8938 112.06C50.7948 109.961 48.6957 105.973 48.4858 101.565L50.375 101.355C50.5849 104.924 52.474 108.282 54.1532 110.171C54.9928 111.221 56.0423 111.641 56.672 111.641C56.8819 111.641 56.8819 111.641 56.8819 111.431C57.3017 110.381 56.672 107.023 56.0423 105.134L57.7215 104.294C58.1414 105.344 59.6107 110.171 58.3513 112.48C57.9315 113.11 57.3017 113.53 56.672 113.74C56.672 113.95 56.672 113.95 56.4621 113.95Z" fill="#5B2F12"/>
<path d="M73.2538 108.072C88.9038 108.072 101.591 102.34 101.591 95.2684C101.591 88.1969 88.9038 82.4644 73.2538 82.4644C57.6038 82.4644 44.917 88.1969 44.917 95.2684C44.917 102.34 57.6038 108.072 73.2538 108.072Z" fill="#77421B"/>
<path d="M73.2535 109.121C56.8811 109.121 43.8672 103.034 43.8672 95.2676C43.8672 87.5012 56.6712 81.4141 73.2535 81.4141C89.8358 81.4141 102.64 87.5012 102.64 95.2676C102.64 103.034 89.6259 109.121 73.2535 109.121ZM73.2535 83.3032C58.3505 83.3032 45.7563 88.7606 45.7563 95.2676C45.7563 101.775 58.3505 107.232 73.2535 107.232C88.1566 107.232 100.751 101.775 100.751 95.2676C100.751 88.7606 88.1566 83.3032 73.2535 83.3032Z" fill="#77421B"/>
<path d="M73.2543 106.393C57.5116 106.393 46.5967 100.516 46.5967 95.2684C46.5967 90.0208 57.5116 84.1436 73.2543 84.1436C88.997 84.1436 99.9119 90.0208 99.9119 95.2684C99.9119 100.516 88.997 106.393 73.2543 106.393Z" fill="#FFFCE6"/>
<path d="M73.2537 105.133C59.1902 105.133 49.5347 99.8851 49.5347 95.2673C49.5347 90.6494 59.4001 85.4019 73.2537 85.4019C87.3171 85.4019 96.9726 90.6494 96.9726 95.2673C96.9726 99.8851 87.3171 105.133 73.2537 105.133Z" fill="#FFE8C0"/>
<path d="M61.921 154.461C62.7325 154.461 63.3903 153.521 63.3903 152.362C63.3903 151.203 62.7325 150.263 61.921 150.263C61.1095 150.263 60.4517 151.203 60.4517 152.362C60.4517 153.521 61.1095 154.461 61.921 154.461Z" fill="#494949"/>
<path d="M85.0098 154.461C85.8213 154.461 86.4792 153.521 86.4792 152.362C86.4792 151.203 85.8213 150.263 85.0098 150.263C84.1984 150.263 83.5405 151.203 83.5405 152.362C83.5405 153.521 84.1984 154.461 85.0098 154.461Z" fill="#494949"/>
<path d="M159.105 144.805C159.917 144.805 160.574 143.866 160.574 142.706C160.574 141.547 159.917 140.607 159.105 140.607C158.294 140.607 157.636 141.547 157.636 142.706C157.636 143.866 158.294 144.805 159.105 144.805Z" fill="#494949"/>
<path d="M186.394 152.781C185.764 152.781 185.344 152.362 185.344 151.732V145.855L161.205 138.508V143.126C161.205 143.756 160.786 144.175 160.156 144.175C159.526 144.175 159.106 143.756 159.106 143.126V137.039C159.106 136.619 159.316 136.409 159.526 136.199C159.736 135.989 160.156 135.989 160.576 135.989L186.814 143.966C187.233 144.175 187.653 144.595 187.653 145.015V151.522C187.443 152.152 187.023 152.781 186.394 152.781Z" fill="#160A03"/>
<path d="M160.576 145.435C161.387 145.435 162.045 144.495 162.045 143.336C162.045 142.177 161.387 141.237 160.576 141.237C159.764 141.237 159.106 142.177 159.106 143.336C159.106 144.495 159.764 145.435 160.576 145.435Z" fill="#494949"/>
<path d="M188.492 144.805C189.304 144.805 189.962 143.866 189.962 142.706C189.962 141.547 189.304 140.607 188.492 140.607C187.681 140.607 187.023 141.547 187.023 142.706C187.023 143.866 187.681 144.805 188.492 144.805Z" fill="#494949"/>
<path d="M161.625 152.781C160.995 152.781 160.575 152.362 160.575 151.732V145.225C160.575 144.805 160.785 144.385 161.415 144.175L187.653 135.989C188.072 135.989 188.282 135.989 188.702 136.199C188.912 136.409 189.122 136.829 189.122 137.039V143.126C189.122 143.756 188.702 144.175 188.072 144.175C187.443 144.175 187.023 143.756 187.023 143.126V138.508L162.884 145.855V151.732C162.884 152.152 162.254 152.781 161.625 152.781Z" fill="#160A03"/>
<path d="M188.491 143.336C188.491 142.286 187.862 141.237 187.022 141.237C186.182 141.237 185.553 142.076 185.553 143.336C185.553 143.336 185.553 143.336 185.553 143.546L186.602 143.966C187.022 144.175 187.442 144.595 187.442 145.015V145.435C188.072 145.015 188.491 144.385 188.491 143.336Z" fill="#494949"/>
<path d="M187.234 153.831C188.045 153.831 188.703 152.892 188.703 151.732C188.703 150.573 188.045 149.633 187.234 149.633C186.422 149.633 185.765 150.573 185.765 151.732C185.765 152.892 186.422 153.831 187.234 153.831Z" fill="#494949"/>
<path d="M160.996 153.831C161.807 153.831 162.465 152.892 162.465 151.732C162.465 150.573 161.807 149.633 160.996 149.633C160.184 149.633 159.526 150.573 159.526 151.732C159.526 152.892 160.184 153.831 160.996 153.831Z" fill="#494949"/>
<path d="M186.603 136.829C184.923 133.891 179.886 131.792 173.799 131.792C167.921 131.792 163.093 133.681 161.204 136.409H160.365V138.718C160.365 142.497 166.452 145.645 173.799 145.645C181.145 145.645 187.232 142.497 187.232 138.718V136.619L186.603 136.829Z" fill="#3F1D0B"/>
<path d="M173.799 144.175C181.218 144.175 187.232 140.98 187.232 137.039C187.232 133.097 181.218 129.902 173.799 129.902C166.379 129.902 160.365 133.097 160.365 137.039C160.365 140.98 166.379 144.175 173.799 144.175Z" fill="#5B2F12"/>
<path d="M173.801 143.546C180.873 143.546 186.605 140.632 186.605 137.039C186.605 133.445 180.873 130.532 173.801 130.532C166.73 130.532 160.997 133.445 160.997 137.039C160.997 140.632 166.73 143.546 173.801 143.546Z" fill="#210E05"/>
<path d="M201.298 96.5278L194.581 101.146C191.853 95.4783 183.037 91.2803 172.751 91.2803C163.096 91.2803 154.91 94.8486 151.551 100.096L146.304 96.5278L156.799 126.754H157.009C158.268 130.952 165.405 134.31 173.801 134.31C182.407 134.31 189.334 130.952 190.593 126.754L201.298 96.5278Z" fill="#EF9D43"/>
<path d="M173.799 119.196C171.7 119.196 170.021 118.357 168.762 116.678C166.453 113.319 167.082 108.072 167.082 107.862L168.762 108.282C168.762 108.282 168.132 112.899 170.021 115.418C170.861 116.678 172.12 117.097 173.799 117.097C175.478 117.097 176.528 116.468 177.158 115.418C178.837 112.899 177.787 108.072 177.787 108.072L179.467 107.442C179.467 107.652 180.726 113.319 178.627 116.678C177.577 118.357 175.898 119.196 173.799 119.196Z" fill="#5B2F12"/>
<path d="M174.639 118.358H172.959V143.966H174.639V118.358Z" fill="#5B2F12"/>
<path d="M190.592 111.851L185.345 133.261L184.925 134.94L183.246 142.077C184.085 141.657 184.925 141.237 185.345 140.607L186.394 136.409L186.814 134.94L192.481 112.48L190.592 111.851Z" fill="#5B2F12"/>
<path d="M190.593 113.95C190.383 113.95 190.383 113.95 190.173 113.95C189.543 113.95 188.913 113.53 188.494 112.691C187.234 110.382 188.913 105.344 189.123 104.505L190.802 105.344C190.173 107.233 189.543 110.592 189.963 111.641C189.963 111.641 189.963 111.851 190.173 111.851C190.802 111.851 191.642 111.431 192.692 110.382C194.371 108.493 196.26 105.134 196.47 101.566L198.359 101.776C198.149 105.974 196.05 110.172 193.951 112.271C192.901 113.32 191.642 113.95 190.593 113.95Z" fill="#5B2F12"/>
<path d="M157.006 111.851L162.253 133.261L162.673 134.94L164.352 142.077C163.513 141.657 162.673 141.237 162.253 140.607L161.204 136.409L160.784 134.94L155.117 112.48L157.006 111.851Z" fill="#5B2F12"/>
<path d="M157.009 113.95C155.959 113.95 154.7 113.32 153.44 112.06C151.341 109.961 149.242 105.973 149.032 101.565L150.921 101.355C151.131 104.924 153.02 108.282 154.7 110.171C155.539 111.221 156.589 111.641 157.218 111.641C157.428 111.641 157.428 111.641 157.428 111.431C157.848 110.381 157.218 107.023 156.589 105.134L158.268 104.294C158.688 105.344 160.157 110.171 158.898 112.48C158.478 113.11 157.848 113.53 157.218 113.74C157.218 113.95 157.218 113.95 157.009 113.95Z" fill="#5B2F12"/>
<path d="M173.801 108.072C189.451 108.072 202.138 102.34 202.138 95.2684C202.138 88.1969 189.451 82.4644 173.801 82.4644C158.151 82.4644 145.464 88.1969 145.464 95.2684C145.464 102.34 158.151 108.072 173.801 108.072Z" fill="#77421B"/>
<path d="M173.8 109.121C157.428 109.121 144.414 103.034 144.414 95.2676C144.414 87.5012 157.218 81.4141 173.8 81.4141C190.383 81.4141 203.187 87.5012 203.187 95.2676C203.187 103.034 190.173 109.121 173.8 109.121ZM173.8 83.3032C158.897 83.3032 146.303 88.7606 146.303 95.2676C146.303 101.775 158.897 107.232 173.8 107.232C188.703 107.232 201.298 101.775 201.298 95.2676C201.298 88.7606 188.703 83.3032 173.8 83.3032Z" fill="#77421B"/>
<path d="M173.801 106.393C158.058 106.393 147.143 100.516 147.143 95.2684C147.143 90.0208 158.058 84.1436 173.801 84.1436C189.543 84.1436 200.458 90.0208 200.458 95.2684C200.458 100.516 189.543 106.393 173.801 106.393Z" fill="#FFFCE6"/>
<path d="M173.8 105.133C159.737 105.133 150.081 99.8851 150.081 95.2673C150.081 90.6494 159.946 85.4019 173.8 85.4019C187.864 85.4019 197.519 90.6494 197.519 95.2673C197.519 99.8851 187.864 105.133 173.8 105.133Z" fill="#FFE8C0"/>
<path d="M162.465 154.461C163.277 154.461 163.935 153.521 163.935 152.362C163.935 151.203 163.277 150.263 162.465 150.263C161.654 150.263 160.996 151.203 160.996 152.362C160.996 153.521 161.654 154.461 162.465 154.461Z" fill="#494949"/>
<path d="M185.555 154.461C186.366 154.461 187.024 153.521 187.024 152.362C187.024 151.203 186.366 150.263 185.555 150.263C184.743 150.263 184.085 151.203 184.085 152.362C184.085 153.521 184.743 154.461 185.555 154.461Z" fill="#494949"/>
<path d="M107.47 158.869C108.397 158.869 109.149 157.929 109.149 156.77C109.149 155.611 108.397 154.671 107.47 154.671C106.542 154.671 105.791 155.611 105.791 156.77C105.791 157.929 106.542 158.869 107.47 158.869Z" fill="#494949"/>
<path d="M140.214 166.845C139.584 166.845 138.955 166.216 138.955 165.586V159.919L109.778 152.362V157.19C109.778 157.82 109.148 158.449 108.519 158.449C107.889 158.449 107.259 157.82 107.259 157.19V151.103C107.259 150.683 107.469 150.473 107.679 150.263C107.889 150.053 108.309 150.053 108.729 150.053L140.214 158.03C140.844 158.239 141.054 158.659 141.054 159.079V165.586C141.263 166.426 140.844 166.845 140.214 166.845Z" fill="#160A03"/>
<path d="M109.359 159.709C110.286 159.709 111.038 158.769 111.038 157.61C111.038 156.451 110.286 155.511 109.359 155.511C108.432 155.511 107.68 156.451 107.68 157.61C107.68 158.769 108.432 159.709 109.359 159.709Z" fill="#494949"/>
<path d="M142.734 158.869C143.661 158.869 144.413 157.929 144.413 156.77C144.413 155.611 143.661 154.671 142.734 154.671C141.806 154.671 141.055 155.611 141.055 156.77C141.055 157.929 141.806 158.869 142.734 158.869Z" fill="#494949"/>
<path d="M110.617 166.845C109.987 166.845 109.357 166.216 109.357 165.586V159.079C109.357 158.449 109.777 158.03 110.197 158.03L141.682 150.053C142.102 150.053 142.312 150.053 142.732 150.263C142.942 150.473 143.152 150.893 143.152 151.103V157.19C143.152 157.82 142.522 158.449 141.892 158.449C141.263 158.449 140.633 157.82 140.633 157.19V152.572L111.456 160.129V165.796C111.666 166.426 111.247 166.845 110.617 166.845Z" fill="#160A03"/>
<path d="M142.732 157.61C142.732 156.56 141.893 155.511 141.053 155.511C140.214 155.511 139.374 156.35 139.374 157.61C139.374 157.61 139.374 157.61 139.374 157.82L140.633 158.239C141.263 158.449 141.473 158.869 141.473 159.289V159.709C142.103 159.289 142.732 158.449 142.732 157.61Z" fill="#494949"/>
<path d="M141.053 167.895C141.981 167.895 142.732 166.955 142.732 165.796C142.732 164.637 141.981 163.697 141.053 163.697C140.126 163.697 139.374 164.637 139.374 165.796C139.374 166.955 140.126 167.895 141.053 167.895Z" fill="#494949"/>
<path d="M109.568 167.895C110.495 167.895 111.247 166.955 111.247 165.796C111.247 164.637 110.495 163.697 109.568 163.697C108.64 163.697 107.889 164.637 107.889 165.796C107.889 166.955 108.64 167.895 109.568 167.895Z" fill="#494949"/>
<path d="M140.424 151.103C138.325 148.164 132.238 146.065 124.891 146.065C117.964 146.065 111.877 147.954 109.778 150.683H108.729V152.992C108.938 156.77 116.075 159.919 124.891 159.919C133.707 159.919 140.844 156.77 141.054 152.992V150.893L140.424 151.103Z" fill="#3F1D0B"/>
<path d="M125.1 158.24C134.026 158.24 141.262 155.045 141.262 151.103C141.262 147.162 134.026 143.967 125.1 143.967C116.174 143.967 108.938 147.162 108.938 151.103C108.938 155.045 116.174 158.24 125.1 158.24Z" fill="#5B2F12"/>
<path d="M125.101 157.61C133.563 157.61 140.424 154.697 140.424 151.103C140.424 147.509 133.563 144.596 125.101 144.596C116.638 144.596 109.778 147.509 109.778 151.103C109.778 154.697 116.638 157.61 125.101 157.61Z" fill="#210E05"/>
<path d="M158.055 110.591L149.869 115.209C146.511 109.542 136.016 105.344 123.631 105.344C112.087 105.344 102.011 108.912 98.0231 114.16L91.7261 110.591L104.32 140.817H104.53C105.999 145.015 114.605 148.374 124.681 148.374C134.966 148.374 143.362 145.015 144.831 140.817L158.055 110.591Z" fill="#EF9D43"/>
<path d="M125.103 133.261C122.584 133.261 120.485 132.422 119.015 130.743C116.287 127.384 117.126 122.137 117.126 121.927L119.225 122.346C119.225 122.346 118.596 126.964 120.695 129.483C121.744 130.743 123.213 131.162 125.103 131.162C126.992 131.162 128.251 130.533 129.091 129.483C130.98 126.964 129.72 122.137 129.72 122.137L131.819 121.507C131.819 121.717 133.289 127.384 130.77 130.743C129.51 132.422 127.621 133.261 125.103 133.261Z" fill="#5B2F12"/>
<path d="M126.149 132.632H124.05V158.24H126.149V132.632Z" fill="#5B2F12"/>
<path d="M145.252 125.915L138.955 147.325L138.535 149.004L136.436 156.141C137.486 155.721 138.325 155.301 138.955 154.672L140.214 150.474L140.634 149.004L147.351 126.545L145.252 125.915Z" fill="#5B2F12"/>
<path d="M145.253 128.014C145.043 128.014 145.043 128.014 144.833 128.014C143.993 128.014 143.363 127.594 142.734 126.754C141.474 124.445 143.154 119.408 143.573 118.568L145.672 119.408C144.833 121.297 143.993 124.655 144.623 125.705C144.623 125.705 144.833 125.915 145.043 125.915C145.882 125.915 146.932 125.495 147.981 124.445C150.08 122.556 152.389 119.198 152.389 115.629L154.698 115.839C154.488 120.037 151.969 124.235 149.451 126.334C147.981 127.384 146.512 128.014 145.253 128.014Z" fill="#5B2F12"/>
<path d="M104.949 125.915L111.246 147.325L111.666 149.004L113.765 156.141C112.716 155.721 111.876 155.301 111.246 154.672L109.987 150.474L109.567 149.004L102.85 126.545L104.949 125.915Z" fill="#5B2F12"/>
<path d="M104.949 128.014C103.69 128.014 102.22 127.384 100.751 126.124C98.2322 124.025 95.7133 120.037 95.5034 115.629L97.8123 115.419C98.0222 118.988 100.121 122.346 102.22 124.235C103.27 125.285 104.529 125.705 105.159 125.705C105.369 125.705 105.369 125.705 105.579 125.495C106.208 124.445 105.369 121.087 104.529 119.198L106.628 118.358C107.048 119.408 108.937 124.235 107.468 126.544C107.048 127.174 106.418 127.594 105.369 127.804C105.159 128.014 105.159 128.014 104.949 128.014Z" fill="#5B2F12"/>
<path d="M125.101 122.136C143.417 122.136 158.266 115.464 158.266 107.233C158.266 99.0024 143.417 92.3301 125.101 92.3301C106.785 92.3301 91.9365 99.0024 91.9365 107.233C91.9365 115.464 106.785 122.136 125.101 122.136Z" fill="#77421B"/>
<path d="M125.099 123.186C105.998 123.186 90.8848 116.05 90.8848 107.234C90.8848 98.4179 105.788 91.2812 125.099 91.2812C144.41 91.2812 159.313 98.4179 159.313 107.234C159.313 116.05 144.2 123.186 125.099 123.186ZM125.099 93.1704C107.677 93.1704 92.9838 99.4674 92.9838 107.024C92.9838 114.58 107.677 120.878 125.099 120.878C142.521 120.878 157.214 114.58 157.214 107.024C157.214 99.4674 142.521 93.1704 125.099 93.1704Z" fill="#77421B"/>
<path d="M125.101 120.037C106.21 120.037 92.9858 113.32 92.9858 107.233C92.9858 101.146 106.21 94.2192 125.101 94.2192C143.992 94.2192 157.216 100.936 157.216 107.023C157.216 113.11 143.992 120.037 125.101 120.037Z" fill="#FFFCE6"/>
<path d="M125.103 118.568C108.311 118.568 96.5562 112.481 96.5562 107.024C96.5562 101.566 108.311 95.479 125.103 95.479C141.895 95.479 153.65 101.566 153.65 107.024C153.65 112.481 141.895 118.568 125.103 118.568Z" fill="#FFE8C0"/>
<path d="M111.458 168.735C112.385 168.735 113.137 167.795 113.137 166.636C113.137 165.476 112.385 164.537 111.458 164.537C110.531 164.537 109.779 165.476 109.779 166.636C109.779 167.795 110.531 168.735 111.458 168.735Z" fill="#494949"/>
<path d="M139.165 168.735C140.092 168.735 140.844 167.795 140.844 166.636C140.844 165.476 140.092 164.537 139.165 164.537C138.237 164.537 137.485 165.476 137.485 166.636C137.485 167.795 138.237 168.735 139.165 168.735Z" fill="#494949"/>
<path d="M59.1927 49.7198C58.9828 49.7198 58.9828 49.7198 58.7729 49.7198C58.1432 49.5099 57.9333 48.8802 58.1432 48.4604L74.7255 6.26994C74.9354 5.64024 75.5651 5.43033 75.9849 5.64024C76.4047 5.85014 76.8245 6.47985 76.6146 6.89965L60.0323 48.8802C60.0323 49.3 59.6125 49.7198 59.1927 49.7198Z" fill="#FCD79D"/>
<path d="M73.4645 12.7769L73.0447 12.567C71.1555 11.7274 70.3159 9.62837 71.1555 7.73925L73.6744 2.07188C74.3041 0.182755 76.4031 -0.656855 78.2922 -0.0271478L78.712 0.182755C80.6012 1.02236 81.4408 3.12139 80.6012 5.01051L78.0823 10.6779C77.4526 12.567 75.3536 13.6165 73.4645 12.7769Z" fill="white"/>
<path d="M198.148 80.9958C197.728 80.9958 197.308 80.576 197.098 80.1562L187.233 35.8668C187.023 35.237 187.443 34.8172 188.072 34.6073C188.702 34.3974 189.122 34.8172 189.332 35.4469L199.197 79.7364C199.407 80.3661 198.987 80.7859 198.358 80.9958H198.148Z" fill="#FCD79D"/>
<path d="M190.173 42.1632H189.753C187.864 42.583 185.765 41.3236 185.555 39.2245L184.295 33.1374C183.875 31.2483 185.135 29.1492 187.234 28.9393H187.654C189.543 28.5195 191.642 29.7789 191.852 31.878L193.111 37.9651C193.321 39.8543 192.062 41.7434 190.173 42.1632Z" fill="white"/>
<path d="M57.5133 42.793C57.5133 42.793 64.4401 45.1019 64.65 49.2999C64.8599 53.498 60.8718 58.1159 56.2539 58.1159" fill="#B189E0"/>
<path d="M56.2542 58.7454C55.8344 58.7454 55.6245 58.5355 55.6245 58.1157C55.6245 57.6959 55.8344 57.486 56.2542 57.486C58.1433 57.486 60.0325 56.4365 61.7117 54.9671C63.181 53.2879 64.2305 51.1889 64.0206 49.2998C63.8107 45.5215 57.5136 43.4225 57.3037 43.4225C57.0938 43.2126 56.8839 43.0027 56.8839 42.5829C57.0938 42.373 57.3037 42.1631 57.7235 42.1631C57.9334 42.1631 65.0701 44.6819 65.28 49.0899C65.28 51.3988 64.4404 53.7077 62.5513 55.5968C60.8721 57.486 58.5631 58.5355 56.2542 58.7454Z" fill="#7858A5"/>
<path d="M198.149 84.9832C198.149 84.9832 194.37 82.4644 195 79.9455C195.63 77.4267 198.778 75.1178 201.507 75.9574" fill="#B189E0"/>
<path d="M198.148 85.4035C198.148 85.4035 197.938 85.4035 198.148 85.4035C197.728 85.1936 193.95 82.6748 194.579 79.9461C194.789 78.6867 195.839 77.2173 197.308 76.3777C198.568 75.5381 200.247 75.3282 201.506 75.5381C201.716 75.5381 201.926 75.748 201.716 75.9579C201.506 76.1678 201.506 76.3777 201.296 76.1678C200.247 75.9579 198.777 76.1678 197.728 76.7975C196.469 77.6371 195.629 78.6867 195.419 79.9461C194.999 82.255 198.358 84.5639 198.568 84.5639C198.777 84.7738 198.777 84.9837 198.568 84.9837C198.358 85.4035 198.358 85.4035 198.148 85.4035Z" fill="#7858A5"/>
<path d="M139.164 111.431C139.164 111.431 140.634 113.321 138.325 113.95C136.226 114.58 128.249 112.271 127.62 111.641C126.99 111.012 126.99 108.913 128.249 108.913C129.509 108.913 139.164 111.431 139.164 111.431Z" fill="#E5B97A"/>
<path d="M127.83 110.802L105.37 105.974L107.469 104.924L127.41 109.752" fill="#E5B97A"/>
<path d="M95.2953 75.7477C86.6893 77.0071 76.1941 86.8725 80.812 95.6884C84.8001 103.245 99.4933 110.591 110.618 105.134C121.743 99.8865 124.262 91.4904 129.929 91.2805C135.387 90.8606 125.521 71.5496 95.2953 75.7477Z" fill="#BE91F3"/>
<path d="M102.432 83.9342C94.8756 82.8846 96.6256 79.893 94.3167 75.9048C81.3027 78.4236 77.6636 89.6015 80.8121 95.6887C84.8003 103.245 99.4934 110.592 110.618 105.134C121.743 99.8868 124.262 91.4907 129.929 91.2807C131.818 91.0708 131.818 88.552 129.719 85.6134C115.656 79.1064 112.927 85.4035 102.432 83.9342Z" fill="#AF81E6"/>
<path d="M114.816 102.195L106.21 99.2568L105.161 100.096C105.161 100.096 106.84 103.245 110.408 105.344C112.087 104.504 113.347 103.665 114.816 102.825C114.816 102.405 114.816 102.195 114.816 102.195Z" fill="#9B78CE"/>
<path d="M127.619 106.393L127.829 105.973C128.458 104.084 130.557 103.035 132.446 103.665L138.324 105.764C140.213 106.393 141.262 108.492 140.633 110.381L140.423 110.801C139.793 112.69 137.694 113.74 135.805 113.11L129.928 111.011C128.038 110.381 126.989 108.282 127.619 106.393Z" fill="white"/>
<path d="M134.547 107.232L106.63 98.2065C104.95 98.6263 104.95 99.466 105.16 99.8858L133.917 109.121C134.127 109.121 134.127 109.121 134.337 109.121C134.757 109.121 135.176 108.912 135.386 108.492C135.386 107.862 134.966 107.232 134.547 107.232Z" fill="#FCD79D"/>
<path d="M230 41C232.761 41 235 38.7614 235 36C235 33.2386 232.761 31 230 31C227.239 31 225 33.2386 225 36C225 38.7614 227.239 41 230 41Z" fill="#57BEB7"/>
<path d="M50 16C51.1046 16 52 15.1046 52 14C52 12.8954 51.1046 12 50 12C48.8954 12 48 12.8954 48 14C48 15.1046 48.8954 16 50 16Z" fill="#ECCD52"/>
<path d="M216 63C217.105 63 218 62.1046 218 61C218 59.8954 217.105 59 216 59C214.895 59 214 59.8954 214 61C214 62.1046 214.895 63 216 63Z" fill="#ECCD52"/>
<path d="M24.5 58C26.9853 58 29 55.9853 29 53.5C29 51.0147 26.9853 49 24.5 49C22.0147 49 20 51.0147 20 53.5C20 55.9853 22.0147 58 24.5 58Z" fill="#DC4C7C"/>
</g>
<defs>
<clipPath id="clip0_4161_85218">
<rect width="250" height="168" fill="white"/>
</clipPath>
</defs>
</svg>
