<svg width="340" height="47" viewBox="0 0 340 47" fill="none" xmlns="http://www.w3.org/2000/svg">
<g clip-path="url(#clip0_3894_83537)">
<path d="M3.20813 16.8887V10.8446C3.20813 10.1158 3.40755 9.61399 3.81505 9.33906C4.25619 9.06527 4.76424 8.92028 5.28248 8.92028C5.80072 8.92028 6.30877 9.06527 6.74991 9.33906C6.9697 9.51616 7.14165 9.74609 7.24999 10.0077C7.35832 10.2693 7.39952 10.5541 7.36979 10.8359V16.8887H8.88707V10.8446C8.88707 10.1158 9.08649 9.61399 9.49399 9.33906C9.93513 9.06527 10.4432 8.92028 10.9614 8.92028C11.4797 8.92028 11.9877 9.06527 12.4288 9.33906C12.6486 9.51616 12.8206 9.74609 12.929 10.0077C13.0373 10.2693 13.0785 10.5541 13.0488 10.8359V16.8887H18.4676C18.7286 16.8611 18.9923 16.8962 19.2372 16.991C19.4821 17.0858 19.7012 17.2377 19.8765 17.4342C20.1432 17.7767 20.2882 18.1992 20.2883 18.6343C20.2889 19.0759 20.1355 19.5037 19.8548 19.8431C19.6794 20.0354 19.462 20.1839 19.2197 20.2771C18.9775 20.3702 18.717 20.4054 18.459 20.3799H1.81225C1.55355 20.4051 1.29254 20.3698 1.04964 20.2767C0.806746 20.1836 0.588547 20.0352 0.412028 19.8431C0.131015 19.5039 -0.0224522 19.076 -0.0214798 18.6343C-0.0172161 18.1962 0.13575 17.7728 0.412028 17.4342C0.586682 17.2368 0.805674 17.0844 1.05075 16.9895C1.29583 16.8946 1.5599 16.86 1.82093 16.8887H3.20813ZM14.2192 13.0266C14.4926 12.1096 14.6884 11.1709 14.8045 10.2206C14.9717 8.90805 15.0514 7.58571 15.0429 6.26245V5.28056C15.0474 5.13202 14.9963 4.98719 14.8998 4.87471C14.8495 4.81955 14.7876 4.77642 14.7186 4.74848C14.6496 4.72054 14.5753 4.7085 14.501 4.71324H2.79632C2.49896 4.71981 2.20355 4.66331 1.9293 4.54741C1.69795 4.44798 1.49085 4.29907 1.32238 4.11101C1.16203 3.93773 1.03949 3.7326 0.962591 3.50879C0.885213 3.28875 0.845623 3.05706 0.845535 2.82364C0.847161 2.59605 0.886735 2.37035 0.962591 2.15595C1.0406 1.93397 1.16304 1.73047 1.32238 1.55809C1.49085 1.37003 1.69795 1.22112 1.9293 1.12169C2.20387 1.00729 2.49927 0.95228 2.79632 0.960226H15.9012C17.1584 0.960226 18.0688 1.24388 18.589 1.83302C19.1595 2.50435 19.4473 3.37334 19.391 4.25503V6.29737C19.411 7.88195 19.3023 9.46553 19.0659 11.0323C18.8935 12.1583 18.6028 13.2628 18.1989 14.3271C18.0904 14.6148 17.9249 14.8773 17.7125 15.0986C17.5001 15.3199 17.2452 15.4954 16.9633 15.6144C16.3448 15.8675 15.6527 15.8675 15.0342 15.6144C14.7845 15.5313 14.5624 15.3803 14.3926 15.1781C14.2457 14.9959 14.1419 14.7825 14.0892 14.554C14.0369 14.3149 14.0223 14.0689 14.0458 13.8252C14.0678 13.5524 14.1262 13.2838 14.2192 13.0266Z" fill="white"/>
<path d="M28.2432 11.4553C27.404 11.463 26.5669 11.3677 25.7505 11.1717C25.0582 11.015 24.4048 10.718 23.8301 10.2989C23.2964 9.89429 22.8716 9.36173 22.5946 8.74968C22.2857 8.0316 22.1377 7.25384 22.1611 6.47168V5.64253C22.1378 4.85896 22.2857 4.07979 22.5946 3.36017C22.8729 2.74889 23.2974 2.21661 23.8301 1.81096C24.4057 1.3934 25.0588 1.09659 25.7505 0.938161C27.3911 0.559985 29.0953 0.559985 30.7359 0.938161C31.426 1.09748 32.0776 1.39424 32.652 1.81096C33.1847 2.21661 33.6092 2.74889 33.8875 3.36017C34.1964 4.07979 34.3443 4.85896 34.321 5.64253V6.47168C34.3444 7.25384 34.1964 8.0316 33.8875 8.74968C33.6105 9.36173 33.1857 9.89429 32.652 10.2989C32.0784 10.7172 31.4266 11.0141 30.7359 11.1717C29.9195 11.3675 29.0824 11.4627 28.2432 11.4553ZM22.9978 16.6048C22.994 16.0397 23.0894 15.4783 23.2796 14.9465C23.4578 14.437 23.7415 13.9714 24.1119 13.5806C24.5086 13.1783 24.986 12.8659 25.5122 12.6642C26.1429 12.4288 26.812 12.3148 27.4846 12.3281H36.6533C37.318 12.3156 37.9793 12.4266 38.6041 12.6554C39.1325 12.8515 39.613 13.1596 40.013 13.5588C40.3951 13.9469 40.6907 14.4125 40.88 14.9247C41.2556 16.0129 41.2556 17.1968 40.88 18.285C40.6917 18.7964 40.396 19.2608 40.013 19.6465C39.614 20.0481 39.1334 20.3577 38.6041 20.5542C37.9793 20.7831 37.318 20.894 36.6533 20.8815H27.4846C26.8115 20.8957 26.1421 20.7801 25.5122 20.5411C24.9843 20.3426 24.5063 20.0298 24.1119 19.6247C23.7418 19.2387 23.458 18.7774 23.2796 18.2719C23.0869 17.7378 22.9914 17.173 22.9978 16.6048ZM28.2432 8.31328C28.7244 8.33905 29.1995 8.19557 29.5871 7.90743C29.7619 7.7479 29.8978 7.54994 29.9843 7.32894C30.0707 7.10794 30.1054 6.86983 30.0856 6.63315V5.42433C30.1034 5.18912 30.0678 4.95292 29.9814 4.73365C29.8951 4.51437 29.7602 4.31778 29.5871 4.15877C29.1904 3.88843 28.7223 3.74393 28.2432 3.74393C27.7641 3.74393 27.2961 3.88843 26.8994 4.15877C26.7255 4.31717 26.5901 4.51367 26.5037 4.7331C26.4172 4.95254 26.382 5.18903 26.4008 5.42433V6.64624C26.38 6.88302 26.4142 7.12142 26.5007 7.34259C26.5872 7.56376 26.7237 7.76162 26.8994 7.92052C27.2855 8.21243 27.7609 8.3591 28.2432 8.3351V8.31328ZM27.3762 16.6048C27.381 16.8967 27.4715 17.1807 27.6363 17.4209C27.7505 17.5673 27.9003 17.6815 28.0711 17.7526C28.242 17.8237 28.4282 17.8492 28.6117 17.8267H35.4828C35.6664 17.8492 35.8525 17.8237 36.0234 17.7526C36.1942 17.6815 36.344 17.5673 36.4582 17.4209C36.623 17.1807 36.7135 16.8967 36.7183 16.6048C36.7128 16.3117 36.6224 16.0265 36.4582 15.7844C36.343 15.6395 36.1929 15.5265 36.0222 15.4563C35.8515 15.386 35.6659 15.3608 35.4828 15.3829H28.6117C28.4286 15.3608 28.243 15.386 28.0723 15.4563C27.9016 15.5265 27.7515 15.6395 27.6363 15.7844C27.4797 16.0289 27.397 16.3139 27.3979 16.6048H27.3762ZM36.4799 2.48737C36.4578 2.18802 36.5028 1.88749 36.6116 1.608C36.7204 1.32852 36.8902 1.07723 37.1085 0.872701C37.5146 0.52832 38.0264 0.335847 38.5573 0.327893C39.0882 0.31994 39.6056 0.496997 40.0216 0.829062C40.2332 1.00912 40.4038 1.23284 40.522 1.48507C40.6402 1.73729 40.7031 2.01214 40.7066 2.29099H41.4002C41.674 2.28383 41.9466 2.33129 42.2022 2.43064C42.3996 2.51133 42.5717 2.64397 42.7007 2.81467C42.8164 2.97922 42.9003 3.1643 42.9478 3.36017C43.0004 3.5669 43.0266 3.77954 43.0258 3.99294C43.0269 4.20205 43.0007 4.4104 42.9478 4.61263C42.8968 4.80696 42.8085 4.98933 42.6877 5.1494C42.5556 5.31578 42.3842 5.44629 42.1892 5.52906C41.9393 5.63293 41.6703 5.68202 41.4002 5.67307H40.7283V6.82953H41.4002C41.674 6.82236 41.9466 6.86982 42.2022 6.96917C42.3996 7.04986 42.5717 7.1825 42.7007 7.3532C42.8156 7.51821 42.8994 7.70313 42.9478 7.8987C43.0004 8.10543 43.0266 8.31807 43.0258 8.53148C43.0269 8.74059 43.0007 8.94893 42.9478 9.15116C42.8968 9.34549 42.8085 9.52786 42.6877 9.68793C42.5556 9.85431 42.3842 9.98482 42.1892 10.0676C41.9393 10.1715 41.6703 10.2206 41.4002 10.2116H40.7283C40.7271 10.6337 40.56 11.0382 40.2635 11.3366C39.967 11.6351 39.5652 11.8033 39.1459 11.8045H38.0622C37.8544 11.8045 37.6486 11.7633 37.4566 11.6832C37.2647 11.6032 37.0903 11.4858 36.9433 11.3379C36.7964 11.19 36.6798 11.0144 36.6003 10.8212C36.5208 10.6279 36.4799 10.4208 36.4799 10.2116V2.48737Z" fill="white"/>
<path d="M65.9797 9.90639C66.2042 9.88224 66.4313 9.91196 66.6423 9.99312C66.8532 10.0743 67.0421 10.2046 67.1935 10.3733C67.4191 10.6719 67.5409 11.0368 67.5403 11.412C67.5439 11.7924 67.4168 12.1624 67.1805 12.4593C67.0274 12.6204 66.8393 12.7436 66.6309 12.8194C66.4226 12.8951 66.1997 12.9212 65.9797 12.8957H59.5854V13.7685H62.9885C63.5869 13.7564 64.1832 13.8449 64.7528 14.0303C65.2147 14.1813 65.637 14.4348 65.9883 14.7722C66.3096 15.0854 66.5544 15.4693 66.7036 15.8938C66.8608 16.3542 66.9385 16.8383 66.9334 17.3251C66.9389 17.8106 66.8611 18.2933 66.7036 18.7522C66.5544 19.1779 66.3097 19.5632 65.9883 19.8781C65.6358 20.214 65.2139 20.4673 64.7528 20.6199C64.1832 20.8054 63.5869 20.8938 62.9885 20.8818H51.8039C51.204 20.8942 50.6062 20.8057 50.0352 20.6199C49.5742 20.4673 49.1523 20.214 48.7998 19.8781C48.4784 19.5632 48.2336 19.1779 48.0845 18.7522C47.9284 18.2931 47.8521 17.8103 47.859 17.3251C47.8525 16.8386 47.9287 16.3544 48.0845 15.8938C48.2337 15.4693 48.4785 15.0854 48.7998 14.7722C49.1511 14.4348 49.5734 14.1813 50.0352 14.0303C50.6062 13.8446 51.204 13.7561 51.8039 13.7685H55.207V12.8957H48.8128C48.5921 12.9212 48.3685 12.8951 48.1595 12.8194C47.9505 12.7437 47.7616 12.6205 47.6076 12.4593C47.3725 12.162 47.2469 11.7919 47.2521 11.412C47.2495 11.0365 47.3716 10.671 47.5989 10.3733C47.7498 10.204 47.9387 10.0733 48.1498 9.99212C48.3609 9.91091 48.5882 9.88152 48.8128 9.90639H65.9797ZM55.1853 1.5712C55.2005 1.32969 55.272 1.09519 55.394 0.88669C55.516 0.678189 55.6851 0.501557 55.8876 0.371107C56.3605 0.104302 56.898 -0.0241746 57.4395 0.000169534C57.977 -0.0250059 58.5106 0.103604 58.9785 0.371107C59.178 0.50403 59.3443 0.681448 59.4646 0.88958C59.5849 1.09771 59.6559 1.33096 59.6721 1.5712H64.9609C65.1942 1.54946 65.4294 1.57494 65.6528 1.64614C65.8761 1.71734 66.0831 1.83282 66.2615 1.98578C66.3918 2.12589 66.4933 2.29054 66.5603 2.47028C66.6272 2.65001 66.6583 2.84129 66.6516 3.03313C66.6575 3.22599 66.6249 3.41809 66.5556 3.59801C66.4864 3.77793 66.3819 3.942 66.2484 4.08048C66.0713 4.23648 65.8651 4.35541 65.6418 4.43033C65.4185 4.50525 65.1826 4.53468 64.9479 4.51688H59.4207C59.3903 4.66089 59.3557 4.8049 59.321 4.95328C59.2863 5.10165 59.2473 5.22821 59.2039 5.35913L59.9842 5.27185C60.236 5.24243 60.4894 5.22786 60.7429 5.22821C61.4915 5.22423 62.2389 5.28996 62.9754 5.42459C63.6363 5.54467 64.2751 5.7654 64.8699 6.07919C65.4409 6.38351 65.9463 6.79882 66.3568 7.3011C66.4915 7.47359 66.5751 7.68087 66.5979 7.89907C66.6208 8.11728 66.582 8.33754 66.4859 8.53451C66.3899 8.73148 66.2406 8.89716 66.0552 9.01248C65.8697 9.12779 65.6557 9.18806 65.4378 9.18634H63.435C63.2849 9.18182 63.1371 9.14749 63.0003 9.08533C62.8634 9.02317 62.74 8.93441 62.6373 8.82413C62.3128 8.51015 61.9256 8.26917 61.5015 8.11716C60.7862 7.83854 60.0272 7.69076 59.2603 7.68076C58.9265 7.68076 58.5667 7.68076 58.1765 7.7244C57.7837 7.75166 57.3928 7.80267 57.006 7.87714C56.4454 8.20661 55.849 8.47017 55.2287 8.66266C54.5705 8.86656 53.8961 9.01258 53.2128 9.09905C52.5184 9.18639 51.8188 9.22576 51.119 9.21688C50.4419 9.2134 49.7657 9.16675 49.0945 9.07724C48.8675 9.05428 48.6475 8.98521 48.4479 8.87419C48.2482 8.76318 48.0729 8.61253 47.9327 8.43137C47.7974 8.23956 47.7068 8.01945 47.6678 7.78746C47.6287 7.55548 47.6422 7.31761 47.7073 7.09163C47.7411 6.89015 47.8199 6.69903 47.9378 6.53271C48.0557 6.36639 48.2096 6.22922 48.3879 6.13155C48.7665 5.93884 49.1979 5.87747 49.6148 5.957C50.2587 6.07145 50.9117 6.1255 51.5655 6.11846C52.1298 6.12032 52.6925 6.05885 53.2432 5.93517C53.7048 5.83481 54.145 5.6531 54.5437 5.39841C54.8853 5.17973 55.1563 4.8659 55.324 4.49506H49.8185C49.5838 4.51213 49.3482 4.48236 49.125 4.40747C48.9018 4.33258 48.6955 4.21405 48.518 4.05867C48.3851 3.91997 48.2813 3.75575 48.2127 3.57582C48.1442 3.39588 48.1124 3.2039 48.1191 3.01131C48.1124 2.81947 48.1435 2.62819 48.2105 2.44846C48.2774 2.26872 48.379 2.10407 48.5093 1.96396C48.687 1.80993 48.8938 1.69378 49.1174 1.62252C49.3409 1.55126 49.5765 1.52638 49.8098 1.54938L55.1853 1.5712ZM61.6229 18.0016C61.8791 18.0332 62.1377 17.9662 62.3469 17.8139C62.4095 17.7496 62.4583 17.673 62.4903 17.589C62.5224 17.5049 62.537 17.4151 62.5332 17.3251C62.5366 17.2346 62.5218 17.1442 62.4898 17.0595C62.4578 16.9748 62.4092 16.8974 62.3469 16.832C62.136 16.6836 61.8784 16.6184 61.6229 16.6487H53.1825C52.9256 16.6177 52.6664 16.683 52.4542 16.832C52.3927 16.8978 52.3449 16.9753 52.3136 17.06C52.2823 17.1447 52.2683 17.2349 52.2722 17.3251C52.2678 17.4148 52.2818 17.5044 52.3131 17.5885C52.3444 17.6725 52.3924 17.7492 52.4542 17.8139C52.6647 17.9668 52.9249 18.0339 53.1825 18.0016H61.6229Z" fill="white"/>
<path d="M77.5547 4.55154V5.42434C77.5547 5.58144 77.5547 5.72691 77.5547 5.86074C77.5547 6.00475 77.5547 6.15312 77.5244 6.29713C79.1428 6.4426 80.3422 7.02446 81.1225 8.04272C81.5658 8.63985 81.8723 9.32838 82.0199 10.0589C82.087 10.3562 82.0866 10.6649 82.0189 10.962C81.9512 11.2592 81.8178 11.5372 81.6288 11.7753C81.4397 12.0135 81.1997 12.2057 80.9267 12.3377C80.6537 12.4696 80.3546 12.538 80.0517 12.5376C79.6094 12.5359 79.1798 12.3882 78.829 12.117C78.4782 11.8458 78.2254 11.4662 78.1096 11.0364C78.0487 10.8171 77.9613 10.606 77.8495 10.408C77.7185 10.1589 77.5336 9.94258 77.3085 9.77492C77.0835 9.60726 76.8239 9.49254 76.549 9.43919C76.2536 9.9364 75.8966 10.3939 75.4869 10.8008C75.0978 11.1936 74.6608 11.5353 74.1864 11.8176C73.7148 12.0902 73.2128 12.3056 72.6908 12.4591C72.1832 12.609 71.6589 12.6941 71.1302 12.7122C70.6278 12.7522 70.1294 12.596 69.7386 12.2758C69.4066 11.9762 69.1941 11.5654 69.1407 11.1198C69.0873 10.6742 69.1965 10.2243 69.4481 9.85377C69.6981 9.53745 70.0602 9.33097 70.4582 9.27773C70.9024 9.21589 71.3302 9.0665 71.717 8.83812C72.1038 8.60973 72.4421 8.30682 72.7125 7.94671C73.2392 7.21096 73.5132 6.32231 73.4928 5.41561V4.55154H70.8917C70.653 4.55632 70.4172 4.49922 70.2068 4.38571C70.016 4.27654 69.8505 4.12778 69.7213 3.94932C69.5902 3.78283 69.4876 3.59552 69.4178 3.39509C69.3191 3.21166 69.2531 3.01228 69.2227 2.80595C69.2235 2.60212 69.2527 2.39941 69.3094 2.20372C69.366 1.99538 69.4616 1.79985 69.5912 1.62768C69.7245 1.44807 69.8945 1.29927 70.0897 1.19128C70.3082 1.06932 70.5553 1.00902 70.805 1.01672H80.4939C80.7435 1.01008 80.9904 1.07032 81.2092 1.19128C81.4036 1.30045 81.5734 1.44905 81.7078 1.62768C81.8357 1.80087 81.9311 1.99607 81.9895 2.20372C82.0444 2.3998 82.0736 2.60226 82.0762 2.80595C82.0736 3.0142 82.037 3.2206 81.9679 3.41691C81.8962 3.61655 81.7938 3.80358 81.6644 3.97113C81.5335 4.1498 81.3666 4.29853 81.1745 4.40753C80.9637 4.51349 80.7293 4.56308 80.4939 4.55154H77.5547ZM73.6965 20.8073C73.1881 20.8179 72.6806 20.7592 72.1879 20.6328C71.8272 20.547 71.4993 20.3566 71.245 20.0851C70.9908 19.8136 70.8212 19.473 70.7574 19.1054C70.6557 18.6177 70.6092 18.1199 70.6186 17.6216V15.5138C70.5928 15.2081 70.6391 14.9006 70.7536 14.6162C70.8681 14.3319 71.0476 14.0787 71.2775 13.8774C71.7267 13.526 72.2824 13.341 72.8512 13.3537C73.4099 13.3373 73.9559 13.5231 74.3901 13.8774C74.6109 14.0846 74.7821 14.3396 74.891 14.623C74.9998 14.9064 75.0435 15.211 75.0187 15.5138V16.8885C75.0187 17.1329 75.0534 17.2856 75.1271 17.3249C75.2746 17.399 75.44 17.4293 75.6039 17.4122H87.3737C87.6315 17.3859 87.8919 17.4181 88.1357 17.5065C88.3795 17.5948 88.6006 17.7371 88.7826 17.9228C89.0592 18.2492 89.2127 18.6633 89.2161 19.0923C89.2188 19.5277 89.0648 19.9493 88.7826 20.2793C88.6035 20.4655 88.3849 20.6085 88.1432 20.6977C87.9015 20.7869 87.6429 20.8199 87.3867 20.7943L73.6965 20.8073ZM84.3174 8.19546H83.095C82.8127 8.20463 82.5318 8.15253 82.2713 8.04272C82.0675 7.95197 81.8857 7.81799 81.7381 7.64996C81.5985 7.48632 81.499 7.29202 81.4476 7.08265C81.3891 6.86948 81.3599 6.64922 81.3609 6.42805C81.3596 6.20973 81.3887 5.99231 81.4476 5.78218C81.5034 5.57618 81.5991 5.38336 81.7294 5.21487C81.87 5.03911 82.0517 4.90117 82.2583 4.81338C82.523 4.70237 82.8084 4.65027 83.095 4.66064H84.3305V2.43502C84.3102 2.13838 84.3584 1.84105 84.4712 1.56625C84.584 1.29145 84.7584 1.04662 84.9807 0.850893C85.4012 0.50131 85.931 0.31272 86.4763 0.318488C86.7496 0.319105 87.0208 0.366322 87.2783 0.458135C87.5317 0.550666 87.7666 0.688117 87.9719 0.863985C88.1779 1.04524 88.3433 1.26833 88.4575 1.51858C88.5857 1.80655 88.6494 2.11946 88.6439 2.43502V13.5806C88.6439 14.1593 88.4155 14.7143 88.009 15.1235C87.6025 15.5327 87.0512 15.7626 86.4763 15.7626C85.9015 15.7626 85.3502 15.5327 84.9437 15.1235C84.5372 14.7143 84.3088 14.1593 84.3088 13.5806L84.3174 8.19546Z" fill="white"/>
<path d="M91.9687 20.9033C92.2078 20.775 92.4062 20.5814 92.5409 20.3447C92.6836 20.0892 92.7554 19.7998 92.749 19.5068C92.2059 19.4749 91.6916 19.2508 91.2968 18.874C91.111 18.6768 90.9671 18.4435 90.8739 18.1884C90.7807 17.9333 90.7402 17.6617 90.7549 17.3903C90.7397 17.0962 90.7881 16.8023 90.8966 16.5288C91.0051 16.2554 91.1712 16.0088 91.3834 15.8062C91.8459 15.406 92.4433 15.1998 93.0524 15.2301C93.3553 15.2115 93.6586 15.2571 93.9428 15.364C94.2271 15.4709 94.4859 15.6366 94.7024 15.8505C94.919 16.0644 95.0885 16.3217 95.2001 16.6058C95.3116 16.8898 95.3627 17.1942 95.35 17.4994V17.6958C95.3998 18.771 95.1522 19.8391 94.6347 20.7811C94.212 21.5135 93.5547 22.0797 92.7706 22.387C92.5875 22.4563 92.3991 22.5103 92.2071 22.5485C92.0279 22.581 91.8444 22.581 91.6652 22.5485C91.4712 22.5154 91.2865 22.441 91.1233 22.3303C91.0331 22.2599 90.9647 22.165 90.9263 22.0567C90.8879 21.9485 90.881 21.8314 90.9066 21.7193C90.9147 21.5557 90.98 21.4001 91.0911 21.2803C91.2022 21.1605 91.3519 21.0841 91.5135 21.0648C91.5829 21.0344 91.6557 21.0124 91.7303 20.9993C91.813 20.9763 91.893 20.9441 91.9687 20.9033Z" fill="white"/>
<path d="M103.5 10.6045V9.42623C102.898 9.42388 102.301 9.32367 101.731 9.12948C101.265 8.96903 100.839 8.70845 100.483 8.36579C100.152 8.04035 99.8978 7.64544 99.737 7.20933C99.5683 6.74538 99.4846 6.2545 99.4898 5.76049C99.4934 5.42381 99.5596 5.09077 99.6849 4.7786C99.356 4.70054 99.0636 4.51103 98.8569 4.24183C98.6526 3.92116 98.5581 3.54201 98.5879 3.16222C98.6176 2.78244 98.77 2.42288 99.0217 2.1384C99.1939 1.98434 99.395 1.86641 99.6131 1.79148C99.8312 1.71655 100.062 1.68613 100.292 1.702H103.37C103.386 1.46125 103.455 1.22705 103.571 1.01592C103.687 0.804797 103.848 0.621884 104.042 0.480086C104.481 0.199809 104.996 0.0626695 105.516 0.0873289C106.031 0.0625228 106.542 0.19978 106.977 0.480086C107.167 0.623816 107.325 0.807453 107.439 1.01838C107.553 1.22931 107.62 1.46252 107.635 1.702H110.718C110.947 1.68672 111.177 1.71743 111.394 1.79234C111.611 1.86726 111.812 1.98489 111.984 2.1384C112.131 2.29073 112.246 2.47208 112.32 2.67108C112.395 2.87007 112.428 3.08243 112.417 3.29485C112.429 3.6324 112.325 3.96371 112.122 4.2331C111.917 4.48346 111.643 4.66595 111.333 4.75678C111.459 5.07618 111.524 5.41678 111.524 5.76049C111.529 6.2545 111.446 6.74538 111.277 7.20933C111.116 7.64544 110.861 8.04035 110.531 8.36579C110.175 8.70845 109.749 8.96903 109.283 9.12948C108.713 9.32367 108.116 9.42388 107.514 9.42623V10.6045H110.943C111.198 10.5785 111.456 10.6079 111.699 10.6907C111.942 10.7735 112.165 10.9078 112.352 11.0845C112.622 11.4127 112.77 11.8256 112.77 12.2519C112.77 12.6782 112.622 13.0911 112.352 13.4193C112.167 13.5947 111.946 13.7283 111.706 13.8111C111.465 13.8939 111.209 13.924 110.956 13.8993H100.435C100.18 13.9234 99.9224 13.893 99.6796 13.8103C99.4369 13.7276 99.2142 13.5944 99.026 13.4193C98.7363 13.0973 98.5811 12.6753 98.5925 12.241C98.5853 11.814 98.7404 11.4003 99.026 11.0845C99.2157 10.9077 99.4406 10.7735 99.6857 10.6907C99.9309 10.6079 100.191 10.5786 100.448 10.6045H103.5ZM103.391 20.8162C102.883 20.8268 102.376 20.7681 101.883 20.6416C101.522 20.5559 101.194 20.3654 100.94 20.0939C100.686 19.8224 100.516 19.4818 100.452 19.1143C100.351 18.6265 100.304 18.1288 100.314 17.6305V16.6923C100.282 16.3969 100.326 16.0984 100.442 15.8251C100.557 15.5517 100.74 15.3124 100.972 15.1299C101.44 14.8293 101.987 14.6772 102.542 14.6936C103.089 14.6691 103.63 14.822 104.085 15.1299C104.307 15.3175 104.479 15.5567 104.588 15.8266C104.697 16.0966 104.738 16.3893 104.709 16.6792V16.9192C104.709 17.1636 104.748 17.3207 104.818 17.3556C104.966 17.4305 105.133 17.4608 105.299 17.4429H116.657C116.914 17.4155 117.174 17.4463 117.418 17.5331C117.661 17.62 117.883 17.7606 118.066 17.9447C118.301 18.1965 118.455 18.515 118.505 18.8572C118.555 19.1995 118.499 19.5489 118.345 19.8584C118.192 20.1678 117.947 20.4222 117.645 20.5873C117.343 20.7523 116.998 20.8201 116.657 20.7813L103.391 20.8162ZM106.686 6.72057C106.833 6.73085 106.98 6.70753 107.117 6.65236C107.253 6.59719 107.376 6.5116 107.475 6.402C107.649 6.20854 107.745 5.95626 107.744 5.69504C107.748 5.43861 107.651 5.19097 107.475 5.00553C107.372 4.90331 107.248 4.82439 107.112 4.77398C106.976 4.72357 106.831 4.70284 106.686 4.71314H104.336C104.191 4.70277 104.045 4.72345 103.909 4.77385C103.772 4.82424 103.647 4.9032 103.543 5.00553C103.367 5.19097 103.271 5.43861 103.274 5.69504C103.273 5.95626 103.369 6.20854 103.543 6.402C103.642 6.51406 103.765 6.60212 103.902 6.65957C104.039 6.71702 104.188 6.74235 104.336 6.73366L106.686 6.72057ZM113.488 2.48751C113.467 2.18785 113.512 1.88721 113.622 1.60775C113.731 1.3283 113.902 1.07715 114.121 0.872844C114.537 0.517651 115.064 0.322681 115.61 0.322681C116.155 0.322681 116.683 0.517651 117.099 0.872844C117.318 1.07578 117.489 1.32519 117.6 1.60298C117.711 1.88076 117.759 2.17994 117.741 2.47879V5.77359H118.412C118.696 5.76351 118.977 5.82344 119.232 5.94814C119.437 6.05276 119.616 6.2018 119.756 6.38454C119.884 6.57076 119.979 6.77732 120.038 6.9955C120.094 7.21364 120.123 7.43789 120.125 7.66319C120.123 7.88707 120.094 8.1099 120.038 8.32651C119.981 8.54532 119.885 8.75217 119.756 8.93747C119.615 9.12331 119.433 9.27287 119.223 9.37387C118.97 9.4951 118.692 9.55488 118.412 9.54842H117.741V13.5851C117.739 14.1519 117.515 14.6951 117.117 15.0959C116.719 15.4966 116.179 15.7223 115.616 15.7234C115.053 15.7234 114.512 15.4983 114.113 15.0974C113.714 14.6965 113.489 14.1526 113.488 13.5851V2.48751Z" fill="white"/>
<path d="M121.382 8.20419C122.417 7.94947 123.316 7.30428 123.892 6.40186C124.443 5.52907 124.72 4.2897 124.72 2.70558V2.57466C124.713 2.26221 124.775 1.95206 124.902 1.66695C125.02 1.42141 125.19 1.20527 125.401 1.03417C125.614 0.866673 125.857 0.74086 126.116 0.663238C126.388 0.58414 126.67 0.544465 126.953 0.54541C127.486 0.548514 128.002 0.73654 128.414 1.07782C128.624 1.26293 128.789 1.49415 128.896 1.75366C129.004 2.01316 129.051 2.29404 129.033 2.57466V2.70558C129.033 3.0547 129.034 3.38636 128.999 3.70929C128.978 4.02434 128.938 4.33774 128.877 4.64755C129.592 4.73706 130.288 4.94342 130.937 5.2585C131.552 5.55578 132.09 5.99184 132.51 6.53278C132.96 7.12963 133.291 7.80828 133.486 8.53148C133.486 8.57949 133.516 8.63186 133.529 8.68422C133.607 8.99479 133.613 9.31917 133.548 9.63261C133.482 9.94606 133.346 10.2403 133.151 10.4929C132.955 10.7454 132.704 10.9497 132.418 11.09C132.132 11.2303 131.818 11.3031 131.5 11.3026C131.033 11.3006 130.58 11.1414 130.213 10.8504C129.847 10.5594 129.587 10.1533 129.476 9.69666C129.42 9.46925 129.337 9.24946 129.229 9.04207C129.083 8.76933 128.878 8.53289 128.63 8.35014C128.382 8.16739 128.096 8.04295 127.794 7.98599C127.243 9.03417 126.449 9.93258 125.479 10.6044C124.605 11.203 123.602 11.5816 122.553 11.7085C122.046 11.7779 121.532 11.6651 121.1 11.3899C120.92 11.2857 120.762 11.1463 120.635 10.98C120.509 10.8137 120.416 10.6237 120.363 10.4211C120.214 9.96552 120.241 9.47033 120.437 9.03334C120.519 8.83034 120.647 8.64958 120.812 8.50557C120.976 8.36156 121.171 8.25833 121.382 8.20419ZM121.616 16.6048C121.614 16.0394 121.711 15.478 121.902 14.9465C122.081 14.437 122.364 13.9714 122.735 13.5806C123.13 13.177 123.608 12.8643 124.135 12.6642C124.766 12.4288 125.435 12.3148 126.107 12.3281H135.272C135.936 12.3149 136.598 12.4259 137.222 12.6554C137.752 12.8494 138.233 13.1577 138.631 13.5588C139.015 13.9459 139.311 14.4118 139.498 14.9247C139.874 16.0129 139.874 17.1968 139.498 18.285C139.311 18.797 139.016 19.2618 138.631 19.6465C138.234 20.0504 137.753 20.3604 137.222 20.5542C136.598 20.7837 135.936 20.8947 135.272 20.8815H126.107C125.434 20.8957 124.765 20.7801 124.135 20.5411C123.607 20.3437 123.128 20.0307 122.735 19.6247C122.365 19.2387 122.081 18.7774 121.902 18.2719C121.708 17.738 121.611 17.1733 121.616 16.6048ZM126.021 16.6048C126.026 16.896 126.115 17.1794 126.276 17.4209C126.391 17.5666 126.541 17.6804 126.712 17.7514C126.882 17.8225 127.068 17.8484 127.252 17.8267H134.127C134.311 17.8492 134.497 17.8237 134.668 17.7526C134.839 17.6815 134.988 17.5673 135.103 17.4209C135.266 17.1798 135.356 16.8964 135.363 16.6048C135.355 16.312 135.265 16.0274 135.103 15.7844C134.987 15.6395 134.837 15.5265 134.667 15.4563C134.496 15.386 134.31 15.3608 134.127 15.3829H127.252C127.069 15.3616 126.883 15.3872 126.713 15.4574C126.542 15.5276 126.392 15.6401 126.276 15.7844C126.112 16.0268 126.02 16.3116 126.012 16.6048H126.021ZM135.124 2.48738C135.103 2.18728 135.149 1.88614 135.259 1.60651C135.369 1.32689 135.541 1.07602 135.762 0.872708C136.182 0.517158 136.714 0.322266 137.264 0.322266C137.813 0.322266 138.345 0.517158 138.766 0.872708C138.987 1.07384 139.161 1.32273 139.273 1.6008C139.386 1.87888 139.435 2.17896 139.416 2.47865V4.26788H140.088C140.371 4.2578 140.652 4.31774 140.907 4.44244C141.111 4.54789 141.29 4.6968 141.432 4.87884C141.561 5.05941 141.656 5.26196 141.714 5.4767C141.77 5.69485 141.799 5.91909 141.8 6.14439C141.799 6.36827 141.77 6.5911 141.714 6.80771C141.656 7.02652 141.561 7.23337 141.432 7.41867C141.294 7.60765 141.11 7.7579 140.899 7.85507C140.644 7.9712 140.367 8.02789 140.088 8.0209H139.416V9.70103C139.416 10.2589 139.196 10.7939 138.804 11.1884C138.412 11.5829 137.881 11.8045 137.326 11.8045H137.209C136.935 11.8056 136.662 11.752 136.408 11.6468C136.154 11.5415 135.922 11.3867 135.728 11.1912C135.533 10.9957 135.379 10.7634 135.274 10.5077C135.169 10.2519 135.115 9.97779 135.116 9.70103L135.124 2.48738Z" fill="white"/>
<path d="M154.74 16.3343C155.037 16.3223 155.333 16.3743 155.607 16.487C155.825 16.5794 156.018 16.7213 156.171 16.9016C156.313 17.0749 156.42 17.2752 156.483 17.4907C156.548 17.7029 156.582 17.9234 156.583 18.1453C156.583 18.3745 156.549 18.6024 156.483 18.8218C156.42 19.0364 156.309 19.2335 156.158 19.3978C155.998 19.572 155.803 19.7103 155.586 19.8037C155.324 19.9101 155.044 19.9621 154.762 19.9564H143.855C143.593 19.9803 143.33 19.9422 143.085 19.8452C142.84 19.7483 142.622 19.595 142.446 19.3978C142.164 19.0425 142.011 18.6005 142.013 18.1453C142.014 17.9234 142.048 17.7029 142.112 17.4907C142.179 17.2665 142.295 17.0601 142.451 16.8865C142.607 16.7128 142.799 16.5764 143.014 16.487C143.281 16.377 143.567 16.3249 143.855 16.3343H154.74ZM142.516 6.20988C142.495 5.36202 142.661 4.52007 143.001 3.74423C143.303 3.06212 143.764 2.46336 144.345 1.99864C144.942 1.53532 145.624 1.19433 146.352 0.994926C147.981 0.558492 149.695 0.558492 151.324 0.994926C152.053 1.19152 152.736 1.53278 153.332 1.99864C153.906 2.46641 154.362 3.06464 154.662 3.74423C155.004 4.51968 155.172 5.36168 155.152 6.20988V8.30458C155.172 9.15277 155.004 9.99477 154.662 10.7702C154.361 11.4491 153.905 12.047 153.332 12.5158C152.736 12.9817 152.053 13.3229 151.324 13.5195C149.695 13.956 147.981 13.956 146.352 13.5195C145.624 13.3201 144.942 12.9791 144.345 12.5158C143.765 12.0501 143.304 11.4516 143.001 10.7702C142.661 9.99439 142.495 9.15243 142.516 8.30458V6.20988ZM146.76 8.45732C146.755 8.75779 146.816 9.05563 146.937 9.33012C147.042 9.56401 147.201 9.76908 147.401 9.92798C147.602 10.0831 147.83 10.1986 148.073 10.2684C148.324 10.3394 148.584 10.3761 148.845 10.3775C149.101 10.3764 149.357 10.3397 149.603 10.2684C149.842 10.1968 150.065 10.0814 150.262 9.92798C150.455 9.77175 150.612 9.5752 150.722 9.35194C150.848 9.07878 150.912 8.78047 150.908 8.47914V6.07896C150.912 5.77758 150.849 5.47918 150.722 5.20616C150.611 4.97129 150.448 4.76525 150.245 4.60393C150.048 4.45194 149.824 4.33801 149.586 4.26791C149.34 4.19447 149.084 4.15771 148.827 4.15881C148.566 4.15804 148.307 4.19477 148.056 4.26791C147.813 4.33611 147.585 4.45014 147.384 4.60393C147.183 4.76357 147.023 4.97032 146.92 5.20616C146.798 5.48051 146.737 5.77844 146.742 6.07896L146.76 8.45732ZM159.509 20.8074C158.934 20.8074 158.383 20.5775 157.976 20.1683C157.57 19.7591 157.342 19.2041 157.342 18.6254V2.47868C157.32 2.17742 157.368 1.87524 157.48 1.59534C157.593 1.31544 157.768 1.06526 157.992 0.864007C158.42 0.510865 158.956 0.317871 159.509 0.317871C160.062 0.317871 160.598 0.510865 161.026 0.864007C161.25 1.06526 161.425 1.31544 161.538 1.59534C161.65 1.87524 161.698 2.17742 161.677 2.47868V18.6254C161.677 19.2041 161.448 19.7591 161.042 20.1683C160.635 20.5775 160.084 20.8074 159.509 20.8074Z" fill="white"/>
<path d="M172.831 0.261998C173.43 0.228297 174.018 0.435502 174.465 0.838044C174.671 1.05319 174.829 1.30896 174.932 1.58916C175.034 1.86936 175.077 2.16788 175.059 2.46581V2.66218H178.093C178.321 2.64611 178.549 2.68301 178.761 2.77004C178.972 2.85707 179.16 2.99188 179.312 3.16404C179.586 3.50194 179.731 3.92786 179.719 4.36413C179.725 4.80402 179.571 5.23086 179.286 5.56423C179.135 5.73406 178.949 5.86744 178.74 5.95436C178.531 6.04128 178.306 6.07948 178.08 6.06609H178.033C178.147 6.36024 178.242 6.66209 178.315 6.96943C178.388 7.31061 178.425 7.6589 178.423 8.00805V14.794C178.441 15.6466 178.294 16.4945 177.989 17.2902C177.736 17.9473 177.338 18.538 176.825 19.018C176.312 19.4979 175.698 19.8546 175.029 20.0614C173.585 20.5152 172.038 20.5152 170.594 20.0614C169.939 19.8506 169.338 19.5008 168.829 19.0358C168.311 18.5505 167.908 17.9539 167.65 17.2902C167.344 16.495 167.197 15.6467 167.217 14.794V8.00805C167.207 7.34223 167.332 6.68142 167.585 6.06609C167.36 6.07884 167.134 6.04035 166.926 5.95347C166.717 5.86659 166.531 5.73356 166.38 5.56423C166.095 5.23086 165.941 4.80402 165.947 4.36413C165.934 3.92918 166.075 3.50391 166.345 3.16404C166.493 2.99194 166.678 2.85694 166.887 2.7698C167.095 2.68266 167.321 2.64581 167.546 2.66218H170.581V2.46581C170.562 2.16788 170.606 1.86936 170.708 1.58916C170.81 1.30896 170.969 1.05319 171.175 0.838044C171.399 0.636242 171.661 0.481382 171.945 0.382484C172.229 0.283587 172.53 0.242629 172.831 0.261998ZM172.831 16.8669C173.039 16.8657 173.244 16.8212 173.434 16.7364C173.625 16.6515 173.795 16.5281 173.936 16.3738C174.287 15.9436 174.457 15.3922 174.409 14.8377V7.85531C174.438 7.58578 174.411 7.31314 174.331 7.05421C174.252 6.79527 174.12 6.55553 173.945 6.34974C173.645 6.06241 173.245 5.90562 172.831 5.91335C172.422 5.90787 172.028 6.06466 171.734 6.34974C171.558 6.55518 171.425 6.79477 171.345 7.05371C171.264 7.31266 171.237 7.58547 171.266 7.85531V14.8377C171.219 15.3914 171.387 15.9418 171.734 16.3738C171.872 16.5289 172.041 16.653 172.23 16.7379C172.419 16.8229 172.624 16.8668 172.831 16.8669ZM181.067 2.46581C181.047 2.16917 181.095 1.87184 181.208 1.59704C181.321 1.32224 181.495 1.07742 181.718 0.881684C182.137 0.53274 182.665 0.344165 183.209 0.349278C183.483 0.349905 183.756 0.397115 184.015 0.488925C184.266 0.579543 184.497 0.717274 184.696 0.894775C184.898 1.07767 185.06 1.30051 185.173 1.54937C185.301 1.83734 185.365 2.15025 185.359 2.46581V7.96441H186.074C186.358 7.95434 186.639 8.01427 186.894 8.13897C187.098 8.24358 187.278 8.39263 187.418 8.57537C187.546 8.76159 187.641 8.96815 187.7 9.18633C187.756 9.40447 187.785 9.62872 187.787 9.85402C187.785 10.0779 187.756 10.3007 187.7 10.5173C187.643 10.7361 187.547 10.943 187.418 11.1283C187.277 11.3141 187.094 11.4637 186.885 11.5647C186.632 11.6859 186.354 11.7457 186.074 11.7393H185.359V18.6343C185.359 19.213 185.131 19.768 184.724 20.1772C184.318 20.5864 183.766 20.8163 183.191 20.8163C182.62 20.8106 182.075 20.5781 181.673 20.1696C181.271 19.761 181.046 19.2093 181.046 18.6343L181.067 2.46581Z" fill="white"/>
<path d="M195.854 16.845V12.7429H192.131C191.597 12.7552 191.064 12.6994 190.544 12.5771C190.186 12.4949 189.859 12.31 189.603 12.0447C189.361 11.7596 189.203 11.4118 189.148 11.0409C189.06 10.5147 189.02 9.98163 189.027 9.4481V4.29861C189.02 3.76799 189.061 3.23786 189.148 2.71449C189.203 2.33711 189.361 1.98235 189.603 1.68895C189.857 1.41802 190.184 1.22829 190.544 1.14345C191.064 1.02283 191.597 0.96858 192.131 0.981988H204.009C204.541 0.968529 205.072 1.02278 205.591 1.14345C205.951 1.22829 206.278 1.41802 206.532 1.68895C206.774 1.98235 206.931 2.33711 206.987 2.71449C207.074 3.23786 207.114 3.76799 207.108 4.29861V10.7006C207.107 11.2419 206.893 11.7607 206.513 12.1434C206.132 12.5262 205.617 12.7417 205.079 12.7429H200.28V16.845H206.393C206.681 16.8377 206.967 16.8897 207.234 16.9978C207.451 17.0874 207.645 17.2246 207.802 17.3993C207.943 17.5652 208.049 17.7582 208.114 17.9666C208.178 18.1758 208.21 18.3936 208.209 18.6124C208.208 19.0577 208.055 19.4891 207.776 19.8344C207.602 20.0287 207.385 20.1793 207.142 20.274C206.9 20.3688 206.639 20.405 206.38 20.3799H189.738C189.478 20.405 189.216 20.3688 188.973 20.2741C188.73 20.1794 188.512 20.0288 188.337 19.8344C188.058 19.4891 187.905 19.0577 187.904 18.6124C187.903 18.3936 187.935 18.1758 187.999 17.9666C188.064 17.7572 188.172 17.5638 188.316 17.3993C188.47 17.2237 188.663 17.0864 188.879 16.9978C189.148 16.8893 189.435 16.8373 189.725 16.845H195.854ZM193.362 8.64076C193.35 8.81969 193.401 8.99712 193.505 9.14262C193.575 9.2094 193.66 9.25967 193.752 9.28984C193.844 9.32001 193.942 9.32935 194.038 9.31718H202.184C202.34 9.31718 202.49 9.25465 202.6 9.14335C202.711 9.03204 202.773 8.88108 202.773 8.72368V5.08412C202.781 4.91718 202.743 4.75123 202.665 4.60409C202.614 4.53969 202.547 4.48974 202.471 4.45914C202.395 4.42854 202.312 4.41834 202.231 4.42953H193.886C193.669 4.42953 193.526 4.48626 193.453 4.60409C193.379 4.75284 193.345 4.91815 193.353 5.08412L193.362 8.64076Z" fill="white"/>
<path d="M221.067 16.0378C221.339 16.0274 221.61 16.0827 221.856 16.1992C222.055 16.3016 222.226 16.4514 222.354 16.6356C222.477 16.8137 222.566 17.0136 222.615 17.2248C222.665 17.4318 222.692 17.6442 222.693 17.8575C222.692 18.0781 222.666 18.2978 222.615 18.5121C222.566 18.7275 222.474 18.9308 222.346 19.11C222.209 19.2912 222.034 19.4402 221.834 19.5464C221.597 19.6681 221.333 19.7282 221.067 19.721H212.744C212.199 19.7348 211.654 19.6716 211.127 19.5333C210.739 19.4415 210.385 19.2378 210.111 18.9471C209.836 18.6565 209.651 18.2915 209.579 17.8968C209.467 17.378 209.416 16.8478 209.427 16.3171V3.31677C209.42 2.99019 209.482 2.66577 209.609 2.36543C209.721 2.11417 209.885 1.89033 210.091 1.70945C210.297 1.52858 210.539 1.39503 210.802 1.31807C211.073 1.23897 211.355 1.1993 211.638 1.20025C212.191 1.18219 212.732 1.36324 213.164 1.71083C213.382 1.91367 213.55 2.16366 213.658 2.44189C213.765 2.72012 213.808 3.01929 213.784 3.31677V15.4268C213.761 15.6006 213.808 15.7763 213.914 15.9156C214.06 16.0151 214.237 16.0585 214.413 16.0378H221.067ZM226.269 20.8381C225.694 20.8381 225.143 20.6082 224.736 20.199C224.33 19.7898 224.102 19.2348 224.102 18.6561V2.50944C224.08 2.20818 224.128 1.906 224.24 1.6261C224.353 1.3462 224.528 1.09602 224.752 0.894767C225.18 0.541625 225.716 0.348633 226.269 0.348633C226.822 0.348633 227.358 0.541625 227.786 0.894767C228.01 1.09602 228.185 1.3462 228.298 1.6261C228.41 1.906 228.458 2.20818 228.437 2.50944V18.6561C228.437 19.2348 228.208 19.7898 227.802 20.199C227.395 20.6082 226.844 20.8381 226.269 20.8381Z" fill="white"/>
<path d="M249.159 9.25139C249.355 9.22053 249.555 9.23413 249.745 9.29119C249.935 9.34824 250.11 9.44732 250.257 9.58116C250.404 9.71501 250.52 9.88025 250.595 10.0648C250.671 10.2494 250.704 10.4486 250.693 10.6479C250.705 11.0116 250.577 11.366 250.338 11.6385C250.181 11.7868 249.995 11.8997 249.792 11.9697C249.588 12.0397 249.373 12.0651 249.159 12.0443H231.927C231.713 12.0659 231.498 12.0409 231.295 11.9708C231.092 11.9008 230.907 11.7874 230.752 11.6385C230.52 11.3625 230.398 11.0094 230.409 10.6479C230.405 10.2928 230.526 9.94774 230.752 9.67469C230.903 9.51808 231.087 9.39756 231.29 9.32203C231.493 9.2465 231.711 9.21789 231.927 9.23829L249.159 9.25139ZM233.704 20.8159C233.353 20.8539 232.998 20.8144 232.664 20.7004C232.329 20.5863 232.024 20.4003 231.768 20.1552C231.512 19.9102 231.312 19.6121 231.183 19.2816C231.053 18.951 230.996 18.596 231.016 18.2412V18.1103C230.996 17.7888 231.044 17.4667 231.158 17.1656C231.272 16.8645 231.448 16.5914 231.675 16.3647C232.249 15.907 232.974 15.6855 233.704 15.745H245.344V15.3522C245.35 15.3055 245.346 15.2581 245.332 15.213C245.319 15.1678 245.296 15.1261 245.266 15.0904C245.17 15.0359 245.059 15.013 244.949 15.0249H232.378C232.215 15.0368 232.052 15.0103 231.901 14.9474C231.751 14.8845 231.617 14.787 231.511 14.6627C231.326 14.4481 231.223 14.1743 231.22 13.8903C231.222 13.6073 231.313 13.3323 231.48 13.1048C231.583 12.9761 231.717 12.875 231.868 12.8103C232.019 12.7456 232.184 12.7193 232.347 12.7338H247.438C248.331 12.7338 248.946 12.8909 249.28 13.2139C249.457 13.4066 249.592 13.634 249.678 13.8817C249.764 14.1295 249.798 14.3924 249.779 14.654V16.836C249.777 17.0775 249.682 17.3088 249.512 17.4796C249.342 17.6504 249.112 17.7469 248.873 17.748H236.015C235.958 17.742 235.9 17.7495 235.847 17.7699C235.793 17.7904 235.745 17.8233 235.707 17.8659C235.654 17.9395 235.625 18.028 235.625 18.119C235.625 18.3503 235.755 18.4681 236.015 18.4681H248.847C249.012 18.4492 249.178 18.4743 249.331 18.5409C249.483 18.6076 249.615 18.7134 249.714 18.8478C249.873 19.0807 249.958 19.3569 249.958 19.6398C249.958 19.9227 249.873 20.1989 249.714 20.4319C249.617 20.5693 249.486 20.6782 249.333 20.7473C249.181 20.8163 249.013 20.8431 248.847 20.8246L233.704 20.8159ZM233.856 8.61861C233.505 8.65735 233.149 8.61845 232.815 8.50464C232.48 8.39083 232.174 8.20484 231.918 7.95967C231.662 7.7145 231.462 7.41604 231.333 7.08515C231.203 6.75425 231.147 6.39889 231.168 6.04387V5.91295C231.147 5.59603 231.196 5.27836 231.309 4.98214C231.423 4.68591 231.6 4.41827 231.827 4.19791C232.408 3.75558 233.13 3.54288 233.856 3.60004H245.127V3.2422C245.133 3.19548 245.129 3.14804 245.116 3.10293C245.102 3.05782 245.08 3.01606 245.049 2.98036C244.953 2.92584 244.842 2.90296 244.733 2.9149H232.486C232.323 2.92752 232.158 2.90042 232.008 2.83586C231.857 2.77131 231.723 2.6712 231.619 2.54396C231.435 2.32365 231.332 2.04616 231.328 1.75844C231.332 1.47176 231.423 1.19309 231.589 0.959837C231.691 0.82927 231.823 0.726234 231.975 0.659971C232.126 0.593707 232.291 0.566289 232.456 0.580172H247.221C248.114 0.580172 248.73 0.737274 249.063 1.06021C249.24 1.25296 249.376 1.48029 249.461 1.72805C249.547 1.9758 249.581 2.23869 249.562 2.50032V4.68231C249.561 4.92385 249.465 5.15517 249.295 5.32597C249.126 5.49677 248.896 5.59323 248.656 5.59438H236.166C236.117 5.58661 236.067 5.58993 236.019 5.60409C235.971 5.61825 235.927 5.6429 235.89 5.67627C235.852 5.70964 235.823 5.75091 235.803 5.79711C235.784 5.84331 235.774 5.8933 235.776 5.9435C235.776 6.16169 235.906 6.27079 236.166 6.27079H248.495C248.66 6.25231 248.827 6.27763 248.979 6.34424C249.131 6.41086 249.263 6.51644 249.362 6.65046C249.525 6.89313 249.612 7.17848 249.614 7.47089C249.606 7.74333 249.522 8.00797 249.371 8.23458C249.275 8.3727 249.144 8.48212 248.991 8.55127C248.839 8.62041 248.67 8.6467 248.504 8.62734L233.856 8.61861Z" fill="white"/>
<path d="M270.093 10.6915H265.827C265.299 11.3163 264.608 11.7803 263.833 12.0312C262.909 12.3341 261.943 12.4815 260.971 12.4676C260.146 12.4759 259.322 12.3761 258.522 12.1709C257.839 12.0012 257.198 11.6939 256.636 11.2676C256.109 10.8546 255.695 10.3142 255.431 9.69652C255.13 8.97159 254.982 8.1912 254.998 7.40544V5.65985C254.982 4.87408 255.13 4.09369 255.431 3.36876C255.694 2.75044 256.109 2.20972 256.636 1.79773C257.198 1.37036 257.839 1.06161 258.522 0.890022C259.323 0.686246 260.146 0.587961 260.971 0.597635C261.992 0.574094 263.008 0.73673 263.971 1.07767C264.775 1.36454 265.473 1.88941 265.974 2.58324H270.093V2.47414C270.073 2.17838 270.12 1.88199 270.232 1.6075C270.343 1.33302 270.515 1.08764 270.734 0.890022C271.151 0.539364 271.678 0.350488 272.221 0.357617C272.493 0.357877 272.763 0.405112 273.019 0.497264C273.274 0.588711 273.51 0.726244 273.717 0.903113C273.923 1.08437 274.088 1.30746 274.202 1.55771C274.33 1.84568 274.394 2.15859 274.389 2.47414V13.5936C274.389 14.1723 274.16 14.7272 273.754 15.1364C273.347 15.5456 272.796 15.7755 272.221 15.7755C271.65 15.7698 271.104 15.5374 270.702 15.1288C270.301 14.7202 270.075 14.1685 270.075 13.5936L270.093 10.6915ZM259.454 20.8159C258.946 20.8265 258.438 20.7678 257.946 20.6414C257.585 20.5556 257.257 20.3652 257.003 20.0937C256.748 19.8222 256.579 19.4815 256.515 19.114C256.413 18.6262 256.367 18.1285 256.376 17.6302V15.4046C256.35 15.0989 256.397 14.7914 256.511 14.507C256.626 14.2227 256.805 13.9695 257.035 13.7681C257.483 13.4173 258.037 13.2324 258.605 13.2444C259.165 13.2274 259.712 13.4132 260.148 13.7681C260.368 13.9758 260.538 14.2309 260.646 14.5143C260.754 14.7977 260.797 15.1021 260.772 15.4046V16.8883C260.755 17.0422 260.794 17.1969 260.88 17.3247C261.029 17.3997 261.196 17.43 261.362 17.412H273.127C273.385 17.3858 273.645 17.418 273.889 17.5063C274.133 17.5947 274.354 17.7369 274.536 17.9226C274.808 18.2542 274.957 18.6708 274.957 19.1009C274.957 19.5309 274.808 19.9476 274.536 20.2792C274.355 20.4644 274.136 20.6068 273.894 20.6958C273.651 20.7849 273.392 20.8185 273.136 20.7941L259.454 20.8159ZM259.302 7.39671C259.284 7.63302 259.313 7.87066 259.387 8.09554C259.462 8.32042 259.58 8.52797 259.736 8.7059C260.083 8.9962 260.52 9.15512 260.971 9.15512C261.423 9.15512 261.86 8.9962 262.207 8.7059C262.362 8.52743 262.48 8.31981 262.554 8.09507C262.629 7.87033 262.658 7.63295 262.64 7.39671V5.65112C262.657 5.41493 262.628 5.17774 262.553 4.9531C262.479 4.72846 262.361 4.52078 262.207 4.34192C261.862 4.04593 261.424 3.88332 260.971 3.88332C260.519 3.88332 260.08 4.04593 259.736 4.34192C259.581 4.52026 259.463 4.72786 259.388 4.95264C259.314 5.17741 259.285 5.41485 259.302 5.65112V7.39671ZM270.093 7.54945V5.69476H266.824V7.54945H270.093Z" fill="white"/>
<path d="M288.712 16.2557V20.9251H284.29V16.2557H278.173C277.914 16.2808 277.652 16.2446 277.409 16.1499C277.166 16.0552 276.948 15.9046 276.773 15.7102C276.493 15.3653 276.34 14.9337 276.339 14.4882C276.339 14.2694 276.371 14.0516 276.435 13.8424C276.5 13.6307 276.608 13.4347 276.751 13.2663C276.9 13.0761 277.094 12.9261 277.315 12.8299C277.583 12.7215 277.871 12.6695 278.16 12.6772H294.807C295.095 12.6699 295.381 12.7218 295.648 12.8299C295.869 12.9274 296.064 13.0771 296.216 13.2663C296.356 13.436 296.462 13.6317 296.528 13.8424C296.592 14.0516 296.624 14.2694 296.623 14.4882C296.623 14.9337 296.47 15.3653 296.19 15.7102C296.016 15.9045 295.798 16.0551 295.556 16.1498C295.314 16.2446 295.053 16.2808 294.794 16.2557H288.712ZM288.668 4.38565C288.63 4.74611 288.566 5.10339 288.478 5.45482H288.694C289.587 5.44031 290.476 5.55794 291.334 5.80394C292.181 6.04204 292.977 6.4372 293.68 6.96912C294.383 7.51537 294.965 8.20361 295.388 8.98964C295.544 9.29421 295.619 9.63418 295.606 9.97663C295.593 10.3191 295.493 10.6524 295.315 10.9443C295.136 11.2362 294.886 11.4768 294.588 11.6428C294.29 11.8087 293.955 11.8945 293.615 11.8917H293.298C292.926 11.8884 292.562 11.782 292.246 11.5841C291.931 11.3863 291.675 11.1046 291.508 10.7701C291.448 10.6528 291.382 10.5391 291.308 10.4298C291.031 10.0122 290.669 9.65824 290.246 9.39112C289.795 9.11372 289.301 8.91182 288.785 8.79326C288.217 8.65906 287.634 8.60037 287.051 8.6187H286.835C286.761 8.6187 286.683 8.6187 286.596 8.65361C286.108 9.1502 285.566 9.58941 284.979 9.96281C284.387 10.3482 283.76 10.6769 283.106 10.9447C282.457 11.2139 281.785 11.4256 281.099 11.5775C280.432 11.7284 279.753 11.8276 279.07 11.8742C278.526 11.9339 277.978 11.7979 277.523 11.4902C277.319 11.3546 277.148 11.1764 277.019 10.9678C276.89 10.7591 276.808 10.525 276.777 10.2814C276.736 10.0552 276.74 9.82316 276.788 9.59849C276.837 9.37382 276.929 9.16098 277.059 8.97218C277.195 8.77672 277.373 8.61397 277.579 8.49554C277.785 8.37711 278.015 8.30592 278.251 8.28704C278.969 8.20491 279.679 8.05887 280.371 7.85064C280.997 7.66308 281.599 7.3993 282.161 7.06513C282.661 6.76296 283.102 6.37098 283.462 5.90868C283.813 5.44776 284.049 4.90913 284.151 4.33765H278.975C278.714 4.3626 278.452 4.32498 278.208 4.22788C277.965 4.13078 277.748 3.97696 277.575 3.77906C277.296 3.43011 277.143 2.99622 277.141 2.54841C277.141 2.32953 277.173 2.1118 277.237 1.90255C277.302 1.69089 277.41 1.49489 277.553 1.3265C277.705 1.14424 277.898 1.00194 278.117 0.911925C278.392 0.800508 278.687 0.748474 278.984 0.759186H293.983C294.271 0.751853 294.557 0.80383 294.824 0.911925C295.043 1.00313 295.238 1.14519 295.392 1.3265C295.532 1.49619 295.638 1.69188 295.704 1.90255C295.768 2.1118 295.8 2.32953 295.799 2.54841C295.798 2.99622 295.645 3.43011 295.366 3.77906C295.194 3.97689 294.978 4.13072 294.735 4.22784C294.492 4.32496 294.23 4.3626 293.97 4.33765L288.668 4.38565Z" fill="white"/>
<path d="M304.617 0.261753C305.218 0.227843 305.807 0.435 306.256 0.837799C306.461 1.05295 306.62 1.30872 306.723 1.58892C306.825 1.86911 306.868 2.16763 306.85 2.46556V2.66194H309.884C310.112 2.64586 310.34 2.68276 310.552 2.76979C310.763 2.85682 310.951 2.99164 311.102 3.1638C311.377 3.50169 311.521 3.92761 311.51 4.36389C311.516 4.80377 311.362 5.23062 311.076 5.56398C310.926 5.73331 310.739 5.86635 310.531 5.95322C310.322 6.0401 310.097 6.07859 309.871 6.06584H309.819C309.934 6.36 310.028 6.66184 310.101 6.96918C310.175 7.31036 310.211 7.65865 310.209 8.00781V14.7938C310.228 15.6463 310.081 16.4943 309.776 17.29C309.522 17.9471 309.124 18.5378 308.611 19.0177C308.099 19.4977 307.485 19.8544 306.815 20.0611C306.097 20.2932 305.346 20.4081 304.591 20.4015C303.841 20.4082 303.094 20.2932 302.38 20.0611C301.714 19.8515 301.103 19.4936 300.593 19.0139C300.082 18.5342 299.686 17.945 299.432 17.29C299.128 16.4943 298.981 15.6463 298.999 14.7938V8.00781C298.991 7.34168 299.117 6.68086 299.372 6.06584C299.146 6.07923 298.921 6.04104 298.712 5.95412C298.503 5.8672 298.317 5.73382 298.167 5.56398C297.882 5.23062 297.727 4.80377 297.733 4.36389C297.721 3.92894 297.862 3.50366 298.132 3.1638C298.279 2.9917 298.465 2.85669 298.673 2.76955C298.882 2.68242 299.108 2.64556 299.333 2.66194H302.346V2.46556C302.328 2.16732 302.372 1.86861 302.475 1.5884C302.578 1.30818 302.738 1.05258 302.944 0.837799C303.17 0.633613 303.435 0.477376 303.722 0.378408C304.01 0.27944 304.314 0.239766 304.617 0.261753ZM304.617 16.8667C304.826 16.866 305.032 16.8219 305.223 16.737C305.414 16.6521 305.586 16.5284 305.727 16.3735C306.078 15.9433 306.247 15.392 306.199 14.8374V7.85507C306.228 7.58553 306.202 7.31289 306.122 7.05396C306.043 6.79503 305.911 6.55528 305.736 6.3495C305.434 6.0619 305.032 5.90516 304.617 5.9131C304.21 5.90877 303.818 6.06549 303.525 6.3495C303.349 6.55493 303.216 6.79452 303.136 7.05347C303.055 7.31242 303.028 7.58523 303.057 7.85507V14.8374C303.01 15.3911 303.177 15.9416 303.525 16.3735C303.662 16.5283 303.831 16.6522 304.019 16.7372C304.207 16.8221 304.411 16.8663 304.617 16.8667ZM312.854 2.46556C312.834 2.16892 312.882 1.87159 312.995 1.59679C313.107 1.322 313.282 1.07717 313.504 0.881438C313.923 0.531827 314.451 0.343164 314.995 0.349033C315.269 0.34931 315.54 0.396537 315.797 0.48868C316.049 0.579282 316.282 0.716985 316.482 0.894529C316.684 1.07743 316.847 1.30026 316.959 1.54913C317.086 1.83744 317.148 2.15033 317.141 2.46556V7.96417H317.857C318.141 7.95337 318.424 8.01333 318.68 8.13873C318.884 8.24224 319.062 8.39153 319.2 8.57512C319.331 8.75935 319.427 8.96655 319.482 9.18608C319.542 9.40364 319.572 9.62814 319.573 9.85377C319.572 10.078 319.542 10.3011 319.482 10.5171C319.429 10.7372 319.333 10.9447 319.2 11.128C319.062 11.3147 318.88 11.4645 318.671 11.5644C318.417 11.6862 318.138 11.746 317.857 11.739H317.141V18.6341C317.141 19.209 316.916 19.7607 316.514 20.1693C316.112 20.5779 315.566 20.8103 314.995 20.8161C314.425 20.8092 313.88 20.5763 313.479 20.1678C313.079 19.7593 312.854 19.2083 312.854 18.6341V2.46556Z" fill="white"/>
<path d="M338.18 9.49152C338.468 9.48256 338.755 9.53769 339.021 9.65298C339.238 9.75719 339.431 9.90581 339.588 10.0894C339.731 10.2589 339.838 10.4566 339.901 10.6698C339.964 10.8821 339.996 11.1027 339.996 11.3244C339.994 11.7722 339.841 12.2061 339.562 12.555C339.39 12.7529 339.174 12.9067 338.931 13.0038C338.689 13.1009 338.427 13.1386 338.167 13.1136H321.524C321.264 13.1386 321.001 13.1009 320.757 13.0038C320.514 12.9067 320.297 12.7529 320.124 12.555C319.845 12.2059 319.693 11.7721 319.69 11.3244C319.691 11.0995 319.724 10.876 319.79 10.6611C319.853 10.4468 319.961 10.2488 320.107 10.0807C320.26 9.89682 320.451 9.74804 320.666 9.64425C320.939 9.52641 321.236 9.47125 321.533 9.48279L338.18 9.49152ZM323.7 8.18232C323.19 8.19302 322.68 8.13728 322.183 8.01649C321.82 7.93332 321.488 7.74878 321.225 7.48409C320.982 7.20788 320.814 6.87239 320.739 6.51092C320.635 6.02066 320.587 5.51983 320.597 5.01844V2.64008C320.57 2.33707 320.616 2.03205 320.732 1.75093C320.847 1.46982 321.028 1.22093 321.26 1.02541C321.714 0.685533 322.268 0.508818 322.833 0.52355C323.391 0.506785 323.938 0.684016 324.381 1.02541C324.606 1.22539 324.78 1.47574 324.891 1.75623C325.002 2.03672 325.045 2.33949 325.018 2.64008V4.25475C324.996 4.41575 325.035 4.57923 325.127 4.71297C325.275 4.78793 325.442 4.81823 325.608 4.80024H337.373C337.631 4.77397 337.891 4.80619 338.135 4.89455C338.379 4.98291 338.6 5.12516 338.782 5.31083C339.054 5.64242 339.203 6.05905 339.203 6.4891C339.203 6.91916 339.054 7.33579 338.782 7.66738C338.601 7.85262 338.382 7.99497 338.14 8.08406C337.898 8.17314 337.639 8.20671 337.382 8.18232H323.7ZM323.891 20.8379C323.38 20.848 322.87 20.7923 322.374 20.672C322.014 20.5871 321.685 20.4027 321.424 20.1396C321.178 19.8648 321.009 19.5289 320.935 19.1664C320.83 18.6762 320.782 18.1753 320.792 17.674V16.1029C320.766 15.7992 320.813 15.4936 320.93 15.2123C321.047 14.9311 321.23 14.6826 321.464 14.4883C321.924 14.1507 322.481 13.9744 323.05 13.9864C323.608 13.9696 324.155 14.1469 324.598 14.4883C324.822 14.6883 324.997 14.9386 325.108 15.2191C325.218 15.4996 325.262 15.8023 325.235 16.1029V16.8885C325.218 17.0423 325.257 17.197 325.343 17.3249C325.492 17.3998 325.659 17.4301 325.825 17.4121H337.503C337.761 17.3859 338.022 17.4181 338.265 17.5064C338.509 17.5948 338.73 17.737 338.912 17.9227C339.181 18.2557 339.328 18.6718 339.328 19.101C339.328 19.5302 339.181 19.9463 338.912 20.2793C338.732 20.4645 338.512 20.6069 338.27 20.6959C338.028 20.785 337.769 20.8186 337.512 20.7942L323.891 20.8379Z" fill="white"/>
<path d="M101.255 43.0288V38.9484H99.6289C98.7986 38.9706 97.9725 38.8221 97.2012 38.512C96.5273 38.2301 95.9212 37.806 95.4238 37.2683C94.9434 36.7382 94.5708 36.1185 94.3271 35.4442C94.0733 34.7452 93.9456 34.0063 93.9499 33.2622V32.7821C93.9461 32.0381 94.0738 31.2992 94.3271 30.6002C94.5718 29.9276 94.9443 29.3095 95.4238 28.7804C95.9228 28.2414 96.5283 27.8133 97.2012 27.5235C97.9697 27.2008 98.7963 27.0419 99.6289 27.0566H107.302C108.134 27.0419 108.961 27.2008 109.73 27.5235C110.403 27.8133 111.008 28.2414 111.507 28.7804C111.987 29.3086 112.358 29.9271 112.599 30.6002C112.856 31.2984 112.985 32.0376 112.981 32.7821V33.2622C112.986 34.0067 112.857 34.7461 112.599 35.4442C112.359 36.1191 111.988 36.7391 111.507 37.2683C111.01 37.806 110.404 38.2301 109.73 38.512C108.958 38.8221 108.132 38.9706 107.302 38.9484H105.676V43.0288H111.789C112.085 43.018 112.381 43.0701 112.656 43.1815C112.871 43.2712 113.064 43.4084 113.219 43.583C113.36 43.7489 113.467 43.9419 113.531 44.1503C113.597 44.3593 113.63 44.5771 113.631 44.7962C113.63 45.2414 113.477 45.6727 113.198 46.0181C113.023 46.2124 112.806 46.363 112.564 46.4577C112.322 46.5525 112.061 46.5887 111.802 46.5636H95.155C94.8956 46.588 94.6341 46.5515 94.3911 46.4568C94.1481 46.3622 93.9303 46.212 93.7548 46.0181C93.4754 45.6729 93.3224 45.2415 93.3213 44.7962C93.3207 44.5773 93.3529 44.3596 93.4167 44.1503C93.4849 43.9424 93.5923 43.7498 93.7332 43.583C93.8888 43.4084 94.0813 43.2712 94.2967 43.1815C94.5719 43.0701 94.8673 43.018 95.1637 43.0288H101.255ZM108.472 32.7298C108.48 32.4463 108.428 32.1643 108.32 31.9025C108.212 31.6407 108.049 31.405 107.844 31.2111C107.373 30.7939 106.758 30.5793 106.131 30.6132H100.799C100.173 30.5793 99.558 30.7939 99.087 31.2111C98.8814 31.405 98.719 31.6407 98.6107 31.9025C98.5023 32.1643 98.4504 32.4463 98.4584 32.7298V33.2971C98.4499 33.58 98.5016 33.8615 98.61 34.1227C98.7184 34.3838 98.881 34.6187 99.087 34.8114C99.5564 35.2318 100.172 35.4483 100.799 35.4136H106.131C106.759 35.4483 107.374 35.2318 107.844 34.8114C108.05 34.6187 108.212 34.3838 108.321 34.1227C108.429 33.8615 108.481 33.58 108.472 33.2971V32.7298Z" fill="white"/>
<path d="M116.6 42.7012C118.001 42.5398 119.063 42.0772 119.787 41.3048C120.56 40.3922 121.016 39.2508 121.087 38.0536H116.861C116.573 38.0623 116.287 38.0056 116.024 37.8878C115.81 37.7826 115.619 37.634 115.465 37.4514C115.312 37.2832 115.201 37.0814 115.14 36.8622C115.006 36.4361 115.006 35.9792 115.14 35.5531C115.201 35.3368 115.308 35.136 115.452 34.9639C115.605 34.7781 115.797 34.629 116.015 34.5275C116.288 34.4085 116.585 34.3533 116.882 34.3661H121.174V31.5295C121.177 31.4578 121.166 31.3861 121.141 31.3187C121.117 31.2513 121.079 31.1895 121.031 31.1367C120.979 31.0841 120.917 31.0432 120.848 31.0169C120.779 30.9905 120.706 30.9793 120.632 30.984H117.034C116.746 30.9927 116.46 30.936 116.197 30.8181C115.982 30.7124 115.79 30.5639 115.634 30.3817C115.487 30.2091 115.377 30.0088 115.309 29.7926C115.181 29.3656 115.181 28.9104 115.309 28.4834C115.375 28.2683 115.483 28.0683 115.625 27.8943C115.778 27.7084 115.971 27.5593 116.189 27.4579C116.462 27.3389 116.758 27.2837 117.056 27.2964H121.824C122.341 27.2855 122.858 27.3368 123.363 27.4492C123.734 27.5241 124.078 27.6974 124.36 27.951C124.617 28.2015 124.8 28.5187 124.889 28.8674C125.008 29.323 125.064 29.793 125.054 30.2639V34.5406H126.354V28.3656C126.338 28.1077 126.379 27.8494 126.475 27.6094C126.57 27.3694 126.717 27.1537 126.905 26.9778C127.269 26.6706 127.73 26.5049 128.205 26.5109C128.449 26.5103 128.69 26.5501 128.921 26.6287C129.283 26.749 129.597 26.984 129.816 27.2986C130.034 27.6131 130.146 27.9905 130.135 28.3743V45.0971C130.135 45.604 129.935 46.0902 129.578 46.4486C129.222 46.8071 128.739 47.0085 128.236 47.0085C127.733 47.0073 127.251 46.8054 126.896 46.4471C126.541 46.0888 126.341 45.6033 126.341 45.0971V38.1147H124.954C124.881 39.3811 124.587 40.6248 124.087 41.7892C123.68 42.7267 123.09 43.5725 122.353 44.2766C121.662 44.9203 120.848 45.4149 119.96 45.7298C119.067 46.0484 118.132 46.2322 117.186 46.2753C116.648 46.3126 116.112 46.1864 115.647 45.9131C115.424 45.7788 115.242 45.586 115.12 45.3554C114.997 45.1247 114.94 44.865 114.953 44.6039C114.924 44.1448 115.055 43.6899 115.322 43.3166C115.481 43.1308 115.677 42.9802 115.897 42.8743C116.117 42.7684 116.357 42.7095 116.6 42.7012ZM131.188 28.3656C131.171 28.1043 131.215 27.8426 131.316 27.6015C131.418 27.3605 131.575 27.1468 131.773 26.9778C132.154 26.6702 132.629 26.5051 133.117 26.5109C133.36 26.5103 133.602 26.5501 133.832 26.6287C134.061 26.707 134.272 26.8302 134.453 26.9913C134.634 27.1524 134.781 27.3481 134.886 27.567C134.998 27.8176 135.053 28.0906 135.046 28.3656V45.0883C135.046 45.5945 134.847 46.08 134.492 46.4384C134.136 46.7967 133.655 46.9986 133.152 46.9998H133.082C132.58 46.9986 132.098 46.7967 131.743 46.4384C131.387 46.08 131.188 45.5945 131.188 45.0883V28.3656Z" fill="white"/>
<path d="M155.096 42.8761C155.393 42.8657 155.689 42.9208 155.963 43.0375C156.187 43.1387 156.387 43.2876 156.548 43.4739C156.699 43.6469 156.81 43.851 156.873 44.0718C156.938 44.2885 156.971 44.5133 156.973 44.7395C156.974 44.9694 156.938 45.198 156.865 45.4159C156.792 45.6386 156.674 45.8432 156.517 46.0162C156.36 46.1893 156.168 46.3268 155.954 46.4196C155.679 46.531 155.384 46.5831 155.087 46.5723H138.527C138.231 46.5831 137.936 46.531 137.66 46.4196C137.446 46.3285 137.253 46.1915 137.096 46.0183C136.939 45.845 136.821 45.6395 136.75 45.4159C136.677 45.198 136.641 44.9694 136.642 44.7395C136.642 44.5135 136.674 44.2887 136.737 44.0718C136.804 43.8436 136.92 43.6333 137.078 43.4559C137.235 43.2786 137.43 43.1387 137.647 43.0463C137.922 42.9306 138.217 42.8755 138.514 42.8848L155.096 42.8761ZM149.027 29.1295C149.009 29.8087 148.907 30.483 148.723 31.137C149.65 31.1695 150.565 31.3537 151.433 31.6825C152.333 32.0169 153.159 32.5288 153.861 33.188C154.621 33.9054 155.235 34.7652 155.668 35.7191C155.767 35.9225 155.855 36.1308 155.933 36.3432C156.056 36.6799 156.098 37.0418 156.052 37.398C156.007 37.7541 155.877 38.094 155.673 38.3885C155.469 38.6831 155.197 38.9236 154.881 39.0894C154.564 39.2553 154.213 39.3417 153.856 39.3412C153.409 39.3409 152.972 39.2038 152.604 38.9483C152.235 38.6927 151.952 38.3306 151.793 37.9099C151.499 37.125 151.023 36.422 150.405 35.8588C149.95 35.4616 149.423 35.1551 148.853 34.9554C148.261 34.7494 147.637 34.6533 147.011 34.6718C146.52 35.3535 145.961 35.9823 145.342 36.5483C144.74 37.1032 144.082 37.5932 143.378 38.0102C142.708 38.4091 141.996 38.7311 141.254 38.9703C140.553 39.1967 139.823 39.3215 139.087 39.3412C138.588 39.3645 138.096 39.21 137.699 38.9048C137.506 38.7553 137.347 38.5665 137.231 38.3507C137.115 38.1349 137.046 37.897 137.027 37.6524C136.953 37.1605 137.075 36.6589 137.368 36.2579C137.661 35.8569 138.099 35.5893 138.588 35.514C139.313 35.3478 140.009 35.0758 140.656 34.7067C141.33 34.3272 141.941 33.8443 142.468 33.2753C143.015 32.6841 143.468 32.0114 143.812 31.281C144.182 30.4885 144.424 29.6413 144.527 28.7717C144.546 28.4694 144.631 28.175 144.774 27.9089C144.918 27.6429 145.118 27.4116 145.359 27.2312C145.831 26.8994 146.403 26.745 146.976 26.7948C147.548 26.823 148.089 27.0641 148.494 27.4712C148.688 27.697 148.832 27.9614 148.917 28.2472C149.002 28.533 149.026 28.8337 148.988 29.1295H149.027Z" fill="white"/>
<path d="M176.338 42.8978C176.635 42.8874 176.931 42.9425 177.205 43.0592C177.429 43.1604 177.628 43.3093 177.79 43.4956C177.939 43.666 178.05 43.867 178.115 44.0848C178.18 44.2969 178.214 44.5174 178.215 44.7394C178.216 44.9693 178.179 45.1979 178.106 45.4158C178.034 45.6385 177.915 45.8431 177.758 46.0161C177.601 46.1892 177.41 46.3267 177.196 46.4195C176.921 46.5309 176.625 46.583 176.329 46.5722H159.769C159.473 46.583 159.177 46.5309 158.902 46.4195C158.687 46.3284 158.495 46.1915 158.338 46.0182C158.18 45.8449 158.062 45.6394 157.992 45.4158C157.919 45.1979 157.882 44.9693 157.883 44.7394C157.883 44.5177 157.915 44.2971 157.979 44.0848C158.048 43.8588 158.165 43.6507 158.322 43.4751C158.479 43.2994 158.673 43.1605 158.889 43.068C159.163 42.9523 159.459 42.8972 159.756 42.9065L176.338 42.8978ZM175.471 27.1657C175.735 27.1561 175.997 27.2084 176.238 27.3184C176.438 27.4093 176.616 27.5434 176.758 27.7111C176.897 27.8677 176.998 28.0544 177.053 28.2566C177.109 28.4554 177.139 28.6609 177.14 28.8676C177.14 29.2859 177.003 29.6927 176.75 30.0241C176.592 30.2119 176.391 30.3579 176.164 30.4492C175.937 30.5405 175.692 30.5743 175.449 30.5477H163.918C163.484 30.5477 163.267 30.7354 163.267 31.1151V31.966H175.319C175.562 31.9387 175.808 31.9721 176.035 32.0635C176.261 32.1549 176.462 32.3013 176.619 32.4897C176.864 32.8086 176.998 33.1996 177.001 33.6025C177.001 34.01 176.863 34.4054 176.611 34.7241C176.452 34.9097 176.25 35.0536 176.024 35.1433C175.797 35.233 175.552 35.2659 175.31 35.239H163.293V36.0682C163.284 36.1518 163.293 36.2365 163.321 36.3159C163.349 36.3953 163.394 36.4673 163.454 36.5264C163.598 36.624 163.771 36.6701 163.944 36.6573H175.822C176.086 36.6478 176.349 36.7001 176.589 36.81C176.789 36.901 176.967 37.0351 177.109 37.2028C177.246 37.3557 177.347 37.5377 177.404 37.7352C177.461 37.9309 177.49 38.1336 177.491 38.3374C177.492 38.7558 177.354 39.1625 177.101 39.4939C176.945 39.6785 176.748 39.8225 176.525 39.9137C176.302 40.0048 176.061 40.0405 175.822 40.0176H162.34C161.083 40.0176 160.194 39.7441 159.674 39.1971C159.154 38.6502 158.893 37.789 158.893 36.6137V30.5696C158.893 29.3913 159.154 28.5287 159.674 27.9817C160.194 27.4348 161.083 27.1627 162.34 27.1657H175.471Z" fill="white"/>
<path d="M184.488 41.5889C184.47 41.7223 184.481 41.8579 184.518 41.9871C184.555 42.1163 184.619 42.2363 184.705 42.3395C184.936 42.4896 185.211 42.5558 185.485 42.5271H191.12C191.41 42.5173 191.698 42.5693 191.966 42.6799C192.183 42.7728 192.379 42.9094 192.542 43.0814C192.687 43.2467 192.798 43.4396 192.867 43.6487C192.929 43.8584 192.961 44.0758 192.963 44.2946C192.964 44.7429 192.811 45.1778 192.529 45.5252C192.354 45.7224 192.135 45.8756 191.891 45.9726C191.646 46.0696 191.382 46.1077 191.12 46.0838H183.924C183.34 46.0951 182.757 46.0291 182.19 45.8874C181.756 45.7783 181.357 45.5606 181.028 45.2546C180.718 44.9343 180.494 44.5391 180.378 44.1069C180.23 43.5374 180.162 42.9499 180.174 42.3613V38.3901C180.162 37.8087 180.231 37.2285 180.378 36.6663C180.489 36.2344 180.717 35.8421 181.037 35.5337C181.357 35.2253 181.757 35.013 182.19 34.9207C182.759 34.7883 183.341 34.7267 183.924 34.7374H187.566V31.5736C187.567 31.4281 187.529 31.2851 187.457 31.159C187.384 31.0281 187.228 30.9626 186.98 30.9626H182.234C181.937 30.9733 181.642 30.9213 181.367 30.8099C181.147 30.7108 180.954 30.5613 180.803 30.3735C180.66 30.1987 180.55 29.9991 180.478 29.7843C180.406 29.5736 180.37 29.3525 180.369 29.1297C180.369 28.908 180.401 28.6875 180.465 28.4751C180.53 28.2574 180.641 28.0564 180.79 27.886C180.95 27.7015 181.146 27.5528 181.367 27.4496C181.64 27.3306 181.936 27.2754 182.234 27.2881H188.086C188.709 27.2747 189.332 27.3332 189.941 27.4627C190.368 27.5512 190.766 27.7463 191.099 28.03C191.396 28.3051 191.607 28.6615 191.706 29.0556C191.833 29.5691 191.891 30.0975 191.879 30.6266V37.2816C191.879 37.5421 191.776 37.7918 191.593 37.9759C191.41 38.1601 191.162 38.2635 190.904 38.2635H185.485C185.212 38.236 184.937 38.3005 184.705 38.4468C184.619 38.5511 184.556 38.6719 184.519 38.8017C184.481 38.9316 184.471 39.0677 184.488 39.2018V41.5889ZM194.372 28.6279C194.352 28.3312 194.4 28.0339 194.512 27.7591C194.625 27.4843 194.8 27.2395 195.022 27.0438C195.442 26.6942 195.972 26.5056 196.518 26.5114C196.791 26.512 197.062 26.5592 197.32 26.651C197.57 26.7416 197.801 26.8794 198 27.0569C198.202 27.2398 198.364 27.4626 198.477 27.7115C198.607 27.9987 198.671 28.3121 198.664 28.6279V34.1483H199.379C199.663 34.1375 199.946 34.1975 200.202 34.3229C200.406 34.4275 200.584 34.5766 200.723 34.7593C200.854 34.9435 200.949 35.1507 201.004 35.3702C201.06 35.5884 201.089 35.8126 201.091 36.0379C201.09 36.2618 201.061 36.4846 201.004 36.7012C200.951 36.9214 200.855 37.1289 200.723 37.3122C200.582 37.498 200.399 37.6476 200.189 37.7486C199.937 37.8703 199.659 37.9301 199.379 37.9232H198.664V44.8182C198.664 45.3969 198.435 45.9519 198.029 46.3611C197.622 46.7703 197.071 47.0002 196.496 47.0002C195.925 46.9945 195.379 46.762 194.977 46.3535C194.575 45.9449 194.35 45.3932 194.35 44.8182L194.372 28.6279Z" fill="white"/>
<path d="M215.748 27.2442C215.992 27.2367 216.234 27.2923 216.45 27.4057C216.636 27.507 216.8 27.645 216.932 27.8115C217.056 27.9752 217.143 28.1644 217.187 28.3658C217.237 28.5626 217.263 28.7648 217.265 28.968C217.264 29.1632 217.234 29.3571 217.179 29.544C217.123 29.7393 217.035 29.9238 216.919 30.0895C216.799 30.2622 216.638 30.4017 216.45 30.4954C216.232 30.6018 215.991 30.6542 215.748 30.6481H210.243C209.839 30.6481 209.636 30.8227 209.636 31.1718V34.1829C209.625 34.2625 209.634 34.3435 209.66 34.4192C209.687 34.495 209.73 34.5635 209.787 34.6193C209.921 34.7113 210.081 34.7544 210.243 34.7415H216.572C216.819 34.7365 217.064 34.7887 217.287 34.8943C217.476 34.9835 217.64 35.1184 217.764 35.287C217.881 35.4476 217.969 35.6279 218.024 35.8194C218.08 36.0079 218.109 36.2032 218.111 36.3998C218.11 36.6022 218.081 36.8035 218.024 36.9977C217.969 37.193 217.881 37.3775 217.764 37.5432C217.643 37.718 217.479 37.8579 217.287 37.949C217.064 38.0546 216.819 38.1068 216.572 38.1018H208.444C207.941 38.1124 207.438 38.0611 206.948 37.949C206.592 37.8666 206.266 37.6887 206.003 37.4341C205.755 37.1728 205.583 36.8484 205.504 36.4958C205.404 36.0271 205.357 35.5483 205.366 35.0688V30.299C205.358 29.8181 205.404 29.3379 205.504 28.8676C205.576 28.5097 205.752 28.1811 206.008 27.9233C206.265 27.6655 206.592 27.4899 206.948 27.4188C207.438 27.3046 207.941 27.2533 208.444 27.266L215.748 27.2442ZM209.506 46.9912C208.997 47.0018 208.49 46.9431 207.997 46.8166C207.641 46.7216 207.317 46.5334 207.056 46.2711C206.811 45.9925 206.642 45.654 206.567 45.2893C206.467 44.8012 206.421 44.3037 206.428 43.8055V41.5144C206.405 41.2131 206.452 40.9106 206.565 40.6305C206.678 40.3505 206.854 40.1004 207.078 39.8997C207.527 39.5483 208.083 39.3634 208.652 39.3761C209.21 39.3597 209.756 39.5455 210.191 39.8997C210.412 40.1064 210.584 40.3613 210.693 40.6448C210.802 40.9284 210.845 41.2333 210.819 41.5362V43.0854C210.819 43.3298 210.854 43.4826 210.928 43.5218C211.075 43.596 211.24 43.6263 211.404 43.6091H222.762C223.02 43.5828 223.28 43.6151 223.524 43.7034C223.768 43.7918 223.989 43.934 224.171 44.1197C224.44 44.4491 224.586 44.8629 224.583 45.2893C224.586 45.7246 224.432 46.1463 224.149 46.4763C223.97 46.6624 223.752 46.8055 223.51 46.8946C223.268 46.9838 223.01 47.0168 222.754 46.9912H209.506ZM219.606 28.6625C219.584 28.3632 219.629 28.0626 219.738 27.7831C219.847 27.5037 220.017 27.2524 220.235 27.0478C220.652 26.6931 221.18 26.4985 221.726 26.4985C222.272 26.4985 222.8 26.6931 223.217 27.0478C223.436 27.251 223.606 27.5006 223.716 27.7784C223.827 28.0562 223.874 28.3552 223.855 28.6538V31.9486H224.527C224.811 31.9378 225.094 31.9977 225.35 32.1231C225.554 32.2278 225.732 32.3769 225.871 32.5595C226.001 32.7438 226.097 32.951 226.152 33.1705C226.208 33.3886 226.237 33.6129 226.239 33.8382C226.238 34.0621 226.209 34.2849 226.152 34.5015C226.099 34.7216 226.003 34.9292 225.871 35.1125C225.73 35.2983 225.547 35.4479 225.337 35.5489C225.085 35.6706 224.807 35.7304 224.527 35.7234H223.855V39.7601C223.855 40.3272 223.631 40.8711 223.233 41.2721C222.834 41.6732 222.294 41.8984 221.731 41.8984C221.167 41.8984 220.627 41.6732 220.229 41.2721C219.83 40.8711 219.606 40.3272 219.606 39.7601V28.6625Z" fill="white"/>
<path d="M232.347 41.8507C232.436 42.1104 232.48 42.3835 232.477 42.6581V43.1817C232.477 43.4261 232.512 43.5832 232.585 43.6487C232.729 43.7331 232.897 43.7683 233.062 43.7491H244.854C245.11 43.7218 245.369 43.7515 245.612 43.8359C245.856 43.9204 246.078 44.0576 246.263 44.2378C246.529 44.5534 246.675 44.954 246.675 45.3681C246.675 45.7822 246.529 46.1828 246.263 46.4984C246.081 46.6807 245.862 46.8202 245.621 46.907C245.379 46.9938 245.122 47.0256 244.867 47.0002H231.19C230.681 47.0108 230.174 46.9521 229.681 46.8257C229.325 46.7306 229 46.5424 228.74 46.2802C228.495 46.0015 228.326 45.663 228.25 45.2983C228.151 44.8102 228.104 44.3127 228.112 43.8145V42.6581C228.086 42.3544 228.131 42.049 228.244 41.7662C228.357 41.4835 228.535 41.2314 228.762 41.0303C229.209 40.6855 229.76 40.5053 230.323 40.5197C230.649 40.5172 230.972 40.5764 231.276 40.6943V38.4468H228.32C228.068 38.4737 227.813 38.4447 227.573 38.3617C227.334 38.2788 227.115 38.144 226.933 37.9668C226.661 37.6524 226.515 37.2485 226.521 36.8322C226.514 36.4092 226.661 35.9982 226.933 35.6757C227.111 35.4926 227.329 35.3524 227.569 35.2655C227.809 35.1786 228.066 35.1473 228.32 35.1738H239.287C239.541 35.1473 239.798 35.1786 240.038 35.2655C240.278 35.3524 240.496 35.4926 240.675 35.6757C240.954 35.9951 241.109 36.4064 241.108 36.8322C241.108 37.2513 240.954 37.6556 240.675 37.9668C240.492 38.144 240.274 38.2788 240.034 38.3617C239.794 38.4447 239.54 38.4737 239.287 38.4468H235.473V40.8907C235.473 41.0169 235.449 41.142 235.401 41.2587C235.353 41.3755 235.283 41.4815 235.195 41.5708C235.106 41.6601 235.001 41.7308 234.885 41.7788C234.769 41.8269 234.644 41.8513 234.519 41.8507H232.347ZM231.09 34.192C230.476 34.2045 229.865 34.1116 229.282 33.917C228.813 33.7651 228.382 33.5119 228.021 33.1751C227.694 32.8597 227.446 32.4709 227.297 32.0405C227.133 31.5755 227.052 31.085 227.058 30.5917C227.053 30.097 227.133 29.6051 227.297 29.1385C227.449 28.707 227.696 28.3161 228.021 27.9951C228.382 27.6541 228.812 27.3964 229.282 27.2401C229.866 27.0494 230.476 26.9579 231.09 26.9696H236.123C236.733 26.9575 237.342 27.049 237.922 27.2401C238.386 27.3986 238.81 27.6561 239.166 27.9951C239.492 28.3158 239.741 28.7068 239.894 29.1385C240.058 29.6051 240.138 30.097 240.133 30.5917C240.15 31.0653 240.074 31.5377 239.908 31.9813C239.742 32.4249 239.49 32.8307 239.166 33.1751C238.524 33.8501 237.513 34.189 236.132 34.192H231.09ZM232.022 29.9153C231.779 29.8909 231.536 29.9477 231.328 30.0767C231.259 30.1422 231.206 30.2225 231.172 30.3117C231.138 30.4009 231.125 30.4966 231.133 30.5917C231.128 30.6859 231.142 30.7801 231.176 30.8682C231.21 30.9562 231.262 31.036 231.328 31.1023C231.528 31.2498 231.776 31.3167 232.022 31.2899H235.165C235.411 31.3167 235.659 31.2498 235.858 31.1023C235.925 31.036 235.977 30.9562 236.011 30.8682C236.044 30.7801 236.059 30.6859 236.054 30.5917C236.062 30.4966 236.048 30.4009 236.015 30.3117C235.981 30.2225 235.927 30.1422 235.858 30.0767C235.651 29.9477 235.407 29.8909 235.165 29.9153H232.022ZM241.798 42.1344H238.503C238.263 42.1562 238.02 42.1288 237.791 42.0538C237.561 41.9788 237.349 41.8577 237.168 41.698C236.901 41.4129 236.758 41.0332 236.769 40.6419C236.758 40.2484 236.898 39.8659 237.159 39.5727C237.34 39.4092 237.553 39.2858 237.785 39.2106C238.016 39.1354 238.261 39.1101 238.503 39.1363H241.798V28.6279C241.777 28.3312 241.825 28.0339 241.938 27.7591C242.051 27.4843 242.225 27.2395 242.448 27.0438C242.868 26.6942 243.398 26.5056 243.943 26.5114C244.217 26.512 244.488 26.5592 244.745 26.651C244.999 26.7435 245.234 26.881 245.439 27.0569C245.646 27.237 245.812 27.4604 245.925 27.7115C246.055 27.9987 246.119 28.3121 246.111 28.6279V42.5926C246.111 42.7662 246.042 42.9327 245.92 43.0555C245.798 43.1782 245.633 43.2472 245.461 43.2472H242.448C242.275 43.2472 242.11 43.1782 241.988 43.0555C241.866 42.9327 241.798 42.7662 241.798 42.5926V42.1344Z" fill="white"/>
</g>
<defs>
<clipPath id="clip0_3894_83537">
<rect width="340" height="47" fill="white"/>
</clipPath>
</defs>
</svg>
