<svg width="317" height="50" viewBox="0 0 317 50" fill="none" xmlns="http://www.w3.org/2000/svg">
<g clip-path="url(#clip0_3894_83561)">
<path d="M11.9742 16.636C12.2677 16.6268 12.5589 16.6903 12.8219 16.8208C13.0312 16.9341 13.2131 17.0918 13.3546 17.2829C13.4859 17.4715 13.5802 17.6832 13.6325 17.9068C13.6827 18.1267 13.7092 18.3513 13.7113 18.5768C13.7101 18.81 13.6837 19.0424 13.6325 19.27C13.5794 19.4958 13.48 19.7082 13.3407 19.8938C13.1957 20.0852 13.0108 20.2429 12.7987 20.3559C12.5442 20.4866 12.2603 20.5502 11.9742 20.5408H3.52057C2.94055 20.5546 2.36124 20.4925 1.79743 20.3559C1.38657 20.2598 1.01194 20.0481 0.718105 19.746C0.441047 19.4296 0.249721 19.0478 0.162272 18.6369C0.0449581 18.0856 -0.00941837 17.5229 0.000158577 16.9595V3.09623C-0.0281769 2.78301 0.0192798 2.46759 0.13858 2.17648C0.25788 1.88538 0.445525 1.62711 0.685705 1.42341C1.15463 1.07089 1.72924 0.886864 2.31623 0.901223C2.90119 0.881062 3.47477 1.06581 3.93747 1.42341C4.16686 1.634 4.34461 1.89438 4.45706 2.18444C4.56951 2.4745 4.61359 2.78646 4.58593 3.09623V15.989C4.58593 16.2524 4.62763 16.4234 4.71564 16.4973C4.87007 16.5943 5.05333 16.6351 5.23443 16.6129L11.9742 16.636ZM15.0546 2.23209C15.0326 1.91863 15.0839 1.60435 15.2045 1.31405C15.3251 1.02375 15.5116 0.765369 15.7494 0.559269C16.1973 0.186006 16.7639 -0.0155529 17.3475 -0.00912837C17.6399 -0.00952641 17.9301 0.0421147 18.2044 0.143368C18.474 0.235811 18.7227 0.380267 18.9363 0.568506C19.1507 0.763471 19.3239 0.99912 19.4458 1.26167C19.5813 1.56697 19.6477 1.89829 19.6404 2.23209V8.07775H20.4047C20.7087 8.06799 21.0105 8.1314 21.2848 8.2626C21.503 8.37235 21.6931 8.53041 21.8406 8.7247C21.9813 8.91928 22.0835 9.13885 22.1417 9.37165C22.2015 9.60109 22.2326 9.83701 22.2344 10.0741C22.2327 10.3126 22.2015 10.5501 22.1417 10.7811C22.0835 11.0139 21.9813 11.2335 21.8406 11.428C21.6922 11.6251 21.4984 11.7836 21.2755 11.8901C21.0046 12.0214 20.7057 12.0849 20.4047 12.075H19.6404V19.3763C19.6441 19.6807 19.5868 19.9829 19.4717 20.2649C19.3566 20.5469 19.1861 20.8031 18.9703 21.0184C18.7545 21.2337 18.4977 21.4037 18.215 21.5185C17.9324 21.6333 17.6295 21.6905 17.3243 21.6868C16.71 21.6868 16.1209 21.4434 15.6866 21.0101C15.2522 20.5768 15.0082 19.9891 15.0082 19.3763L15.0546 2.23209Z" fill="white"/>
<path d="M26.4031 12.2688C25.8346 12.2831 25.2665 12.2256 24.7124 12.0978C24.3273 12.0091 23.9774 11.808 23.7072 11.5202C23.4568 11.2104 23.2966 10.838 23.2439 10.4435C23.1475 9.8866 23.1041 9.32185 23.1142 8.7568V4.25126C23.1052 3.69084 23.1486 3.1308 23.2439 2.57843C23.2956 2.18092 23.4559 1.80524 23.7072 1.49248C23.9774 1.20471 24.3273 1.00363 24.7124 0.914842C25.2662 0.785259 25.8343 0.72626 26.4031 0.739246H32.6565C33.2252 0.72596 33.7933 0.784963 34.3472 0.914842C34.7336 1.00357 35.085 1.20458 35.357 1.49248C35.6047 1.80736 35.7645 2.18202 35.8202 2.57843C35.9114 3.13125 35.9533 3.69105 35.9453 4.25126V10.6838C35.9459 10.8921 35.9052 11.0985 35.8256 11.2911C35.7459 11.4837 35.6289 11.6586 35.4813 11.8059C35.3336 11.9532 35.1582 12.07 34.9652 12.1494C34.7721 12.2288 34.5652 12.2694 34.3564 12.2688H26.4031ZM27.5148 21.6958C26.9729 21.7097 26.4319 21.6474 25.9074 21.511C25.5242 21.4141 25.175 21.2143 24.8977 20.9333C24.6331 20.6403 24.4537 20.2808 24.3789 19.8936C24.2681 19.3774 24.2168 18.8502 24.226 18.3224V15.8502C24.199 15.526 24.2491 15.2002 24.3723 14.899C24.4955 14.5979 24.6882 14.33 24.9347 14.1172C25.4125 13.7445 26.0051 13.5485 26.6115 13.5627C27.2086 13.5446 27.7923 13.7414 28.2559 14.1172C28.4927 14.3361 28.6762 14.6059 28.7926 14.9062C28.9089 15.2065 28.9551 15.5294 28.9276 15.8502V17.5368C28.9276 17.8002 28.9693 17.962 29.0434 17.9989C29.2002 18.0798 29.3776 18.112 29.5529 18.0914H41.6891C41.965 18.0641 42.2434 18.099 42.5039 18.1934C42.7645 18.2877 43.0005 18.4392 43.1946 18.6367C43.4905 18.9802 43.6547 19.4175 43.6578 19.8705C43.6618 20.3331 43.4972 20.7814 43.1946 21.132C43.0011 21.3274 42.7664 21.4772 42.5076 21.5708C42.2488 21.6643 41.9723 21.6991 41.6983 21.6727L27.5148 21.6958ZM27.5148 8.2716C27.4946 8.44068 27.5322 8.6116 27.6213 8.7568C27.6867 8.80631 27.7615 8.84207 27.8411 8.86193C27.9207 8.88179 28.0035 8.88532 28.0846 8.87233H31.2158C31.3187 8.87113 31.417 8.82985 31.4897 8.75731C31.5624 8.68477 31.6038 8.58674 31.605 8.48416V4.71336C31.6253 4.55032 31.584 4.38557 31.4892 4.25126C31.4246 4.1998 31.3503 4.16183 31.2707 4.1396C31.1912 4.11737 31.1079 4.11134 31.026 4.12187H28.0846C27.853 4.12187 27.7047 4.16346 27.6213 4.25126C27.5346 4.3889 27.497 4.55175 27.5148 4.71336V8.2716ZM38.3077 2.2873C38.285 1.97041 38.3336 1.65247 38.4498 1.35668C38.566 1.06088 38.7469 0.79469 38.9793 0.577505C39.4226 0.195365 39.9916 -0.0102958 40.5774 -0.000128544C41.1621 -0.00549064 41.728 0.205208 42.1662 0.591368C42.3992 0.805575 42.5813 1.06902 42.6991 1.36245C42.8169 1.65588 42.8675 1.97186 42.8472 2.2873V5.77621H43.5651C43.8691 5.76646 44.171 5.82986 44.4452 5.96106C44.6634 6.07081 44.8535 6.22887 45.0011 6.42317C45.1418 6.61774 45.244 6.83732 45.3022 7.07011C45.3619 7.29955 45.3931 7.53547 45.3948 7.77252C45.3931 8.01109 45.362 8.24854 45.3022 8.47954C45.244 8.71234 45.1418 8.93192 45.0011 9.12649C44.8526 9.32358 44.6588 9.48209 44.436 9.5886C44.165 9.71991 43.8661 9.78336 43.5651 9.77344H42.8472V14.0479C42.8472 14.3453 42.7884 14.6397 42.6744 14.9145C42.5603 15.1892 42.3931 15.4388 42.1824 15.6491C41.9716 15.8593 41.7214 16.0261 41.446 16.1399C41.1706 16.2537 40.8755 16.3123 40.5774 16.3123C40.2793 16.3123 39.9842 16.2537 39.7088 16.1399C39.4335 16.0261 39.1832 15.8593 38.9724 15.6491C38.7617 15.4388 38.5945 15.1892 38.4805 14.9145C38.3664 14.6397 38.3077 14.3453 38.3077 14.0479V2.2873Z" fill="white"/>
<path d="M59.222 16.9595C59.531 16.9514 59.8384 17.0065 60.1253 17.1213C60.3578 17.2183 60.5641 17.3687 60.7275 17.5603C60.881 17.7435 60.996 17.9557 61.0656 18.1841C61.1334 18.409 61.1677 18.6425 61.1675 18.8773C61.1691 19.1198 61.1347 19.3611 61.0656 19.5936C60.9973 19.8217 60.8786 20.0317 60.7182 20.2082C60.5457 20.3922 60.3356 20.5372 60.1021 20.6333C59.8237 20.7492 59.5236 20.8043 59.222 20.795H47.5722C47.2928 20.8213 47.011 20.7819 46.7496 20.68C46.4882 20.578 46.2543 20.4165 46.0668 20.2082C45.7645 19.8303 45.6011 19.3607 45.6035 18.8773C45.6049 18.6423 45.6408 18.4087 45.7101 18.1841C45.7793 17.9536 45.8978 17.7407 46.0575 17.5603C46.2271 17.3715 46.4357 17.2218 46.669 17.1213C46.9632 17.0038 47.2787 16.9487 47.5954 16.9595H59.222ZM46.1594 6.23866C46.1393 5.34055 46.318 4.44908 46.6828 3.62776C47.0069 2.90621 47.4993 2.27244 48.1188 1.77933C48.7551 1.28792 49.4823 0.926724 50.2589 0.716479C51.1263 0.478635 52.0227 0.361997 52.9223 0.369899C53.8188 0.363791 54.7119 0.480405 55.5765 0.716479C56.3539 0.924524 57.0816 1.28593 57.7166 1.77933C58.3307 2.27548 58.8194 2.90863 59.1433 3.62776C59.5064 4.44944 59.6836 5.3409 59.6621 6.23866V8.45677C59.684 9.35458 59.5069 10.2461 59.1433 11.0677C58.8175 11.7792 58.3288 12.4044 57.7166 12.893C57.0826 13.388 56.3546 13.7496 55.5765 13.9558C54.7119 14.1919 53.8188 14.3085 52.9223 14.3024C52.0227 14.3103 51.1263 14.1937 50.2589 13.9558C49.4815 13.7478 48.7538 13.3864 48.1188 12.893C47.5012 12.4074 47.0088 11.7816 46.6828 11.0677C46.3174 10.2465 46.1387 9.35494 46.1594 8.45677V6.23866ZM50.6989 8.61852C50.6911 8.94395 50.7543 9.26718 50.8842 9.56583C50.998 9.81492 51.1694 10.0335 51.3844 10.2035C51.5974 10.369 51.8416 10.49 52.1024 10.5594C52.3688 10.6368 52.6449 10.6757 52.9223 10.6749C53.1967 10.6761 53.4699 10.6371 53.733 10.5594C53.9902 10.4881 54.231 10.3672 54.4416 10.2035C54.657 10.0315 54.8311 9.81359 54.9512 9.56583C55.0886 9.26932 55.1552 8.94505 55.1457 8.61852V6.07693C55.1512 5.7582 55.0847 5.44233 54.9512 5.15271C54.8297 4.90711 54.6558 4.69102 54.4416 4.51962C54.2301 4.35634 53.9897 4.23408 53.733 4.15918C53.4694 4.08368 53.1966 4.0448 52.9223 4.04365C52.6451 4.04512 52.3693 4.08398 52.1024 4.15918C51.8421 4.23205 51.5982 4.35444 51.3844 4.51962C51.1706 4.68897 50.9993 4.90575 50.8842 5.15271C50.7581 5.44441 50.695 5.7593 50.6989 6.07693V8.61852ZM64.3174 21.6961C63.7031 21.6961 63.114 21.4527 62.6797 21.0194C62.2453 20.5861 62.0013 19.9984 62.0013 19.3856V2.28764C61.9792 1.9687 62.0303 1.64894 62.1507 1.35266C62.2711 1.05638 62.4576 0.791389 62.6961 0.577845C63.1496 0.197488 63.725 -0.00752903 64.3174 0.000211434C64.9098 -0.00752903 65.4852 0.197488 65.9386 0.577845C66.1771 0.791389 66.3636 1.05638 66.4841 1.35266C66.6045 1.64894 66.6555 1.9687 66.6334 2.28764V19.3856C66.6334 19.9984 66.3894 20.5861 65.9551 21.0194C65.5207 21.4527 64.9316 21.6961 64.3174 21.6961Z" fill="white"/>
<path d="M71.6593 17.0195C72.25 16.4975 72.7549 15.8863 73.1555 15.208C73.5749 14.4621 73.8867 13.661 74.0819 12.8282C74.3281 11.765 74.4831 10.6829 74.5451 9.59344C74.6378 8.36115 74.6841 6.89319 74.6841 5.18956V2.87902C74.6592 2.57638 74.7025 2.27202 74.8106 1.98819C74.9188 1.70436 75.0893 1.44824 75.3094 1.23855C75.7383 0.883751 76.281 0.695073 76.8381 0.70712C77.3988 0.697227 77.9433 0.894763 78.3666 1.26165C78.5889 1.46586 78.7625 1.71713 78.8747 1.99699C78.9869 2.27686 79.0349 2.57824 79.0151 2.87902V5.18956C79.024 6.88028 78.9312 8.57001 78.7372 10.2496C79.4339 10.5808 80.0721 11.0225 80.6271 11.5574C81.2052 12.1329 81.6648 12.8158 81.9797 13.5676C82.3654 14.4895 82.615 15.4623 82.7208 16.4557C82.7985 17.0906 82.8402 17.7293 82.8459 18.3689C82.8502 18.6331 82.8018 18.8956 82.7034 19.141C82.605 19.3864 82.4585 19.6098 82.2727 19.7981C82.0869 19.9865 81.8654 20.1361 81.621 20.2382C81.3767 20.3404 81.1144 20.3929 80.8494 20.3929H80.729C80.4638 20.3917 80.2016 20.338 79.9574 20.2348C79.7133 20.1316 79.4921 19.9811 79.3068 19.7919C79.1215 19.6027 78.9757 19.3787 78.8779 19.1328C78.7801 18.8869 78.7323 18.6241 78.7372 18.3596C78.746 17.8885 78.7196 17.4174 78.6585 16.9502C78.5701 16.1474 78.2871 15.3782 77.8339 14.709C77.507 15.8994 77.0077 17.0359 76.3517 18.0824C75.8435 18.8941 75.1829 19.6002 74.4062 20.1618C74.1768 20.3232 73.9237 20.4479 73.6558 20.5315C73.3742 20.6232 73.081 20.6746 72.7849 20.684C72.4932 20.6911 72.2025 20.6441 71.9279 20.5454C71.6443 20.4419 71.3956 20.2609 71.21 20.0232C71.0287 19.8189 70.9013 19.5727 70.8394 19.3069C70.7777 19.0465 70.7667 18.7767 70.807 18.5121C70.8469 18.2365 70.9363 17.9704 71.071 17.7265C71.2218 17.4567 71.4213 17.217 71.6593 17.0195ZM83.7492 10.4345H81.85C81.5444 10.4456 81.2402 10.3871 80.9606 10.2635C80.7286 10.1549 80.5232 9.99721 80.3585 9.80139C80.1983 9.61256 80.0799 9.39209 80.0111 9.15444C79.9424 8.92494 79.9065 8.68692 79.9045 8.44742C79.9051 8.22092 79.9362 7.99554 79.9971 7.77736C80.0629 7.54406 80.1764 7.32691 80.3306 7.13965C80.4984 6.947 80.7032 6.78987 80.9328 6.67754C81.223 6.54488 81.5403 6.4816 81.8593 6.4927H83.7584V1.98716C83.7409 1.71552 83.7836 1.44336 83.8837 1.19013C83.9838 0.936905 84.1388 0.708856 84.3374 0.52228C84.7223 0.189233 85.2178 0.0112859 85.7271 0.0232029C86.2345 0.0225551 86.7262 0.199125 87.1167 0.52228C87.3256 0.702366 87.4896 0.928484 87.5957 1.18274C87.7018 1.43699 87.7472 1.7124 87.7281 1.98716V19.7321C87.7288 19.9932 87.6777 20.2519 87.5778 20.4932C87.4779 20.7346 87.3312 20.9539 87.1461 21.1385C86.9611 21.3231 86.7413 21.4695 86.4993 21.5691C86.2574 21.6688 85.9981 21.7197 85.7364 21.7191C85.2081 21.7191 84.7015 21.5098 84.3279 21.1371C83.9544 20.7645 83.7445 20.2591 83.7445 19.7321L83.7492 10.4345ZM88.8445 1.95481C88.8257 1.67875 88.8725 1.40217 88.9812 1.1476C89.0898 0.893032 89.2573 0.667684 89.4698 0.489929C89.8756 0.161769 90.3835 -0.0147501 90.9058 -0.00914799C91.166 -0.00829848 91.4242 0.0354195 91.6701 0.120241C91.9132 0.20307 92.1381 0.331714 92.3325 0.499173C92.5258 0.671754 92.6832 0.880587 92.7957 1.11378C92.916 1.37755 92.9746 1.66513 92.9671 1.95481V19.6997C92.9677 19.9608 92.9166 20.2195 92.8168 20.4609C92.7169 20.7022 92.5702 20.9215 92.3851 21.1062C92.2 21.2908 91.9802 21.4371 91.7382 21.5368C91.4963 21.6364 91.237 21.6874 90.9753 21.6868H90.8363C90.3081 21.6868 89.8015 21.4774 89.4279 21.1048C89.0544 20.7321 88.8445 20.2267 88.8445 19.6997V1.95481Z" fill="white"/>
<path d="M96.3946 17.1674C97.019 17.0929 97.6309 16.9376 98.215 16.7053C98.7666 16.4726 99.2519 16.1075 99.6278 15.6424C100.062 15.0829 100.37 14.4367 100.531 13.7478C100.76 12.7713 100.864 11.7698 100.841 10.7672V5.36056C100.852 5.27812 100.845 5.19435 100.821 5.11473C100.797 5.03511 100.757 4.96141 100.702 4.89845C100.57 4.79768 100.405 4.75136 100.239 4.76906H96.7883C96.4827 4.78014 96.1786 4.72167 95.8989 4.59808C95.6684 4.48719 95.4634 4.32985 95.2968 4.13597C95.1371 3.95554 95.0186 3.7427 94.9494 3.51213C94.8801 3.28752 94.8442 3.05398 94.8429 2.81897C94.8442 2.58396 94.8801 2.35042 94.9494 2.12581C95.0174 1.8976 95.1308 1.68542 95.2829 1.50196C95.4474 1.30593 95.653 1.1482 95.8851 1.03986C96.1768 0.912728 96.4934 0.85271 96.8115 0.864253H101.606C102.158 0.855221 102.71 0.909491 103.25 1.02599C103.645 1.10925 104.012 1.29223 104.316 1.55741C104.59 1.82385 104.786 2.15912 104.885 2.52784C105.01 3.01059 105.068 3.50816 105.057 4.00658V4.90769H106.91V1.95021C106.892 1.67857 106.935 1.40641 107.035 1.15318C107.135 0.899954 107.29 0.671905 107.489 0.485328C107.874 0.153828 108.369 -0.0238976 108.878 -0.0137483C109.385 -0.0117098 109.876 0.164543 110.268 0.485328C110.48 0.663084 110.648 0.888432 110.756 1.143C110.865 1.39757 110.912 1.67415 110.893 1.95021V19.6859C110.894 19.9482 110.842 20.2081 110.742 20.4506C110.642 20.693 110.494 20.9133 110.308 21.0988C110.122 21.2843 109.902 21.4314 109.659 21.5315C109.416 21.6316 109.155 21.6828 108.892 21.6822C108.629 21.6828 108.368 21.6316 108.125 21.5316C107.882 21.4315 107.66 21.2846 107.474 21.0991C107.288 20.9137 107.14 20.6934 107.039 20.4509C106.938 20.2084 106.886 19.9484 106.886 19.6859V16.2293H105.358C104.961 16.2465 104.567 16.1503 104.223 15.9521C103.935 16.7511 103.517 17.4973 102.986 18.1609C102.506 18.7503 101.935 19.2603 101.295 19.672C100.669 20.0744 99.9851 20.3783 99.2665 20.5731C98.5324 20.7772 97.7799 20.9087 97.0199 20.9659C96.4523 21.0246 95.8807 20.8999 95.3894 20.6101C95.1551 20.4629 94.9626 20.2581 94.8304 20.0153C94.6982 19.7726 94.6307 19.5 94.6344 19.2238C94.5822 18.7298 94.7196 18.2344 95.0189 17.8375C95.3706 17.4414 95.8653 17.2005 96.3946 17.1674ZM105.057 10.7903C105.057 11.3772 105.057 11.9225 104.987 12.4308C105.046 12.4356 105.105 12.4356 105.163 12.4308C105.228 12.4254 105.293 12.4254 105.358 12.4308H106.886V8.78015H105.034L105.057 10.7903ZM112.028 1.96407C112.008 1.68882 112.054 1.41283 112.161 1.15837C112.268 0.903916 112.434 0.678118 112.644 0.499191C113.044 0.16991 113.548 -0.00697093 114.066 0.000114383C114.573 0.00215288 115.064 0.178406 115.456 0.499191C115.668 0.676947 115.836 0.902294 115.945 1.15686C116.053 1.41143 116.1 1.68802 116.081 1.96407V19.6997C116.082 19.9621 116.03 20.2219 115.93 20.4644C115.83 20.7069 115.682 20.9272 115.496 21.1127C115.311 21.2982 115.09 21.4452 114.847 21.5453C114.604 21.6454 114.343 21.6967 114.08 21.696H114.011C113.747 21.6967 113.487 21.6455 113.243 21.5454C113 21.4454 112.779 21.2984 112.593 21.113C112.406 20.9276 112.259 20.7073 112.158 20.4648C112.057 20.2223 112.005 19.9623 112.005 19.6997L112.028 1.96407Z" fill="white"/>
<path d="M137.899 9.45032C138.132 9.42721 138.368 9.45674 138.588 9.53673C138.809 9.61671 139.008 9.74511 139.172 9.91243C139.414 10.1997 139.545 10.5633 139.543 10.9383C139.554 11.3248 139.419 11.7012 139.163 11.9919C138.995 12.1485 138.795 12.2674 138.577 12.3407C138.359 12.414 138.128 12.4401 137.899 12.417H119.463C119.236 12.4411 119.006 12.4155 118.79 12.3421C118.574 12.2687 118.377 12.1492 118.212 11.9919C117.963 11.698 117.831 11.323 117.841 10.9383C117.839 10.5633 117.97 10.1997 118.212 9.91243C118.372 9.74613 118.568 9.61817 118.784 9.53813C119.001 9.45809 119.233 9.42807 119.463 9.45032H137.899ZM121.385 21.6962C120.991 21.7256 120.594 21.6708 120.223 21.5353C119.852 21.3999 119.513 21.1869 119.231 20.9106C118.75 20.3803 118.492 19.6849 118.513 18.9697V18.8311C118.491 18.4903 118.543 18.1488 118.666 17.8299C118.788 17.511 118.978 17.222 119.222 16.9827C119.832 16.4954 120.606 16.259 121.385 16.3219H133.822V15.906C133.828 15.8568 133.824 15.8071 133.811 15.7595C133.797 15.7119 133.774 15.6674 133.744 15.6287C133.641 15.571 133.523 15.5467 133.405 15.5594H119.972C119.799 15.5729 119.625 15.5457 119.464 15.4799C119.303 15.414 119.16 15.3115 119.046 15.1805C118.846 14.9523 118.735 14.6607 118.731 14.3579C118.733 14.0584 118.831 13.7673 119.009 13.5261C119.12 13.3911 119.262 13.2848 119.424 13.2165C119.585 13.1481 119.76 13.1196 119.935 13.1333H136.055C137.014 13.1333 137.667 13.3043 138.024 13.6416C138.213 13.8456 138.358 14.0863 138.449 14.3487C138.541 14.6111 138.577 14.8895 138.556 15.1666V17.2045C138.556 17.528 138.427 17.8383 138.198 18.0671C137.969 18.2959 137.658 18.4244 137.333 18.4244H123.863C123.803 18.4189 123.742 18.4278 123.685 18.4503C123.629 18.4728 123.579 18.5083 123.539 18.5538C123.482 18.63 123.449 18.722 123.446 18.8172C123.446 19.0668 123.585 19.1869 123.863 19.1869H137.574C137.751 19.1688 137.929 19.1967 138.091 19.268C138.254 19.3393 138.395 19.4515 138.501 19.5936C138.672 19.8493 138.764 20.15 138.765 20.4577C138.758 20.7458 138.669 21.0261 138.51 21.2664C138.407 21.4123 138.267 21.5279 138.104 21.6011C137.941 21.6742 137.761 21.7023 137.584 21.6823L121.385 21.6962ZM121.547 8.75716C121.153 8.78664 120.757 8.73182 120.385 8.59634C120.014 8.46087 119.676 8.24787 119.393 7.97158C118.912 7.44127 118.655 6.74586 118.675 6.03073V5.8921C118.654 5.55692 118.707 5.22122 118.829 4.90837C118.952 4.59552 119.141 4.31305 119.384 4.08064C120.001 3.60776 120.772 3.38047 121.547 3.44293H133.591V3.05014C133.597 3.00103 133.593 2.95124 133.579 2.90364C133.566 2.85605 133.543 2.81161 133.512 2.77287C133.409 2.71515 133.291 2.69091 133.174 2.70356H120.065C119.89 2.71693 119.715 2.68823 119.554 2.61987C119.392 2.55151 119.25 2.4455 119.138 2.31077C118.939 2.07871 118.828 1.78443 118.823 1.47897C118.827 1.17674 118.924 0.882967 119.101 0.63794C119.21 0.499152 119.352 0.389386 119.513 0.31843C119.675 0.247474 119.852 0.217532 120.028 0.231284H135.777C136.736 0.231284 137.389 0.402266 137.746 0.739605C137.935 0.94355 138.08 1.18425 138.171 1.44665C138.263 1.70905 138.299 1.98749 138.278 2.26456V4.32555C138.278 4.64911 138.15 4.95941 137.92 5.1882C137.691 5.41698 137.38 5.54552 137.056 5.54552H123.965C123.906 5.53968 123.846 5.54702 123.79 5.56699C123.734 5.58697 123.683 5.61909 123.641 5.66104C123.582 5.73292 123.549 5.82249 123.548 5.9152C123.548 6.14626 123.687 6.26178 123.965 6.26178H137.143C137.32 6.24366 137.498 6.27161 137.661 6.3429C137.823 6.41419 137.964 6.52637 138.07 6.66844C138.242 6.92413 138.333 7.22483 138.334 7.53258C138.327 7.82066 138.239 8.10092 138.079 8.34127C137.977 8.48752 137.837 8.60339 137.673 8.67661C137.51 8.74983 137.33 8.77766 137.153 8.75716H121.547Z" fill="white"/>
<path d="M143.596 17.2598C144.012 16.7469 144.381 16.1979 144.698 15.6193C145.038 14.9557 145.283 14.248 145.426 13.5168C145.637 12.4649 145.774 11.3994 145.833 10.3282C145.917 9.0528 145.958 7.41694 145.958 5.42988V2.86518C145.934 2.56724 145.972 2.26745 146.07 1.98498C146.168 1.7025 146.324 1.44356 146.528 1.2247C146.921 0.864931 147.44 0.674012 147.973 0.693277C148.511 0.680531 149.032 0.879783 149.423 1.2478C149.629 1.46127 149.788 1.71555 149.89 1.99417C149.991 2.27278 150.032 2.56952 150.012 2.86518V5.40677C150.012 7.48625 149.942 9.29617 149.803 10.8365C150.262 11.1387 150.682 11.4956 151.054 11.8994C151.459 12.3439 151.802 12.8414 152.073 13.3781C152.196 12.5463 152.289 11.5343 152.351 10.3421C152.416 9.14984 152.443 7.66648 152.443 5.89198V2.86518C152.419 2.56724 152.457 2.26745 152.555 1.98498C152.653 1.7025 152.809 1.44356 153.013 1.2247C153.406 0.864931 153.925 0.674012 154.458 0.693277C154.996 0.680531 155.517 0.879783 155.908 1.2478C156.114 1.46127 156.273 1.71555 156.375 1.99417C156.476 2.27278 156.517 2.56952 156.497 2.86518V5.86888C156.497 6.70067 156.473 7.50936 156.427 8.29494C156.381 9.08052 156.32 9.85224 156.242 10.6055C156.742 11.0454 157.19 11.5416 157.576 12.0842C158.013 12.7125 158.363 13.3963 158.618 14.1175C158.925 15.0024 159.142 15.9158 159.267 16.8439C159.336 17.3338 159.382 17.8606 159.415 18.4151C159.431 18.6674 159.394 18.9202 159.308 19.158C159.222 19.3958 159.088 19.6134 158.915 19.7975C158.741 19.9815 158.531 20.1281 158.299 20.2282C158.066 20.3282 157.815 20.3795 157.562 20.379C157.078 20.3792 156.614 20.1908 156.268 19.8541C155.922 19.5174 155.721 19.059 155.709 18.5768C155.709 18.3319 155.709 18.0916 155.667 17.8606C155.611 17.192 155.474 16.5326 155.26 15.8966C154.986 16.8794 154.606 17.8293 154.125 18.7293C153.784 19.4046 153.283 19.9867 152.666 20.4253C152.246 20.7233 151.756 20.9066 151.244 20.9567C150.736 21.0025 150.229 20.863 149.817 20.5639C149.619 20.4363 149.458 20.2574 149.354 20.0463C149.252 19.8378 149.199 19.6084 149.201 19.3763C149.202 19.131 149.249 18.8881 149.34 18.66C149.436 18.4156 149.577 18.1914 149.757 17.9992L149.826 17.9299C149.849 17.4415 149.783 16.9531 149.632 16.4881C149.499 16.0901 149.299 15.7179 149.039 15.3883C148.821 16.2003 148.519 16.9872 148.135 17.7358C147.822 18.3389 147.425 18.8943 146.954 19.3855C146.757 19.5975 146.527 19.7769 146.273 19.9169C146.006 20.0715 145.717 20.1852 145.416 20.2543C145.113 20.3256 144.797 20.3335 144.49 20.2774C144.174 20.2183 143.878 20.0782 143.633 19.8707C143.451 19.7225 143.308 19.5321 143.216 19.3162C143.122 19.0972 143.075 18.8612 143.077 18.623C143.077 18.3755 143.121 18.1298 143.207 17.8975C143.296 17.663 143.428 17.4468 143.596 17.2598ZM160.573 11.5297H159.299C158.993 11.5408 158.689 11.4823 158.41 11.3587C158.178 11.2501 157.972 11.0924 157.807 10.8966C157.647 10.7078 157.529 10.4873 157.46 10.2497C157.391 10.0202 157.355 9.78214 157.353 9.54263C157.356 9.30466 157.391 9.06817 157.46 8.84023C157.526 8.60693 157.639 8.38978 157.793 8.20252C157.96 8.00864 158.165 7.8513 158.396 7.74041C158.686 7.60726 159.003 7.54395 159.322 7.55557H160.596V2.23209C160.574 1.91863 160.625 1.60435 160.746 1.31405C160.866 1.02375 161.053 0.765369 161.291 0.559269C161.739 0.186006 162.305 -0.0155529 162.889 -0.00912837C163.181 -0.00913427 163.471 0.0424946 163.746 0.143368C164.018 0.236864 164.269 0.381145 164.487 0.568506C164.708 0.760263 164.887 0.996459 165.01 1.26167C165.146 1.56697 165.212 1.89829 165.205 2.23209V19.843C165.205 20.3332 165.01 20.8034 164.662 21.15C164.315 21.4967 163.843 21.6914 163.352 21.6914H162.426C161.934 21.6914 161.463 21.4967 161.115 21.15C160.768 20.8034 160.573 20.3332 160.573 19.843V11.5297Z" fill="white"/>
<path d="M174.145 20.6564C173.569 20.6696 172.994 20.6122 172.431 20.4854C172.037 20.3978 171.676 20.2008 171.389 19.917C171.123 19.6173 170.946 19.249 170.88 18.8541C170.778 18.3056 170.731 17.7483 170.741 17.1906V3.02697C170.712 2.7124 170.754 2.39541 170.865 2.09946C170.976 1.8035 171.152 1.53615 171.38 1.31718C171.834 0.953289 172.405 0.764657 172.987 0.785748C173.56 0.762331 174.121 0.951686 174.562 1.31718C174.78 1.54211 174.947 1.81133 175.051 2.10642C175.154 2.40152 175.193 2.71553 175.164 3.02697V16.197C175.164 16.4604 175.206 16.6268 175.294 16.6961C175.452 16.7825 175.634 16.818 175.813 16.7978H179.264C179.58 16.7914 179.895 16.8463 180.19 16.9595C180.426 17.0553 180.636 17.2058 180.802 17.3985C180.954 17.5802 181.065 17.7932 181.126 18.0224C181.187 18.2562 181.218 18.4969 181.219 18.7386C181.22 18.9811 181.186 19.2224 181.117 19.4549C181.05 19.679 180.94 19.8879 180.792 20.0695C180.629 20.2574 180.422 20.4033 180.19 20.4946C179.895 20.6101 179.58 20.6651 179.264 20.6564H174.145ZM182.089 1.96412C182.071 1.68807 182.117 1.41148 182.226 1.15692C182.335 0.902347 182.502 0.677 182.715 0.499244C183.12 0.170392 183.628 -0.00621626 184.151 0.000167172C184.411 0.00101668 184.669 0.0447346 184.915 0.129557C185.16 0.213361 185.388 0.341845 185.587 0.508488C185.783 0.678121 185.941 0.887662 186.05 1.12309C186.17 1.38687 186.229 1.67445 186.221 1.96412V8.47984H187.463V1.96412C187.444 1.68807 187.491 1.41148 187.599 1.15692C187.708 0.902347 187.875 0.677 188.088 0.499244C188.493 0.170392 189.001 -0.00621626 189.524 0.000167172C189.784 0.00101668 190.042 0.0447346 190.288 0.129557C190.534 0.212358 190.762 0.340944 190.96 0.508488C191.155 0.679345 191.313 0.888586 191.423 1.12309C191.543 1.38687 191.602 1.67445 191.595 1.96412V19.6305C191.595 20.1783 191.376 20.7037 190.988 21.0911C190.6 21.4785 190.073 21.6961 189.524 21.6961C188.974 21.6961 188.447 21.4786 188.058 21.0914C187.669 20.7041 187.45 20.1787 187.449 19.6305V12.2691H186.221V19.6305C186.221 20.1783 186.003 20.7037 185.615 21.0911C185.226 21.4785 184.7 21.6961 184.151 21.6961C183.601 21.6961 183.074 21.4786 182.685 21.0914C182.296 20.7041 182.077 20.1787 182.075 19.6305L182.089 1.96412Z" fill="white"/>
<path d="M198.58 15.9656C198.561 16.1076 198.572 16.2518 198.612 16.3893C198.652 16.5269 198.72 16.6547 198.811 16.765C199.06 16.9194 199.353 16.9876 199.645 16.9591H206.292C206.601 16.951 206.909 17.006 207.195 17.1209C207.428 17.2206 207.638 17.3669 207.812 17.5506C207.971 17.7226 208.089 17.9279 208.159 18.1514C208.227 18.3713 208.262 18.6004 208.261 18.8307C208.263 19.3069 208.099 19.7692 207.798 20.1384C207.61 20.3467 207.376 20.5083 207.115 20.6102C206.853 20.7121 206.572 20.7515 206.292 20.7253H197.954C197.33 20.7371 196.707 20.6671 196.101 20.5174C195.638 20.4047 195.212 20.1738 194.865 19.8473C194.529 19.5129 194.289 19.0949 194.17 18.6366C194.008 18.0341 193.933 17.4117 193.948 16.7882V12.583C193.934 11.9671 194.009 11.3524 194.17 10.7577C194.292 10.3034 194.532 9.88917 194.865 9.55618C195.212 9.23237 195.638 9.00596 196.101 8.89998C196.709 8.75828 197.331 8.69154 197.954 8.70128H200.456V5.351C200.461 5.18926 200.42 5.02934 200.34 4.88889C200.261 4.75026 200.094 4.68095 199.83 4.68095H196.125C195.808 4.69413 195.492 4.63896 195.198 4.51921C194.964 4.41477 194.757 4.25641 194.596 4.0571C194.443 3.87206 194.325 3.66063 194.249 3.43326C194.174 3.20961 194.135 2.97575 194.133 2.7401C194.134 2.50509 194.17 2.27155 194.239 2.04694C194.309 1.81637 194.427 1.60352 194.587 1.42309C194.756 1.22819 194.964 1.07078 195.198 0.960982C195.49 0.833854 195.807 0.773836 196.125 0.785379H200.942C201.608 0.773422 202.273 0.835422 202.925 0.970226C203.38 1.06541 203.805 1.27181 204.161 1.57097C204.478 1.86288 204.703 2.24005 204.81 2.65691C204.945 3.20078 205.008 3.76023 204.995 4.3205V12.4074H199.413C199.01 12.4074 198.774 12.4767 198.695 12.6061C198.599 12.8594 198.559 13.1307 198.58 13.4009V15.9656ZM209.836 19.4222V15.3649H207.844C207.538 15.3759 207.234 15.3175 206.955 15.1939C206.724 15.083 206.519 14.9257 206.352 14.7318C206.191 14.5493 206.072 14.3329 206.005 14.0987C205.936 13.8692 205.9 13.6312 205.898 13.3917C205.9 13.1567 205.936 12.9231 206.005 12.6985C206.075 12.4683 206.188 12.2534 206.338 12.0654C206.501 11.8674 206.707 11.7094 206.941 11.6033C207.232 11.4762 207.549 11.4162 207.867 11.4277H209.859V8.56264H207.89C207.585 8.57372 207.28 8.51525 207.001 8.39167C206.77 8.28078 206.565 8.12344 206.399 7.92956C206.237 7.74705 206.118 7.53073 206.051 7.29647C205.983 7.06697 205.947 6.82894 205.945 6.58944C205.946 6.35444 205.982 6.1209 206.051 5.89628C206.121 5.66605 206.234 5.45119 206.385 5.2632C206.547 5.06523 206.753 4.90714 206.987 4.80109C207.279 4.67396 207.595 4.61395 207.913 4.62549H209.882V2.26875C209.859 1.95185 209.908 1.63392 210.024 1.33812C210.14 1.04233 210.321 0.776135 210.554 0.558951C210.997 0.17681 211.566 -0.0288505 212.152 -0.0186832C212.739 -0.0232816 213.308 0.187173 213.75 0.572813C213.986 0.784877 214.172 1.0476 214.292 1.34131C214.413 1.63501 214.465 1.95208 214.445 2.26875V19.4037C214.445 19.7022 214.386 19.9979 214.271 20.2737C214.157 20.5496 213.989 20.8002 213.777 21.0113C213.566 21.2225 213.314 21.3899 213.038 21.5042C212.761 21.6184 212.465 21.6772 212.166 21.6772C211.864 21.6834 211.564 21.6297 211.283 21.5194C211.002 21.4091 210.746 21.2444 210.529 21.0346C210.312 20.8249 210.14 20.5744 210.021 20.2977C209.902 20.0209 209.839 19.7233 209.836 19.4222Z" fill="white"/>
<path d="M218.544 16.9364C219.409 16.8396 220.261 16.6459 221.082 16.3588C221.842 16.0944 222.532 15.6596 223.097 15.088C223.703 14.4461 224.157 13.6772 224.427 12.8375C224.773 11.6954 224.93 10.5043 224.89 9.31161V5.46688C224.894 5.31465 224.841 5.1663 224.742 5.05098C224.685 4.99562 224.618 4.95263 224.543 4.92478C224.469 4.89693 224.39 4.88483 224.311 4.88924H219.03C218.723 4.90069 218.418 4.83724 218.141 4.7044C217.911 4.59219 217.706 4.43504 217.539 4.2423C217.379 4.05347 217.26 3.833 217.191 3.59534C217.123 3.36584 217.087 3.12782 217.085 2.88832C217.087 2.65034 217.123 2.41385 217.191 2.18591C217.257 1.95261 217.371 1.73547 217.525 1.54821C217.691 1.35433 217.896 1.19699 218.127 1.0861C218.417 0.952952 218.734 0.889632 219.053 0.901257H225.863C227.174 0.901257 228.109 1.19701 228.642 1.77926C229.235 2.47093 229.534 3.36625 229.476 4.27464V9.35782C229.52 11.1233 229.254 12.883 228.688 14.5565C228.232 15.8663 227.485 17.056 226.502 18.0362C225.562 18.9406 224.43 19.6228 223.19 20.0325C221.843 20.4804 220.44 20.7371 219.021 20.795C218.744 20.8129 218.467 20.7816 218.201 20.7026C217.938 20.6323 217.693 20.5062 217.483 20.3329C217.272 20.1611 217.101 19.945 216.983 19.6998C216.853 19.4207 216.79 19.1155 216.798 18.8079C216.782 18.3598 216.93 17.9213 217.214 17.5741C217.557 17.1965 218.034 16.9676 218.544 16.9364ZM232.301 2.24137C232.279 1.9279 232.331 1.61363 232.451 1.32333C232.572 1.03303 232.758 0.774639 232.996 0.568539C233.444 0.195276 234.011 -0.00627552 234.594 0.000148976C234.887 -0.000249064 235.177 0.0513921 235.451 0.152645C235.721 0.245088 235.969 0.389544 236.183 0.577783C236.397 0.772749 236.571 1.0084 236.693 1.27094C236.828 1.57624 236.894 1.90757 236.887 2.24137V8.08703H237.651C237.955 8.07727 238.257 8.14068 238.532 8.27187C238.75 8.38162 238.94 8.53969 239.087 8.73398C239.228 8.92855 239.33 9.14813 239.388 9.38093C239.448 9.61036 239.479 9.84629 239.481 10.0833C239.479 10.3219 239.448 10.5594 239.388 10.7904C239.33 11.0232 239.228 11.2427 239.087 11.4373C238.939 11.6344 238.745 11.7929 238.522 11.8994C238.251 12.0307 237.952 12.0942 237.651 12.0843H236.887V19.3855C236.891 19.69 236.833 19.9921 236.718 20.2741C236.603 20.5561 236.433 20.8123 236.217 21.0276C236.001 21.2429 235.744 21.413 235.462 21.5278C235.179 21.6426 234.876 21.6998 234.571 21.6961C233.957 21.6961 233.368 21.4527 232.933 21.0193C232.499 20.586 232.255 19.9983 232.255 19.3855L232.301 2.24137Z" fill="white"/>
<path d="M259.399 9.70414C259.718 9.69212 260.034 9.75216 260.326 9.87974C260.555 9.98282 260.76 10.1323 260.928 10.3187C261.085 10.4944 261.2 10.7028 261.266 10.9287C261.334 11.1536 261.368 11.3871 261.368 11.6219C261.367 12.0976 261.203 12.5587 260.905 12.9296C260.72 13.1384 260.487 13.3004 260.227 13.4024C259.967 13.5044 259.687 13.5435 259.409 13.5165H241.621C241.344 13.5439 241.064 13.5049 240.804 13.4029C240.545 13.3008 240.314 13.1386 240.13 12.9296C239.831 12.5585 239.668 12.0975 239.667 11.6219C239.668 11.3869 239.704 11.1533 239.773 10.9287C239.839 10.7039 239.953 10.4959 240.107 10.3187C240.275 10.1323 240.48 9.98282 240.709 9.87974C241 9.75262 241.317 9.6926 241.635 9.70414H259.399ZM243.928 8.31782C243.383 8.32989 242.838 8.27243 242.307 8.14684C241.92 8.05713 241.567 7.86007 241.288 7.57845C241.025 7.28955 240.846 6.93502 240.769 6.55257C240.657 6.03184 240.606 5.49999 240.616 4.96754V2.44906C240.588 2.1282 240.637 1.80521 240.76 1.50753C240.884 1.20986 241.077 0.946303 241.325 0.739264C241.809 0.381311 242.399 0.19434 243.002 0.207837C243.599 0.193119 244.183 0.380425 244.66 0.739264C244.9 0.951031 245.087 1.21613 245.205 1.51314C245.323 1.81015 245.37 2.13076 245.341 2.44906V4.15885C245.341 4.42226 245.378 4.58399 245.457 4.64407C245.613 4.72489 245.791 4.75707 245.966 4.73649H258.542C258.818 4.70925 259.097 4.74411 259.357 4.83848C259.618 4.93285 259.854 5.08434 260.048 5.28178C260.346 5.6241 260.51 6.06214 260.511 6.5156C260.515 6.97823 260.35 7.42655 260.048 7.77715C259.854 7.97249 259.62 8.12236 259.361 8.21589C259.102 8.30941 258.826 8.34423 258.552 8.31782H243.928ZM244.137 21.7189C243.591 21.7312 243.046 21.6738 242.515 21.548C242.129 21.4582 241.775 21.2612 241.496 20.9796C241.234 20.69 241.055 20.3358 240.977 19.9537C240.866 19.433 240.814 18.9011 240.825 18.3687V16.7282C240.797 16.4065 240.848 16.0829 240.973 15.7851C241.098 15.4873 241.293 15.2242 241.543 15.0184C242.033 14.6619 242.627 14.4752 243.233 14.487C243.83 14.4722 244.415 14.6595 244.892 15.0184C245.132 15.2301 245.318 15.4952 245.436 15.7922C245.555 16.0893 245.601 16.4099 245.572 16.7282V17.56C245.572 17.8234 245.61 17.9851 245.688 18.0221C245.845 18.1029 246.023 18.1351 246.198 18.1145H258.705C258.98 18.0873 259.259 18.1221 259.519 18.2165C259.78 18.3109 260.016 18.4623 260.21 18.6598C260.508 19.0021 260.673 19.4401 260.673 19.8936C260.677 20.3562 260.513 20.8045 260.21 21.1552C260.017 21.3505 259.782 21.5004 259.523 21.5939C259.264 21.6874 258.988 21.7222 258.714 21.6958L244.137 21.7189Z" fill="white"/>
<path d="M274.94 4.43605V5.15232C274.94 5.3233 274.94 5.48042 274.94 5.61443C274.94 5.74844 274.94 5.91018 274.903 6.07654C276.682 6.15663 277.995 6.69576 278.841 7.69391C279.332 8.3032 279.671 9.02096 279.827 9.78726C279.899 10.0949 279.9 10.4148 279.831 10.723C279.762 11.0313 279.623 11.3199 279.427 11.5673C279.23 11.8148 278.979 12.0147 278.694 12.1522C278.409 12.2896 278.097 12.3611 277.78 12.3612H277.572C277.124 12.3533 276.692 12.1994 276.341 11.9232C275.989 11.647 275.738 11.2636 275.626 10.8316C275.557 10.5944 275.451 10.3698 275.311 10.1662C275.14 9.92096 274.913 9.71977 274.649 9.57917C274.385 9.43857 274.091 9.36259 273.792 9.35749C273.162 10.3885 272.266 11.2313 271.198 11.7974C270.186 12.3505 269.061 12.6665 267.909 12.7216C267.384 12.7665 266.86 12.615 266.44 12.2965C266.242 12.1496 266.079 11.9599 265.964 11.7414C265.85 11.5229 265.786 11.2814 265.778 11.0349C265.727 10.5739 265.847 10.1102 266.116 9.7318C266.38 9.39426 266.766 9.17353 267.191 9.1172C268.153 8.9993 269.032 8.51601 269.646 7.76784C270.236 7.03035 270.547 6.10951 270.526 5.16618V4.44992H267.631C267.378 4.45643 267.127 4.39753 266.904 4.27893C266.7 4.16197 266.521 4.00474 266.38 3.81683C266.241 3.63839 266.131 3.43864 266.056 3.22533C265.979 3.01831 265.94 2.7992 265.94 2.57838C265.943 2.36421 265.974 2.15135 266.033 1.9453C266.093 1.72321 266.195 1.51462 266.334 1.33069C266.474 1.13854 266.656 0.980559 266.867 0.868586C267.103 0.747808 267.365 0.687465 267.631 0.692983H278.215C278.481 0.687076 278.744 0.74744 278.98 0.868586C279.19 0.980559 279.372 1.13854 279.512 1.33069C279.651 1.51462 279.753 1.72321 279.813 1.9453C279.872 2.15135 279.903 2.36421 279.906 2.57838C279.907 2.7992 279.867 3.01831 279.79 3.22533C279.717 3.43948 279.607 3.63952 279.466 3.81683C279.327 4.00461 279.15 4.16189 278.947 4.27893C278.722 4.39752 278.47 4.4564 278.215 4.44992L274.94 4.43605ZM269.011 17.2826C268.741 17.3015 268.47 17.2662 268.214 17.1789C267.958 17.0916 267.722 16.954 267.52 16.7743C267.346 16.6031 267.209 16.3976 267.119 16.1708C267.029 15.9441 266.987 15.7011 266.996 15.4573C266.988 15.2137 267.03 14.9709 267.12 14.7443C267.21 14.5176 267.346 14.312 267.52 14.1403C267.723 13.9617 267.959 13.8248 268.215 13.7376C268.471 13.6503 268.741 13.6145 269.011 13.632H282.885C283.476 13.6195 284.066 13.6738 284.645 13.7937C285.044 13.8745 285.408 14.0762 285.687 14.3714C285.949 14.6872 286.121 15.0668 286.187 15.4712C286.28 16.0394 286.321 16.6146 286.312 17.1902V19.3852C286.312 19.998 286.068 20.5857 285.634 21.019C285.2 21.4523 284.611 21.6958 283.996 21.6958C283.382 21.6958 282.793 21.4523 282.359 21.019C281.924 20.5857 281.68 19.998 281.68 19.3852V17.8372C281.68 17.6901 281.622 17.549 281.517 17.4451C281.413 17.3411 281.272 17.2826 281.124 17.2826H269.011ZM281.449 2.28725C281.426 1.96911 281.476 1.65001 281.595 1.35388C281.713 1.05776 281.898 0.792308 282.134 0.577456C282.581 0.195829 283.153 -0.00959756 283.742 -0.000178145C284.329 -0.00477656 284.897 0.205678 285.34 0.591319C285.576 0.803382 285.762 1.06611 285.882 1.35981C286.002 1.65352 286.054 1.97059 286.034 2.28725V4.32053H286.752C287.056 4.31077 287.358 4.37417 287.633 4.50537C287.849 4.61709 288.039 4.77482 288.188 4.96747C288.331 5.15769 288.433 5.37458 288.489 5.60519C288.549 5.83462 288.58 6.07054 288.582 6.30759C288.58 6.54616 288.549 6.78362 288.489 7.01461C288.431 7.24741 288.329 7.46699 288.188 7.66156C288.042 7.8605 287.848 8.01943 287.623 8.12367C287.349 8.24497 287.052 8.3034 286.752 8.29465H286.034V10.6329C286.034 11.1893 285.813 11.7229 285.418 12.1164C285.024 12.5098 284.489 12.7309 283.931 12.7309H283.552C282.994 12.7309 282.459 12.5098 282.065 12.1164C281.67 11.7229 281.449 11.1893 281.449 10.6329V2.28725Z" fill="white"/>
<path d="M290.805 16.9364C291.67 16.8396 292.522 16.6459 293.343 16.3588C294.104 16.0944 294.793 15.6596 295.358 15.088C295.964 14.4461 296.419 13.6772 296.688 12.8375C297.035 11.6954 297.191 10.5043 297.151 9.31161V5.46688C297.155 5.31465 297.103 5.1663 297.003 5.05098C296.946 4.99562 296.879 4.95263 296.805 4.92478C296.73 4.89693 296.651 4.88483 296.572 4.88924H291.291C290.984 4.90069 290.679 4.83724 290.402 4.7044C290.172 4.59219 289.968 4.43504 289.8 4.2423C289.64 4.05347 289.521 3.833 289.453 3.59534C289.384 3.36584 289.348 3.12782 289.346 2.88832C289.348 2.65034 289.384 2.41385 289.453 2.18591C289.518 1.95261 289.632 1.73547 289.786 1.54821C289.953 1.35433 290.158 1.19699 290.388 1.0861C290.678 0.952952 290.996 0.889632 291.315 0.901257H298.124C299.435 0.901257 300.37 1.19701 300.903 1.77926C301.496 2.47093 301.795 3.36625 301.737 4.27464V9.35782C301.781 11.1233 301.515 12.883 300.949 14.5565C300.493 15.8663 299.746 17.056 298.763 18.0362C297.823 18.9406 296.691 19.6228 295.451 20.0325C294.104 20.4804 292.701 20.7371 291.282 20.795C291.006 20.8129 290.728 20.7816 290.462 20.7026C290.199 20.6323 289.954 20.5062 289.744 20.3329C289.533 20.1611 289.362 19.945 289.244 19.6998C289.114 19.4207 289.051 19.1155 289.059 18.8079C289.043 18.3598 289.191 17.9213 289.476 17.5741C289.818 17.1957 290.295 16.9666 290.805 16.9364ZM304.562 2.24137C304.541 1.9279 304.592 1.61363 304.712 1.32333C304.833 1.03303 305.02 0.774639 305.257 0.568539C305.705 0.195276 306.272 -0.00627552 306.855 0.000148976C307.148 -0.000249064 307.438 0.0513921 307.712 0.152645C307.982 0.245088 308.231 0.389544 308.444 0.577783C308.659 0.772749 308.832 1.0084 308.954 1.27094C309.089 1.57624 309.156 1.90757 309.148 2.24137V8.08703H309.913C310.217 8.07727 310.518 8.14068 310.793 8.27187C311.011 8.38162 311.201 8.53969 311.349 8.73398C311.489 8.92855 311.591 9.14813 311.65 9.38093C311.709 9.61036 311.741 9.84629 311.742 10.0833C311.741 10.3219 311.709 10.5594 311.65 10.7904C311.591 11.0232 311.489 11.2427 311.349 11.4373C311.2 11.6344 311.006 11.7929 310.783 11.8994C310.512 12.0307 310.214 12.0942 309.913 12.0843H309.148V19.3855C309.152 19.69 309.095 19.9921 308.98 20.2741C308.865 20.5561 308.694 20.8123 308.478 21.0276C308.262 21.2429 308.006 21.413 307.723 21.5278C307.44 21.6426 307.137 21.6998 306.832 21.6961C306.218 21.6961 305.629 21.4527 305.194 21.0193C304.76 20.586 304.516 19.9983 304.516 19.3855L304.562 2.24137Z" fill="white"/>
<path d="M313.387 21.7886C313.644 21.656 313.858 21.4522 314.003 21.2017C314.152 20.9284 314.227 20.621 314.221 20.3098V20.2867C313.64 20.2565 313.089 20.0187 312.669 19.6167C312.471 19.4077 312.317 19.1606 312.218 18.8905C312.118 18.6204 312.075 18.3329 312.09 18.0455C312.074 17.7347 312.125 17.4241 312.241 17.1353C312.357 16.8464 312.535 16.5862 312.762 16.3727C313.256 15.9481 313.894 15.7282 314.545 15.7581C314.873 15.7441 315.201 15.7977 315.508 15.9153C315.815 16.033 316.094 16.2122 316.328 16.442C316.551 16.6682 316.725 16.9373 316.841 17.2328C316.956 17.5283 317.01 17.8441 317 18.161V18.369C317.053 19.509 316.788 20.6415 316.236 21.6407C315.785 22.4159 315.082 23.0143 314.244 23.3366C314.048 23.412 313.847 23.4708 313.642 23.5122C313.45 23.5468 313.254 23.5468 313.063 23.5122C312.855 23.48 312.657 23.401 312.484 23.2812C312.386 23.2074 312.313 23.1069 312.271 22.9921C312.23 22.8772 312.224 22.7528 312.252 22.6342C312.262 22.4612 312.332 22.297 312.45 22.1703C312.569 22.0436 312.728 21.9625 312.901 21.9411L313.132 21.8717C313.221 21.8561 313.306 21.8281 313.387 21.7886Z" fill="white"/>
<path d="M95.121 45.2081V42.4355C95.1138 42.0982 95.1818 41.7636 95.3201 41.4558C95.4419 41.1804 95.624 40.9357 95.8528 40.7395C96.0753 40.5454 96.3355 40.3991 96.6171 40.3098C96.9164 40.2141 97.2293 40.1673 97.5436 40.1711C97.8589 40.168 98.1724 40.2196 98.47 40.3236C98.7524 40.4186 99.0159 40.5625 99.2482 40.7488C99.4762 40.9421 99.6581 41.1836 99.7809 41.4558C99.9154 41.7646 99.9818 42.0988 99.9754 42.4355V45.2081H106.46C106.777 45.1968 107.093 45.2519 107.387 45.3698C107.616 45.4681 107.822 45.6147 107.989 45.7996C108.142 45.9744 108.257 46.179 108.327 46.4003C108.396 46.6203 108.43 46.8494 108.429 47.0796C108.429 47.5514 108.266 48.0087 107.966 48.3735C107.779 48.58 107.547 48.7399 107.287 48.8402C107.027 48.9405 106.747 48.9785 106.47 48.9512H88.6823C88.4056 48.9789 88.1263 48.941 87.8671 48.8407C87.6079 48.7403 87.3762 48.5802 87.1908 48.3735C86.8912 48.0085 86.7275 47.5514 86.7275 47.0796C86.7283 46.8491 86.7642 46.6201 86.8341 46.4003C86.9023 46.1792 87.0158 45.9746 87.1676 45.7996C87.3349 45.6147 87.5403 45.4681 87.7698 45.3698C88.0638 45.2519 88.3794 45.1968 88.6962 45.2081H95.121ZM100.031 32.2922C100.017 32.568 99.9858 32.8427 99.9384 33.1148C99.8931 33.3833 99.8312 33.6487 99.7531 33.9096H99.892C100.86 33.9104 101.822 34.0664 102.741 34.3717C103.654 34.674 104.502 35.1442 105.242 35.758C106.001 36.396 106.62 37.1823 107.063 38.0686V38.0963C107.225 38.4439 107.297 38.8268 107.271 39.2095C107.246 39.5922 107.123 39.9622 106.916 40.285C106.708 40.6079 106.422 40.8731 106.084 41.056C105.746 41.2388 105.367 41.3335 104.983 41.331C104.549 41.3323 104.124 41.2104 103.758 40.9796C103.391 40.7489 103.098 40.4188 102.912 40.0279C102.615 39.387 102.161 38.8309 101.592 38.4105C100.594 37.6881 99.383 37.3175 98.1503 37.3569H97.9326L97.6871 37.3893C97.1467 37.9614 96.5492 38.477 95.9038 38.9281C95.262 39.3773 94.585 39.7745 93.8795 40.1157C93.1914 40.4512 92.4734 40.7219 91.7348 40.9244C91.0544 41.1179 90.356 41.2418 89.6504 41.2941C89.0715 41.3695 88.4847 41.235 87.9967 40.9151C87.7733 40.7744 87.5836 40.5864 87.4411 40.3644C87.2986 40.1424 87.2068 39.8918 87.1722 39.6305C87.0881 39.1481 87.1925 38.652 87.464 38.2442C87.6056 38.0331 87.7918 37.8555 88.0095 37.7238C88.2271 37.5921 88.4709 37.5095 88.724 37.4817C89.5184 37.3628 90.2958 37.1503 91.04 36.8486C91.7582 36.5603 92.4356 36.1797 93.055 35.7164C93.6379 35.2831 94.1438 34.7551 94.5512 34.1545C94.9385 33.5903 95.1803 32.9395 95.2553 32.2599H89.5578C89.253 32.2714 88.9494 32.2161 88.6684 32.0981C88.4354 31.9912 88.2296 31.8333 88.0662 31.636C87.9066 31.4556 87.788 31.2427 87.7188 31.0122C87.6495 30.7876 87.6136 30.554 87.6122 30.319C87.6136 30.084 87.6495 29.8505 87.7188 29.6259C87.7868 29.3976 87.9002 29.1855 88.0523 29.002C88.2159 28.805 88.4216 28.6471 88.6545 28.5399C88.9389 28.4157 89.2474 28.3557 89.5578 28.3643H105.585C105.903 28.3523 106.22 28.4123 106.511 28.5399C106.744 28.6471 106.95 28.805 107.114 29.002C107.267 29.1852 107.382 29.3974 107.452 29.6259C107.519 29.8507 107.554 30.0842 107.554 30.319C107.554 30.5538 107.519 30.7873 107.452 31.0122C107.382 31.2427 107.264 31.4556 107.104 31.636C106.937 31.8346 106.726 31.9926 106.488 32.0981C106.21 32.2136 105.91 32.2687 105.608 32.2599L100.031 32.2922Z" fill="white"/>
<path d="M110.245 33.0868C110.227 32.3198 110.365 31.5572 110.653 30.8456C110.901 30.2438 111.29 29.71 111.787 29.2883C112.291 28.8634 112.878 28.5486 113.511 28.364C114.213 28.1772 114.938 28.0916 115.664 28.1099C116.393 28.1037 117.118 28.2017 117.818 28.401C118.453 28.5854 119.041 28.9003 119.546 29.3252C120.041 29.7486 120.43 30.282 120.681 30.8825C120.964 31.5951 121.101 32.3573 121.084 33.1237V35.6422C121.102 36.4088 120.965 37.1711 120.681 37.8835C120.432 38.4863 120.043 39.0216 119.546 39.4454C119.041 39.8703 118.453 40.1852 117.818 40.3696C117.118 40.5673 116.393 40.6638 115.664 40.6561C114.936 40.6638 114.211 40.5673 113.511 40.3696C112.878 40.1851 112.291 39.8702 111.787 39.4454C111.289 39.0228 110.9 38.4872 110.653 37.8835C110.364 37.172 110.226 36.4093 110.245 35.6422V33.0868ZM114.877 49.4223C114.335 49.4361 113.794 49.3739 113.27 49.2374C112.886 49.1417 112.537 48.9417 112.26 48.6598C111.995 48.3668 111.816 48.0073 111.741 47.6201C111.63 47.1039 111.579 46.5767 111.588 46.0489V43.7384C111.561 43.4142 111.611 43.0884 111.735 42.7872C111.858 42.4861 112.05 42.2182 112.297 42.0055C112.775 41.6327 113.367 41.4367 113.974 41.4509C114.571 41.4336 115.154 41.6304 115.618 42.0055C115.855 42.2243 116.038 42.4942 116.155 42.7944C116.271 43.0947 116.317 43.4176 116.29 43.7384V45.3095C116.29 45.5729 116.327 45.7347 116.406 45.7716C116.562 45.8524 116.74 45.8846 116.915 45.864H129.792C130.068 45.8368 130.347 45.8717 130.607 45.966C130.868 46.0604 131.104 46.2119 131.298 46.4093C131.594 46.7529 131.758 47.1901 131.761 47.6432C131.767 48.102 131.602 48.5467 131.298 48.8909C131.104 49.0845 130.869 49.2327 130.61 49.3246C130.351 49.4165 130.075 49.4499 129.802 49.4223H114.877ZM114.414 35.8363C114.391 36.0402 114.413 36.2467 114.48 36.4409C114.546 36.6351 114.655 36.8121 114.798 36.9592C115.041 37.1624 115.348 37.2722 115.664 37.2689C115.985 37.2699 116.296 37.1606 116.545 36.9592C116.691 36.8141 116.803 36.6376 116.871 36.4431C116.939 36.2485 116.962 36.041 116.938 35.8363V32.8326C116.958 32.6303 116.933 32.426 116.865 32.2344C116.797 32.0427 116.688 31.8683 116.545 31.7236C116.298 31.5172 115.987 31.4029 115.664 31.4001C115.346 31.3998 115.038 31.5147 114.798 31.7236C114.657 31.8691 114.549 32.0439 114.483 32.2355C114.416 32.4271 114.393 32.631 114.414 32.8326V35.8363ZM127.222 37.1764H126.133V41.6127C126.134 41.8738 126.083 42.1324 125.983 42.3738C125.883 42.6152 125.736 42.8344 125.551 43.0191C125.366 43.2037 125.146 43.3501 124.904 43.4497C124.662 43.5493 124.403 43.6003 124.141 43.5997C123.613 43.5997 123.106 43.3904 122.733 43.0177C122.359 42.6451 122.149 42.1397 122.149 41.6127V29.6903C122.131 29.4173 122.175 29.1437 122.277 28.89C122.38 28.6363 122.539 28.4091 122.742 28.2254C123.129 27.8958 123.623 27.7183 124.132 27.7263C124.64 27.7209 125.134 27.898 125.522 28.2254C125.728 28.4071 125.89 28.6337 125.994 28.8877C126.099 29.1418 126.143 29.4164 126.124 29.6903V33.6182H127.245V29.6903C127.226 29.4151 127.272 29.1394 127.379 28.885C127.486 28.6307 127.651 28.4048 127.861 28.2254C128.26 27.8954 128.764 27.7184 129.283 27.7263C129.798 27.7222 130.298 27.8989 130.696 28.2254C130.908 28.4034 131.075 28.6288 131.184 28.8833C131.293 29.1378 131.34 29.4143 131.321 29.6903V41.6127C131.322 41.8738 131.271 42.1324 131.171 42.3738C131.071 42.6152 130.924 42.8344 130.739 43.0191C130.554 43.2037 130.334 43.3501 130.092 43.4497C129.85 43.5493 129.591 43.6003 129.329 43.5997H129.237C128.708 43.5997 128.202 43.3904 127.828 43.0177C127.455 42.6451 127.245 42.1397 127.245 41.6127L127.222 37.1764Z" fill="white"/>
<path d="M137.991 44.8705C139.273 44.7988 140.486 44.2708 141.41 43.3825C142.246 42.4231 142.745 41.2175 142.832 39.9491H138.292C137.987 39.9601 137.683 39.9017 137.403 39.7781C137.172 39.6672 136.967 39.5099 136.801 39.316C136.641 39.1355 136.523 38.9227 136.453 38.6921C136.384 38.4675 136.348 38.234 136.347 37.999C136.348 37.764 136.384 37.5304 136.453 37.3058C136.521 37.0776 136.635 36.8654 136.787 36.682C136.95 36.4849 137.156 36.327 137.389 36.2199C137.674 36.0957 137.982 36.0357 138.292 36.0443H142.924V33.0406C142.929 32.8883 142.876 32.74 142.776 32.6247C142.72 32.5693 142.652 32.5263 142.578 32.4985C142.504 32.4706 142.425 32.4585 142.345 32.4629H138.454C138.149 32.474 137.845 32.4155 137.565 32.2919C137.335 32.1811 137.129 32.0237 136.963 31.8298C136.803 31.6494 136.685 31.4366 136.615 31.206C136.546 30.9814 136.51 30.7478 136.509 30.5128C136.51 30.2778 136.546 30.0443 136.615 29.8197C136.683 29.5915 136.797 29.3793 136.949 29.1958C137.113 28.9988 137.318 28.8409 137.551 28.7337C137.843 28.6061 138.159 28.5461 138.478 28.5581H143.619C144.172 28.5491 144.724 28.6034 145.264 28.7199C145.664 28.8062 146.038 28.9886 146.352 29.2513C146.638 29.5123 146.844 29.8488 146.945 30.2217C147.07 30.7045 147.128 31.202 147.117 31.7004V38.5858C147.154 40.1244 146.919 41.6575 146.422 43.1145C146.029 44.258 145.397 45.3054 144.569 46.1875C143.808 46.9729 142.883 47.5805 141.859 47.9666C140.836 48.3541 139.756 48.5726 138.663 48.6136C138.089 48.6547 137.516 48.5227 137.018 48.2346C136.781 48.092 136.586 47.8878 136.456 47.6437C136.325 47.3995 136.264 47.1247 136.277 46.8483C136.242 46.3545 136.381 45.8639 136.671 45.462C137.016 45.0996 137.49 44.8871 137.991 44.8705ZM148.344 29.6903C148.325 29.4151 148.371 29.1394 148.478 28.885C148.585 28.6307 148.75 28.4048 148.96 28.2254C149.359 27.8954 149.864 27.7184 150.382 27.7263C150.889 27.7284 151.38 27.9046 151.772 28.2254C151.984 28.4034 152.151 28.6288 152.26 28.8833C152.369 29.1378 152.416 29.4143 152.397 29.6903V36.206H153.555V29.6903C153.537 29.4143 153.584 29.1378 153.692 28.8833C153.801 28.6288 153.968 28.4034 154.181 28.2254C154.586 27.8966 155.094 27.7199 155.616 27.7263C155.877 27.7272 156.135 27.7709 156.381 27.8557C156.624 27.9376 156.849 28.0663 157.043 28.2346C157.236 28.4072 157.394 28.6161 157.506 28.8493C157.627 29.113 157.685 29.4006 157.678 29.6903V47.389C157.678 47.9282 157.463 48.4454 157.081 48.8267C156.699 49.208 156.18 49.4223 155.64 49.4223H155.593C155.326 49.4223 155.061 49.3697 154.813 49.2675C154.566 49.1653 154.341 49.0155 154.152 48.8267C153.963 48.6379 153.813 48.4138 153.71 48.1671C153.608 47.9204 153.555 47.656 153.555 47.389V39.9953H152.397V47.389C152.397 47.9282 152.182 48.4454 151.8 48.8267C151.418 49.208 150.9 49.4223 150.359 49.4223C150.091 49.4223 149.826 49.3697 149.579 49.2675C149.332 49.1653 149.107 49.0155 148.918 48.8267C148.729 48.6379 148.578 48.4138 148.476 48.1671C148.374 47.9204 148.321 47.656 148.321 47.389L148.344 29.6903Z" fill="white"/>
<path d="M162.773 46.6499C163.162 46.5977 163.528 46.4376 163.829 46.1877C163.995 46.0421 164.123 45.8593 164.204 45.6544C164.284 45.4495 164.315 45.2284 164.293 45.0094V44.6166H161.374C161.101 44.6423 160.825 44.6071 160.568 44.5136C160.31 44.4201 160.076 44.2706 159.883 44.0759C159.58 43.7251 159.416 43.2769 159.419 42.8144C159.42 42.5838 159.456 42.3548 159.526 42.1351C159.596 41.9105 159.709 41.7018 159.86 41.5205C160.024 41.3299 160.23 41.1797 160.462 41.0815C160.756 40.9635 161.071 40.9084 161.388 40.9197H179.176C179.492 40.9084 179.808 40.9635 180.102 41.0815C180.334 41.1797 180.54 41.3299 180.704 41.5205C180.855 41.7019 180.97 41.9106 181.042 42.1351C181.111 42.355 181.145 42.5841 181.144 42.8144C181.148 43.277 180.984 43.7253 180.681 44.0759C180.488 44.2712 180.253 44.4211 179.994 44.5146C179.735 44.6082 179.459 44.643 179.185 44.6166H177.272V47.6341C177.272 48.2555 177.024 48.8514 176.584 49.2908C176.143 49.7302 175.546 49.977 174.923 49.977C174.614 49.9776 174.309 49.9175 174.023 49.8C173.738 49.6825 173.478 49.5101 173.26 49.2924C173.041 49.0748 172.868 48.8163 172.749 48.5318C172.631 48.2472 172.57 47.9422 172.57 47.6341V44.6166H168.864V45.0094C168.879 45.7225 168.734 46.43 168.438 47.0796C168.17 47.6478 167.787 48.1544 167.313 48.5676C166.843 48.9663 166.307 49.2791 165.728 49.4918C165.133 49.7136 164.509 49.849 163.876 49.8938C163.3 49.971 162.715 49.871 162.199 49.6073C161.976 49.4952 161.784 49.3298 161.64 49.1258C161.496 48.9219 161.405 48.6857 161.374 48.4382C161.326 48.2187 161.329 47.9909 161.384 47.7729C161.438 47.5548 161.543 47.3523 161.689 47.1813C161.976 46.8815 162.36 46.6931 162.773 46.6499ZM172.501 33.1332C172.454 33.4916 172.384 33.8466 172.292 34.1961C173.292 34.1348 174.295 34.1937 175.28 34.3717C176.192 34.5294 177.062 34.8672 177.841 35.3652C178.597 35.8592 179.231 36.5182 179.694 37.2922V37.3199C179.862 37.6178 179.949 37.9544 179.946 38.2962C179.942 38.638 179.849 38.9728 179.675 39.2672C179.501 39.5616 179.252 39.8052 178.954 39.9736C178.656 40.142 178.318 40.2292 177.976 40.2266H177.42C177.064 40.2344 176.713 40.151 176.399 39.9843C176.085 39.8176 175.819 39.5732 175.627 39.2746C175.515 39.0857 175.383 38.9091 175.234 38.7478C174.838 38.3494 174.365 38.035 173.844 37.8236C173.285 37.5865 172.69 37.4458 172.084 37.4077C171.428 37.3637 170.77 37.4025 170.124 37.5232C169.623 37.9916 169.068 38.3995 168.471 38.7386C167.836 39.0864 167.169 39.3727 166.479 39.5935C165.788 39.8153 165.08 39.9807 164.362 40.0879C163.66 40.196 162.951 40.2501 162.24 40.2497C161.669 40.2735 161.105 40.1113 160.633 39.7876C160.425 39.6419 160.252 39.4527 160.126 39.2332C159.999 39.0136 159.923 38.7691 159.901 38.5168C159.847 38.0341 159.985 37.5493 160.286 37.1674C160.441 36.9699 160.64 36.8099 160.866 36.6995C161.092 36.5891 161.34 36.531 161.592 36.5297C162.328 36.5189 163.061 36.4416 163.783 36.2987C164.426 36.1743 165.049 35.9645 165.636 35.6748C166.161 35.4187 166.632 35.066 167.025 34.6351C167.405 34.2047 167.675 33.6896 167.813 33.1332H162.301C162.024 33.161 161.745 33.1231 161.486 33.0227C161.226 32.9223 160.995 32.7623 160.809 32.5556C160.51 32.1906 160.346 31.7334 160.346 31.2617C160.347 31.0312 160.383 30.8021 160.452 30.5824C160.521 30.3612 160.634 30.1567 160.786 29.9817C160.953 29.7968 161.159 29.6502 161.388 29.5519C161.675 29.4371 161.982 29.382 162.291 29.3902H167.85C167.855 29.095 167.922 28.8043 168.048 28.5373C168.175 28.2704 168.357 28.0333 168.582 27.8421C169.085 27.4688 169.702 27.281 170.328 27.3107C170.951 27.2838 171.562 27.4769 172.056 27.856C172.279 28.0459 172.459 28.2808 172.584 28.5453C172.71 28.8097 172.778 29.0977 172.783 29.3902H178.342C178.659 29.3788 178.974 29.4339 179.268 29.5519C179.498 29.6502 179.703 29.7968 179.87 29.9817C180.023 30.1565 180.139 30.361 180.209 30.5824C180.277 30.8023 180.311 31.0314 180.31 31.2617C180.311 31.7335 180.147 32.1908 179.847 32.5556C179.661 32.7621 179.428 32.9219 179.168 33.0222C178.908 33.1226 178.628 33.1606 178.351 33.1332H172.501Z" fill="white"/>
<path d="M194.341 37.246V36.5067H189.524C189.129 36.5362 188.733 36.4813 188.362 36.3459C187.99 36.2104 187.652 35.9974 187.37 35.7211C186.888 35.1908 186.631 34.4954 186.652 33.7802V33.6416C186.631 33.3064 186.683 32.9707 186.806 32.6579C186.928 32.345 187.117 32.0626 187.36 31.8302C187.977 31.3573 188.748 31.13 189.524 31.1924H201.567V30.7996C201.573 30.7505 201.569 30.7007 201.556 30.6532C201.542 30.6056 201.519 30.5611 201.488 30.5224C201.386 30.4647 201.268 30.4404 201.15 30.4531H188.065C187.89 30.4668 187.714 30.4383 187.553 30.3699C187.392 30.3015 187.249 30.1953 187.138 30.0603C186.939 29.8282 186.827 29.5339 186.823 29.2285C186.827 28.9262 186.924 28.6325 187.101 28.3875C187.21 28.2487 187.351 28.1389 187.513 28.0679C187.675 27.997 187.851 27.967 188.027 27.9808H203.777C204.736 27.9808 205.389 28.1518 205.745 28.4891C205.935 28.6931 206.08 28.9338 206.171 29.1962C206.263 29.4586 206.299 29.737 206.278 30.0141V32.1259C206.278 32.436 206.155 32.7333 205.935 32.9526C205.715 33.1719 205.417 33.295 205.106 33.295H191.965C191.905 33.2892 191.846 33.2965 191.79 33.3165C191.734 33.3365 191.683 33.3686 191.641 33.4106C191.582 33.4824 191.549 33.572 191.548 33.6647C191.548 33.8958 191.687 34.0113 191.965 34.0113H205.143C205.32 33.9927 205.498 34.0204 205.661 34.0918C205.823 34.1631 205.964 34.2755 206.07 34.418C206.241 34.6736 206.333 34.9743 206.334 35.2821C206.327 35.5702 206.238 35.8504 206.079 36.0908C205.976 36.2367 205.836 36.3523 205.673 36.4254C205.51 36.4986 205.33 36.5267 205.152 36.5067H199.043V37.246H205.898C206.132 37.2249 206.367 37.2554 206.587 37.3352C206.807 37.4151 207.007 37.5424 207.172 37.7082C207.414 37.9915 207.546 38.3525 207.543 38.7248C207.556 39.1074 207.42 39.4801 207.163 39.7645C206.993 39.9177 206.792 40.0339 206.574 40.1055C206.357 40.1771 206.126 40.2026 205.898 40.1804H187.462C187.236 40.2032 187.008 40.178 186.792 40.1063C186.577 40.0346 186.379 39.9181 186.212 39.7645C185.962 39.4767 185.829 39.1055 185.841 38.7248C185.838 38.3525 185.97 37.9915 186.212 37.7082C186.373 37.5437 186.569 37.417 186.785 37.3371C187.001 37.2572 187.233 37.2261 187.462 37.246H194.341ZM189.361 49.4226C188.967 49.4521 188.571 49.3972 188.199 49.2618C187.828 49.1263 187.49 48.9133 187.208 48.637C186.726 48.1067 186.469 47.4113 186.49 46.6961V46.5575C186.468 46.2167 186.52 45.8753 186.642 45.5563C186.764 45.2374 186.954 44.9484 187.198 44.7091C187.809 44.2218 188.582 43.9854 189.361 44.0483H201.822V43.6324C201.828 43.5833 201.824 43.5335 201.81 43.4859C201.797 43.4383 201.774 43.3938 201.743 43.3551C201.64 43.2974 201.522 43.2731 201.405 43.2858H187.972C187.798 43.2997 187.624 43.2726 187.463 43.2068C187.302 43.1409 187.159 43.0382 187.045 42.9069C186.846 42.6787 186.734 42.3871 186.73 42.0843C186.733 41.7848 186.83 41.4937 187.008 41.2525C187.12 41.1175 187.262 41.0113 187.423 40.9429C187.585 40.8745 187.76 40.846 187.935 40.8597H204.055C205.013 40.8597 205.667 41.0307 206.023 41.368C206.212 41.572 206.357 41.8127 206.449 42.0751C206.541 42.3375 206.577 42.6159 206.556 42.893V44.9817C206.556 45.2918 206.433 45.5892 206.213 45.8084C205.993 46.0277 205.695 46.1509 205.384 46.1509H191.863C191.802 46.145 191.741 46.1537 191.685 46.1762C191.629 46.1987 191.578 46.2344 191.539 46.2802C191.481 46.3564 191.449 46.4484 191.446 46.5436C191.446 46.7932 191.585 46.9133 191.863 46.9133H205.574C205.75 46.8952 205.929 46.9232 206.091 46.9944C206.253 47.0657 206.395 47.1779 206.5 47.32C206.672 47.5757 206.764 47.8764 206.764 48.1841C206.757 48.4722 206.669 48.7525 206.51 48.9928C206.407 49.1391 206.267 49.2549 206.104 49.3282C205.941 49.4014 205.761 49.4292 205.583 49.4087L189.361 49.4226Z" fill="white"/>
<path d="M213.101 40.2031C212.569 40.2155 212.039 40.1131 211.55 39.9028C211.121 39.7186 210.738 39.4425 210.429 39.0941C210.123 38.7514 209.89 38.3506 209.743 37.9157C209.589 37.4697 209.511 37.0011 209.512 36.5294V36.0673C209.497 35.6253 209.571 35.1849 209.731 34.7721C209.89 34.3593 210.13 33.9826 210.438 33.6643C211.056 33.0482 211.951 32.7401 213.125 32.7401H217.803V31.9545C217.803 31.6634 217.609 31.4924 217.224 31.4924H211.202C210.978 31.512 210.752 31.4748 210.545 31.3844C210.339 31.2939 210.159 31.1531 210.021 30.9749C209.787 30.6638 209.657 30.287 209.651 29.8982C209.653 29.4957 209.782 29.1043 210.021 28.7799C210.158 28.6011 210.339 28.4596 210.545 28.3684C210.751 28.2772 210.977 28.2391 211.202 28.2577H219.077C220.249 28.2577 221.097 28.5303 221.615 29.0664C222.142 29.6376 222.42 30.3936 222.389 31.169V34.7457C222.39 34.8739 222.365 35.0009 222.316 35.1195C222.267 35.2381 222.195 35.3458 222.104 35.4365C222.013 35.5272 221.905 35.5989 221.786 35.6477C221.667 35.6965 221.54 35.7213 221.412 35.7207H214.862C214.777 35.7125 214.692 35.7227 214.612 35.7506C214.532 35.7786 214.459 35.8236 214.398 35.8824C214.306 35.9922 214.257 36.1318 214.26 36.2752V36.3908C214.254 36.5317 214.304 36.6692 214.398 36.7743C214.461 36.83 214.535 36.8719 214.614 36.8974C214.694 36.9229 214.778 36.9313 214.862 36.9222H221.486C221.723 36.9164 221.959 36.9687 222.171 37.0747C222.349 37.1695 222.506 37.2982 222.634 37.4536C222.759 37.6087 222.853 37.7858 222.912 37.9758C222.973 38.1656 223.004 38.3635 223.005 38.5627C223.005 38.9518 222.883 39.3312 222.658 39.6486C222.52 39.8268 222.34 39.967 222.133 40.056C221.926 40.145 221.7 40.1797 221.476 40.1569L213.101 40.2031ZM215.116 49.4915C214.406 49.5063 213.698 49.4016 213.023 49.1819C212.474 49.0024 211.972 48.706 211.55 48.3131C211.166 47.9459 210.873 47.4952 210.693 46.9961C210.503 46.4621 210.409 45.899 210.415 45.3325C210.41 44.7631 210.504 44.1971 210.693 43.6597C210.87 43.1554 211.164 42.6996 211.55 42.3288C211.973 41.9362 212.475 41.6371 213.023 41.4508C213.697 41.2238 214.405 41.1144 215.116 41.1274H225.585C226.29 41.1153 226.991 41.2216 227.66 41.4416C228.207 41.6206 228.707 41.9154 229.129 42.3057C229.516 42.6782 229.813 43.1332 229.999 43.6366C230.195 44.1806 230.292 44.7547 230.287 45.3325C230.31 45.8856 230.219 46.4375 230.02 46.9541C229.821 47.4708 229.517 47.9412 229.129 48.3362C228.355 49.108 227.179 49.4915 225.585 49.4915H215.116ZM224.334 46.3723C224.511 46.393 224.689 46.3771 224.859 46.3254C225.029 46.2737 225.186 46.1874 225.321 46.0719C225.5 45.8676 225.594 45.6034 225.585 45.3325C225.596 45.0683 225.501 44.8107 225.321 44.6163C225.04 44.4018 224.687 44.3026 224.334 44.339H216.367C216.016 44.299 215.663 44.3986 215.385 44.6163C215.295 44.7117 215.224 44.8243 215.178 44.9473C215.132 45.0703 215.111 45.2013 215.116 45.3325C215.107 45.6043 215.203 45.8693 215.385 46.0719C215.519 46.1877 215.675 46.2743 215.844 46.326C216.013 46.3778 216.192 46.3935 216.367 46.3723H224.334ZM225.377 30.0137C225.355 29.6935 225.407 29.3726 225.53 29.076C225.653 28.7795 225.843 28.5152 226.085 28.3039C226.543 27.924 227.121 27.7192 227.716 27.7263C228.013 27.727 228.307 27.7786 228.587 27.8787C228.863 27.9752 229.118 28.1243 229.337 28.3177C229.559 28.5182 229.737 28.762 229.861 29.034C229.995 29.3429 230.061 29.677 230.055 30.0137V38.1006C230.055 38.7134 229.811 39.301 229.377 39.7344C228.942 40.1677 228.353 40.4111 227.739 40.4111C227.433 40.4142 227.129 40.3566 226.846 40.2419C226.562 40.1271 226.304 39.9574 226.086 39.7426C225.869 39.5277 225.696 39.272 225.578 38.9901C225.46 38.7083 225.4 38.4059 225.4 38.1006L225.377 30.0137Z" fill="white"/>
</g>
<defs>
<clipPath id="clip0_3894_83561">
<rect width="317" height="50" fill="white"/>
</clipPath>
</defs>
</svg>
