<svg width="250" height="168" viewBox="0 0 250 168" fill="none" xmlns="http://www.w3.org/2000/svg">
<g clip-path="url(#clip0_4160_84328)">
<path d="M129.662 148.35C131.46 149.573 134.96 150.449 141.415 149.97C157.194 148.808 174.796 146.732 181.571 125.748C188.345 104.764 182.228 107.212 180.114 109.648C176.617 113.71 173.082 127.141 159.635 132.919C146.185 138.723 130.703 143.487 129.054 143.84C129.028 143.837 129.025 143.863 128.999 143.859C126.644 144.39 123.696 144.823 123.696 144.823C126.345 146.625 129.464 148.247 129.464 148.247L129.662 148.35Z" fill="#EA412A"/>
<path d="M150.572 29.7268C145.308 36.1871 155.516 45.7251 163.571 46.1543C171.627 46.5835 186.135 31.9042 169.416 19.8547C150.661 6.36832 135.09 27.5984 134.942 27.95L141.366 42.5977" fill="#61B2E2"/>
<path d="M168.433 36.9507C168.433 36.9507 186.738 61.4463 185.753 89.3427C184.772 117.213 169.493 129.369 152.179 136.417C134.866 143.466 119.664 147.445 113.383 144.988C95.4993 137.946 98.5042 106.441 96.0525 100.649C93.6299 94.8342 84.8307 76.7807 111.785 31.7494C111.785 31.7494 102.141 10.2656 114.761 3.06636C124.947 -2.74013 135.895 4.61732 138.774 15.5313C141.653 26.4452 141.105 28.7812 141.105 28.7812" fill="#61B2E2"/>
<path d="M133.411 74.7658C139.662 76.4005 146.032 72.9534 147.677 67.0282C149.319 61.1289 145.592 54.9966 139.368 53.3651C133.118 51.7305 126.748 55.1775 125.103 61.1028C123.458 67.0281 127.187 73.1344 133.411 74.7658Z" fill="white"/>
<path d="M112.799 68.9211C118.792 70.498 124.939 67.1557 126.527 61.4874C128.117 55.7931 124.518 49.914 118.524 48.3371C112.53 46.7601 106.383 50.1024 104.796 55.7707C103.206 61.465 106.779 67.341 112.799 68.9211Z" fill="white"/>
<path d="M131.471 69.0906C135.502 70.1375 139.642 67.9233 140.69 64.0903C141.763 60.2604 139.348 56.3215 135.32 55.2487C131.288 54.2018 127.148 56.4161 126.101 60.2491C125.054 64.0821 127.439 68.0438 131.471 69.0906Z" fill="#040001"/>
<path d="M112.017 62.6203C115.893 63.6482 119.868 61.493 120.896 57.8161C121.924 54.1392 119.597 50.3431 115.722 49.3152C111.846 48.2874 107.871 50.4426 106.842 54.1195C105.814 57.7964 108.138 61.6185 112.017 62.6203Z" fill="#040001"/>
<path d="M131.917 59.6119C132.631 59.8046 133.365 59.3927 133.552 58.7291C133.741 58.0395 133.299 57.3519 132.585 57.1592C131.872 56.9665 131.137 57.3783 130.951 58.0419C130.762 58.7316 131.178 59.416 131.917 59.6119Z" fill="white"/>
<path d="M112.45 53.4578C113.137 53.6474 113.843 53.2583 114.029 52.5947C114.215 51.9311 113.799 51.2467 113.108 51.0831C112.421 50.8936 111.715 51.2826 111.529 51.9462C111.346 52.5839 111.762 53.2683 112.45 53.4578Z" fill="white"/>
<path d="M101.5 99.8104C107.63 93.7992 102.259 87.1227 95.8595 83.9119L94.7204 70.1737C94.7204 70.1737 95.5419 70.7758 94.4991 71.1237C90.4446 88.3734 94.5271 96.9785 96.0531 100.65C96.1574 100.874 96.2553 101.15 96.35 101.452C98.5087 101.452 100.361 100.939 101.5 99.8104Z" fill="#479EC9"/>
<path d="M140.31 21.9244C139.965 20.2187 139.484 18.1267 138.797 15.5606C137.556 10.841 134.765 6.75048 131.193 4.09619C133.258 7.88667 135.234 12.617 135.192 16.8368C135.103 25.54 133.673 29.2734 133.673 29.2734C133.673 29.2734 136.512 24.999 140.31 21.9244Z" fill="#6391C4"/>
<path d="M127.601 80.2876C127.601 80.2876 129.546 75.1384 138.962 76.2882C148.377 77.438 149.674 82.9832 149.674 82.9832" fill="#479EC9"/>
<path d="M127.365 82.2129C127.365 82.2129 129.31 77.0636 138.726 78.2134C148.141 79.3632 149.464 84.9116 149.464 84.9116" fill="#61B2E2"/>
<path d="M138.677 81.4032C140.683 81.6481 142.363 81.404 142.43 80.858C142.496 80.312 140.924 79.6708 138.919 79.4259C136.913 79.181 135.234 79.4251 135.167 79.9711C135.1 80.5171 136.672 81.1583 138.677 81.4032Z" fill="#D4EFFC"/>
<path d="M133.112 107.393C124.906 101.294 124.624 94.764 124.624 94.764C113.466 91.5002 111.41 85.9152 116.005 84.0734C119.107 82.815 125.698 89.8516 129.703 89.1788C133.704 88.532 138.15 84.0314 141.253 87.2886C144.357 90.5458 137.698 94.1953 137.698 94.1953C137.698 94.1953 141.838 98.2392 147.383 97.8865" fill="#61B2E2"/>
<path d="M133.035 108.018C132.931 108.005 132.805 107.964 132.707 107.899C125.518 102.532 124.233 96.8826 124.012 95.2449C116.195 92.8643 113.237 89.4928 113.085 87.0713C112.984 85.5275 113.96 84.2207 115.76 83.4899C117.645 82.7166 120.219 84.2721 122.942 85.8985C125.37 87.3569 127.873 88.8508 129.619 88.5623C130.883 88.347 132.249 87.7216 133.59 87.0931C136.299 85.8133 139.398 84.3696 141.803 86.8814C142.595 87.7176 142.928 88.6561 142.756 89.6384C142.427 91.6843 140.075 93.4832 138.845 94.2836C140.167 95.3164 143.427 97.5101 147.38 97.2535C147.753 97.2198 148.062 97.4952 148.098 97.8429C148.135 98.1906 147.86 98.5003 147.49 98.508C141.706 98.8843 137.44 94.7985 137.274 94.6463C137.134 94.4972 137.053 94.3024 137.075 94.1203C137.097 93.9381 137.223 93.7687 137.395 93.6576C138.411 93.0952 141.165 91.2397 141.436 89.4508C141.538 88.8296 141.317 88.2744 140.803 87.7364C139.191 86.0608 137.232 86.7986 134.186 88.2486C132.761 88.9196 131.311 89.5875 129.859 89.8327C127.604 90.1911 124.881 88.5646 122.232 86.9736C119.927 85.5831 117.548 84.1571 116.301 84.665C115.388 85.0288 114.326 85.7442 114.407 87.0216C114.539 88.9652 117.33 91.9731 124.83 94.1564C125.109 94.2433 125.291 94.4768 125.311 94.7433C125.304 94.7953 125.725 101.052 133.541 106.892C133.83 107.112 133.886 107.515 133.67 107.779C133.489 107.968 133.268 108.047 133.035 108.018Z" fill="#6391C4"/>
<path d="M116.827 87.012C117.495 86.5555 117.859 85.9237 117.639 85.6009C117.42 85.2781 116.701 85.3864 116.033 85.8429C115.365 86.2994 115.001 86.9311 115.221 87.254C115.44 87.5768 116.159 87.4685 116.827 87.012Z" fill="#D4EFFC"/>
<path d="M130.07 77.5533C129.992 77.5438 129.891 77.5051 129.816 77.4696C125.419 75.1106 113.294 73.0755 113.165 73.0596C112.805 72.9893 112.554 72.6682 112.622 72.3332C112.689 71.9981 113.009 71.7467 113.395 71.8203C113.911 71.9096 125.879 73.9257 130.475 76.3882C130.796 76.5594 130.908 76.9427 130.737 77.2651C130.581 77.4574 130.329 77.585 130.07 77.5533Z" fill="#040001"/>
<path d="M95.4353 68.4125C95.4353 68.4125 80.1643 71.8816 80.0886 84.5736C80.0129 97.2656 96.0886 102.081 100.768 97.6085C104.703 93.8377 101.431 88.0778 95.0577 84.8701" fill="#61B2E2"/>
<path d="M101.587 72.3585C101.484 72.3458 101.38 72.3332 101.276 72.3205C99.2656 71.9694 97.5606 70.6257 96.4988 68.542C95.4793 66.5427 95.1719 64.1022 95.6066 61.6203C96.0381 59.1645 97.2028 56.9566 98.8391 55.4136C100.563 53.8021 102.619 53.129 104.63 53.4801C106.64 53.8313 108.345 55.1749 109.407 57.2586C110.426 59.2579 110.734 61.6984 110.299 64.1803C109.868 66.6362 108.703 68.8441 107.067 70.387C105.463 71.8811 103.507 72.5929 101.587 72.3585ZM104.173 55.0616C102.799 54.8937 101.338 55.4283 100.09 56.5962C98.6929 57.9043 97.7251 59.793 97.3349 61.9106C96.9415 64.0542 97.2124 66.147 98.0593 67.8348C98.8639 69.4382 100.111 70.4354 101.554 70.6909C102.997 70.9463 104.539 70.3952 105.845 69.1816C107.242 67.8735 108.21 65.9848 108.6 63.8672C108.993 61.7235 108.722 59.6308 107.876 57.943C107.071 56.3396 105.824 55.3423 104.381 55.0869C104.303 55.0774 104.225 55.0679 104.173 55.0616Z" fill="#563215"/>
<path d="M119.726 75.5767C119.57 75.5577 119.441 75.5419 119.288 75.4969C115.254 74.6873 112.844 69.8512 113.923 64.6754C115.003 59.4997 119.146 55.9655 123.158 56.7459C127.192 57.5554 129.602 62.3916 128.523 67.5673C127.491 72.5641 123.617 76.0518 119.726 75.5767ZM122.516 58.3311C119.534 57.9669 116.465 60.8929 115.616 65.0406C114.726 69.3152 116.528 73.3113 119.612 73.9256C122.696 74.5399 125.93 71.5548 126.82 67.2802C127.711 63.0056 125.909 59.0094 122.825 58.3952C122.724 58.3565 122.62 58.3438 122.516 58.3311Z" fill="#563215"/>
<path d="M114.566 66.1003C114.54 66.0972 114.488 66.0908 114.462 66.0877L109.883 65.0003C109.422 64.8913 109.136 64.4338 109.242 63.9979C109.347 63.5619 109.827 63.3035 110.287 63.4126L114.866 64.4999C115.327 64.609 115.613 65.0664 115.507 65.5024C115.408 65.8863 114.981 66.151 114.566 66.1003Z" fill="#563215"/>
<path d="M127.756 68.8996C127.341 68.8489 127.013 68.5184 126.983 68.1186C126.959 67.6668 127.321 67.2885 127.797 67.2675L164.787 65.9488C165.936 65.1649 170.366 62.2996 172.953 63.7509C175.64 65.241 176.392 69.0032 176.425 69.1656C176.5 69.6237 176.187 70.0344 175.73 70.1106C175.247 70.1837 174.809 69.8925 174.733 69.4344C174.737 69.4083 174.116 66.2959 172.12 65.1808C170.689 64.3986 167.157 66.3703 165.659 67.4285L165.455 67.5884L127.937 68.9218C127.86 68.9123 127.808 68.9059 127.756 68.8996Z" fill="#563215"/>
<path d="M170.75 40.4036L156.924 36.9989L136.23 38.9608C136.23 38.9608 130.112 39.9037 131.08 41.6854C131.936 43.2951 158.283 43.9776 177.043 51.8138C175.565 49.0455 171.859 42.0971 170.75 40.4036Z" fill="#479EC9"/>
<path d="M128.36 30.9749C128.36 30.9749 123.44 31.1663 123.297 32.3371C123.154 33.5079 127.857 35.957 127.857 35.957C127.857 35.957 130.52 34.1961 130.513 34.0369C130.507 33.8776 128.36 30.9749 128.36 30.9749Z" fill="#231815"/>
<path d="M181.793 43.5207L136.499 40.8414L139.87 35.655L138.586 28.9232L182.915 34.3364L185.272 38.7436L181.793 43.5207Z" fill="#E84923"/>
<path d="M138.368 28.9777L128.355 31.0028C128.218 31.0389 128.148 31.1887 128.239 31.3055L128.921 32.181C129.012 32.2978 128.967 32.4507 128.831 32.4869L127.38 32.9435C127.215 33.0025 127.193 33.1846 127.313 33.2785L128.638 34.2853C128.758 34.3792 128.736 34.5613 128.597 34.6235L127.162 35.1613C126.997 35.2204 126.998 35.4317 127.144 35.5287L136.534 40.7683C136.631 40.833 136.767 40.7968 136.806 40.6959L139.837 35.7057C139.869 35.6568 139.873 35.6308 139.853 35.5756L138.612 29.1394C138.599 29.0322 138.478 28.9383 138.368 28.9777Z" fill="#F4CAAB"/>
<path d="M185.21 38.8157L139.744 35.8249L136.498 40.8418L181.793 43.5211L185.21 38.8157Z" fill="#C13317"/>
<g opacity="0.5">
<path opacity="0.5" d="M146.066 34.3006C145.356 36.8809 148.003 40.4256 151.293 41.7252L155.082 41.9503C156.255 41.6182 156.986 41.0209 156.986 41.0209L150.13 30.3343C150.13 30.3343 146.776 31.7203 146.066 34.3006Z" fill="#0A0A0A"/>
</g>
<path d="M150.572 29.7273C145.307 36.1877 155.515 45.7256 163.571 46.1548C171.626 46.5841 186.245 30.9942 168.49 19.2406" fill="#61B2E2"/>
<path d="M173.956 35.8637C174.792 35.8291 175.407 34.2417 175.33 32.318C175.252 30.3943 174.511 28.8629 173.675 28.8974C172.838 28.932 172.223 30.5194 172.301 32.4431C172.378 34.3668 173.119 35.8982 173.956 35.8637Z" fill="#9DD7F4"/>
<path d="M113.382 144.99C116.095 146.06 120.457 145.907 125.955 144.862C127.824 136.244 140.436 127.38 140.436 127.38L100.471 128.705C102.651 135.863 106.449 142.268 113.382 144.99Z" fill="#6391C4"/>
<path d="M185.73 89.342C186.025 81.3242 184.706 73.5846 182.685 66.6308C184.438 87.2038 178.894 116.867 137.327 129.8C118.58 135.644 111.863 140.422 111.863 144.303C112.36 144.549 112.859 144.768 113.385 144.991C119.666 147.448 134.865 143.494 152.156 136.417C169.473 129.342 184.748 117.212 185.73 89.342Z" fill="#6391C4"/>
<path d="M64.3705 155.209L63.4777 155.224C61.1172 155.233 59.1205 153.863 59.0172 152.151L57.1568 117.673C57.0535 115.96 58.8887 114.549 61.2492 114.541L62.1421 114.526C64.5026 114.517 66.4992 115.887 66.6025 117.599L68.489 152.079C68.5662 153.79 66.7329 155.181 64.3705 155.209Z" fill="#542B0D"/>
<path d="M98.8375 151.431L94.1674 151.701C92.856 151.768 91.7252 150.82 91.655 149.583L87.9341 94.1866C87.8378 92.9485 88.8326 91.8688 90.144 91.8018L94.8141 91.5321C96.1255 91.4652 97.2563 92.4128 97.3265 93.6497L101.047 149.047C101.144 150.285 100.149 151.364 98.8375 151.431Z" fill="#603213"/>
<path d="M101.055 167.052L100.166 167.027C97.8111 166.976 95.8981 165.552 95.8748 163.826L96.1888 129.366C96.1898 127.661 98.0975 126.315 100.452 126.367L101.342 126.391C103.697 126.443 105.61 127.866 105.633 129.593L105.319 164.053C105.318 165.758 103.41 167.103 101.055 167.052Z" fill="#542B0D"/>
<path d="M138.208 156.019L137.321 155.974C134.972 155.863 133.114 154.404 133.169 152.683L135.156 118.285C135.209 116.584 137.191 115.284 139.542 115.375L140.429 115.42C142.779 115.531 144.636 116.99 144.581 118.711L142.595 153.109C142.54 154.83 140.558 156.13 138.208 156.019Z" fill="#542B0D"/>
<path d="M52.3931 107.273L55.521 121.387C55.6887 122.235 56.2009 122.995 56.9621 123.479L99.7922 145.312C100.706 145.882 101.909 145.888 102.825 145.356L144.233 126.286C145.041 125.801 145.553 124.96 145.546 124.041L147.059 112.385L52.3931 107.273Z" fill="#8C4D1E"/>
<path d="M92.4662 89.2668L54.0176 104.545C51.833 105.881 51.8669 108.927 54.0798 110.217L100.477 134.009C101.571 134.64 102.955 134.682 104.059 134.054L145.268 115.289C147.634 113.988 147.611 110.733 145.214 109.461L96.0312 89.1266C94.9333 88.5742 93.5461 88.585 92.4662 89.2668Z" fill="#9E592A"/>
<path d="M80.8605 93.8666C82.5189 96.8608 84.9386 100.338 87.9101 102.164C93.8035 105.759 96.3936 96.1499 96.3936 96.1499L90.8659 89.8957L80.8605 93.8666Z" fill="#77411D"/>
<path d="M76.949 106.404L73.6169 108.734C73.6169 108.734 76.9555 109.475 81.3702 111.214C83.8595 112.202 86.2453 114.234 87.4279 114.66C88.6118 115.059 94.4834 115.898 97.2144 117.291C99.9455 118.685 105.651 125.053 106.589 124.6C123.036 116.772 106.038 120.348 106.038 120.348L92.4573 110.261L76.949 106.404Z" fill="#512710"/>
<path d="M107.451 123.04C107.451 123.04 104.24 119.156 99.7764 116.287C96.1741 113.985 91.7501 113.505 90.5589 113.788C87.8856 114.418 86.3838 113.033 85.852 112.14C85.3201 111.248 83.3293 110.232 81.0552 109.124C78.755 108.014 73.8444 107.852 73.8444 107.852L77.2724 106.235L94.1879 105.936L107.862 115.187L109.999 119.097L111.661 120.412L107.451 123.04Z" fill="#E23A00"/>
<path d="M73.5796 103.666L74.1265 106.92C74.1265 106.92 78.9604 107.577 81.2606 108.687C83.5608 109.797 85.4815 111.177 86.0134 112.069C86.5452 112.961 88.5156 114.396 91.1691 113.634C92.522 113.254 96.3878 113.916 100.366 116.026C105.312 118.657 108.296 122.897 108.296 122.897L111.559 121.981L107.246 113.372C107.246 113.372 103.511 110.04 99.7699 108.964C96.0565 107.864 92.3717 106.712 91.2165 106.262C90.0613 105.812 89.9188 105.516 87.7367 105.199C85.5546 104.882 86.1091 104.778 82.7748 104.484C79.4678 104.164 73.5796 103.666 73.5796 103.666Z" fill="#CCCCCC"/>
<path d="M89.3331 111.601L112.978 102.106C112.978 102.106 126.965 103.368 131.432 109.912C131.579 110.129 131.485 110.439 131.245 110.532L111.561 121.954C111.559 121.98 104.411 109.821 89.3331 111.601Z" fill="white"/>
<path d="M89.3319 111.604C89.3319 111.604 89.1641 105.954 73.5788 103.668L99.6401 95.0519C99.6401 95.0519 109.14 95.5175 112.978 102.083L89.3319 111.604Z" fill="white"/>
<path d="M107.343 123.087C107.213 123.081 107.111 123.023 107.01 122.94C106.985 122.912 104.022 119.854 99.6338 117.041C96.0577 114.74 91.8125 114.348 90.7805 114.586C87.34 115.389 85.801 113.162 85.5344 112.729C85.0013 111.863 82.4452 110.635 80.9374 109.905C78.7652 108.854 73.9603 108.671 73.9081 108.668C73.6471 108.656 73.4473 108.462 73.4601 108.2C73.4716 107.965 73.6907 107.766 73.9517 107.778C74.1605 107.789 78.9915 107.973 81.3426 109.112C84.1545 110.457 85.7838 111.376 86.3405 112.296C86.5587 112.648 87.7555 114.386 90.5344 113.735C91.9643 113.385 96.5138 113.975 100.141 116.305C104.631 119.175 107.643 122.315 107.694 122.343C107.867 122.536 107.854 122.797 107.663 122.972C107.581 123.046 107.474 123.094 107.343 123.087Z" fill="#FF5003"/>
<path d="M100.45 95.0908C100.55 96.2504 101.64 97.4847 101.469 98.841C100.901 104.035 93.8021 109.015 90.5363 111.059L112.953 102.081C110.13 97.2185 103.765 95.227 100.45 95.0908Z" fill="#F4F4F4"/>
<path d="M113.256 118.784C113.255 118.81 113.309 118.786 113.336 118.788C113.285 118.732 113.256 118.784 113.256 118.784Z" fill="#464646"/>
<path d="M112.937 118.403L112.964 118.404L112.887 118.347L112.937 118.403Z" fill="#464646"/>
<path d="M112.746 118.024C112.689 118.1 112.844 118.16 112.84 118.239L112.812 118.264L112.891 118.268C112.87 118.162 112.769 118.078 112.746 118.024Z" fill="#464646"/>
<path d="M112.815 117.713C112.787 117.738 112.763 117.684 112.839 117.768C112.84 117.741 112.814 117.74 112.815 117.713Z" fill="#464646"/>
<path d="M112.835 117.767C112.859 117.795 112.837 117.715 112.835 117.767V117.767Z" fill="#464646"/>
<path d="M112.719 117.579L112.77 117.608C112.771 117.581 112.747 117.527 112.772 117.555C112.747 117.527 112.721 117.526 112.719 117.579Z" fill="#464646"/>
<path d="M112.613 117.572L112.638 117.599C112.665 117.574 112.665 117.574 112.613 117.572Z" fill="#464646"/>
<path d="M112.713 117.629L112.664 117.574C112.662 117.6 112.637 117.599 112.688 117.601C112.635 117.625 112.687 117.627 112.713 117.629Z" fill="#464646"/>
<path d="M112.711 117.683C112.708 117.736 112.733 117.764 112.655 117.734C112.731 117.818 112.787 117.767 112.711 117.683Z" fill="#464646"/>
<path d="M112.639 118.047L112.636 118.101L112.688 118.13C112.663 118.102 112.667 118.022 112.639 118.047Z" fill="#464646"/>
<path d="M112.548 117.227C112.522 117.226 112.519 117.279 112.493 117.278L112.544 117.307C112.518 117.306 112.52 117.252 112.548 117.227Z" fill="#464646"/>
<path d="M112.492 117.303L112.414 117.272C112.437 117.327 112.464 117.328 112.492 117.303Z" fill="#464646"/>
<path d="M112.531 117.621L112.635 117.68L112.506 117.593L112.531 117.621Z" fill="#464646"/>
<path d="M112.4 117.037L112.454 117.04L112.349 117.008L112.4 117.037Z" fill="#464646"/>
<path d="M112.28 116.903C112.334 116.906 112.311 116.824 112.336 116.852C112.311 116.824 112.259 116.795 112.206 116.792C112.259 116.795 112.284 116.823 112.28 116.903Z" fill="#464646"/>
<path d="M112.153 116.761C112.18 116.762 112.206 116.763 112.231 116.791C112.206 116.763 112.18 116.762 112.153 116.761Z" fill="#464646"/>
<path d="M112.369 117.168C112.369 117.168 112.397 117.142 112.4 117.089L112.369 117.168Z" fill="#464646"/>
<path d="M112.347 117.139C112.322 117.111 112.323 117.084 112.323 117.084C112.322 117.111 112.322 117.111 112.347 117.139Z" fill="#464646"/>
<path d="M112.461 117.434C112.409 117.405 112.33 117.374 112.326 117.454C112.406 117.458 112.382 117.403 112.461 117.434Z" fill="#464646"/>
<path d="M112.315 117.245L112.339 117.299C112.339 117.299 112.367 117.274 112.393 117.275L112.315 117.245Z" fill="#464646"/>
<path d="M112.291 117.214L112.316 117.243L112.318 117.215L112.291 117.214Z" fill="#464646"/>
<path d="M112.175 116.87C112.122 116.867 112.123 116.84 112.071 116.811C112.097 116.839 112.121 116.894 112.146 116.922C112.172 116.923 112.199 116.924 112.175 116.87Z" fill="#464646"/>
<path d="M112.144 116.919C112.143 116.946 112.169 116.947 112.194 116.975C112.196 116.949 112.169 116.947 112.144 116.919Z" fill="#464646"/>
<path d="M112.056 116.679C112.054 116.705 112.054 116.705 112.053 116.732C112.079 116.733 112.082 116.68 112.056 116.679Z" fill="#464646"/>
<path d="M112.248 116.977C112.222 116.976 112.222 116.976 112.196 116.975C112.222 116.976 112.247 117.003 112.248 116.977C112.247 117.003 112.247 117.003 112.248 116.977Z" fill="#464646"/>
<path d="M111.507 116.652C111.561 116.628 111.638 116.658 111.635 116.737C111.712 116.767 111.823 116.641 111.855 116.537C111.828 116.536 111.827 116.562 111.75 116.532C111.748 116.558 111.794 116.692 111.717 116.662C111.641 116.605 111.695 116.582 111.671 116.528C111.641 116.605 111.515 116.494 111.459 116.57L111.536 116.6C111.534 116.653 111.482 116.624 111.507 116.652Z" fill="#464646"/>
<path d="M111.926 116.649C111.926 116.649 111.928 116.595 111.931 116.542C111.879 116.512 111.852 116.511 111.851 116.538L111.926 116.649Z" fill="#464646"/>
<path d="M112.022 116.756C111.969 116.779 111.893 116.723 111.89 116.801C111.939 116.856 111.966 116.831 112.018 116.834C111.918 116.751 112.068 116.862 112.022 116.756C112.046 116.783 112.072 116.784 112.071 116.81C112.072 116.784 112.048 116.757 112.049 116.731C112.048 116.757 112.048 116.757 112.022 116.756C112.048 116.757 112.048 116.757 112.022 116.756C112.023 116.73 112.048 116.757 112.022 116.756L112.048 116.757L111.948 116.674C111.972 116.701 111.997 116.728 112.022 116.756Z" fill="#464646"/>
<path d="M112.203 117.395C112.203 117.395 112.229 117.396 112.253 117.423C112.252 117.449 112.226 117.448 112.226 117.448C112.252 117.449 112.302 117.477 112.279 117.424C112.256 117.371 112.287 117.268 112.287 117.268C112.258 117.319 112.231 117.344 112.203 117.395Z" fill="#464646"/>
<path d="M112.116 117.077C112.09 117.049 112.065 117.021 112.013 116.992L112.009 117.072L112.037 117.046C112.06 117.128 112.088 117.102 112.116 117.077Z" fill="#464646"/>
<path d="M111.857 116.487L111.939 116.465L111.804 116.485L111.857 116.487Z" fill="#464646"/>
<path d="M111.753 116.376L111.807 116.352L111.754 116.35L111.753 116.376Z" fill="#464646"/>
<path d="M108.939 114.036C108.915 113.981 108.92 113.874 108.891 113.926L108.862 113.978C108.914 114.008 108.912 114.034 108.939 114.036Z" fill="#464646"/>
<path d="M106.576 113.13C106.603 113.131 106.629 113.132 106.63 113.106C106.604 113.104 106.604 113.104 106.576 113.13Z" fill="#464646"/>
<path d="M106.44 113.306L106.39 113.25C106.417 113.251 106.415 113.278 106.44 113.306Z" fill="#464646"/>
<path d="M103.148 112.12L103.093 112.17C103.171 112.174 103.146 112.147 103.148 112.12Z" fill="#464646"/>
<path d="M110.654 115.326C110.63 115.272 110.605 115.244 110.605 115.244C110.602 115.297 110.6 115.35 110.654 115.326Z" fill="#464646"/>
<path d="M104.722 112.016C104.694 112.015 104.694 112.015 104.693 112.042C104.722 112.016 104.722 112.016 104.722 112.016Z" fill="#464646"/>
<path d="M110.502 115.158C110.554 115.187 110.58 115.215 110.605 115.243C110.581 115.188 110.556 115.16 110.502 115.158Z" fill="#464646"/>
<path d="M111.357 115.936C111.38 115.96 111.381 115.937 111.357 115.936V115.936Z" fill="#464646"/>
<path d="M111.381 115.99C111.381 115.99 111.383 115.963 111.357 115.936C111.356 115.962 111.383 115.963 111.381 115.99Z" fill="#464646"/>
<path d="M111.38 115.963C111.406 115.964 111.405 115.989 111.38 115.963C111.405 115.989 111.432 115.965 111.38 115.963Z" fill="#464646"/>
<path d="M111.333 115.91C111.36 115.911 111.359 115.937 111.357 115.964C111.359 115.937 111.36 115.911 111.333 115.91Z" fill="#464646"/>
<path d="M107.814 114.082C107.894 114.034 107.918 114.061 107.943 114.088L108.003 113.935L107.814 114.082Z" fill="#464646"/>
<path d="M103.868 112.316L103.916 112.397C103.809 112.444 103.734 112.388 103.782 112.469C103.868 112.316 104.065 112.561 104.151 112.408L104.175 112.462C104.149 112.461 104.149 112.461 104.149 112.461C104.222 112.569 104.258 112.361 104.385 112.446C104.41 112.473 104.434 112.501 104.407 112.526L104.511 112.531C104.538 112.532 104.51 112.557 104.484 112.556L104.639 112.59C104.667 112.565 104.746 112.542 104.772 112.544C104.797 112.571 104.746 112.542 104.745 112.568L104.849 112.574C104.873 112.627 104.767 112.648 104.716 112.62C104.734 112.804 104.796 112.597 104.919 112.761L104.84 112.757C104.861 112.863 104.914 112.865 104.988 112.948C104.989 112.922 104.894 112.733 104.998 112.738C105.023 112.766 105.049 112.767 105.101 112.77C105.073 112.821 105.125 112.823 105.176 112.852L105.146 112.929C105.224 112.933 105.227 112.881 105.279 112.883C105.356 112.913 105.326 112.991 105.324 113.043C105.425 113.1 105.304 112.911 105.432 112.97C105.508 113.026 105.586 113.03 105.716 113.036C105.766 113.091 105.688 113.087 105.686 113.113L105.766 113.091C105.792 113.092 105.765 113.117 105.765 113.117C105.817 113.12 105.795 113.04 105.899 113.045C105.955 112.969 105.994 113.233 106.127 113.187C106.152 113.215 106.099 113.238 106.098 113.265C106.254 113.272 106.228 113.271 106.361 113.225L106.436 113.307C106.387 113.226 106.519 113.207 106.625 113.185C106.626 113.159 106.602 113.106 106.602 113.106L106.733 113.112C106.732 113.138 106.706 113.137 106.678 113.162L106.704 113.163C106.728 113.217 106.7 113.242 106.647 113.265C106.648 113.239 106.623 113.212 106.623 113.212C106.57 113.235 106.515 113.285 106.514 113.311C106.514 113.311 106.54 113.313 106.566 113.314C106.54 113.313 106.539 113.339 106.539 113.339C106.539 113.339 106.565 113.34 106.592 113.315L106.587 113.42L106.614 113.395L106.74 113.506C106.898 113.488 107.032 113.415 107.24 113.452C107.159 113.5 107.182 113.554 107.127 113.604C107.133 113.499 106.972 113.57 106.896 113.514C106.947 113.542 106.92 113.567 106.894 113.566L107.076 113.575C107.048 113.626 107.074 113.627 107.124 113.682C107.156 113.553 107.281 113.664 107.36 113.668C107.331 113.719 107.304 113.744 107.228 113.687C107.274 113.821 107.415 113.618 107.462 113.725C107.435 113.724 107.437 113.698 107.409 113.723C107.462 113.725 107.562 113.809 107.51 113.806L107.484 113.805C107.584 113.889 107.84 114.006 107.922 113.931C107.922 113.931 107.839 114.032 107.812 114.057C107.946 113.985 108.079 113.939 108.213 113.867C108.131 113.942 108.094 114.176 107.964 114.143C107.989 114.171 108.014 114.198 108.092 114.202C108.094 114.176 108.125 114.073 108.151 114.074C108.171 114.206 108.173 114.154 108.219 114.287C108.194 114.26 108.304 114.16 108.355 114.189C108.327 114.214 108.27 114.316 108.244 114.315L108.429 114.271C108.377 114.269 108.346 114.372 108.369 114.426C108.37 114.399 108.471 114.483 108.497 114.484L108.473 114.431C108.6 114.516 108.714 114.338 108.84 114.422C108.813 114.447 108.703 114.547 108.753 114.602C108.834 114.553 109.076 114.408 109.233 114.415L109.23 114.468L109.335 114.473C109.202 114.519 108.936 114.611 108.804 114.631C108.827 114.684 108.775 114.682 108.852 114.712C108.85 114.764 108.773 114.734 108.746 114.733L108.897 114.871C108.953 114.795 109.079 114.88 109.108 114.829L108.874 114.792C108.93 114.716 109.116 114.672 109.216 114.756C109.214 114.808 109.107 114.855 109.079 114.88C109.107 114.855 109.209 114.913 109.207 114.939L109.129 114.935C109.177 115.016 109.287 114.917 109.334 115.024C109.359 115.051 109.328 115.155 109.381 115.131C109.412 115.028 109.582 114.774 109.661 114.751C109.661 114.751 109.732 114.912 109.728 114.991C109.724 115.069 109.54 115.087 109.536 115.165C109.564 115.14 109.59 115.142 109.616 115.143C109.641 115.17 109.561 115.193 109.612 115.221C109.667 115.172 109.739 115.306 109.693 115.173C109.77 115.203 109.743 115.228 109.818 115.284C109.847 115.233 110.006 115.188 110.083 115.218C110.056 115.243 110.054 115.269 110.054 115.269C110.154 115.379 110.203 115.434 110.303 115.544C110.301 115.57 110.325 115.624 110.271 115.647C110.297 115.649 110.324 115.65 110.376 115.652C110.397 115.758 110.3 115.596 110.269 115.7C110.296 115.675 110.399 115.706 110.476 115.736C110.532 115.66 110.377 115.626 110.325 115.624C110.407 115.549 110.565 115.53 110.693 115.589C110.795 115.647 110.689 115.668 110.715 115.669C110.864 115.834 110.977 115.656 111.073 115.844C111.068 115.949 110.963 115.944 110.961 115.996C110.885 115.94 110.889 115.861 110.838 115.833L110.86 115.912C110.834 115.911 110.757 115.881 110.758 115.855C110.754 115.933 111.008 116.103 111.078 116.264C111.104 116.265 111.155 116.294 111.184 116.243L111.133 116.214C111.137 116.136 111.264 116.221 111.24 116.167C111.317 116.197 111.421 116.202 111.469 116.31L111.412 116.386C111.44 116.361 111.416 116.307 111.364 116.304C111.416 116.307 111.381 116.489 111.488 116.442L111.492 116.363C111.569 116.393 111.7 116.4 111.748 116.481C111.778 116.403 111.722 116.479 111.753 116.376C111.696 116.478 111.604 116.211 111.572 116.341C111.603 116.237 111.525 116.234 111.531 116.103C111.504 116.128 111.502 116.154 111.479 116.1L111.453 116.099C111.451 116.125 111.45 116.151 111.45 116.151C111.371 116.174 111.296 116.091 111.245 116.062C111.22 116.035 111.271 116.064 111.274 116.011L111.196 116.008C111.224 115.956 111.176 115.875 111.279 115.907L111.203 115.85C111.18 115.797 111.13 115.742 111.079 115.713C111.054 115.686 110.95 115.681 111.002 115.683L110.876 115.598C110.776 115.488 110.594 115.479 110.524 115.292C110.473 115.264 110.421 115.261 110.373 115.18L110.401 115.129C110.351 115.1 110.279 114.965 110.225 114.989C110.259 114.833 110.001 114.768 109.926 114.686L109.871 114.735C109.822 114.681 109.745 114.651 109.642 114.619L109.613 114.67C109.508 114.665 109.464 114.506 109.362 114.448C109.39 114.423 109.414 114.451 109.413 114.477C109.37 114.291 109.078 114.382 109.033 114.222C108.981 114.219 108.982 114.193 108.957 114.166C108.959 114.14 108.933 114.138 108.934 114.112C108.933 114.138 108.933 114.138 108.957 114.166C108.931 114.165 108.906 114.137 108.854 114.135L108.883 114.083C108.858 114.056 108.831 114.081 108.828 114.133C108.802 114.132 108.776 114.131 108.776 114.131C108.807 114.027 108.673 114.099 108.704 113.996C108.651 114.02 108.524 113.935 108.442 114.009C108.442 114.009 108.443 113.983 108.469 113.984C108.444 113.957 108.42 113.929 108.367 113.927L108.397 113.85L108.264 113.896C108.242 113.816 108.243 113.79 108.323 113.767C108.165 113.786 108.194 113.735 108.062 113.755L108.091 113.703C108.04 113.675 107.96 113.697 107.961 113.671C107.916 113.537 107.555 113.415 107.38 113.249C107.346 113.405 107.307 113.14 107.25 113.242C107.251 113.216 107.228 113.163 107.28 113.165C107.151 113.133 107.13 113.027 107.023 113.074C107.024 113.048 107.076 113.05 107.077 113.024L107.025 113.021C107.026 112.995 107.053 112.996 107.079 112.998C106.951 112.939 106.893 113.041 106.837 113.117C106.815 113.037 106.763 113.035 106.708 113.085C106.709 113.058 106.686 113.005 106.763 113.035C106.738 113.007 106.536 112.866 106.506 112.943C106.507 112.917 106.455 112.915 106.429 112.913C106.353 112.857 106.327 112.856 106.25 112.826L106.275 112.853C106.193 112.928 106.196 112.85 106.119 112.82C105.995 112.682 106.041 112.816 105.891 112.677L105.862 112.728C105.779 112.829 105.738 112.591 105.632 112.612L105.656 112.666C105.576 112.688 105.588 112.452 105.538 112.397C105.54 112.371 105.564 112.399 105.591 112.4C105.493 112.264 105.534 112.476 105.431 112.445C105.434 112.392 105.515 112.344 105.438 112.314C105.414 112.26 105.174 112.353 105.127 112.246C105.126 112.272 105.149 112.326 105.097 112.323C105.02 112.293 104.95 112.132 104.841 112.206L104.843 112.18C104.764 112.176 104.635 112.143 104.58 112.193C104.617 111.985 104.19 112.148 104.251 111.967L104.071 111.906L104.072 111.879C103.971 111.822 103.917 111.846 103.862 111.895C103.838 111.868 103.864 111.869 103.865 111.843C103.712 111.757 103.686 111.756 103.527 111.8L103.529 111.748C103.476 111.771 103.328 111.581 103.144 111.598C103.144 111.598 103.146 111.572 103.172 111.573C102.962 111.589 102.794 111.266 102.654 111.469L102.522 111.489C102.676 111.549 102.466 111.565 102.515 111.619C102.437 111.616 102.39 111.508 102.468 111.512L102.467 111.538C102.524 111.436 102.288 111.451 102.318 111.374C102.009 111.28 101.728 111.135 101.445 111.042L101.44 111.147L101.337 111.116C101.312 111.088 101.314 111.036 101.391 111.066C101.368 111.012 101.26 111.086 101.26 111.086C101.133 111.001 101.343 110.985 101.291 110.982L101.239 110.98L101.237 111.006C101.184 111.029 101.157 111.054 101.078 111.05C101.027 111.022 101.055 110.997 101.056 110.971C101.056 110.971 101.056 110.971 101.03 110.969L100.901 110.937L100.923 111.017C100.843 111.039 100.794 110.984 100.842 111.065C100.796 110.932 100.379 110.911 100.329 110.856C100.223 110.877 100.145 110.873 100.068 110.843C100.093 110.871 100.089 110.949 100.012 110.919C100.098 110.766 99.8867 110.808 99.8409 110.675C99.8892 110.756 99.6073 110.637 99.6531 110.771C99.576 110.741 99.6556 110.718 99.6321 110.665C99.4481 110.682 99.2718 110.542 99.0643 110.506C99.063 110.532 99.0878 110.559 99.0344 110.583L98.9364 110.447C98.8842 110.444 98.8778 110.575 98.8046 110.467C98.8033 110.493 98.8281 110.52 98.802 110.519C98.4195 110.317 97.942 110.451 97.5634 110.17C97.613 110.224 97.5608 110.222 97.5347 110.221C97.5595 110.248 97.5321 110.273 97.5309 110.299L97.3794 110.187C97.3233 110.263 97.198 110.152 97.168 110.229L97.2202 110.231C97.1381 110.306 97.2883 110.445 97.2557 110.574C97.3653 110.475 97.4556 110.768 97.5925 110.643C97.6173 110.671 97.5651 110.668 97.5638 110.694C97.6186 110.645 97.6447 110.646 97.7217 110.676C97.9292 110.712 98.031 110.77 98.2621 110.86L98.2646 110.808C98.3156 110.836 98.3156 110.836 98.3404 110.864C98.4225 110.789 98.1851 110.83 98.2672 110.755C98.313 110.889 98.63 110.825 98.6484 110.984C98.7255 111.014 98.6523 110.905 98.7293 110.935L98.7528 110.989L98.7815 110.938C98.8324 110.967 98.856 111.02 98.8547 111.046C98.8547 111.046 98.8286 111.045 98.8025 111.044C98.8521 111.099 98.9839 111.079 99.01 111.08L98.933 111.05C99.1679 111.062 99.3976 111.178 99.6351 111.137L99.6364 111.111C99.8204 111.094 99.7643 111.17 99.947 111.179C100 111.155 100.027 111.156 100.079 111.159C100.025 111.182 100.153 111.241 100.074 111.264C100.258 111.246 100.179 111.243 100.314 111.17L100.337 111.224C100.391 111.2 100.392 111.174 100.496 111.179C100.417 111.202 100.545 111.26 100.439 111.281C100.589 111.42 100.729 111.243 100.773 111.403C100.883 111.303 100.648 111.292 100.701 111.268C100.678 111.214 100.783 111.193 100.86 111.223C100.911 111.252 100.904 111.409 101.059 111.443C101.033 111.442 101.033 111.442 101.033 111.442C101.083 111.497 101.165 111.422 101.213 111.503C101.269 111.427 101.29 111.533 101.347 111.431L101.217 111.425C101.295 111.428 101.405 111.329 101.505 111.412C101.478 111.437 101.452 111.436 101.424 111.461C101.449 111.488 101.503 111.465 101.528 111.492C101.496 111.596 101.372 111.458 101.264 111.532C101.288 111.586 101.448 111.515 101.366 111.589C101.477 111.464 101.494 111.648 101.628 111.576L101.599 111.627C101.626 111.628 101.653 111.603 101.679 111.605L101.598 111.653C101.705 111.606 101.723 111.764 101.829 111.743C101.674 111.709 101.807 111.663 101.757 111.609C101.967 111.593 101.827 111.796 102.06 111.833C102.034 111.832 101.958 111.776 102.012 111.752C102.037 111.78 102.088 111.808 102.111 111.862C102.266 111.896 102.114 111.81 102.193 111.787C102.216 111.867 102.272 111.791 102.351 111.769L102.322 111.82C102.475 111.906 102.406 111.719 102.533 111.804L102.45 111.879L102.529 111.883L102.5 111.934C102.606 111.913 102.631 111.94 102.708 111.97C102.71 111.918 102.765 111.868 102.816 111.897C102.865 111.952 102.761 111.946 102.864 111.978C102.837 112.003 102.782 112.052 102.76 111.973C102.758 111.999 102.732 111.997 102.705 112.022C102.755 112.077 102.833 112.081 102.885 112.084C102.859 112.082 102.86 112.056 102.86 112.056L103.046 112.013C103.07 112.04 103.043 112.065 103.017 112.064C103.043 112.065 103.07 112.04 103.121 112.069C103.093 112.12 103.09 112.172 103.012 112.169L103.17 112.15C103.168 112.176 103.218 112.231 103.192 112.23C103.268 112.286 103.429 112.189 103.504 112.271C103.504 112.271 103.531 112.247 103.557 112.248C103.659 112.305 103.707 112.386 103.865 112.368L103.886 112.474C103.991 112.479 103.841 112.34 103.997 112.348C104.102 112.353 104.019 112.428 104.043 112.482C104.123 112.459 104.229 112.412 104.303 112.521C103.919 112.344 103.894 112.317 103.868 112.316ZM104.974 112.711C104.947 112.71 104.894 112.733 104.895 112.707C104.951 112.631 104.949 112.683 104.974 112.711ZM106.672 113.293C106.646 113.291 106.62 113.29 106.622 113.238C106.647 113.265 106.647 113.265 106.672 113.293ZM111.079 115.713C111.054 115.686 111.054 115.686 111.079 115.713V115.713ZM111.126 115.82C111.152 115.822 111.152 115.822 111.126 115.82C111.126 115.82 111.101 115.793 111.103 115.767C111.101 115.793 111.101 115.793 111.126 115.82ZM100.881 110.805C100.854 110.829 100.854 110.829 100.881 110.805V110.805Z" fill="#464646"/>
<path d="M106.465 113.281L106.466 113.253C106.439 113.252 106.439 113.252 106.465 113.281Z" fill="#464646"/>
<path d="M109.536 115.166C109.537 115.139 109.511 115.138 109.512 115.111C109.512 115.111 109.511 115.138 109.536 115.166Z" fill="#464646"/>
<path d="M111.609 116.159L111.558 116.129C111.583 116.157 111.583 116.157 111.581 116.184C111.583 116.157 111.61 116.132 111.609 116.159Z" fill="#464646"/>
<path d="M111.706 116.846L111.732 116.874L111.76 116.848C111.709 116.792 111.682 116.791 111.706 116.846Z" fill="#464646"/>
<path d="M111.495 116.335C111.466 116.387 111.492 116.389 111.544 116.418C111.599 116.367 111.546 116.365 111.495 116.335Z" fill="#464646"/>
<path d="M111.545 116.418L111.57 116.446C111.623 116.449 111.57 116.446 111.545 116.418Z" fill="#464646"/>
<path d="M111.256 115.88C111.255 115.906 111.31 115.856 111.31 115.856C111.389 115.86 111.154 115.822 111.256 115.88Z" fill="#464646"/>
<path d="M111.382 116.464L111.437 116.413L111.357 116.436L111.382 116.464Z" fill="#464646"/>
<path d="M111.165 116.163L111.215 116.219L111.241 116.22C111.216 116.192 111.191 116.164 111.165 116.163Z" fill="#464646"/>
<path d="M111.238 116.247C111.263 116.274 111.263 116.274 111.29 116.276C111.29 116.276 111.265 116.248 111.238 116.247Z" fill="#464646"/>
<path d="M111.309 116.407L111.31 116.381L111.259 116.352L111.309 116.407Z" fill="#464646"/>
<path d="M110.59 115.609L110.511 115.579C110.484 115.577 110.51 115.605 110.535 115.633C110.563 115.608 110.588 115.636 110.59 115.609Z" fill="#464646"/>
<path d="M110.651 115.902C110.653 115.876 110.653 115.876 110.654 115.849L110.598 115.9L110.651 115.902Z" fill="#464646"/>
<path d="M110.451 115.761C110.425 115.76 110.32 115.728 110.397 115.785C110.423 115.787 110.502 115.817 110.451 115.761Z" fill="#464646"/>
<path d="M109.574 114.906L109.573 114.933L109.66 114.803L109.574 114.906Z" fill="#464646"/>
<path d="M108.497 114.537C108.573 114.62 108.552 114.486 108.602 114.568C108.63 114.543 108.551 114.513 108.606 114.488C108.526 114.485 108.527 114.458 108.497 114.537Z" fill="#464646"/>
<path d="M97.0788 109.935L97.002 109.878L97.0523 109.934L97.0788 109.935Z" fill="#464646"/>
<path d="M96.9221 110.009L96.926 109.929L96.8691 110.006C96.8969 109.981 96.9234 109.982 96.9221 110.009Z" fill="#464646"/>
<path d="M105.07 112.925C105.072 112.872 105.072 112.872 105.046 112.871L105.07 112.925Z" fill="#464646"/>
<path d="M104.305 112.547L104.33 112.575L104.334 112.495L104.305 112.547Z" fill="#464646"/>
<path d="M103.603 112.41C103.629 112.411 103.656 112.412 103.708 112.442C103.629 112.411 103.635 112.304 103.603 112.41Z" fill="#464646"/>
<path d="M115.328 117.102C115.327 117.128 115.382 117.078 115.382 117.078C115.383 117.051 115.328 117.102 115.328 117.102Z" fill="#464646"/>
<path d="M115.031 116.747C114.948 116.797 115.082 116.803 115.079 116.857L115.051 116.882L115.132 116.86C115.08 116.83 115.002 116.8 115.031 116.747Z" fill="#464646"/>
<path d="M115.145 116.566C115.118 116.591 115.093 116.564 115.144 116.593C115.145 116.566 115.171 116.568 115.145 116.566Z" fill="#464646"/>
<path d="M115.096 116.487L115.149 116.49C115.176 116.465 115.151 116.437 115.178 116.438C115.125 116.435 115.123 116.462 115.096 116.487Z" fill="#464646"/>
<path d="M115.019 116.508C115.042 116.509 115.043 116.486 115.019 116.508V116.508Z" fill="#464646"/>
<path d="M115.07 116.513L115.018 116.484C115.017 116.51 114.99 116.535 115.07 116.513C115.016 116.537 115.043 116.512 115.07 116.513Z" fill="#464646"/>
<path d="M115.07 116.539C115.068 116.565 115.067 116.592 115.015 116.563C115.066 116.618 115.12 116.594 115.07 116.539Z" fill="#464646"/>
<path d="M114.927 116.767L114.926 116.793L114.952 116.794C114.925 116.82 114.954 116.768 114.927 116.767Z" fill="#464646"/>
<path d="M115.057 116.298C115.03 116.297 115.003 116.322 115.001 116.349L115.028 116.35C115.028 116.35 115.029 116.324 115.057 116.298Z" fill="#464646"/>
<path d="M114.973 116.349L114.92 116.347C114.945 116.373 114.945 116.373 114.973 116.349Z" fill="#464646"/>
<path d="M114.911 116.531L115.016 116.563L114.911 116.531Z" fill="#464646"/>
<path d="M114.933 116.139C114.986 116.142 114.989 116.088 115.016 116.089C114.99 116.062 114.964 116.06 114.911 116.058C114.937 116.059 114.936 116.086 114.933 116.139Z" fill="#464646"/>
<path d="M114.898 116.296C114.898 116.296 114.926 116.27 114.927 116.244L114.898 116.296Z" fill="#464646"/>
<path d="M114.918 116.45C114.891 116.449 114.84 116.42 114.81 116.472C114.864 116.474 114.865 116.448 114.918 116.45Z" fill="#464646"/>
<path d="M114.87 116.345L114.869 116.371C114.869 116.371 114.897 116.346 114.923 116.347L114.87 116.345Z" fill="#464646"/>
<path d="M114.84 116.345L114.867 116.347L114.841 116.318L114.84 116.345Z" fill="#464646"/>
<path d="M114.854 116.133C114.827 116.132 114.802 116.104 114.802 116.104C114.801 116.131 114.8 116.157 114.826 116.158C114.826 116.158 114.853 116.16 114.854 116.133Z" fill="#464646"/>
<path d="M114.799 116.182C114.798 116.209 114.824 116.21 114.824 116.21C114.825 116.184 114.825 116.184 114.799 116.182C114.8 116.156 114.8 116.156 114.799 116.182Z" fill="#464646"/>
<path d="M114.804 116.027L114.803 116.054C114.803 116.054 114.831 116.028 114.804 116.027Z" fill="#464646"/>
<path d="M114.877 116.189C114.877 116.189 114.851 116.187 114.825 116.186C114.851 116.187 114.85 116.213 114.877 116.189C114.876 116.214 114.877 116.189 114.877 116.189Z" fill="#464646"/>
<path d="M114.359 116.084C114.413 116.06 114.465 116.063 114.436 116.114C114.489 116.117 114.625 116.018 114.707 115.943C114.681 115.942 114.68 115.968 114.629 115.939C114.601 115.964 114.624 116.044 114.545 116.04C114.494 116.012 114.548 115.988 114.549 115.962C114.494 116.012 114.444 115.956 114.363 116.005L114.414 116.034C114.386 116.059 114.36 116.058 114.359 116.084Z" fill="#464646"/>
<path d="M114.729 116.023C114.729 116.023 114.757 115.998 114.786 115.946C114.76 115.944 114.733 115.943 114.707 115.942L114.729 116.023Z" fill="#464646"/>
<path d="M114.78 116.077C114.726 116.101 114.675 116.072 114.646 116.123C114.671 116.151 114.698 116.126 114.725 116.127C114.675 116.072 114.751 116.128 114.78 116.077L114.805 116.104C114.806 116.078 114.806 116.078 114.807 116.052C114.78 116.077 114.78 116.077 114.78 116.077C114.755 116.049 114.78 116.077 114.78 116.077L114.806 116.078L114.756 116.023C114.73 116.021 114.755 116.049 114.78 116.077Z" fill="#464646"/>
<path d="M114.707 116.47L114.734 116.471C114.733 116.498 114.706 116.497 114.679 116.496C114.706 116.497 114.733 116.498 114.734 116.471C114.735 116.445 114.793 116.367 114.793 116.367C114.765 116.393 114.737 116.418 114.707 116.47Z" fill="#464646"/>
<path d="M114.718 116.285L114.667 116.256L114.638 116.308L114.665 116.282C114.664 116.309 114.692 116.284 114.718 116.285Z" fill="#464646"/>
<path d="M114.705 115.917L114.787 115.894L114.679 115.915L114.705 115.917Z" fill="#464646"/>
<path d="M114.68 115.864L114.709 115.838L114.682 115.836L114.68 115.864Z" fill="#464646"/>
<path d="M113.552 114.416C113.581 114.365 113.611 114.287 113.556 114.337L113.527 114.388C113.553 114.39 113.553 114.39 113.552 114.416Z" fill="#464646"/>
<path d="M112.403 113.783C112.403 113.783 112.429 113.784 112.457 113.759C112.431 113.758 112.431 113.758 112.403 113.783Z" fill="#464646"/>
<path d="M110.764 113.071L110.709 113.121C110.762 113.124 110.763 113.097 110.764 113.071Z" fill="#464646"/>
<path d="M114.217 115.238C114.219 115.211 114.22 115.184 114.22 115.184C114.217 115.238 114.189 115.263 114.217 115.238Z" fill="#464646"/>
<path d="M111.744 112.912C111.716 112.911 111.716 112.911 111.715 112.938C111.716 112.911 111.744 112.912 111.744 112.912Z" fill="#464646"/>
<path d="M114.168 115.13C114.167 115.156 114.167 115.156 114.168 115.13C114.194 115.158 114.194 115.158 114.219 115.185C114.22 115.159 114.221 115.132 114.168 115.13Z" fill="#464646"/>
<path d="M108.666 112.103C108.667 112.079 108.667 112.079 108.666 112.103C108.642 112.101 108.666 112.103 108.666 112.103Z" fill="#464646"/>
<path d="M108.154 111.37L108.181 111.371C108.182 111.345 108.182 111.345 108.154 111.37Z" fill="#464646"/>
<path d="M114.377 115.768L114.35 115.767C114.376 115.795 114.376 115.795 114.377 115.768Z" fill="#464646"/>
<path d="M114.513 115.592C114.512 115.616 114.537 115.593 114.513 115.592V115.592Z" fill="#464646"/>
<path d="M109.907 112.401C109.883 112.424 109.883 112.424 109.907 112.401V112.401Z" fill="#464646"/>
<path d="M112.765 114.481C112.844 114.459 112.844 114.459 112.843 114.485L112.953 114.36L112.765 114.481Z" fill="#464646"/>
<path d="M111.097 113.22L111.095 113.273C111.014 113.321 110.99 113.267 110.986 113.346C111.098 113.194 111.114 113.405 111.225 113.279L111.223 113.331C111.223 113.331 111.223 113.331 111.196 113.33C111.191 113.435 111.305 113.257 111.328 113.31C111.327 113.336 111.326 113.363 111.326 113.363L111.404 113.366C111.404 113.366 111.403 113.393 111.377 113.391L111.454 113.421C111.481 113.397 111.534 113.373 111.534 113.373C111.533 113.399 111.508 113.372 111.507 113.398L111.561 113.374C111.558 113.427 111.506 113.424 111.48 113.423C111.42 113.577 111.533 113.399 111.553 113.531L111.501 113.529C111.469 113.632 111.497 113.607 111.493 113.686C111.494 113.66 111.528 113.504 111.58 113.506C111.579 113.533 111.605 113.534 111.631 113.535C111.602 113.586 111.629 113.587 111.655 113.589L111.599 113.665C111.651 113.667 111.652 113.641 111.706 113.617C111.73 113.645 111.702 113.696 111.673 113.747C111.723 113.802 111.704 113.644 111.781 113.674C111.805 113.727 111.857 113.73 111.937 113.708C111.934 113.76 111.909 113.732 111.882 113.757L111.935 113.734C111.935 113.734 111.934 113.76 111.908 113.759C111.934 113.76 111.963 113.709 112.015 113.711C112.07 113.662 111.981 113.867 112.088 113.82C112.087 113.846 112.061 113.845 112.033 113.87C112.138 113.875 112.112 113.874 112.219 113.826L112.215 113.905C112.219 113.826 112.324 113.805 112.378 113.782C112.379 113.755 112.406 113.731 112.408 113.704L112.486 113.708C112.485 113.734 112.459 113.733 112.431 113.758L112.457 113.759C112.456 113.785 112.401 113.835 112.375 113.834L112.404 113.783C112.35 113.807 112.297 113.83 112.268 113.881L112.294 113.882L112.267 113.907C112.267 113.907 112.267 113.907 112.293 113.909L112.237 113.985L112.264 113.96L112.287 114.04C112.392 114.019 112.527 113.946 112.63 113.978C112.576 114.001 112.548 114.052 112.493 114.102C112.523 114.025 112.416 114.072 112.391 114.045C112.416 114.072 112.362 114.096 112.362 114.096L112.467 114.101C112.412 114.151 112.438 114.152 112.437 114.178C112.52 114.077 112.542 114.157 112.595 114.16C112.567 114.185 112.54 114.209 112.515 114.182C112.484 114.285 112.676 114.111 112.644 114.215C112.644 114.215 112.646 114.188 112.618 114.213C112.67 114.216 112.694 114.269 112.64 114.293C112.69 114.348 112.791 114.432 112.873 114.357C112.873 114.357 112.765 114.43 112.737 114.455L113.085 114.289C113.005 114.337 112.865 114.514 112.787 114.51C112.786 114.536 112.784 114.563 112.836 114.565C112.838 114.539 112.92 114.464 112.946 114.466C112.889 114.568 112.917 114.517 112.886 114.62C112.887 114.594 113.022 114.522 113.022 114.522C112.996 114.52 112.912 114.621 112.886 114.62L113.045 114.575C113.019 114.574 112.937 114.649 112.934 114.701C112.962 114.676 112.958 114.755 112.984 114.756L112.987 114.704C113.01 114.757 113.199 114.635 113.249 114.69C113.222 114.715 113.087 114.787 113.111 114.841C113.19 114.819 113.433 114.673 113.537 114.678L113.51 114.703L113.588 114.707C113.481 114.754 113.242 114.821 113.136 114.868C113.133 114.921 113.108 114.893 113.133 114.921C113.106 114.946 113.079 114.944 113.053 114.943L113.102 115.024C113.156 114.974 113.206 115.029 113.261 114.98L113.132 114.947C113.186 114.897 113.373 114.828 113.395 114.907C113.368 114.932 113.26 115.006 113.233 115.004C113.261 114.98 113.312 115.008 113.311 115.034L113.258 115.032C113.256 115.084 113.39 115.012 113.36 115.089C113.359 115.116 113.303 115.192 113.33 115.167C113.386 115.091 113.631 114.893 113.711 114.87C113.711 114.87 113.678 115 113.651 115.025C113.595 115.101 113.465 115.095 113.435 115.172C113.462 115.147 113.488 115.148 113.488 115.148C113.487 115.174 113.433 115.198 113.459 115.199C113.54 115.151 113.509 115.254 113.539 115.177C113.591 115.179 113.538 115.203 113.587 115.258C113.616 115.207 113.775 115.162 113.8 115.19C113.774 115.188 113.773 115.215 113.745 115.239C113.795 115.294 113.766 115.345 113.816 115.4C113.788 115.425 113.787 115.451 113.76 115.476C113.786 115.478 113.813 115.453 113.812 115.479C113.782 115.556 113.787 115.451 113.705 115.526C113.758 115.503 113.783 115.53 113.836 115.533C113.89 115.483 113.812 115.479 113.76 115.476C113.842 115.402 113.974 115.382 114.077 115.413C114.128 115.442 114.022 115.463 114.048 115.464C114.095 115.572 114.26 115.422 114.253 115.553C114.223 115.63 114.145 115.626 114.091 115.65C114.04 115.621 114.095 115.572 114.07 115.544L114.068 115.596C114.042 115.595 114.016 115.594 114.017 115.568C113.988 115.619 114.114 115.73 114.11 115.808C114.136 115.81 114.162 115.811 114.189 115.786L114.165 115.759C114.193 115.708 114.269 115.764 114.271 115.711C114.324 115.714 114.402 115.718 114.399 115.77L114.345 115.82C114.372 115.795 114.373 115.769 114.347 115.768C114.399 115.77 114.289 115.896 114.396 115.849L114.424 115.798C114.476 115.8 114.581 115.805 114.578 115.858C114.633 115.808 114.552 115.856 114.634 115.782C114.552 115.856 114.587 115.674 114.504 115.775C114.586 115.701 114.508 115.697 114.564 115.621C114.536 115.646 114.535 115.672 114.512 115.618L114.485 115.617C114.484 115.643 114.484 115.643 114.458 115.642C114.405 115.665 114.355 115.611 114.329 115.609C114.33 115.583 114.355 115.611 114.382 115.586L114.33 115.583C114.384 115.559 114.387 115.481 114.438 115.51L114.414 115.482C114.416 115.43 114.417 115.404 114.391 115.402C114.393 115.376 114.313 115.399 114.366 115.375L114.289 115.345C114.24 115.29 114.109 115.284 114.168 115.155C114.142 115.154 114.117 115.127 114.092 115.099L114.12 115.074C114.095 115.047 114.099 114.968 114.045 114.992C114.129 114.891 113.973 114.857 113.95 114.803L113.895 114.853C113.87 114.826 113.845 114.798 113.793 114.796L113.738 114.846C113.686 114.843 113.717 114.74 113.668 114.685C113.694 114.686 113.694 114.686 113.693 114.712C113.751 114.584 113.512 114.651 113.544 114.547C113.518 114.546 113.518 114.546 113.519 114.52L113.52 114.494C113.519 114.52 113.519 114.52 113.519 114.52C113.519 114.52 113.494 114.492 113.468 114.491L113.523 114.441C113.524 114.415 113.497 114.44 113.468 114.491C113.442 114.49 113.442 114.49 113.416 114.489C113.472 114.413 113.364 114.486 113.421 114.384C113.367 114.407 113.319 114.326 113.237 114.401C113.237 114.401 113.238 114.375 113.263 114.402C113.264 114.376 113.239 114.349 113.213 114.347L113.268 114.298L113.161 114.345C113.19 114.294 113.191 114.268 113.245 114.244C113.113 114.264 113.194 114.215 113.062 114.235L113.089 114.21C113.063 114.209 112.984 114.231 113.012 114.18C113.044 114.077 112.837 114.014 112.819 113.856C112.734 113.983 112.823 113.777 112.741 113.852C112.768 113.827 112.769 113.801 112.797 113.776C112.72 113.746 112.776 113.67 112.669 113.717C112.696 113.692 112.722 113.694 112.723 113.667L112.697 113.666C112.699 113.64 112.725 113.641 112.751 113.642C112.7 113.614 112.618 113.688 112.536 113.763C112.538 113.711 112.538 113.711 112.459 113.733C112.46 113.707 112.489 113.656 112.513 113.683C112.489 113.656 112.441 113.549 112.385 113.625C112.387 113.598 112.361 113.597 112.361 113.597C112.336 113.57 112.337 113.543 112.286 113.515L112.285 113.541C112.203 113.616 112.233 113.538 112.208 113.511C112.187 113.405 112.156 113.508 112.135 113.402L112.106 113.453C112.023 113.554 112.085 113.347 112.007 113.344L112.005 113.37C111.952 113.393 112.067 113.189 112.042 113.162L112.068 113.163C112.047 113.057 112.013 113.213 111.961 113.21C111.99 113.159 112.043 113.135 112.018 113.108C112.021 113.056 111.833 113.151 111.864 113.048C111.863 113.074 111.834 113.125 111.808 113.124C111.756 113.121 111.79 112.966 111.708 113.04L111.709 113.014C111.657 113.011 111.605 113.009 111.551 113.033C111.638 112.853 111.342 113.022 111.456 112.844L111.379 112.814L111.38 112.788C111.33 112.733 111.302 112.784 111.248 112.808C111.249 112.782 111.249 112.782 111.276 112.783C111.227 112.702 111.201 112.7 111.094 112.748L111.123 112.697C111.095 112.722 111.052 112.536 110.947 112.557C110.947 112.557 110.948 112.531 110.974 112.532C110.842 112.552 110.856 112.264 110.715 112.467L110.636 112.489C110.712 112.545 110.58 112.565 110.577 112.617C110.551 112.616 110.53 112.51 110.581 112.539C110.665 112.438 110.507 112.457 110.563 112.381C110.409 112.32 110.311 112.184 110.157 112.124L110.125 112.228L110.075 112.199C110.076 112.173 110.078 112.121 110.129 112.149C110.132 112.097 110.05 112.172 110.05 112.172C110 112.117 110.132 112.097 110.107 112.07L110.081 112.068C110.054 112.093 110.026 112.118 109.974 112.115C109.949 112.088 109.977 112.063 109.978 112.037C109.978 112.037 109.978 112.037 109.952 112.036L109.901 112.007L109.897 112.085C109.843 112.109 109.846 112.057 109.842 112.135C109.849 112.004 109.64 111.994 109.616 111.941C109.563 111.964 109.511 111.962 109.486 111.934C109.485 111.96 109.455 112.038 109.43 112.01C109.516 111.857 109.383 111.903 109.388 111.798C109.384 111.877 109.259 111.766 109.278 111.898C109.253 111.87 109.307 111.847 109.283 111.793C109.178 111.814 109.106 111.679 109.001 111.674C109 111.7 108.999 111.727 108.972 111.751L108.952 111.619C108.926 111.618 108.894 111.721 108.872 111.642C108.871 111.668 108.87 111.694 108.844 111.693C108.669 111.527 108.401 111.645 108.256 111.401C108.28 111.455 108.254 111.454 108.227 111.453C108.226 111.479 108.199 111.504 108.197 111.53L108.124 111.421C108.094 111.499 108.021 111.39 107.991 111.467L108.017 111.468C107.961 111.544 108.007 111.678 107.975 111.808C108.058 111.707 108.044 111.995 108.155 111.869C108.153 111.895 108.127 111.894 108.126 111.92C108.155 111.869 108.181 111.87 108.206 111.898C108.31 111.903 108.332 111.983 108.434 112.04L108.437 111.988C108.461 112.015 108.461 112.015 108.46 112.041C108.516 111.965 108.383 112.011 108.439 111.935C108.433 112.066 108.619 111.997 108.587 112.126C108.613 112.128 108.591 112.048 108.642 112.076L108.64 112.103L108.669 112.052C108.694 112.079 108.693 112.105 108.664 112.156L108.638 112.155C108.661 112.209 108.742 112.16 108.741 112.186L108.716 112.159C108.82 112.164 108.947 112.249 109.054 112.202L109.055 112.175C109.161 112.154 109.105 112.23 109.183 112.234C109.211 112.209 109.237 112.211 109.263 112.212C109.236 112.237 109.285 112.292 109.232 112.315C109.337 112.294 109.285 112.292 109.393 112.218L109.391 112.271C109.418 112.246 109.446 112.221 109.472 112.222C109.418 112.246 109.468 112.301 109.414 112.324C109.46 112.458 109.574 112.28 109.566 112.437C109.649 112.336 109.519 112.329 109.545 112.331C109.547 112.278 109.627 112.256 109.626 112.282C109.651 112.31 109.591 112.464 109.668 112.494C109.668 112.494 109.668 112.494 109.642 112.493C109.639 112.545 109.721 112.47 109.717 112.549C109.773 112.473 109.768 112.578 109.799 112.474L109.721 112.47C109.773 112.473 109.857 112.372 109.879 112.452C109.878 112.478 109.826 112.476 109.824 112.502C109.823 112.528 109.876 112.504 109.875 112.531C109.819 112.607 109.797 112.527 109.716 112.575C109.713 112.628 109.823 112.528 109.74 112.629C109.823 112.528 109.789 112.684 109.897 112.61L109.952 112.561C109.952 112.561 109.98 112.536 110.006 112.537L109.951 112.587C110.006 112.537 109.999 112.668 110.053 112.644C109.976 112.614 110.083 112.567 110.059 112.513C110.191 112.494 110.051 112.67 110.155 112.702C110.128 112.7 110.131 112.648 110.158 112.623C110.183 112.651 110.182 112.677 110.181 112.703C110.258 112.733 110.209 112.652 110.237 112.627C110.233 112.706 110.289 112.63 110.316 112.605L110.288 112.656C110.336 112.737 110.371 112.555 110.419 112.636L110.339 112.684L110.391 112.687L110.362 112.738C110.416 112.714 110.44 112.742 110.465 112.769C110.468 112.717 110.523 112.667 110.547 112.695C110.545 112.747 110.493 112.744 110.545 112.747C110.517 112.772 110.489 112.823 110.493 112.744L110.438 112.794C110.435 112.847 110.489 112.823 110.514 112.85C110.514 112.85 110.514 112.85 110.515 112.824L110.622 112.777C110.621 112.803 110.594 112.802 110.593 112.828C110.619 112.829 110.647 112.805 110.647 112.805C110.618 112.856 110.591 112.881 110.563 112.905L110.643 112.883C110.641 112.909 110.639 112.962 110.639 112.962C110.662 113.015 110.772 112.916 110.794 112.995C110.794 112.995 110.82 112.997 110.822 112.971C110.873 112.999 110.869 113.078 110.948 113.055L110.917 113.159C110.969 113.161 110.95 113.029 111.027 113.059C111.079 113.062 110.997 113.137 110.995 113.163C111.049 113.139 111.13 113.091 111.126 113.169C111.123 113.222 111.123 113.222 111.097 113.22ZM111.608 113.481C111.581 113.48 111.554 113.505 111.555 113.479C111.61 113.429 111.609 113.455 111.608 113.481ZM112.397 113.914C112.371 113.913 112.371 113.913 112.373 113.886C112.399 113.888 112.399 113.888 112.397 113.914ZM114.387 115.481C114.389 115.455 114.389 115.455 114.387 115.481V115.481ZM114.385 115.533C114.411 115.535 114.411 115.535 114.385 115.533L114.386 115.507C114.385 115.533 114.385 115.533 114.385 115.533ZM109.928 111.982C109.901 112.007 109.902 111.981 109.928 111.982V111.982Z" fill="#464646"/>
<path d="M112.27 113.907C112.27 113.907 112.271 113.88 112.298 113.881C112.271 113.88 112.27 113.907 112.27 113.907Z" fill="#464646"/>
<path d="M110.792 113.075L110.793 113.048L110.765 113.074L110.792 113.075Z" fill="#464646"/>
<path d="M114.642 115.73L114.616 115.702L114.614 115.729L114.642 115.73Z" fill="#464646"/>
<path d="M114.458 116.167L114.51 116.169C114.485 116.142 114.459 116.141 114.458 116.167Z" fill="#464646"/>
<path d="M114.476 115.852C114.422 115.876 114.449 115.877 114.473 115.905C114.553 115.882 114.502 115.853 114.476 115.852Z" fill="#464646"/>
<path d="M114.498 115.907C114.498 115.907 114.496 115.931 114.498 115.907C114.521 115.908 114.496 115.931 114.498 115.907Z" fill="#464646"/>
<path d="M114.463 115.592C114.462 115.618 114.517 115.568 114.517 115.568C114.572 115.544 114.385 115.561 114.463 115.592Z" fill="#464646"/>
<path d="M114.34 115.951L114.395 115.927L114.342 115.924L114.34 115.951Z" fill="#464646"/>
<path d="M114.268 115.792L114.265 115.845L114.292 115.847C114.294 115.793 114.296 115.766 114.268 115.792Z" fill="#464646"/>
<path d="M114.292 115.818L114.318 115.847C114.318 115.847 114.32 115.82 114.292 115.818Z" fill="#464646"/>
<path d="M114.049 115.44L113.998 115.411C113.971 115.41 113.97 115.436 113.996 115.437C114.021 115.465 114.047 115.466 114.049 115.44Z" fill="#464646"/>
<path d="M113.987 115.647C113.989 115.62 114.015 115.621 114.016 115.595L113.934 115.644L113.987 115.647Z" fill="#464646"/>
<path d="M113.887 115.563C113.861 115.561 113.807 115.559 113.833 115.587C113.859 115.588 113.913 115.591 113.887 115.563Z" fill="#464646"/>
<path d="M113.601 115.024L113.628 115.026L113.711 114.95L113.601 115.024Z" fill="#464646"/>
<path d="M113.007 114.81C113.004 114.863 113.089 114.761 113.087 114.814C113.115 114.789 113.089 114.761 113.116 114.762C113.063 114.759 113.064 114.733 113.007 114.81Z" fill="#464646"/>
<path d="M108.082 111.265L108.056 111.236L108.055 111.263L108.082 111.265Z" fill="#464646"/>
<path d="M111.571 113.662C111.599 113.637 111.6 113.61 111.574 113.609L111.571 113.662Z" fill="#464646"/>
<path d="M111.274 113.388L111.273 113.414L111.303 113.336L111.274 113.388Z" fill="#464646"/>
<path d="M110.939 113.292C110.939 113.292 110.965 113.293 110.992 113.294C110.939 113.292 110.969 113.213 110.939 113.292Z" fill="#464646"/>
<path d="M118.634 115.822C118.633 115.848 118.686 115.851 118.686 115.851C118.689 115.798 118.634 115.822 118.634 115.822Z" fill="#464646"/>
<path d="M118.478 115.339L118.505 115.34L118.428 115.283L118.478 115.339Z" fill="#464646"/>
<path d="M118.34 114.941C118.258 115.015 118.412 115.076 118.409 115.154L118.381 115.179L118.46 115.183C118.437 115.103 118.336 115.019 118.34 114.941Z" fill="#464646"/>
<path d="M118.433 114.656C118.405 114.681 118.382 114.626 118.457 114.71C118.457 114.71 118.457 114.71 118.458 114.683C118.458 114.683 118.432 114.682 118.433 114.656Z" fill="#464646"/>
<path d="M118.459 114.683C118.482 114.737 118.46 114.657 118.459 114.683V114.683Z" fill="#464646"/>
<path d="M118.333 114.521L118.384 114.551C118.386 114.524 118.362 114.47 118.387 114.497C118.363 114.443 118.335 114.468 118.333 114.521Z" fill="#464646"/>
<path d="M118.232 114.488L118.257 114.515C118.283 114.517 118.258 114.489 118.232 114.488Z" fill="#464646"/>
<path d="M118.329 114.546L118.279 114.491C118.278 114.517 118.252 114.516 118.304 114.518C118.251 114.542 118.277 114.543 118.329 114.546Z" fill="#464646"/>
<path d="M118.329 114.598C118.327 114.625 118.325 114.678 118.273 114.649C118.349 114.733 118.405 114.682 118.329 114.598Z" fill="#464646"/>
<path d="M118.233 114.959L118.231 115.013L118.282 115.042C118.257 115.014 118.261 114.934 118.233 114.959Z" fill="#464646"/>
<path d="M118.167 114.17C118.14 114.168 118.138 114.221 118.111 114.22L118.163 114.249C118.164 114.223 118.14 114.168 118.167 114.17Z" fill="#464646"/>
<path d="M118.115 114.221L118.037 114.19C118.087 114.246 118.114 114.247 118.115 114.221Z" fill="#464646"/>
<path d="M118.151 114.539L118.255 114.598L118.126 114.511L118.151 114.539Z" fill="#464646"/>
<path d="M117.924 113.821C117.977 113.824 117.955 113.742 117.98 113.771C117.955 113.742 117.901 113.74 117.849 113.71C117.901 113.74 117.9 113.767 117.924 113.821Z" fill="#464646"/>
<path d="M117.77 113.706C117.796 113.707 117.823 113.708 117.848 113.736C117.823 113.708 117.796 113.707 117.77 113.706Z" fill="#464646"/>
<path d="M117.99 114.086C117.99 114.086 118.018 114.06 118.02 114.007L117.99 114.086Z" fill="#464646"/>
<path d="M117.99 114.084C117.965 114.056 117.966 114.029 117.966 114.029C117.966 114.029 117.965 114.056 117.99 114.084Z" fill="#464646"/>
<path d="M118.108 114.352C118.056 114.323 117.978 114.292 118.001 114.373C118.027 114.375 118.03 114.321 118.108 114.352Z" fill="#464646"/>
<path d="M117.958 114.16L117.982 114.215C117.982 114.215 118.01 114.189 118.037 114.191L117.958 114.16Z" fill="#464646"/>
<path d="M117.932 114.133L117.958 114.161L117.932 114.133Z" fill="#464646"/>
<path d="M117.816 113.814C117.763 113.811 117.765 113.785 117.739 113.757C117.765 113.785 117.789 113.839 117.814 113.867C117.814 113.867 117.842 113.842 117.816 113.814Z" fill="#464646"/>
<path d="M117.79 113.864C117.788 113.891 117.815 113.892 117.842 113.894C117.815 113.892 117.815 113.892 117.79 113.864C117.79 113.864 117.763 113.863 117.79 113.864Z" fill="#464646"/>
<path d="M117.148 113.62C117.201 113.597 117.279 113.627 117.275 113.706C117.352 113.736 117.465 113.583 117.496 113.479C117.469 113.504 117.469 113.504 117.391 113.474C117.39 113.5 117.436 113.634 117.359 113.604C117.283 113.548 117.335 113.55 117.311 113.497C117.281 113.574 117.154 113.489 117.099 113.539L117.177 113.569C117.174 113.622 117.148 113.62 117.148 113.62Z" fill="#464646"/>
<path d="M117.57 113.594C117.57 113.594 117.572 113.54 117.575 113.487C117.523 113.458 117.495 113.483 117.495 113.483C117.52 113.511 117.544 113.566 117.57 113.594Z" fill="#464646"/>
<path d="M117.667 113.698C117.614 113.722 117.539 113.666 117.535 113.744C117.584 113.798 117.613 113.748 117.663 113.776C117.563 113.693 117.714 113.805 117.667 113.698C117.691 113.725 117.691 113.725 117.716 113.753C117.717 113.727 117.693 113.699 117.694 113.673C117.693 113.699 117.693 113.699 117.667 113.698C117.693 113.699 117.667 113.698 117.667 113.698C117.668 113.672 117.667 113.698 117.667 113.698L117.694 113.673L117.594 113.59C117.592 113.642 117.616 113.67 117.667 113.698Z" fill="#464646"/>
<path d="M117.842 114.389C117.843 114.365 117.819 114.364 117.842 114.389V114.389Z" fill="#464646"/>
<path d="M117.845 114.34C117.845 114.34 117.871 114.341 117.896 114.368C117.895 114.394 117.869 114.393 117.869 114.393C117.895 114.394 117.946 114.423 117.922 114.37C117.899 114.316 117.93 114.213 117.929 114.239C117.876 114.236 117.849 114.261 117.845 114.34Z" fill="#464646"/>
<path d="M117.76 114.02C117.735 113.992 117.709 113.965 117.656 113.962L117.652 114.042L117.68 114.017C117.704 114.071 117.733 114.019 117.76 114.02Z" fill="#464646"/>
<path d="M117.499 113.455L117.553 113.431L117.447 113.425L117.499 113.455Z" fill="#464646"/>
<path d="M117.397 113.345L117.451 113.321L117.398 113.319L117.397 113.345Z" fill="#464646"/>
<path d="M110.353 110.271C110.354 110.247 110.329 110.27 110.353 110.271V110.271Z" fill="#464646"/>
<path d="M114.595 111.242C114.571 111.188 114.577 111.081 114.547 111.133L114.518 111.185C114.571 111.188 114.57 111.214 114.595 111.242Z" fill="#464646"/>
<path d="M112.25 110.575C112.276 110.576 112.303 110.577 112.304 110.551C112.304 110.551 112.277 110.55 112.25 110.575Z" fill="#464646"/>
<path d="M112.137 110.777L112.087 110.722C112.113 110.723 112.112 110.749 112.137 110.777Z" fill="#464646"/>
<path d="M108.906 109.86L108.85 109.91C108.903 109.913 108.878 109.885 108.906 109.86Z" fill="#464646"/>
<path d="M116.296 112.374C116.272 112.321 116.246 112.319 116.247 112.293C116.244 112.346 116.267 112.426 116.296 112.374Z" fill="#464646"/>
<path d="M110.413 109.67C110.386 109.668 110.386 109.668 110.384 109.696C110.412 109.697 110.413 109.67 110.413 109.67Z" fill="#464646"/>
<path d="M116.142 112.234C116.194 112.263 116.219 112.291 116.245 112.319C116.221 112.265 116.197 112.21 116.142 112.234Z" fill="#464646"/>
<path d="M116.998 112.933C117.021 112.958 116.998 112.933 116.998 112.933V112.933Z" fill="#464646"/>
<path d="M117.023 112.986C117.023 112.986 117.025 112.958 116.998 112.957C116.998 112.957 116.998 112.957 117.023 112.986Z" fill="#464646"/>
<path d="M117.022 112.958C117.045 112.959 117.044 112.982 117.022 112.958C117.044 112.982 117.045 112.959 117.022 112.958Z" fill="#464646"/>
<path d="M116.974 112.906C117.001 112.907 117 112.934 117 112.934C117 112.934 116.973 112.933 116.974 112.906Z" fill="#464646"/>
<path d="M113.519 111.37C113.6 111.321 113.599 111.347 113.624 111.375L113.658 111.218L113.519 111.37Z" fill="#464646"/>
<path d="M109.606 110.025L109.654 110.106C109.547 110.153 109.497 110.098 109.518 110.204C109.578 110.05 109.803 110.27 109.863 110.116L109.886 110.17C109.86 110.168 109.86 110.168 109.86 110.168C109.933 110.277 109.97 110.069 110.072 110.126C110.097 110.154 110.121 110.181 110.094 110.206L110.2 110.185C110.226 110.186 110.198 110.211 110.172 110.21L110.328 110.244C110.355 110.219 110.408 110.195 110.435 110.196C110.459 110.224 110.408 110.195 110.407 110.221L110.513 110.2C110.536 110.254 110.457 110.276 110.406 110.248C110.423 110.432 110.485 110.225 110.61 110.363L110.531 110.359C110.552 110.465 110.606 110.441 110.68 110.523C110.681 110.497 110.559 110.334 110.664 110.313C110.689 110.34 110.715 110.341 110.769 110.318C110.74 110.369 110.792 110.371 110.843 110.4L110.838 110.505C110.916 110.509 110.919 110.456 110.972 110.433C111.049 110.463 111.021 110.514 111.017 110.592C111.119 110.65 110.97 110.485 111.1 110.492C111.176 110.548 111.256 110.525 111.386 110.532C111.436 110.587 111.357 110.583 111.382 110.61L111.463 110.562C111.489 110.563 111.462 110.588 111.462 110.588C111.514 110.591 111.492 110.511 111.57 110.515C111.626 110.439 111.667 110.677 111.8 110.631C111.825 110.658 111.771 110.682 111.77 110.708C111.928 110.69 111.902 110.688 112.035 110.642L112.109 110.725C112.061 110.644 112.168 110.596 112.273 110.575C112.249 110.548 112.25 110.522 112.251 110.495L112.382 110.502C112.38 110.528 112.379 110.554 112.326 110.578L112.352 110.579C112.375 110.633 112.348 110.658 112.294 110.681C112.296 110.655 112.27 110.654 112.271 110.628C112.216 110.677 112.189 110.702 112.16 110.753C112.16 110.753 112.186 110.755 112.212 110.756L112.185 110.781C112.185 110.781 112.211 110.782 112.238 110.757L112.233 110.862L112.261 110.837L112.386 110.948C112.519 110.902 112.655 110.804 112.836 110.839C112.781 110.889 112.779 110.941 112.749 111.018C112.728 110.912 112.618 111.012 112.543 110.956C112.594 110.985 112.566 111.009 112.54 111.008L112.724 110.991C112.695 111.042 112.748 111.045 112.771 111.098C112.804 110.969 112.93 111.054 112.982 111.056C112.98 111.109 112.926 111.132 112.875 111.103C112.923 111.211 113.037 111.006 113.084 111.114C113.058 111.112 113.059 111.086 113.032 111.111C113.086 111.087 113.186 111.171 113.133 111.195L113.107 111.193C113.208 111.251 113.466 111.342 113.548 111.268C113.548 111.268 113.464 111.368 113.463 111.395L113.84 111.177C113.784 111.253 113.746 111.487 113.616 111.481C113.641 111.508 113.665 111.536 113.744 111.54C113.719 111.512 113.75 111.409 113.802 111.411C113.822 111.543 113.824 111.491 113.872 111.598C113.847 111.571 113.958 111.445 114.008 111.474C113.981 111.499 113.95 111.602 113.924 111.601L114.11 111.531C114.058 111.529 114.053 111.633 114.05 111.686C114.052 111.66 114.152 111.743 114.178 111.745L114.155 111.691C114.255 111.775 114.369 111.596 114.497 111.655C114.469 111.68 114.36 111.78 114.409 111.835C114.464 111.785 114.734 111.614 114.865 111.621L114.862 111.673L114.966 111.678C114.858 111.752 114.592 111.844 114.459 111.89C114.483 111.943 114.456 111.942 114.507 111.971C114.505 112.023 114.428 111.993 114.428 111.993C114.479 112.022 114.528 112.077 114.579 112.105C114.609 112.028 114.736 112.113 114.792 112.037L114.584 112.001C114.614 111.923 114.827 111.855 114.928 111.939C114.925 111.991 114.817 112.065 114.815 112.091C114.843 112.066 114.946 112.097 114.945 112.123L114.866 112.119C114.916 112.174 115.025 112.075 115.045 112.207C115.07 112.234 115.065 112.339 115.092 112.314C115.097 112.21 115.267 111.955 115.348 111.907C115.348 111.907 115.418 112.068 115.416 112.12C115.412 112.199 115.254 112.217 115.25 112.296C115.278 112.271 115.304 112.272 115.33 112.273C115.355 112.301 115.275 112.323 115.326 112.352C115.382 112.276 115.426 112.436 115.407 112.303C115.484 112.333 115.456 112.358 115.533 112.388C115.536 112.336 115.722 112.266 115.773 112.295C115.746 112.32 115.745 112.346 115.745 112.346C115.845 112.43 115.894 112.511 115.994 112.595C115.993 112.621 116.016 112.674 115.989 112.699C116.015 112.701 116.043 112.676 116.067 112.703C116.088 112.809 115.992 112.647 115.986 112.752C116.014 112.727 116.117 112.758 116.169 112.761C116.199 112.683 116.069 112.677 116.018 112.648C116.1 112.574 116.233 112.528 116.387 112.588C116.489 112.645 116.383 112.666 116.409 112.667C116.559 112.806 116.673 112.628 116.742 112.815C116.737 112.92 116.659 112.916 116.63 112.967C116.553 112.937 116.557 112.858 116.507 112.803L116.529 112.883C116.503 112.882 116.426 112.852 116.428 112.826C116.424 112.904 116.678 113.048 116.749 113.209C116.775 113.21 116.826 113.239 116.855 113.188L116.804 113.159C116.808 113.081 116.934 113.166 116.911 113.112C116.988 113.142 117.092 113.147 117.14 113.228L117.084 113.304C117.112 113.279 117.062 113.224 117.036 113.223C117.088 113.226 117.054 113.381 117.16 113.36L117.164 113.282C117.241 113.312 117.371 113.318 117.394 113.398C117.424 113.321 117.368 113.397 117.399 113.293C117.342 113.395 117.25 113.129 117.216 113.284C117.249 113.155 117.169 113.177 117.174 113.072C117.147 113.097 117.172 113.125 117.122 113.07L117.096 113.068C117.095 113.095 117.095 113.095 117.093 113.121C117.014 113.143 116.939 113.061 116.887 113.058C116.862 113.031 116.913 113.06 116.916 113.007L116.838 113.003C116.866 112.952 116.818 112.871 116.921 112.902L116.845 112.846C116.822 112.793 116.772 112.738 116.721 112.709C116.696 112.682 116.592 112.676 116.644 112.679L116.516 112.62C116.416 112.537 116.234 112.501 116.164 112.34C116.113 112.312 116.061 112.309 116.011 112.254L116.04 112.203C115.989 112.174 115.915 112.066 115.862 112.09C115.894 111.96 115.636 111.895 115.562 111.812L115.507 111.862C115.457 111.807 115.379 111.803 115.302 111.773L115.273 111.824C115.169 111.819 115.123 111.686 115.021 111.628C115.049 111.604 115.073 111.631 115.072 111.657C115.029 111.471 114.763 111.563 114.691 111.429C114.639 111.426 114.64 111.4 114.614 111.399C114.615 111.372 114.589 111.371 114.59 111.345C114.589 111.371 114.589 111.371 114.614 111.399C114.588 111.397 114.563 111.37 114.511 111.367L114.539 111.316C114.515 111.289 114.487 111.314 114.485 111.366C114.459 111.365 114.432 111.363 114.432 111.363C114.464 111.26 114.329 111.332 114.334 111.227C114.281 111.251 114.154 111.166 114.071 111.267C114.072 111.241 114.072 111.241 114.098 111.242C114.073 111.215 114.023 111.186 113.996 111.185L114.026 111.107L113.893 111.153C113.87 111.1 113.846 111.046 113.926 111.024C113.768 111.042 113.821 111.019 113.664 111.037L113.692 110.986C113.64 110.983 113.56 111.006 113.563 110.953C113.517 110.82 113.154 110.75 112.979 110.584C112.972 110.741 112.906 110.475 112.849 110.577C112.85 110.551 112.827 110.497 112.879 110.5C112.748 110.494 112.727 110.388 112.62 110.435C112.622 110.409 112.675 110.385 112.649 110.384C112.649 110.384 112.596 110.407 112.597 110.381C112.598 110.355 112.624 110.356 112.65 110.358C112.521 110.325 112.49 110.428 112.434 110.504C112.384 110.449 112.358 110.448 112.303 110.498C112.305 110.472 112.281 110.418 112.359 110.422C112.309 110.393 112.13 110.306 112.1 110.383C112.101 110.357 112.049 110.354 112.023 110.353C111.946 110.323 111.92 110.322 111.843 110.292L111.867 110.319C111.785 110.394 111.789 110.315 111.711 110.312C111.559 110.199 111.631 110.334 111.507 110.197L111.505 110.249C111.446 110.377 111.379 110.138 111.274 110.159L111.297 110.213C111.218 110.235 111.203 109.998 111.178 109.97C111.179 109.944 111.204 109.972 111.232 109.947C111.132 109.837 111.176 110.023 111.072 109.992C111.075 109.939 111.13 109.889 111.079 109.861C111.055 109.807 110.84 109.928 110.767 109.819C110.766 109.845 110.789 109.899 110.737 109.896C110.659 109.893 110.589 109.705 110.48 109.805L110.481 109.779C110.429 109.776 110.298 109.77 110.244 109.82C110.254 109.61 109.878 109.802 109.939 109.621L109.758 109.586L109.759 109.56C109.658 109.502 109.603 109.552 109.549 109.576C109.524 109.548 109.551 109.55 109.552 109.523C109.399 109.437 109.399 109.437 109.214 109.481L109.216 109.428C109.163 109.452 109.015 109.261 108.831 109.278C108.831 109.278 108.833 109.252 108.859 109.253C108.649 109.269 108.507 108.947 108.367 109.15L108.235 109.17C108.389 109.23 108.179 109.246 108.228 109.301C108.176 109.299 108.103 109.19 108.181 109.194L108.18 109.22C108.237 109.118 108.001 109.132 108.031 109.055C107.748 108.963 107.467 108.818 107.21 108.726L107.205 108.831L107.102 108.8C107.077 108.772 107.08 108.72 107.157 108.75C107.133 108.696 107.026 108.744 107.025 108.77C106.898 108.685 107.107 108.695 107.082 108.668L107.03 108.665L107.029 108.691C106.975 108.715 106.948 108.74 106.871 108.71C106.82 108.681 106.873 108.657 106.849 108.63C106.849 108.63 106.849 108.63 106.822 108.629L106.695 108.57L106.717 108.65C106.663 108.673 106.614 108.618 106.636 108.698C106.591 108.539 106.2 108.519 106.176 108.466C106.097 108.488 106.02 108.458 105.917 108.427C105.942 108.454 105.912 108.531 105.835 108.501C105.921 108.348 105.709 108.39 105.689 108.258C105.71 108.364 105.457 108.194 105.502 108.354C105.451 108.325 105.53 108.303 105.481 108.248C105.297 108.265 105.148 108.1 104.94 108.064C104.939 108.09 104.964 108.118 104.91 108.141L104.838 108.006C104.786 108.004 104.755 108.107 104.707 108.026C104.705 108.052 104.704 108.079 104.678 108.077C104.323 107.85 103.875 107.907 103.55 107.602C103.6 107.657 103.548 107.655 103.522 107.653C103.546 107.681 103.493 107.704 103.492 107.731L103.367 107.593C103.311 107.669 103.187 107.532 103.157 107.609L103.21 107.612C103.101 107.685 103.224 107.849 103.193 107.952C103.301 107.879 103.339 108.169 103.527 108.073C103.552 108.101 103.5 108.098 103.498 108.125C103.553 108.075 103.579 108.076 103.655 108.132C103.861 108.195 103.937 108.251 104.141 108.366L104.143 108.314C104.194 108.342 104.193 108.368 104.219 108.37C104.301 108.295 104.091 108.311 104.173 108.236C104.193 108.368 104.507 108.358 104.501 108.489C104.578 108.519 104.505 108.41 104.582 108.44L104.579 108.492L104.608 108.441C104.659 108.47 104.656 108.522 104.655 108.549C104.655 108.549 104.629 108.547 104.603 108.546C104.652 108.601 104.784 108.581 104.809 108.609L104.759 108.554C104.967 108.59 105.197 108.706 105.407 108.69L105.408 108.664C105.565 108.672 105.51 108.722 105.691 108.757C105.745 108.733 105.771 108.734 105.822 108.763C105.768 108.787 105.87 108.844 105.817 108.868C105.999 108.877 105.922 108.847 106.057 108.775L106.054 108.827C106.108 108.803 106.109 108.777 106.213 108.782C106.134 108.805 106.235 108.862 106.156 108.885C106.279 109.048 106.444 108.872 106.463 109.031C106.572 108.931 106.337 108.92 106.391 108.896C106.367 108.842 106.499 108.823 106.524 108.85C106.575 108.879 106.567 109.036 106.696 109.069C106.67 109.067 106.67 109.067 106.67 109.067C106.72 109.122 106.776 109.046 106.824 109.127C106.88 109.051 106.901 109.157 106.959 109.055L106.828 109.049C106.906 109.053 107.016 108.953 107.116 109.037C107.089 109.062 107.063 109.06 107.036 109.085C107.06 109.113 107.114 109.089 107.139 109.116C107.107 109.22 106.983 109.083 106.876 109.13C106.9 109.183 107.034 109.111 106.978 109.187C107.088 109.088 107.106 109.246 107.241 109.174L107.212 109.225C107.238 109.226 107.265 109.201 107.291 109.203L107.211 109.251C107.318 109.204 107.336 109.362 107.416 109.34C107.26 109.306 107.393 109.26 107.37 109.207C107.58 109.191 107.413 109.392 107.647 109.43C107.62 109.429 107.545 109.373 107.598 109.349C107.623 109.376 107.674 109.405 107.697 109.459C107.827 109.491 107.7 109.406 107.78 109.384C107.802 109.464 107.858 109.388 107.938 109.366L107.909 109.417C108.062 109.503 107.992 109.316 108.119 109.401L108.038 109.449L108.116 109.453L108.088 109.504C108.193 109.483 108.218 109.511 108.269 109.539C108.272 109.487 108.326 109.437 108.377 109.466C108.401 109.519 108.323 109.516 108.426 109.547C108.398 109.572 108.344 109.622 108.321 109.542C108.32 109.568 108.294 109.567 108.267 109.592C108.316 109.647 108.394 109.65 108.421 109.652C108.394 109.65 108.396 109.624 108.396 109.624L108.555 109.579C108.58 109.607 108.552 109.632 108.526 109.631C108.552 109.632 108.58 109.607 108.632 109.61C108.603 109.661 108.601 109.713 108.522 109.709L108.68 109.691C108.679 109.717 108.729 109.772 108.703 109.77C108.778 109.827 108.914 109.728 109.014 109.812C109.014 109.812 109.042 109.787 109.068 109.788C109.171 109.82 109.219 109.901 109.351 109.881L109.372 109.987C109.477 109.992 109.326 109.853 109.483 109.861C109.587 109.866 109.505 109.941 109.53 109.968C109.583 109.945 109.718 109.873 109.791 109.981C109.657 110.053 109.632 110.026 109.606 110.025ZM110.689 110.34C110.663 110.339 110.61 110.363 110.611 110.336C110.639 110.285 110.664 110.313 110.689 110.34ZM112.37 110.737C112.343 110.762 112.318 110.735 112.319 110.709C112.321 110.683 112.345 110.71 112.37 110.737ZM116.72 112.735C116.695 112.708 116.695 112.708 116.72 112.735V112.735ZM116.767 112.842C116.793 112.844 116.794 112.818 116.767 112.842C116.767 112.842 116.768 112.816 116.743 112.789C116.742 112.815 116.742 112.815 116.767 112.842ZM106.774 108.547C106.747 108.572 106.748 108.546 106.774 108.547V108.547Z" fill="#464646"/>
<path d="M112.163 110.754L112.164 110.727C112.137 110.726 112.137 110.726 112.163 110.754Z" fill="#464646"/>
<path d="M115.198 112.294C115.199 112.268 115.173 112.266 115.174 112.24C115.174 112.24 115.173 112.266 115.198 112.294Z" fill="#464646"/>
<path d="M117.249 113.127L117.198 113.098C117.223 113.126 117.223 113.126 117.222 113.152L117.249 113.127Z" fill="#464646"/>
<path d="M117.348 113.789C117.348 113.789 117.347 113.815 117.348 113.789L117.401 113.792C117.376 113.764 117.324 113.762 117.348 113.789Z" fill="#464646"/>
<path d="M117.135 113.307C117.106 113.358 117.133 113.36 117.184 113.389C117.239 113.365 117.187 113.336 117.135 113.307Z" fill="#464646"/>
<path d="M117.183 113.413L117.208 113.44C117.262 113.416 117.21 113.414 117.183 113.413Z" fill="#464646"/>
<path d="M116.896 112.901C116.895 112.928 116.951 112.851 116.95 112.878C117.03 112.855 116.794 112.844 116.896 112.901Z" fill="#464646"/>
<path d="M117.024 113.459L117.08 113.408L117.027 113.406L117.024 113.459Z" fill="#464646"/>
<path d="M116.829 113.184L116.88 113.24L116.906 113.241C116.854 113.212 116.831 113.158 116.829 113.184Z" fill="#464646"/>
<path d="M116.879 113.24C116.904 113.268 116.904 113.268 116.93 113.269C116.93 113.269 116.905 113.241 116.879 113.24Z" fill="#464646"/>
<path d="M116.949 113.403L116.95 113.377L116.925 113.349L116.949 113.403Z" fill="#464646"/>
<path d="M116.255 112.66L116.177 112.629C116.15 112.628 116.175 112.656 116.201 112.684C116.201 112.684 116.254 112.687 116.255 112.66Z" fill="#464646"/>
<path d="M116.318 112.952C116.319 112.926 116.319 112.926 116.32 112.899L116.265 112.95L116.318 112.952Z" fill="#464646"/>
<path d="M116.118 112.811C116.092 112.81 115.987 112.778 116.064 112.836C116.09 112.837 116.169 112.867 116.118 112.811Z" fill="#464646"/>
<path d="M115.236 112.036L115.261 112.064L115.321 111.933L115.236 112.036Z" fill="#464646"/>
<path d="M114.176 111.772C114.252 111.856 114.232 111.722 114.283 111.778C114.31 111.752 114.232 111.722 114.286 111.698C114.232 111.722 114.207 111.694 114.176 111.772Z" fill="#464646"/>
<path d="M103.275 107.351L103.225 107.295L103.249 107.35L103.275 107.351Z" fill="#464646"/>
<path d="M103.142 107.398L103.146 107.319L103.118 107.344L103.091 107.369L103.028 107.576L103.091 107.369L103.142 107.398C103.116 107.396 103.116 107.396 103.142 107.398Z" fill="#464646"/>
<path d="M110.784 110.556C110.787 110.503 110.787 110.503 110.76 110.501L110.784 110.556Z" fill="#464646"/>
<path d="M110.014 110.229L110.039 110.257L110.043 110.177L110.014 110.229Z" fill="#464646"/>
<path d="M109.338 110.116C109.365 110.117 109.391 110.118 109.418 110.12C109.364 110.144 109.369 110.037 109.338 110.116Z" fill="#464646"/>
<path d="M98.9576 102.509C102.902 101.037 102.072 97.054 101.595 95.5699C100.042 95.3538 98.9918 95.3312 98.9918 95.3312L87.1781 98.2983C89.6851 100.189 95.2627 103.88 98.9576 102.509Z" fill="#7C7C7C"/>
<path d="M95.4348 68.4125C95.4348 68.4125 80.1638 71.8816 80.0881 84.5736C80.0124 97.2656 96.0882 102.081 100.767 97.6085C104.703 93.8377 101.431 88.0778 95.0572 84.8701" fill="#61B2E2"/>
<path d="M225 41C227.761 41 230 38.7614 230 36C230 33.2386 227.761 31 225 31C222.239 31 220 33.2386 220 36C220 38.7614 222.239 41 225 41Z" fill="#57BEB7"/>
<path d="M59 16C60.1046 16 61 15.1046 61 14C61 12.8954 60.1046 12 59 12C57.8954 12 57 12.8954 57 14C57 15.1046 57.8954 16 59 16Z" fill="#ECCD52"/>
<path d="M211 63C212.105 63 213 62.1046 213 61C213 59.8954 212.105 59 211 59C209.895 59 209 59.8954 209 61C209 62.1046 209.895 63 211 63Z" fill="#ECCD52"/>
<path d="M33.5 58C35.9853 58 38 55.9853 38 53.5C38 51.0147 35.9853 49 33.5 49C31.0147 49 29 51.0147 29 53.5C29 55.9853 31.0147 58 33.5 58Z" fill="#DC4C7C"/>
</g>
<defs>
<clipPath id="clip0_4160_84328">
<rect width="250" height="168" fill="white"/>
</clipPath>
</defs>
</svg>
