<svg width="312" height="50" viewBox="0 0 312 50" fill="none" xmlns="http://www.w3.org/2000/svg">
<g clip-path="url(#clip0_3887_85167)">
<path d="M74.7589 14.0132C73.9647 14.0186 73.1734 13.9168 72.4064 13.7106C71.7018 13.525 71.0382 13.2092 70.4499 12.7795C69.8916 12.3715 69.4342 11.8412 69.1128 11.2292C68.7621 10.546 68.5892 9.7855 68.6098 9.01787V7.3186C68.6066 7.02637 68.6507 6.73554 68.7403 6.45735C68.8289 6.18798 68.9493 5.93011 69.099 5.68918C68.8571 5.70677 68.6142 5.66989 68.3885 5.58126C68.1627 5.49263 67.9598 5.35452 67.7946 5.17708C67.5113 4.8645 67.3536 4.45824 67.3521 4.03648C67.357 3.60302 67.5098 3.18423 67.7853 2.84934C67.9396 2.65945 68.1375 2.50954 68.3621 2.41229C68.5867 2.31504 68.8315 2.27332 69.0757 2.29067H72.4297V2.24413C72.4109 1.94551 72.4588 1.64645 72.57 1.36864C72.6811 1.09083 72.8528 0.841235 73.0725 0.637978C73.5496 0.258707 74.1505 0.0696116 74.7589 0.107245C75.3774 0.07918 75.9839 0.283446 76.4592 0.679862C76.679 0.880525 76.8515 1.12741 76.9643 1.40274C77.0771 1.67806 77.1274 1.97499 77.1115 2.27206V2.3186H80.4656C80.7107 2.29847 80.957 2.33891 81.1829 2.43633C81.4087 2.53375 81.6071 2.68517 81.7606 2.87727C82.0204 3.21891 82.1625 3.63536 82.1658 4.06441C82.1687 4.47875 82.0289 4.88146 81.7699 5.20502C81.6125 5.386 81.4142 5.52686 81.1914 5.61592C80.9686 5.70499 80.7278 5.73966 80.4889 5.71711H80.3957C80.7261 6.19666 80.9045 6.76435 80.9081 7.34653V9.0458C80.9279 9.81282 80.7566 10.5727 80.4096 11.2572C80.085 11.8684 79.6264 12.3983 79.068 12.8074C78.4797 13.2371 77.8161 13.5529 77.1115 13.7385C76.3432 13.9354 75.5519 14.0277 74.7589 14.0132ZM72.7791 22.0672C72.2342 22.0812 71.6901 22.0185 71.1626 21.881C70.7768 21.7845 70.4253 21.5831 70.1471 21.2991C69.8811 21.0038 69.7006 20.6417 69.6253 20.2516C69.5139 19.7315 69.4623 19.2004 69.4716 18.6687V16.9462C69.4444 16.6196 69.4949 16.2913 69.6187 15.988C69.7426 15.6846 69.9364 15.4147 70.1843 15.2003C70.6648 14.8248 71.2609 14.6273 71.8707 14.6417C72.4711 14.6242 73.0579 14.8225 73.5245 15.2003C73.7626 15.4208 73.9471 15.6927 74.0642 15.9952C74.1812 16.2978 74.2277 16.623 74.2 16.9462V17.8773C74.2 18.1426 74.2372 18.3056 74.3164 18.3661C74.4741 18.4475 74.6525 18.4799 74.8288 18.4592H86.5682C86.8456 18.4318 87.1256 18.4669 87.3876 18.5619C87.6496 18.657 87.887 18.8096 88.0822 19.0085C88.3798 19.3547 88.5449 19.7952 88.548 20.2516C88.552 20.7176 88.3865 21.1693 88.0822 21.5225C87.8876 21.7193 87.6515 21.8703 87.3912 21.9645C87.131 22.0587 86.853 22.0938 86.5775 22.0672H72.7791ZM74.7589 10.6845C75.2384 10.6825 75.703 10.5184 76.0773 10.219C76.2752 10.0635 76.4324 9.86249 76.5354 9.63302C76.6385 9.40355 76.6843 9.15253 76.669 8.90148V7.29533C76.684 7.04499 76.6379 6.79475 76.5349 6.56609C76.4318 6.33743 76.2748 6.13717 76.0773 5.98248C75.7029 5.68339 75.2383 5.51935 74.7589 5.51693C74.281 5.5193 73.8179 5.6834 73.4452 5.98248C73.2472 6.13694 73.0895 6.33704 72.9856 6.56566C72.8818 6.79429 72.8349 7.04465 72.8489 7.29533V8.90148C72.8345 9.15288 72.8812 9.40401 72.9851 9.63345C73.0889 9.86288 73.2468 10.0638 73.4452 10.219C73.8177 10.5184 74.2809 10.6825 74.7589 10.6845ZM83.6333 2.51413C83.6106 2.19487 83.6594 1.87458 83.7763 1.57658C83.8931 1.27858 84.075 1.01039 84.3088 0.791589C84.7546 0.406602 85.3268 0.199409 85.9159 0.209652C86.5039 0.20425 87.073 0.416533 87.5137 0.805569C87.7481 1.02137 87.9312 1.28679 88.0496 1.5824C88.1681 1.87802 88.2191 2.19634 88.1986 2.51413V6.02902H88.9206C89.2263 6.01919 89.53 6.08308 89.8058 6.21525C90.0252 6.32582 90.2164 6.48506 90.3648 6.6808C90.5063 6.87682 90.609 7.09805 90.6675 7.33258C90.7276 7.56373 90.759 7.80138 90.7608 8.0402C90.759 8.28054 90.7277 8.51978 90.6675 8.7525C90.609 8.98703 90.5063 9.20823 90.3648 9.40425C90.2155 9.60281 90.0206 9.7625 89.7964 9.8698C89.524 10.0021 89.2233 10.066 88.9206 10.056H88.1986V14.3624C88.1986 14.6619 88.1396 14.9586 88.0248 15.2354C87.9101 15.5121 87.742 15.7636 87.53 15.9754C87.318 16.1872 87.0664 16.3553 86.7895 16.4699C86.5126 16.5846 86.2157 16.6436 85.9159 16.6436C85.3105 16.6436 84.7299 16.4032 84.3018 15.9754C83.8738 15.5476 83.6333 14.9674 83.6333 14.3624V2.51413Z" fill="white"/>
<path d="M98.983 12.0809C98.4058 12.0916 97.8289 12.0496 97.2594 11.9552C96.8801 11.8995 96.5289 11.7232 96.2577 11.4524C96.0031 11.171 95.8406 10.8185 95.7919 10.4422C95.7123 9.88251 95.6765 9.31749 95.6848 8.75225V4.18987C95.6774 3.62929 95.7132 3.06896 95.7919 2.51387C95.8388 2.13705 96.0016 1.78408 96.2577 1.50364C96.5357 1.2491 96.8855 1.08652 97.2594 1.03809C97.8287 0.94183 98.4057 0.89818 98.983 0.907722H108.556C108.804 0.881723 109.054 0.912212 109.288 0.996887C109.522 1.08156 109.734 1.21824 109.907 1.39657C110.175 1.73309 110.316 2.15367 110.303 2.58372C110.316 3.04105 110.173 3.48925 109.898 3.85466C109.73 4.04011 109.522 4.18387 109.289 4.2744C109.056 4.36494 108.805 4.39974 108.556 4.37607H107.182C107.031 4.35792 106.878 4.39606 106.753 4.48317C106.666 4.60811 106.628 4.76042 106.646 4.91146V8.07719C106.628 8.22972 106.666 8.38359 106.753 8.51015C106.879 8.59562 107.031 8.63209 107.182 8.61259H109.162C109.416 8.58572 109.673 8.61936 109.912 8.71079C110.151 8.80222 110.365 8.94885 110.536 9.13866C110.801 9.4892 110.941 9.91889 110.932 10.3584C110.948 10.8076 110.809 11.2485 110.536 11.6061C110.36 11.7888 110.145 11.9288 109.907 12.0151C109.669 12.1015 109.414 12.132 109.162 12.1042L98.983 12.0809ZM100.031 22.0669C99.4593 22.0816 98.8881 22.0237 98.3308 21.8947C97.9436 21.8052 97.5916 21.6027 97.3199 21.3128C97.0597 21.0033 96.8904 20.6278 96.8307 20.228C96.7337 19.667 96.6902 19.098 96.7004 18.5288V16.8668C96.6913 16.3022 96.7349 15.738 96.8307 15.1815C96.8894 14.7786 97.0588 14.3999 97.3199 14.0875C97.5916 13.7975 97.9436 13.595 98.3308 13.5055C98.8878 13.3747 99.4591 13.3152 100.031 13.3286H112.725C113.297 13.3152 113.869 13.3747 114.426 13.5055C114.814 13.5959 115.167 13.7983 115.441 14.0875C115.69 14.4047 115.851 14.7821 115.907 15.1815C115.999 15.7384 116.041 16.3024 116.033 16.8668V20.2793C116.033 20.7571 115.843 21.2154 115.505 21.5532C115.167 21.8911 114.708 22.0809 114.23 22.0809L100.031 22.0669ZM99.868 8.10046C99.85 8.253 99.8881 8.40687 99.9752 8.53342C100.113 8.62344 100.278 8.65991 100.441 8.63586H102.514V4.37607H100.441C100.278 4.35294 100.112 4.39111 99.9752 4.48317C99.8884 4.60811 99.8503 4.76042 99.868 4.91146V8.10046ZM101.289 18.1796C101.266 18.362 101.303 18.5469 101.396 18.7057C101.534 18.7957 101.699 18.8321 101.862 18.8081H110.871C111.033 18.8081 111.188 18.7439 111.303 18.6295C111.417 18.5151 111.482 18.36 111.482 18.1982V17.2019C111.482 16.9412 111.444 16.7737 111.365 16.7038C111.226 16.617 111.062 16.5793 110.899 16.5967H101.862C101.699 16.5736 101.533 16.6118 101.396 16.7038C101.305 16.8529 101.267 17.0286 101.289 17.2019V18.1796ZM111.375 2.51387C111.351 2.19661 111.399 1.87812 111.516 1.58223C111.633 1.28635 111.816 1.02074 112.05 0.805314C112.49 0.427539 113.054 0.223863 113.634 0.232698C114.219 0.226469 114.787 0.433303 115.232 0.814634C115.466 1.02818 115.65 1.29187 115.768 1.58607C115.887 1.88027 115.938 2.1974 115.917 2.51387V4.32953H116.382C116.688 4.3197 116.992 4.38355 117.267 4.51573C117.486 4.62828 117.676 4.78718 117.826 4.98128C117.97 5.17291 118.073 5.39142 118.129 5.62374C118.189 5.85488 118.221 6.09257 118.222 6.33138C118.221 6.57173 118.189 6.81097 118.129 7.04369C118.071 7.27822 117.968 7.49942 117.826 7.69544C117.679 7.89586 117.484 8.05597 117.258 8.16099C116.983 8.2832 116.684 8.34206 116.382 8.33324H115.917V10.2327C115.917 10.834 115.677 11.4107 115.252 11.8359C114.827 12.261 114.249 12.4999 113.648 12.4999C113.349 12.5005 113.054 12.4423 112.778 12.3287C112.502 12.215 112.252 12.0481 112.041 11.8375C111.829 11.6269 111.662 11.3768 111.548 11.1014C111.433 10.826 111.375 10.5308 111.375 10.2327V2.51387Z" fill="white"/>
<path d="M122.713 21.1826C122.086 21.1996 121.46 21.137 120.85 20.9964C120.428 20.9064 120.045 20.6866 119.755 20.3679C119.476 20.0266 119.294 19.6165 119.228 19.1808C119.125 18.5656 119.078 17.9423 119.089 17.3186V4.7953C119.078 4.17161 119.125 3.54829 119.228 2.9331C119.296 2.4979 119.478 2.08832 119.755 1.74596C120.048 1.43066 120.429 1.21151 120.85 1.11745C121.461 0.979247 122.087 0.916721 122.713 0.931247H128.163C128.79 0.917422 129.415 0.97994 130.027 1.11745C130.446 1.2126 130.828 1.43158 131.121 1.74596C131.397 2.0887 131.577 2.49829 131.643 2.9331C131.747 3.54829 131.793 4.17161 131.783 4.7953V19.5812C131.783 19.9997 131.617 20.4011 131.32 20.6971C131.024 20.9931 130.623 21.1593 130.204 21.1593L122.713 21.1826ZM123.621 16.6901C123.606 16.9002 123.66 17.1096 123.775 17.286C123.856 17.3626 123.954 17.4199 124.06 17.4537C124.167 17.4875 124.279 17.4971 124.39 17.4815H126.468C126.674 17.4815 126.872 17.3996 127.018 17.2538C127.164 17.108 127.246 16.9103 127.246 16.7041V5.44705C127.255 5.25395 127.215 5.06163 127.129 4.88842C127.05 4.74875 126.882 4.67891 126.617 4.67891H124.218C123.952 4.67891 123.789 4.74875 123.719 4.88842C123.641 5.06401 123.605 5.2551 123.612 5.44705L123.621 16.6901ZM134.336 2.46755C134.314 2.15179 134.366 1.83528 134.487 1.54288C134.608 1.25047 134.796 0.990132 135.035 0.782268C135.485 0.406224 136.055 0.20315 136.642 0.209623C136.936 0.209617 137.228 0.261637 137.504 0.363262C137.774 0.458312 138.024 0.603633 138.24 0.791559C138.455 0.987977 138.629 1.22538 138.752 1.48988C138.888 1.79746 138.955 2.13127 138.948 2.46755V8.35674H139.716C140.022 8.34691 140.326 8.41079 140.601 8.54297C140.821 8.65354 141.012 8.81278 141.16 9.00852C141.302 9.20454 141.405 9.42577 141.463 9.6603C141.523 9.89144 141.555 10.1291 141.556 10.3679C141.555 10.6083 141.523 10.8475 141.463 11.0802C141.405 11.3147 141.302 11.5359 141.16 11.732C141.011 11.9305 140.816 12.0902 140.592 12.1975C140.32 12.3298 140.019 12.3937 139.716 12.3837H138.948V19.7394C138.942 20.3487 138.697 20.9314 138.266 21.3622C137.834 21.7931 137.251 22.0378 136.642 22.0439C136.032 22.0378 135.449 21.7931 135.018 21.3622C134.587 20.9314 134.342 20.3487 134.336 19.7394V2.46755Z" fill="white"/>
<path d="M146.033 21.1361C145.416 21.1512 144.799 21.0965 144.193 20.9731C143.784 20.8955 143.408 20.6977 143.112 20.4052C142.836 20.093 142.653 19.7088 142.586 19.2971C142.482 18.7055 142.436 18.1053 142.446 17.5048V4.63234C142.436 4.0318 142.483 3.43164 142.586 2.83999C142.653 2.4297 142.836 2.04698 143.112 1.73664C143.408 1.44539 143.785 1.25058 144.193 1.17797C144.8 1.06771 145.417 1.0209 146.033 1.03831H153.44C153.735 1.02968 154.028 1.09364 154.293 1.22455C154.503 1.33865 154.686 1.49757 154.828 1.69009C154.961 1.88005 155.055 2.0933 155.108 2.31857C155.159 2.5401 155.185 2.76643 155.187 2.99363C155.186 3.22857 155.159 3.46271 155.108 3.69195C155.055 3.91943 154.955 4.1334 154.815 4.32043C154.669 4.51327 154.483 4.67212 154.269 4.78598C154.013 4.91759 153.728 4.9817 153.44 4.97221H147.64C147.473 4.95549 147.305 5.00569 147.175 5.11187C147.063 5.26679 147.013 5.45765 147.035 5.64726V16.5877C147.013 16.7773 147.063 16.9683 147.175 17.123C147.305 17.2292 147.473 17.2794 147.64 17.2627H154.512C154.807 17.2541 155.1 17.318 155.364 17.4489C155.575 17.563 155.758 17.722 155.9 17.9145C156.032 18.1044 156.127 18.3177 156.179 18.543C156.23 18.7645 156.256 18.9908 156.259 19.218C156.258 19.4499 156.232 19.6811 156.179 19.907C156.124 20.1295 156.024 20.3385 155.886 20.5215C155.742 20.7162 155.556 20.8754 155.341 20.9871C155.082 21.1095 154.798 21.1685 154.512 21.1593L146.033 21.1361ZM157.61 2.46755C157.588 2.15179 157.64 1.83528 157.761 1.54288C157.882 1.25047 158.07 0.990132 158.308 0.782268C158.759 0.406224 159.329 0.20315 159.916 0.209623C160.21 0.209617 160.501 0.261637 160.777 0.363262C161.047 0.458312 161.297 0.603633 161.513 0.791559C161.729 0.987977 161.903 1.22538 162.026 1.48988C162.162 1.79746 162.229 2.13127 162.221 2.46755V8.35674H162.99C163.296 8.34691 163.599 8.41079 163.875 8.54297C164.095 8.65354 164.286 8.81278 164.434 9.00852C164.576 9.20454 164.678 9.42577 164.737 9.6603C164.797 9.89144 164.828 10.1291 164.83 10.3679C164.828 10.6083 164.797 10.8475 164.737 11.0802C164.678 11.3147 164.576 11.5359 164.434 11.732C164.285 11.9305 164.09 12.0902 163.866 12.1975C163.593 12.3298 163.293 12.3937 162.99 12.3837H162.221V19.7394C162.215 20.3487 161.971 20.9314 161.539 21.3622C161.108 21.7931 160.525 22.0378 159.916 22.0439C159.306 22.0378 158.723 21.7931 158.292 21.3622C157.861 20.9314 157.616 20.3487 157.61 19.7394V2.46755Z" fill="white"/>
<path d="M173.583 21.1362C172.995 21.1481 172.407 21.1013 171.827 20.9965C171.444 20.9357 171.088 20.7567 170.812 20.4844C170.559 20.1928 170.397 19.8335 170.346 19.4509C170.258 18.8841 170.219 18.311 170.229 17.7376V4.39965C170.219 3.82785 170.258 3.25626 170.346 2.69109C170.398 2.30736 170.559 1.94682 170.812 1.65293C171.089 1.38337 171.444 1.2089 171.827 1.15478C172.407 1.05833 172.995 1.01468 173.583 1.02442H183.157C183.417 0.996865 183.681 1.03336 183.925 1.13072C184.168 1.22807 184.384 1.38335 184.554 1.58308C184.824 1.95492 184.966 2.40406 184.959 2.86334C184.969 3.33021 184.827 3.78756 184.554 4.16688C184.384 4.36661 184.168 4.52191 183.925 4.61927C183.681 4.71662 183.417 4.75309 183.157 4.72554H182.015C181.836 4.70454 181.655 4.74563 181.503 4.84193C181.405 4.99365 181.364 5.17497 181.386 5.35405V16.8065C181.362 16.9857 181.403 17.1676 181.503 17.3186C181.654 17.4172 181.836 17.4584 182.015 17.435H183.576C183.837 17.4067 184.101 17.4428 184.344 17.5402C184.588 17.6376 184.804 17.7933 184.973 17.9937C185.238 18.3674 185.377 18.816 185.369 19.274C185.379 19.7408 185.237 20.1982 184.964 20.5775C184.794 20.7772 184.578 20.9325 184.335 21.0299C184.091 21.1272 183.827 21.1637 183.567 21.1362H173.583ZM174.538 16.8065C174.514 16.9857 174.555 17.1676 174.655 17.3186C174.806 17.4172 174.988 17.4584 175.167 17.435H177.101V4.72554H175.167C174.988 4.70454 174.807 4.74563 174.655 4.84193C174.557 4.99365 174.516 5.17497 174.538 5.35405V16.8065ZM185.975 2.46764C185.953 2.15269 186.003 1.83688 186.123 1.54464C186.243 1.2524 186.428 0.991578 186.664 0.782351C187.109 0.405071 187.675 0.201595 188.257 0.209706C188.552 0.2097 188.843 0.261721 189.119 0.363345C189.39 0.458395 189.639 0.603716 189.855 0.791643C190.07 0.986178 190.239 1.22429 190.354 1.48997C190.485 1.79895 190.548 2.13223 190.54 2.46764V8.35682H190.983C191.304 8.34511 191.623 8.40891 191.914 8.54305C192.148 8.65271 192.354 8.81153 192.52 9.0086C192.675 9.20166 192.79 9.42307 192.86 9.66038C192.928 9.89021 192.962 10.1285 192.963 10.368C192.962 10.6091 192.928 10.8489 192.86 11.0803C192.791 11.3197 192.672 11.5418 192.511 11.7321C192.339 11.9289 192.128 12.0875 191.891 12.1976C191.615 12.3286 191.312 12.3924 191.006 12.3838H190.564V19.7628C190.564 20.3678 190.323 20.948 189.895 21.3758C189.467 21.8036 188.886 22.044 188.281 22.044C187.675 22.044 187.095 21.8036 186.667 21.3758C186.239 20.948 185.998 20.3678 185.998 19.7628L185.975 2.46764Z" fill="white"/>
<path d="M201.511 12.5698H194.779C194.523 12.5959 194.263 12.5634 194.021 12.4747C193.779 12.3859 193.56 12.2433 193.382 12.0577C193.105 11.7246 192.956 11.3035 192.962 10.8705C192.961 10.4441 193.105 10.0299 193.372 9.69731C193.549 9.50769 193.767 9.36151 194.009 9.27024C194.252 9.17896 194.512 9.14508 194.77 9.17124H212.938C213.196 9.14651 213.455 9.18107 213.698 9.27226C213.94 9.36344 214.158 9.50884 214.335 9.69731C214.601 10.0306 214.744 10.4446 214.741 10.8705C214.747 11.3035 214.598 11.7246 214.321 12.0577C214.143 12.2433 213.924 12.3859 213.682 12.4747C213.44 12.5634 213.18 12.5959 212.924 12.5698H206.192C206.193 12.7992 206.148 13.0265 206.061 13.2386C205.973 13.4507 205.844 13.6434 205.682 13.8056C205.52 13.9679 205.327 14.0964 205.115 14.1839C204.902 14.2715 204.675 14.3162 204.445 14.3156H203.234C203.005 14.3162 202.777 14.2715 202.565 14.1839C202.353 14.0964 202.16 13.9679 201.998 13.8056C201.835 13.6434 201.707 13.4507 201.619 13.2386C201.531 13.0265 201.487 12.7992 201.487 12.5698H201.511ZM206.053 2.35096C206.055 2.39437 206.055 2.43789 206.053 2.4813C206.049 2.51534 206.049 2.5497 206.053 2.58373C206.952 2.53709 207.853 2.61225 208.731 2.80719C209.596 2.99363 210.421 3.33258 211.168 3.80813C211.92 4.29364 212.565 4.92727 213.064 5.67033C213.24 5.95248 213.338 6.27674 213.346 6.60936C213.355 6.94197 213.274 7.27079 213.112 7.56165C212.951 7.85251 212.714 8.09477 212.427 8.26322C212.14 8.43166 211.813 8.52015 211.48 8.51949H210.548C210.244 8.51435 209.946 8.43488 209.679 8.28799C209.413 8.14111 209.187 7.93128 209.02 7.67685C208.903 7.51079 208.772 7.35503 208.629 7.2113C208.268 6.84462 207.841 6.54927 207.371 6.34072C206.871 6.12461 206.339 5.99398 205.796 5.95431C205.205 5.90945 204.61 5.94075 204.026 6.04742C203.492 6.5135 202.902 6.91219 202.27 7.23457C201.603 7.58142 200.904 7.86209 200.183 8.07255C199.445 8.29234 198.689 8.4481 197.924 8.5381C197.151 8.6341 196.37 8.64972 195.594 8.58467C195.018 8.58927 194.463 8.36875 194.048 7.97014C193.891 7.80393 193.768 7.60784 193.688 7.39352C193.608 7.1792 193.572 6.95102 193.582 6.72248C193.583 6.48288 193.631 6.24577 193.722 6.02415C193.813 5.79264 193.953 5.58318 194.132 5.40962C194.32 5.2247 194.545 5.08187 194.793 4.99062C195.091 4.88227 195.407 4.83017 195.725 4.83698C196.317 4.8506 196.909 4.78803 197.486 4.65077C198.075 4.51956 198.646 4.3163 199.186 4.04557C199.683 3.80446 200.142 3.49064 200.546 3.11447C200.913 2.77415 201.179 2.33918 201.315 1.85748C201.379 1.54617 201.507 1.2513 201.689 0.991081C201.872 0.730861 202.106 0.510805 202.377 0.344444C202.904 0.0517931 203.512 -0.062532 204.11 0.0185536C204.662 0.0681379 205.182 0.297088 205.591 0.670334C205.786 0.90034 205.927 1.16976 206.007 1.45995C206.087 1.75015 206.102 2.05416 206.053 2.35096ZM196.386 13.3845C196.889 13.3824 197.383 13.5107 197.821 13.7569C198.043 13.8863 198.233 14.0647 198.376 14.2785C198.519 14.4923 198.611 14.7358 198.646 14.9906H209.057C209.082 14.7341 209.169 14.4874 209.309 14.2711C209.449 14.0548 209.639 13.8752 209.863 13.7476C210.324 13.5009 210.84 13.3759 211.363 13.3845C211.654 13.3848 211.943 13.4207 212.225 13.4916C212.496 13.5579 212.753 13.6713 212.984 13.8267C213.21 13.9874 213.394 14.1997 213.52 14.4459C213.657 14.7367 213.724 15.0556 213.716 15.377V20.3212C213.716 20.5492 213.671 20.775 213.584 20.9857C213.496 21.1964 213.368 21.3878 213.207 21.549C213.046 21.7103 212.854 21.8382 212.643 21.9255C212.432 22.0128 212.206 22.0577 211.978 22.0577H197.341C196.769 22.0723 196.198 22.0144 195.641 21.8854C195.254 21.796 194.902 21.5934 194.63 21.3035C194.37 20.994 194.201 20.6185 194.141 20.2187C194.044 19.6577 194 19.0887 194.011 18.5195V15.377C194.001 15.055 194.07 14.7355 194.211 14.4459C194.332 14.2004 194.511 13.988 194.733 13.8267C194.962 13.668 195.22 13.5543 195.492 13.4916C195.785 13.4198 196.085 13.3839 196.386 13.3845ZM209.034 19.0409V18.3146C209.034 18.1912 208.985 18.0728 208.898 17.9854C208.81 17.8981 208.692 17.8491 208.568 17.8491H198.674V18.3146C198.66 18.5056 198.715 18.6952 198.827 18.85C198.902 18.9214 198.992 18.9752 199.09 19.0074C199.189 19.0397 199.293 19.0495 199.396 19.0362L209.034 19.0409Z" fill="white"/>
<path d="M217.978 17.5046C218.611 17.408 219.229 17.2328 219.819 16.9831C220.379 16.7409 220.874 16.3691 221.263 15.8984C221.703 15.3342 222.021 14.684 222.194 13.9897C222.44 13.0083 222.553 11.9983 222.53 10.9869V5.5865C222.534 5.43314 222.481 5.28367 222.381 5.1675C222.324 5.11172 222.256 5.06842 222.181 5.04037C222.107 5.01231 222.027 5.00012 221.947 5.00456H218.384C218.076 5.01572 217.77 4.95682 217.489 4.83231C217.257 4.7206 217.051 4.56209 216.884 4.36676C216.723 4.18499 216.604 3.97054 216.534 3.73826C216.465 3.51197 216.429 3.27669 216.427 3.03993C216.429 2.80317 216.465 2.56789 216.534 2.34161C216.603 2.1117 216.717 1.89795 216.87 1.71313C217.034 1.51462 217.241 1.35553 217.475 1.24758C217.769 1.11904 218.087 1.05856 218.407 1.07067H223.322C223.877 1.06157 224.432 1.11623 224.975 1.2336C225.378 1.32058 225.754 1.50435 226.07 1.76899C226.358 2.03194 226.564 2.37094 226.667 2.74663C226.792 3.23298 226.85 3.73426 226.839 4.2364V8.79877H228.469V2.1647C228.452 1.89103 228.495 1.61686 228.595 1.36175C228.696 1.10664 228.852 0.87688 229.052 0.688914C229.439 0.353388 229.937 0.174107 230.449 0.186113C230.711 0.186969 230.971 0.231027 231.218 0.316481C231.462 0.399926 231.688 0.529528 231.884 0.698234C232.078 0.872101 232.237 1.08247 232.35 1.31739C232.471 1.58314 232.53 1.87286 232.522 2.1647V20.0185C232.522 20.5556 232.309 21.0707 231.929 21.4505C231.549 21.8303 231.033 22.0437 230.496 22.0437C229.958 22.0437 229.443 21.8303 229.063 21.4505C228.683 21.0707 228.469 20.5556 228.469 20.0185V12.5697H226.769C226.682 13.9361 226.367 15.2782 225.837 16.5409C225.409 17.5339 224.787 18.4313 224.006 19.1805C223.29 19.8556 222.441 20.3755 221.514 20.7075C220.584 21.0423 219.612 21.249 218.626 21.3221C218.055 21.3812 217.48 21.2556 216.986 20.9636C216.751 20.8153 216.557 20.609 216.424 20.3644C216.291 20.1198 216.223 19.8452 216.227 19.5669C216.179 19.0812 216.317 18.5954 216.614 18.2075C216.966 17.8131 217.452 17.5628 217.978 17.5046ZM233.654 2.18797C233.636 1.9099 233.683 1.6314 233.792 1.37499C233.901 1.11859 234.07 0.891508 234.283 0.712186C234.691 0.380885 235.202 0.202954 235.727 0.209385C235.989 0.210241 236.249 0.254299 236.496 0.339752C236.74 0.423198 236.966 0.5528 237.162 0.721506C237.356 0.895373 237.515 1.10577 237.628 1.34069C237.749 1.60644 237.808 1.89614 237.8 2.18797V20.0418C237.8 20.5789 237.587 21.094 237.207 21.4738C236.827 21.8536 236.311 22.0669 235.774 22.0669H235.681C235.143 22.0669 234.628 21.8536 234.248 21.4738C233.868 21.094 233.654 20.5789 233.654 20.0418V2.18797Z" fill="white"/>
<path d="M241.014 22.1603C241.273 22.0267 241.488 21.8215 241.634 21.5691C241.784 21.2938 241.86 20.984 241.853 20.6706C241.268 20.641 240.714 20.4012 240.292 19.9955C240.093 19.7849 239.938 19.5361 239.838 19.2639C239.738 18.9918 239.695 18.7022 239.71 18.4127C239.694 18.0996 239.745 17.7867 239.862 17.4957C239.979 17.2046 240.157 16.9425 240.386 16.7274C240.882 16.2996 241.524 16.0781 242.179 16.1082C242.509 16.0942 242.839 16.1481 243.147 16.2666C243.456 16.3851 243.737 16.5657 243.973 16.7972C244.197 17.0251 244.372 17.2962 244.488 17.5939C244.604 17.8916 244.659 18.2097 244.648 18.529V18.7385C244.702 19.8871 244.436 21.0281 243.879 22.0346C243.426 22.8156 242.719 23.4184 241.876 23.7432C241.68 23.8214 241.478 23.8806 241.271 23.9201C241.078 23.9549 240.881 23.9549 240.688 23.9201C240.479 23.8876 240.28 23.808 240.106 23.6873C240.008 23.613 239.934 23.5118 239.892 23.3961C239.851 23.2803 239.844 23.1551 239.873 23.0356C239.883 22.8612 239.953 22.6958 240.072 22.5682C240.192 22.4405 240.352 22.3588 240.525 22.3372C240.602 22.3097 240.679 22.2864 240.758 22.2674C240.848 22.2443 240.935 22.2082 241.014 22.1603Z" fill="white"/>
<path d="M1.72356 45.2049C2.57009 45.1098 3.40503 44.9305 4.21588 44.6695C4.95631 44.4336 5.63334 44.0324 6.19573 43.4964C6.79771 42.8896 7.24507 42.1471 7.50011 41.3315C7.84223 40.1875 7.99948 38.9962 7.96596 37.8027V33.6127C7.97096 33.4584 7.91581 33.3082 7.8122 33.1937C7.75617 33.1381 7.68904 33.0948 7.61521 33.0668C7.54138 33.0387 7.46253 33.0264 7.38365 33.0308H2.25935C1.94904 33.0418 1.64057 32.9779 1.36019 32.8446C1.12894 32.7319 0.922911 32.5735 0.754569 32.379C0.59347 32.1888 0.474408 31.9667 0.405185 31.7273C0.33758 31.4958 0.30309 31.2561 0.302712 31.015C0.303154 30.7754 0.337647 30.5372 0.405185 30.3073C0.471123 30.0713 0.587207 29.8522 0.745357 29.6649C0.912116 29.4688 1.11841 29.3101 1.35086 29.1993C1.64255 29.0652 1.96168 29.0014 2.28256 29.0131H8.9908C10.3091 29.0131 11.2362 29.3111 11.7859 29.8976C12.3618 30.6043 12.6496 31.5021 12.5918 32.4116V32.8306H16.2719V30.3865C16.2502 30.0707 16.3019 29.7542 16.4232 29.4618C16.5444 29.1694 16.7318 28.909 16.9707 28.7012C17.4211 28.3251 17.991 28.1221 18.5778 28.1286C18.8719 28.1286 19.1637 28.1806 19.4397 28.2822C19.7118 28.3792 19.9643 28.5243 20.1851 28.7105C20.4064 28.9039 20.5841 29.1419 20.7068 29.4088C20.8469 29.7153 20.9154 30.0496 20.907 30.3865V47.6723C20.907 48.2897 20.6617 48.8817 20.2249 49.3183C19.7881 49.7548 19.1956 50.0001 18.5778 50.0001C17.9601 50.0001 17.3677 49.7548 16.9309 49.3183C16.4941 48.8817 16.2486 48.2897 16.2486 47.6723V44.2831H11.2176C10.8135 45.0645 10.2812 45.7726 9.64294 46.3781C9.02969 46.9532 8.33614 47.4362 7.58394 47.812C6.7954 48.2013 5.96125 48.4906 5.10094 48.6733C4.16963 48.8731 3.22422 49.0008 2.27323 49.055C1.99351 49.0727 1.71294 49.0412 1.44412 48.9619C1.17981 48.8901 0.933688 48.7632 0.722042 48.5895C0.50917 48.4179 0.338595 48.1996 0.223555 47.9517C0.0929906 47.6705 0.0292637 47.363 0.0372624 47.0532C0.0215341 46.6017 0.170493 46.1599 0.456478 45.8101C0.789346 45.4586 1.24081 45.243 1.72356 45.2049ZM12.5312 37.826C12.5312 38.2915 12.5312 38.7571 12.4846 39.1528C12.4381 39.5485 12.4148 39.9861 12.3682 40.3865H16.2114V36.7552H12.5312V37.826Z" fill="white"/>
<path d="M26.5532 50.0002C26.1063 50.0106 25.6621 49.9282 25.2488 49.7581C24.8946 49.6111 24.5766 49.3886 24.3171 49.1063C24.0756 48.8367 23.8932 48.5195 23.7814 48.1752C23.6636 47.8066 23.6054 47.4216 23.609 47.0346V46.9648C23.5775 46.2328 23.8275 45.5165 24.3078 44.9629C24.7736 44.4508 25.519 44.1948 26.5439 44.1948H39.0052V43.7758C39.0052 43.5291 38.8422 43.4034 38.5161 43.4034H25.1696C24.9843 43.4158 24.7985 43.3857 24.6266 43.3155C24.4546 43.2453 24.301 43.1369 24.1773 42.9983C23.9645 42.756 23.8456 42.4455 23.8419 42.1231C23.8452 41.8019 23.9551 41.4908 24.1541 41.2386C24.2771 41.0922 24.4336 40.9776 24.6104 40.9047C24.7872 40.8317 24.9791 40.8025 25.1696 40.8196H31.5051V39.7954H24.6339C24.3971 39.8168 24.1586 39.7862 23.9349 39.7058C23.7111 39.6254 23.5077 39.4971 23.3389 39.3298C23.0825 39.0329 22.9462 38.6511 22.9569 38.2591C22.9519 37.8667 23.0837 37.4848 23.3296 37.179C23.4965 37.0063 23.701 36.8744 23.9272 36.7937C24.1535 36.7129 24.3952 36.6855 24.6339 36.7134H43.0814C43.3199 36.6865 43.5615 36.7145 43.7875 36.7952C44.0136 36.8759 44.2183 37.0071 44.3858 37.179C44.6297 37.486 44.7612 37.8671 44.7585 38.2591C44.7674 38.6516 44.6295 39.0334 44.3718 39.3298C44.2038 39.497 44.0013 39.6253 43.7783 39.7057C43.5554 39.7861 43.3174 39.8168 43.0814 39.7954H36.2102V40.8196H41.218C42.2103 40.8196 42.895 41.0058 43.2677 41.3689C43.4659 41.586 43.6178 41.8413 43.714 42.119C43.8101 42.3968 43.8485 42.6912 43.8268 42.9844V45.1678C43.8268 45.3553 43.7898 45.5409 43.7178 45.714C43.6459 45.8872 43.5404 46.0444 43.4076 46.1768C43.2747 46.3091 43.117 46.414 42.9435 46.4853C42.7701 46.5566 42.5842 46.593 42.3966 46.5924H29.0827C29.0202 46.5858 28.9571 46.5918 28.8971 46.6102C28.837 46.6286 28.7813 46.659 28.7333 46.6995C28.666 46.78 28.6326 46.8835 28.6402 46.9881C28.6349 47.0968 28.6678 47.2038 28.7333 47.2907C28.7788 47.3354 28.834 47.3691 28.8946 47.3893C28.9551 47.4095 29.0194 47.4155 29.0827 47.4071H42.7553C42.9374 47.3902 43.1209 47.4188 43.2892 47.4903C43.4575 47.5618 43.6054 47.674 43.7196 47.8168C43.9115 48.0752 44.0144 48.3888 44.0131 48.7106C44.0045 49.0186 43.9074 49.3175 43.7335 49.5719C43.6248 49.7262 43.4768 49.8486 43.3048 49.9263C43.1327 50.0041 42.943 50.0345 42.7553 50.0142L26.5532 50.0002ZM44.0224 32.0998C44.0262 32.6001 43.9394 33.0969 43.7662 33.5663C43.5969 34.0126 43.3295 34.4151 42.9836 34.7442C42.6053 35.0961 42.1579 35.3656 41.6699 35.5356C41.0702 35.739 40.4396 35.8366 39.8065 35.8242H27.974C27.333 35.8401 26.6942 35.7424 26.0873 35.5356C25.5976 35.3662 25.1486 35.0967 24.769 34.7442C24.423 34.4161 24.1569 34.0132 23.991 33.5663C23.8156 33.0975 23.7287 32.6003 23.7348 32.0998C23.7295 31.5994 23.8163 31.1023 23.991 30.6333C24.1581 30.1885 24.4241 29.7873 24.769 29.4602C25.1486 29.1076 25.5976 28.8381 26.0873 28.6687C26.6939 28.4602 27.3327 28.3609 27.974 28.3754H39.8065C40.4399 28.3644 41.0705 28.4636 41.6699 28.6687C42.1579 28.8386 42.6053 29.1082 42.9836 29.4602C43.3283 29.7884 43.5956 30.1891 43.7662 30.6333C43.9353 31.1036 44.0189 31.6002 44.0131 32.0998H44.0224ZM39.2475 32.0998C39.2521 32.0038 39.2366 31.9078 39.2021 31.8181C39.1676 31.7283 39.1149 31.6467 39.0472 31.5784C38.8374 31.422 38.5761 31.3505 38.3158 31.3782H29.4181C29.1563 31.3506 28.8938 31.4221 28.6821 31.5784C28.6159 31.6476 28.5644 31.7294 28.5308 31.8191C28.4971 31.9087 28.482 32.0042 28.4864 32.0998C28.4817 32.1962 28.4966 32.2925 28.5302 32.3829C28.5638 32.4734 28.6156 32.556 28.6821 32.6259C28.8947 32.7802 29.157 32.8499 29.4181 32.8214H38.3158C38.5755 32.8501 38.8365 32.7803 39.0472 32.6259C39.1153 32.5569 39.1682 32.4745 39.2027 32.3839C39.2372 32.2934 39.2524 32.1966 39.2475 32.0998Z" fill="white"/>
<path d="M66.3738 36.7084C66.6124 36.6797 66.8545 36.7068 67.0809 36.7876C67.3072 36.8684 67.5117 37.0007 67.6782 37.174C67.9208 37.487 68.052 37.872 68.0509 38.268C68.0561 38.6712 67.9192 39.0635 67.6642 39.376C67.4986 39.5464 67.2964 39.6769 67.0728 39.7576C66.8492 39.8382 66.6101 39.867 66.3738 39.8415H47.9263C47.6892 39.8666 47.4496 39.8378 47.2253 39.7572C47.001 39.6766 46.798 39.5462 46.6313 39.376C46.3776 39.063 46.2423 38.6707 46.2493 38.268C46.246 37.8717 46.3774 37.486 46.622 37.174C46.7878 36.9998 46.9922 36.8669 47.2187 36.7861C47.4453 36.7052 47.6876 36.6786 47.9263 36.7084H66.3738ZM49.8363 49.9998C49.3894 50.0103 48.9452 49.9278 48.5319 49.7578C48.1776 49.6107 47.8597 49.3883 47.6002 49.106C47.3587 48.8363 47.1762 48.5192 47.0645 48.1749C46.9467 47.8063 46.8884 47.4212 46.8921 47.0343V46.9645C46.8606 46.2325 47.1106 45.5162 47.5909 44.9626C48.0567 44.4505 48.8021 44.1945 49.8269 44.1945H62.2883V43.7522C62.2883 43.5054 62.1252 43.3797 61.7992 43.3797H48.4527C48.2674 43.3921 48.0817 43.3621 47.9098 43.2919C47.7378 43.2217 47.5841 43.1132 47.4604 42.9747C47.2476 42.7324 47.1287 42.4219 47.125 42.0995C47.1283 41.7783 47.2382 41.4672 47.4372 41.2149C47.5602 41.0685 47.7167 40.954 47.8935 40.8811C48.0703 40.8081 48.2622 40.7789 48.4527 40.7959H64.5104C65.5027 40.7959 66.1874 40.9822 66.5601 41.3453C66.7583 41.5624 66.9102 41.8176 67.0064 42.0954C67.1025 42.3732 67.1409 42.6676 67.1192 42.9607V45.4235C67.1192 45.5774 67.0887 45.7297 67.0297 45.8718C66.9706 46.0138 66.8841 46.1429 66.775 46.2514C66.666 46.36 66.5365 46.446 66.3941 46.5044C66.2517 46.5629 66.0992 46.5926 65.9452 46.592H52.3751C52.3127 46.5854 52.2495 46.5915 52.1895 46.6099C52.1295 46.6283 52.0737 46.6586 52.0257 46.6991C51.9584 46.7796 51.9251 46.8831 51.9326 46.9877C51.9273 47.0964 51.9602 47.2034 52.0257 47.2903C52.0713 47.335 52.1264 47.3688 52.187 47.3889C52.2475 47.4091 52.3118 47.4152 52.3751 47.4067H66.0477C66.2298 47.3899 66.4133 47.4185 66.5816 47.49C66.7499 47.5615 66.8978 47.6736 67.012 47.8164C67.2039 48.0749 67.3068 48.3885 67.3055 48.7103C67.2969 49.0182 67.1998 49.3172 67.0259 49.5715C66.9172 49.7258 66.7692 49.8482 66.5972 49.926C66.4251 50.0038 66.2354 50.0341 66.0477 50.0138L49.8363 49.9998ZM67.3055 32.1228C67.3084 32.6275 67.2216 33.1288 67.0492 33.6032C66.8812 34.0528 66.6137 34.4586 66.2667 34.7903C65.8884 35.1423 65.441 35.4119 64.9529 35.5818C64.3532 35.7852 63.7227 35.8828 63.0896 35.8704H51.2571C50.6161 35.8864 49.9773 35.7886 49.3704 35.5818C48.8807 35.4124 48.4317 35.1429 48.052 34.7903C47.7078 34.4663 47.4419 34.0683 47.2741 33.6265C47.0995 33.1526 47.0126 32.651 47.0179 32.146C47.0125 31.6456 47.0994 31.1485 47.2741 30.6795C47.443 30.2315 47.7086 29.8262 48.052 29.4924C48.4299 29.1354 48.8793 28.8625 49.3704 28.6917C49.977 28.4831 50.6158 28.3838 51.2571 28.3984H63.0896C63.723 28.3873 64.3535 28.4866 64.9529 28.6917C65.4422 28.8636 65.8898 29.1364 66.2667 29.4924C66.6098 29.8274 66.8767 30.2323 67.0492 30.6795C67.2188 31.1418 67.3056 31.6304 67.3055 32.1228ZM62.5306 32.1228C62.5352 32.0267 62.5197 31.9308 62.4852 31.841C62.4507 31.7512 62.398 31.6696 62.3303 31.6013C62.1204 31.4449 61.8592 31.3734 61.5989 31.4011H52.7012C52.4394 31.3736 52.1769 31.445 51.9652 31.6013C51.899 31.6705 51.8475 31.7524 51.8138 31.842C51.7802 31.9316 51.7651 32.0271 51.7695 32.1228C51.7647 32.2191 51.7796 32.3154 51.8133 32.4059C51.8469 32.4963 51.8987 32.579 51.9652 32.6488C52.1777 32.8031 52.44 32.8728 52.7012 32.8444H61.5989C61.8586 32.873 62.1196 32.8032 62.3303 32.6488C62.4 32.5806 62.4548 32.4986 62.4909 32.408C62.527 32.3174 62.5436 32.2202 62.5399 32.1228H62.5306Z" fill="white"/>
<path d="M75.397 45.2047C76.3056 45.1284 77.2009 44.9375 78.0617 44.6368C78.8368 44.3658 79.5362 43.9141 80.102 43.3193C80.705 42.6525 81.1465 41.8561 81.3924 40.9915C81.7264 39.8267 81.8834 38.6183 81.8583 37.4068V33.6265C81.8633 33.4722 81.8081 33.322 81.7045 33.2075C81.6488 33.1514 81.5818 33.1078 81.5078 33.0797C81.4339 33.0516 81.3549 33.0396 81.2759 33.0446H75.9654C75.646 33.0549 75.3282 32.9962 75.0337 32.8723C74.7909 32.7632 74.5734 32.6046 74.3954 32.4068C74.2232 32.2236 74.0914 32.0063 74.0087 31.769C73.9256 31.5327 73.8831 31.2839 73.883 31.0334C73.8848 30.7921 73.9272 30.5529 74.0087 30.3258C74.0934 30.0852 74.2248 29.8637 74.3954 29.674C74.5744 29.4773 74.7916 29.3189 75.0337 29.2085C75.3264 29.0775 75.6448 29.0139 75.9654 29.0222H82.8598C84.1781 29.0222 85.1191 29.3202 85.6782 29.9068C86.2747 30.6036 86.5756 31.5056 86.5167 32.4207V37.4254C86.5625 39.23 86.2816 41.028 85.6875 42.7327C85.2075 44.0813 84.4325 45.306 83.4189 46.3174C82.4579 47.2476 81.2983 47.9479 80.0275 48.3658C78.6745 48.8139 77.2602 49.0495 75.8349 49.0641C75.5514 49.0643 75.2691 49.0252 74.9964 48.9478C74.7294 48.8789 74.479 48.757 74.2603 48.5893C74.048 48.4247 73.8774 48.2126 73.7619 47.9701C73.6243 47.6802 73.5679 47.3584 73.5988 47.039C73.6135 46.5806 73.777 46.1394 74.0647 45.782C74.4163 45.4231 74.8945 45.2159 75.397 45.2047ZM92.1208 49.9999C91.5031 49.9999 90.9106 49.7546 90.4738 49.3181C90.037 48.8816 89.7916 48.2895 89.7916 47.6721V30.4468C89.7694 30.1255 89.8208 29.8034 89.9419 29.5049C90.0629 29.2064 90.2505 28.9394 90.4904 28.7243C90.946 28.3404 91.525 28.1337 92.1208 28.1423C92.7166 28.1346 93.2953 28.3411 93.7513 28.7243C93.9911 28.9394 94.1787 29.2064 94.2998 29.5049C94.4209 29.8034 94.4723 30.1255 94.4501 30.4468V47.6721C94.4501 48.2895 94.2046 48.8816 93.7678 49.3181C93.331 49.7546 92.7386 49.9999 92.1208 49.9999Z" fill="white"/>
<path d="M100.879 49.0687C100.254 49.0858 99.6284 49.0311 99.0155 48.9058C98.6054 48.8281 98.2275 48.6304 97.9301 48.3378C97.6548 48.0252 97.474 47.641 97.4084 47.2298C97.3047 46.6381 97.2578 46.038 97.2686 45.4374V32.565C97.258 31.9644 97.3048 31.3643 97.4084 30.7726C97.4738 30.3627 97.6547 29.98 97.9301 29.6693C98.2272 29.3779 98.6056 29.1831 99.0155 29.1106C99.6295 28.9938 100.254 28.9423 100.879 28.957H108.3C108.593 28.9477 108.885 29.0117 109.148 29.1432C109.359 29.2561 109.542 29.4153 109.683 29.6087C109.817 29.7976 109.912 30.0113 109.963 30.2372C110.017 30.4582 110.045 30.6847 110.047 30.9123C110.046 31.1475 110.018 31.3819 109.963 31.6106C109.913 31.8385 109.815 32.0529 109.674 32.2391C109.527 32.4321 109.339 32.591 109.124 32.7046C108.87 32.8369 108.586 32.901 108.3 32.8908H102.5C102.332 32.8741 102.165 32.9243 102.034 33.0305C101.923 33.1854 101.873 33.3763 101.894 33.5659V44.5063C101.872 44.696 101.922 44.887 102.034 45.0417C102.165 45.1479 102.332 45.1981 102.5 45.1814H109.371C109.665 45.1722 109.956 45.2361 110.219 45.3676C110.43 45.4805 110.614 45.6396 110.755 45.8331C110.887 46.0231 110.982 46.2364 111.034 46.4616C111.08 46.6805 111.1 46.9039 111.095 47.1274C111.095 47.3596 111.067 47.591 111.011 47.8164C110.957 48.0386 110.859 48.2476 110.722 48.4309C110.577 48.6257 110.389 48.7848 110.172 48.8964C109.916 49.0193 109.633 49.0784 109.348 49.0687H100.879ZM112.455 30.4002C112.433 30.0844 112.485 29.7679 112.606 29.4755C112.728 29.1831 112.915 28.9227 113.154 28.7149C113.604 28.3388 114.174 28.1358 114.761 28.1422C115.055 28.1422 115.347 28.1943 115.623 28.2959C115.892 28.3909 116.14 28.5363 116.354 28.7242C116.571 28.9193 116.746 29.157 116.867 29.4225C117.007 29.729 117.075 30.0633 117.067 30.4002V36.2894H117.836C118.141 36.2799 118.445 36.3438 118.721 36.4756C118.94 36.5862 119.131 36.7454 119.28 36.9411C119.419 37.1383 119.522 37.3591 119.583 37.5929C119.643 37.8241 119.674 38.0617 119.676 38.3005C119.674 38.5409 119.643 38.7801 119.583 39.0128C119.522 39.2466 119.419 39.4675 119.28 39.6646C119.13 39.8643 118.933 40.0241 118.707 40.1301C118.436 40.2617 118.137 40.3256 117.836 40.3164H117.067V47.672C117.061 48.2854 116.813 48.8715 116.377 49.303C115.94 49.7345 115.352 49.9765 114.738 49.9765C114.435 49.9771 114.135 49.918 113.855 49.8024C113.575 49.6868 113.32 49.517 113.106 49.3029C112.892 49.0888 112.722 48.8345 112.606 48.5547C112.49 48.2748 112.431 47.9748 112.432 47.672L112.455 30.4002Z" fill="white"/>
<path d="M125.173 44.2038C125.153 44.3469 125.164 44.4925 125.204 44.6312C125.244 44.7699 125.313 44.8987 125.406 45.0092C125.656 45.1653 125.951 45.2341 126.244 45.2047H132.65C132.96 45.198 133.269 45.2534 133.558 45.3677C133.793 45.4689 134.002 45.6198 134.173 45.81C134.331 45.9897 134.45 46.2006 134.522 46.4291C134.593 46.6505 134.629 46.8813 134.629 47.1135C134.629 47.5929 134.465 48.0579 134.164 48.431C133.975 48.6408 133.74 48.8036 133.477 48.9063C133.214 49.009 132.931 49.0487 132.65 49.0223H124.521C123.893 49.0344 123.266 48.9639 122.657 48.8127C122.19 48.6988 121.76 48.4663 121.409 48.1377C121.074 47.7983 120.833 47.3781 120.71 46.918C120.549 46.3107 120.475 45.6837 120.491 45.0558V40.8193C120.474 40.1912 120.547 39.564 120.71 38.9571C120.836 38.501 121.077 38.0844 121.409 37.7466C121.759 37.4204 122.19 37.1924 122.657 37.0856C123.268 36.9425 123.894 36.8753 124.521 36.8854H128.69V33.5101C128.692 33.3475 128.652 33.1869 128.573 33.0446C128.515 32.9667 128.436 32.9062 128.346 32.8693C128.256 32.8324 128.157 32.8206 128.061 32.8351H122.704C122.385 32.849 122.067 32.7934 121.772 32.6722C121.535 32.5695 121.327 32.4095 121.167 32.2066C121.009 32.0225 120.891 31.8088 120.817 31.5781C120.74 31.3533 120.701 31.1174 120.701 30.8798C120.7 30.6432 120.735 30.408 120.803 30.1815C120.873 29.9492 120.992 29.7348 121.153 29.553C121.323 29.3552 121.534 29.1964 121.772 29.0874C122.065 28.9589 122.384 28.8984 122.704 28.9105H129.296C129.963 28.8985 130.631 28.9609 131.285 29.0967C131.745 29.1915 132.174 29.3996 132.533 29.702C132.85 29.9974 133.076 30.3768 133.185 30.796C133.319 31.3443 133.382 31.9076 133.372 32.472V39.3668C133.372 39.5316 133.339 39.6948 133.276 39.8471C133.213 39.9993 133.12 40.1376 133.003 40.2539C132.886 40.3703 132.747 40.4624 132.595 40.5251C132.442 40.5878 132.279 40.6197 132.114 40.6191H126.244C125.95 40.5907 125.655 40.6612 125.406 40.8193C125.313 40.9291 125.244 41.0571 125.204 41.195C125.164 41.3329 125.153 41.4777 125.173 41.62V44.2038ZM138.706 49.9999C138.088 49.9999 137.495 49.7546 137.059 49.3181C136.622 48.8816 136.376 48.2895 136.376 47.6721V30.4468C136.354 30.1255 136.405 29.8034 136.527 29.5049C136.648 29.2064 136.835 28.9394 137.075 28.7243C137.531 28.3404 138.11 28.1337 138.706 28.1423C139.301 28.1346 139.88 28.3411 140.336 28.7243C140.576 28.9394 140.763 29.2064 140.885 29.5049C141.006 29.8034 141.057 30.1255 141.035 30.4468V47.6721C141.035 48.2895 140.789 48.8816 140.353 49.3181C139.916 49.7546 139.323 49.9999 138.706 49.9999Z" fill="white"/>
<path d="M162.999 37.919C163.311 37.9113 163.622 37.9717 163.908 38.0959C164.155 38.2123 162.51 38.3613 162.65 38.5382C162.805 38.7167 162.919 38.9262 162.985 39.1527C163.055 39.379 163.091 39.6143 163.093 39.851C163.091 40.3302 162.927 40.7947 162.627 41.1686C162.324 41.5643 163.689 41.7598 162.99 41.7598H145.102C144.822 41.787 144.54 41.7476 144.278 41.6448C144.017 41.5421 143.783 41.3788 143.597 41.1686C143.297 40.7949 143.132 40.3303 143.131 39.851C143.131 39.6145 143.165 39.3792 143.234 39.1527C143.3 38.9251 143.416 38.7152 143.574 38.5382C143.742 38.3493 143.948 38.1985 144.179 38.0959C144.465 37.9708 144.775 37.9104 145.088 37.919H162.999ZM147.44 36.5224C146.892 36.5348 146.344 36.4769 145.81 36.3501C145.42 36.2609 145.065 36.0622 144.785 35.7775C144.519 35.4868 144.337 35.1297 144.258 34.744C144.148 34.2191 144.098 33.6833 144.109 33.1471V30.6099C144.081 30.2871 144.13 29.9622 144.254 29.6625C144.377 29.3627 144.57 29.0969 144.817 28.8874C145.307 28.5273 145.901 28.3391 146.508 28.352C147.108 28.3364 147.694 28.5252 148.172 28.8874C148.413 29.1005 148.602 29.3674 148.722 29.6666C148.841 29.9657 148.889 30.2889 148.861 30.6099V32.3324C148.861 32.5978 148.898 32.7607 148.977 32.798C149.135 32.8799 149.314 32.9124 149.49 32.8911H162.138C162.415 32.8636 162.695 32.8988 162.957 32.9938C163.219 33.0889 163.456 33.2415 163.652 33.4404C163.941 33.7898 164.098 34.23 164.094 34.6835C164.098 35.1495 163.932 35.601 163.628 35.9544C163.434 36.1505 163.199 36.3012 162.94 36.3954C162.68 36.4896 162.403 36.525 162.128 36.4991L147.44 36.5224ZM147.65 50C147.101 50.0124 146.553 49.9545 146.019 49.8278C145.63 49.7386 145.274 49.5399 144.994 49.2551C144.729 48.9645 144.547 48.6073 144.468 48.2216C144.36 47.6964 144.31 47.1609 144.319 46.6248V44.9721C144.29 44.6479 144.34 44.3215 144.466 44.0213C144.592 43.7211 144.789 43.4561 145.041 43.2496C145.534 42.8904 146.131 42.7024 146.741 42.7142C147.341 42.6986 147.927 42.8874 148.405 43.2496C148.646 43.4627 148.835 43.7296 148.955 44.0288C149.074 44.328 149.122 44.6511 149.094 44.9721V45.8101C149.094 46.0754 149.131 46.2384 149.21 46.2989C149.368 46.3809 149.546 46.4133 149.723 46.392H162.277C162.555 46.3646 162.835 46.3997 163.097 46.4948C163.359 46.5898 163.596 46.7424 163.791 46.9414C164.089 47.2875 164.254 47.728 164.257 48.1844C164.261 48.6504 164.095 49.1019 163.791 49.4553C163.597 49.6515 163.362 49.8021 163.103 49.8963C162.843 49.9905 162.566 50.0259 162.291 50H147.65Z" fill="white"/>
<path d="M189.506 45.6005C189.826 45.5913 190.144 45.6517 190.438 45.7774C190.679 45.885 190.893 46.0439 191.066 46.2429C191.229 46.4285 191.349 46.648 191.416 46.8854C191.485 47.115 191.521 47.3533 191.523 47.593C191.522 47.8382 191.483 48.0817 191.407 48.3146C191.328 48.5459 191.204 48.7595 191.043 48.9431C190.876 49.1431 190.666 49.3023 190.428 49.4087C190.14 49.5257 189.831 49.5812 189.52 49.5716H171.725C171.414 49.5821 171.104 49.5266 170.816 49.4087C170.576 49.3037 170.364 49.1443 170.197 48.9431C170.035 48.7606 169.913 48.5466 169.838 48.3146C169.759 48.0822 169.72 47.8383 169.721 47.593C169.722 47.3535 169.756 47.1152 169.824 46.8854C169.891 46.648 170.011 46.4285 170.173 46.2429C170.347 46.0439 170.561 45.885 170.802 45.7774C171.096 45.6519 171.414 45.5916 171.734 45.6005H189.506ZM188.411 28.8873C188.701 28.8803 188.988 28.9409 189.25 29.0642C189.47 29.1727 189.662 29.3323 189.809 29.5297C189.946 29.7161 190.049 29.9259 190.112 30.1489C190.172 30.3642 190.203 30.5865 190.205 30.81C190.203 31.035 190.172 31.2589 190.112 31.4757C190.05 31.6974 189.942 31.9037 189.795 32.0809C189.643 32.2731 189.452 32.4316 189.236 32.5465C188.979 32.6694 188.696 32.7284 188.411 32.7187H184.684C184.504 32.7006 184.322 32.7468 184.172 32.8491C184.117 32.9187 184.076 32.9986 184.052 33.0841C184.028 33.1696 184.021 33.2591 184.032 33.3472V37.1414C184.012 37.3237 184.062 37.507 184.172 37.6536C184.319 37.7639 184.502 37.8139 184.684 37.7932H188.761C189.05 37.7863 189.337 37.8469 189.599 37.9701C189.818 38.0811 190.009 38.2403 190.158 38.4357C190.298 38.6165 190.404 38.8217 190.47 39.0409C190.539 39.2546 190.575 39.4775 190.577 39.702C190.576 39.928 190.539 40.1525 190.47 40.3677C190.403 40.5892 190.292 40.795 190.144 40.9729C189.992 41.1651 189.802 41.3237 189.585 41.4385C189.328 41.5614 189.045 41.6204 188.761 41.6107H174.133C173.541 41.6235 172.949 41.5609 172.372 41.4245C171.948 41.3289 171.559 41.1197 171.245 40.8193C170.948 40.5121 170.739 40.1311 170.639 39.7159C170.502 39.1555 170.44 38.5795 170.453 38.0027V32.5791C170.44 32.0116 170.503 31.4449 170.639 30.8938C170.741 30.4753 170.95 30.0904 171.245 29.7764C171.556 29.4698 171.946 29.2555 172.372 29.1573C172.949 29.0233 173.541 28.9608 174.133 28.971L188.411 28.8873ZM175.065 37.1042C175.044 37.2865 175.094 37.4698 175.204 37.6163C175.351 37.7267 175.534 37.7766 175.717 37.756H179.467V32.6954H175.717C175.536 32.6774 175.355 32.7235 175.204 32.8258C175.149 32.8955 175.109 32.9753 175.085 33.0609C175.061 33.1464 175.054 33.2358 175.065 33.3239V37.1042Z" fill="white"/>
<path d="M194.723 45.4143C195.498 45.3509 196.251 45.129 196.936 44.7625C197.526 44.4361 198.029 43.9731 198.404 43.4124C198.793 42.8129 199.07 42.147 199.219 41.4478C199.396 40.617 199.482 39.7693 199.475 38.9198V33.5195C199.48 33.3652 199.425 33.215 199.321 33.1005C199.266 33.0443 199.199 33.0007 199.125 32.9726C199.051 32.9445 198.972 32.9326 198.893 32.9375H195.166C194.857 32.9481 194.55 32.8893 194.267 32.7653C194.035 32.6536 193.829 32.4951 193.661 32.2997C193.501 32.118 193.382 31.9035 193.312 31.6712C193.244 31.4447 193.209 31.2094 193.209 30.9729C193.209 30.7364 193.244 30.5011 193.312 30.2746C193.38 30.0436 193.496 29.8295 193.652 29.6461C193.815 29.4465 194.023 29.2873 194.258 29.1806C194.551 29.052 194.869 28.9915 195.189 29.0036H200.29C200.846 28.9945 201.401 29.0492 201.944 29.1666C202.347 29.2546 202.722 29.4383 203.039 29.702C203.325 29.9652 203.53 30.3042 203.63 30.6796C203.758 31.1657 203.817 31.667 203.807 32.1694V38.9897C203.842 40.5282 203.609 42.0609 203.118 43.5195C202.716 44.6822 202.082 45.7513 201.255 46.6619C200.512 47.475 199.597 48.1114 198.576 48.5241C197.557 48.9347 196.474 49.1662 195.376 49.2085C194.798 49.2526 194.221 49.1194 193.722 48.8267C193.482 48.6838 193.286 48.4782 193.155 48.2321C193.023 47.9859 192.962 47.7087 192.977 47.4301C192.939 46.9324 193.079 46.4373 193.373 46.0335C193.545 45.8457 193.754 45.6942 193.986 45.5879C194.218 45.4815 194.468 45.4225 194.723 45.4143ZM205.135 30.1209C205.116 29.8442 205.162 29.5668 205.269 29.3108C205.375 29.0547 205.54 28.8268 205.75 28.6452C206.153 28.3124 206.662 28.1341 207.185 28.1424C207.703 28.139 208.205 28.3169 208.606 28.6452C208.819 28.8245 208.987 29.0516 209.097 29.308C209.206 29.5644 209.253 29.8429 209.235 30.1209V36.6852H210.399V30.1209C210.381 29.8429 210.428 29.5644 210.537 29.308C210.646 29.0516 210.815 28.8245 211.028 28.6452C211.436 28.3139 211.947 28.1359 212.472 28.1424C212.734 28.1441 212.993 28.1881 213.241 28.2727C213.484 28.3563 213.708 28.4859 213.902 28.6545C214.098 28.8272 214.256 29.0378 214.368 29.2737C214.491 29.539 214.551 29.8288 214.545 30.1209V47.9515C214.545 48.4948 214.329 49.0158 213.945 49.4C213.56 49.7841 213.039 49.9999 212.495 49.9999H212.449C211.905 49.9999 211.384 49.7841 211 49.4C210.615 49.0158 210.399 48.4948 210.399 47.9515V40.5027H209.235V47.9515C209.235 48.4948 209.019 49.0158 208.634 49.4C208.25 49.7841 207.728 49.9999 207.185 49.9999C206.641 49.9999 206.12 49.7841 205.735 49.4C205.351 49.0158 205.135 48.4948 205.135 47.9515V30.1209Z" fill="white"/>
<path d="M225.693 32.4021V32.4952C225.694 32.8378 225.671 33.1801 225.623 33.5194C227.421 33.5194 228.752 33.985 229.615 34.9161C230.078 35.4407 230.408 36.0679 230.58 36.7457C230.66 37.058 230.667 37.3845 230.6 37.6999C230.534 38.0154 230.396 38.3114 230.197 38.5652C229.998 38.8189 229.743 39.0235 229.453 39.1633C229.162 39.3031 228.843 39.3743 228.521 39.3714H228.274C227.85 39.3631 227.44 39.2246 227.098 38.9747C226.756 38.7247 226.5 38.3756 226.364 37.9747C226.283 37.7494 226.162 37.541 226.005 37.3602C225.797 37.1287 225.532 36.9555 225.236 36.8575C224.94 36.7596 224.624 36.7403 224.319 36.8015C223.641 37.702 222.743 38.4124 221.71 38.8639C220.698 39.3135 219.603 39.5466 218.496 39.5483C217.97 39.5674 217.454 39.4027 217.037 39.0827C216.845 38.9327 216.692 38.7393 216.589 38.5184C216.486 38.2974 216.437 38.0553 216.446 37.8118C216.42 37.3499 216.564 36.8945 216.851 36.5315C217.14 36.2166 217.535 36.0179 217.96 35.9728C218.886 35.9176 219.758 35.5192 220.406 34.8555C220.972 34.2151 221.272 33.3823 221.244 32.5278V32.4347H218.309C218.054 32.4419 217.801 32.3859 217.573 32.2717C217.37 32.1686 217.192 32.0224 217.051 31.8434C216.912 31.6685 216.802 31.4719 216.725 31.2615C216.648 31.0562 216.608 30.8385 216.609 30.619C216.609 30.4031 216.641 30.1883 216.702 29.9812C216.76 29.7636 216.863 29.5606 217.005 29.3853C217.154 29.209 217.336 29.0635 217.541 28.957C217.778 28.8344 218.042 28.7736 218.309 28.7801H229C229.267 28.7746 229.531 28.8353 229.769 28.957C229.973 29.0647 230.155 29.21 230.305 29.3853C230.445 29.5616 230.548 29.7643 230.608 29.9812C230.667 30.1888 230.698 30.4033 230.701 30.619C230.699 30.8383 230.66 31.0556 230.584 31.2615C230.506 31.4711 230.396 31.6674 230.258 31.8434C230.116 32.0226 229.936 32.1688 229.732 32.2717C229.505 32.3859 229.254 32.4419 229 32.4347L225.693 32.4021ZM219.227 42.9375C219.045 42.9548 218.861 42.927 218.692 42.8563C218.523 42.7857 218.374 42.6744 218.258 42.5324C218.065 42.2609 217.963 41.9346 217.969 41.6013C217.966 41.2664 218.073 40.9396 218.272 40.6702C218.379 40.5262 218.52 40.4111 218.683 40.3355C218.846 40.2598 219.025 40.2261 219.204 40.2373H234.67C235.676 40.2373 236.393 40.4188 236.813 40.7727C237.232 41.1265 237.441 41.7596 237.441 42.6582V45.1535C237.441 45.3061 237.411 45.4572 237.353 45.5982C237.294 45.7391 237.208 45.8671 237.1 45.9748C236.992 46.0825 236.864 46.1678 236.722 46.2258C236.581 46.2838 236.43 46.3133 236.277 46.3127H223.117C222.976 46.3035 222.837 46.3503 222.73 46.4431C222.689 46.4839 222.657 46.5326 222.635 46.5862C222.614 46.6398 222.603 46.6972 222.604 46.755V46.8248C222.603 46.8833 222.613 46.9416 222.635 46.996C222.656 47.0504 222.689 47.0999 222.73 47.1414C222.837 47.2324 222.976 47.2776 223.117 47.2671H236.277C236.463 47.2519 236.65 47.2821 236.822 47.355C236.994 47.428 237.146 47.5416 237.265 47.6861C237.473 47.9605 237.584 48.2961 237.581 48.6405C237.576 48.9642 237.471 49.2783 237.279 49.539C237.161 49.6884 237.007 49.806 236.832 49.8808C236.657 49.9557 236.466 49.9854 236.277 49.9673H220.927C220.449 49.9794 219.973 49.8922 219.53 49.7112C219.144 49.5564 218.795 49.3234 218.505 49.0269C218.229 48.7435 218.015 48.4058 217.876 48.0352C217.736 47.6633 217.665 47.2689 217.666 46.8714V46.592C217.649 46.2192 217.715 45.8472 217.861 45.5033C218.006 45.1593 218.226 44.8521 218.505 44.6041C219.187 44.0733 220.041 43.8115 220.904 43.8686H232.69V43.2866C232.699 43.1854 232.674 43.084 232.62 42.998C232.578 42.9641 232.529 42.9392 232.477 42.9248C232.425 42.9104 232.371 42.9068 232.317 42.9142L219.227 42.9375ZM232.76 30.4375C232.738 30.1154 232.791 29.7927 232.914 29.4941C233.036 29.1955 233.226 28.929 233.468 28.7149C233.929 28.3319 234.512 28.1256 235.112 28.133C235.409 28.1337 235.704 28.1857 235.983 28.2866C236.265 28.3896 236.523 28.5479 236.743 28.7522C236.964 28.9543 237.142 29.1999 237.265 29.4738C237.404 29.7839 237.472 30.121 237.465 30.4608V37.3043C237.465 37.8661 237.241 38.4049 236.844 38.8021C236.446 39.1994 235.907 39.4226 235.345 39.4226H234.879C234.601 39.4232 234.325 39.3688 234.068 39.2626C233.81 39.1563 233.576 39.0004 233.379 38.8035C233.182 38.6067 233.026 38.3729 232.92 38.1157C232.814 37.8584 232.759 37.5827 232.76 37.3043V30.4375Z" fill="white"/>
<path d="M248.519 49.1153C247.893 49.1317 247.267 49.0691 246.656 48.929C246.234 48.839 245.851 48.6192 245.561 48.3006C245.284 47.9588 245.104 47.5487 245.039 47.1134C244.936 46.4982 244.889 45.8749 244.9 45.2512V32.7279C244.889 32.1042 244.936 31.4809 245.039 30.8657C245.105 30.4309 245.285 30.0213 245.561 29.6786C245.854 29.3633 246.236 29.1441 246.656 29.0501C247.267 28.9123 247.893 28.8498 248.519 28.8639H253.97C254.596 28.8493 255.222 28.9119 255.833 29.0501C256.253 29.1441 256.635 29.3633 256.928 29.6786C257.205 30.0209 257.387 30.4305 257.454 30.8657C257.557 31.4809 257.604 32.1042 257.594 32.7279V47.0063C257.594 47.2806 257.54 47.5522 257.435 47.8055C257.329 48.0589 257.175 48.289 256.981 48.4827C256.787 48.6765 256.556 48.83 256.302 48.9345C256.049 49.0391 255.777 49.0926 255.502 49.092L248.519 49.1153ZM249.428 44.6227C249.411 44.8323 249.463 45.0415 249.577 45.2186C249.659 45.2947 249.758 45.3517 249.865 45.3855C249.972 45.4193 250.085 45.4291 250.196 45.4141H252.307C252.507 45.4141 252.699 45.3347 252.84 45.1932C252.982 45.0518 253.061 44.86 253.061 44.66V33.3797C253.069 33.1868 253.029 32.995 252.945 32.821C252.886 32.7432 252.808 32.6826 252.718 32.6457C252.627 32.6088 252.529 32.597 252.432 32.6115H250.033C249.766 32.6115 249.598 32.6814 249.53 32.821C249.454 32.997 249.419 33.1881 249.428 33.3797V44.6227ZM260.142 30.4002C260.12 30.0844 260.172 29.7679 260.293 29.4755C260.415 29.1831 260.602 28.9227 260.841 28.7149C261.291 28.3388 261.861 28.1358 262.448 28.1422C262.742 28.1422 263.034 28.1943 263.31 28.2959C263.579 28.3909 263.827 28.5363 264.041 28.7242C264.258 28.9193 264.433 29.157 264.554 29.4225C264.694 29.729 264.762 30.0633 264.754 30.4002V36.2894H265.523C265.828 36.2799 266.132 36.3438 266.408 36.4756C266.627 36.5862 266.818 36.7454 266.967 36.9411C267.107 37.1383 267.209 37.3591 267.27 37.5929C267.33 37.8241 267.361 38.0617 267.363 38.3005C267.361 38.5409 267.33 38.7801 267.27 39.0128C267.209 39.2466 267.107 39.4675 266.967 39.6646C266.817 39.8643 266.62 40.0241 266.394 40.1301C266.123 40.2617 265.824 40.3256 265.523 40.3164H264.754V47.672C264.748 48.2854 264.5 48.8715 264.064 49.303C263.627 49.7345 263.039 49.9765 262.425 49.9765C262.122 49.9771 261.822 49.918 261.542 49.8024C261.262 49.6868 261.007 49.517 260.793 49.3029C260.579 49.0888 260.409 48.8345 260.293 48.5547C260.178 48.2748 260.118 47.9748 260.119 47.672L260.142 30.4002Z" fill="white"/>
<path d="M287.334 45.6004C287.653 45.5913 287.971 45.6516 288.265 45.7773C288.506 45.885 288.721 46.0439 288.894 46.2429C289.057 46.4285 289.176 46.6479 289.243 46.8853C289.312 47.115 289.348 47.3532 289.351 47.593C289.35 47.8382 289.311 48.0817 289.234 48.3146C289.155 48.5459 289.032 48.7594 288.871 48.9431C288.704 49.1431 288.494 49.3023 288.256 49.4086C287.968 49.5256 287.658 49.5811 287.348 49.5716H269.552C269.241 49.5821 268.932 49.5266 268.644 49.4086C268.404 49.3036 268.192 49.1443 268.024 48.9431C267.863 48.7606 267.74 48.5466 267.666 48.3146C267.587 48.0822 267.548 47.8383 267.549 47.593C267.55 47.3535 267.584 47.1152 267.652 46.8853C267.719 46.6479 267.838 46.4285 268.001 46.2429C268.174 46.0439 268.389 45.885 268.63 45.7773C268.924 45.6519 269.242 45.5916 269.561 45.6004H287.334ZM280.788 30.9356C280.767 31.66 280.657 32.3791 280.462 33.0772C281.458 33.1144 282.441 33.3108 283.374 33.6591C284.339 34.0206 285.225 34.5661 285.983 35.2653C286.795 36.0348 287.454 36.951 287.925 37.9654C288.028 38.1796 288.121 38.403 288.209 38.6312C288.341 38.9908 288.385 39.3769 288.335 39.7568C288.286 40.1367 288.145 40.499 287.926 40.8131C287.706 41.1271 287.414 41.3835 287.074 41.5604C286.734 41.7374 286.356 41.8297 285.973 41.8295C285.493 41.8298 285.025 41.6844 284.63 41.4125C284.235 41.1406 283.931 40.7551 283.76 40.3071C283.681 40.1009 283.591 39.8989 283.49 39.7019C283.185 39.102 282.769 38.565 282.265 38.1191C281.778 37.6927 281.213 37.364 280.602 37.1507C279.965 36.9336 279.295 36.8311 278.622 36.8481C278.095 37.5751 277.494 38.246 276.829 38.85C276.18 39.4397 275.473 39.9623 274.718 40.4096C274 40.838 273.234 41.1817 272.436 41.4338C271.683 41.6798 270.898 41.8131 270.107 41.8295C269.57 41.8551 269.042 41.6902 268.616 41.3639C268.408 41.2039 268.236 41.0017 268.111 40.7707C267.987 40.5396 267.913 40.2849 267.894 40.0232C267.818 39.5076 267.943 38.9828 268.243 38.5567C268.562 38.1222 269.039 37.8298 269.571 37.742C270.356 37.5692 271.111 37.2804 271.812 36.8854C272.536 36.4825 273.193 35.9688 273.759 35.363C274.345 34.7292 274.832 34.0103 275.203 33.2308C275.601 32.3854 275.86 31.4816 275.972 30.5539C275.992 30.2321 276.083 29.9187 276.237 29.6356C276.392 29.3525 276.606 29.1066 276.866 28.9151C277.373 28.5616 277.988 28.3968 278.604 28.4496C279.217 28.4831 279.797 28.7398 280.234 29.1712C280.444 29.4106 280.602 29.6912 280.697 29.995C280.793 30.2988 280.824 30.6192 280.788 30.9356Z" fill="white"/>
<path d="M295.136 49.0687C294.511 49.0858 293.886 49.0311 293.273 48.9058C292.863 48.8281 292.485 48.6304 292.188 48.3378C291.912 48.0252 291.732 47.641 291.666 47.2298C291.562 46.6381 291.515 46.038 291.526 45.4374V32.565C291.516 31.9644 291.562 31.3643 291.666 30.7726C291.731 30.3627 291.912 29.98 292.188 29.6693C292.485 29.3779 292.863 29.1831 293.273 29.1106C293.887 28.9938 294.512 28.9423 295.136 28.957H302.427C302.721 28.9477 303.012 29.0117 303.275 29.1432C303.486 29.2561 303.669 29.4153 303.81 29.6087C303.943 29.7987 304.037 30.0119 304.09 30.2372C304.144 30.4582 304.172 30.6847 304.174 30.9123C304.174 31.1475 304.145 31.3819 304.09 31.6106C304.038 31.8378 303.94 32.0518 303.801 32.2391C303.654 32.4321 303.466 32.591 303.251 32.7046C302.997 32.8369 302.713 32.901 302.427 32.8909H296.767C296.599 32.8741 296.432 32.9243 296.301 33.0305C296.19 33.1854 296.14 33.3763 296.161 33.5659V36.9644H301.053C301.348 36.9562 301.642 37.0118 301.915 37.1274C302.133 37.2292 302.327 37.3769 302.483 37.5603C302.633 37.7404 302.744 37.9497 302.809 38.1749C302.88 38.4089 302.916 38.652 302.916 38.8965C302.915 39.1332 302.879 39.3685 302.809 39.5948C302.744 39.8213 302.633 40.0321 302.483 40.214C302.324 40.3997 302.125 40.5463 301.901 40.6423C301.633 40.7578 301.344 40.8134 301.053 40.8052H296.161V44.5296C296.139 44.7192 296.189 44.9103 296.301 45.065C296.432 45.1712 296.599 45.2214 296.767 45.2046H303.731C304.025 45.1954 304.316 45.2594 304.579 45.3909C304.79 45.5038 304.974 45.6629 305.115 45.8564C305.247 46.0464 305.342 46.2596 305.394 46.4849C305.449 46.7059 305.477 46.9324 305.478 47.16C305.478 47.3922 305.45 47.6236 305.394 47.849C305.341 48.0712 305.242 48.2802 305.106 48.4635C304.96 48.6582 304.772 48.8174 304.556 48.929C304.299 49.0519 304.016 49.111 303.731 49.1013L295.136 49.0687ZM307.365 40.7586H305.502C305.197 40.7704 304.894 40.7114 304.616 40.5864C304.394 40.4799 304.202 40.3199 304.057 40.1208C303.916 39.9248 303.813 39.7036 303.755 39.4691C303.692 39.2368 303.661 38.9973 303.661 38.7568C303.661 38.5178 303.692 38.2798 303.755 38.0491C303.811 37.8168 303.914 37.5983 304.057 37.4067C304.207 37.2126 304.398 37.0537 304.616 36.9411C304.892 36.809 305.196 36.7451 305.502 36.7549H307.365V30.4002C307.343 30.0844 307.395 29.7679 307.516 29.4755C307.637 29.1831 307.825 28.9227 308.064 28.7149C308.514 28.3388 309.084 28.1358 309.671 28.1422C309.965 28.1422 310.257 28.1943 310.533 28.2959C310.805 28.3929 311.057 28.538 311.278 28.7242C311.499 28.9175 311.677 29.1555 311.8 29.4225C311.94 29.729 312.008 30.0633 312 30.4002V47.686C312 48.3034 311.755 48.8955 311.318 49.332C310.881 49.7685 310.289 50.0138 309.671 50.0138C309.053 50.0138 308.461 49.7685 308.024 49.332C307.587 48.8955 307.342 48.3034 307.342 47.686L307.365 40.7586Z" fill="white"/>
</g>
<defs>
<clipPath id="clip0_3887_85167">
<rect width="312" height="50" fill="white"/>
</clipPath>
</defs>
</svg>
