<svg width="250" height="190" viewBox="0 0 250 190" fill="none" xmlns="http://www.w3.org/2000/svg">
<path d="M230 52C232.761 52 235 49.7614 235 47C235 44.2386 232.761 42 230 42C227.239 42 225 44.2386 225 47C225 49.7614 227.239 52 230 52Z" fill="#57BEB7"/>
<path d="M66 27C67.1046 27 68 26.1046 68 25C68 23.8954 67.1046 23 66 23C64.8954 23 64 23.8954 64 25C64 26.1046 64.8954 27 66 27Z" fill="#ECCD52"/>
<path d="M223 74C224.105 74 225 73.1046 225 72C225 70.8954 224.105 70 223 70C221.895 70 221 70.8954 221 72C221 73.1046 221.895 74 223 74Z" fill="#ECCD52"/>
<path d="M40.5 69C42.9853 69 45 66.9853 45 64.5C45 62.0147 42.9853 60 40.5 60C38.0147 60 36 62.0147 36 64.5C36 66.9853 38.0147 69 40.5 69Z" fill="#DC4C7C"/>
<g clip-path="url(#clip0_3801_84101)">
<g clip-path="url(#clip1_3801_84101)">
<path d="M134.66 144.663C134.66 144.663 132.278 159.023 119.329 158.883C106.38 158.743 97.8314 157.847 93.6832 127.504C89.5351 97.1325 129.167 120.646 129.167 120.646L134.66 144.663Z" fill="#95BC9C"/>
<path d="M139.2 18.2271C124.934 18.2271 106.267 24.4133 98.8115 33.8466C84.9096 51.4816 90.5713 53.1611 82.7795 76.4505C63.1038 135.43 127.484 144.163 129.923 141.588C129.923 141.588 136.509 158.355 151.616 158.943C166.723 159.531 199.909 140.748 202.711 101.279C206.467 47.8146 179.7 18.1991 139.2 18.2271Z" fill="#AAD6B3"/>
<path d="M83.8685 96.652C83.8685 96.652 82.235 104.277 89.186 104.977C96.1089 105.677 101.05 109.388 97.8545 110.2C97.8545 110.2 101.891 112.803 101.022 114.791C100.153 116.75 96.4531 117.226 96.4531 117.226C96.4531 117.226 101.47 119.186 100.825 120.753C100.181 122.321 97.0417 124.448 92.305 123.888C84.7374 122.993 75.5162 108.409 80.4211 91.8374" fill="#66976F"/>
<path d="M142.453 142.379C142.453 142.379 142.593 142.519 142.901 142.743C142.481 142.547 142.453 142.379 142.453 142.379Z" fill="#95BC9C"/>
<path d="M169.387 140.305C197.779 128.856 201.507 87.0361 201.535 86.8682C201.703 91.4868 201.591 96.3015 201.255 101.284C198.48 140.753 165.267 159.535 150.16 158.948C149.123 158.92 148.17 158.78 147.245 158.584C154.504 157.548 153.775 147.415 153.775 147.415C151.225 147.107 145.619 143.832 144.134 142.712C145.479 143.356 150.524 147.919 169.387 140.305Z" fill="#95BC9C"/>
<path d="M164.706 106.906C163.025 108.949 149.375 124.96 137.603 123.505C133.623 123.001 130.961 121.825 129.896 120.09C128.999 118.634 129.503 117.235 129.531 117.179L129.896 116.171L128.831 116.059C127.569 115.919 125.411 115.359 124.991 114.323C124.71 113.68 125.243 112.84 125.719 112.224L126.476 111.3L125.355 110.908C124.991 110.797 124.458 110.545 123.954 110.265C123.954 110.265 123.954 110.265 123.926 110.293C123.197 109.873 122.552 109.313 122.468 108.753C122.384 108.193 122.945 107.465 124.066 106.738C127.289 104.582 130.708 102.091 133.455 100.104C134.66 99.2358 135.754 98.452 136.678 97.7802C136.875 97.4443 137.043 97.1084 137.127 96.8565L137.687 97.0524C137.743 96.9964 137.828 96.9404 137.912 96.9125C138.304 96.6605 138.388 96.1287 138.136 95.7368C137.884 95.3449 137.351 95.2609 136.959 95.5129C135.81 96.2966 134.268 97.4163 132.474 98.7319C129.727 100.719 126.308 103.183 123.141 105.338C121.431 106.486 120.646 107.717 120.843 108.977C120.983 110.013 121.768 110.824 122.608 111.44C122.356 111.636 122.104 111.86 121.88 112.056C117.059 115.975 124.346 117.403 124.346 117.403C120.114 123.001 128.13 122.413 128.13 122.413C128.13 122.413 124.038 128.04 137.267 128.571C145.059 128.879 153.523 121.405 159.129 115.219C163.025 110.908 165.575 107.242 165.575 107.242L164.706 106.906Z" fill="#92B799"/>
<path d="M77.4263 154.091C84.5469 154.091 90.3192 148.326 90.3192 141.215C90.3192 134.103 84.5469 128.338 77.4263 128.338C70.3058 128.338 64.5334 134.103 64.5334 141.215C64.5334 148.326 70.3058 154.091 77.4263 154.091Z" fill="#EF660F"/>
<path d="M82.667 131.843C82.667 131.843 81.2936 130.667 78.2105 130.276C75.3517 129.912 73.1935 131.311 72.5769 131.731L72.2126 131.255L71.8762 130.779C72.5769 130.276 75.0714 128.68 78.3507 129.1C81.8262 129.548 83.3677 130.891 83.4518 130.975L82.667 131.843Z" fill="#E85C0A"/>
<path d="M73.9243 151.719L74.0644 151.131L73.9243 151.719C72.5789 151.411 68.0945 150.123 66.3287 145.757C64.4789 141.166 65.5719 137.975 65.6 137.835L66.7211 138.227C66.7211 138.255 65.7401 141.138 67.4218 145.309C68.9633 149.116 72.9713 150.291 74.1485 150.543L74.0364 151.131L73.9243 151.719Z" fill="#E85C0A"/>
<path d="M82.8076 134.137C82.8076 134.137 81.4343 132.961 78.3512 132.57C75.4923 132.206 73.3342 133.605 72.7175 134.025L72.3532 133.549L72.0168 133.073C72.7175 132.57 75.212 130.974 78.4913 131.394C81.9668 131.842 83.5083 133.185 83.5924 133.269L82.8076 134.137Z" fill="#E85C0A"/>
<path d="M83.5376 136.656C83.5376 136.656 82.1642 135.48 79.0812 135.088C76.2223 134.724 74.0641 136.124 73.4475 136.544L73.0832 136.068L72.7468 135.592C73.4475 135.088 75.942 133.493 79.2213 133.912C82.6968 134.36 84.2383 135.732 84.3224 135.788L83.5376 136.656Z" fill="#E85C0A"/>
<path d="M83.5376 139.144C83.5376 139.144 82.1642 137.968 79.0812 137.576C76.2223 137.212 74.0641 138.612 73.4475 139.032L73.0832 138.556L72.7468 138.08C73.4475 137.576 75.942 135.981 79.2213 136.401C82.6968 136.849 84.2383 138.22 84.3224 138.276L83.5376 139.144Z" fill="#E85C0A"/>
<path d="M65.0393 137.717C65.0393 137.717 66.4407 145.135 73.1114 148.354C79.754 151.573 86.705 150.201 86.705 150.201C87.0133 150.061 87.6579 149.698 88.1064 148.942C88.3586 148.522 88.4707 148.102 88.5268 147.822C88.8071 147.598 89.3116 147.066 89.5638 146.254C89.704 145.835 89.732 145.443 89.704 145.163C89.8721 145.023 90.3206 144.603 90.4887 143.847C90.6569 143.119 90.4047 142.532 90.3206 142.336C89.3676 142.056 88.0223 141.636 86.4527 141.048C84.2665 140.236 81.5198 139.061 79.3896 137.717C75.1014 135.002 72.747 129.235 72.747 129.235C72.4107 129.235 71.8501 129.263 71.2615 129.543C70.3086 129.963 69.8041 130.691 69.6079 130.999C69.2155 131.139 68.4587 131.447 67.758 132.175C67.0013 132.958 66.721 133.826 66.6089 134.246C66.3006 134.498 65.7961 135.002 65.4317 135.785C65.0673 136.569 65.0393 137.325 65.0393 137.717Z" fill="#FF892D"/>
<path d="M76.6692 147.574L77.0616 147.686L77.5381 146.146L77.1457 146.034C69.438 143.627 66.7753 134.054 66.7753 133.97L66.7473 133.858C66.6912 133.998 66.6632 134.11 66.6352 134.222C66.3549 134.446 65.9345 134.866 65.5981 135.537C66.5231 138.253 69.6622 145.391 76.6692 147.574Z" fill="#F97619"/>
<path d="M81.6027 144.073L81.9671 144.185L82.4716 142.673L82.1072 142.561C82.0511 142.533 76.6417 140.714 73.5306 137.607C70.8119 134.891 70.3074 131.28 70.2514 130.581L70.2233 130.217C69.915 130.525 69.7188 130.805 69.6347 130.973C69.4105 131.057 69.1022 131.169 68.7659 131.392C68.9901 132.82 69.8029 136.095 72.4375 138.754C75.8009 142.113 81.3785 143.989 81.6027 144.073Z" fill="#F97619"/>
<path d="M82.3315 129.323C82.5837 129.295 83.2844 129.239 84.0132 129.659C84.7699 130.079 85.1063 130.75 85.1903 130.946C85.4426 130.974 86.2834 131.142 86.9561 131.87C87.5167 132.486 87.6568 133.186 87.6848 133.466C87.9371 133.578 88.834 134.054 89.2824 135.145C89.5627 135.817 89.5347 136.405 89.4786 136.713C89.7869 137.301 90.1233 138.112 90.3195 139.176C90.5717 140.52 90.4316 141.639 90.2914 142.367C89.0862 144.97 87.853 147.602 86.6478 150.205C86.5357 150.429 86.3115 150.905 85.835 151.297C85.3585 151.688 84.882 151.828 84.6298 151.884C84.4336 152.164 83.9011 152.808 83.0042 153.116C82.6118 153.256 82.2474 153.284 81.9951 153.256C81.6588 153.536 80.9021 154.068 79.7529 154.208C79.0522 154.292 78.4916 154.18 78.1273 154.068C77.7069 154.208 76.8941 154.404 75.9131 154.292C74.9881 154.18 74.2874 153.816 73.8951 153.592C73.5307 153.62 72.7739 153.648 71.9611 153.256C71.0923 152.864 70.5877 152.248 70.3635 151.968C72.6618 149.673 75.7449 146.174 78.2394 141.191C81.1263 135.509 82.3315 129.323 82.3315 129.323Z" fill="#F77417"/>
<path d="M85.9187 131.142C85.5824 131.002 85.3021 130.974 85.19 130.946C85.1339 130.778 84.9377 130.414 84.5453 130.05C84.0128 132.122 82.163 138.924 80.3692 142.423C78.7435 145.586 74.6515 151.044 72.7175 153.508C73.222 153.62 73.6425 153.592 73.8667 153.592C74.0068 153.676 74.203 153.788 74.4272 153.9C76.5013 151.184 80.173 146.23 81.7706 143.151C83.5363 139.792 85.218 133.801 85.9187 131.142Z" fill="#F26C18"/>
<path d="M88.4408 133.938C88.1325 133.658 87.8242 133.518 87.7121 133.462C87.684 133.238 87.5719 132.734 87.2076 132.202C86.7311 134.33 84.9373 141.887 83.2556 144.379C81.7421 146.618 78.7992 151.685 77.2856 154.288C77.622 154.232 77.9303 154.148 78.1265 154.092C78.3787 154.176 78.7431 154.232 79.1635 154.26C80.7331 151.545 83.2556 147.234 84.601 145.274C86.1705 142.923 87.7121 137.045 88.4408 133.938Z" fill="#F26C18"/>
<path d="M90.2075 138.532C90.0113 137.777 89.759 137.161 89.5068 136.713C89.5348 136.433 89.5628 135.929 89.3666 135.341C88.8341 137.497 87.2925 143.655 86.0873 145.698C84.8541 147.798 81.9672 152.332 80.9302 153.9C81.4347 153.676 81.799 153.424 81.9952 153.256C82.2755 153.256 82.6119 153.228 83.0043 153.116C83.1724 153.06 83.2845 153.004 83.4247 152.948C84.714 150.905 86.5078 148.106 87.4327 146.51C88.4137 144.887 89.4787 141.304 90.2075 138.532Z" fill="#F26C18"/>
<path d="M45.3353 154.157C52.4558 154.157 58.2282 148.393 58.2282 141.281C58.2282 134.17 52.4558 128.405 45.3353 128.405C38.2147 128.405 32.4424 134.17 32.4424 141.281C32.4424 148.393 38.2147 154.157 45.3353 154.157Z" fill="#50808A"/>
<path d="M55.874 139.267C55.874 139.267 55.9021 137.476 54.2204 134.844C52.6508 132.409 50.2124 131.653 49.4836 131.485L49.6238 130.897L49.7639 130.31C50.5767 130.506 53.4356 131.401 55.2014 134.2C57.1073 137.14 57.0512 139.211 57.0512 139.295L55.874 139.267Z" fill="#688E96"/>
<path d="M35.0201 145.345L35.5526 145.065L35.0201 145.345C34.3754 144.113 32.4975 139.859 34.7118 135.716C37.0381 131.349 40.1772 130.117 40.3174 130.089L40.7378 131.209C40.7098 131.209 37.8789 132.357 35.7768 136.304C33.8429 139.943 35.5246 143.721 36.0851 144.813L35.5526 145.093L35.0201 145.345Z" fill="#688E96"/>
<path d="M54.2207 140.831C54.2207 140.831 54.2487 139.04 52.5671 136.408C50.9975 134.001 48.5591 133.217 47.8303 133.049L47.9705 132.461L48.1106 131.874C48.9234 132.069 51.7823 132.965 53.548 135.764C55.4539 138.704 55.3979 140.775 55.3979 140.859L54.2207 140.831Z" fill="#688E96"/>
<path d="M52.7617 143.017C52.7617 143.017 52.7898 141.226 51.1081 138.594C49.5665 136.187 47.1001 135.403 46.3713 135.235L46.5115 134.647L46.6516 134.06C47.4644 134.256 50.3233 135.151 52.0891 137.95C53.995 140.89 53.9389 142.961 53.9389 143.045L52.7617 143.017Z" fill="#688E96"/>
<path d="M50.8281 144.614C50.8281 144.614 50.8562 142.822 49.1745 140.191C47.6329 137.784 45.1665 137 44.4377 136.832L44.5779 136.244L44.718 135.656C45.5308 135.852 48.3897 136.748 50.1555 139.547C52.0614 142.486 52.0053 144.558 52.0053 144.642L50.8281 144.614Z" fill="#688E96"/>
<path d="M40.0663 129.528C40.0663 129.528 35.2735 135.378 37.0953 142.544C38.9171 149.71 44.4106 154.105 44.4106 154.105C44.7189 154.245 45.4196 154.497 46.2885 154.357C46.793 154.273 47.1574 154.105 47.4096 153.965C47.746 154.021 48.4747 154.077 49.2875 153.769C49.7079 153.601 50.0162 153.377 50.2124 153.181C50.4086 153.209 51.0533 153.293 51.7259 152.929C52.3986 152.565 52.6789 152.033 52.763 151.837C52.3706 150.942 51.8381 149.626 51.2775 148.058C50.4927 145.847 49.6238 143.02 49.2875 140.501C48.6148 135.462 51.5298 129.976 51.5298 129.976C51.3055 129.724 50.9412 129.332 50.3526 129.024C49.3996 128.548 48.5308 128.66 48.1664 128.688C47.802 128.464 47.0733 128.1 46.0643 128.016C44.9712 127.932 44.1304 128.268 43.738 128.464C43.3456 128.408 42.6449 128.324 41.804 128.576C40.9352 128.828 40.3466 129.276 40.0663 129.528Z" fill="#688E96"/>
<path d="M39.9816 144.753L40.1217 145.117L41.6072 144.501L41.4671 144.138C38.356 136.692 43.9896 128.518 44.0457 128.434L44.1017 128.35C43.9616 128.406 43.8495 128.462 43.7654 128.49C43.429 128.434 42.8124 128.378 42.0837 128.518C40.5982 131.009 37.1508 138.007 39.9816 144.753Z" fill="#81A0A7"/>
<path d="M45.8396 146.293L45.9797 146.657L47.4652 146.069L47.3251 145.705C47.297 145.649 45.223 140.331 45.6154 135.964C45.9517 132.129 48.3901 129.442 48.8666 128.938L49.1189 128.686C48.6984 128.63 48.3341 128.686 48.1659 128.714C47.9697 128.602 47.6614 128.434 47.297 128.294C46.3441 129.386 44.3541 132.101 44.0178 135.824C43.5973 140.61 45.7275 146.069 45.8396 146.293Z" fill="#81A0A7"/>
<path d="M57.6117 137.36C57.7799 137.528 58.2844 138.032 58.4245 138.871C58.5927 139.739 58.2844 140.383 58.2003 140.607C58.3404 140.803 58.7608 141.559 58.6207 142.566C58.5086 143.406 58.0601 143.938 57.892 144.162C57.948 144.442 58.1723 145.422 57.6397 146.457C57.3034 147.101 56.8269 147.465 56.5747 147.633C56.3224 148.221 55.902 149.033 55.2293 149.844C54.3604 150.88 53.4075 151.524 52.7909 151.888C50.0161 152.644 47.2133 153.399 44.4385 154.127C44.1863 154.211 43.7098 154.323 43.0932 154.211C42.5046 154.099 42.0842 153.819 41.8599 153.679C41.5236 153.707 40.6828 153.735 39.87 153.231C39.5056 153.007 39.2533 152.755 39.0852 152.56C38.6648 152.476 37.7398 152.252 36.927 151.468C36.4225 150.992 36.1422 150.46 35.9741 150.124C35.5817 149.9 34.909 149.396 34.3765 148.557C33.872 147.773 33.6758 147.017 33.6197 146.569C33.3675 146.317 32.863 145.757 32.6107 144.862C32.3585 143.938 32.4986 143.154 32.5827 142.818C35.8059 143.098 40.4866 143.21 45.896 141.923C52.0902 140.411 57.6117 137.36 57.6117 137.36Z" fill="#688E96"/>
<path d="M58.5375 141.309C58.4254 140.973 58.2853 140.721 58.2292 140.637C58.3133 140.497 58.4815 140.105 58.5095 139.573C56.5756 140.497 50.1852 143.464 46.3453 144.332C42.8699 145.116 36.0591 145.48 32.9199 145.62C33.1722 146.067 33.4244 146.375 33.5926 146.543C33.6206 146.711 33.6487 146.935 33.7327 147.159C37.1522 147.019 43.3183 146.627 46.6817 145.871C50.3533 145.032 56.043 142.456 58.5375 141.309Z" fill="#749AA3"/>
<path d="M58.0039 145.033C58.0039 144.613 57.9479 144.305 57.9198 144.165C58.06 143.997 58.3963 143.577 58.5645 142.961C56.6305 143.969 49.6796 147.44 46.7086 147.776C43.9899 148.056 38.2442 149.064 35.2732 149.596C35.5254 149.819 35.7777 149.987 35.9739 150.099C36.086 150.351 36.2542 150.659 36.5064 150.995C39.6175 150.435 44.5224 149.624 46.8768 149.372C49.6235 149.064 55.1451 146.46 58.0039 145.033Z" fill="#749AA3"/>
<path d="M55.6206 149.309C56.0691 148.665 56.3774 148.077 56.5736 147.601C56.7978 147.461 57.2182 147.125 57.5546 146.622C55.5646 147.601 49.8469 150.373 47.4925 150.792C45.0821 151.212 39.7568 151.884 37.8789 152.136C38.3554 152.388 38.8038 152.5 39.0561 152.528C39.2243 152.724 39.4765 153.004 39.8409 153.2C39.981 153.284 40.1211 153.34 40.2613 153.424C42.6437 153.116 45.979 152.668 47.7728 152.36C49.5666 152.024 53.014 150.512 55.6206 149.309Z" fill="#749AA3"/>
<path d="M61.2828 165.801C68.4033 165.801 74.1757 160.037 74.1757 152.925C74.1757 145.814 68.4033 140.049 61.2828 140.049C54.1622 140.049 48.3899 145.814 48.3899 152.925C48.3899 160.037 54.1622 165.801 61.2828 165.801Z" fill="#E78816"/>
<path d="M56.0414 162.304C56.0414 162.304 57.4147 163.48 60.4978 163.872C63.3567 164.236 65.5148 162.836 66.1315 162.416L66.4958 162.892L66.8322 163.368C66.1315 163.872 63.637 165.467 60.3577 165.047C56.8822 164.6 55.3407 163.256 55.2566 163.172L56.0414 162.304Z" fill="#DB7B12"/>
<path d="M64.7862 142.432L64.6461 143.02L64.7862 142.432C66.1316 142.74 70.6161 144.028 72.3818 148.394C74.2317 152.985 73.1386 156.176 73.1106 156.316L71.9894 155.924C71.9894 155.896 72.9704 153.013 71.2887 148.842C69.7472 145.035 65.7392 143.86 64.562 143.608L64.6741 143.02L64.7862 142.432Z" fill="#DB7B12"/>
<path d="M55.9003 160.004C55.9003 160.004 57.2736 161.18 60.3567 161.572C63.2156 161.936 65.3737 160.536 65.9903 160.116L66.3547 160.592L66.691 161.068C65.9903 161.572 63.4959 163.168 60.2166 162.748C56.7411 162.3 55.1996 160.956 55.1155 160.872L55.9003 160.004Z" fill="#DB7B12"/>
<path d="M55.1732 157.524C55.1732 157.524 56.5466 158.7 59.6297 159.092C62.4885 159.456 64.6467 158.056 65.2633 157.636L65.6277 158.112L65.964 158.588C65.2633 159.092 62.7688 160.688 59.4895 160.268C56.0141 159.82 54.4725 158.448 54.3884 158.392L55.1732 157.524Z" fill="#DB7B12"/>
<path d="M55.1732 154.994C55.1732 154.994 56.5466 156.169 59.6297 156.561C62.4885 156.925 64.6467 155.525 65.2633 155.106L65.6277 155.581L65.964 156.057C65.2633 156.561 62.7688 158.157 59.4895 157.737C56.0141 157.289 54.4725 155.917 54.3884 155.861L55.1732 154.994Z" fill="#DB7B12"/>
<path d="M73.6703 156.453C73.6703 156.453 72.2689 149.035 65.5982 145.816C58.9556 142.596 52.0047 143.968 52.0047 143.968C51.6963 144.108 51.0517 144.472 50.6033 145.228C50.351 145.648 50.2389 146.067 50.1828 146.347C49.9026 146.571 49.3981 147.103 49.1458 147.915C49.0057 148.335 48.9776 148.727 49.0057 149.007C48.8375 149.147 48.389 149.566 48.2209 150.322C48.0527 151.05 48.305 151.638 48.389 151.834C49.342 152.114 50.6873 152.534 52.2569 153.121C54.4431 153.933 57.1898 155.109 59.32 156.453C63.6082 159.168 65.9626 164.934 65.9626 164.934C66.2989 164.934 66.8595 164.906 67.4481 164.626C68.401 164.206 68.9055 163.479 69.1017 163.171C69.4941 163.031 70.2509 162.723 70.9516 161.995C71.7083 161.211 71.9886 160.343 72.1007 159.924C72.409 159.672 72.9135 159.168 73.2779 158.384C73.6423 157.572 73.6983 156.844 73.6703 156.453Z" fill="#EBA643"/>
<path d="M62.0678 146.572L61.6754 146.46L61.199 148L61.5914 148.111C69.2991 150.519 71.9617 160.092 71.9617 160.176L71.9898 160.288C72.0458 160.148 72.0738 160.036 72.1019 159.924C72.3822 159.7 72.8026 159.28 73.1389 158.608C72.186 155.921 69.0468 148.783 62.0678 146.572Z" fill="#E28100"/>
<path d="M57.1054 150.07L56.741 149.958L56.2085 151.47L56.5729 151.582C56.6289 151.61 62.0383 153.43 65.1494 156.537C67.8681 159.252 68.3727 162.863 68.4287 163.563L68.4567 163.927C68.765 163.619 68.9612 163.339 69.0453 163.171C69.2696 163.087 69.5779 162.975 69.9142 162.751C69.69 161.323 68.8772 158.048 66.2425 155.389C62.9072 152.03 57.3296 150.154 57.1054 150.07Z" fill="#E28100"/>
<path d="M56.3787 164.849C56.1264 164.877 55.4257 164.933 54.697 164.513C53.9402 164.093 53.6039 163.421 53.5198 163.225C53.2676 163.197 52.4267 163.029 51.7541 162.301C51.1935 161.686 51.0534 160.986 51.0253 160.706C50.7731 160.594 49.8762 160.118 49.4277 159.026C49.1475 158.355 49.1755 157.767 49.2315 157.459C48.9232 156.871 48.5869 156.059 48.3907 154.996C48.1384 153.652 48.2786 152.532 48.4187 151.804C49.6239 149.201 50.8572 146.57 52.0624 143.967C52.1745 143.743 52.3987 143.267 52.8752 142.875C53.3517 142.483 53.8281 142.343 54.0804 142.287C54.2766 142.007 54.8091 141.363 55.706 141.056C56.0984 140.916 56.4628 140.888 56.715 140.916C57.0514 140.636 57.8081 140.104 58.9573 139.964C59.658 139.88 60.2185 139.992 60.5829 140.104C61.0033 139.964 61.8161 139.768 62.7971 139.88C63.722 139.992 64.4227 140.356 64.8151 140.58C65.1795 140.552 65.9362 140.524 66.749 140.916C67.6179 141.307 68.1224 141.923 68.3466 142.203C66.0483 144.499 62.9653 147.998 60.4708 152.98C57.6119 158.635 56.3787 164.849 56.3787 164.849Z" fill="#F4B159"/>
<path d="M52.7896 162.999C53.1259 163.139 53.4062 163.167 53.5183 163.195C53.5743 163.363 53.7705 163.727 54.1629 164.091C54.6955 162.019 56.5453 155.217 58.3391 151.718C59.9647 148.555 64.0568 143.097 65.9907 140.634C65.4862 140.522 65.0658 140.55 64.8416 140.55C64.7015 140.466 64.5053 140.354 64.281 140.242C62.207 142.957 58.5353 147.912 56.9377 150.991C55.1719 154.35 53.4903 160.34 52.7896 162.999Z" fill="#EA8B1A"/>
<path d="M50.2678 160.202C50.5761 160.482 50.8844 160.622 50.9966 160.678C51.0246 160.902 51.1367 161.406 51.5011 161.938C51.9775 159.81 53.7713 152.253 55.453 149.761C56.9665 147.522 59.9095 142.455 61.423 139.852C61.0866 139.908 60.7783 139.992 60.5821 140.048C60.3299 139.964 59.9655 139.908 59.5451 139.88C57.9755 142.595 55.453 146.906 54.1077 148.865C52.5381 151.217 50.9966 157.095 50.2678 160.202Z" fill="#EA8B1A"/>
<path d="M48.5005 155.642C48.6967 156.398 48.9489 157.014 49.2012 157.462C49.1732 157.741 49.1451 158.245 49.3413 158.833C49.8739 156.678 51.4154 150.519 52.6206 148.476C53.8538 146.377 56.7407 141.842 57.7778 140.274C57.2733 140.498 56.9089 140.75 56.7127 140.918C56.4324 140.918 56.0961 140.946 55.7037 141.058C55.5355 141.114 55.4234 141.17 55.2833 141.226C53.994 143.27 52.2002 146.069 51.2753 147.664C50.3223 149.26 49.2572 152.871 48.5005 155.642Z" fill="#EA8B1A"/>
<path d="M32.6378 143.908C32.6378 143.908 28.7139 169.744 61.1703 168.597C93.6267 167.449 90.5997 142.9 90.5997 142.9C90.5997 142.9 83.9571 151.326 60.0772 150.682C36.1973 150.038 32.6378 143.908 32.6378 143.908Z" fill="#C9841F"/>
<path d="M43.3167 161.183C41.2146 157.236 40.2056 152.562 39.8412 147.943C39.3087 147.775 38.8042 147.607 38.3557 147.439C38.664 152.394 39.7291 157.544 42.0834 161.995C42.8963 163.534 43.8492 164.934 44.9143 166.166C45.9513 166.614 47.0724 167.005 48.2776 167.341C46.2876 165.69 44.634 163.646 43.3167 161.183Z" fill="#DB9231"/>
<path d="M50.8843 150.098C51.5569 156.844 52.7341 163.646 54.8082 168.46C55.3407 168.516 55.8452 168.544 56.4058 168.572C54.2476 164.066 53.0144 157.18 52.3417 150.238C51.8372 150.182 51.3327 150.154 50.8843 150.098Z" fill="#DB9231"/>
<path d="M67.7011 150.574C67.2247 150.602 66.7482 150.63 66.2717 150.658C66.1316 157.096 65.3468 163.562 63.2727 168.489C63.8333 168.461 64.3658 168.405 64.8983 168.349C66.6361 163.87 67.561 157.936 67.7011 150.574Z" fill="#DB9231"/>
<path d="M71.7651 167.171C72.4658 167.003 73.1385 166.779 73.7832 166.583C76.67 161.265 78.0995 154.883 78.7441 148.92C78.2676 149.032 77.7631 149.172 77.2586 149.284C76.5299 155.583 74.9323 162.049 71.7651 167.115C71.7932 167.143 71.7651 167.171 71.7651 167.171Z" fill="#DB9231"/>
<path d="M86.3953 146.039C85.9189 146.291 85.4144 146.543 84.8538 146.795C84.7417 147.719 84.5735 148.642 84.4054 149.566C83.3683 155.304 81.6025 160.203 79.1921 164.262C80.089 163.758 80.9299 163.226 81.6866 162.666C83.5365 158.943 84.9099 154.661 85.7787 149.874C86.059 148.586 86.2552 147.299 86.3953 146.039Z" fill="#DB9231"/>
<path d="M61.1985 154.606C75.9693 153.99 85.1344 151.079 90.2916 148.699C90.4037 148.027 90.4878 147.412 90.5438 146.824C85.695 149.175 76.4457 152.394 61.1424 153.01C42.4197 153.794 34.9643 149.455 32.4978 147.384C32.5258 147.999 32.5539 148.699 32.666 149.455C35.8051 151.666 42.7 154.717 56.7981 154.717C58.1715 154.69 59.657 154.662 61.1985 154.606Z" fill="#DB9231"/>
<path d="M60.5533 158.158C44.8296 159.305 37.5423 157.402 34.179 155.443C34.4873 156.198 34.8516 156.954 35.272 157.71C38.5233 159.081 43.6805 160.089 51.7525 160.089C54.3871 160.089 57.3581 159.977 60.6654 159.753C75.6604 158.662 84.0128 156.366 88.6654 154.155C89.0017 153.399 89.282 152.643 89.5343 151.916C85.5543 154.127 77.3701 156.926 60.5533 158.158Z" fill="#DB9231"/>
<path d="M39.478 162.832C40.487 163.671 41.6082 164.483 42.8974 165.183C45.8404 165.659 49.5681 165.967 54.3048 165.967C55.9585 165.967 57.6962 165.939 59.6021 165.855C70.8694 165.407 78.3529 163.56 83.2858 161.404C84.519 160.34 85.528 159.193 86.3689 158.017C81.9965 160.732 73.9525 163.671 59.5181 164.259C49.3999 164.651 43.2058 163.895 39.478 162.832Z" fill="#DB9231"/>
<g opacity="0.5">
<path opacity="0.5" d="M32.5549 148.137C36.0584 151.524 44.2706 158.69 61.1715 158.102C78.1004 157.486 88.4988 151.916 90.6569 145.198C90.685 143.77 90.6009 142.93 90.6009 142.93C90.6009 142.93 83.9582 151.356 60.0784 150.712C36.5068 150.068 32.723 144.078 32.639 143.938C32.639 143.966 32.3867 145.645 32.5549 148.137Z" fill="#704007"/>
</g>
<path d="M97.8866 111.972C98.0828 111.748 99.1478 110.685 100.773 110.657C101.726 110.657 102.455 110.993 102.791 111.217C102.876 111.133 103.24 110.769 103.828 110.741C104.501 110.713 104.922 111.161 105.006 111.217C105.118 111.133 105.678 110.629 106.519 110.713C107.136 110.769 107.528 111.105 107.668 111.217C107.752 111.133 108.285 110.629 109.042 110.741C109.546 110.797 109.883 111.105 109.995 111.217C110.107 111.133 110.583 110.797 111.228 110.853C111.704 110.881 112.013 111.133 112.153 111.217C112.377 111.077 112.854 110.881 113.498 110.853C114.227 110.825 114.787 111.077 115.012 111.217C115.348 111.077 115.909 110.881 116.637 110.881C117.394 110.881 117.983 111.077 118.319 111.217C118.571 111.077 119.188 110.797 119.973 110.881C120.449 110.937 120.785 111.105 121.01 111.217C121.402 111.077 122.355 110.853 123.476 111.133C124.261 111.329 124.821 111.72 125.13 111.972C125.915 113.036 127.82 114.744 128.017 117.375C128.437 123.589 127.288 132.882 127.736 136.325C128.157 139.768 129.867 146.627 128.129 148.054C126.391 149.482 104.894 150.042 100.549 148.054C96.2049 146.067 97.4942 133.19 97.2139 126.752C96.9336 120.314 95.9246 115.779 97.8866 111.972Z" fill="#FFB140"/>
<path d="M98.3922 128.208C98.8687 128.012 99.4293 127.872 100.102 127.872C101.167 127.872 101.98 128.264 102.54 128.628C103.017 128.936 103.605 128.992 104.138 128.796C104.699 128.6 105.427 128.432 106.324 128.516C106.913 128.572 107.389 128.74 107.81 128.908C108.37 129.16 109.015 129.076 109.519 128.712C110.22 128.236 111.313 127.732 112.687 127.788C113.78 127.844 114.677 128.236 115.265 128.628C115.826 128.992 116.554 128.992 117.115 128.656C117.647 128.348 118.348 128.068 119.245 128.068C120.226 128.068 121.011 128.432 121.515 128.768C121.964 129.076 122.524 129.132 123.029 128.964C123.842 128.712 125.131 128.488 126.532 128.964H126.56C126.981 129.104 127.373 129.104 127.766 128.992C127.934 125.689 128.13 121.938 128.046 118.747C127.317 118.383 126.308 118.019 125.103 118.019C123.898 118.019 122.917 118.355 122.272 118.663C121.796 118.886 121.263 118.886 120.787 118.663C120.394 118.495 119.918 118.327 119.385 118.243C118.124 118.047 117.031 118.355 116.33 118.663C115.854 118.886 115.293 118.859 114.817 118.635C114.2 118.327 113.247 117.991 112.098 118.019C111.229 118.047 110.5 118.299 109.94 118.551C109.379 118.803 108.735 118.803 108.23 118.467C107.613 118.075 106.717 117.655 105.567 117.599C103.241 117.459 101.7 118.831 101.419 119.082C101.419 119.082 99.5974 118.187 98.4763 118.019C97.9998 117.935 97.3832 117.991 96.6265 118.271C96.6545 120.678 96.9628 123.449 97.1029 126.668C97.131 127.144 97.131 127.648 97.159 128.208C97.6074 128.376 97.9998 128.376 98.3922 128.208Z" fill="#F7A334"/>
<path d="M127.737 136.324C127.737 136.212 127.709 136.1 127.709 135.988C127.681 135.988 127.653 136.016 127.625 136.016C127.625 136.016 127.597 136.016 127.597 136.044C126.196 136.604 124.907 136.352 124.094 136.072C123.589 135.904 123.029 135.96 122.58 136.296C122.076 136.66 121.291 137.079 120.31 137.079C119.413 137.079 118.712 136.771 118.18 136.436C117.591 136.044 116.891 136.072 116.33 136.464C115.713 136.911 114.844 137.331 113.751 137.387C112.35 137.471 111.257 136.883 110.584 136.38C110.08 135.988 109.435 135.904 108.874 136.184C108.482 136.38 107.978 136.548 107.389 136.604C106.52 136.688 105.763 136.52 105.203 136.296C104.67 136.072 104.082 136.128 103.605 136.492C103.045 136.883 102.232 137.331 101.167 137.331C100.522 137.331 99.9336 137.191 99.4571 136.967C98.6723 136.604 97.8034 136.939 97.355 137.639C97.5231 142.342 98.1398 146.681 100.382 147.968C101.419 147.604 102.54 146.989 102.54 146.989C102.82 147.269 104.362 148.808 106.688 148.64C107.837 148.556 108.734 148.108 109.351 147.66C109.855 147.296 110.5 147.297 111.061 147.576C111.593 147.856 112.322 148.108 113.219 148.164C114.368 148.22 115.321 147.856 115.938 147.492C116.414 147.213 116.975 147.213 117.451 147.464C118.152 147.8 119.245 148.164 120.506 147.94C121.067 147.856 121.515 147.66 121.908 147.464C122.384 147.213 122.917 147.213 123.393 147.464C124.066 147.828 125.047 148.192 126.224 148.164C127.121 148.164 127.906 147.94 128.55 147.66C129.615 145.589 128.13 139.487 127.737 136.324Z" fill="#F7A334"/>
<path d="M103.632 131.566C103.688 130.726 103.744 129.831 103.8 128.907C103.941 126.304 103.324 122.273 102.819 119.026C102.539 117.262 102.315 115.723 102.231 114.715C102.091 112.728 102.904 111.44 103.38 110.852C103.072 110.964 102.876 111.16 102.819 111.216C102.707 111.132 102.539 111.048 102.315 110.964C101.81 111.776 101.306 113.063 101.446 114.771C101.53 115.807 101.754 117.374 102.035 119.166C102.539 122.385 103.156 126.36 103.016 128.879C102.96 129.803 102.904 130.67 102.848 131.538C102.651 134.309 102.511 136.689 102.735 139.012C102.96 141.251 103.548 146.43 103.828 148.837C104.081 148.865 104.361 148.893 104.641 148.949C104.361 146.654 103.744 141.279 103.52 138.956C103.296 136.661 103.436 134.281 103.632 131.566Z" fill="#EF9426"/>
<path d="M109.127 128.571C109.127 128.067 109.155 127.563 109.155 127.116C109.239 122.525 108.595 116.255 108.146 113.371C107.922 111.944 108.23 111.132 108.454 110.74C108.006 110.852 107.726 111.132 107.67 111.188C107.642 111.16 107.558 111.104 107.501 111.048C107.333 111.608 107.221 112.42 107.389 113.511C107.838 116.563 108.454 122.805 108.37 127.116C108.37 127.563 108.342 128.039 108.342 128.571C108.258 133.078 108.146 139.264 108.735 142.119C109.183 144.275 109.66 147.522 109.912 149.285C110.192 149.285 110.444 149.313 110.725 149.313C110.472 147.578 109.968 144.219 109.519 141.979C108.931 139.18 109.043 132.798 109.127 128.571Z" fill="#EF9426"/>
<path d="M116.526 131.145C116.582 129.717 116.638 128.374 116.666 127.254C116.722 123.139 115.909 117.513 115.404 114.154L115.348 113.706C115.124 112.194 115.461 111.382 115.685 111.019C115.433 111.075 115.208 111.159 115.04 111.215C114.984 111.187 114.872 111.131 114.76 111.075C114.536 111.662 114.367 112.53 114.564 113.79L114.62 114.238C115.124 117.569 115.965 123.167 115.881 127.226C115.853 128.346 115.797 129.689 115.741 131.117C115.573 135.288 115.404 140.018 115.881 142.398C116.301 144.469 116.75 147.492 117.03 149.284C117.31 149.284 117.563 149.256 117.843 149.256C117.591 147.464 117.114 144.357 116.694 142.23C116.189 139.962 116.385 135.064 116.526 131.145Z" fill="#EF9426"/>
<path d="M122.496 131.145C122.552 129.717 122.608 128.346 122.636 127.226C122.692 123.111 121.851 117.485 121.375 114.098L121.319 113.65C121.094 112.222 121.403 111.41 121.627 111.019C121.375 111.075 121.179 111.131 121.038 111.159C120.954 111.103 120.842 111.075 120.73 111.019C120.506 111.606 120.338 112.474 120.534 113.762L120.59 114.21C121.094 117.541 121.935 123.139 121.851 127.198C121.823 128.318 121.767 129.661 121.711 131.089C121.543 135.26 121.375 139.99 121.851 142.37C122.244 144.329 122.692 147.128 122.944 148.948C123.225 148.92 123.477 148.892 123.729 148.864C123.449 147.044 123.028 144.161 122.608 142.202C122.159 139.962 122.356 135.064 122.496 131.145Z" fill="#EF9426"/>
<path d="M165.743 106.965C165.743 106.965 150.608 126.027 137.239 124.376C125.944 122.976 128.354 116.818 128.354 116.818C128.354 116.818 120.983 116.09 124.626 111.584C124.626 111.584 119.848 108.838 123.648 106.28C128.89 102.753 134.835 98.623 137.777 96.5796" fill="#AAD6B3"/>
<path d="M144.946 91.625L145.535 91.653C145.283 91.9329 145.03 92.2688 144.75 92.6047C144.862 92.2408 144.946 91.9049 144.946 91.625Z" fill="#92B799"/>
<path d="M129.784 85.0197C136.951 85.0197 142.761 79.2172 142.761 72.0594C142.761 64.9017 136.951 59.0991 129.784 59.0991C122.617 59.0991 116.807 64.9017 116.807 72.0594C116.807 79.2172 122.617 85.0197 129.784 85.0197Z" fill="white"/>
<path d="M125.326 82.4978C128.763 82.4978 131.549 79.7156 131.549 76.2836C131.549 72.8515 128.763 70.0693 125.326 70.0693C121.89 70.0693 119.104 72.8515 119.104 76.2836C119.104 79.7156 121.89 82.4978 125.326 82.4978Z" fill="#040000"/>
<path d="M106.436 82.8013C113.17 82.8013 118.628 77.3497 118.628 70.6248C118.628 63.8999 113.17 58.4482 106.436 58.4482C99.7025 58.4482 94.2439 63.8999 94.2439 70.6248C94.2439 77.3497 99.7025 82.8013 106.436 82.8013Z" fill="white"/>
<path d="M106.437 81.3767C109.874 81.3767 112.659 78.5945 112.659 75.1625C112.659 71.7304 109.874 68.9482 106.437 68.9482C103.001 68.9482 100.215 71.7304 100.215 75.1625C100.215 78.5945 103.001 81.3767 106.437 81.3767Z" fill="#040000"/>
<path d="M116.741 30.8849C120.964 29.3189 123.903 26.7452 123.305 25.1364C122.707 23.5277 118.798 23.493 114.575 25.059C110.352 26.625 107.414 29.1987 108.012 30.8075C108.61 32.4162 112.518 32.4509 116.741 30.8849Z" fill="#C5FCCE"/>
<path d="M124.373 79.2758C124.698 79.2758 124.962 79.0126 124.962 78.6879C124.962 78.3633 124.698 78.1001 124.373 78.1001C124.048 78.1001 123.785 78.3633 123.785 78.6879C123.785 79.0126 124.048 79.2758 124.373 79.2758Z" fill="white"/>
<path d="M104.95 77.9647C105.275 77.9647 105.538 77.7016 105.538 77.3769C105.538 77.0522 105.275 76.7891 104.95 76.7891C104.625 76.7891 104.361 77.0522 104.361 77.3769C104.361 77.7016 104.625 77.9647 104.95 77.9647Z" fill="white"/>
<path d="M115.741 87.647C121.963 88.4867 127.316 83.6441 131.521 87.1711C134.94 90.0263 132.418 100.159 114.984 98.8158C94.1594 97.1922 95.3365 85.6595 99.9612 83.7561C104.334 81.9646 108.65 86.7232 115.741 87.647Z" fill="#040000"/>
<path d="M132.165 92.9629C130.484 96.35 125.411 99.625 114.984 98.8133C110.808 98.4774 107.557 97.7496 104.978 96.7978C107.389 94.7264 111.313 92.907 117.198 92.0112C124.234 90.9475 129.026 91.5633 132.165 92.9629Z" fill="#D05E53"/>
<path d="M83.1163 93.9733C83.1163 93.9733 88.6939 100.747 95.6448 101.447C102.568 102.147 100.297 106.71 97.1023 107.521C97.1023 107.521 101.138 110.125 100.269 112.112C99.4006 114.072 95.7009 114.547 95.7009 114.547C95.7009 114.547 100.718 116.507 100.073 118.074C99.4286 119.642 96.2895 121.769 91.5528 121.21C83.9852 120.314 74.764 105.73 79.6689 89.1587" fill="#AAD6B3"/>
<path d="M93.0381 121.712C92.5336 121.712 92.0011 121.684 91.4685 121.628C88.3855 121.264 85.1342 118.801 82.5276 114.882C77.8189 107.744 76.5857 98.0869 79.2483 89.0735C79.3044 88.8495 79.5286 88.7376 79.7528 88.7936C79.9771 88.8495 80.0892 89.0735 80.0331 89.2974C77.4265 98.0869 78.6037 107.492 83.2003 114.462C85.6387 118.129 88.7498 120.509 91.5526 120.844C96.0371 121.376 99.0361 119.417 99.6527 117.933C99.6807 117.877 99.7088 117.765 99.6247 117.597C99.1762 116.562 96.4855 115.33 95.5046 114.938L94.0751 114.378L95.6167 114.182C95.6447 114.182 99.1202 113.706 99.8769 111.971C100.466 110.599 97.915 108.556 96.8499 107.884L96.0932 107.38L96.962 107.156C98.5316 106.764 99.8209 105.365 99.7368 104.189C99.6527 102.958 98.1392 102.118 95.5606 101.866C88.5536 101.166 83.0041 94.5319 82.7799 94.252C82.6397 94.0841 82.6677 93.8321 82.8359 93.6922C83.0041 93.5522 83.2563 93.5802 83.3965 93.7481C83.4525 93.8041 88.946 100.382 95.6447 101.082C99.7368 101.502 100.466 103.181 100.522 104.133C100.634 105.505 99.5126 106.988 97.915 107.66C99.0922 108.556 101.334 110.515 100.578 112.279C99.961 113.678 98.1672 114.378 96.934 114.686C98.1392 115.274 99.905 116.254 100.353 117.289C100.494 117.625 100.494 117.961 100.381 118.241C99.7368 119.781 97.1022 121.712 93.0381 121.712Z" fill="#92B799"/>
<path d="M119.581 117.067L119.441 116.927C119.217 116.703 119.217 116.367 119.441 116.143L144.078 90.7544L145.227 91.8461L120.786 117.039C120.45 117.375 119.918 117.375 119.581 117.067Z" fill="#1E1E1E"/>
<path d="M144.667 93.5228C145.89 93.5228 146.881 92.5328 146.881 91.3115C146.881 90.0902 145.89 89.1001 144.667 89.1001C143.444 89.1001 142.453 90.0902 142.453 91.3115C142.453 92.5328 143.444 93.5228 144.667 93.5228Z" fill="#1E1E1E"/>
<path d="M86.1148 84.8207C87.3377 84.8207 88.3291 83.8306 88.3291 82.6093C88.3291 81.388 87.3377 80.3979 86.1148 80.3979C84.892 80.3979 83.9006 81.388 83.9006 82.6093C83.9006 83.8306 84.892 84.8207 86.1148 84.8207Z" fill="#1E1E1E"/>
<path d="M102.847 114.323L86.8435 82.2441L85.4141 82.9439L101.138 114.435C101.502 115.191 102.595 115.135 102.847 114.323Z" fill="#1E1E1E"/>
<path d="M129.951 108.333C129.951 108.333 124.402 109.313 123.869 112.392C123.729 113.26 124.038 114.995 124.962 115.751C125.691 116.171 126.56 116.451 127.261 116.591C128.354 116.703 129.167 116.255 129.531 116.199" fill="#AAD6B3"/>
<path d="M127.569 117.008C127.457 117.008 127.345 117.008 127.205 116.98H127.149C126.476 116.84 125.523 116.56 124.738 116.084L124.682 116.056C123.645 115.189 123.309 113.285 123.477 112.306C124.066 109.002 129.643 107.967 129.895 107.911C130.12 107.883 130.316 108.023 130.344 108.219C130.372 108.443 130.232 108.639 130.036 108.667C129.979 108.667 124.766 109.646 124.262 112.418C124.122 113.173 124.43 114.741 125.187 115.385C125.859 115.777 126.7 116.028 127.317 116.168C128.018 116.224 128.606 116.028 129.027 115.889C129.223 115.833 129.363 115.777 129.475 115.749C129.699 115.721 129.895 115.861 129.923 116.084C129.951 116.308 129.811 116.504 129.587 116.532C129.531 116.532 129.391 116.588 129.251 116.644C128.858 116.812 128.27 117.008 127.569 117.008Z" fill="#92B799"/>
<path d="M32.611 139.154C32.9754 136.914 33.9564 134.759 35.4699 132.967C30.2567 135.487 29.0234 138.37 29.0234 140.469C29.0234 143.016 30.7892 146.627 39.1696 149.455C45.0835 151.442 52.9033 152.534 61.1996 152.534C69.4959 152.534 77.3157 151.442 83.2296 149.455C91.61 146.627 93.3758 143.016 93.3758 140.469C93.3758 138.454 92.4228 135.738 87.7421 133.303C87.7421 133.359 87.7702 133.415 87.7702 133.471C88.0224 133.583 88.7511 134.059 89.1716 135.151C89.4518 135.822 89.4238 136.41 89.3678 136.718C89.6761 137.306 89.8442 137.586 89.8723 138.65C89.9003 139.321 89.7041 140.301 89.648 140.553C89.4238 140.525 89.8723 140.581 89.648 140.553C89.5079 144.052 78.7171 148.867 61.1996 148.867C43.57 148.867 32.7512 143.996 32.7512 140.497L32.611 139.154Z" fill="#C9841F"/>
<g opacity="0.5">
<path opacity="0.5" d="M54.0519 142.959C54.0519 142.959 52.9588 142.931 52.3982 143.938C51.3612 145.842 51.8657 146.877 58.3962 147.689C64.8987 148.501 71.5413 147.969 71.6815 146.01C71.8216 144.078 61.8156 141.335 61.8156 141.335L54.0519 142.959Z" fill="#A85B07"/>
</g>
<path d="M69.9432 140.746L69.1584 139.851C70.1394 139.011 71.3446 137.499 72.7741 135.736C76.1655 131.565 80.3697 126.358 84.8822 125.519C88.1614 124.903 88.6099 124.763 89.0583 124.623C89.5068 124.483 90.0113 124.315 92.4777 123.811C93.7951 123.531 94.692 122.971 95.1404 122.132C95.9532 120.592 95.0563 118.549 95.0563 118.549L96.1494 118.073C96.2055 118.185 97.2705 120.648 96.2055 122.691C95.5889 123.867 94.4117 124.651 92.73 124.987C90.3476 125.463 89.8711 125.631 89.4507 125.771C88.9182 125.939 88.4697 126.106 85.1064 126.722C81.0143 127.478 76.9783 132.489 73.727 136.519C72.2696 138.283 71.0083 139.851 69.9432 140.746Z" fill="#EF9426"/>
<path d="M91.4963 121.21C96.2331 121.77 99.4563 120.65 100.017 118.075C100.381 116.423 95.6445 114.548 95.6445 114.548C95.6445 114.548 99.5124 114.128 100.213 112.113C101.727 107.83 96.8217 105.562 96.8217 105.562" fill="#AAD6B3"/>
<path d="M93.7108 121.741C93.0101 121.741 92.2533 121.685 91.4686 121.601C91.2443 121.573 91.1042 121.377 91.1322 121.153C91.1602 120.929 91.3564 120.79 91.5807 120.818C96.1492 121.349 99.1482 120.286 99.6808 117.99C99.877 117.067 97.3825 115.639 95.5606 114.911L94.0752 114.323L95.6728 114.155C96.6818 114.043 99.4005 113.428 99.905 111.972C101.278 108.081 96.906 106.01 96.7098 105.926C96.5136 105.842 96.4295 105.59 96.5136 105.394C96.5977 105.198 96.8499 105.114 97.0461 105.198C97.1022 105.226 102.259 107.661 100.662 112.252C100.157 113.708 98.3074 114.407 97.0461 114.715C98.5596 115.443 100.774 116.787 100.466 118.186C99.905 120.482 97.4665 121.741 93.7108 121.741Z" fill="#92B799"/>
<path d="M63.6368 146.534C70.7573 146.534 76.5297 140.769 76.5297 133.658C76.5297 126.547 70.7573 120.782 63.6368 120.782C56.5162 120.782 50.7439 126.547 50.7439 133.658C50.7439 140.769 56.5162 146.534 63.6368 146.534Z" fill="#EF9426"/>
<path d="M58.3954 143.037C58.3954 143.037 59.7688 144.212 62.8518 144.604C65.7107 144.968 67.8688 143.568 68.4855 143.149L68.8498 143.624L69.1862 144.1C68.4855 144.604 65.991 146.2 62.7117 145.78C59.2362 145.332 57.6947 143.988 57.6106 143.904L58.3954 143.037Z" fill="#E8871C"/>
<path d="M67.1402 123.167L67.0001 123.755L67.1402 123.167C68.4856 123.475 72.9701 124.763 74.7358 129.129C76.5857 133.72 75.4926 136.911 75.4646 137.051L74.3434 136.659C74.3434 136.631 75.3244 133.748 73.6427 129.577C72.1012 125.77 68.0932 124.595 66.916 124.343L67.0281 123.755L67.1402 123.167Z" fill="#E8871C"/>
<path d="M58.2557 140.743C58.2557 140.743 59.6291 141.918 62.7122 142.31C65.571 142.674 67.7292 141.275 68.3458 140.855L68.7102 141.331L69.0465 141.806C68.3458 142.31 65.8513 143.906 62.572 143.486C59.0966 143.038 57.555 141.694 57.4709 141.61L58.2557 140.743Z" fill="#E8871C"/>
<path d="M57.5272 138.229C57.5272 138.229 58.9006 139.405 61.9837 139.797C64.8425 140.161 67.0007 138.761 67.6173 138.341L67.9817 138.817L68.318 139.293C67.6173 139.797 65.1228 141.393 61.8435 140.973C58.3681 140.525 56.8265 139.153 56.7424 139.097L57.5272 138.229Z" fill="#E8871C"/>
<path d="M57.5272 135.736C57.5272 135.736 58.9006 136.912 61.9837 137.303C64.8425 137.667 67.0007 136.268 67.6173 135.848L67.9817 136.324L68.318 136.8C67.6173 137.303 65.1228 138.899 61.8435 138.479C58.3681 138.031 56.8265 136.66 56.7424 136.604L57.5272 135.736Z" fill="#E8871C"/>
<path d="M76.0258 137.158C76.0258 137.158 74.6244 129.74 67.9537 126.521C61.3111 123.302 54.3601 124.673 54.3601 124.673C54.0518 124.813 53.4072 125.177 52.9587 125.933C52.7065 126.353 52.5944 126.773 52.5383 127.052C52.258 127.276 51.7535 127.808 51.5013 128.62C51.3611 129.04 51.3331 129.432 51.3611 129.712C51.193 129.852 50.7445 130.272 50.5763 131.027C50.4082 131.755 50.6604 132.343 50.7445 132.539C51.6975 132.819 53.0428 133.239 54.6124 133.827C56.7986 134.638 59.5453 135.814 61.6754 137.158C65.9637 139.873 68.3181 145.639 68.3181 145.639C68.6544 145.639 69.215 145.611 69.8036 145.331C70.7565 144.911 71.261 144.184 71.4572 143.876C71.8496 143.736 72.6064 143.428 73.3071 142.7C74.0638 141.916 74.3441 141.049 74.4562 140.629C74.7645 140.377 75.269 139.873 75.6334 139.089C75.9978 138.305 76.0538 137.55 76.0258 137.158Z" fill="#FFB140"/>
<path d="M64.4223 127.304L64.0299 127.192L63.5535 128.732L63.9459 128.844C71.6536 131.251 74.3162 140.824 74.3162 140.908L74.3443 141.02C74.4003 140.88 74.4283 140.769 74.4564 140.657C74.7367 140.433 75.1571 140.013 75.4934 139.341C74.5405 136.626 71.4013 129.488 64.4223 127.304Z" fill="#F9A638"/>
<path d="M59.4594 130.803L59.0951 130.691L58.5906 132.202L58.9549 132.314C59.011 132.342 64.4204 134.162 67.5315 137.269C70.2502 139.984 70.7547 143.595 70.8108 144.295L70.8388 144.659C71.1471 144.351 71.3433 144.071 71.4274 143.903C71.6516 143.819 71.9599 143.707 72.2963 143.483C72.072 142.056 71.2592 138.781 68.6246 136.121C65.2612 132.762 59.6837 130.887 59.4594 130.803Z" fill="#F9A638"/>
<path d="M58.7327 145.554C58.4804 145.582 57.7797 145.638 57.051 145.218C56.2942 144.798 55.9579 144.126 55.8738 143.93C55.6216 143.902 54.7807 143.734 54.1081 143.007C53.5475 142.391 53.4074 141.691 53.3793 141.411C53.1271 141.299 52.2302 140.823 51.7817 139.731C51.5015 139.06 51.5295 138.472 51.5855 138.164C51.2772 137.576 50.9409 136.764 50.7447 135.701C50.4924 134.357 50.6326 133.237 50.7727 132.51C51.9779 129.906 53.2112 127.275 54.4164 124.672C54.5285 124.448 54.7527 123.972 55.2292 123.58C55.7057 123.188 56.1821 123.048 56.4344 122.992C56.6306 122.712 57.1631 122.069 58.06 121.761C58.4524 121.621 58.8168 121.593 59.069 121.621C59.4053 121.341 60.1621 120.809 61.3113 120.669C62.012 120.585 62.5725 120.697 62.9369 120.809C63.3573 120.669 64.1701 120.473 65.1511 120.585C66.076 120.697 66.7767 121.061 67.1691 121.285C67.5335 121.257 68.2902 121.229 69.103 121.621C69.9719 122.013 70.4764 122.628 70.7006 122.908C68.4023 125.204 65.3193 128.703 62.8248 133.685C59.9659 139.368 58.7327 145.554 58.7327 145.554Z" fill="#F7A334"/>
<path d="M55.145 143.742C55.4814 143.882 55.7616 143.91 55.8737 143.938C55.9298 144.106 56.126 144.47 56.5184 144.834C57.0509 142.763 58.9008 135.961 60.6946 132.462C62.3202 129.298 66.4123 123.84 68.3462 121.377C67.8417 121.265 67.4213 121.293 67.1971 121.293C67.0569 121.209 66.8607 121.097 66.6365 120.985C64.5624 123.7 60.8908 128.655 59.2932 131.734C57.5274 135.093 55.8457 141.083 55.145 143.742Z" fill="#F2972A"/>
<path d="M52.6233 140.94C52.9316 141.22 53.2399 141.36 53.352 141.416C53.38 141.64 53.4922 142.144 53.8565 142.676C54.333 140.548 56.1268 132.99 57.8085 130.499C59.322 128.26 62.2649 123.193 63.7784 120.59C63.4421 120.646 63.1338 120.73 62.9376 120.786C62.6853 120.702 62.321 120.646 61.9006 120.618C60.331 123.333 57.8085 127.644 56.4631 129.603C54.8936 131.955 53.352 137.833 52.6233 140.94Z" fill="#F2972A"/>
<path d="M50.856 136.352C51.0522 137.108 51.3044 137.724 51.5567 138.172C51.5286 138.452 51.5006 138.956 51.6968 139.544C52.2293 137.388 53.7709 131.23 54.9761 129.187C56.2093 127.087 59.0962 122.552 60.1332 120.985C59.6287 121.209 59.2644 121.461 59.0682 121.629C58.7879 121.629 58.4515 121.657 58.0592 121.769C57.891 121.825 57.7789 121.881 57.6387 121.937C56.3494 123.98 54.5557 126.779 53.6307 128.375C52.6778 129.998 51.6127 133.581 50.856 136.352Z" fill="#F2972A"/>
</g>
</g>
<defs>
<clipPath id="clip0_3801_84101">
<rect width="175" height="189.677" fill="white" transform="translate(30 0.162109)"/>
</clipPath>
<clipPath id="clip1_3801_84101">
<rect width="174.026" height="150.429" fill="white" transform="translate(29.022 18.2266)"/>
</clipPath>
</defs>
</svg>
