<svg width="40" height="40" viewBox="0 0 40 40" fill="none" xmlns="http://www.w3.org/2000/svg">
<path d="M8.7995 11.0421C8.5602 11.9006 8.05964 12.6387 7.39548 13.1858C6.26006 14.115 4.80232 15.9184 5.08557 18.9258C5.45427 22.8624 7.96441 23.7863 8.86543 23.9931C9.03147 24.0297 9.19751 24.0481 9.36843 24.0481H9.51494C9.51494 24.0481 10.7212 28.0527 14.6671 26.4901C15.1823 26.286 15.7537 26.3305 16.2152 26.6472C17.5557 27.5633 20.5639 29.2332 23.7114 28.3747C26.4559 27.6261 28.0675 26.1158 28.8635 25.1421C29.2884 24.6239 29.8598 24.2705 30.4946 24.1659C31.9475 23.925 34.4771 22.9802 34.6676 19.3315C34.6676 19.3315 34.8581 17.0255 32.6702 15.3033C32.2112 14.9421 31.884 14.4238 31.7033 13.8454C31.3444 12.6937 30.4043 10.8379 28.0016 10.3223C27.2666 10.1653 26.6049 9.75694 26.075 9.18896C24.8444 7.8724 22.2488 5.92242 18.6813 7.7075C17.9513 8.07132 17.1137 8.07132 16.3934 7.68394C15.3093 7.09502 13.5194 6.55322 11.5514 7.69441C9.77376 8.72568 9.07053 10.0606 8.7995 11.0421Z" fill="#76A9DB"/>
<path d="M20.7589 17.7323C20.5293 17.5648 20.2876 17.4051 20.019 17.3266C19.4891 17.1722 18.803 17.1957 18.6711 18.2951C18.4514 20.1246 20.2852 20.5696 21.5158 19.9624C22.7465 19.3551 23.2373 17.6774 22.4534 17.2926C22.4534 17.2926 22.241 17.0596 21.5598 17.5674C21.1324 17.8867 20.8858 17.8239 20.7589 17.7323Z" fill="#040000"/>
<path d="M20.6807 18.8418C19.7748 18.8392 19.2718 19.347 19.0398 19.6768C19.6087 20.3049 20.6953 20.3678 21.5157 19.9647C21.7477 19.8495 21.9553 19.6977 22.1311 19.5223C21.9479 19.2397 21.5402 18.8444 20.6807 18.8418Z" fill="#040000"/>
<path d="M20.6809 18.8418C19.775 18.8392 19.272 19.347 19.04 19.6768C19.609 20.3049 20.6956 20.3678 21.516 19.9647C21.748 19.8495 21.9555 19.6977 22.1313 19.5223C21.9482 19.2397 21.5404 18.8444 20.6809 18.8418Z" fill="#DE9079"/>
<path d="M28.4893 30.7625C28.4746 31.4353 24.411 32.1778 19.3071 31.708C12.3906 31.0728 10.1615 30.8901 10.1761 30.2143C10.1907 29.5414 14.3006 29.1179 19.3583 29.2688C24.4159 29.4196 28.5039 30.0896 28.4893 30.7625Z" fill="#1C1D1D"/>
<path d="M18.8494 15.5476C18.8575 15.0243 18.6204 14.5958 18.3197 14.5905C18.019 14.5851 17.7686 15.0049 17.7605 15.5282C17.7524 16.0514 17.9896 16.4799 18.2903 16.4853C18.591 16.4906 18.8413 16.0708 18.8494 15.5476Z" fill="#090909"/>
<path d="M7.70559 14.6097C8.4137 13.8454 9.56377 13.2669 10.0277 11.4243C10.3085 10.3145 11.0996 9.22042 11.0996 9.22042C12.8211 6.88044 16.7011 7.82009 16.7011 7.82009V7.81748C16.5961 7.77822 16.4935 7.73372 16.3934 7.67875C15.3093 7.09507 13.5194 6.55326 11.5514 7.69446C9.77132 8.72572 9.07054 10.0606 8.79706 11.0395C8.55776 11.898 8.0572 12.6362 7.39304 13.1832C6.26006 14.115 4.80232 15.9184 5.08557 18.9258C5.45427 22.8624 7.96441 23.7864 8.86543 23.9931C9.03147 24.0298 9.19751 24.0481 9.36843 24.0481H9.51494C9.51494 24.0481 10.7212 28.0528 14.6671 26.4902C14.7623 26.4535 14.86 26.4273 14.9576 26.4064C10.0131 27.189 10.0985 23.0613 10.0985 23.0613C8.88985 23.1346 7.11468 21.8285 6.61167 19.5776C6.2332 17.8867 6.76306 15.6252 7.70559 14.6097Z" fill="#6895BA"/>
<path d="M30.4768 13.2908C30.3327 13.5578 29.6197 13.0291 28.8262 12.537C28.0326 12.0449 27.4685 11.4272 27.6126 11.1603C27.7567 10.8933 28.6211 11.0922 29.4122 11.5817C30.2033 12.0711 30.6184 13.0239 30.4768 13.2908Z" fill="#9BC9ED"/>
<path d="M19.2473 19.8602C19.1839 19.8131 19.1253 19.7607 19.0715 19.7031C19.1277 19.7607 19.1863 19.8131 19.2473 19.8602Z" fill="#090909"/>
<path d="M21.1424 20.1064C21.0691 20.13 20.9934 20.1483 20.9177 20.164C20.9934 20.1483 21.0691 20.13 21.1424 20.1064Z" fill="#090909"/>
<path d="M20.1387 20.1981C20.0581 20.1877 19.98 20.1746 19.9019 20.1562C19.98 20.1772 20.0581 20.1903 20.1387 20.1981Z" fill="#090909"/>
<path d="M19.8336 20.1399C19.6382 20.0876 19.4575 20.0064 19.2964 19.8965C19.4575 20.009 19.6407 20.0876 19.8336 20.1399Z" fill="#090909"/>
<path d="M21.5179 19.9648C21.4251 20.0093 21.3298 20.0486 21.2297 20.08C21.3274 20.046 21.4251 20.0093 21.5179 19.9648Z" fill="#090909"/>
<path d="M22.1311 19.5225C22.053 19.601 21.9651 19.6717 21.8748 19.7397C21.9675 19.6717 22.053 19.601 22.1311 19.5225Z" fill="#090909"/>
<path d="M20.2141 20.2078C20.4168 20.2261 20.6243 20.2157 20.8319 20.1816C20.6243 20.2157 20.4168 20.2235 20.2141 20.2078Z" fill="#090909"/>
<path d="M21.8113 19.7871C21.7185 19.8525 21.6209 19.9127 21.5159 19.9651C21.6209 19.9127 21.7185 19.8525 21.8113 19.7871Z" fill="#090909"/>
<path d="M19.9041 20.1583C19.8821 20.153 19.8577 20.1478 19.8357 20.1426C19.8577 20.1478 19.8796 20.153 19.9041 20.1583Z" fill="#DE9079"/>
<path d="M21.8777 19.7402C21.8557 19.7559 21.8337 19.7716 21.8118 19.7873C21.8337 19.7716 21.8557 19.7559 21.8777 19.7402Z" fill="#DE9079"/>
<path d="M21.23 20.0801C21.2007 20.0905 21.1714 20.0984 21.1421 20.1062C21.1714 20.0984 21.2007 20.0905 21.23 20.0801Z" fill="#DE9079"/>
<path d="M20.918 20.1641C20.8887 20.1693 20.8594 20.1772 20.8301 20.1824C20.8618 20.1772 20.8887 20.1693 20.918 20.1641Z" fill="#DE9079"/>
<path d="M20.2146 20.2079C20.1902 20.2053 20.1658 20.2028 20.1389 20.2002C20.1658 20.2028 20.1902 20.2053 20.2146 20.2079Z" fill="#DE9079"/>
<path d="M19.04 19.6774C19.0498 19.6879 19.062 19.6957 19.0718 19.7036C19.062 19.6931 19.0522 19.6827 19.0425 19.6748C19.0425 19.6748 19.0425 19.6774 19.04 19.6774Z" fill="#DE9079"/>
<path d="M19.2986 19.897C19.2815 19.8865 19.2668 19.8734 19.2498 19.8604C19.2644 19.8734 19.2815 19.8865 19.2986 19.897Z" fill="#DE9079"/>
<path d="M20.6807 18.8418C19.7748 18.8392 19.2742 19.3444 19.0422 19.6741C19.052 19.6846 19.0618 19.6951 19.0715 19.7029C19.1253 19.7605 19.1863 19.8129 19.2473 19.86C19.2644 19.8731 19.2791 19.8862 19.2962 19.8966C19.4573 20.0066 19.638 20.0877 19.8334 20.1401C19.8553 20.1453 19.8798 20.1505 19.9017 20.1558C19.9799 20.1741 20.058 20.1872 20.1386 20.1976C20.163 20.2003 20.1874 20.2055 20.2143 20.2055C20.417 20.2238 20.6245 20.2133 20.8321 20.1793C20.8614 20.1741 20.8907 20.1688 20.92 20.161C20.9957 20.1453 21.0713 20.127 21.1446 20.1034C21.1739 20.0956 21.2032 20.0877 21.2325 20.0772C21.3302 20.0432 21.4278 20.0066 21.5206 19.9621C21.6256 19.9097 21.7209 19.8495 21.8161 19.7841C21.8381 19.7684 21.86 19.7527 21.882 19.737C21.9724 19.6689 22.0578 19.5982 22.1384 19.5197C21.9479 19.2397 21.5402 18.8444 20.6807 18.8418Z" fill="#D15F53"/>
<path d="M20.7584 17.7327C20.5459 17.5783 20.3237 17.4343 20.0796 17.3506C20.0307 17.4448 19.9355 17.6699 20.0771 17.8034C20.2578 17.9709 21.1491 18.4211 21.7424 17.9945C21.7424 17.9945 21.8498 17.9186 21.845 17.8374C21.845 17.8374 21.9036 17.7092 21.7571 17.4396C21.696 17.4762 21.6325 17.5207 21.5617 17.5704C21.132 17.8872 20.8853 17.8243 20.7584 17.7327Z" fill="#F8F7F7"/>
<path d="M24.0745 15.694C24.0826 15.1708 23.8455 14.7423 23.5448 14.7369C23.2441 14.7316 22.9937 15.1514 22.9856 15.6747C22.9775 16.1979 23.2147 16.6264 23.5154 16.6318C23.8161 16.6371 24.0664 16.2173 24.0745 15.694Z" fill="#090909"/>
</svg>
