<svg width="40" height="40" viewBox="0 0 40 40" fill="none" xmlns="http://www.w3.org/2000/svg">
<path d="M19.1715 32.6874C24.2359 32.6874 28.3414 31.9828 28.3414 31.1137C28.3414 30.2446 24.2359 29.54 19.1715 29.54C14.1071 29.54 10.0016 30.2446 10.0016 31.1137C10.0016 31.9828 14.1071 32.6874 19.1715 32.6874Z" fill="#1C1D1D"/>
<path d="M10.3956 10.9399C11.3893 10.6384 12.183 9.90203 12.6493 8.94567C12.8643 8.50437 13.288 8.09542 14.0893 7.89354C14.7055 7.73953 15.1918 7.73436 15.573 7.80942C16.4155 7.97378 17.2918 7.87801 18.043 7.44965C18.503 7.18694 19.1192 6.99023 19.9355 6.99023C20.943 6.99023 21.648 7.30471 22.1267 7.67095C22.8517 8.22484 23.7467 8.48366 24.638 8.34519C25.5167 8.20801 26.6104 8.22225 27.5279 8.79943C28.1417 9.18508 28.4829 9.6225 28.6654 10.0366C29.0842 10.9878 29.8817 11.697 30.8379 12.0322C31.7429 12.3505 32.7117 12.9329 33.2279 14.0031C33.9291 15.4552 33.6716 17.2255 33.3692 18.3773C33.1679 19.1421 33.2092 19.951 33.4779 20.6925C33.7916 21.5609 34.0366 22.7709 33.4779 23.6846C33.2029 24.1349 32.8729 24.4364 32.5392 24.637C31.6042 25.2013 30.9242 26.1279 30.7304 27.2305C30.5529 28.2373 30.1379 29.336 29.2079 29.9456C28.0029 30.735 26.3667 30.7052 25.2442 30.5538C24.4892 30.4516 23.7242 30.6108 23.0555 30.9886C22.5992 31.2462 21.9917 31.4765 21.2805 31.4765C20.7367 31.4765 20.208 31.2863 19.7467 31.0352C18.8205 30.5305 17.738 30.4788 16.753 30.8463C16.1693 31.0637 15.4268 31.1349 14.5618 30.7816C13.9455 30.5305 13.5093 30.1669 13.1993 29.7722C12.4518 28.8197 11.3181 28.2865 10.1381 28.4068C9.27307 28.4948 8.33307 28.2671 7.64058 27.2344C6.92683 26.1706 6.81933 25.2569 6.93308 24.5581C7.08183 23.6393 6.84058 22.7088 6.35684 21.9245C6.07434 21.4664 5.85059 20.8413 5.82684 20.0001C5.79309 18.7591 6.29934 17.7885 6.80558 17.1362C7.33058 16.4581 7.58808 15.6079 7.54808 14.7408C7.50558 13.8375 7.65308 12.709 8.46932 11.9752C9.03432 11.4602 9.73556 11.1405 10.3956 10.9399Z" fill="#F6BC4C"/>
<path d="M15.1671 18.1158C15.2326 17.6758 15.0025 17.2739 14.6531 17.2182C14.3038 17.1625 13.9676 17.4741 13.9021 17.9141C13.8366 18.3542 14.0668 18.7561 14.4161 18.8118C14.7654 18.8675 15.1017 18.5559 15.1671 18.1158Z" fill="#222222"/>
<path d="M23.0455 17.8834C23.1123 17.4342 22.8777 17.0239 22.5216 16.9671C22.1655 16.9104 21.8226 17.2285 21.7557 17.6778C21.6889 18.127 21.9235 18.5372 22.2796 18.594C22.6358 18.6508 22.9786 18.3327 23.0455 17.8834Z" fill="#222222"/>
<path d="M17.5701 18.9199L19.3901 18.9769C19.3901 18.9769 19.6726 21.2908 18.2939 21.041C16.9151 20.7912 17.5701 18.9199 17.5701 18.9199Z" fill="#040000"/>
<path d="M19.3928 19.8714C19.129 19.6617 18.7853 19.5711 18.349 19.7782C17.829 20.0241 17.7715 20.4589 17.884 20.8886C17.9953 20.9585 18.1303 21.0115 18.294 21.0413C19.0803 21.1836 19.3265 20.4913 19.3928 19.8714Z" fill="#D15F53"/>
<path opacity="0.2" d="M27.8233 10.437C28.0072 10.1071 27.6509 9.53751 27.0273 9.16477C26.4038 8.79204 25.7491 8.75732 25.5652 9.08723C25.3812 9.41713 25.7375 9.98673 26.3611 10.3595C26.9846 10.7322 27.6393 10.7669 27.8233 10.437Z" fill="white"/>
</svg>
