<svg width="40" height="40" viewBox="0 0 40 40" fill="none" xmlns="http://www.w3.org/2000/svg">
<path d="M29.3953 25.7212C29.3953 25.7212 34.2751 25.65 33.9167 27.1801C33.5583 28.7079 31.7043 32.0921 19.4105 32.1886C7.11449 32.2874 7.21328 26.9205 7.21328 26.9205L29.3953 25.7212Z" fill="#1C1D1D"/>
<path d="M6.23881 25.4956C6.23881 25.4956 5.3382 13.6867 14.3075 8.95388C14.3075 8.95388 19.8972 5.70986 26.1624 9.94638C26.1624 9.94638 30.6241 12.7401 29.4064 20.2689C29.4064 20.2689 28.0096 23.784 29.2709 25.0476C30.5322 26.3089 29.9027 28.5627 26.6564 29.8263C26.6564 29.8263 20.3016 32.9808 10.071 30.1411C10.071 30.1388 6.12394 28.8913 6.23881 25.4956Z" fill="#EBC359"/>
<path d="M29.4066 20.2665C29.4135 20.2182 29.4204 20.17 29.4273 20.1217C29.2872 20.1125 29.1999 20.124 29.1999 20.124C28.2441 20.1562 27.8972 21.0499 27.7823 21.4956C27.7249 21.7208 27.6629 21.9436 27.5848 22.1642L26.76 24.5329C24.0421 30.1731 20.6763 30.3294 17.0532 30.481C14.0274 30.6074 8.61229 28.5259 6.90527 27.8366C8.00346 29.4839 10.0712 30.1387 10.0712 30.1387C20.3018 32.976 26.6566 29.8216 26.6566 29.8216C29.9006 28.5603 30.5324 26.3065 29.2711 25.0429C28.0075 23.7816 29.4066 20.2665 29.4066 20.2665Z" fill="#D29F3C"/>
<path d="M20.1559 16.4022C20.4963 16.4791 20.8534 16.1822 20.9535 15.7391C21.0537 15.296 20.859 14.8744 20.5186 14.7975C20.1783 14.7206 19.8212 15.0174 19.721 15.4606C19.6209 15.9037 19.8156 16.3253 20.1559 16.4022Z" fill="black"/>
<path d="M14.1597 16.2575C14.1597 16.2575 12.6398 15.2176 12.1751 16.8059C11.7104 18.3942 13.2797 19.3489 15.5527 19.5866C17.4509 19.7869 19.0543 19.8813 19.8836 18.9318C20.2516 18.5091 20.3796 17.9137 20.1447 17.3966C19.9853 17.0405 19.6456 16.6874 18.9526 16.5943C17.4398 16.3896 17.1014 18.0116 14.1597 16.2575Z" fill="#040000"/>
<path d="M16.1885 18.0183C14.9238 17.8729 13.8013 18.3203 13.4048 19.0631C13.9826 19.3357 14.7154 19.5172 15.5443 19.6044C16.7476 19.7287 17.8312 19.8109 18.6787 19.6137C18.4094 18.8251 17.4222 18.1622 16.1885 18.0183Z" fill="#D15F53"/>
<path d="M13.767 16.6258C13.8354 16.7271 13.9625 16.8467 14.2011 16.8957C14.5389 16.9621 14.6798 16.7495 14.7304 16.633L14.7392 16.554C14.5643 16.4655 14.3835 16.3646 14.1877 16.2475C14.1877 16.2475 14.0047 16.122 13.7428 16.0229L13.7069 16.3631C13.6946 16.4541 13.7134 16.5467 13.767 16.6258Z" fill="white"/>
<path d="M14.7406 16.559C14.7406 16.559 14.7334 16.589 14.7166 16.6278L14.7126 16.655C14.7033 16.7489 14.722 16.8473 14.7721 16.9321C14.8343 17.0328 14.9459 17.1421 15.1562 17.1865C15.4501 17.2474 15.5811 17.047 15.6316 16.9309C15.3696 16.8473 15.0745 16.7285 14.7406 16.559Z" fill="white"/>
<path d="M14.7465 16.559C14.7402 16.5556 14.7339 16.5522 14.7307 16.5521L14.7217 16.6318C14.7391 16.5895 14.7465 16.559 14.7465 16.559Z" fill="white"/>
<path d="M13.2094 15.3675C13.5202 15.4576 13.8672 15.2025 13.9844 14.7979C14.1016 14.3933 13.9447 13.9923 13.6339 13.9023C13.3231 13.8122 12.9762 14.0673 12.8589 14.4719C12.7417 14.8765 12.8987 15.2775 13.2094 15.3675Z" fill="black"/>
<path d="M25.9408 11.2095C26.0659 10.9928 25.6079 10.4941 24.9179 10.0957C24.2278 9.69723 23.567 9.54996 23.4418 9.76671C23.3167 9.98347 23.7746 10.4822 24.4647 10.8806C25.1547 11.279 25.8156 11.4263 25.9408 11.2095Z" fill="#FED26F"/>
</svg>
