<svg width="40" height="40" viewBox="0 0 40 40" fill="none" xmlns="http://www.w3.org/2000/svg">
<path d="M19.2487 32.9102C24.1546 32.9102 28.1315 32.2428 28.1315 31.4195C28.1315 30.5961 24.1546 29.9287 19.2487 29.9287C14.3429 29.9287 10.366 30.5961 10.366 31.4195C10.366 32.2428 14.3429 32.9102 19.2487 32.9102Z" fill="#1C1D1D"/>
<path d="M31.5181 22.9934C31.8499 21.8276 31.8402 20.6261 31.8402 19.3217C31.8354 12.6232 26.6675 7.07707 20.1918 6.99125C13.6012 6.90421 8.23231 12.4025 8.23231 19.1979C8.23231 20.7156 8.50112 22.1696 8.9903 23.5108C8.02768 24.0784 7.37866 25.1486 7.37866 26.3758C7.37866 28.1975 8.80625 29.6736 10.5668 29.6736H13.0733C14.846 30.7732 16.9698 31.4058 19.1868 31.4058C21.4039 31.4058 24.3257 30.7732 26.0972 29.6736H29.5021C30.6076 29.6527 32.3633 28.3018 32.3633 26.4812C32.3633 25.411 32.3427 24.3236 31.701 23.6861C31.523 23.5059 31.4479 23.2398 31.5181 22.9934Z" fill="#D9E47A"/>
<path d="M15.3433 16.4635C15.5038 16.0742 15.3778 15.6504 15.0619 15.5168C14.7459 15.3832 14.3596 15.5905 14.1991 15.9798C14.0386 16.369 14.1646 16.7928 14.4805 16.9264C14.7965 17.06 15.1828 16.8527 15.3433 16.4635Z" fill="#222222"/>
<path d="M22.8027 18.1086C22.9665 17.7112 22.8383 17.2787 22.5161 17.1425C22.194 17.0063 21.8 17.2181 21.6361 17.6155C21.4723 18.0128 21.6006 18.4454 21.9227 18.5815C22.2448 18.7177 22.6388 18.506 22.8027 18.1086Z" fill="#222222"/>
<path d="M20.1781 31.3629C12.7979 30.3747 12.8803 26.8906 12.8803 26.8906C12.8803 26.8906 12.4892 29.0397 10.145 29.6416C10.2091 29.6502 10.2733 29.6576 10.3387 29.6625C10.3472 29.6637 10.3556 29.6637 10.3641 29.6649C10.4319 29.6698 10.4997 29.6723 10.5675 29.6723H13.074C14.8467 30.772 16.9705 31.4045 19.1876 31.4045C19.5048 31.4021 19.8378 31.3886 20.1781 31.3629Z" fill="#C8CC71"/>
<path d="M28.205 29.673C25.8402 28.9325 25.7942 27.0703 25.7942 27.0703C25.4915 30.0101 24.2807 30.4858 24.2552 30.5275C24.9394 30.2872 25.5714 30.0015 26.0994 29.6742H28.205V29.673Z" fill="#C8CC71"/>
<path opacity="0.2" d="M15.4466 10.2434C16.2837 9.82331 16.8339 9.22066 16.6757 8.89731C16.5174 8.57397 15.7105 8.65237 14.8734 9.07243C14.0364 9.49248 13.4861 10.0951 13.6444 10.4185C13.8027 10.7418 14.6096 10.6634 15.4466 10.2434Z" fill="white"/>
<path d="M20.2445 18.9774C19.713 17.7919 15.6082 17.402 15.2583 18.3681C14.9713 19.1613 15.475 20.1126 16.1555 20.782C16.4122 20.1984 16.9099 19.4457 17.7538 19.5241C18.5881 19.6014 19.0724 20.3725 19.3243 20.9585C20.0242 20.4203 20.5436 19.6455 20.2445 18.9774Z" fill="#383A1B"/>
<path d="M17.7538 19.526C16.9086 19.4488 16.4122 20.2015 16.1555 20.7838C16.6471 21.2681 17.2295 21.6052 17.6726 21.6285C18.1328 21.653 18.783 21.3772 19.3242 20.9603C19.0724 20.3743 18.5868 19.6032 17.7538 19.526Z" fill="#D15F53"/>
</svg>
