<svg width="40" height="40" viewBox="0 0 40 40" fill="none" xmlns="http://www.w3.org/2000/svg">
<path d="M19.0277 32.4672C24.4972 32.4672 28.9311 31.7297 28.9311 30.82C28.9311 29.9103 24.4972 29.1729 19.0277 29.1729C13.5582 29.1729 9.12433 29.9103 9.12433 30.82C9.12433 31.7297 13.5582 32.4672 19.0277 32.4672Z" fill="#1C1D1D"/>
<path d="M23.0564 27.9262C15.1867 27.9262 9.95415 25.9926 9.52041 19.1675C9.50655 18.959 9.51209 18.7506 9.53288 18.5422C9.77677 16.0696 10.6346 13.6643 11.5575 11.248C11.951 10.2168 12.2018 9.3981 12.551 8.66992C12.3016 8.79608 12.0563 8.92773 11.8166 9.06624C11.7875 9.0827 11.7584 9.10188 11.7307 9.12245C9.68808 10.6172 9.51071 11.8638 8.646 14.1292C7.72447 16.5455 6.86531 18.9508 6.62142 21.4233C6.60063 21.6304 6.59647 21.8402 6.60894 22.0487C7.04268 28.8752 12.2753 30.8074 20.145 30.8074C27.0834 30.8074 29.9602 30.8499 32.3881 26.8908C30.3219 27.944 27.5366 27.9262 23.0564 27.9262Z" fill="#5B81A6"/>
<path d="M33.5807 24.0303C33.7477 20.0964 32.8462 17.5746 31.565 15.3824C30.3268 13.2644 30.7386 11.6793 28.9997 9.73435C28.9454 9.67391 28.8814 9.62172 28.8119 9.57914C28.2804 9.25772 27.724 8.96791 27.148 8.70968C24.6857 7.85945 23.2013 8.04762 20.5915 8.04762C17.9831 8.04762 16.3916 7.25372 13.2198 8.3347C13.1892 8.34569 13.1572 8.35804 13.128 8.37178C12.9262 8.4638 12.7287 8.55996 12.5325 8.65886C12.182 9.38822 11.9302 10.2096 11.5351 11.2411C10.61 13.6613 9.74744 16.0706 9.5026 18.5471C9.48173 18.7545 9.47755 18.9646 9.49008 19.1734C9.92551 26.011 15.1785 27.9463 23.0789 27.9463C27.5765 27.9463 30.3741 27.9628 32.447 26.9079C32.7015 26.4945 32.9506 26.0385 33.1982 25.533C33.4277 25.0632 33.5585 24.5509 33.5807 24.0303Z" fill="#709CD2"/>
<path d="M18.9454 17.1731C19.0179 16.7053 18.7628 16.2781 18.3756 16.2189C17.9884 16.1597 17.6157 16.4909 17.5431 16.9587C17.4706 17.4265 17.7256 17.8537 18.1129 17.9129C18.5001 17.9721 18.8728 17.6408 18.9454 17.1731Z" fill="#222222"/>
<path d="M27.6775 16.9291C27.7516 16.4516 27.4916 16.0155 27.0968 15.9551C26.7021 15.8948 26.322 16.233 26.2479 16.7105C26.1738 17.1881 26.4338 17.6241 26.8286 17.6845C27.2234 17.7449 27.6035 17.4067 27.6775 16.9291Z" fill="#222222"/>
<path d="M21.3296 18.0591C21.6842 17.8211 22.0892 18.0633 22.6988 18.094C23.3084 18.1248 24.4075 17.6336 24.8658 17.9891C25.324 18.3445 25.324 20.4424 23.0956 20.6929C20.8687 20.9434 20.4718 19.4403 20.8182 18.6021C20.9791 18.2144 21.1223 18.199 21.3296 18.0591Z" fill="#2F4564"/>
<path d="M22.714 19.3659C21.8746 19.3822 21.4657 20.0061 21.2983 20.3594C21.7186 20.6697 22.3624 20.799 23.1208 20.6965C23.8488 20.5982 24.2778 20.3534 24.5947 20.0224C24.2093 19.6825 23.6275 19.3481 22.714 19.3659Z" fill="#D15F53"/>
<path opacity="0.2" d="M28.2182 10.9092C28.4222 10.5585 28.0272 9.95304 27.336 9.55683C26.6448 9.16063 25.9191 9.12372 25.7152 9.47441C25.5113 9.82509 25.9063 10.4306 26.5975 10.8268C27.2886 11.223 28.0143 11.2599 28.2182 10.9092Z" fill="white"/>
</svg>
