<svg width="40" height="40" viewBox="0 0 40 40" fill="none" xmlns="http://www.w3.org/2000/svg">
<path d="M20.1419 32.7523C24.846 32.7523 28.6594 32.1412 28.6594 31.3874C28.6594 30.6335 24.846 30.0225 20.1419 30.0225C15.4379 30.0225 11.6245 30.6335 11.6245 31.3874C11.6245 32.1412 15.4379 32.7523 20.1419 32.7523Z" fill="#1C1D1D"/>
<path d="M32.7622 20.5771C32.4451 10.3858 28.2619 7.1144 25.3457 7.00826C24.7292 6.98513 23.1547 6.88714 21.8551 7.76351L20.8549 8.3337C19.969 8.90525 17.1712 9.21143 16.2513 8.80591C15.6824 8.55551 15.1354 8.37044 14.455 8.00574C14.0603 7.79481 13.6099 7.71589 13.1663 7.77304C10.68 8.101 7.38002 12.2352 7.37866 19.438C7.37866 23.711 8.55714 28.2998 10.5807 29.4605C13.403 31.0799 12.411 28.6903 19.7867 28.7652C26.482 28.8346 26.5922 30.2593 28.9478 29.4605C30.789 28.8359 32.9894 27.882 32.7622 20.5771Z" fill="#9073B1"/>
<path d="M21.9859 8.58933C21.9859 8.58933 23.0133 8.07085 23.0133 8.06949C24.3564 7.25844 25.9228 7.43534 26.5378 7.48841C26.923 7.52107 27.3271 7.61225 27.7381 7.76603C26.9162 7.2666 26.0901 7.03255 25.3485 7.00533C24.732 6.9822 23.1576 6.88421 21.858 7.76058L20.8578 8.33077C20.2971 8.69275 18.973 8.94723 17.8422 8.98261C19.007 9.22892 21.1993 9.04385 21.9859 8.58933Z" fill="#7D65A0"/>
<path d="M10.68 26.7614C8.65648 25.5993 7.88897 22.6109 7.88897 18.3379C7.88897 15.5509 8.38431 13.2253 9.13413 11.4004C8.10534 13.3532 7.38002 16.0572 7.37866 19.4361C7.37866 23.7091 8.55714 28.2978 10.5807 29.4586C13.403 31.078 12.411 28.6884 19.7867 28.7632C22.0198 28.7863 23.5439 28.9279 24.6639 29.1606C23.612 28.7074 22.2307 28.54 20.3419 28.4203C14.9884 28.0814 13.5024 28.3808 10.68 26.7614Z" fill="#7D65A0"/>
<path d="M17.7832 16.9494C17.8545 16.4867 17.6039 16.0641 17.2236 16.0055C16.8433 15.9469 16.4773 16.2746 16.406 16.7373C16.3347 17.2001 16.5853 17.6227 16.9656 17.6812C17.3459 17.7398 17.7119 17.4122 17.7832 16.9494Z" fill="#222222"/>
<path d="M25.9931 16.6148C26.0658 16.1424 25.8105 15.711 25.4228 15.6513C25.035 15.5916 24.6618 15.9261 24.589 16.3985C24.5163 16.8709 24.7716 17.3023 25.1593 17.362C25.547 17.4217 25.9203 17.0872 25.9931 16.6148Z" fill="#222222"/>
<path opacity="0.2" d="M28.3699 10.7502C28.5702 10.4033 28.1823 9.80434 27.5034 9.41239C26.8246 9.02045 26.1119 8.98395 25.9116 9.33086C25.7113 9.67776 26.0993 10.2767 26.7781 10.6687C27.4569 11.0606 28.1696 11.0971 28.3699 10.7502Z" fill="white"/>
<path d="M22.5764 20.2167C23.2718 19.837 23.4174 19.1811 23.4446 18.9675C23.4501 18.9307 23.4201 18.8994 23.3834 18.8994L19.5717 18.9579C19.5322 18.9579 19.5037 18.9974 19.5132 19.0355C19.6438 19.52 19.8507 19.8778 20.1405 20.1174C20.3678 19.8983 20.6849 19.6887 21.0904 19.6588C21.5544 19.6261 22.1314 19.9241 22.5764 20.2167Z" fill="#32224A"/>
<path d="M22.5762 20.2165C22.1312 19.9239 21.5542 19.6259 21.0929 19.6599C20.6874 19.6898 20.369 19.8994 20.1431 20.1185C20.4887 20.4043 20.9514 20.524 21.5447 20.4886C21.9815 20.4628 22.3163 20.358 22.5762 20.2165Z" fill="#D15F53"/>
</svg>
