<svg width="25" height="25" viewBox="0 0 25 25" fill="none" xmlns="http://www.w3.org/2000/svg">
<path fill-rule="evenodd" clip-rule="evenodd" d="M4.72197 13.2067L7.55039 10.3782L7.57599 10.4038L7.61961 10.4474L7.6631 10.4909L7.70646 10.5343L7.7497 10.5775L7.79281 10.6206L7.83579 10.6636L7.87865 10.7065L7.92138 10.7492L7.96398 10.7918L8.00646 10.8343L8.04881 10.8766L8.09103 10.9189L8.13313 10.961L8.1751 11.0029L8.21695 11.0448L8.25867 11.0865L8.30027 11.1281L8.34174 11.1696L8.38309 11.2109L8.42432 11.2522L8.46542 11.2932L8.50639 11.3342L8.54724 11.3751L8.58797 11.4158L8.62857 11.4564L8.66905 11.4969L8.70941 11.5372L8.74964 11.5775L8.78975 11.6176L8.82973 11.6576L8.8696 11.6974L8.90934 11.7372L8.94896 11.7768L8.96461 11.7924L6.13618 14.6209C4.96461 15.7924 4.96461 17.6919 6.13618 18.8635C7.30775 20.0351 9.20725 20.0351 10.3788 18.8635L13.2072 16.0351L13.2142 16.042L13.2387 16.0666L13.2632 16.091L13.2875 16.1153L13.3117 16.1395L13.3358 16.1637L13.3598 16.1877L13.3838 16.2116L13.4076 16.2354L13.4313 16.2591L13.4549 16.2828L13.4785 16.3063L13.5019 16.3297L13.5252 16.353L13.5484 16.3763L13.5716 16.3994L13.5946 16.4224L13.6175 16.4453L13.6403 16.4682L13.6631 16.4909L13.6857 16.5135L13.7082 16.5361L13.7307 16.5585L13.753 16.5808L13.7753 16.6031L13.7974 16.6252L13.8194 16.6473L13.8414 16.6692L13.8632 16.6911L13.885 16.7128L13.9067 16.7345L13.9282 16.7561L13.9497 16.7775L13.9711 16.7989L13.9923 16.8202L14.0135 16.8414L14.0346 16.8624L14.0556 16.8834L14.0765 16.9043L14.0973 16.9251L14.118 16.9458L14.1386 16.9664L14.1591 16.9869L14.1795 17.0074L14.1998 17.0277L14.2201 17.0479L14.2402 17.068L14.2602 17.0881L14.2802 17.108L14.3 17.1279L14.3198 17.1476L14.3395 17.1673L14.3591 17.1869L14.3785 17.2064L14.3979 17.2258L14.4172 17.245L14.4364 17.2643L14.4555 17.2834L14.4745 17.3024L14.4935 17.3213L14.5123 17.3401L14.5311 17.3589L14.5497 17.3775L14.5683 17.3961L14.5867 17.4146L14.6051 17.4329L14.6215 17.4493L11.793 20.2777C9.84041 22.2303 6.67459 22.2303 4.72197 20.2777C2.76934 18.3251 2.76934 15.1593 4.72197 13.2067ZM18.8641 6.13559C20.0357 7.30716 20.0357 9.20665 18.8641 10.3782L16.0357 13.2067L16.0426 13.2136L16.0672 13.2381L16.0916 13.2626L16.1159 13.2869L16.1401 13.3111L16.1642 13.3352L16.1883 13.3593L16.2122 13.3832L16.236 13.407L16.2597 13.4307L16.2834 13.4543L16.3069 13.4779L16.3303 13.5013L16.3536 13.5246L16.3769 13.5478L16.4 13.571L16.423 13.594L16.4459 13.6169L16.4688 13.6397L16.4915 13.6625L16.5141 13.6851L16.5367 13.7076L16.5591 13.7301L16.5814 13.7524L16.6037 13.7747L16.6258 13.7968L16.6479 13.8189L16.6698 13.8408L16.6917 13.8627L16.7134 13.8844L16.7351 13.9061L16.7567 13.9276L16.7781 13.9491L16.7995 13.9705L16.8208 13.9917L16.8419 14.0129L16.863 14.034L16.884 14.055L16.9049 14.0759L16.9257 14.0967L16.9464 14.1174L16.967 14.138L16.9875 14.1585L17.0079 14.1789L17.0283 14.1992L17.0485 14.2195L17.0686 14.2396L17.0887 14.2597L17.1086 14.2796L17.1285 14.2995L17.1482 14.3192L17.1679 14.3389L17.1875 14.3585L17.207 14.3779L17.2263 14.3973L17.2456 14.4166L17.2648 14.4358L17.284 14.4549L17.303 14.474L17.3219 14.4929L17.3407 14.5117L17.3595 14.5305L17.3781 14.5491L17.3967 14.5677L17.4152 14.5861L17.4335 14.6045L17.4499 14.6209L20.2783 11.7924C22.2309 9.83982 22.2309 6.67399 20.2783 4.72137C18.3257 2.76875 15.1599 2.76875 13.2072 4.72137L10.3788 7.5498L10.4044 7.5754L10.448 7.61902L10.4915 7.66251L10.5349 7.70587L10.5781 7.74911L10.6212 7.79222L10.6642 7.8352L10.7071 7.87805L10.7498 7.92078L10.7924 7.96339L10.8349 8.00586L10.8772 8.04821L10.9195 8.09044L10.9616 8.13254L11.0035 8.17451L11.0454 8.21636L11.0871 8.25808L11.1287 8.29968L11.1702 8.34115L11.2115 8.3825L11.2527 8.42372L11.2938 8.46482L11.3348 8.5058L11.3757 8.54665L11.4164 8.58737L11.457 8.62798L11.4975 8.66846L11.5378 8.70881L11.5781 8.74904L11.6182 8.78915L11.6582 8.82914L11.698 8.869L11.7378 8.90874L11.7774 8.94836L11.793 8.96401L14.6215 6.13559C15.793 4.96401 17.6925 4.96401 18.8641 6.13559ZM8.96461 14.6209C8.57408 15.0114 8.57408 15.6446 8.96461 16.0351C9.35513 16.4256 9.9883 16.4256 10.3788 16.0351L16.0357 10.3782C16.4262 9.9877 16.4262 9.35454 16.0357 8.96401C15.6451 8.57349 15.012 8.57349 14.6215 8.96401L8.96461 14.6209Z" fill="#2F2F2F"/>
</svg>
