<svg width="222" height="56" viewBox="0 0 222 56" fill="none" xmlns="http://www.w3.org/2000/svg">
<g filter="url(#filter0_i_3503_80803)">
<path d="M187.125 4H34.3349C21.4474 4 11 14.4474 11 27.3349V29.0219C11 41.9094 21.4474 52.3568 34.3349 52.3568H187.125C200.012 52.3568 210.46 41.9094 210.46 29.0219V27.3349C210.46 14.4474 200.012 4 187.125 4Z" fill="url(#paint0_linear_3503_80803)"/>
</g>
<path d="M187.125 3H34.3349C20.8951 3 10 13.8951 10 27.3349V29.0219C10 42.4617 20.8951 53.3568 34.3349 53.3568H187.125C200.565 53.3568 211.46 42.4617 211.46 29.0219V27.3349C211.46 13.8951 200.565 3 187.125 3Z" stroke="url(#paint1_linear_3503_80803)" stroke-width="2"/>
<path d="M29.5102 17.6869C32.0347 16.2294 33.4288 13.9176 32.6239 12.5235C31.819 11.1294 29.1199 11.1808 26.5954 12.6383C24.0709 14.0958 22.6769 16.4076 23.4818 17.8017C24.2867 19.1958 26.9857 19.1444 29.5102 17.6869Z" fill="#F196B3" fill-opacity="0.6"/>
<path d="M21.324 23.7754C22.6075 23.7754 23.6479 22.7208 23.6479 21.4199C23.6479 20.119 22.6075 19.0645 21.324 19.0645C20.0405 19.0645 19 20.119 19 21.4199C19 22.7208 20.0405 23.7754 21.324 23.7754Z" fill="#F196B3" fill-opacity="0.6"/>
<g clip-path="url(#clip0_3503_80803)">
<path d="M73.1612 34.8336C72.7458 34.8419 72.3306 34.8102 71.9214 34.7389C71.6531 34.6977 71.4045 34.5734 71.2107 34.3835C71.0353 34.1783 70.9253 33.9252 70.8948 33.657C70.8353 33.2571 70.8089 32.853 70.8158 32.4488V23.5569C70.8088 23.1553 70.8352 22.7538 70.8948 22.3566C70.9266 22.0911 71.0365 21.841 71.2107 21.638C71.4045 21.4481 71.6531 21.3238 71.9214 21.2827C72.3306 21.2113 72.7458 21.1796 73.1612 21.1879H76.5252C76.7232 21.1818 76.92 21.2196 77.1017 21.2985C77.2444 21.3654 77.371 21.4624 77.4728 21.5827C77.5689 21.7029 77.6364 21.8433 77.6703 21.9934C77.7071 22.154 77.7256 22.3182 77.7255 22.483C77.7334 22.8052 77.6424 23.1221 77.4649 23.3911C77.2912 23.6501 76.9769 23.7781 76.5252 23.7781H74.2667C74.1984 23.7526 74.1241 23.7473 74.0528 23.7628C73.9815 23.7783 73.9162 23.814 73.8646 23.8656C73.813 23.9172 73.7774 23.9825 73.7619 24.0538C73.7463 24.1251 73.7516 24.1993 73.7771 24.2677V26.6841H75.7197C75.9169 26.6779 76.1133 26.7129 76.2962 26.7867C76.4393 26.8493 76.5643 26.9471 76.6595 27.071C76.7486 27.1944 76.813 27.3338 76.849 27.4817C76.8861 27.6395 76.9046 27.8012 76.9043 27.9634C76.9119 28.282 76.8239 28.5956 76.6516 28.8636C76.4831 29.1163 76.1725 29.2427 75.7197 29.2427H73.7771V31.7539C73.7516 31.8222 73.7463 31.8965 73.7619 31.9677C73.7774 32.039 73.813 32.1044 73.8646 32.1559C73.9162 32.2075 73.9815 32.2432 74.0528 32.2587C74.1241 32.2742 74.1984 32.2689 74.2667 32.2435H77.0938C77.2917 32.2374 77.4886 32.2751 77.6703 32.354C77.813 32.421 77.9396 32.5179 78.0414 32.6383C78.1375 32.7585 78.205 32.8989 78.2388 33.0489C78.2757 33.2095 78.2942 33.3738 78.2941 33.5385C78.3019 33.8607 78.211 34.1776 78.0335 34.4467C77.8598 34.7041 77.5455 34.8336 77.0938 34.8336H73.1612ZM78.8469 29.2427H78.4047C78.2014 29.2508 77.999 29.213 77.8124 29.1321C77.6671 29.0657 77.5418 28.9622 77.4491 28.832C77.3562 28.6992 77.2917 28.5487 77.2596 28.3898C77.2214 28.2134 77.2028 28.0333 77.2043 27.8528C77.2034 27.6776 77.222 27.5028 77.2596 27.3316C77.292 27.1728 77.3565 27.0224 77.4491 26.8894C77.5431 26.7585 77.6679 26.6527 77.8124 26.5814C77.9976 26.4954 78.2006 26.4547 78.4047 26.463H78.8469V21.9776C78.8469 21.5354 78.978 21.2021 79.2417 20.9747C79.5048 20.7483 79.8424 20.6273 80.1893 20.6351C80.5379 20.6322 80.8763 20.7525 81.1449 20.9747C81.2874 21.0981 81.3994 21.2529 81.472 21.4269C81.5447 21.6009 81.5759 21.7894 81.5634 21.9776V34.1071C81.5634 34.4673 81.4203 34.8128 81.1656 35.0675C80.9108 35.3223 80.5654 35.4654 80.2051 35.4654C80.0268 35.4654 79.8501 35.4302 79.6854 35.362C79.5206 35.2937 79.3708 35.1937 79.2447 35.0675C79.1186 34.9414 79.0185 34.7917 78.9503 34.6269C78.882 34.4621 78.8469 34.2855 78.8469 34.1071V29.2427ZM82.2583 21.9776C82.2454 21.7894 82.2765 21.6008 82.3492 21.4267C82.4218 21.2526 82.534 21.0979 82.6768 20.9747C82.9503 20.7502 83.2944 20.6299 83.6482 20.6351C83.999 20.6331 84.3396 20.7531 84.6116 20.9747C84.7563 21.0967 84.8704 21.251 84.9445 21.4252C85.0185 21.5995 85.0506 21.7887 85.038 21.9776V34.1071C85.038 34.4673 84.8949 34.8128 84.6402 35.0675C84.3854 35.3223 84.04 35.4654 83.6797 35.4654H83.6166C83.2563 35.4654 82.9109 35.3223 82.6561 35.0675C82.4014 34.8128 82.2583 34.4673 82.2583 34.1071V21.9776Z" fill="white"/>
<path d="M99.3232 32.4732C99.5399 32.4666 99.7554 32.507 99.955 32.5917C100.118 32.6626 100.263 32.7676 100.381 32.8997C100.491 33.0252 100.572 33.1735 100.618 33.334C100.664 33.4879 100.688 33.6473 100.689 33.8078C100.689 33.9742 100.663 34.1395 100.61 34.2974C100.558 34.4543 100.475 34.5993 100.366 34.7238C100.25 34.8533 100.107 34.9558 99.9471 35.0239C99.7516 35.1028 99.5419 35.1405 99.3311 35.1345H87.2648C87.054 35.1408 86.8442 35.1031 86.6488 35.0239C86.4888 34.9562 86.3458 34.8537 86.2303 34.7238C86.1207 34.5997 86.0374 34.4546 85.9855 34.2974C85.9323 34.1397 85.9056 33.9742 85.9065 33.8078C85.9081 33.6473 85.932 33.4879 85.9776 33.334C86.0236 33.1735 86.1045 33.0252 86.2145 32.8997C86.3329 32.7676 86.4783 32.6626 86.6409 32.5917C86.838 32.508 87.0507 32.4676 87.2648 32.4732H99.3232ZM94.8852 22.5232C94.8713 23.0148 94.797 23.5028 94.6641 23.9762C95.3391 24.0005 96.0058 24.1339 96.6383 24.3711C97.2931 24.616 97.8939 24.9862 98.4072 25.4608C98.9592 25.9822 99.4067 26.604 99.726 27.2929C99.7986 27.4508 99.8649 27.6088 99.9265 27.7667C100.013 28.0098 100.04 28.2702 100.005 28.5258C99.9699 28.7815 99.8736 29.025 99.7244 29.2355C99.5752 29.4461 99.3774 29.6176 99.1479 29.7356C98.9183 29.8535 98.6637 29.9144 98.4056 29.9131C98.0749 29.9099 97.7529 29.8064 97.4822 29.6164C97.2115 29.4263 97.0048 29.1586 96.8894 28.8486C96.8373 28.7175 96.7804 28.5911 96.7173 28.468C96.5108 28.0611 96.2295 27.6967 95.8881 27.394C95.5568 27.1057 95.1735 26.8833 94.7589 26.7386C94.3273 26.5904 93.8726 26.5208 93.4164 26.5332C92.708 27.5102 91.8079 28.3324 90.771 28.9497C90.2831 29.2394 89.7639 29.4726 89.2232 29.6446C88.7151 29.8097 88.1858 29.9001 87.6517 29.9131C87.2881 29.9302 86.9301 29.8183 86.6409 29.5972C86.4993 29.4895 86.3823 29.3527 86.2979 29.1961C86.2134 29.0395 86.1634 28.8666 86.1513 28.6891C86.1242 28.5128 86.1321 28.3328 86.1745 28.1595C86.217 27.9863 86.2932 27.8231 86.3989 27.6793C86.5045 27.5356 86.6374 27.414 86.7901 27.3217C86.9427 27.2294 87.1121 27.1681 87.2885 27.1413C87.8171 27.0212 88.3252 26.8243 88.7968 26.5569C89.2875 26.2828 89.7325 25.9338 90.1155 25.5224C90.5136 25.0934 90.8438 24.6061 91.0947 24.0773C91.3646 23.5037 91.5406 22.8905 91.6159 22.2611C91.6791 21.7557 91.8818 21.3845 92.224 21.1476C92.5679 20.9101 92.9844 20.8011 93.4006 20.8396C93.8168 20.8612 94.2105 21.0355 94.5062 21.3292C94.7799 21.6198 94.9063 22.0178 94.8852 22.5232Z" fill="white"/>
<path d="M114.836 32.6045C115.053 32.5979 115.269 32.6383 115.468 32.7229C115.631 32.7961 115.777 32.9039 115.895 33.0388C116.003 33.1622 116.084 33.3076 116.131 33.4652C116.178 33.6189 116.202 33.7785 116.203 33.9391C116.203 34.1054 116.176 34.2708 116.124 34.4287C116.071 34.5856 115.988 34.7305 115.879 34.8551C115.763 34.9846 115.62 35.087 115.46 35.1552C115.265 35.2341 115.055 35.2717 114.844 35.2657H102.778C102.567 35.2721 102.357 35.2344 102.162 35.1552C102.002 35.0875 101.859 34.985 101.743 34.8551C101.634 34.7309 101.551 34.5859 101.499 34.4287C101.445 34.2709 101.419 34.1055 101.42 33.9391C101.42 33.7785 101.444 33.6189 101.491 33.4652C101.538 33.3076 101.619 33.1622 101.728 33.0388C101.845 32.9039 101.991 32.7961 102.154 32.7229C102.351 32.6393 102.564 32.5989 102.778 32.6045H114.836ZM114.205 21.2173C114.397 21.2121 114.589 21.2498 114.765 21.3278C114.909 21.3964 115.038 21.493 115.144 21.6121C115.243 21.7269 115.316 21.8616 115.358 22.007C115.399 22.1508 115.42 22.2996 115.421 22.4492C115.422 22.7521 115.322 23.0466 115.136 23.2862C114.947 23.5389 114.636 23.6653 114.205 23.6653H105.802C105.487 23.6653 105.329 23.8027 105.329 24.0759V24.6919H114.11C114.552 24.6919 114.868 24.8182 115.058 25.0709C115.234 25.3026 115.331 25.5851 115.334 25.8764C115.334 26.1719 115.234 26.4587 115.05 26.6898C114.86 26.9372 114.549 27.0609 114.118 27.0609H105.337V27.6611C105.33 27.7217 105.337 27.7831 105.358 27.8405C105.378 27.898 105.411 27.95 105.455 27.9927C105.559 28.0634 105.685 28.0968 105.81 28.0875H114.465C114.658 28.0823 114.85 28.1201 115.026 28.1981C115.17 28.2666 115.299 28.3632 115.405 28.4823C115.502 28.5949 115.575 28.7268 115.618 28.8693C115.66 29.0104 115.681 29.1566 115.681 29.3036C115.682 29.6065 115.582 29.9011 115.397 30.1407C115.208 30.3934 114.897 30.5197 114.465 30.5197H104.642C103.726 30.5197 103.078 30.3223 102.699 29.9275C102.32 29.5326 102.13 28.9088 102.13 28.0559V23.6811C102.13 22.8282 102.32 22.2044 102.699 21.8095C103.078 21.4147 103.726 21.2173 104.642 21.2173H114.205Z" fill="white"/>
<path d="M119.76 32.281C120.318 31.901 120.813 31.4376 121.229 30.907C121.642 30.3665 121.967 29.7642 122.193 29.1223C122.451 28.3753 122.626 27.6019 122.714 26.8164C122.825 25.8359 122.878 24.8497 122.872 23.863V22.6311C122.866 22.4027 122.912 22.1761 123.006 21.9677C123.09 21.7845 123.211 21.6205 123.361 21.486C123.508 21.355 123.68 21.2555 123.867 21.1939C124.06 21.13 124.263 21.0979 124.467 21.0991C124.666 21.0993 124.864 21.134 125.051 21.2018C125.237 21.2693 125.408 21.3711 125.557 21.5018C125.715 21.6436 125.841 21.8179 125.925 22.0128C126.01 22.2078 126.051 22.4187 126.046 22.6311V23.8472C126.049 24.7231 126.002 25.5985 125.904 26.4689C126.55 26.7059 127.15 27.0503 127.681 27.4876C128.205 27.9318 128.63 28.4805 128.929 29.0986C129.274 29.8293 129.5 30.6103 129.6 31.4123C129.673 31.9543 129.712 32.5002 129.717 33.047C129.72 33.2439 129.684 33.4395 129.611 33.6224C129.537 33.8053 129.428 33.9717 129.29 34.1121C129.152 34.2525 128.987 34.364 128.806 34.4401C128.624 34.5161 128.429 34.5553 128.232 34.5553H128.193C127.995 34.5545 127.8 34.5146 127.619 34.4379C127.437 34.3612 127.273 34.2493 127.135 34.1086C126.996 33.9679 126.888 33.8012 126.814 33.6181C126.741 33.4351 126.705 33.2394 126.708 33.0423C126.719 32.4617 126.656 31.8821 126.52 31.3176C126.299 30.4647 125.904 29.8172 125.336 29.375C125.034 30.4698 124.539 31.502 123.875 32.4231C123.293 33.2137 122.553 33.8751 121.703 34.3658C121.511 34.4778 121.303 34.5604 121.087 34.6106C120.885 34.6571 120.677 34.6704 120.471 34.65C120.282 34.63 120.097 34.5765 119.926 34.4921C119.769 34.4204 119.631 34.3121 119.523 34.1762C119.416 34.0477 119.333 33.9005 119.279 33.7419C119.22 33.5776 119.196 33.4028 119.208 33.2286C119.22 33.0477 119.274 32.8721 119.366 32.7153C119.462 32.5421 119.597 32.3934 119.76 32.281ZM132.474 35.4555C132.055 35.4555 131.654 35.2891 131.357 34.9929C131.061 34.6967 130.895 34.295 130.895 33.8762V22.1968C130.895 21.6819 131.053 21.2923 131.369 21.028C131.68 20.7713 132.071 20.6309 132.474 20.6309C132.878 20.6309 133.269 20.7713 133.58 21.028C133.896 21.2923 134.054 21.6819 134.054 22.1968V33.8841C134.054 34.3029 133.887 34.7046 133.591 35.0008C133.295 35.297 132.893 35.4634 132.474 35.4634V35.4555Z" fill="white"/>
<path d="M141.706 23.6593V24.1489C141.706 24.2658 141.706 24.3732 141.698 24.4648C141.69 24.5564 141.683 24.6685 141.674 24.7806C142.884 24.8343 143.779 25.2029 144.359 25.8862C144.68 26.2853 144.904 26.7527 145.016 27.2523C145.069 27.4698 145.071 27.6965 145.023 27.9151C144.976 28.1337 144.879 28.3386 144.74 28.5143C144.602 28.69 144.425 28.8319 144.223 28.9293C144.022 29.0267 143.801 29.077 143.577 29.0765C143.257 29.0757 142.946 28.9717 142.69 28.7799C142.434 28.5881 142.246 28.3188 142.156 28.012C142.11 27.8564 142.04 27.7092 141.947 27.5761C141.831 27.4083 141.677 27.2707 141.497 27.1745C141.317 27.0784 141.117 27.0266 140.913 27.0233C140.484 27.7279 139.873 28.3036 139.144 28.6896C138.453 29.0644 137.686 29.2777 136.901 29.3134C136.542 29.3445 136.184 29.2403 135.898 29.0212C135.763 28.9208 135.653 28.7913 135.575 28.6423C135.497 28.4933 135.454 28.3286 135.448 28.1605C135.413 27.845 135.494 27.5275 135.677 27.2681C135.858 27.0383 136.122 26.8881 136.412 26.8496C137.067 26.7674 137.667 26.4367 138.086 25.9257C138.487 25.4218 138.7 24.7931 138.686 24.1489V23.6593H136.712C136.538 23.6632 136.367 23.6224 136.214 23.5408C136.077 23.466 135.956 23.3639 135.859 23.2408C135.763 23.1197 135.688 22.9836 135.638 22.838C135.585 22.6964 135.559 22.5467 135.559 22.3958C135.56 22.2488 135.581 22.1027 135.622 21.9615C135.663 21.8102 135.733 21.6681 135.827 21.5429C135.929 21.406 136.063 21.2957 136.217 21.2215C136.371 21.1472 136.541 21.1112 136.712 21.1165H143.929C144.1 21.1112 144.27 21.1472 144.424 21.2215C144.578 21.2957 144.711 21.406 144.814 21.5429C144.908 21.6685 144.977 21.8104 145.019 21.9615C145.059 22.1029 145.08 22.2489 145.082 22.3958C145.082 22.5466 145.055 22.6962 145.003 22.838C144.952 22.9834 144.877 23.1194 144.782 23.2408C144.685 23.3639 144.564 23.466 144.427 23.5408C144.274 23.6224 144.103 23.6632 143.929 23.6593H141.706ZM137.662 32.4406C137.478 32.453 137.293 32.4287 137.118 32.3691C136.943 32.3094 136.782 32.2156 136.644 32.0931C136.415 31.849 136.288 31.5272 136.288 31.1929C136.288 30.8585 136.415 30.5367 136.644 30.2926C136.782 30.1705 136.944 30.0769 137.118 30.0173C137.293 29.9576 137.478 29.9331 137.662 29.9452H147.107C147.51 29.9367 147.913 29.9738 148.307 30.0557C148.579 30.1111 148.827 30.249 149.018 30.4506C149.194 30.6661 149.309 30.9253 149.35 31.2008C149.413 31.5896 149.442 31.9834 149.437 32.3774V33.8857C149.437 34.3045 149.27 34.7063 148.974 35.0024C148.678 35.2986 148.276 35.465 147.857 35.465C147.438 35.465 147.037 35.2986 146.74 35.0024C146.444 34.7063 146.278 34.3045 146.278 33.8857V32.8275C146.277 32.7271 146.237 32.6309 146.166 32.5599C146.095 32.4889 145.999 32.4489 145.899 32.4485L137.662 32.4406ZM146.144 22.1905C146.144 21.6756 146.302 21.286 146.617 21.0217C146.925 20.7653 147.312 20.6255 147.713 20.627C148.113 20.6284 148.499 20.771 148.805 21.0296C149.121 21.2981 149.279 21.6851 149.279 22.1905V23.5803H149.76C149.968 23.573 150.174 23.6164 150.36 23.7067C150.508 23.783 150.638 23.8908 150.74 24.0225C150.836 24.1525 150.905 24.3001 150.945 24.4569C151.029 24.7725 151.029 25.1047 150.945 25.4203C150.905 25.5793 150.835 25.7293 150.74 25.8625C150.639 25.9989 150.506 26.1076 150.353 26.1784C150.167 26.2646 149.965 26.3078 149.76 26.3047H149.271V27.7735C149.271 28.1882 149.106 28.5859 148.813 28.8791C148.52 29.1724 148.122 29.3371 147.707 29.3371C147.292 29.3371 146.895 29.1724 146.602 28.8791C146.308 28.5859 146.144 28.1882 146.144 27.7735V22.1905Z" fill="white"/>
</g>
<defs>
<filter id="filter0_i_3503_80803" x="9" y="2" width="203.46" height="54.3574" filterUnits="userSpaceOnUse" color-interpolation-filters="sRGB">
<feFlood flood-opacity="0" result="BackgroundImageFix"/>
<feBlend mode="normal" in="SourceGraphic" in2="BackgroundImageFix" result="shape"/>
<feColorMatrix in="SourceAlpha" type="matrix" values="0 0 0 0 0 0 0 0 0 0 0 0 0 0 0 0 0 0 127 0" result="hardAlpha"/>
<feOffset dy="2"/>
<feGaussianBlur stdDeviation="2.5"/>
<feComposite in2="hardAlpha" operator="arithmetic" k2="-1" k3="1"/>
<feColorMatrix type="matrix" values="0 0 0 0 1 0 0 0 0 1 0 0 0 0 1 0 0 0 0.3 0"/>
<feBlend mode="normal" in2="shape" result="effect1_innerShadow_3503_80803"/>
</filter>
<linearGradient id="paint0_linear_3503_80803" x1="110.73" y1="4" x2="110.73" y2="52.3568" gradientUnits="userSpaceOnUse">
<stop stop-color="#FF4882"/>
<stop offset="1" stop-color="#DD3F71"/>
</linearGradient>
<linearGradient id="paint1_linear_3503_80803" x1="5.97363" y1="28.6748" x2="212.474" y2="27.6748" gradientUnits="userSpaceOnUse">
<stop stop-color="#F55286" stop-opacity="0.8"/>
<stop offset="0.510417" stop-color="#DB3F70"/>
<stop offset="1" stop-color="#E35884" stop-opacity="0.8"/>
</linearGradient>
<clipPath id="clip0_3503_80803">
<rect width="80.2002" height="14.8302" fill="white" transform="translate(70.7998 20.627)"/>
</clipPath>
</defs>
</svg>
