<svg width="229" height="61" viewBox="0 0 229 61" fill="none" xmlns="http://www.w3.org/2000/svg">
<path d="M18.5068 53.5051V57.0483C18.5068 57.9041 18.1668 58.7249 17.5617 59.33C16.9565 59.9352 16.1358 60.2752 15.28 60.2752C14.4241 60.2752 13.6034 59.9352 12.9982 59.33C12.3931 58.7249 12.0531 57.9041 12.0531 57.0483V53.5051H3.13182C2.18275 53.5051 1.50258 53.2415 1.09132 52.7142C0.688309 52.2121 0.470466 51.5865 0.474418 50.9426C0.472883 50.6208 0.520903 50.3007 0.616783 49.9936C0.712448 49.6864 0.868392 49.4014 1.0755 49.1552C1.29924 48.8936 1.58086 48.6878 1.89803 48.5541C2.29005 48.3975 2.70981 48.3222 3.13182 48.3327H27.4281C27.8501 48.3222 28.2699 48.3975 28.6619 48.5541C28.979 48.6878 29.2607 48.8936 29.4844 49.1552C29.6915 49.4014 29.8475 49.6864 29.9431 49.9936C30.039 50.3007 30.087 50.6208 30.0855 50.9426C30.0894 51.5865 29.8716 52.2121 29.4686 52.7142C29.0468 53.2436 28.3666 53.5072 27.4281 53.5051H18.5068ZM22.1449 33.7011V33.6379C22.132 33.1904 22.2241 32.7462 22.4138 32.3408C22.5804 31.9995 22.8241 31.7017 23.1256 31.4708C23.4343 31.244 23.7832 31.0776 24.1538 30.9805C24.5511 30.8746 24.9606 30.8214 25.3718 30.8223C25.7724 30.8227 26.1713 30.8759 26.5581 30.9805C26.9287 31.0776 27.2775 31.244 27.5863 31.4708C27.8901 31.7035 28.1386 32.0006 28.3139 32.3408C28.5135 32.7433 28.6112 33.1887 28.5986 33.6379V43.2836C28.5986 44.0488 28.2946 44.7827 27.7536 45.3237C27.2125 45.8648 26.4786 46.1688 25.7134 46.1688H6.48521C5.70327 46.1869 4.92214 46.1072 4.15999 45.9315C3.62075 45.8091 3.13047 45.5281 2.7522 45.1248C2.39161 44.696 2.15625 44.176 2.07202 43.6221C1.94375 42.8539 1.88551 42.0756 1.89803 41.2969V33.641C1.88515 33.1936 1.97725 32.7494 2.16693 32.344C2.33515 31.9991 2.5849 31.7005 2.89456 31.474C3.21038 31.2493 3.56399 31.0832 3.93854 30.9836C4.33584 30.8778 4.74534 30.8246 5.15651 30.8254C5.5531 30.8258 5.94748 30.8844 6.32703 30.9994C6.69756 31.1122 7.04553 31.2888 7.3552 31.5214C7.66474 31.7588 7.91851 32.0612 8.09864 32.4072C8.29823 32.8098 8.396 33.2552 8.38336 33.7043L22.1449 33.7011ZM22.1449 40.3447V39.307C22.1449 39.1986 22.1236 39.0912 22.0821 38.991C22.0406 38.8908 21.9797 38.7998 21.9031 38.7231C21.8264 38.6465 21.7354 38.5856 21.6352 38.5442C21.535 38.5027 21.4277 38.4813 21.3192 38.4813H9.20905C9.10062 38.4813 8.99325 38.5027 8.89307 38.5442C8.7929 38.5856 8.70187 38.6465 8.6252 38.7231C8.54853 38.7998 8.48771 38.8908 8.44621 38.991C8.40472 39.0912 8.38336 39.1986 8.38336 39.307V40.1896C8.36652 40.4486 8.43912 40.7054 8.58899 40.9173C8.69126 41.0144 8.81389 41.0875 8.94796 41.1313C9.08204 41.1751 9.22419 41.1884 9.36407 41.1703H21.3192C21.4279 41.1703 21.5355 41.1489 21.6359 41.1072C21.7363 41.0655 21.8275 41.0044 21.9042 40.9274C21.9809 40.8504 22.0417 40.759 22.083 40.6584C22.1243 40.5579 22.1453 40.4502 22.1449 40.3415V40.3447Z" fill="#EA4579" stroke="#EA4579" stroke-width="0.949073" stroke-miterlimit="10"/>
<path d="M33.8187 53.8833C35.8665 53.6514 37.422 52.9712 38.4849 51.8428C39.5479 50.7145 40.1964 49.1485 40.4305 47.1449H34.2299C33.8113 47.1584 33.3949 47.0773 33.0119 46.9077C32.6976 46.7549 32.4177 46.5396 32.1894 46.275C31.9713 46.0279 31.8094 45.7365 31.7149 45.4208C31.5252 44.8023 31.5252 44.1411 31.7149 43.5226C31.8075 43.2094 31.9637 42.9187 32.1736 42.6685C32.3971 42.3988 32.6782 42.1827 32.9961 42.0358C33.3851 41.8675 33.8063 41.7865 34.2299 41.7985H40.5571V37.6858C40.5644 37.4766 40.4907 37.2727 40.3514 37.1164C40.275 37.0403 40.1833 36.9813 40.0825 36.9431C39.9816 36.905 39.8738 36.8886 39.7662 36.8949H34.4514C34.0327 36.9084 33.6164 36.8273 33.2334 36.6577C32.9204 36.5096 32.6407 36.2997 32.4109 36.0408C32.1928 35.7937 32.0309 35.5023 31.9363 35.1866C31.7466 34.5681 31.7466 33.907 31.9363 33.2885C32.029 32.9753 32.1851 32.6845 32.395 32.4343C32.6203 32.1704 32.9012 31.9597 33.2176 31.8174C33.6066 31.6491 34.0277 31.5682 34.4514 31.5801H41.4745C42.2292 31.5676 42.9829 31.6419 43.7206 31.8016C44.2682 31.9192 44.7787 32.169 45.2075 32.5292C45.5982 32.8856 45.8783 33.3468 46.0142 33.8579C46.1861 34.5187 46.2659 35.2 46.2515 35.8826V45.31C46.2515 47.7355 45.9351 49.8023 45.3024 51.5107C44.7556 53.0787 43.8822 54.5128 42.7399 55.7182C41.6996 56.7917 40.436 57.6233 39.0385 58.1542C37.6407 58.6832 36.1663 58.9823 34.6728 59.04C33.8887 59.0951 33.1061 58.9133 32.4267 58.518C32.1016 58.3232 31.8356 58.0437 31.6572 57.7093C31.4789 57.3749 31.3949 56.9983 31.4143 56.6198C31.3717 55.9541 31.5618 55.2943 31.9521 54.7533C32.3318 54.2946 32.955 53.9909 33.8187 53.8833ZM48.5925 33.0987C48.5667 32.7217 48.629 32.3439 48.7745 31.9952C48.92 31.6465 49.1448 31.3365 49.4309 31.0898C49.9808 30.6495 50.6642 30.4097 51.3686 30.4097C52.073 30.4097 52.7564 30.6495 53.3063 31.0898C53.5963 31.3342 53.8247 31.6433 53.9731 31.9923C54.1215 32.3413 54.1856 32.7203 54.1604 33.0987V42.0168H56.3749V33.0955C56.3497 32.7171 56.4139 32.3381 56.5623 31.9891C56.7107 31.6401 56.9391 31.331 57.2291 31.0866C57.784 30.6389 58.4776 30.3984 59.1905 30.4064C59.5457 30.4071 59.8983 30.4659 60.2345 30.5804C60.5682 30.6931 60.8759 30.8716 61.1394 31.1053C61.403 31.3389 61.617 31.623 61.7688 31.9408C61.9342 32.3028 62.0153 32.6976 62.0061 33.0955V57.455C62.0061 58.1934 61.7128 58.9015 61.1907 59.4236C60.6686 59.9457 59.9605 60.239 59.2222 60.239H59.1589C58.4205 60.239 57.7124 59.9457 57.1903 59.4236C56.6683 58.9015 56.3749 58.1934 56.3749 57.455V47.205H54.1604V57.455C54.1604 58.1934 53.8671 58.9015 53.345 59.4236C52.823 59.9457 52.1148 60.239 51.3765 60.239C50.6381 60.239 49.93 59.9457 49.4079 59.4236C48.8859 58.9015 48.5925 58.1934 48.5925 57.455V33.0987Z" fill="#EA4579" stroke="#EA4579" stroke-width="0.949073" stroke-miterlimit="10"/>
<path d="M81.2089 36.9551V37.0183C81.2089 37.2936 81.2089 37.5561 81.1773 37.8092C81.1456 38.0623 81.1235 38.3059 81.0824 38.5369C83.5078 38.4546 85.2952 39.0135 86.4446 40.2135C86.9329 40.7377 87.3077 41.3569 87.5456 42.0326C87.7119 42.4818 87.7671 42.9647 87.7064 43.4399C87.6458 43.915 87.4712 44.3685 87.1974 44.7616C86.9236 45.1547 86.5588 45.4758 86.1342 45.6974C85.7095 45.9191 85.2375 46.0347 84.7584 46.0345H84.7363C84.1392 46.0246 83.5581 45.8394 83.0654 45.5019C82.5727 45.1644 82.19 44.6896 81.965 44.1364C81.8595 43.8903 81.7105 43.6653 81.5253 43.472C80.9769 42.9026 80.2282 42.6811 79.2791 42.8077C78.3471 43.9557 77.1388 44.8483 75.7676 45.4018C74.4137 45.9637 72.9626 46.2539 71.4967 46.256C70.7894 46.2792 70.0942 46.0679 69.5195 45.6549C69.2571 45.4637 69.0462 45.2105 68.9054 44.9179C68.7647 44.6254 68.6985 44.3025 68.7128 43.9782C68.6741 43.3543 68.8717 42.7388 69.2664 42.2541C69.6572 41.8325 70.1954 41.5776 70.7691 41.5422C72.2244 41.3967 73.3422 40.9327 74.1225 40.1503C74.9029 39.3678 75.293 38.3238 75.293 37.0183V36.9551H71.1804C70.8351 36.9634 70.4931 36.8874 70.1838 36.7336C69.9091 36.5961 69.6665 36.402 69.472 36.1642C69.2817 35.9327 69.132 35.6706 69.0291 35.3891C68.9252 35.1108 68.8716 34.8162 68.871 34.5191C68.8729 34.2299 68.9155 33.9423 68.9975 33.6649C69.0817 33.3722 69.2213 33.0983 69.4088 32.8582C69.6055 32.6121 69.8539 32.4123 70.1364 32.273C70.4626 32.1194 70.8199 32.0436 71.1804 32.0515H75.1981V32.0199C75.1981 31.0708 75.4617 30.3748 75.989 29.9319C76.5163 29.489 77.2755 29.2676 78.2668 29.2676C79.2559 29.2676 80.0205 29.489 80.5604 29.9319C81.1003 30.3748 81.3692 31.0708 81.3671 32.0199V32.0515H85.5114C85.8718 32.0436 86.2292 32.1194 86.5554 32.273C86.8379 32.4123 87.0863 32.6121 87.283 32.8582C87.4704 33.0983 87.6101 33.3722 87.6942 33.6649C87.7762 33.9423 87.8188 34.2299 87.8208 34.5191C87.8201 34.8162 87.7666 35.1108 87.6626 35.3891C87.5598 35.6706 87.41 35.9327 87.2197 36.1642C87.0252 36.402 86.7826 36.5961 86.5079 36.7336C86.1987 36.8874 85.8566 36.9634 85.5114 36.9551H81.2089ZM94.5908 47.8378C95.4345 47.8378 96.0197 48.075 96.3466 48.5496C96.6712 49.0127 96.8427 49.5658 96.837 50.1314C96.8397 50.694 96.6624 51.2428 96.3308 51.6973C95.9933 52.1719 95.4134 52.4091 94.5908 52.4091H86.935C86.8496 52.6432 86.7673 52.8584 86.6819 53.0577C86.5965 53.257 86.5016 53.4658 86.3972 53.6746C86.7135 53.6345 87.0299 53.6028 87.3462 53.5797C87.6626 53.5575 87.979 53.548 88.2637 53.548C89.355 53.5436 90.4431 53.6657 91.5063 53.9118C92.4892 54.1405 93.4327 54.5136 94.3061 55.0191C95.1515 55.5154 95.8928 56.1707 96.489 56.9489L96.508 56.9742C96.712 57.2527 96.8346 57.5825 96.8621 57.9267C96.8896 58.2708 96.8209 58.6159 96.6638 58.9233C96.5066 59.2307 96.2671 59.4884 95.972 59.6677C95.677 59.8469 95.3379 59.9407 94.9926 59.9384H92.2846C92.0169 59.9369 91.7528 59.877 91.5108 59.7628C91.2687 59.6486 91.0545 59.4829 90.8831 59.2773C90.5911 58.9123 90.2468 58.5925 89.8613 58.3282C89.2419 57.9301 88.5641 57.6313 87.8524 57.4424C87.0769 57.2431 86.2804 57.1369 85.4797 57.126C85.233 57.126 84.9862 57.126 84.7363 57.126C83.7737 57.1511 82.8293 57.3945 81.9745 57.8378C81.5001 58.0901 81.0121 58.3161 80.5129 58.5148C79.6634 58.8544 78.7913 59.1345 77.903 59.3532C77.0076 59.5751 76.0988 59.7389 75.1823 59.8435C74.2847 59.9481 73.3809 59.9903 72.4774 59.9701C71.7528 59.9914 71.0448 59.7498 70.4844 59.2899C70.2356 59.0531 70.0415 58.7647 69.9158 58.4451C69.7901 58.1254 69.7359 57.7821 69.7568 57.4392C69.7533 57.168 69.8079 56.8992 69.9171 56.6509C70.0262 56.4026 70.1873 56.1806 70.3895 55.9998C70.8515 55.595 71.4526 55.3852 72.0662 55.4145C72.9023 55.4141 73.7373 55.3559 74.5654 55.2405C75.3849 55.1321 76.1942 54.9575 76.9855 54.7185C77.7266 54.4996 78.4383 54.1915 79.1051 53.8011C79.7171 53.4433 80.2542 52.9706 80.6869 52.4091H72.5565C71.734 52.4091 71.154 52.1719 70.8166 51.6973C70.485 51.2428 70.3076 50.694 70.3104 50.1314C70.3047 49.5658 70.4761 49.0127 70.8007 48.5496C71.1277 48.075 71.7129 47.8378 72.5565 47.8378H94.5908ZM90.1302 32.5893C90.1302 31.558 90.4465 30.7766 91.0634 30.2483C91.6799 29.7224 92.4678 29.441 93.2779 29.4574C94.0799 29.4496 94.8567 29.7367 95.4608 30.2641C96.0935 30.8019 96.4099 31.577 96.4099 32.5893V34.8671H97.3906C97.8059 34.8525 98.2186 34.9394 98.5928 35.1202C98.889 35.2731 99.1482 35.489 99.352 35.7529C99.5445 36.0133 99.6842 36.3089 99.7633 36.6229C99.932 37.2551 99.932 37.9205 99.7633 38.5527C99.6831 38.8712 99.5436 39.1717 99.352 39.4385C99.1515 39.7116 98.8847 39.9294 98.5769 40.0712C98.2045 40.239 97.7989 40.3202 97.3906 40.3084H96.4099V43.0291C96.4099 43.8598 96.0799 44.6564 95.4926 45.2438C94.9052 45.8311 94.1086 46.1611 93.2779 46.1611C92.4473 46.1611 91.6507 45.8311 91.0633 45.2438C90.476 44.6564 90.146 43.8598 90.146 43.0291L90.1302 32.5893Z" fill="#EA4579" stroke="#EA4579" stroke-width="0.949073" stroke-miterlimit="10"/>
<path d="M102.997 53.5999C104.232 53.4947 105.449 53.2343 106.619 52.8248C107.671 52.4581 108.62 51.8453 109.387 51.0374C110.206 50.131 110.807 49.0487 111.143 47.8738C111.596 46.2907 111.81 44.6484 111.776 43.0019V37.8769C111.783 37.6677 111.709 37.4638 111.57 37.3075C111.493 37.2314 111.402 37.1724 111.301 37.1343C111.2 37.0961 111.092 37.0797 110.985 37.086H103.772C103.343 37.097 102.917 37.0161 102.522 36.8488C102.193 36.7045 101.897 36.4946 101.652 36.2319C101.421 35.9801 101.244 35.6842 101.13 35.3619C101.015 35.0424 100.956 34.7051 100.956 34.3654C100.96 34.0414 101.019 33.7205 101.13 33.4163C101.248 33.0808 101.432 32.7723 101.671 32.5088C101.91 32.2454 102.2 32.0322 102.522 31.882C102.914 31.7042 103.341 31.6177 103.772 31.6289H113.12C114.913 31.6289 116.189 32.0296 116.948 32.831C117.707 33.6325 118.087 34.7714 118.087 36.2477V43.0494C118.087 45.8776 117.712 48.2819 116.964 50.2623C116.31 52.0951 115.256 53.7593 113.879 55.1343C112.576 56.399 111.002 57.3509 109.276 57.9182C107.443 58.5219 105.528 58.842 103.598 58.8673C103.213 58.866 102.83 58.8128 102.459 58.7091C102.097 58.6132 101.759 58.4465 101.462 58.2187C101.175 57.9949 100.942 57.7081 100.782 57.3804C100.604 56.9948 100.528 56.57 100.561 56.1466C100.583 55.5214 100.811 54.921 101.209 54.4383C101.671 53.9339 102.313 53.6325 102.997 53.5999ZM123.813 60.2434C122.974 60.2434 122.169 59.9101 121.576 59.3168C120.983 58.7236 120.649 57.9189 120.649 57.0798V33.5429C120.649 32.5115 120.966 31.7312 121.598 31.2018C122.222 30.6875 123.005 30.4062 123.813 30.4062C124.621 30.4062 125.404 30.6875 126.027 31.2018C126.66 31.7312 126.976 32.5115 126.976 33.5429V57.0735C126.976 57.9126 126.643 58.7172 126.05 59.3105C125.457 59.9038 124.652 60.2371 123.813 60.2371V60.2434Z" fill="#EA4579" stroke="#EA4579" stroke-width="0.949073" stroke-miterlimit="10"/>
<path d="M138.501 58.8513C137.669 58.8679 136.838 58.8043 136.018 58.6615C135.481 58.5791 134.983 58.3301 134.594 57.9497C134.244 57.5378 134.024 57.0314 133.962 56.4945C133.844 55.6933 133.791 54.884 133.804 54.0743V36.2634C133.791 35.459 133.844 34.6549 133.962 33.8591C134.027 33.3276 134.247 32.8269 134.594 32.4197C134.983 32.0393 135.481 31.7903 136.018 31.7079C136.838 31.5651 137.669 31.5015 138.501 31.518H145.24C145.636 31.5056 146.031 31.5812 146.395 31.7395C146.681 31.8728 146.935 32.0671 147.138 32.3089C147.332 32.5488 147.467 32.8304 147.533 33.1315C147.607 33.4531 147.644 33.7821 147.644 34.1122C147.66 34.7576 147.478 35.3924 147.122 35.9312C146.774 36.4501 146.148 36.7063 145.224 36.7063H140.7C140.419 36.6725 140.135 36.7338 139.893 36.8803C139.744 37.1212 139.683 37.4061 139.719 37.687V42.5273H143.611C144.006 42.5149 144.399 42.585 144.765 42.7329C145.053 42.8574 145.303 43.0535 145.493 43.3024C145.674 43.548 145.803 43.8278 145.873 44.1249C145.947 44.4411 145.984 44.765 145.983 45.0898C146 45.7282 145.824 46.3568 145.477 46.893C145.139 47.3992 144.528 47.6523 143.611 47.6523H139.719V52.6824C139.668 52.8193 139.658 52.968 139.689 53.1108C139.72 53.2536 139.791 53.3845 139.895 53.4878C139.998 53.5911 140.129 53.6626 140.272 53.6937C140.414 53.7247 140.563 53.7141 140.7 53.6631H146.363C146.759 53.6506 147.154 53.7262 147.518 53.8845C147.804 54.0178 148.058 54.2122 148.261 54.454C148.455 54.6939 148.59 54.9754 148.657 55.2765C148.73 55.5981 148.768 55.9272 148.767 56.2572C148.783 56.9026 148.601 57.5374 148.245 58.0763C147.897 58.5909 147.265 58.8492 146.347 58.8513H138.501ZM151.788 47.6523H150.903C150.496 47.6679 150.09 47.5922 149.716 47.4308C149.426 47.297 149.175 47.0898 148.989 46.8298C148.803 46.5637 148.673 46.2622 148.609 45.9439C148.534 45.5904 148.497 45.2298 148.498 44.8683C148.498 44.5174 148.535 44.1675 148.609 43.8244C148.674 43.5063 148.803 43.2049 148.989 42.9385C149.178 42.677 149.427 42.4654 149.716 42.3217C150.087 42.1498 150.494 42.0685 150.903 42.0844H151.788V33.0998C151.788 32.214 152.051 31.5465 152.579 31.091C153.107 30.6382 153.783 30.396 154.478 30.4108C155.17 30.4085 155.842 30.6492 156.376 31.091C156.662 31.3377 156.887 31.6477 157.032 31.9964C157.178 32.3451 157.24 32.7229 157.214 33.0998V57.5195C157.214 58.241 156.927 58.9331 156.417 59.4433C155.907 59.9535 155.215 60.2401 154.493 60.2401C153.772 60.2401 153.08 59.9535 152.57 59.4433C152.059 58.9331 151.773 58.241 151.773 57.5195L151.788 47.6523ZM159.255 33.0998C159.229 32.7229 159.291 32.3451 159.436 31.9964C159.582 31.6477 159.807 31.3377 160.093 31.091C160.643 30.6507 161.326 30.4108 162.031 30.4108C162.735 30.4108 163.418 30.6507 163.968 31.091C164.258 31.3353 164.487 31.6445 164.635 31.9935C164.783 32.3425 164.848 32.7215 164.822 33.0998V57.5195C164.822 58.241 164.536 58.9331 164.026 59.4433C163.515 59.9535 162.823 60.2401 162.102 60.2401H161.975C161.618 60.2401 161.264 60.1698 160.934 60.0331C160.604 59.8963 160.304 59.6959 160.051 59.4433C159.799 59.1906 159.598 58.8907 159.462 58.5606C159.325 58.2305 159.255 57.8768 159.255 57.5195V33.0998Z" fill="#EA4579" stroke="#EA4579" stroke-width="0.949073" stroke-miterlimit="10"/>
<path d="M194.086 54.1383C194.52 54.1251 194.951 54.206 195.351 54.3756C195.678 54.5222 195.97 54.7381 196.205 55.0083C196.425 55.2598 196.587 55.5569 196.68 55.8783C196.771 56.1865 196.819 56.5059 196.822 56.8274C196.822 57.1606 196.769 57.4918 196.664 57.8081C196.56 58.123 196.393 58.4136 196.173 58.6622C195.942 58.9224 195.656 59.1277 195.335 59.2633C194.944 59.4214 194.523 59.4968 194.101 59.4848H169.932C169.509 59.4968 169.089 59.4214 168.698 59.2633C168.377 59.1277 168.091 58.9224 167.859 58.6622C167.64 58.4136 167.473 58.123 167.369 57.8081C167.264 57.4918 167.211 57.1606 167.211 56.8274C167.214 56.5059 167.262 56.1865 167.353 55.8783C167.446 55.5569 167.608 55.2598 167.828 55.0083C168.063 54.7381 168.355 54.5222 168.682 54.3756C169.077 54.2083 169.503 54.1274 169.932 54.1383H194.086ZM185.196 34.2078C185.169 35.1926 185.021 36.1702 184.753 37.1183C186.105 37.1666 187.441 37.4337 188.707 37.9092C190.019 38.3992 191.223 39.1407 192.251 40.092C193.357 41.1356 194.254 42.3812 194.892 43.7618C195.038 44.0782 195.174 44.3945 195.294 44.7109C195.468 45.1977 195.522 45.7193 195.451 46.2315C195.381 46.7436 195.188 47.2312 194.889 47.653C194.59 48.0748 194.194 48.4184 193.734 48.6546C193.274 48.8909 192.764 49.0128 192.247 49.0102C191.585 49.0037 190.94 48.7965 190.398 48.4158C189.855 48.0351 189.442 47.4989 189.21 46.8779C189.109 46.6179 188.994 46.3634 188.866 46.1155C188.452 45.3005 187.889 44.5707 187.205 43.9643C186.539 43.3851 185.768 42.9394 184.933 42.6514C184.069 42.3545 183.158 42.2152 182.244 42.2401C180.828 44.1961 179.028 45.843 176.955 47.0804C175.978 47.6613 174.938 48.1284 173.854 48.4724C172.832 48.8049 171.766 48.986 170.691 49.0102C169.963 49.0444 169.245 48.8203 168.666 48.3774C168.383 48.1611 168.149 47.8871 167.98 47.5735C167.811 47.2598 167.711 46.9138 167.685 46.5584C167.631 46.2052 167.647 45.8448 167.732 45.4977C167.817 45.1507 167.97 44.8238 168.181 44.5358C168.393 44.2478 168.659 44.0044 168.965 43.8195C169.271 43.6346 169.61 43.5118 169.963 43.4581C171.022 43.2182 172.04 42.8238 172.984 42.2876C173.967 41.7386 174.859 41.0394 175.626 40.2154C176.424 39.3568 177.086 38.3805 177.587 37.3208C178.131 36.1729 178.484 34.944 178.631 33.6827C178.758 32.6703 179.164 31.9269 179.849 31.4523C180.538 30.9768 181.373 30.7585 182.206 30.8354C183.04 30.878 183.829 31.2273 184.421 31.8161C184.973 32.3982 185.232 33.1955 185.196 34.2078Z" fill="#EA4579" stroke="#EA4579" stroke-width="0.949073" stroke-miterlimit="10"/>
<path d="M225.405 54.1697C225.839 54.1564 226.271 54.2374 226.67 54.407C226.997 54.5536 227.289 54.7694 227.524 55.0397C227.743 55.2867 227.904 55.5782 227.999 55.8938C228.093 56.2015 228.141 56.5213 228.141 56.8429C228.142 57.1762 228.088 57.5073 227.983 57.8236C227.879 58.1386 227.712 58.4291 227.493 58.6778C227.261 58.9379 226.975 59.1433 226.654 59.2789C226.263 59.437 225.843 59.5124 225.421 59.5003H201.251C200.829 59.5124 200.409 59.437 200.017 59.2789C199.697 59.1433 199.41 58.9379 199.179 58.6778C198.959 58.4291 198.793 58.1386 198.688 57.8236C198.583 57.5073 198.53 57.1762 198.53 56.8429C198.531 56.5213 198.579 56.2015 198.673 55.8938C198.767 55.5782 198.929 55.2867 199.147 55.0397C199.383 54.7694 199.674 54.5536 200.001 54.407C200.396 54.2396 200.822 54.1587 201.251 54.1697H225.405ZM224.139 31.3603C224.526 31.3499 224.909 31.4256 225.262 31.5818C225.552 31.7174 225.811 31.9112 226.022 32.1512C226.219 32.3812 226.365 32.6509 226.449 32.9421C226.532 33.23 226.575 33.5282 226.575 33.8279C226.577 34.4346 226.377 35.0246 226.006 35.5046C225.626 36.0108 225.004 36.2639 224.139 36.2639H207.309C206.676 36.2639 206.36 36.5391 206.36 37.0864V38.3202H223.95C224.835 38.3202 225.463 38.5733 225.832 39.0795C226.187 39.5428 226.381 40.1092 226.386 40.6929C226.386 41.2848 226.185 41.8592 225.816 42.3221C225.436 42.8177 224.814 43.0656 223.95 43.0656H206.36V44.2677C206.347 44.3892 206.361 44.5121 206.402 44.6272C206.443 44.7423 206.51 44.8465 206.597 44.9321C206.807 45.0736 207.057 45.1404 207.309 45.1219H224.646C225.032 45.1115 225.415 45.1871 225.769 45.3433C226.058 45.4789 226.317 45.6728 226.528 45.9128C226.723 46.1383 226.869 46.4024 226.955 46.6878C227.039 46.9701 227.082 47.2632 227.082 47.5578C227.084 48.1645 226.883 48.7545 226.512 49.2345C226.132 49.7407 225.51 49.9938 224.646 49.9938H204.968C203.133 49.9938 201.836 49.5983 201.077 48.8074C200.318 48.0166 199.938 46.7669 199.938 45.0586V36.2955C199.938 34.5872 200.318 33.3376 201.077 32.5467C201.836 31.7558 203.133 31.3603 204.968 31.3603H224.139Z" fill="#EA4579" stroke="#EA4579" stroke-width="0.949073" stroke-miterlimit="10"/>
<path d="M4.83064 32.0181C4.83064 32.0181 3.21405 31.474 2.70155 33.2836C2.39468 34.3845 5.50448 32.4041 4.83064 32.0181Z" fill="#F196B3"/>
<path d="M25.0842 31.9704C25.0842 31.9704 23.4676 31.4295 22.9519 33.2359C22.6419 34.3368 25.758 32.3596 25.0842 31.9704Z" fill="#F196B3"/>
<path d="M34.8879 32.3053C34.8879 32.3053 33.2745 31.7611 32.7588 33.5707C32.4488 34.6716 35.5618 32.6912 34.8879 32.3053Z" fill="#F196B3"/>
<path d="M34.4387 42.5267C34.4387 42.5267 33.0214 42.049 32.569 43.6308C32.2906 44.6052 35.0303 42.8684 34.4387 42.5267Z" fill="#F196B3"/>
<path d="M71.772 32.7076C71.772 32.7076 70.1586 32.1635 69.643 33.973C69.3266 35.074 72.449 33.0967 71.772 32.7076Z" fill="#F196B3"/>
<path d="M104.186 32.4869C104.186 32.4869 102.57 31.9428 102.057 33.7523C101.731 34.8533 104.86 32.8729 104.186 32.4869Z" fill="#F196B3"/>
<path d="M50.7976 31.4492C50.7976 31.4492 49.2412 31.6548 49.276 33.5941C49.3108 35.5334 52.2371 31.484 50.7976 31.4492Z" fill="#F196B3"/>
<path d="M58.7063 31.3691C58.7063 31.3691 57.1499 31.5748 57.1847 33.514C57.2195 35.4533 60.1679 31.4008 58.7063 31.3691Z" fill="#F196B3"/>
<path d="M92.5345 30.543C92.5345 30.543 90.978 30.7518 91.0128 32.6879C91.0476 34.624 93.9865 30.5778 92.5345 30.543Z" fill="#F196B3"/>
<path d="M123.196 31.6035C123.196 31.6035 121.64 31.8091 121.674 33.7484C121.709 35.6877 124.651 31.6383 123.196 31.6035Z" fill="#F196B3"/>
<path d="M154.032 31.3691C154.032 31.3691 152.475 31.5779 152.51 33.5172C152.545 35.4565 155.484 31.4039 154.032 31.3691Z" fill="#F196B3"/>
<path d="M161.567 31.3086C161.567 31.3086 160.01 31.5142 160.045 33.4535C160.08 35.3928 163.019 31.3434 161.567 31.3086Z" fill="#F196B3"/>
<path d="M3.78695 49.1549C3.78695 49.1549 2.17353 48.6107 1.65786 50.4203C1.34151 51.5086 4.46079 49.5408 3.78695 49.1549Z" fill="#F196B3"/>
<path d="M40.1899 56.1524C40.1097 56.1524 40.0316 56.1265 39.9672 56.0787C39.9028 56.0308 39.8555 55.9635 39.8324 55.8866C39.8099 55.7924 39.8234 55.6931 39.8702 55.6083C39.917 55.5235 39.9938 55.4591 40.0855 55.4279C40.4019 55.3014 41.9836 54.0834 42.9485 52.0555C42.9781 51.9646 43.0386 51.8869 43.1195 51.836C43.2005 51.7852 43.2967 51.7643 43.3914 51.7771C43.4873 51.7997 43.5704 51.8593 43.6225 51.9428C43.6746 52.0264 43.6917 52.1272 43.6698 52.2232C43.0371 54.9787 40.4019 56.1081 40.2943 56.1397C40.2602 56.1486 40.2251 56.1528 40.1899 56.1524Z" fill="#F196B3"/>
<path d="M59.8107 59.1274C59.8107 59.1274 61.3672 58.9186 61.3324 56.9825C61.2976 55.0464 58.3554 59.1021 59.8107 59.1274Z" fill="#F196B3"/>
<path d="M85.9638 36.4886C85.9638 36.4886 87.2008 36.321 87.1723 34.7835C87.1438 33.246 84.8091 36.4602 85.9638 36.4886Z" fill="#F196B3"/>
<path d="M97.9348 39.9642C97.9348 39.9642 99.1844 39.9642 99.3647 38.4394C99.5451 36.9145 96.7896 39.7807 97.9348 39.9642Z" fill="#F196B3"/>
<path d="M124.303 59.2095C124.303 59.2095 125.86 59.0039 125.825 57.0646C125.79 55.1253 122.848 59.1747 124.303 59.2095Z" fill="#F196B3"/>
<path d="M162.472 59.417C162.472 59.417 164.028 59.2082 163.994 57.2721C163.959 55.336 161.026 59.3854 162.472 59.417Z" fill="#F196B3"/>
<path d="M25.4889 45.2451C25.4805 45.2674 25.4773 45.2913 25.4798 45.3151C25.4823 45.3388 25.4904 45.3615 25.5033 45.3816C25.5163 45.4016 25.5337 45.4183 25.5543 45.4303C25.5749 45.4423 25.598 45.4493 25.6218 45.4507C26.0465 45.4896 26.4719 45.3844 26.8295 45.1519C27.187 44.9195 27.4559 44.5734 27.5927 44.1695C27.9629 43.2204 25.7515 44.6409 25.4889 45.2451Z" fill="#F196B3"/>
<path d="M96.1346 50.7652C96.4952 49.8161 94.2839 51.2366 94.0308 51.8408C94.0229 51.8629 94.0203 51.8865 94.0231 51.9098C94.0258 51.9331 94.034 51.9555 94.0469 51.9751C94.0597 51.9947 94.077 52.0111 94.0972 52.0229C94.1175 52.0347 94.1402 52.0417 94.1636 52.0433C94.5864 52.0832 95.0103 51.9802 95.3675 51.7508C95.7248 51.5214 95.9949 51.1788 96.1346 50.7778" fill="#F196B3"/>
<path d="M195.313 57.2027C195.673 56.2536 193.462 57.6741 193.209 58.2783C193.201 58.3006 193.197 58.3245 193.2 58.3483C193.202 58.372 193.21 58.3948 193.223 58.4148C193.236 58.4348 193.254 58.4515 193.274 58.4635C193.295 58.4755 193.318 58.4825 193.342 58.4839C193.765 58.5238 194.189 58.4209 194.546 58.1915C194.903 57.9621 195.173 57.6195 195.313 57.2185" fill="#F196B3"/>
<path d="M226.955 57.4019C227.316 56.4528 225.104 57.8733 224.851 58.4775C224.843 58.4998 224.84 58.5238 224.842 58.5475C224.845 58.5712 224.853 58.594 224.866 58.614C224.878 58.634 224.896 58.6507 224.916 58.6627C224.937 58.6747 224.96 58.6817 224.984 58.6832C225.407 58.7231 225.831 58.6201 226.188 58.3907C226.545 58.1613 226.815 57.8187 226.955 57.4177" fill="#F196B3"/>
<path d="M226.038 48.0289C226.401 47.0798 224.19 48.5002 223.937 49.1045C223.929 49.1266 223.926 49.1502 223.929 49.1735C223.932 49.1968 223.94 49.2191 223.953 49.2388C223.966 49.2584 223.983 49.2747 224.003 49.2866C224.024 49.2984 224.046 49.3054 224.07 49.3069C224.493 49.3501 224.918 49.2484 225.275 49.0185C225.633 48.7886 225.901 48.4442 226.038 48.0415" fill="#F196B3"/>
<path d="M225.522 41.1382C225.882 40.1892 223.671 41.6096 223.421 42.2139C223.412 42.2359 223.408 42.2597 223.41 42.2835C223.412 42.3072 223.42 42.3302 223.433 42.3503C223.445 42.3705 223.463 42.3873 223.483 42.3993C223.504 42.4114 223.527 42.4183 223.551 42.4195C223.974 42.4594 224.398 42.3564 224.755 42.127C225.112 41.8976 225.382 41.555 225.522 41.1541" fill="#F196B3"/>
<path d="M203.614 32.6099C203.614 32.6099 202.001 32.0658 201.485 33.8754C201.169 34.9763 204.291 32.9991 203.614 32.6099Z" fill="#F196B3"/>
<path d="M172.931 47.3765C172.86 47.3645 172.796 47.3293 172.749 47.2765C172.701 47.2237 172.673 47.1564 172.668 47.0854C172.664 46.9998 172.692 46.9159 172.748 46.8503C172.803 46.7846 172.88 46.7421 172.965 46.7311C174.257 46.4407 175.436 45.7812 176.36 44.8329C176.483 44.7001 176.626 44.5957 176.79 44.6684C176.88 44.713 176.951 44.7891 176.989 44.8824C177.027 44.9757 177.029 45.0797 176.996 45.1746C175.683 47.2689 173.12 47.3891 173.022 47.3891C172.991 47.3898 172.96 47.3855 172.931 47.3765Z" fill="#F196B3"/>
<path d="M188.872 39.1707C188.801 39.1781 188.734 39.2092 188.683 39.2592C188.632 39.3092 188.599 39.375 188.59 39.446C188.581 39.531 188.603 39.6165 188.654 39.6856C188.704 39.7547 188.779 39.8024 188.862 39.8193C189.144 39.892 190.681 40.7684 191.751 42.4387C191.787 42.5151 191.849 42.5763 191.926 42.6116C192.003 42.6469 192.09 42.654 192.171 42.6317C192.213 42.618 192.251 42.596 192.283 42.5671C192.315 42.5381 192.341 42.5028 192.359 42.4633C192.378 42.4238 192.387 42.3811 192.388 42.3376C192.389 42.2942 192.381 42.2511 192.364 42.2109C191.501 39.8731 189.062 39.1866 188.964 39.1707C188.933 39.1644 188.902 39.1644 188.872 39.1707Z" fill="#F196B3"/>
<path d="M75.1888 58.7844C75.1222 58.758 75.0666 58.7099 75.031 58.6478C74.9954 58.5858 74.9819 58.5135 74.9926 58.4427C75.0073 58.3581 75.0531 58.282 75.121 58.2293C75.1888 58.1767 75.2739 58.1512 75.3596 58.158C76.685 58.1479 77.9788 57.7522 79.0831 57.0191C79.2318 56.9147 79.3995 56.842 79.5418 56.9495C79.6196 57.0129 79.6718 57.1023 79.6887 57.2012C79.7056 57.3001 79.686 57.4018 79.6336 57.4873C77.9031 59.2526 75.3754 58.8224 75.2742 58.8097C75.2448 58.8047 75.2161 58.7962 75.1888 58.7844Z" fill="#F196B3"/>
<path d="M90.8609 54.8046C90.7996 54.8304 90.7479 54.8748 90.7133 54.9316C90.6786 54.9884 90.6628 55.0547 90.668 55.121C90.678 55.1976 90.7157 55.2679 90.774 55.3186C90.8323 55.3693 90.9071 55.3969 90.9843 55.3962C91.2532 55.3962 92.816 55.8739 94.1257 57.1362C94.1722 57.1999 94.2408 57.244 94.318 57.2598C94.3952 57.2756 94.4756 57.262 94.5433 57.2216C94.6079 57.1751 94.6525 57.1059 94.6683 57.0279C94.6842 56.95 94.67 56.8689 94.6287 56.8008C93.3633 54.9027 91.0286 54.7888 90.9369 54.7951C90.9113 54.7955 90.8858 54.7987 90.8609 54.8046Z" fill="#F196B3"/>
<path d="M137.008 32.3572C137.008 32.3572 135.392 31.8162 134.879 33.6226C134.563 34.7235 137.682 32.7463 137.008 32.3572Z" fill="#F196B3"/>
<path d="M143.07 46.6809C143.062 46.7032 143.059 46.727 143.062 46.7504C143.065 46.7739 143.073 46.7964 143.086 46.8162C143.099 46.8361 143.116 46.8527 143.136 46.8649C143.156 46.8771 143.179 46.8845 143.203 46.8865C143.625 46.9264 144.049 46.8234 144.407 46.594C144.764 46.3646 145.034 46.0221 145.174 45.6211C145.534 44.653 143.323 46.0766 143.07 46.6809Z" fill="#F196B3"/>
<path d="M145.705 57.8356C145.695 57.8578 145.692 57.882 145.694 57.906C145.696 57.93 145.704 57.9531 145.717 57.9733C145.73 57.9935 145.748 58.0103 145.769 58.0221C145.79 58.034 145.814 58.0405 145.838 58.0412C146.26 58.0838 146.685 57.9819 147.042 57.7521C147.4 57.5223 147.669 57.1781 147.805 56.7758C148.169 55.8078 145.955 57.2282 145.705 57.8356Z" fill="#F196B3"/>
<path d="M18.0734 18.0249C17.5767 18.0368 17.0804 17.9868 16.596 17.8762C16.2554 17.8031 15.9433 17.6328 15.6976 17.3858C15.468 17.1272 15.3157 16.8093 15.2578 16.4684C15.1703 15.9948 15.1301 15.5137 15.1376 15.0321V2.78908C15.1376 2.10891 15.3211 1.61856 15.6881 1.3117C16.0806 0.996347 16.5738 0.833434 17.0769 0.852975C17.5708 0.830544 18.0551 0.994242 18.4341 1.3117C18.7789 1.62806 18.9529 2.10891 18.9529 2.78908V14.178C18.9529 14.4057 18.9909 14.5481 19.0636 14.6082C19.2007 14.6831 19.3576 14.714 19.5128 14.6968H22.4866C22.7631 14.6894 23.0383 14.7367 23.2965 14.836C23.4998 14.9196 23.6807 15.0496 23.8248 15.2156C23.9565 15.3736 24.0525 15.5581 24.1064 15.7566C24.1596 15.9633 24.1861 16.1759 24.1854 16.3893C24.1869 16.6036 24.156 16.8169 24.0937 17.022C24.0377 17.2152 23.943 17.3949 23.8153 17.5503C23.6755 17.7145 23.4973 17.8417 23.2965 17.9205C23.0387 18.0212 22.7632 18.0686 22.4866 18.0597L18.0734 18.0249ZM24.9226 1.87164C24.9067 1.63301 24.9475 1.39402 25.0415 1.17412C25.1355 0.954222 25.2801 0.759634 25.4635 0.606207C25.8126 0.322037 26.2504 0.169734 26.7005 0.175965C26.9255 0.176227 27.1489 0.21365 27.3617 0.286702C27.5723 0.35592 27.7686 0.463142 27.9406 0.60306C28.1244 0.756995 28.2703 0.951236 28.3669 1.1707C28.4634 1.39017 28.5081 1.62896 28.4974 1.86849V7.49965H29.5572V1.87164C29.5417 1.63336 29.5823 1.39479 29.6757 1.17503C29.7691 0.955271 29.9127 0.760444 30.095 0.606207C30.4453 0.322052 30.8841 0.169799 31.3351 0.175965C31.5591 0.176227 31.7814 0.213655 31.9931 0.286702C32.2038 0.35592 32.4 0.463142 32.5721 0.60306C32.7448 0.747506 32.884 0.927769 32.9802 1.13137C33.086 1.36015 33.138 1.61015 33.132 1.86216V17.1296C33.132 17.3642 33.0858 17.5964 32.9959 17.8131C32.906 18.0298 32.7743 18.2266 32.6083 18.3923C32.4423 18.5581 32.2452 18.6894 32.0284 18.7789C31.8116 18.8684 31.5792 18.9142 31.3446 18.9138C31.11 18.9142 30.8777 18.8684 30.6608 18.7789C30.444 18.6894 30.2469 18.5581 30.0809 18.3923C29.9149 18.2266 29.7832 18.0298 29.6933 17.8131C29.6034 17.5964 29.5572 17.3642 29.5572 17.1296V10.7771H28.4974V17.1391C28.4974 17.3736 28.4511 17.6059 28.3613 17.8226C28.2714 18.0393 28.1397 18.2361 27.9737 18.4018C27.8077 18.5676 27.6106 18.6989 27.3938 18.7884C27.1769 18.8779 26.9446 18.9237 26.71 18.9233C26.4754 18.9237 26.243 18.8779 26.0262 18.7884C25.8094 18.6989 25.6123 18.5676 25.4463 18.4018C25.2803 18.2361 25.1485 18.0393 25.0587 17.8226C24.9688 17.6059 24.9226 17.3736 24.9226 17.1391V1.87164Z" fill="#EAEAEA"/>
<path d="M41.6991 18.1684C41.1671 18.1807 40.6358 18.1265 40.1173 18.007C39.7537 17.9283 39.4226 17.7407 39.1682 17.4692C38.9322 17.1747 38.7773 16.8235 38.719 16.4505C38.6316 15.928 38.5913 15.3986 38.5988 14.8688V4.1126C38.5913 3.5828 38.6316 3.05341 38.719 2.53082C38.7773 2.15789 38.9322 1.80672 39.1682 1.51215C39.4226 1.24066 39.7537 1.05306 40.1173 0.974342C40.6358 0.854856 41.1671 0.800651 41.6991 0.812996H46.3685C46.9004 0.80085 47.4318 0.855051 47.9503 0.974342C48.3145 1.05172 48.6459 1.23953 48.8994 1.51215C49.1377 1.80567 49.2938 2.1572 49.3518 2.53082C49.438 3.05352 49.4772 3.5829 49.4688 4.1126V16.0867C49.4688 16.6346 49.2512 17.1601 48.8638 17.5475C48.4763 17.9349 47.9509 18.1526 47.403 18.1526L41.6991 18.1684ZM42.4773 14.312C42.4644 14.4913 42.5099 14.67 42.607 14.8213C42.6763 14.8881 42.7599 14.9382 42.8514 14.9678C42.943 14.9974 43.0401 15.0057 43.1353 14.9921H45.0335C45.1786 14.9921 45.3178 14.9345 45.4205 14.8318C45.5231 14.7292 45.5808 14.59 45.5808 14.4449V4.66623C45.5877 4.50102 45.5529 4.33672 45.4796 4.18853C45.4131 4.06831 45.2676 4.0082 45.0398 4.0082H42.9835C42.7589 4.0082 42.6134 4.06831 42.5532 4.18853C42.4876 4.33889 42.4573 4.50232 42.4647 4.66623L42.4773 14.312ZM51.6517 2.11005C51.6334 1.83902 51.6782 1.56745 51.7825 1.31661C51.8868 1.06578 52.0477 0.842522 52.2528 0.664317C52.6386 0.342465 53.1265 0.168603 53.6289 0.173948C53.8813 0.174689 54.1316 0.218567 54.3692 0.303665C54.6019 0.385344 54.8167 0.511 55.0019 0.673798C55.1874 0.841306 55.337 1.04472 55.4416 1.27172C55.5578 1.53566 55.615 1.82174 55.6093 2.11005V7.17178H56.2705C56.5317 7.16121 56.7915 7.21555 57.0266 7.32995C57.2161 7.42731 57.3806 7.56696 57.5075 7.73807C57.6278 7.9071 57.7157 8.09694 57.7669 8.29801C57.8192 8.49732 57.8458 8.70253 57.846 8.9086C57.8457 9.11362 57.8192 9.31775 57.7669 9.516C57.7157 9.71706 57.6278 9.90693 57.5075 10.076C57.3795 10.2497 57.2112 10.3897 57.0171 10.484C56.7852 10.598 56.5288 10.6534 56.2705 10.6454H55.6093V16.9725C55.6093 17.2321 55.5582 17.489 55.4587 17.7287C55.3593 17.9684 55.2137 18.1862 55.03 18.3695C54.8464 18.5529 54.6284 18.6982 54.3885 18.7973C54.1486 18.8963 53.8916 18.947 53.6321 18.9466C53.3726 18.947 53.1155 18.8963 52.8757 18.7973C52.6358 18.6982 52.4178 18.5529 52.2342 18.3695C52.0505 18.1862 51.9048 17.9684 51.8054 17.7287C51.706 17.489 51.6548 17.2321 51.6548 16.9725L51.6517 2.11005Z" fill="#EAEAEA"/>
<path d="M75.1286 8.16698C75.3743 8.16127 75.6186 8.20538 75.8467 8.29668C76.034 8.37622 76.2015 8.49614 76.3371 8.64785C76.461 8.79004 76.5527 8.9573 76.606 9.1382C76.6592 9.31574 76.6859 9.50016 76.6851 9.6855C76.6882 10.0621 76.562 10.4284 76.3276 10.7232C76.1775 10.8881 75.9909 11.0158 75.7828 11.096C75.5746 11.1762 75.3506 11.2067 75.1286 11.185H59.5512C59.3292 11.2067 59.1052 11.1762 58.897 11.096C58.6888 11.0158 58.5023 10.8881 58.3522 10.7232C58.1177 10.4284 57.9916 10.0621 57.9947 9.6855C57.9939 9.50016 58.0206 9.31574 58.0738 9.1382C58.1271 8.9573 58.2188 8.79004 58.3427 8.64785C58.4783 8.49614 58.6457 8.37622 58.833 8.29668C59.0612 8.20538 59.3055 8.16127 59.5512 8.16698H75.1286ZM72.3099 0.371928C72.8669 0.361291 73.4212 0.45243 73.9454 0.640844C74.3796 0.799894 74.7753 1.04893 75.1065 1.37163C75.411 1.67706 75.6452 2.04519 75.793 2.4504C76.1009 3.31596 76.1009 4.26124 75.793 5.12679C75.6445 5.53164 75.4103 5.89962 75.1065 6.20556C74.7742 6.52615 74.3788 6.77396 73.9454 6.93318C73.4226 7.12845 72.868 7.225 72.3099 7.21791H62.3667C61.8096 7.23006 61.2551 7.1389 60.7312 6.94901C60.2978 6.7898 59.9024 6.54197 59.5701 6.22138C59.2663 5.91544 59.0321 5.54746 58.8836 5.14261C58.5757 4.27705 58.5757 3.33177 58.8836 2.46621C59.0314 2.061 59.2656 1.69287 59.5701 1.38744C59.9013 1.06475 60.297 0.815708 60.7312 0.656658C61.2555 0.468244 61.8097 0.377105 62.3667 0.387742L72.3099 0.371928ZM61.6486 18.9231C61.1581 18.936 60.668 18.886 60.1902 18.7745C59.8661 18.6977 59.5708 18.5298 59.3392 18.2904C59.1153 18.0292 58.9695 17.7101 58.9185 17.3698C58.8374 16.8881 58.8003 16.3999 58.8077 15.9114V15.2344C58.8009 14.7522 58.8379 14.2704 58.9185 13.795C58.9701 13.453 59.1158 13.1321 59.3392 12.8681C59.5709 12.6195 59.8736 12.4483 60.206 12.3777C60.6851 12.2747 61.1745 12.228 61.6644 12.2385H73.028C73.5179 12.228 74.0073 12.2747 74.4864 12.3777C74.8186 12.449 75.121 12.6201 75.3532 12.8681C75.5742 13.1336 75.7195 13.4538 75.774 13.795C75.8533 14.2706 75.8893 14.7523 75.8815 15.2344V17.3129C75.8815 17.5247 75.8398 17.7346 75.7587 17.9303C75.6776 18.1261 75.5588 18.3039 75.409 18.4537C75.2592 18.6036 75.0813 18.7224 74.8856 18.8035C74.6898 18.8846 74.48 18.9263 74.2681 18.9263L61.6486 18.9231ZM71.114 4.48774C71.236 4.50262 71.3596 4.49142 71.4769 4.45488C71.5942 4.41834 71.7023 4.35729 71.7942 4.27579C71.9127 4.14143 71.977 3.96774 71.9745 3.78859C71.9772 3.60845 71.9129 3.43373 71.7942 3.29824C71.7017 3.21781 71.5934 3.15768 71.4763 3.12171C71.3591 3.08575 71.2357 3.07475 71.114 3.08945H63.5657C63.4441 3.07475 63.3207 3.08575 63.2035 3.12171C63.0864 3.15768 62.978 3.21781 62.8856 3.29824C62.7677 3.43404 62.7046 3.60881 62.7084 3.78859C62.7047 3.96738 62.7679 4.14111 62.8856 4.27579C62.9775 4.35729 63.0856 4.41834 63.2029 4.45488C63.3201 4.49142 63.4438 4.50262 63.5657 4.48774H71.114ZM62.7875 15.709C62.7751 15.8579 62.8059 16.0073 62.8761 16.1392C62.9263 16.1897 62.9876 16.2278 63.0552 16.2503C63.1228 16.2728 63.1947 16.2792 63.2652 16.2689H71.3608C71.5034 16.2689 71.6402 16.2122 71.7411 16.1114C71.8419 16.0105 71.8986 15.8737 71.8986 15.7311V15.4432C71.91 15.2992 71.8757 15.1553 71.8005 15.0319C71.7475 14.9818 71.6838 14.9441 71.6143 14.9216C71.5448 14.8992 71.4712 14.8926 71.3988 14.9022H63.2652C63.1947 14.8919 63.1228 14.8983 63.0552 14.9208C62.9876 14.9433 62.9263 14.9814 62.8761 15.0319C62.8076 15.1576 62.7768 15.3004 62.7875 15.4432V15.709Z" fill="#EAEAEA"/>
<path d="M88.039 8.97985C88.0847 8.97985 88.13 8.97085 88.1722 8.95336C88.2144 8.93587 88.2528 8.91024 88.2851 8.87792C88.3174 8.84561 88.3431 8.80724 88.3605 8.76502C88.378 8.7228 88.387 8.67755 88.387 8.63185V8.16681C88.3788 7.88508 88.4374 7.6054 88.5579 7.3506C88.662 7.13417 88.8159 6.94553 89.0071 6.80015C89.1963 6.65598 89.4109 6.54866 89.6398 6.48379C89.8873 6.41707 90.1427 6.38408 90.3991 6.38572C90.6522 6.38519 90.9043 6.41817 91.1488 6.48379C91.383 6.54745 91.603 6.65479 91.7974 6.80015C91.9885 6.94553 92.1425 7.13417 92.2466 7.3506C92.3644 7.60618 92.4218 7.88548 92.4143 8.16681V8.6192C92.4151 8.71178 92.4525 8.80029 92.5182 8.86547C92.584 8.93064 92.6728 8.96721 92.7654 8.96721H97.9885C98.5864 8.96721 99.0135 9.12222 99.2539 9.43541C99.5014 9.73866 99.6365 10.1181 99.6365 10.5094C99.6365 10.9008 99.5014 11.2802 99.2539 11.5835C99.0935 11.7545 98.896 11.8865 98.6767 11.9693C98.4573 12.0521 98.2219 12.0835 97.9885 12.0612H82.6167C82.3833 12.0828 82.1481 12.051 81.9289 11.9683C81.7096 11.8855 81.5121 11.7539 81.3512 11.5835C81.1027 11.2807 80.9668 10.9012 80.9668 10.5094C80.9668 10.1177 81.1027 9.73815 81.3512 9.43541C81.6043 9.11905 82.0314 8.96721 82.6167 8.96721L88.039 8.97985ZM92.1517 1.98203C92.1446 2.03064 92.1477 2.0802 92.1609 2.12752C92.1742 2.17484 92.1972 2.21887 92.2285 2.25673C92.2598 2.2946 92.2987 2.32546 92.3427 2.34735C92.3867 2.36924 92.4348 2.38165 92.4839 2.38379C93.1175 2.41825 93.7461 2.51684 94.3599 2.67802C95.0755 2.86639 95.7515 3.18139 96.3561 3.60811C96.9857 4.05733 97.53 4.61551 97.9632 5.25632C98.1669 5.54937 98.3467 5.85827 98.501 6.18008C98.5816 6.34219 98.6195 6.52217 98.6113 6.70302C98.6031 6.88388 98.549 7.05966 98.454 7.2138C98.3591 7.36794 98.2264 7.49538 98.0686 7.58407C97.9108 7.67276 97.733 7.7198 97.5519 7.72076H96.7041C96.263 7.72569 95.8255 7.64039 95.4186 7.47011C95.0117 7.29983 94.6438 7.04816 94.3377 6.73056C93.9608 6.32612 93.5125 5.99471 93.0153 5.753C92.1376 5.34244 91.1592 5.19624 90.1998 5.33224C90.1349 5.34085 90.0736 5.36713 90.0226 5.40818C89.5737 5.76445 89.0953 6.08194 88.5927 6.35726C88.0359 6.66575 87.4538 6.9261 86.8527 7.13548C86.2512 7.34869 85.6333 7.51268 85.0052 7.62583C84.4001 7.73713 83.7854 7.78696 83.1703 7.77453C82.9245 7.7889 82.6785 7.74998 82.4492 7.66044C82.2199 7.57089 82.0126 7.43282 81.8416 7.2557C81.5664 6.95777 81.4197 6.56332 81.4335 6.15795C81.4475 5.74184 81.6181 5.34637 81.9112 5.0507C82.0912 4.87706 82.3038 4.74071 82.5367 4.6495C82.7696 4.55829 83.0183 4.514 83.2684 4.5192C83.7848 4.50298 84.2963 4.41242 84.7869 4.2503C85.2937 4.09058 85.7824 3.87853 86.2453 3.61759C86.6751 3.37508 87.0682 3.07256 87.4126 2.71914C87.7183 2.4139 87.9481 2.04114 88.0833 1.63087C88.2174 1.10215 88.5404 0.640776 88.9913 0.333795C89.4162 0.0862129 89.9064 -0.0263959 90.3968 0.010892C90.8871 0.0481798 91.3546 0.233615 91.7373 0.542602C92.0684 0.844196 92.2076 1.31977 92.1549 1.96936L92.1517 1.98203ZM83.4139 16.1485C82.9611 16.1803 82.5138 16.0338 82.1674 15.7404C82.0232 15.5995 81.9103 15.4297 81.8362 15.2422C81.762 15.0547 81.7283 14.8536 81.7372 14.6521C81.7267 14.4533 81.7598 14.2546 81.8341 14.0699C81.9084 13.8852 82.0222 13.719 82.1674 13.5829C82.5193 13.3012 82.9643 13.1622 83.4139 13.1937H95.9575C96.4469 13.1839 96.9359 13.2274 97.4159 13.3234C97.744 13.3867 98.0458 13.5464 98.2827 13.7822C98.5042 14.0364 98.65 14.3477 98.7035 14.6806C98.7829 15.1519 98.8189 15.6295 98.811 16.1074V17.7651C98.811 18.0722 98.689 18.3667 98.4719 18.5838C98.2547 18.801 97.9602 18.923 97.6531 18.923H95.9765C95.6694 18.923 95.3749 18.801 95.1577 18.5838C94.9406 18.3667 94.8186 18.0722 94.8186 17.7651V16.9362C94.8177 16.7276 94.7345 16.5277 94.5869 16.3802C94.4394 16.2326 94.2395 16.1493 94.0309 16.1485H83.4139Z" fill="#EAEAEA"/>
<path d="M121.051 8.25653C121.298 8.25056 121.543 8.29467 121.772 8.38623C121.957 8.46248 122.124 8.57797 122.26 8.72473C122.385 8.86302 122.477 9.02723 122.532 9.2056C122.583 9.38254 122.609 9.56559 122.611 9.74973C122.616 10.1243 122.488 10.4887 122.25 10.7779C122.098 10.9402 121.911 11.0654 121.703 11.1439C121.495 11.2223 121.272 11.2519 121.051 11.2303H115.281V12.366H118.935C119.425 12.3553 119.914 12.402 120.393 12.5052C120.726 12.5778 121.029 12.7486 121.263 12.9956C121.484 13.2622 121.628 13.5836 121.681 13.9256C121.761 14.4 121.798 14.8808 121.791 15.3619V17.3834C121.791 17.8113 121.621 18.2217 121.319 18.5243C121.016 18.8269 120.606 18.9969 120.178 18.9969H107.574C107.084 19.0082 106.594 18.9583 106.116 18.8482C105.784 18.7724 105.482 18.602 105.246 18.3578C105.024 18.0967 104.88 17.779 104.828 17.4404C104.746 16.9588 104.709 16.4705 104.718 15.982V15.3493C104.709 14.8681 104.746 14.3872 104.828 13.913C104.881 13.5709 105.025 13.2495 105.246 12.9829C105.48 12.7353 105.783 12.5644 106.116 12.4925C106.595 12.3894 107.084 12.3427 107.574 12.3533H111.247V11.2176H105.477C105.256 11.2392 105.032 11.2096 104.825 11.1312C104.617 11.0527 104.43 10.9275 104.278 10.7652C104.04 10.476 103.912 10.1117 103.917 9.73708C103.918 9.55161 103.945 9.3672 103.999 9.18977C104.051 9.01091 104.143 8.84636 104.268 8.70892C104.405 8.56147 104.572 8.4459 104.759 8.37041C104.987 8.27886 105.231 8.23471 105.477 8.24069L121.051 8.25653ZM115.142 2.12552C115.145 2.16553 115.145 2.20572 115.142 2.24573C115.138 2.28574 115.138 2.32592 115.142 2.36593C115.909 2.33856 116.677 2.41195 117.426 2.58422C118.166 2.75337 118.87 3.05449 119.504 3.47318C120.153 3.91005 120.71 4.47005 121.143 5.12141V5.14039C121.299 5.38356 121.387 5.66446 121.398 5.95349C121.408 6.24252 121.34 6.52896 121.201 6.7826C121.062 7.03623 120.857 7.24768 120.608 7.39462C120.359 7.54155 120.075 7.61855 119.786 7.61748H119.017C118.751 7.61727 118.49 7.55129 118.256 7.42543C118.022 7.29958 117.822 7.11775 117.676 6.89617C117.573 6.73683 117.455 6.58749 117.324 6.45012C117.022 6.12646 116.658 5.86529 116.255 5.68137C115.832 5.48988 115.38 5.37117 114.917 5.33022C114.414 5.28465 113.907 5.30806 113.411 5.39981C112.951 5.80105 112.444 6.14619 111.902 6.42797C111.327 6.73229 110.726 6.98326 110.105 7.17774C109.471 7.37687 108.819 7.51772 108.16 7.5985C107.503 7.67673 106.842 7.69685 106.182 7.65861C105.936 7.66018 105.692 7.61322 105.464 7.52039C105.236 7.42757 105.029 7.2907 104.854 7.11763C104.717 6.97447 104.61 6.80516 104.54 6.61981C104.47 6.43445 104.437 6.23687 104.445 6.03886C104.453 5.80907 104.507 5.58317 104.604 5.3749C104.702 5.16664 104.84 4.98034 105.012 4.82736C105.184 4.67437 105.385 4.55789 105.603 4.48499C105.821 4.41209 106.051 4.38428 106.28 4.40328C106.786 4.40015 107.289 4.33643 107.78 4.21347C108.286 4.09138 108.775 3.90979 109.238 3.67249C109.673 3.45348 110.07 3.16736 110.415 2.82465C110.733 2.51879 110.961 2.13136 111.073 1.70475C111.124 1.43513 111.23 1.17893 111.384 0.952382C111.539 0.725837 111.739 0.533877 111.972 0.388696C112.423 0.122535 112.952 0.0166557 113.471 0.0881722C113.947 0.129765 114.394 0.334231 114.737 0.667093C114.903 0.867817 115.025 1.10156 115.095 1.35293C115.165 1.6043 115.181 1.86761 115.142 2.12552ZM108.71 15.7605C108.698 15.9098 108.73 16.0592 108.802 16.1908C108.852 16.2413 108.913 16.2794 108.981 16.3019C109.048 16.3244 109.12 16.3308 109.191 16.3205H117.397C117.509 16.3196 117.616 16.2746 117.695 16.1952C117.774 16.1158 117.818 16.0084 117.818 15.8966V15.5612C117.829 15.4178 117.794 15.2747 117.717 15.1531C117.664 15.1026 117.601 15.0647 117.532 15.0422C117.463 15.0197 117.39 15.0133 117.318 15.0234H109.191C108.992 15.0234 108.874 15.0645 108.802 15.1531C108.731 15.2771 108.7 15.4191 108.71 15.5612V15.7605Z" fill="#EAEAEA"/>
<path d="M140.902 9.25654C141.169 9.2478 141.434 9.29523 141.681 9.39574C141.88 9.47692 142.058 9.60368 142.199 9.76587C142.33 9.91392 142.429 10.0873 142.491 10.2752C142.55 10.4623 142.58 10.6577 142.579 10.8541C142.58 11.2511 142.442 11.6359 142.19 11.9424C142.027 12.1173 141.827 12.2523 141.603 12.3368C141.38 12.4213 141.14 12.453 140.902 12.4296H125.565C125.328 12.453 125.088 12.4213 124.865 12.3368C124.641 12.2523 124.44 12.1173 124.278 11.9424C124.026 11.6359 123.888 11.2511 123.889 10.8541C123.887 10.6577 123.917 10.4623 123.977 10.2752C124.038 10.0873 124.137 9.91392 124.268 9.76587C124.411 9.60445 124.588 9.47783 124.787 9.39574C125.034 9.29523 125.299 9.2478 125.565 9.25654H140.902ZM128.9 8.16827C128.25 8.17996 127.602 8.08484 126.983 7.88671C126.479 7.72388 126.017 7.4553 125.626 7.09898C125.268 6.76261 124.991 6.34941 124.816 5.89049C124.632 5.39246 124.54 4.86492 124.547 4.33402C124.54 3.79482 124.631 3.25885 124.816 2.75223C124.99 2.28761 125.267 1.86813 125.626 1.52476C126.015 1.16135 126.478 0.885243 126.983 0.714884C127.601 0.511375 128.249 0.414045 128.9 0.427007H137.647C138.298 0.413555 138.946 0.510897 139.564 0.714884C140.07 0.883803 140.533 1.16008 140.921 1.52476C141.28 1.86813 141.557 2.28761 141.731 2.75223C141.918 3.25844 142.009 3.7947 142 4.33402C142.008 4.86504 141.917 5.39288 141.731 5.89049C141.556 6.34941 141.279 6.76261 140.921 7.09898C140.531 7.45666 140.068 7.72542 139.564 7.88671C138.945 8.08534 138.297 8.18048 137.647 8.16827H128.9ZM127.742 18.9909C127.271 19.0003 126.802 18.9504 126.344 18.8422C126.011 18.7648 125.707 18.5948 125.467 18.3518C125.241 18.1008 125.086 17.7939 125.018 17.4629C124.921 17.014 124.877 16.5553 124.885 16.0962V14.9573C124.885 14.2771 125.094 13.7994 125.518 13.5179C125.95 13.2339 126.459 13.0883 126.976 13.1003C127.486 13.0845 127.987 13.2355 128.403 13.5305C128.795 13.8153 128.995 14.293 128.995 14.9573V15.397C128.995 15.6216 129.026 15.764 129.093 15.8146C129.228 15.8847 129.381 15.9133 129.533 15.8969H140.289C140.902 15.8969 141.336 16.0519 141.589 16.3651C141.838 16.6696 141.974 17.0507 141.974 17.4439C141.974 17.8371 141.838 18.2182 141.589 18.5226C141.423 18.6927 141.22 18.8231 140.997 18.9041C140.774 18.9852 140.535 19.0148 140.298 18.9909H127.742ZM136.651 5.25146C137 5.28964 137.352 5.19725 137.638 4.99204C137.726 4.90735 137.796 4.805 137.842 4.69164C137.888 4.57827 137.91 4.45642 137.907 4.33402C137.913 4.21081 137.892 4.08766 137.846 3.97336C137.799 3.85907 137.728 3.75645 137.638 3.67282C137.345 3.48379 136.997 3.4001 136.651 3.43555H129.887C129.539 3.39962 129.19 3.48332 128.897 3.67282C128.806 3.75685 128.736 3.85956 128.689 3.97375C128.643 4.08794 128.622 4.21088 128.628 4.33402C128.625 4.45632 128.647 4.57794 128.693 4.69119C128.74 4.80444 128.809 4.90688 128.897 4.99204C129.183 5.19774 129.536 5.29014 129.887 5.25146H136.651Z" fill="#EAEAEA"/>
<path d="M157.742 14.8107V17.0252C157.742 17.5656 157.528 18.0838 157.145 18.4659C156.763 18.8479 156.245 19.0626 155.705 19.0626C155.165 19.0626 154.646 18.8479 154.264 18.4659C153.882 18.0838 153.667 17.5656 153.667 17.0252V14.8107H148.036C147.797 14.834 147.556 14.8012 147.332 14.715C147.108 14.6288 146.907 14.4915 146.746 14.3141C146.491 13.9964 146.354 13.601 146.356 13.1942C146.357 12.9945 146.388 12.7961 146.448 12.6057C146.508 12.4121 146.606 12.2324 146.736 12.0774C146.876 11.9111 147.054 11.7809 147.255 11.6978C147.503 11.5977 147.769 11.5503 148.036 11.5586H163.373C163.64 11.5506 163.905 11.598 164.152 11.6978C164.352 11.7809 164.53 11.9111 164.67 12.0774C164.801 12.2324 164.899 12.4121 164.958 12.6057C165.019 12.7961 165.049 12.9945 165.05 13.1942C165.053 13.601 164.915 13.9964 164.661 14.3141C164.5 14.4914 164.3 14.6287 164.076 14.715C163.852 14.8012 163.612 14.834 163.373 14.8107H157.742ZM160.036 2.31144V2.27032C160.028 1.98761 160.087 1.70702 160.207 1.45096C160.312 1.236 160.465 1.04856 160.656 0.903648C160.845 0.75948 161.06 0.652164 161.289 0.58729C161.539 0.519815 161.798 0.485773 162.057 0.486054C162.311 0.486594 162.563 0.520637 162.807 0.58729C163.036 0.652164 163.251 0.75948 163.44 0.903648C163.631 1.04984 163.788 1.23679 163.899 1.45096C164.025 1.70516 164.087 1.98654 164.079 2.27032V8.24315C164.079 8.75609 163.875 9.24807 163.513 9.61107C163.15 9.97407 162.659 10.1784 162.146 10.1793H150.124C149.631 10.1902 149.138 10.1402 148.656 10.0306C148.316 9.95223 148.007 9.77502 147.767 9.52125C147.54 9.25006 147.391 8.92186 147.337 8.57217C147.256 8.08716 147.219 7.59589 147.226 7.10427V2.26083C147.219 1.97813 147.277 1.69752 147.397 1.44146C147.504 1.22461 147.661 1.03681 147.856 0.894167C148.055 0.749244 148.279 0.642024 148.517 0.57781C148.768 0.509929 149.026 0.47588 149.286 0.476573C149.536 0.476899 149.784 0.514204 150.023 0.58729C150.251 0.655402 150.465 0.762438 150.656 0.903648C150.868 1.06366 151.038 1.27279 151.152 1.51304C151.265 1.75329 151.319 2.0175 151.307 2.28298L160.036 2.31144ZM160.036 6.39563V5.95272C160.036 5.78492 159.969 5.62399 159.85 5.50533C159.732 5.38668 159.571 5.32001 159.403 5.32001H151.978C151.81 5.32001 151.649 5.38668 151.531 5.50533C151.412 5.62399 151.345 5.78492 151.345 5.95272V6.40194C151.334 6.5653 151.38 6.72756 151.475 6.86067C151.539 6.92223 151.616 6.96868 151.7 6.9966C151.785 7.02452 151.874 7.0332 151.962 7.02201H159.403C159.486 7.02201 159.569 7.00554 159.646 6.97355C159.723 6.94155 159.793 6.89467 159.852 6.83558C159.91 6.7765 159.957 6.70636 159.989 6.62923C160.02 6.5521 160.036 6.46949 160.036 6.38613V6.39563Z" fill="#EAEAEA"/>
<path d="M167.806 15.0418C169.096 14.8962 170.078 14.467 170.751 13.7542C171.424 13.0413 171.833 12.0532 171.978 10.7899H168.065C167.8 10.7986 167.538 10.7467 167.296 10.6381C167.098 10.5456 166.922 10.4131 166.777 10.249C166.634 10.095 166.526 9.91144 166.461 9.71115C166.343 9.32022 166.343 8.90309 166.461 8.51216C166.52 8.31487 166.619 8.13183 166.752 7.97435C166.893 7.80637 167.07 7.67318 167.271 7.58522C167.516 7.47728 167.782 7.42541 168.049 7.43337H172.057V4.83924C172.061 4.77353 172.051 4.70781 172.029 4.6459C172.006 4.58398 171.972 4.52713 171.928 4.4786C171.88 4.43073 171.822 4.39356 171.759 4.36956C171.696 4.34557 171.628 4.33529 171.561 4.3394H168.204C167.94 4.34812 167.677 4.29616 167.435 4.18754C167.237 4.09506 167.061 3.96257 166.917 3.79843C166.779 3.64301 166.676 3.45951 166.616 3.26061C166.498 2.86968 166.498 2.45256 166.616 2.06163C166.673 1.86485 166.77 1.68184 166.901 1.52381C167.042 1.35649 167.219 1.22344 167.42 1.1347C167.664 1.02677 167.93 0.974872 168.198 0.982836H172.627C173.103 0.974957 173.579 1.02166 174.044 1.12203C174.394 1.1935 174.721 1.3524 174.993 1.58392C175.242 1.80733 175.419 2.0989 175.503 2.42228C175.612 2.83501 175.663 3.2609 175.654 3.68771V9.63839C175.687 10.9681 175.484 12.2931 175.053 13.5517C174.709 14.5423 174.158 15.4482 173.437 16.2091C172.78 16.8871 171.982 17.412 171.099 17.7466C170.217 18.0803 169.286 18.2684 168.343 18.3034C167.85 18.3437 167.356 18.2334 166.926 17.9871C166.724 17.8639 166.559 17.689 166.448 17.4803C166.336 17.2717 166.283 17.037 166.293 16.8007C166.267 16.3797 166.388 15.9625 166.635 15.6207C166.78 15.4487 166.958 15.3085 167.16 15.2088C167.361 15.1092 167.581 15.0523 167.806 15.0418ZM176.733 1.92243C176.717 1.68498 176.756 1.44703 176.848 1.2274C176.94 1.00778 177.081 0.812499 177.261 0.656997C177.608 0.378426 178.039 0.226562 178.484 0.226562C178.929 0.226562 179.36 0.378426 179.707 0.656997C179.89 0.810753 180.034 1.00538 180.128 1.2252C180.222 1.44502 180.263 1.68386 180.248 1.92243V7.55359H181.244V1.92243C181.229 1.68386 181.27 1.44502 181.364 1.2252C181.458 1.00538 181.602 0.810753 181.785 0.656997C182.135 0.374249 182.573 0.22213 183.022 0.226756C183.246 0.226723 183.469 0.264139 183.68 0.337473C183.889 0.403992 184.083 0.511545 184.25 0.653831C184.431 0.809464 184.575 1.00418 184.67 1.22335C184.766 1.44252 184.81 1.68045 184.8 1.91926V17.2151C184.8 17.6816 184.615 18.129 184.285 18.4589C183.955 18.7888 183.508 18.9741 183.041 18.9741H183.003C182.537 18.9741 182.089 18.7888 181.76 18.4589C181.43 18.129 181.244 17.6816 181.244 17.2151V10.8247H180.248V17.2151C180.248 17.6816 180.063 18.129 179.733 18.4589C179.403 18.7888 178.955 18.9741 178.489 18.9741C178.258 18.9741 178.03 18.9286 177.816 18.8401C177.603 18.7517 177.409 18.6221 177.246 18.4587C177.083 18.2953 176.954 18.1014 176.866 17.888C176.778 17.6747 176.733 17.446 176.733 17.2151V1.92243Z" fill="#EAEAEA"/>
<path d="M203.31 8.61453C203.579 8.60594 203.845 8.65673 204.092 8.76323C204.289 8.85292 204.465 8.98214 204.611 9.14286C204.743 9.29622 204.842 9.47642 204.898 9.67117C204.958 9.86592 204.989 10.0685 204.99 10.2723C204.991 10.6808 204.854 11.0778 204.601 11.3985C204.442 11.5794 204.241 11.7199 204.017 11.8085C203.793 11.897 203.55 11.9311 203.31 11.9078H187.976C187.736 11.9311 187.494 11.897 187.27 11.8085C187.045 11.7199 186.845 11.5794 186.686 11.3985C186.433 11.0778 186.295 10.6808 186.297 10.2723C186.297 10.0685 186.328 9.86592 186.388 9.67117C186.445 9.47642 186.543 9.29622 186.676 9.14286C186.821 8.98214 186.998 8.85292 187.195 8.76323C187.441 8.65673 187.708 8.60594 187.976 8.61453H203.31ZM189.973 7.41554C189.502 7.425 189.032 7.37505 188.574 7.26686C188.241 7.18958 187.936 7.01958 187.695 6.77649C187.469 6.52544 187.314 6.21856 187.246 5.88753C187.152 5.43825 187.108 4.97983 187.116 4.52086V2.34434C187.091 2.06662 187.133 1.78696 187.24 1.52917C187.346 1.27139 187.513 1.0431 187.727 0.863769C188.144 0.555087 188.653 0.39377 189.172 0.405065C189.687 0.391683 190.191 0.553392 190.602 0.863769C190.995 1.17169 191.191 1.66522 191.191 2.34434V3.82172C191.191 4.04634 191.222 4.18554 191.289 4.23932C191.425 4.3074 191.577 4.33486 191.728 4.31841H202.573C203.184 4.31841 203.617 4.47658 203.87 4.78978C204.119 5.09427 204.255 5.47537 204.255 5.86855C204.255 6.26173 204.119 6.64284 203.87 6.94734C203.705 7.11691 203.503 7.24703 203.28 7.32807C203.057 7.40912 202.819 7.43901 202.583 7.41554H189.973ZM190.153 18.9784C189.682 18.9887 189.212 18.9377 188.755 18.8266C188.422 18.7503 188.117 18.5814 187.875 18.3394C187.649 18.0883 187.494 17.7814 187.426 17.4504C187.33 17.0003 187.287 16.5407 187.296 16.0806V14.6633C187.273 14.3841 187.319 14.1035 187.429 13.846C187.54 13.5885 187.711 13.3619 187.929 13.1859C188.35 12.8767 188.862 12.7154 189.384 12.7272C189.899 12.712 190.404 12.8739 190.814 13.1859C191.021 13.3688 191.182 13.5978 191.285 13.8545C191.387 14.1111 191.427 14.3882 191.403 14.6633V15.3846C191.403 15.6092 191.434 15.7484 191.504 15.8022C191.638 15.8709 191.79 15.8984 191.94 15.8813H202.697C203.307 15.8813 203.741 16.0394 203.994 16.3526C204.242 16.6566 204.378 17.0372 204.378 17.4298C204.378 17.8225 204.242 18.203 203.994 18.507C203.828 18.6772 203.627 18.8079 203.404 18.8895C203.181 18.9711 202.942 19.0015 202.706 18.9784H190.153Z" fill="#EAEAEA"/>
<path d="M210.558 13.7035C210.29 13.7035 210.034 13.5972 209.844 13.4079C209.655 13.2187 209.549 12.962 209.549 12.6943V12.4856C209.529 11.8428 209.617 11.2013 209.808 10.5874C210.014 10.0557 210.403 9.61559 210.906 9.34727L212.086 8.62915C212.381 8.45261 212.661 8.25266 212.924 8.03123C213.188 7.80647 213.403 7.53104 213.557 7.22136C213.669 6.93856 213.722 6.6363 213.715 6.33239C213.725 6.12501 213.688 5.91808 213.605 5.72769C213.522 5.53731 213.396 5.36858 213.238 5.23462C212.912 4.96685 212.501 4.82534 212.08 4.83601C211.642 4.82362 211.209 4.93315 210.83 5.15237C210.473 5.36132 210.212 5.70205 210.103 6.10144C209.977 6.5596 209.689 6.9565 209.293 7.21819C208.869 7.47834 208.37 7.58966 207.875 7.53455C207.649 7.5221 207.426 7.47074 207.217 7.3827C207.01 7.30159 206.822 7.17638 206.667 7.01572C206.508 6.84309 206.383 6.64251 206.297 6.42413C206.2 6.16669 206.159 5.89179 206.177 5.61742C206.188 5.01368 206.361 4.42399 206.676 3.90908C207.003 3.37395 207.433 2.90934 207.942 2.54242C208.507 2.13993 209.134 1.83222 209.799 1.63132C210.532 1.41274 211.293 1.30608 212.058 1.31497C212.83 1.31054 213.599 1.41708 214.342 1.63132C215.001 1.81625 215.617 2.13262 216.151 2.56142C216.665 2.98239 217.071 3.51902 217.338 4.12737C217.637 4.82648 217.784 5.58149 217.768 6.34187C217.78 6.93715 217.699 7.53068 217.527 8.10082C217.361 8.60615 217.096 9.07376 216.749 9.47699C216.406 9.85771 216.028 10.2051 215.62 10.5146C215.173 10.8626 214.703 11.1959 214.212 11.5143C213.977 11.6513 213.79 11.8565 213.674 12.1028C213.591 12.3296 213.55 12.5698 213.554 12.8114C213.554 12.9294 213.531 13.0462 213.486 13.1552C213.44 13.2642 213.374 13.3633 213.291 13.4467C213.207 13.5301 213.108 13.5963 212.999 13.6415C212.89 13.6866 212.774 13.7099 212.656 13.7099L210.558 13.7035ZM209.429 16.6615C209.414 16.3893 209.456 16.1171 209.553 15.8622C209.649 15.6073 209.798 15.3752 209.989 15.1809C210.424 14.7993 210.993 14.6059 211.57 14.6431C211.857 14.6246 212.145 14.6638 212.417 14.7583C212.689 14.8529 212.939 15.0009 213.152 15.1936C213.51 15.5983 213.707 16.1198 213.707 16.6599C213.707 17.2 213.51 17.7215 213.152 18.1262C212.939 18.3189 212.689 18.4669 212.417 18.5614C212.145 18.656 211.857 18.6951 211.57 18.6767C210.993 18.7139 210.424 18.5205 209.989 18.1389C209.797 17.9454 209.647 17.7141 209.55 17.4598C209.452 17.2054 209.409 16.9335 209.422 16.6615H209.429Z" fill="#EAEAEA"/>
<path d="M17.1973 1.52477C17.044 1.47366 16.8815 1.45605 16.7208 1.47311C16.5601 1.49018 16.405 1.54154 16.2658 1.6237C16.1267 1.70587 16.0068 1.81694 15.9143 1.94941C15.8217 2.08188 15.7587 2.23266 15.7294 2.39158C15.508 3.14451 17.6624 1.78102 17.1973 1.52477Z" fill="white"/>
<path d="M21.8918 17.3774C21.8847 17.3953 21.882 17.4147 21.8839 17.4339C21.8858 17.453 21.8924 17.4714 21.9029 17.4876C21.9134 17.5037 21.9277 17.5171 21.9445 17.5265C21.9613 17.536 21.9801 17.5413 21.9993 17.5419C22.3401 17.5779 22.6829 17.4962 22.9706 17.3103C23.2584 17.1244 23.4739 16.8455 23.5811 16.5201C23.8595 15.7608 22.0943 16.8965 21.8918 17.3774Z" fill="white"/>
<path d="M26.4539 0.890625C26.4539 0.890625 25.5365 1.01084 25.5555 2.15606C25.5744 3.30127 27.3081 0.919097 26.4539 0.890625Z" fill="white"/>
<path d="M31.1264 0.853516C31.1264 0.853516 30.209 0.976895 30.2311 2.11895C30.2533 3.261 31.9837 0.872497 31.1264 0.853516Z" fill="white"/>
<path d="M31.6864 18.0846C31.6864 18.0846 32.6038 17.9612 32.5848 16.8192C32.5658 15.6771 30.8322 18.0625 31.6864 18.0846Z" fill="white"/>
<path d="M40.9556 1.7982C40.8023 1.7471 40.6398 1.72948 40.4791 1.74655C40.3184 1.76362 40.1633 1.81497 40.0241 1.89714C39.885 1.97931 39.7651 2.09037 39.6726 2.22285C39.58 2.35532 39.517 2.5061 39.4877 2.66502C39.2663 3.42111 41.4207 2.06711 40.9556 1.7982Z" fill="white"/>
<path d="M46.7324 17.2033C46.7252 17.2208 46.7224 17.2397 46.7241 17.2585C46.7259 17.2773 46.7322 17.2954 46.7424 17.3112C46.7527 17.3271 46.7666 17.3402 46.783 17.3495C46.7995 17.3588 46.8179 17.364 46.8368 17.3646C47.1771 17.4009 47.5196 17.3196 47.8073 17.1343C48.095 16.949 48.3107 16.6708 48.4186 16.346C48.6969 15.5867 46.9317 16.7098 46.7324 17.2033Z" fill="white"/>
<path d="M53.1989 0.925781C53.1989 0.925781 52.2815 1.04916 52.3036 2.19121C52.3258 3.33326 54.0562 0.944763 53.1989 0.925781Z" fill="white"/>
<path d="M54.0875 18.1334C54.0875 18.1334 55.0049 18.0101 54.9859 16.868C54.967 15.726 53.2333 18.1113 54.0875 18.1334Z" fill="white"/>
<path d="M99.0294 10.7616C99.2509 10.1795 97.8969 11.0495 97.7419 11.4196C97.7369 11.4334 97.7353 11.4481 97.737 11.4626C97.7387 11.4771 97.7437 11.491 97.7517 11.5032C97.7596 11.5155 97.7703 11.5257 97.7829 11.5332C97.7954 11.5406 97.8095 11.545 97.8241 11.5461C98.0841 11.571 98.3449 11.5069 98.5638 11.3644C98.7827 11.2219 98.9469 11.0094 99.0294 10.7616Z" fill="white"/>
<path d="M84.1795 7.11439C84.1397 7.09638 84.1069 7.06604 84.0858 7.02784C84.0647 6.98965 84.0565 6.94566 84.0624 6.90243C84.0717 6.85042 84.1004 6.80388 84.1427 6.77217C84.185 6.74047 84.2377 6.72598 84.2902 6.73161C85.1022 6.73312 85.8971 6.49785 86.5775 6.0546C86.6661 5.99132 86.7673 5.94703 86.8559 6.01347C86.9 6.05186 86.9295 6.10435 86.9393 6.16203C86.9491 6.21971 86.9386 6.279 86.9096 6.32983C85.8404 7.40228 84.2934 7.12388 84.2333 7.11755L84.1795 7.11439Z" fill="white"/>
<path d="M93.7084 3.17523C93.6686 3.19157 93.6352 3.22056 93.6135 3.25772C93.5918 3.29488 93.5829 3.33815 93.5882 3.38087C93.5953 3.43259 93.6218 3.47968 93.6623 3.51258C93.7028 3.54548 93.7544 3.56173 93.8065 3.55803C94.602 3.72108 95.3375 4.09976 95.9324 4.65263C95.9656 4.69224 96.0119 4.71875 96.0629 4.72744C96.1139 4.73613 96.1663 4.72643 96.2108 4.70008C96.2322 4.68495 96.2504 4.66574 96.2644 4.64354C96.2784 4.62134 96.2879 4.59661 96.2923 4.57075C96.2967 4.54488 96.296 4.51839 96.2901 4.49281C96.2843 4.46724 96.2734 4.44306 96.2582 4.42168C95.9636 4.038 95.5867 3.72518 95.1553 3.50621C94.7239 3.28723 94.249 3.16765 93.7653 3.15625L93.7084 3.17523Z" fill="white"/>
<path d="M83.6799 13.7359C83.5497 13.6908 83.4112 13.6746 83.2741 13.6884C83.137 13.7021 83.0045 13.7456 82.8859 13.8158C82.7673 13.8859 82.6654 13.981 82.5872 14.0946C82.5091 14.2081 82.4566 14.3372 82.4334 14.4731C82.2499 15.1279 84.0722 13.9637 83.6799 13.7359Z" fill="white"/>
<path d="M121.978 10.0663C122.2 9.48417 120.842 10.3542 120.691 10.7243C120.685 10.7378 120.683 10.7524 120.684 10.767C120.685 10.7815 120.69 10.7955 120.698 10.8079C120.705 10.8203 120.716 10.8306 120.728 10.8381C120.741 10.8456 120.755 10.8499 120.77 10.8508C121.03 10.8758 121.291 10.8119 121.511 10.6694C121.73 10.527 121.895 10.3144 121.978 10.0663Z" fill="white"/>
<path d="M107.024 6.95632C106.984 6.93874 106.951 6.90847 106.929 6.87017C106.908 6.83186 106.9 6.78765 106.907 6.74437C106.915 6.69261 106.943 6.6461 106.985 6.61434C107.027 6.58258 107.079 6.56799 107.131 6.57354C107.944 6.57541 108.739 6.33892 109.419 5.89336C109.51 5.83326 109.612 5.78897 109.7 5.8554C109.744 5.89413 109.773 5.9466 109.783 6.00412C109.792 6.06165 109.782 6.12079 109.754 6.17176C108.685 7.24421 107.138 6.96581 107.078 6.95632C107.06 6.95959 107.042 6.95959 107.024 6.95632Z" fill="white"/>
<path d="M116.552 3.01703C116.512 3.03327 116.479 3.06213 116.456 3.09923C116.434 3.13632 116.425 3.17965 116.429 3.22267C116.436 3.27498 116.463 3.32255 116.504 3.35553C116.546 3.38851 116.598 3.40437 116.651 3.39983C117.445 3.56343 118.179 3.94207 118.773 4.49443C118.807 4.53404 118.853 4.56054 118.904 4.56923C118.955 4.57792 119.007 4.56823 119.052 4.54187C119.073 4.52699 119.092 4.50796 119.106 4.48588C119.12 4.4638 119.13 4.4391 119.135 4.41322C119.14 4.38734 119.139 4.36079 119.134 4.33509C119.128 4.30939 119.117 4.28505 119.102 4.26348C118.807 3.87972 118.43 3.5669 117.998 3.34794C117.566 3.12898 117.09 3.00943 116.606 2.99805L116.552 3.01703Z" fill="white"/>
<path d="M107.024 13.1665C106.89 13.1215 106.748 13.1059 106.608 13.1206C106.468 13.1353 106.332 13.1801 106.21 13.2518C106.089 13.3235 105.984 13.4205 105.904 13.5362C105.823 13.652 105.768 13.7837 105.743 13.9226C105.553 14.5901 107.426 13.4006 107.024 13.1665Z" fill="white"/>
<path d="M119.678 18.3683C119.673 18.3816 119.671 18.3959 119.673 18.41C119.674 18.4242 119.679 18.4377 119.687 18.4497C119.695 18.4617 119.705 18.4717 119.717 18.479C119.729 18.4863 119.743 18.4906 119.757 18.4917C120.013 18.5161 120.269 18.453 120.484 18.3128C120.699 18.1726 120.86 17.9635 120.94 17.7198C121.159 17.1503 119.83 18.0045 119.678 18.3683Z" fill="white"/>
<path d="M141.77 11.0155C141.991 10.4334 140.637 11.3034 140.482 11.6735C140.476 11.6872 140.474 11.7021 140.475 11.7169C140.477 11.7317 140.482 11.7459 140.49 11.7583C140.498 11.7708 140.509 11.7811 140.522 11.7883C140.535 11.7956 140.549 11.7996 140.564 11.8001C140.824 11.8249 141.085 11.7608 141.304 11.6183C141.523 11.4758 141.687 11.2633 141.77 11.0155Z" fill="white"/>
<path d="M139.808 18.1777C139.802 18.191 139.8 18.2055 139.801 18.2199C139.802 18.2343 139.807 18.2481 139.815 18.2603C139.823 18.2725 139.833 18.2826 139.846 18.2897C139.858 18.2968 139.873 18.3007 139.887 18.3011C140.142 18.3263 140.398 18.2639 140.613 18.1242C140.828 17.9845 140.99 17.7757 141.07 17.5323C141.276 16.9629 139.957 17.817 139.808 18.1777Z" fill="white"/>
<path d="M162.997 14.1787C162.991 14.192 162.989 14.2065 162.99 14.2209C162.991 14.2353 162.996 14.2492 163.004 14.2614C163.012 14.2735 163.022 14.2836 163.035 14.2907C163.047 14.2978 163.062 14.3017 163.076 14.3021C163.331 14.3273 163.587 14.265 163.802 14.1252C164.017 13.9855 164.179 13.7768 164.259 13.5334C164.477 12.9513 163.146 13.8054 162.997 14.1787Z" fill="white"/>
<path d="M168.505 1.6218C168.365 1.57494 168.217 1.55862 168.071 1.57394C167.925 1.58925 167.784 1.63586 167.657 1.71059C167.53 1.78531 167.421 1.8864 167.337 2.007C167.253 2.1276 167.196 2.26488 167.17 2.40953C166.97 3.10552 168.925 1.8654 168.505 1.6218Z" fill="white"/>
<path d="M168.223 8.02923C168.101 7.98812 167.971 7.97385 167.842 7.98737C167.714 8.00089 167.589 8.0419 167.478 8.10761C167.367 8.17331 167.271 8.26218 167.197 8.3682C167.123 8.47422 167.073 8.5949 167.05 8.72205C166.876 9.32946 168.593 8.24119 168.223 8.02923Z" fill="white"/>
<path d="M178.056 0.859375C178.056 0.859375 177.081 0.989082 177.106 2.20389C177.132 3.41871 178.967 0.891011 178.056 0.859375Z" fill="white"/>
<path d="M182.668 0.857422C182.668 0.857422 181.694 0.987129 181.719 2.20194C181.744 3.41675 183.579 0.892221 182.668 0.857422Z" fill="white"/>
<path d="M171.827 16.5675C171.776 16.567 171.727 16.5505 171.687 16.5204C171.646 16.4902 171.617 16.448 171.602 16.3998C171.588 16.3407 171.596 16.2784 171.625 16.2252C171.654 16.1719 171.703 16.1315 171.76 16.1119C172.541 15.5864 173.162 14.855 173.554 13.9986C173.573 13.9416 173.611 13.893 173.662 13.8612C173.712 13.8294 173.773 13.8165 173.832 13.8247C173.862 13.8314 173.89 13.8439 173.915 13.8616C173.94 13.8792 173.961 13.9017 173.977 13.9276C173.994 13.9534 174.004 13.9823 174.009 14.0124C174.014 14.0425 174.013 14.0733 174.006 14.1031C173.614 15.8304 171.959 16.539 171.89 16.558C171.869 16.5645 171.848 16.5677 171.827 16.5675Z" fill="white"/>
<path d="M183.487 18.4295C183.487 18.4295 184.465 18.2998 184.436 17.085C184.408 15.8702 182.576 18.4074 183.487 18.4295Z" fill="white"/>
<path d="M204.231 10.5155C204.452 9.93339 203.098 10.8034 202.943 11.1735C202.938 11.187 202.937 11.2015 202.938 11.2158C202.94 11.2301 202.945 11.2438 202.952 11.256C202.96 11.2682 202.97 11.2785 202.982 11.2861C202.994 11.2938 203.008 11.2985 203.022 11.3001C203.283 11.3251 203.544 11.2611 203.764 11.1186C203.983 10.9762 204.148 10.7636 204.231 10.5155Z" fill="white"/>
<path d="M202.314 18.1827C202.308 18.196 202.306 18.2105 202.307 18.2249C202.308 18.2393 202.313 18.2532 202.321 18.2654C202.328 18.2776 202.339 18.2876 202.352 18.2947C202.364 18.3018 202.378 18.3057 202.393 18.3061C202.648 18.3306 202.905 18.2675 203.12 18.1273C203.335 17.987 203.495 17.7779 203.576 17.5342C203.794 16.9648 202.462 17.8189 202.314 18.1827Z" fill="white"/>
<path d="M203.529 6.18737C203.75 5.60527 202.396 6.47526 202.241 6.84539C202.236 6.85915 202.235 6.87385 202.236 6.88836C202.238 6.90286 202.243 6.91678 202.251 6.92902C202.259 6.94127 202.27 6.95151 202.282 6.95895C202.295 6.96639 202.309 6.97083 202.323 6.97193C202.583 6.99676 202.844 6.93271 203.063 6.79021C203.282 6.64771 203.446 6.43519 203.529 6.18737Z" fill="white"/>
<path d="M188.799 1.02148C188.799 1.02148 187.825 1.15119 187.85 2.366C187.875 3.58082 189.71 1.04363 188.799 1.02148Z" fill="white"/>
<path d="M140.798 2.96763C141.456 4.36593 141.067 6.1312 139.7 6.93474C138.99 7.32119 138.197 7.53165 137.388 7.54848C137.071 7.54848 136.755 7.54849 136.439 7.52318C136.413 7.51878 136.39 7.50541 136.373 7.48543C136.356 7.46546 136.347 7.44016 136.347 7.41403C136.347 7.3879 136.356 7.36262 136.373 7.34264C136.39 7.32267 136.413 7.3093 136.439 7.3049C139.068 6.98854 140.956 6.03947 140.485 3.05622C140.479 3.03544 140.477 3.01372 140.48 2.9923C140.483 2.97089 140.489 2.95018 140.5 2.93138C140.521 2.89341 140.557 2.86549 140.599 2.85374C140.641 2.842 140.686 2.84739 140.724 2.86875C140.762 2.8901 140.79 2.92568 140.801 2.96763H140.798Z" fill="white"/>
<path d="M74.7016 2.8268C74.9466 3.39632 74.974 4.03596 74.7787 4.62435C74.5833 5.21274 74.1788 5.70896 73.6418 6.01886C73.0501 6.30207 72.3995 6.44084 71.7437 6.42379C71.4874 6.40481 71.2344 6.39215 70.9844 6.36368C70.9728 6.3625 70.9615 6.35903 70.9512 6.35345C70.9409 6.34786 70.9318 6.34029 70.9244 6.33116C70.9171 6.32204 70.9116 6.31154 70.9083 6.30029C70.905 6.28904 70.904 6.27725 70.9053 6.26561C70.9069 6.24407 70.9166 6.22394 70.9325 6.20927C70.9483 6.19459 70.9692 6.18646 70.9908 6.18652C73.1483 6.03151 74.7269 5.35134 74.4707 2.88691C74.4675 2.8557 74.4758 2.8244 74.4939 2.79881C74.5121 2.77322 74.5389 2.75507 74.5694 2.74773C74.5999 2.7404 74.632 2.74438 74.6599 2.75891C74.6877 2.77345 74.7092 2.79757 74.7206 2.8268H74.7016Z" fill="white"/>
<path d="M76.0113 9.88613C76.2327 9.30403 74.8755 10.1772 74.7237 10.5473C74.718 10.5606 74.7157 10.5751 74.7169 10.5895C74.7181 10.6039 74.7228 10.6178 74.7306 10.6299C74.7384 10.6421 74.749 10.6522 74.7616 10.6593C74.7742 10.6664 74.7883 10.6703 74.8028 10.6707C75.0633 10.6963 75.3248 10.6326 75.5444 10.49C75.764 10.3475 75.9286 10.1345 76.0113 9.88613Z" fill="white"/>
<path d="M61.1392 12.9594C61.0064 12.9166 60.866 12.9026 60.7273 12.9184C60.5887 12.9342 60.455 12.9794 60.3353 13.0509C60.2155 13.1225 60.1124 13.2188 60.0328 13.3334C59.9532 13.448 59.899 13.5783 59.8737 13.7155C59.6555 14.3798 61.5536 13.1935 61.1392 12.9594Z" fill="white"/>
<path d="M73.7936 18.1582C73.7886 18.1715 73.7868 18.1858 73.7884 18.1999C73.7899 18.214 73.7947 18.2276 73.8024 18.2396C73.81 18.2515 73.8204 18.2615 73.8326 18.2688C73.8448 18.2761 73.8585 18.2804 73.8727 18.2815C74.1279 18.3073 74.3844 18.2452 74.5995 18.1054C74.8147 17.9656 74.9757 17.7565 75.0558 17.5128C75.2741 16.9433 73.9454 17.7975 73.7936 18.1582Z" fill="white"/>
<path d="M149.352 1.34099C149.199 1.28989 149.036 1.27239 148.875 1.28965C148.714 1.3069 148.559 1.35853 148.42 1.44103C148.281 1.52352 148.161 1.63495 148.069 1.76779C147.976 1.90063 147.913 2.05177 147.885 2.21097C147.666 2.97339 149.817 1.60989 149.352 1.34099Z" fill="white"/>
<path d="M162.238 1.20818C162.084 1.15708 161.922 1.13958 161.761 1.15683C161.6 1.17409 161.445 1.22572 161.305 1.30822C161.166 1.39071 161.046 1.50214 160.954 1.63498C160.862 1.76782 160.799 1.91896 160.77 2.07816C160.548 2.84375 162.703 1.48024 162.238 1.20818Z" fill="white"/>
<path d="M161.592 9.24851C161.585 9.26617 161.582 9.28526 161.584 9.30419C161.586 9.32313 161.592 9.34137 161.602 9.35743C161.613 9.37349 161.627 9.38691 161.643 9.39657C161.659 9.40623 161.678 9.41187 161.697 9.41302C162.037 9.44844 162.38 9.36645 162.667 9.18062C162.955 8.99478 163.171 8.71626 163.278 8.39119C163.557 7.63193 161.792 8.76764 161.592 9.24851Z" fill="white"/>
<path d="M213.032 16.9656C213.04 17.114 213.018 17.2625 212.966 17.4019C212.915 17.5412 212.835 17.6685 212.732 17.7756C212.629 17.8828 212.505 17.9676 212.368 18.0247C212.23 18.0818 212.083 18.11 211.934 18.1076C210.811 18.1519 213.105 16.2918 213.032 16.9656Z" fill="white"/>
<path d="M216.838 5.1682C217.171 5.97977 217.201 6.8843 216.923 7.71623C216.644 8.54816 216.075 9.25185 215.319 9.69845C215.285 9.71982 215.244 9.72714 215.204 9.71893C215.164 9.71073 215.129 9.6876 215.106 9.65433C215.083 9.62105 215.073 9.58016 215.08 9.54009C215.086 9.50003 215.107 9.46386 215.139 9.43903C216.404 8.44883 216.835 6.80378 216.537 5.26944C216.524 5.22749 216.528 5.18191 216.548 5.14276C216.568 5.1036 216.603 5.07406 216.645 5.06063C216.687 5.04721 216.732 5.05101 216.772 5.07118C216.811 5.09135 216.84 5.12625 216.854 5.1682H216.838Z" fill="white"/>
</svg>
