<svg width="360" height="173" viewBox="0 0 360 173" fill="none" xmlns="http://www.w3.org/2000/svg">
<path d="M181 164C208.614 164 231 161.538 231 158.5C231 155.462 208.614 153 181 153C153.386 153 131 155.462 131 158.5C131 161.538 153.386 164 181 164Z" fill="#323435"/>
<g clip-path="url(#clip0_3503_80814)">
<path d="M154.801 123.484C154.944 124.338 151.494 135.454 152.519 150.984V151.535H148.535C147.659 151.534 146.816 151.872 146.184 152.478C145.551 153.084 145.177 153.911 145.14 154.786C145.121 155.245 145.196 155.702 145.359 156.131C145.522 156.56 145.77 156.952 146.088 157.282C146.406 157.613 146.788 157.876 147.21 158.055C147.633 158.234 148.087 158.326 148.546 158.325L174.183 158.225C174.183 158.225 173.659 140.083 174.806 134.633C174.806 134.633 175.809 124.663 178.035 120.938L162.902 118.998L154.801 123.484Z" fill="#63BBE9"/>
<path d="M187.779 126.852L189.355 158.264H215.03C215.901 158.265 216.738 157.933 217.372 157.337C218.006 156.741 218.389 155.925 218.442 155.057C218.47 154.592 218.403 154.125 218.245 153.687C218.086 153.249 217.84 152.848 217.52 152.508C217.2 152.169 216.814 151.899 216.386 151.714C215.958 151.53 215.497 151.435 215.03 151.436H210.467C210.467 151.436 211.101 129.265 206.687 124.752L187.779 126.852Z" fill="#63BBE9"/>
<path d="M155.55 130.853C155.55 130.853 168.463 134.319 175.5 129.701L176.476 124.802L174.315 119.688L155.55 130.853Z" fill="#5295B2"/>
<path d="M188.17 134.475L188.396 139.335C188.396 139.335 197.009 140.636 204.604 135.439L188.17 134.475Z" fill="#5295B2"/>
<path d="M120.627 82.7857C120.627 82.7857 112.989 74.8499 115.05 61.6786C116.34 53.4121 121.002 45.9502 128.133 41.5689C133.754 38.0834 140.492 36.8714 146.975 38.1797C146.975 38.1797 150.442 14.8406 173.092 11.3742C173.092 11.3742 199.208 6.05608 207.993 35.6226C207.993 35.6226 233.895 30.5359 243.12 56.1896C243.12 56.1896 253.288 79.9972 226.714 94.3258C226.714 94.3258 238.287 126.841 204.604 135.421C199.746 136.675 194.635 136.559 189.84 135.085C184.836 133.531 178.537 130.561 174.205 124.934C174.205 124.934 152.26 141.12 127.841 119.72C127.841 119.737 113.419 104.824 120.627 82.7857Z" fill="#63BBE9"/>
<path d="M229.657 80.3125C224.146 83.4593 216.067 78.6261 208.224 89.6481C201.176 99.5679 213.465 111.18 228.323 104.037L228.516 103.674C228.29 100.503 227.685 97.3705 226.714 94.3435C232.881 91.0369 237.069 87.1792 239.863 83.2554L242.547 78.4774C242.547 78.4774 236.942 76.1682 229.657 80.3125Z" fill="#5295B2"/>
<path d="M115.998 98.0951C115.998 98.0951 117.701 107.822 129.654 101.341L130.42 99.0154C130.42 99.0154 127.317 98.1226 127.114 98.0896C126.91 98.0565 115.998 98.0951 115.998 98.0951Z" fill="#5295B2"/>
<path d="M188.93 85.7071C197.206 85.7071 203.915 78.9983 203.915 70.7227C203.915 62.447 197.206 55.7383 188.93 55.7383C180.655 55.7383 173.946 62.447 173.946 70.7227C173.946 78.9983 180.655 85.7071 188.93 85.7071Z" fill="white"/>
<path d="M184.588 78.9555C189.936 78.9555 194.271 74.6203 194.271 69.2727C194.271 63.925 189.936 59.5898 184.588 59.5898C179.24 59.5898 174.905 63.925 174.905 69.2727C174.905 74.6203 179.24 78.9555 184.588 78.9555Z" fill="#010202"/>
<path d="M181.414 69.08C182.369 69.08 183.144 68.3053 183.144 67.3496C183.144 66.3939 182.369 65.6191 181.414 65.6191C180.458 65.6191 179.683 66.3939 179.683 67.3496C179.683 68.3053 180.458 69.08 181.414 69.08Z" fill="white"/>
<path d="M165.365 78.0027C170.43 78.0027 174.536 73.897 174.536 68.8324C174.536 63.7678 170.43 59.6621 165.365 59.6621C160.301 59.6621 156.195 63.7678 156.195 68.8324C156.195 73.897 160.301 78.0027 165.365 78.0027Z" fill="white"/>
<path d="M163.701 72.9813C166.334 72.9813 168.468 70.847 168.468 68.2143C168.468 65.5815 166.334 63.4473 163.701 63.4473C161.068 63.4473 158.934 65.5815 158.934 68.2143C158.934 70.847 161.068 72.9813 163.701 72.9813Z" fill="#010202"/>
<path d="M162.147 68.1212C162.616 68.1212 162.996 67.7412 162.996 67.2725C162.996 66.8038 162.616 66.4238 162.147 66.4238C161.678 66.4238 161.298 66.8038 161.298 67.2725C161.298 67.7412 161.678 68.1212 162.147 68.1212Z" fill="white"/>
<path d="M162.378 87.4715L187.845 84.8317C188.355 84.7793 188.871 84.8619 189.339 85.0711C189.808 85.2804 190.213 85.609 190.515 86.024C190.817 86.4391 191.004 86.9261 191.059 87.4364C191.114 87.9467 191.033 88.4624 190.826 88.9319C189.173 92.6573 185.497 97.5621 177.175 99.0997C174.959 99.5031 172.683 99.4562 170.485 98.9619C165.145 97.7936 160.946 94.3106 159.805 91.5055C159.638 91.071 159.576 90.6035 159.623 90.1406C159.67 89.6776 159.824 89.2321 160.075 88.8398C160.325 88.4475 160.664 88.1193 161.064 87.8817C161.464 87.6441 161.914 87.5036 162.378 87.4715Z" fill="#040001"/>
<path d="M190.033 90.5188C186.682 89.1686 181.055 90.651 181.055 90.651C173.39 92.6956 171.362 96.9777 170.739 99.0057C172.858 99.4517 175.044 99.4835 177.176 99.0994C184.362 97.7713 188.104 93.9356 190.033 90.5188Z" fill="#D15F53"/>
<path d="M167.283 86.9747C167.283 86.9747 166.997 90.1821 169.576 90.3695C171.328 90.4963 171.714 88.7162 171.78 87.5534C171.849 87.951 172.049 88.3141 172.349 88.584C172.649 88.8539 173.031 89.015 173.434 89.0414C175.307 89.1791 175.175 86.5063 175.148 86.1426L170.276 86.6496L167.283 86.9747Z" fill="white"/>
<path d="M201.813 76.4296L199.792 80.3477L223.594 92.6277L225.616 88.7096L201.813 76.4296Z" fill="#1D3F42"/>
<path d="M200.856 80.9561L210.043 80.6475L201.986 76.3379L200.856 80.9561Z" fill="#0D1C1E"/>
<path opacity="0.2" d="M188.578 85.7621C197.134 85.7621 204.069 78.8264 204.069 70.2707C204.069 61.715 197.134 54.7793 188.578 54.7793C180.022 54.7793 173.086 61.715 173.086 70.2707C173.086 78.8264 180.022 85.7621 188.578 85.7621Z" fill="#BFD5D6" stroke="#19413E" stroke-width="1.6533" stroke-miterlimit="10"/>
<path d="M199.523 80.1803C200.437 79.039 201.221 77.7986 201.859 76.4824C193.146 87.2068 181.171 81.8391 177.473 79.8661C178.157 80.6818 178.537 81.4037 179.363 82.043C179.87 82.4177 180.366 82.7539 180.857 83.068C182.697 84.173 184.755 84.8634 186.889 85.0909C189.023 85.3184 191.181 85.0775 193.213 84.3852C195.647 83.5591 197.823 82.1093 199.523 80.1803Z" fill="#6E8A8E"/>
<path d="M188.578 85.7621C197.134 85.7621 204.069 78.8264 204.069 70.2707C204.069 61.715 197.134 54.7793 188.578 54.7793C180.022 54.7793 173.086 61.715 173.086 70.2707C173.086 78.8264 180.022 85.7621 188.578 85.7621Z" stroke="#112322" stroke-width="1.6533" stroke-miterlimit="10"/>
<path d="M199.165 66.0945C197.798 63.124 194.949 60.7047 191.625 60.4071C191.473 60.3973 191.325 60.3561 191.189 60.286C191.054 60.2159 190.935 60.1184 190.839 59.9998C190.743 59.8812 190.673 59.744 190.633 59.5969C190.593 59.4497 190.584 59.2959 190.606 59.1451C190.627 58.9932 190.68 58.8474 190.761 58.717C190.841 58.5867 190.948 58.4746 191.075 58.3879C191.202 58.3013 191.345 58.2421 191.496 58.214C191.646 58.1859 191.801 58.1896 191.951 58.2248C193.909 58.6083 195.72 59.5366 197.175 60.9031C198.582 62.2296 199.652 63.8736 200.294 65.6977C200.345 65.8468 200.335 66.0099 200.266 66.1515C200.196 66.293 200.074 66.4013 199.925 66.4527C199.777 66.5043 199.614 66.4957 199.472 66.4288C199.329 66.3618 199.219 66.2418 199.165 66.0945Z" fill="#E0EAE8"/>
<path d="M158.708 17.5922C148.865 25.6603 146.975 38.1813 146.975 38.1813C140.492 36.8729 133.754 38.085 128.133 41.5705C121.002 45.9518 116.34 53.4081 115.05 61.6801C112.989 74.8514 120.627 82.7873 120.627 82.7873C120.627 82.7873 113.16 67.4006 121.36 53.4633C131.385 36.4398 149.053 41.6091 149.053 41.6091C147.317 31.8326 159.105 17.2891 159.105 17.2891L158.708 17.5922Z" fill="#5E92A0"/>
<path d="M241.103 79.5958C241.103 79.5958 239.136 77.4961 230.147 82.0923C224.879 84.7817 221.043 81.453 214.105 86.3743C208.252 90.5296 205.094 101.331 216.761 104.01C221.604 105.075 226.671 104.289 230.963 101.805C235.868 99.0496 242.701 93.5387 244.107 85.7516C244.307 84.5644 244.135 83.3443 243.614 82.2588C243.093 81.1734 242.248 80.2759 241.197 79.6895L241.103 79.5958Z" fill="#63BBE9"/>
<path d="M120.627 82.7852C120.627 82.7852 118.974 87.2215 118.974 91.1398C118.974 95.0581 127.665 90.7981 127.665 90.7981L120.627 82.7852Z" fill="#69A1B5"/>
<path d="M121.421 72.723C124.055 77.3633 130.161 89.4765 129.649 101.342C129.649 101.342 144.804 100.168 159.204 105.326C159.204 105.326 160.902 87.0296 170.513 79.8488C171.483 79.1213 171.29 77.5507 170.133 76.9004C163.398 73.1198 144.374 64.2251 122.347 70.1384C122.092 70.2166 121.859 70.3532 121.666 70.5373C121.473 70.7214 121.326 70.9479 121.236 71.1988C121.147 71.4497 121.116 71.7181 121.148 71.9827C121.18 72.2473 121.274 72.5008 121.421 72.723Z" fill="#FCF8F1"/>
<path d="M121.421 72.7239C121.421 72.7239 147.107 68.778 164.5 80.1913L134.355 86.2534L123.074 75.9037L121.421 72.7239Z" fill="#D1CABF"/>
<path d="M121.338 78.7846C123.978 83.4304 130.084 95.5381 129.571 107.409C129.571 107.409 144.727 106.229 159.127 111.393C159.127 111.393 160.824 93.0967 170.435 85.9104C171.405 85.1884 171.213 83.6178 170.05 82.9675C163.321 79.1814 144.297 70.2922 122.269 76.2055C122.015 76.2834 121.782 76.4194 121.589 76.6028C121.397 76.7862 121.249 77.012 121.159 77.2622C121.069 77.5125 121.038 77.7803 121.069 78.0446C121.1 78.3088 121.192 78.5622 121.338 78.7846Z" fill="#FCF8F1"/>
<path d="M115.265 86.4953C116.233 85.3314 117.443 84.3926 118.81 83.7444C120.178 83.0962 121.671 82.7542 123.184 82.7423L131.6 82.5825C133.44 82.5095 135.249 83.0667 136.729 84.1621C138.21 85.2574 139.271 86.8252 139.739 88.6061C140.142 90.4028 139.92 92.2832 139.109 93.9365C138.298 95.5898 136.948 96.9172 135.281 97.6992L127.736 101.425C126.388 102.111 124.905 102.494 123.393 102.549C121.88 102.603 120.374 102.326 118.98 101.739C117.577 101.14 116.331 100.226 115.341 99.0658C114.35 97.9061 113.642 96.533 113.27 95.0539C112.918 93.5702 112.915 92.025 113.261 90.5399C113.607 89.0548 114.293 87.6703 115.265 86.4953Z" fill="#63BBE9"/>
<path d="M218.651 40.9354C218.837 40.7526 219.081 40.6413 219.34 40.6213C219.523 40.5976 219.708 40.5976 219.891 40.6213C221.242 40.8141 233.118 42.2746 237.527 54.542C239.191 59.0831 214.882 45.1733 218.651 40.9354Z" fill="#8FCEEA"/>
</g>
<path d="M54.9467 120.365L43.9238 125.731L71.2178 138.413L54.9467 120.365Z" fill="#DC4C7C"/>
<circle cx="276" cy="24" r="4" fill="#60C0BA"/>
<ellipse cx="83.5" cy="16" rx="7.5" ry="8" fill="#60C0BA"/>
<path d="M265.727 70.7589L272 59.9994" stroke="#ECCD52" stroke-width="2" stroke-linecap="round"/>
<path d="M60 150L92 157" stroke="#ECCD52" stroke-width="2.5" stroke-linecap="round"/>
<path d="M65 97L79 104" stroke="#ECCD52" stroke-width="2" stroke-linecap="round"/>
<ellipse cx="88.5" cy="121" rx="5.5" ry="5" fill="#60C0BA"/>
<path d="M307.597 62.2941L283 80.1774L297.408 58.275L307.597 62.2941Z" fill="#DC4C7C"/>
<path d="M286.099 107.257L304.958 88.9997" stroke="#ECCD52" stroke-width="2" stroke-linecap="round"/>
<path d="M300.993 116.081L270.053 133.511L302.869 126.294L300.993 116.081Z" fill="#DC4C7C"/>
<circle cx="271.25" cy="98.2506" r="4" transform="rotate(-3.70739 271.25 98.2506)" fill="#60C0BA"/>
<defs>
<clipPath id="clip0_3503_80814">
<rect width="132.033" height="147.32" fill="white" transform="translate(113 11)"/>
</clipPath>
</defs>
</svg>
