<svg width="198" height="28" viewBox="0 0 198 28" fill="none" xmlns="http://www.w3.org/2000/svg">
<g clip-path="url(#clip0_3887_85840)">
<path d="M14.2022 0.861116C14.5354 0.851083 14.8662 0.922341 15.1658 1.06874C15.4237 1.19725 15.6473 1.38535 15.8181 1.61747C15.9867 1.84285 16.1077 2.10018 16.1739 2.37383C16.2422 2.63531 16.277 2.90441 16.2776 3.17468C16.2766 3.44106 16.2366 3.70586 16.159 3.96069C16.0842 4.22202 15.9637 4.46804 15.8032 4.68739C15.6352 4.91261 15.4169 5.09544 15.1658 5.22128C14.8657 5.36624 14.5353 5.43742 14.2022 5.42891H6.66227C6.11079 5.42891 5.83208 5.6662 5.83208 6.14078V9.43315C5.81852 9.54135 5.83021 9.65122 5.86622 9.75414C5.90223 9.85706 5.96158 9.95024 6.03963 10.0264C6.22332 10.1484 6.44237 10.2058 6.66227 10.1895H15.3199C15.6579 10.1806 15.9932 10.2517 16.2984 10.3971C16.5571 10.5176 16.7814 10.7012 16.9507 10.931C17.1099 11.1458 17.2303 11.3867 17.3065 11.6429C17.3851 11.8924 17.4251 12.1525 17.4251 12.4141C17.4256 12.6903 17.3856 12.9651 17.3065 13.2298C17.2322 13.4913 17.1117 13.7374 16.9507 13.9565C16.7798 14.1848 16.5559 14.368 16.2984 14.4904C15.9932 14.6358 15.6579 14.7069 15.3199 14.698H4.20135C3.51344 14.7139 2.82624 14.6441 2.15553 14.4904C1.67078 14.3783 1.22521 14.1375 0.865772 13.7933C0.525463 13.4391 0.289486 12.9977 0.18383 12.5179C0.0440014 11.88 -0.020678 11.228 -0.0088905 10.5751V4.99883C-0.020678 4.34592 0.0440014 3.69388 0.18383 3.05603C0.289486 2.57621 0.525463 2.13486 0.865772 1.7806C1.22442 1.43537 1.6703 1.1944 2.15553 1.08357C2.82624 0.929817 3.51344 0.860074 4.20135 0.875947L14.2022 0.861116ZM0.94879 22.1281C0.945761 21.36 1.07618 20.5972 1.33424 19.8738C1.57888 19.1818 1.96801 18.5499 2.47575 18.02C3.01597 17.4717 3.66835 17.0467 4.38814 16.7743C5.25053 16.4523 6.16596 16.2963 7.08626 16.3145H19.628C20.5373 16.2978 21.4418 16.4486 22.2965 16.7594C23.0205 17.0251 23.6781 17.4451 24.2237 17.9903C24.74 18.5163 25.1347 19.1491 25.3801 19.8442C25.8941 21.3233 25.8941 22.9328 25.3801 24.412C25.1347 25.107 24.74 25.7398 24.2237 26.2658C23.6773 26.81 23.02 27.2299 22.2965 27.4967C21.4418 27.8075 20.5373 27.9583 19.628 27.9416H7.08626C6.16596 27.9598 5.25053 27.8038 4.38814 27.4819C3.66932 27.2075 3.01732 26.7828 2.47575 26.2361C1.97077 25.7098 1.58188 25.0833 1.33424 24.3971C1.07395 23.6692 0.943485 22.9012 0.94879 22.1281ZM6.96766 22.1281C6.97419 22.5258 7.09796 22.9127 7.32345 23.2404C7.56065 23.6062 8.00539 23.7891 8.65768 23.7891H18.0566C18.7089 23.7891 19.1536 23.6062 19.3908 23.2404C19.6222 22.9157 19.7466 22.5268 19.7466 22.1281C19.7466 21.7293 19.6222 21.3405 19.3908 21.0158C19.1536 20.6519 18.7089 20.469 18.0566 20.467H8.65768C8.00539 20.467 7.56065 20.65 7.32345 21.0158C7.09481 21.3424 6.96792 21.7294 6.95876 22.1281H6.96766ZM19.4205 2.93739C19.4205 1.96747 19.717 1.23781 20.2952 0.742469C20.8701 0.258825 21.5972 -0.00634766 22.3484 -0.00634766C23.0996 -0.00634766 23.8267 0.258825 24.4016 0.742469C24.9946 1.24671 25.2911 1.9734 25.2911 2.92256V5.36069H26.2102C26.5996 5.34602 26.9866 5.42752 27.3369 5.59798C27.6152 5.74042 27.8583 5.94306 28.0485 6.1912C28.2301 6.43467 28.3611 6.712 28.434 7.00688C28.5921 7.59962 28.5921 8.22346 28.434 8.8162C28.3589 9.11483 28.2281 9.3966 28.0485 9.64671C27.8604 9.90266 27.6104 10.1068 27.3221 10.2399C26.9731 10.3973 26.5929 10.4734 26.2102 10.4624H25.2911V12.6573C25.2911 13.4361 24.9819 14.183 24.4314 14.7337C23.8809 15.2844 23.1343 15.5937 22.3558 15.5937C21.5773 15.5937 20.8307 15.2844 20.2802 14.7337C19.7297 14.183 19.4205 13.4361 19.4205 12.6573V2.93739Z" fill="#EA4579"/>
<path d="M30.1836 11.4791C31.5983 10.997 32.8235 10.0778 33.6822 8.85408C34.5342 7.63798 34.9591 5.93247 34.9572 3.73755V3.20366C34.9467 2.77793 35.0382 2.35587 35.224 1.97273C35.3923 1.63961 35.6299 1.34633 35.9208 1.11255C36.214 0.884902 36.5481 0.715735 36.9051 0.61425C37.2757 0.504504 37.6602 0.449543 38.0466 0.451113C38.7861 0.457765 39.5017 0.713804 40.0776 1.17781C40.3731 1.42366 40.6063 1.73582 40.7582 2.08889C40.9102 2.44196 40.9767 2.82595 40.9523 3.20959V3.74349C40.9557 4.56744 40.8962 5.39045 40.7744 6.20535C41.7844 6.32654 42.7668 6.61735 43.6801 7.06552C44.5519 7.50063 45.3126 8.1297 45.9038 8.9045C46.5556 9.77542 47.0245 10.7692 47.2825 11.8261C47.3418 12.0486 47.3952 12.277 47.4396 12.5142C47.5214 12.9289 47.5105 13.3565 47.4077 13.7664C47.3048 14.1763 47.1126 14.5583 46.8449 14.8852C46.5771 15.2121 46.2403 15.4756 45.8587 15.657C45.4772 15.8383 45.0602 15.933 44.6377 15.9342H44.5014C43.8492 15.9277 43.2199 15.6927 42.7231 15.2699C42.2263 14.8472 41.8935 14.2635 41.7825 13.6206C41.484 12.0169 40.6341 11.0678 39.2326 10.7731C38.4316 12.2559 37.3005 13.5346 35.9267 14.5104C34.7147 15.3781 33.3201 15.9564 31.8499 16.2011C31.1928 16.3398 30.5077 16.2344 29.9227 15.9045C29.3848 15.584 28.9835 15.077 28.7949 14.4798C28.6063 13.8826 28.6436 13.237 28.8997 12.6655C29.022 12.3909 29.1988 12.144 29.4195 11.9401C29.6403 11.7361 29.9002 11.5792 30.1836 11.4791ZM35.313 27.852C34.6184 27.8678 33.925 27.788 33.2523 27.6147C32.7641 27.4866 32.3189 27.2307 31.9625 26.8731C31.6274 26.4942 31.3974 26.034 31.2954 25.5384C31.1566 24.8753 31.092 24.1988 31.1027 23.5215V20.4871C31.1027 19.4787 31.4042 18.7371 32.007 18.2626C32.6202 17.7847 33.3795 17.5332 34.1566 17.5507C34.9209 17.5279 35.668 17.7806 36.2617 18.2626C36.8369 18.7371 37.1216 19.4787 37.1216 20.4871V22.5041C37.1216 22.8392 37.172 23.0469 37.2698 23.127C37.4716 23.2277 37.6978 23.2689 37.9221 23.2456H54.0219C54.9331 23.2456 55.5755 23.4779 55.9491 23.9426C56.3159 24.3965 56.5148 24.9633 56.5121 25.547C56.5094 26.1307 56.3053 26.6955 55.9342 27.146C55.5488 27.6087 54.9113 27.8431 54.0219 27.8431L35.313 27.852ZM49.7523 2.93671C49.7523 1.96679 50.0488 1.23713 50.6566 0.74179C51.2428 0.253415 51.9841 -0.00954283 52.7469 0.000264758C53.1259 -0.000585622 53.5022 0.064659 53.8588 0.193064C54.2149 0.313616 54.5427 0.505354 54.8224 0.756622C55.1074 1.01236 55.3348 1.32578 55.4895 1.67612C55.6646 2.07283 55.7506 2.50313 55.7415 2.93671V17.9748C55.7415 18.3683 55.6641 18.7578 55.5136 19.1213C55.3631 19.4847 55.1425 19.815 54.8644 20.0932C54.5863 20.3714 54.2562 20.592 53.8929 20.7426C53.5296 20.8931 53.1402 20.9706 52.7469 20.9706C52.3537 20.9706 51.9643 20.8931 51.6009 20.7426C51.2376 20.592 50.9075 20.3714 50.6294 20.0932C50.3513 19.815 50.1308 19.4847 49.9803 19.1213C49.8298 18.7578 49.7523 18.3683 49.7523 17.9748V2.93671Z" fill="#EA4579"/>
<path d="M75.9028 21.7712C76.2984 21.7593 76.6923 21.83 77.0591 21.9788C77.357 22.1031 77.6211 22.2962 77.83 22.5424C78.0267 22.777 78.1731 23.0496 78.2599 23.3432C78.3477 23.6317 78.3926 23.9315 78.3933 24.2331C78.3939 24.5444 78.349 24.8542 78.2599 25.1525C78.1731 25.4449 78.021 25.7136 77.8152 25.9386C77.5943 26.1742 77.3267 26.3611 77.0294 26.4873C76.672 26.6329 76.2886 26.7036 75.9028 26.6949H60.989C60.0995 26.6949 59.4591 26.4428 59.0618 25.9386C58.6743 25.455 58.4649 24.8528 58.4688 24.2331C58.4695 23.9315 58.5145 23.6317 58.6022 23.3432C58.6908 23.0472 58.8426 22.774 59.047 22.5424C59.2644 22.2991 59.5326 22.1068 59.8327 21.9788C60.1997 21.8306 60.5934 21.7599 60.989 21.7712H75.9028ZM59.1804 8.00847C59.1534 6.85573 59.3812 5.71125 59.8475 4.65678C60.2666 3.74137 60.8965 2.93835 61.6858 2.31356C62.5017 1.68324 63.4336 1.21964 64.4284 0.949156C66.6578 0.35591 69.0035 0.35591 71.233 0.949156C72.2297 1.21457 73.1625 1.67865 73.9755 2.31356C74.7578 2.94162 75.3822 3.74409 75.799 4.65678C76.2653 5.71125 76.4931 6.85573 76.4661 8.00847V10.8559C76.4931 12.0087 76.2653 13.1532 75.799 14.2076C75.3822 15.1203 74.7578 15.9228 73.9755 16.5509C73.1625 17.1858 72.2297 17.6498 71.233 17.9153C69.0035 18.5085 66.6578 18.5085 64.4284 17.9153C63.4336 17.6448 62.5017 17.1812 61.6858 16.5509C60.8965 15.9261 60.2666 15.123 59.8475 14.2076C59.3812 13.1532 59.1534 12.0087 59.1804 10.8559V8.00847ZM64.9917 11.0636C64.9807 11.4814 65.0617 11.8966 65.2289 12.2797C65.3743 12.5979 65.5927 12.8774 65.8664 13.0953C66.1401 13.3067 66.4523 13.4629 66.7855 13.5551C67.1278 13.6529 67.4821 13.7028 67.8381 13.7034C68.1893 13.7036 68.5387 13.6537 68.8758 13.5551C69.2039 13.4611 69.5108 13.305 69.7801 13.0953C70.0566 12.8764 70.2796 12.5975 70.4324 12.2797C70.6108 11.8998 70.6972 11.4831 70.6844 11.0636V7.80085C70.6972 7.3813 70.6108 6.96466 70.4324 6.58475C70.2804 6.26638 70.0572 5.98729 69.7801 5.76907C69.5108 5.55939 69.2039 5.40332 68.8758 5.30932C68.539 5.20929 68.1894 5.15932 67.8381 5.16102C67.482 5.16014 67.1275 5.21007 66.7855 5.30932C66.4523 5.40155 66.1401 5.5577 65.8664 5.76907C65.5921 5.98638 65.3735 6.26601 65.2289 6.58475C65.0617 6.96781 64.9807 7.38299 64.9917 7.80085V11.0636ZM82.4257 27.8517C81.6393 27.8517 80.8852 27.5392 80.3291 26.9829C79.7731 26.4267 79.4607 25.6723 79.4607 24.8856V2.93644C79.4607 1.96653 79.7572 1.23686 80.3502 0.741525C80.9357 0.262007 81.669 0 82.4257 0C83.1823 0 83.9157 0.262007 84.5011 0.741525C85.0941 1.23686 85.3906 1.96653 85.3906 2.93644V24.8856C85.3906 25.6723 85.0783 26.4267 84.5222 26.9829C83.9662 27.5392 83.212 27.8517 82.4257 27.8517Z" fill="#EA4579"/>
<path d="M108.844 21.6534V24.9754C108.844 25.7778 108.525 26.5473 107.958 27.1147C107.391 27.6821 106.622 28.0008 105.819 28.0008C105.017 28.0008 104.248 27.6821 103.681 27.1147C103.114 26.5473 102.795 25.7778 102.795 24.9754V21.6534H94.4252C93.5357 21.6534 92.8982 21.4062 92.5128 20.9118C92.1359 20.4405 91.9319 19.8543 91.9346 19.2508C91.9347 18.9541 91.9796 18.6591 92.068 18.3758C92.1583 18.0881 92.3044 17.821 92.4979 17.5898C92.7076 17.3446 92.9716 17.1516 93.2688 17.0262C93.6358 16.878 94.0295 16.8073 94.4252 16.8186H117.196C117.592 16.8067 117.986 16.8774 118.352 17.0262C118.65 17.1505 118.914 17.3437 119.123 17.5898C119.318 17.8202 119.464 18.0875 119.553 18.3758C119.642 18.6591 119.687 18.9541 119.687 19.2508C119.685 19.8561 119.476 20.4425 119.094 20.9118C118.708 21.4082 118.071 21.6553 117.181 21.6534H108.844ZM112.253 3.08556V3.02624C112.243 2.60338 112.331 2.18391 112.511 1.80123C112.667 1.48073 112.895 1.2013 113.179 0.985556C113.468 0.772257 113.795 0.616205 114.142 0.525809C114.514 0.425302 114.898 0.375418 115.284 0.377504C115.659 0.376386 116.033 0.426276 116.396 0.525809C116.744 0.615012 117.071 0.771169 117.359 0.985556C117.645 1.20234 117.878 1.48123 118.041 1.80123C118.228 2.17853 118.32 2.5962 118.308 3.01734V11.619C118.308 12.0333 118.227 12.4436 118.069 12.8265C117.911 13.2094 117.679 13.5573 117.386 13.8504C117.093 14.1435 116.746 14.376 116.363 14.5347C115.98 14.6933 115.57 14.775 115.156 14.775H97.5769C96.8441 14.792 96.112 14.7173 95.3977 14.5525C94.8923 14.4377 94.4328 14.1743 94.0783 13.7961C93.742 13.393 93.5216 12.906 93.4408 12.3873C93.3223 11.6668 93.2677 10.9372 93.2777 10.2072V3.0292C93.2668 2.60535 93.3551 2.18481 93.5357 1.80123C93.6934 1.478 93.9275 1.19804 94.2176 0.985556C94.5128 0.773622 94.8445 0.617783 95.1961 0.525809C95.5682 0.425302 95.9521 0.375418 96.3376 0.377504C96.7094 0.376394 97.0792 0.431392 97.4346 0.540641C97.7826 0.644455 98.1091 0.810246 98.3982 1.03005C98.689 1.25193 98.927 1.53558 99.095 1.86056C99.2824 2.23786 99.374 2.65552 99.3618 3.07666L112.253 3.08556ZM112.253 9.1364V8.51352C112.253 8.26179 112.154 8.02037 111.976 7.84237C111.798 7.66437 111.556 7.56437 111.305 7.56437H100.305C100.053 7.56437 99.8117 7.66437 99.6338 7.84237C99.4559 8.02037 99.3559 8.26179 99.3559 8.51352V9.16607C99.3401 9.40884 99.4082 9.64967 99.5486 9.84827C99.6452 9.9383 99.7602 10.0062 99.8856 10.0472C100.011 10.0881 100.144 10.1012 100.275 10.0856H111.305C111.429 10.0856 111.553 10.061 111.668 10.0133C111.783 9.96561 111.887 9.89569 111.976 9.80755C112.064 9.71942 112.134 9.61479 112.181 9.49963C112.229 9.38447 112.253 9.26105 112.253 9.1364Z" fill="#EA4579"/>
<path d="M123.778 22.0087C125.697 21.7892 127.155 21.1515 128.151 20.0956C129.148 19.0397 129.755 17.5714 129.975 15.6909H124.164C123.771 15.7032 123.381 15.6272 123.022 15.4685C122.729 15.3296 122.467 15.1329 122.251 14.8901C122.047 14.6585 121.895 14.3852 121.806 14.0892C121.628 13.5094 121.628 12.8894 121.806 12.3096C121.894 12.0165 122.041 11.7441 122.236 11.5087C122.446 11.2566 122.71 11.054 123.007 10.9155C123.372 10.7578 123.766 10.6818 124.164 10.6931H130.093V6.84306C130.102 6.64667 130.033 6.45485 129.901 6.30916C129.83 6.23723 129.744 6.18147 129.649 6.14564C129.554 6.10982 129.453 6.09478 129.352 6.10153H124.371C123.979 6.11383 123.589 6.03781 123.23 5.87908C122.936 5.74022 122.674 5.54348 122.459 5.30069C122.254 5.06907 122.103 4.79583 122.014 4.49984C121.836 3.91998 121.836 3.30004 122.014 2.72018C122.102 2.42705 122.248 2.15467 122.444 1.91933C122.654 1.66718 122.917 1.46461 123.215 1.32611C123.579 1.16835 123.974 1.09241 124.371 1.10365H130.953C131.661 1.09037 132.367 1.16006 133.058 1.31128C133.573 1.41837 134.052 1.65294 134.452 1.99348C134.818 2.32765 135.081 2.76008 135.208 3.23925C135.369 3.85874 135.444 4.49755 135.43 5.13755V13.9765C135.43 16.2505 135.134 18.1884 134.541 19.7901C134.028 21.2603 133.21 22.6049 132.139 23.735C131.164 24.7415 129.98 25.5212 128.67 26.0189C127.36 26.5137 125.978 26.7941 124.579 26.8494C123.844 26.9008 123.11 26.7303 122.474 26.36C122.172 26.1777 121.925 25.9178 121.758 25.6073C121.591 25.2969 121.511 24.9474 121.525 24.5952C121.486 23.9712 121.664 23.3529 122.029 22.8452C122.39 22.3864 122.974 22.1076 123.778 22.0087ZM137.031 2.52145C137.008 2.16808 137.066 1.81401 137.203 1.48716C137.339 1.16031 137.549 0.869615 137.817 0.637976C138.333 0.225203 138.973 0.000301681 139.633 0.000301681C140.293 0.000301681 140.934 0.225203 141.449 0.637976C141.721 0.866931 141.935 1.15677 142.075 1.48401C142.214 1.81124 142.274 2.16666 142.25 2.52145V10.8859H143.732V2.52145C143.708 2.16666 143.768 1.81124 143.908 1.48401C144.047 1.15677 144.261 0.866931 144.533 0.637976C145.052 0.216885 145.703 -0.00877049 146.371 0.000260947C146.704 -0.00105219 147.035 0.0541083 147.35 0.163397C147.661 0.26836 147.948 0.434782 148.195 0.652807C148.444 0.871101 148.646 1.13871 148.788 1.43882C148.943 1.77814 149.019 2.14837 149.01 2.52145V25.2329C149.01 25.9251 148.735 26.5891 148.246 27.0786C147.756 27.5681 147.093 27.8431 146.401 27.8431H146.341C145.649 27.8431 144.986 27.5681 144.496 27.0786C144.007 26.5891 143.732 25.9251 143.732 25.2329V15.7414H142.25V25.2329C142.25 25.9251 141.975 26.5891 141.486 27.0786C140.996 27.5681 140.333 27.8431 139.641 27.8431C138.949 27.8431 138.285 27.5681 137.796 27.0786C137.306 26.5891 137.031 25.9251 137.031 25.2329V2.52145Z" fill="#EA4579"/>
<path d="M176.504 12.4586C176.901 12.4467 177.296 12.5226 177.66 12.6811C177.955 12.8116 178.217 13.0038 178.431 13.2446C178.629 13.4726 178.776 13.7407 178.861 14.0306C178.949 14.3191 178.994 14.6189 178.994 14.9205C178.992 15.5301 178.783 16.1209 178.401 16.5963C178.016 17.1006 177.379 17.3527 176.489 17.3527H153.724C152.835 17.3527 152.197 17.1006 151.812 16.5963C151.43 16.1209 151.221 15.5301 151.219 14.9205C151.219 14.6189 151.264 14.3191 151.352 14.0306C151.438 13.7412 151.585 13.4734 151.782 13.2446C151.997 13.0051 152.26 12.8132 152.553 12.6811C152.918 12.5233 153.312 12.4474 153.709 12.4586H176.504ZM156.698 10.6789C156 10.6938 155.302 10.619 154.623 10.4565C154.129 10.3405 153.677 10.0888 153.318 9.72979C152.984 9.35573 152.754 8.90063 152.651 8.40988C152.51 7.74202 152.446 7.06045 152.458 6.3781V3.14505C152.458 2.13657 152.755 1.40494 153.348 0.950135C153.968 0.490195 154.725 0.250169 155.497 0.267931C156.261 0.246392 157.009 0.487148 157.617 0.950135C158.21 1.40494 158.507 2.13657 158.507 3.14505V5.33996C158.507 5.67513 158.557 5.88276 158.655 5.96284C158.856 6.06458 159.083 6.10579 159.307 6.08149H175.407C176.318 6.08149 176.961 6.31383 177.334 6.77852C177.703 7.23072 177.905 7.79651 177.905 8.38022C177.905 8.96392 177.703 9.52971 177.334 9.98191C176.949 10.4446 176.311 10.6789 175.422 10.6789H156.698ZM156.965 27.8527C156.266 27.8675 155.569 27.7928 154.889 27.6302C154.395 27.5142 153.944 27.2626 153.585 26.9035C153.251 26.5291 153.022 26.0741 152.918 25.5836C152.777 24.9157 152.713 24.2342 152.725 23.5518V21.4459C152.725 20.4374 153.021 19.7048 153.644 19.251C154.271 18.7921 155.032 18.5524 155.809 18.5688C156.572 18.5472 157.32 18.788 157.928 19.251C158.521 19.7058 158.818 20.4374 158.818 21.4459V22.5137C158.818 22.8489 158.868 23.0565 158.966 23.1366C159.168 23.2373 159.394 23.2785 159.618 23.2552H175.6C176.509 23.2552 177.151 23.4876 177.527 23.9522C177.894 24.4062 178.093 24.9729 178.09 25.5566C178.087 26.1403 177.883 26.7052 177.512 27.1556C177.127 27.6184 176.489 27.8527 175.6 27.8527H156.965Z" fill="#EA4579"/>
<path d="M187.089 19.4291C186.735 19.4283 186.397 19.2874 186.146 19.0373C185.896 18.7871 185.756 18.4481 185.755 18.0943V17.6197C185.728 16.6657 185.858 15.7137 186.14 14.8019C186.446 14.0136 187.025 13.3611 187.771 12.963C188.423 12.5675 189.006 12.2116 189.52 11.8952C189.959 11.6333 190.376 11.3357 190.766 11.0053C191.159 10.6779 191.481 10.2743 191.714 9.8189C191.883 9.39989 191.964 8.95059 191.952 8.49899C191.966 8.19064 191.91 7.88306 191.786 7.60013C191.663 7.3172 191.476 7.06654 191.24 6.86763C190.757 6.46922 190.146 6.25858 189.52 6.27441C188.869 6.26399 188.228 6.43333 187.667 6.76382C187.136 7.07384 186.748 7.5796 186.585 8.17271C186.4 8.84198 185.978 9.42148 185.399 9.80407C184.77 10.1936 184.029 10.3607 183.294 10.2786C182.958 10.2576 182.628 10.1825 182.315 10.0562C182.008 9.93301 181.73 9.74599 181.5 9.50746C181.262 9.24845 181.076 8.94644 180.952 8.61763C180.812 8.23855 180.751 7.83469 180.774 7.43119C180.79 6.53477 181.046 5.65904 181.515 4.89517C182.005 4.09724 182.65 3.40623 183.413 2.86339C184.252 2.26678 185.184 1.81096 186.17 1.51382C187.256 1.18206 188.385 1.01705 189.52 1.02441C190.668 1.01407 191.811 1.16889 192.915 1.48415C193.893 1.7586 194.806 2.22772 195.598 2.86339C196.361 3.48989 196.966 4.28763 197.363 5.19178C197.809 6.23579 198.027 7.36364 198 8.49899C198.018 9.38225 197.898 10.2629 197.644 11.1092C197.397 11.8606 197.004 12.5559 196.488 13.1558C195.979 13.7214 195.418 14.2378 194.813 14.6981C194.151 15.2123 193.454 15.7066 192.722 16.1812C192.373 16.3844 192.093 16.6897 191.922 17.0562C191.798 17.3931 191.738 17.7502 191.744 18.1092C191.744 18.4632 191.603 18.8027 191.353 19.053C191.103 19.3033 190.764 19.4439 190.41 19.4439L187.089 19.4291ZM185.577 24.7087C185.556 24.3053 185.619 23.9019 185.762 23.524C185.904 23.1462 186.124 22.8022 186.407 22.5138C186.963 21.9799 187.743 21.713 188.749 21.713C189.758 21.713 190.528 21.9859 191.092 22.5287C191.629 23.1275 191.927 23.9039 191.927 24.7087C191.927 25.5136 191.629 26.29 191.092 26.8888C190.54 27.4316 189.758 27.7045 188.749 27.7045C187.741 27.7045 186.97 27.4375 186.407 26.9037C186.124 26.6153 185.904 26.2713 185.762 25.8934C185.619 25.5156 185.556 25.1122 185.577 24.7087Z" fill="#EA4579"/>
<path d="M96.0083 1.32049C96.0083 1.32049 94.4962 0.810317 94.0129 2.50693C93.7164 3.53913 96.6398 1.68235 96.0083 1.32049Z" fill="#F196B3"/>
<path d="M114.99 1.27898C114.99 1.27898 113.475 0.768813 112.995 2.46542C112.695 3.49763 115.622 1.64085 114.99 1.27898Z" fill="#F196B3"/>
<path d="M124.774 1.88738C124.774 1.88738 123.259 1.37721 122.776 3.07382C122.48 4.10603 125.406 2.24925 124.774 1.88738Z" fill="#F196B3"/>
<path d="M124.351 11.4698C124.168 11.409 123.974 11.388 123.782 11.4085C123.59 11.4289 123.405 11.4903 123.239 11.5884C123.073 11.6865 122.93 11.8191 122.819 11.9772C122.709 12.1353 122.633 12.3153 122.598 12.505C122.337 13.4186 124.905 11.7902 124.351 11.4698Z" fill="#F196B3"/>
<path d="M139.078 0.786133C139.078 0.786133 137.616 0.981895 137.648 2.79715C137.681 4.6124 140.438 0.81876 139.078 0.786133Z" fill="#F196B3"/>
<path d="M145.858 0.712891C145.858 0.712891 144.4 0.905687 144.432 2.72391C144.465 4.54213 147.222 0.745518 145.858 0.712891Z" fill="#F196B3"/>
<path d="M95.0327 17.6222C95.0327 17.6222 93.5176 17.1121 93.0344 18.8087C92.7379 19.8409 95.6643 17.9841 95.0327 17.6222Z" fill="#F196B3"/>
<path d="M129.741 24.2489C129.665 24.249 129.592 24.2244 129.532 24.1789C129.472 24.1333 129.429 24.0693 129.408 23.9967C129.387 23.9084 129.399 23.815 129.443 23.7353C129.487 23.6556 129.559 23.5954 129.646 23.5667C129.942 23.448 131.425 22.3061 132.314 20.4078C132.341 20.3216 132.397 20.2478 132.473 20.1994C132.549 20.151 132.64 20.1313 132.729 20.1438C132.819 20.165 132.897 20.2208 132.946 20.2991C132.995 20.3775 133.011 20.472 132.99 20.562C132.397 23.1455 129.927 24.2044 129.827 24.234C129.799 24.2423 129.77 24.2473 129.741 24.2489Z" fill="#F196B3"/>
<path d="M146.955 26.8825C146.955 26.8825 148.417 26.6868 148.384 24.8715C148.352 23.0562 145.594 26.8499 146.955 26.8825Z" fill="#F196B3"/>
<path d="M115.378 13.7224C115.371 13.7433 115.368 13.7658 115.37 13.788C115.372 13.8102 115.38 13.8316 115.392 13.8504C115.404 13.8691 115.42 13.8848 115.44 13.896C115.459 13.9073 115.481 13.9139 115.503 13.9152C115.899 13.9526 116.296 13.8561 116.631 13.641C116.966 13.4259 117.219 13.1047 117.35 12.7288C117.688 11.8241 115.616 13.1559 115.378 13.7224Z" fill="#F196B3"/>
<path d="M2.87307 1.80144C2.87307 1.80144 1.35797 1.29127 0.874686 2.98788C0.57819 4.02305 3.50461 2.16924 2.87307 1.80144Z" fill="#F196B3"/>
<path d="M22.9458 14.5106C22.9458 14.5106 24.4046 14.3178 24.3719 12.4996C24.3393 10.6813 21.5849 14.478 22.9458 14.5106Z" fill="#F196B3"/>
<path d="M83.1255 26.5882C83.1255 26.5882 84.5842 26.3954 84.5516 24.5772C84.519 22.759 81.7646 26.5556 83.1255 26.5882Z" fill="#F196B3"/>
<path d="M53.4728 19.82C53.4728 19.82 54.9346 19.6243 54.902 17.809C54.8693 15.9937 52.1119 19.7874 53.4728 19.82Z" fill="#F196B3"/>
<path d="M33.0772 14.6328C33.0255 14.6256 32.9776 14.6017 32.9406 14.5648C32.9037 14.5278 32.8798 14.4799 32.8726 14.4282C32.8656 14.3652 32.8829 14.3019 32.9209 14.2512C32.9589 14.2005 33.0148 14.1662 33.0772 14.1553C34.016 13.8835 34.8555 13.3445 35.4936 12.604C35.5796 12.5002 35.6804 12.4142 35.805 12.4616C35.9295 12.5091 36.0422 12.7078 35.9769 12.8265C35.1023 14.4252 33.2195 14.621 33.1454 14.6328H33.0772Z" fill="#F196B3"/>
<path d="M42.2831 7.68C42.2267 7.69054 42.1751 7.71904 42.1361 7.76125C42.0971 7.80347 42.0727 7.85716 42.0667 7.91432C42.0599 7.98445 42.0805 8.05448 42.1242 8.10977C42.1678 8.16505 42.2312 8.2013 42.3009 8.21093C43.2792 8.64037 44.1204 9.33101 44.7322 10.2071C44.7652 10.2667 44.8177 10.313 44.8809 10.3384C44.9441 10.3638 45.0141 10.3667 45.0791 10.3465C45.1431 10.3185 45.1936 10.2664 45.2197 10.2015C45.2457 10.1366 45.2453 10.0641 45.2185 9.99949C44.4268 8.15161 42.4344 7.69483 42.3573 7.68593C42.3329 7.68085 42.308 7.67886 42.2831 7.68Z" fill="#F196B3"/>
<path d="M37.9575 1.66814C37.9575 1.66814 36.4454 1.15797 35.9621 2.85458C35.6656 3.87789 38.5891 2.03001 37.9575 1.66814Z" fill="#F196B3"/>
<path d="M33.9755 18.6493C33.9755 18.6493 32.4604 18.1421 31.9801 19.8357C31.6806 20.8679 34.607 19.0052 33.9755 18.6493Z" fill="#F196B3"/>
<path d="M55.3735 25.9187C55.7115 25.0289 53.639 26.3606 53.4018 26.9272C53.3944 26.9479 53.3919 26.97 53.3946 26.9919C53.3972 27.0137 53.4048 27.0347 53.4169 27.0531C53.429 27.0714 53.4451 27.0868 53.4641 27.0979C53.4831 27.109 53.5044 27.1155 53.5263 27.117C53.9225 27.1544 54.3198 27.0579 54.6547 26.8428C54.9895 26.6277 55.2426 26.3065 55.3735 25.9306" fill="#F196B3"/>
<path d="M77.2046 24.551C77.5426 23.6611 75.4701 24.9929 75.2329 25.5624C75.2255 25.5831 75.223 25.6053 75.2256 25.6271C75.2282 25.649 75.2359 25.6699 75.2479 25.6883C75.26 25.7067 75.2762 25.722 75.2952 25.7331C75.3141 25.7442 75.3355 25.7508 75.3574 25.7522C75.7554 25.7887 76.1541 25.69 76.4892 25.4721C76.8243 25.2542 77.0763 24.9297 77.2046 24.551Z" fill="#F196B3"/>
<path d="M23.5623 22.0593C24.1198 23.4178 23.6661 25.0699 22.3289 25.7758C21.6357 26.1078 20.8734 26.2695 20.1052 26.2474C19.8087 26.2267 19.5122 26.2118 19.2157 26.1792C19.202 26.1777 19.1888 26.1736 19.1768 26.1669C19.1647 26.1603 19.1541 26.1514 19.1456 26.1406C19.137 26.1298 19.1307 26.1175 19.127 26.1043C19.1232 26.091 19.1221 26.0772 19.1238 26.0635C19.1265 26.0388 19.1377 26.0158 19.1556 25.9984C19.1735 25.9811 19.1968 25.9706 19.2216 25.9686C21.733 25.7907 23.5712 24.9987 23.2658 22.1305C23.2564 22.0912 23.263 22.0497 23.2841 22.0152C23.3052 21.9807 23.3392 21.956 23.3785 21.9466C23.4178 21.9372 23.4593 21.9437 23.4938 21.9649C23.5282 21.986 23.5529 22.02 23.5623 22.0593Z" fill="#F196B3"/>
<path d="M178.268 15.4928C178.612 14.5822 176.489 15.9436 176.255 16.522C176.247 16.5433 176.244 16.5661 176.247 16.5887C176.249 16.6113 176.257 16.633 176.27 16.652C176.282 16.6711 176.299 16.6869 176.318 16.6983C176.338 16.7098 176.36 16.7164 176.383 16.7178C176.789 16.7575 177.197 16.658 177.54 16.4354C177.882 16.2128 178.139 15.8805 178.268 15.4928Z" fill="#F196B3"/>
<path d="M175.351 26.965C175.344 26.9859 175.341 27.0082 175.344 27.0302C175.346 27.0522 175.354 27.0733 175.366 27.0919C175.378 27.1105 175.394 27.1261 175.413 27.1375C175.432 27.149 175.453 27.1559 175.475 27.1578C175.874 27.1948 176.274 27.096 176.61 26.8774C176.946 26.6589 177.198 26.3334 177.326 25.9536C177.664 25.0608 175.588 26.3955 175.351 26.965Z" fill="#F196B3"/>
<path d="M177.165 8.72958C177.512 7.81898 175.386 9.18042 175.155 9.75881C175.147 9.78011 175.144 9.80296 175.147 9.82554C175.149 9.84812 175.157 9.8698 175.17 9.88883C175.182 9.90787 175.199 9.92373 175.218 9.93515C175.238 9.94657 175.26 9.95322 175.283 9.95458C175.689 9.99418 176.096 9.89451 176.438 9.67193C176.781 9.44934 177.037 9.11706 177.165 8.72958Z" fill="#F196B3"/>
<path d="M154.839 0.741699C154.839 0.741699 153.315 0.946364 153.357 2.84467C153.398 4.74297 156.262 0.777292 154.839 0.741699Z" fill="#F196B3"/>
<path d="M191.16 24.896C191.16 24.9909 191.207 26.6074 189.449 26.6756C187.691 26.7439 191.278 23.84 191.16 24.896Z" fill="#F196B3"/>
<path d="M196.384 6.86397C197.404 9.23685 196.434 12.203 194.175 13.4635C194.123 13.4958 194.061 13.5065 194.002 13.4931C193.942 13.4798 193.891 13.4436 193.858 13.3924C193.831 13.3444 193.822 13.2886 193.831 13.2345C193.841 13.1804 193.869 13.1314 193.911 13.0957C195.738 11.6513 196.381 9.25761 195.948 7.02117C195.935 6.96521 195.943 6.90635 195.971 6.85606C195.999 6.80577 196.044 6.76765 196.099 6.74914C196.153 6.73063 196.213 6.73304 196.265 6.75592C196.318 6.77879 196.36 6.82048 196.384 6.87287V6.86397Z" fill="#F196B3"/>
<path d="M81.8475 0.884277C81.8475 0.884277 80.3888 1.08004 80.4184 2.89826C80.4481 4.71648 83.2084 0.910972 81.8475 0.884277Z" fill="#F196B3"/>
<path d="M21.7836 0.750977C21.7836 0.750977 20.3249 0.946739 20.3575 2.76199C20.3901 4.57725 23.1564 0.783604 21.7836 0.750977Z" fill="#F196B3"/>
<path d="M52.0263 0.881836C52.0263 0.881836 50.5675 1.07463 50.6001 2.89285C50.6328 4.71107 53.3991 0.911497 52.0263 0.881836Z" fill="#F196B3"/>
<path d="M14.5108 13.8254C14.5028 13.8463 14.4999 13.8687 14.5022 13.8909C14.5046 13.9132 14.5121 13.9345 14.5242 13.9533C14.5364 13.9721 14.5527 13.9877 14.572 13.999C14.5913 14.0103 14.613 14.0168 14.6353 14.0182C15.0333 14.0546 15.432 13.9559 15.7672 13.738C16.1023 13.5201 16.3542 13.1956 16.4825 12.8169C16.8205 11.9241 14.748 13.2588 14.5108 13.8254Z" fill="#F196B3"/>
<path d="M74.5599 7.08421C75.2596 9.67955 75.3575 13.6956 72.9588 15.4575C72.9279 15.4781 72.8904 15.4863 72.8537 15.4805C72.817 15.4747 72.7838 15.4554 72.7607 15.4263C72.7376 15.3972 72.7262 15.3605 72.7289 15.3234C72.7315 15.2864 72.748 15.2517 72.775 15.2262C74.7022 13.1499 74.3435 9.77446 74.2575 7.14056C74.25 7.10123 74.2585 7.06054 74.281 7.02744C74.3035 6.99435 74.3382 6.97155 74.3776 6.96408C74.4169 6.95661 74.4576 6.96506 74.4906 6.98759C74.5237 7.01012 74.5465 7.04487 74.554 7.08421H74.5599Z" fill="#F196B3"/>
</g>
<defs>
<clipPath id="clip0_3887_85840">
<rect width="198" height="28" fill="white"/>
</clipPath>
</defs>
</svg>
