<svg viewBox="0 0 360 106" fill="none" xmlns="http://www.w3.org/2000/svg">
<g opacity="0.2" filter="url(#filter0_f_3218_67056)">
<path fill-rule="evenodd" clip-rule="evenodd" d="M352.245 82.0549C352.623 82.3446 353.164 82.2734 353.454 81.8958C353.744 81.5182 353.672 80.9771 353.295 80.6874L352.884 80.3725L353.269 79.8708C353.559 79.4932 353.488 78.9522 353.11 78.6624C352.733 78.3726 352.192 78.4439 351.902 78.8215L351.517 79.3232L351.016 78.9385C350.638 78.6487 350.097 78.72 349.807 79.0976C349.517 79.4752 349.589 80.0162 349.966 80.306L350.468 80.6907L350.153 81.1006C349.863 81.4783 349.935 82.0193 350.312 82.309C350.69 82.5988 351.231 82.5276 351.521 82.15L351.835 81.74L352.245 82.0549Z" fill="#D2D628" fill-opacity="0.5"/>
</g>
<g opacity="0.2" filter="url(#filter1_f_3218_67056)">
<path fill-rule="evenodd" clip-rule="evenodd" d="M234.384 88.4682C234.021 88.197 233.954 87.6887 234.234 87.3329L235.907 85.2082C236.187 84.8524 236.708 84.7839 237.07 85.0551C237.377 85.2849 237.472 85.6849 237.324 86.0181C237.554 85.9686 237.804 86.0146 238.004 86.1649C238.077 86.2193 238.138 86.2832 238.186 86.3536L238.309 86.1979C238.589 85.8421 239.11 85.7736 239.472 86.0448C239.835 86.316 239.902 86.8243 239.622 87.18L237.95 89.3048C237.67 89.6605 237.149 89.7291 236.786 89.4579C236.713 89.4035 236.653 89.3395 236.604 89.2692L236.146 89.8516C235.866 90.2073 235.345 90.2759 234.982 90.0047C234.62 89.7334 234.553 89.2252 234.833 88.8694L235.028 88.622C234.808 88.6592 234.574 88.6105 234.384 88.4682Z" fill="#2C8867" fill-opacity="0.5"/>
</g>
<g opacity="0.2" filter="url(#filter2_f_3218_67056)">
<path fill-rule="evenodd" clip-rule="evenodd" d="M19.8759 3.29884C19.8759 2.85334 20.2371 2.49219 20.6826 2.49219H23.4819C23.9274 2.49219 24.2886 2.85334 24.2886 3.29884C24.2886 3.6793 24.0252 3.99823 23.6708 4.08326C23.8442 4.23122 23.9542 4.45137 23.9542 4.69722C23.9542 4.7865 23.9397 4.87239 23.9129 4.95267H24.1384C24.5839 4.95267 24.945 5.31381 24.945 5.75931C24.945 6.2048 24.5839 6.56595 24.1384 6.56595H21.339C20.8935 6.56595 20.5324 6.2048 20.5324 5.75931C20.5324 5.67003 20.5469 5.58415 20.5736 5.50388H19.7966C19.3511 5.50388 18.99 5.14272 18.99 4.69722C18.99 4.25172 19.3511 3.89056 19.7966 3.89056H20.1343C19.9754 3.74323 19.8759 3.53266 19.8759 3.29884Z" fill="#2C8867" fill-opacity="0.5"/>
</g>
<path opacity="0.5" fill-rule="evenodd" clip-rule="evenodd" d="M272.022 55.0936C272.19 54.8745 272.504 54.8332 272.723 55.0013L273.487 55.5871L273.511 54.9616C273.522 54.6857 273.744 54.3957 274.008 54.3139C274.272 54.2321 274.477 54.3895 274.466 54.6654L274.418 55.9031L275.601 55.5361C275.865 55.4543 276.07 55.6116 276.06 55.8876C276.049 56.1635 275.826 56.4535 275.563 56.5353L274.964 56.7209L275.726 57.3055C275.945 57.4736 275.986 57.7875 275.818 58.0065C275.65 58.2256 275.336 58.2669 275.117 58.0988L274.355 57.514L274.331 58.1396C274.32 58.4156 274.097 58.7056 273.834 58.7874C273.57 58.8692 273.365 58.7118 273.376 58.4359L273.424 57.1986L272.242 57.5652C271.978 57.647 271.773 57.4897 271.784 57.2137C271.794 56.9378 272.017 56.6478 272.281 56.566L272.878 56.3807L272.115 55.7947C271.895 55.6266 271.854 55.3127 272.022 55.0936Z" fill="white" fill-opacity="0.5"/>
<g clip-path="url(#clip0_3218_67056)">
<path d="M298.754 51.8865C298.513 51.8853 298.275 51.8255 298.062 51.7121C297.724 51.5277 297.472 51.2164 297.363 50.8467C297.254 50.477 297.297 50.0791 297.481 49.7406L318.37 11.3111C318.459 11.1384 318.581 10.9852 318.729 10.8604C318.878 10.7357 319.05 10.6419 319.235 10.5847C319.421 10.5275 319.616 10.5079 319.809 10.5272C320.002 10.5465 320.189 10.6042 320.36 10.697C320.53 10.7898 320.68 10.9157 320.801 11.0674C320.922 11.219 321.011 11.3934 321.064 11.5801C321.116 11.7669 321.131 11.9623 321.107 12.1548C321.083 12.3473 321.02 12.533 320.923 12.701L300.034 51.1596C299.904 51.3828 299.717 51.5676 299.492 51.6953C299.267 51.8229 299.013 51.8889 298.754 51.8865Z" fill="#9B5100"/>
<path d="M224.565 49.1588C224.612 49.0893 224.637 49.0072 224.637 48.9232C224.637 48.8392 224.612 48.7571 224.565 48.6877C223.937 47.827 223.303 44.2853 223.983 40.604C224.71 36.7192 229.927 32.6832 230.962 32.0609C231.004 32.0377 231.037 32.0007 231.055 31.9563C231.073 31.9118 231.075 31.8625 231.061 31.8166C230.735 30.6942 228.926 23.9365 231.107 20.0575C233.224 16.289 238.668 13.4161 239.697 13.2765C239.807 13.2765 239.575 13.4684 239.569 13.3579C239.569 12.1948 241.639 8.36231 244.274 5.96628C246.908 3.57025 253.032 4.16925 254.102 4.50656C254.142 4.51989 254.185 4.52093 254.225 4.50952C254.266 4.49811 254.302 4.47479 254.329 4.4426C254.945 3.70401 260.209 0.778757 264.553 1.0172C264.687 1.0172 270.211 0.831105 273.939 2.86075C277.429 4.76245 280.197 10.642 280.581 11.4969C280.595 11.5287 280.616 11.5565 280.644 11.5778C280.671 11.5991 280.703 11.6133 280.738 11.619C283.348 11.5672 285.896 12.4199 287.949 14.0325C291.508 16.8589 291.909 22.6222 292.066 23.3084C292.072 23.3345 292.082 23.3593 292.097 23.3813C292.112 23.4032 292.131 23.422 292.154 23.4363C292.689 23.7853 293.084 24.8205 295.335 27.8097C297.492 30.6651 295.719 35.5619 295.55 36.5331C295.541 36.5861 295.552 36.6405 295.581 36.6857C295.61 36.7309 295.655 36.7636 295.707 36.7773C296.289 36.9227 297.952 37.6031 299.685 40.5807C301.592 43.8607 299.231 48.8273 299.039 49.7636C299.03 49.8091 299.036 49.8563 299.056 49.8983C299.076 49.9402 299.109 49.9745 299.15 49.9962C299.621 50.2521 301.11 51.1186 301.72 52.1712C302.447 53.4274 299.72 56.5911 299.574 58.33C299.487 59.3709 298.952 59.6094 298.539 59.6327C298.483 59.6369 298.429 59.6533 298.38 59.6806C298.332 59.708 298.289 59.7458 298.257 59.7912C298.224 59.8367 298.202 59.8887 298.191 59.9437C298.181 59.9987 298.182 60.0553 298.196 60.1095C298.325 60.5074 298.347 60.9323 298.258 61.3411C298.169 61.7498 297.973 62.1276 297.69 62.4358C297.05 63.1046 296.015 62.9476 295.224 62.4707C294.945 62.302 294.811 62.7556 294.486 62.7615C293.997 62.7615 294.433 62.7615 294.334 62.7615C294.334 62.7615 293.916 62.7905 293.328 62.0868C293.235 61.9705 293.387 62.0519 293.328 62.1799L292.165 64.0641C292.122 64.14 292.104 64.2274 292.113 64.3142C292.363 66.9719 287.46 80.5223 285.931 81.2434C284.186 82.0402 271.566 81.9646 270.81 81.3016C270.229 80.7898 272.555 77.0271 272.27 74.7125C272.265 74.6781 272.252 74.6454 272.233 74.6169C272.213 74.5884 272.186 74.565 272.156 74.5486C272.125 74.5322 272.091 74.5232 272.056 74.5224C272.022 74.5215 271.987 74.5289 271.956 74.5439C271.38 74.745 270.775 74.8491 270.165 74.8521H269.159C268.811 74.781 268.473 74.6677 268.153 74.5148C268.246 75.8 269.897 79.1673 268.827 80.2257C267.664 81.3888 244.948 82.6799 243.89 80.9585C241.755 77.9989 240.044 74.7553 238.807 71.322C238.761 71.1883 236.37 64.7329 236.231 64.7678C235.952 64.8376 233.544 67.7919 231.526 67.0941C231.061 66.937 230.694 65.8321 230.491 65.0819C230.479 65.047 230.457 65.0166 230.427 64.995C230.398 64.9735 230.362 64.9619 230.325 64.9619C230.288 64.9619 230.252 64.9735 230.223 64.995C230.193 65.0166 230.171 65.047 230.159 65.0819C229.752 66.1171 228.682 67.1464 227.542 66.9836C226.798 66.8789 226.478 65.8204 226.344 64.8202C226.333 64.7443 226.3 64.6733 226.249 64.6159C226.198 64.5584 226.132 64.517 226.058 64.4967C225.984 64.4763 225.906 64.4779 225.833 64.5013C225.76 64.5247 225.695 64.5688 225.646 64.6283C225.46 64.8857 225.224 65.1035 224.952 65.2692C224.681 65.4349 224.379 65.5452 224.065 65.5937C222.174 65.8902 222.75 64.1572 222.116 59.3884C221.482 54.6196 223.797 50.4091 224.565 49.1588Z" fill="#F5BB4B"/>
<path d="M278.836 42.3896C283.371 42.3896 287.047 38.7131 287.047 34.1779C287.047 29.6428 283.371 25.9663 278.836 25.9663C274.301 25.9663 270.624 29.6428 270.624 34.1779C270.624 38.7131 274.301 42.3896 278.836 42.3896Z" fill="white"/>
<path d="M281.249 38.0804C283.225 38.0804 284.826 36.4791 284.826 34.5038C284.826 32.5285 283.225 30.9272 281.249 30.9272C279.274 30.9272 277.673 32.5285 277.673 34.5038C277.673 36.4791 279.274 38.0804 281.249 38.0804Z" fill="#040000"/>
<path d="M263.25 42.814C267.727 42.814 271.357 39.1844 271.357 34.707C271.357 30.2297 267.727 26.6001 263.25 26.6001C258.773 26.6001 255.143 30.2297 255.143 34.707C255.143 39.1844 258.773 42.814 263.25 42.814Z" fill="white"/>
<path d="M265.192 38.7723C267.168 38.7723 268.769 37.171 268.769 35.1957C268.769 33.2204 267.168 31.6191 265.192 31.6191C263.217 31.6191 261.616 33.2204 261.616 35.1957C261.616 37.171 263.217 38.7723 265.192 38.7723Z" fill="#040000"/>
<path d="M273.84 41.5288L268.949 41.6742C268.949 41.6742 268.187 47.6817 271.898 47.0362C275.608 46.3907 273.84 41.5288 273.84 41.5288Z" fill="#040000"/>
<path d="M268.944 44.0005C269.337 43.6905 269.813 43.5023 270.312 43.4589C270.811 43.4155 271.311 43.5188 271.753 43.7562C273.148 44.396 273.305 45.5009 273.003 46.6641C272.663 46.8644 272.288 46.9986 271.898 47.0595C269.781 47.4085 269.124 45.6114 268.944 44.0005Z" fill="#D05E53"/>
<path d="M240.023 52.2646C240.023 52.2646 241.476 57.1498 242.273 68.1296C242.273 68.1296 247.647 79.5573 252.689 81.5695C248.659 81.9068 244.291 81.6276 243.878 80.9588C243.111 79.7085 240.255 75.5213 238.795 71.3224C238.749 71.1886 236.696 66.0883 236.556 66.0883C236.556 66.0883 238.231 67.141 238.574 63.4015C238.918 59.6621 240.023 52.2646 240.023 52.2646Z" fill="#E9AA3E"/>
<path d="M278.219 81.831C274.84 81.7787 271.124 81.6275 270.81 81.296C269.153 79.5513 270.81 78.5277 270.81 76.1957C270.81 75.8584 270.944 74.7825 270.81 74.8523L280.22 70.1475C280.22 70.1475 277.173 77.1436 278.219 81.831Z" fill="#E9AA3E"/>
<g opacity="0.2">
<path opacity="0.2" d="M233.864 20.5462C234.358 21.401 237.795 20.6392 239.47 19.6738C241.145 18.7084 242.104 17.2254 241.61 16.3706C241.116 15.5157 239.36 15.6029 237.679 16.5741C235.998 17.5453 233.393 19.6854 233.864 20.5462Z" fill="white"/>
</g>
<path d="M281.249 34.5036C281.439 34.5036 281.592 34.35 281.592 34.1605C281.592 33.971 281.439 33.8174 281.249 33.8174C281.06 33.8174 280.906 33.971 280.906 34.1605C280.906 34.35 281.06 34.5036 281.249 34.5036Z" fill="white"/>
<path d="M265.483 35.4226C265.673 35.4226 265.826 35.2689 265.826 35.0794C265.826 34.8899 265.673 34.7363 265.483 34.7363C265.294 34.7363 265.14 34.8899 265.14 35.0794C265.14 35.2689 265.294 35.4226 265.483 35.4226Z" fill="white"/>
<path d="M321.15 12.9338L334.753 31.1773C334.834 31.2853 334.883 31.4138 334.895 31.5482C334.907 31.6827 334.882 31.8179 334.822 31.9386C334.761 32.0594 334.668 32.1609 334.553 32.2319C334.439 32.3029 334.306 32.3405 334.171 32.3405L310.793 31.9043C310.663 31.906 310.536 31.8732 310.424 31.8092C310.311 31.7453 310.218 31.6526 310.153 31.5406C310.089 31.4286 310.055 31.3014 310.056 31.1721C310.057 31.0429 310.092 30.9162 310.159 30.8051L319.935 12.9919C319.996 12.8878 320.082 12.8006 320.185 12.7381C320.289 12.6756 320.406 12.6399 320.527 12.6341C320.647 12.6284 320.768 12.6527 320.876 12.7051C320.985 12.7574 321.079 12.836 321.15 12.9338Z" fill="white"/>
</g>
<g clip-path="url(#clip1_3218_67056)">
<path d="M204.128 40.4397C202 36.7526 202.709 33.9902 199.714 30.6055C199.62 30.4992 199.51 30.4071 199.389 30.3322C198.467 29.7698 197.511 29.2649 196.527 28.8201C192.294 27.3372 189.741 27.657 185.251 27.657C180.761 27.657 178.028 26.2729 172.573 28.1571L172.416 28.2211C172.067 28.3781 171.73 28.5468 171.392 28.7213C170.962 28.9422 170.537 29.1691 170.125 29.4133C170.074 29.4429 170.025 29.4759 169.979 29.5122C166.449 32.1176 166.147 34.2926 164.652 38.2356C163.059 42.4519 161.576 46.6449 161.163 50.9601C161.134 51.322 161.134 51.6857 161.163 52.0476C161.913 63.958 170.945 67.331 184.53 67.331C196.51 67.331 201.476 67.4066 205.664 60.4977C206.102 59.7766 206.532 58.9779 206.955 58.1017C207.352 57.284 207.576 56.393 207.612 55.4847C207.885 48.6571 206.338 44.2605 204.128 40.4397Z" fill="#709BD1"/>
<path d="M189.403 62.1437C175.818 62.1437 166.786 58.7706 166.036 46.8603C166.007 46.4983 166.007 46.1347 166.036 45.7727C166.455 41.4576 167.938 37.2645 169.526 33.0482C170.206 31.2512 170.636 29.8205 171.27 28.5527C170.84 28.7737 170.415 29.0005 170.002 29.2448C169.952 29.2744 169.903 29.3074 169.857 29.3437C166.327 31.9491 166.025 34.1241 164.53 38.0671C162.936 42.2834 161.454 46.4764 161.041 50.7916C161.012 51.1535 161.012 51.5172 161.041 51.8791C161.756 63.7779 170.793 67.1742 184.379 67.1742C196.359 67.1742 201.325 67.2498 205.513 60.3408C201.948 62.1727 197.132 62.1437 189.403 62.1437Z" fill="#5A80A5"/>
<path d="M207.461 55.3219C207.746 48.4711 206.199 44.0804 203.972 40.2595C201.843 36.5724 202.552 33.81 199.557 30.4253C199.463 30.319 199.353 30.2269 199.232 30.152C198.31 29.5897 197.354 29.0847 196.371 28.6399C192.137 27.157 189.584 27.4768 185.094 27.4768C180.604 27.4768 177.871 26.0927 172.416 27.977L172.259 28.0409C171.91 28.198 171.573 28.3666 171.235 28.5411C170.654 29.8089 170.2 31.2395 169.491 33.0366C167.897 37.2529 166.414 41.4459 166.001 45.7611C165.972 46.123 165.972 46.4867 166.001 46.8486C166.752 58.759 175.783 62.132 189.369 62.132C197.103 62.132 201.913 62.1611 205.478 60.3233C205.916 59.6022 206.346 58.8035 206.769 57.9273C207.179 57.1168 207.415 56.2292 207.461 55.3219Z" fill="#709BD1"/>
<path d="M186.894 42.8833C187.019 42.0707 186.578 41.3283 185.908 41.2252C185.238 41.1221 184.594 41.6973 184.469 42.51C184.344 43.3226 184.785 44.065 185.455 44.1681C186.125 44.2712 186.769 43.696 186.894 42.8833Z" fill="#222222"/>
<path d="M198.479 43.0444C198.607 42.2127 198.158 41.4533 197.475 41.3482C196.793 41.2432 196.136 41.8323 196.008 42.664C195.88 43.4957 196.329 44.2551 197.012 44.3601C197.694 44.4652 198.351 43.8761 198.479 43.0444Z" fill="#222222"/>
<path d="M188.74 46.139C189.363 45.7319 190.072 46.139 191.142 46.1971C192.212 46.2553 194.137 45.412 194.94 46.0169C195.742 46.6217 195.742 50.2099 191.834 50.6693C187.926 51.1288 187.228 48.5292 187.839 47.0927C188.124 46.4065 188.374 46.3774 188.74 46.139Z" fill="#2F4564"/>
<path d="M191.008 48.506C190.504 48.4946 190.006 48.6268 189.574 48.8873C189.141 49.1478 188.792 49.5258 188.566 49.9774C189.223 50.5008 190.27 50.809 191.834 50.6403C192.781 50.578 193.679 50.1967 194.381 49.5586C193.418 48.818 192.222 48.4448 191.008 48.506Z" fill="#D05E53"/>
<g opacity="0.2">
<path opacity="0.2" d="M198.282 32.5726C198.634 31.9634 197.952 30.9111 196.758 30.2221C195.565 29.5332 194.312 29.4685 193.961 30.0777C193.609 30.6868 194.291 31.7392 195.485 32.4281C196.678 33.1171 197.93 33.1817 198.282 32.5726Z" fill="white"/>
</g>
</g>
<g clip-path="url(#clip2_3218_67056)">
<path d="M120.025 68.0847C122.366 68.4445 124.746 68.4622 127.091 68.137C127.209 68.1202 127.33 68.13 127.444 68.1658C127.557 68.2016 127.662 68.2626 127.749 68.344C127.836 68.4255 127.903 68.5255 127.947 68.6367C127.99 68.7478 128.008 68.8672 127.999 68.9861C127.911 70.2306 127.865 71.039 127.882 71.1088C127.894 71.7846 128.064 72.4481 128.381 73.0453C128.697 73.6426 129.15 74.1567 129.703 74.5458C131.552 75.8369 133.314 77.4187 133.413 78.9482C133.413 79.146 133.413 79.3263 133.413 79.4949C133.409 79.6881 133.366 79.8784 133.284 80.0534C133.202 80.2285 133.084 80.3844 132.939 80.5111C132.793 80.6377 132.622 80.7323 132.437 80.7887C132.252 80.8451 132.058 80.862 131.866 80.8383L120.281 79.4716C119.949 79.4391 119.642 79.2793 119.426 79.0255C119.209 78.7718 119.099 78.444 119.118 78.1108L119.764 68.0498L120.025 68.0847Z" fill="#D9E37A"/>
<path d="M119.816 68.0498L120.025 68.0847C122.693 68.4956 125.411 68.4602 128.068 67.98C127.94 69.777 127.865 71.0157 127.882 71.103C127.9 71.1902 127.911 71.3472 127.934 71.5566C125.181 72.1021 122.354 72.1709 119.577 71.7601L119.816 68.0498Z" fill="#C7CB71"/>
<path d="M116.17 74.5694C116.036 74.4589 117.24 70.8939 118.031 68.7014C118.275 68.0326 117.618 67.3173 116.751 67.3057C114.712 67.2906 112.676 67.1391 110.656 66.8521C110.388 66.7897 110.107 66.8244 109.862 66.95C109.617 67.0757 109.424 67.2841 109.319 67.5383L106.3 77.0875C106.272 77.242 106.277 77.4006 106.313 77.5532C106.35 77.7059 106.418 77.8492 106.514 77.974C106.609 78.0988 106.729 78.2023 106.867 78.278C107.004 78.3537 107.156 78.3998 107.312 78.4135L118.362 80.8967C118.647 80.9788 118.953 80.9486 119.217 80.8124C119.481 80.6761 119.683 80.4441 119.781 80.164C119.847 79.9058 119.822 79.6327 119.711 79.3905C118.635 77.7091 117.452 76.0988 116.17 74.5694Z" fill="#D9E37A"/>
<path d="M108.615 69.8237C111.513 70.3411 114.454 70.569 117.397 70.5041C117.699 69.6085 118.1 68.4977 118.56 67.2881C115.559 67.3971 112.554 67.2023 109.592 66.7065L108.615 69.8237Z" fill="#C7CB71"/>
<path d="M93.8261 50.4984C93.1107 47.9105 93.134 45.2644 93.134 42.3566C93.134 27.4977 104.259 15.1977 118.193 15.0232C132.372 14.8313 143.922 27.0266 143.922 42.0949C143.922 45.4621 143.922 48.2652 142.846 51.237C143.538 53.0313 143.931 54.9272 144.009 56.849C144.009 60.92 139.938 64.0313 137.03 64.6129L132.378 65.776C128.563 68.2127 125.12 69.1723 120.351 69.1723C115.582 69.1723 109.301 67.7708 105.486 65.3282H98.1645C95.7859 65.2817 92.0116 62.2866 92.0116 58.2448C92.0116 55.872 92.0523 53.4586 93.4364 52.0454C93.6301 51.8435 93.7679 51.5947 93.8362 51.3235C93.9045 51.0523 93.901 50.7679 93.8261 50.4984Z" fill="#D9E37A"/>
<path d="M93.4248 52.0279C93.6175 51.829 93.7553 51.5835 93.8246 51.3154C93.8939 51.0473 93.8924 50.7658 93.8203 50.4984C93.105 47.9104 93.1282 45.2644 93.1282 42.3565C93.0902 35.0239 95.8912 27.961 100.944 22.6475C97.5716 27.8784 95.7749 33.9692 95.7685 40.1931C95.7685 43.7174 95.7394 46.9683 96.7048 50.1204C96.8016 50.4503 96.8028 50.8009 96.7081 51.1314C96.6133 51.4619 96.4267 51.7587 96.1698 51.9872C94.2972 53.7319 94.239 56.6397 94.239 59.5475C94.2829 61.5198 95.0461 63.4081 96.385 64.8571C94.2623 63.8627 92 61.3678 92 58.239C92.0233 55.8546 92.0232 53.4469 93.4248 52.0279Z" fill="#C7CB71"/>
<g opacity="0.5">
<path opacity="0.5" d="M136.302 46.7476C137.616 46.5965 138.647 46.1713 138.604 45.798C138.561 45.4246 137.461 45.2445 136.146 45.3957C134.832 45.5469 133.801 45.9721 133.844 46.3454C133.887 46.7187 134.987 46.8988 136.302 46.7476Z" fill="#E44C6C"/>
</g>
<g opacity="0.5">
<path opacity="0.5" d="M114.566 47.5162C115.881 47.365 116.912 46.9398 116.869 46.5665C116.826 46.1932 115.725 46.0131 114.411 46.1643C113.096 46.3154 112.065 46.7406 112.108 47.114C112.151 47.4873 113.252 47.6674 114.566 47.5162Z" fill="#E44C6C"/>
</g>
<path d="M130.139 43.9616C132.747 43.9616 134.861 41.8474 134.861 39.2394C134.861 36.6313 132.747 34.5171 130.139 34.5171C127.531 34.5171 125.417 36.6313 125.417 39.2394C125.417 41.8474 127.531 43.9616 130.139 43.9616Z" fill="white"/>
<path d="M130.773 41.8563C132.372 41.8563 133.669 40.5596 133.669 38.9601C133.669 37.3606 132.372 36.064 130.773 36.064C129.173 36.064 127.876 37.3606 127.876 38.9601C127.876 40.5596 129.173 41.8563 130.773 41.8563Z" fill="#040000"/>
<path d="M116.745 44.3923C119.354 44.3923 121.468 42.2781 121.468 39.67C121.468 37.062 119.354 34.9478 116.745 34.9478C114.137 34.9478 112.023 37.062 112.023 39.67C112.023 42.2781 114.137 44.3923 116.745 44.3923Z" fill="white"/>
<path d="M117.606 42.4149C119.206 42.4149 120.502 41.1182 120.502 39.5187C120.502 37.9192 119.206 36.6226 117.606 36.6226C116.007 36.6226 114.71 37.9192 114.71 39.5187C114.71 41.1182 116.007 42.4149 117.606 42.4149Z" fill="#040000"/>
<g opacity="0.2">
<path opacity="0.2" d="M131.7 22.3158C132.055 21.5993 130.82 20.2632 128.941 19.3317C127.062 18.4001 125.25 18.2258 124.895 18.9423C124.54 19.6589 125.775 20.9949 127.654 21.9265C129.533 22.8581 131.345 23.0324 131.7 22.3158Z" fill="white"/>
</g>
<path d="M118.618 46.8344C119.781 44.2058 129.028 43.3451 129.813 45.4852C130.458 47.2299 129.324 49.3526 127.801 50.8414C127.219 49.5503 126.108 47.8812 124.213 48.0499C122.317 48.2185 121.252 49.9283 120.688 51.231C119.112 50.0388 117.943 48.3174 118.618 46.8344Z" fill="#38391B"/>
<path d="M124.213 48.0502C126.109 47.8758 127.225 49.5448 127.801 50.8417C126.696 51.9176 125.387 52.662 124.393 52.7144C123.398 52.7667 121.898 52.1328 120.683 51.2314C121.247 49.9287 122.34 48.2189 124.213 48.0502Z" fill="#D05E53"/>
</g>
<g clip-path="url(#clip3_3218_67056)">
<path d="M71.7432 47.4925C73.6449 51.703 72.4295 55.6344 73.0227 58.0188C73.6973 60.6998 77.4193 61.7233 75.756 67.4924C73.1274 76.6113 62.9617 83.8691 51.2432 80.6415C39.5248 77.4138 30.9526 64.4974 35.0352 51.6274C38.4547 40.8337 48.3064 35.0355 59.3967 38.2515C62.9559 39.2518 69.4635 42.4388 71.7432 47.4925Z" fill="#AAD6B3"/>
<path d="M39.9669 60.5312C39.5957 59.093 38.9052 57.757 37.9467 56.6223C36.9882 55.4876 35.7864 54.5835 34.4304 53.9771C32.017 66.0328 40.246 77.6058 51.2433 80.6358C52.5764 81.0041 53.9382 81.259 55.3143 81.3976C42.927 77.0534 41.3626 65.6606 39.9669 60.5312Z" fill="#95BC9C"/>
<path d="M55.931 57.8387C56.0976 57.1223 55.7558 56.4307 55.1677 56.2939C54.5795 56.1571 53.9677 56.627 53.8011 57.3435C53.6346 58.0599 53.9763 58.7515 54.5644 58.8882C55.1526 59.025 55.7644 58.5551 55.931 57.8387Z" fill="#222222"/>
<path d="M69.3982 58.4826C69.5684 57.7505 69.2194 57.0438 68.6188 56.9042C68.0181 56.7645 67.3932 57.2447 67.223 57.9768C67.0528 58.7088 67.4017 59.4155 68.0024 59.5551C68.603 59.6948 69.2279 59.2146 69.3982 58.4826Z" fill="#222222"/>
<path d="M56.8205 61.223C57.844 59.0538 60.3505 61.8918 62.6361 61.9151C64.9216 61.9383 65.7823 60.0192 67.5095 61.0544C69.545 62.2756 68.0911 65.8522 63.7236 66.87C59.3561 67.8877 55.1979 64.6658 56.8205 61.223Z" fill="#323D33"/>
<path d="M64.7007 66.5854C61.1008 64.4918 58.3326 64.0207 56.6868 63.9858C57.5242 66.1434 60.5541 67.5973 63.7062 66.8936C64.0431 66.8092 64.3751 66.7063 64.7007 66.5854Z" fill="#D05E53"/>
<g opacity="0.2">
<path opacity="0.2" d="M67.9721 44.5742C68.3076 44.0415 67.447 42.8966 66.0501 42.0168C64.6531 41.1371 63.2487 40.8558 62.9132 41.3885C62.5777 41.9212 63.4383 43.0662 64.8353 43.9459C66.2322 44.8256 67.6367 45.1069 67.9721 44.5742Z" fill="white"/>
</g>
</g>
<path d="M-1 63C0.838222 70.5765 11.2272 85.7294 30.0773 85.7294H324.36C336.726 85.4 364.567 88.7929 377 105" stroke="#EA4579" stroke-width="2"/>
<path d="M137 97.5H312.5C321.167 97.8333 337.5 98.5 344.5 104.5" stroke="#B7B7B7" stroke-miterlimit="2.85812" stroke-linecap="round" stroke-linejoin="round" stroke-dasharray="4 4"/>
<defs>
<filter id="filter0_f_3218_67056" x="347.629" y="76.4844" width="8.00281" height="8.00293" filterUnits="userSpaceOnUse" color-interpolation-filters="sRGB">
<feFlood flood-opacity="0" result="BackgroundImageFix"/>
<feBlend mode="normal" in="SourceGraphic" in2="BackgroundImageFix" result="shape"/>
<feGaussianBlur stdDeviation="1" result="effect1_foregroundBlur_3218_67056"/>
</filter>
<filter id="filter1_f_3218_67056" x="232.061" y="82.8892" width="9.73352" height="9.28125" filterUnits="userSpaceOnUse" color-interpolation-filters="sRGB">
<feFlood flood-opacity="0" result="BackgroundImageFix"/>
<feBlend mode="normal" in="SourceGraphic" in2="BackgroundImageFix" result="shape"/>
<feGaussianBlur stdDeviation="1" result="effect1_foregroundBlur_3218_67056"/>
</filter>
<filter id="filter2_f_3218_67056" x="16.99" y="0.492188" width="9.95508" height="8.07373" filterUnits="userSpaceOnUse" color-interpolation-filters="sRGB">
<feFlood flood-opacity="0" result="BackgroundImageFix"/>
<feBlend mode="normal" in="SourceGraphic" in2="BackgroundImageFix" result="shape"/>
<feGaussianBlur stdDeviation="1" result="effect1_foregroundBlur_3218_67056"/>
</filter>
<clipPath id="clip0_3218_67056">
<rect width="112.898" height="80.8252" fill="white" transform="translate(222 1)"/>
</clipPath>
<clipPath id="clip1_3218_67056">
<rect width="46.6295" height="40.3545" fill="white" transform="translate(161 27)"/>
</clipPath>
<clipPath id="clip2_3218_67056">
<rect width="52.0089" height="65.9199" fill="white" transform="translate(92 15)"/>
</clipPath>
<clipPath id="clip3_3218_67056">
<rect width="42.1747" height="44.059" fill="white" transform="translate(34 37.3618)"/>
</clipPath>
</defs>
</svg>
